<?xml version="1.0" encoding="utf-8"?>
<!-- Generator: Adobe Illustrator 22.1.0, SVG Export Plug-In . SVG Version: 6.00 Build 0)  -->
<svg version="1.1" id="图层_1" xmlns="http://www.w3.org/2000/svg" xmlns:xlink="http://www.w3.org/1999/xlink" x="0px" y="0px"
	 viewBox="0 0 800 800" style="enable-background:new 0 0 800 800;" xml:space="preserve">
<style type="text/css">
	.st0{fill:#951E23;}
	.st1{fill-rule:evenodd;clip-rule:evenodd;fill:#951E23;}
</style>
<path class="st0" d="M300,196.7c5.1-7.4,10.2-14.8,15.2-22.2c4.3-6.4,9.6-12,15.7-16.7c7-5.4,15.6-8.4,24.5-8.4c0.3,0,0.6,0,0.9,0
	c-0.4,0.9-0.7,1.9-0.9,2.8c-5.1,1.7-9.3,5.3-11.7,10c-2.2,1-4.4,2.2-6.3,3.7c-5.2,4-9.8,8.9-13.5,14.3c-3.7,5.5-7.4,11-11.2,16.4
	H300z"/>
<path class="st0" d="M315.7,196.7c3.4-5,6.8-10,10.2-14.9c3.6-5.3,7.9-9.9,12.9-13.7c1-0.8,2.1-1.5,3.3-2.2
	c-0.6,2.1-0.9,4.2-0.9,6.4c-4.4,3.4-8.2,7.6-11.3,12.2c-2.8,4.1-5.5,8.2-8.4,12.2H315.7z"/>
<path class="st0" d="M324.7,196.7c2.5-3.6,4.9-7.2,7.4-10.8c2.7-3.9,5.8-7.5,9.5-10.5c0.3,1.7,0.8,3.4,1.6,5c-2.7,2.4-5,5.2-7.1,8.2
	c-1.8,2.7-3.7,5.4-5.5,8.1H324.7z"/>
<polygon class="st0" points="278.3,242.1 278.3,242.1 278.3,532.2 284.5,532.2 284.5,248.4 515,248.4 515,532.2 521.2,532.2 
	521.2,242.1 "/>
<path class="st0" d="M494.3,269.1H305.2v125.1h189.1V269.1z M305.2,532.2h189.1v-125H305.2V532.2z M343.3,307.4v-0.3H456v47.8H343.3
	V307.4z M456,494.3H343.3v-48.9H456V494.3z"/>
<polygon class="st0" points="232.8,196.4 232.8,196.7 232.8,532.2 272.1,532.2 272.1,235.7 527.6,235.7 527.6,532.2 566.7,532.2 
	566.7,196.4 "/>
<path class="st0" d="M434.6,79.8c-18.3-19.3-48.6-20.1-67.9-1.8c-11,10.4-16.4,25.5-14.6,40.6c1.6,0.2,3.3,0.6,4.8,1.3
	c7.4,3.4,10.6,12.1,7.3,19.5c-0.5,1.2-1.3,2.3-2.1,3.3c0.1,0.2,0.3,0.4,0.4,0.6c3.8-1.9,8.3-2,12.3-0.4c2.3,1,4.4,2.5,5.6,4.6
	c0.9,1.4,1.4,3.6,1.3,5c-0.1,1.6-0.7,3.3-1.6,4.4c-1.2,1.4-2.4,2.2-4.6,2.5c-1.7,0.2-4.3-0.2-4.9-1.5c0.8,0.1,1.3-0.6,1.2-1.4
	c-0.1-0.9-0.8-1.2-1.2-1.3c-1.1-0.2-2.2,0.6-2.6,1.7c-0.9,2.5,0.6,5.2,3.1,6c0.1,0,0.3,0.1,0.4,0.1c13-9.5,29.8-11.9,44.9-6.3
	c4.7-4.1,10.4-7.1,16.4-8.8C452,129.4,452.8,99,434.6,79.8 M374.5,140.5c-4.7,0-8.5-3.8-8.5-8.5c0-4.7,3.8-8.5,8.5-8.5
	c4.7,0,8.5,3.8,8.5,8.5C382.9,136.7,379.2,140.5,374.5,140.5 M399.7,129c-9,0-16.2-7.3-16.2-16.2c0-9,7.3-16.3,16.2-16.3
	c9,0,16.3,7.3,16.3,16.3C416,121.8,408.7,129,399.7,129"/>
<path class="st0" d="M377.5,156.3c-1,0.9-3,1.4-4.4,1.1c0.8-1.5,0.2-3.4-1.3-4.2c-0.4-0.2-1.1-0.4-1.6-0.4c-2.7,0.1-4.2,1.9-4.4,4.2
	c-0.1,0.9,0,1.8,0.1,2.6c-1.5,0-3.1,0.2-4.5,0.8c-4.3,1.8-6.3,6.8-4.5,11.1c0.7,1.6,1.8,2.9,3.2,3.8c-0.5,0.8-1,1.6-1.5,2.4
	c-1.7,3-3.5,6.1-5.2,9.1c-4.4-2.4-7.5-6.7-8.5-11.6c-1.9-9.3,4.1-18.5,13.4-20.4c0.1-0.9,0.2-1.7,0.4-2.5c1.7-6,8-9.4,14-7.6
	c1.9,0.6,3.6,1.5,5,3.2c0.9,1.1,1.5,2.5,1.5,4C379.3,153.9,378.5,155.5,377.5,156.3"/>
<path class="st0" d="M364.9,162.3c-1.9,1.8-2,4.9-0.2,6.8c0,0,0.1,0.1,0.1,0.1c-1.2,1.3-2.2,2.6-3.3,4c-1-0.6-1.8-1.6-2.3-2.7
	c-1.3-3,0.1-6.4,3.1-7.7C363.2,162.6,364,162.4,364.9,162.3"/>
<path class="st0" d="M366.3,167.7c1.1-1.1,2.3-2.2,3.5-3.2c-1-0.5-1.9-1.3-2.6-2.2c-1.7,1.2-2.2,3.5-1,5.2
	C366.3,167.6,366.3,167.6,366.3,167.7"/>
<path class="st0" d="M348.5,142.8c4.9,2.1,10.5-0.1,12.7-4.9c2.6-5.7,0.1-12.5-5.6-15.1c-2.4-1.1-5.1-1.3-7.7-0.6
	c-4.4-8.1-14.5-11.1-22.6-6.8c-4.8,2.6-8.1,7.4-8.6,12.9c-11,2.3-18.1,13.1-15.8,24.1c1.6,7.7,7.5,13.8,15.1,15.6
	c3.1-3.9,6.6-7.5,10.4-10.8c-3.3-3.3-5.1-7.8-5.1-12.5c0-6.2,3.1-11.5,7.9-14.6c2.9-1.9,7-2.9,10.4-2.9c5.5,0,8.8,2.7,9.7,4.5
	c0.9,1.8,0.9,4.1-0.8,5.3c-1.5,1-3.5,0.7-4.6-0.2C344.2,139.5,346,141.7,348.5,142.8"/>
<path class="st0" d="M336.1,129.8c2.5-0.6,6.2-0.6,8.9,0.5c-3.3-0.6-5.8,0.1-7.8,1.3c-2.9,1.8-4.9,4.9-5.2,8.5
	c-0.3,4,1.6,7.9,4.9,10.1c-3,1.4-5.9,3.2-8.5,5.3c-3.8-4-5.2-9.7-3.7-14.9C326.3,135.1,330.8,131.1,336.1,129.8"/>
<path class="st0" d="M340.1,148.9c5.8-2.2,12-3.1,18.2-2.7c0.5-0.6,1-1.1,1.5-1.6c-0.2-0.2-0.3-0.4-0.5-0.6
	c-0.2,0.1-0.4,0.2-0.6,0.3c-3.7,2.2-8.4,2.1-12,0.3c-0.6-0.3-1.2-0.7-1.7-1.1c-2.8-2.4-3.1-4.9-3.1-5.8c0-2,1.1-3.3,1.8-3.1
	c0.2,0.9,1.1,1.4,2,1.3c1-0.2,1.6-1.1,1.5-2c-0.2-1-0.8-1.5-2.1-1.9c-1.1-0.4-2.9-0.3-4.3,0.1c-3,0.9-5.4,3.3-6.2,6.5
	C333.7,143,336,147.3,340.1,148.9"/>
<path class="st0" d="M287.7,165.4c2.3-0.8,4.7-1.3,7.1-1.6c-0.5-3.3,0.7-6.6,3.3-8.6c-0.8-2.8-1.2-5.6-1-8.5
	C289.4,149.2,285.1,157.6,287.7,165.4"/>
<path class="st0" d="M297.7,163.6c1.7,0,3.5,0,5.2,0.2c-1.5-1.7-2.7-3.6-3.7-5.7C297.9,159.6,297.3,161.6,297.7,163.6"/>
<path class="st0" d="M315.5,121.6c0-3.3-2.7-6-6-6c-3.3,0-6,2.7-6,6c0,3.3,2.7,6,6,6C312.8,127.6,315.5,124.9,315.5,121.6"/>
<path class="st0" d="M380.6,132c0-3.4-2.7-6.1-6.1-6.1c-3.4,0-6.1,2.7-6.1,6.1c0,3.4,2.7,6.1,6.1,6.1
	C377.9,138.1,380.6,135.4,380.6,132"/>
<path class="st0" d="M470.4,130.8c-2.3-1-4.7-1.5-7.2-1.3c0.3-1.2,0.6-2.4,0.9-3.7c3.1-0.5,6.2,1.2,7.3,4.2
	C471,130.2,470.7,130.5,470.4,130.8"/>
<path class="st0" d="M473.9,128.4c-1.6-3.7-5.4-5.9-9.4-5.7c0.3-2.1,0.5-4.1,0.7-6.2c6.8-0.9,13.2,3.6,14.6,10.3
	C477.8,127,475.8,127.5,473.9,128.4"/>
<path class="st0" d="M500.8,164.3c0.5-2.9-0.8-5.7-3.2-7.3c1-2.8,1-5.8-0.1-8.6c7,2.4,11.4,9.4,10.6,16.7
	C505.7,164.6,503.2,164.3,500.8,164.3"/>
<path class="st0" d="M507,141c0-3.4-2.8-6.2-6.2-6.2c-3.4,0-6.1,2.8-6.1,6.2c0,3.4,2.8,6.2,6.1,6.2C504.3,147.1,507,144.4,507,141"
	/>
<path class="st0" d="M460.2,129.9c-7.5,1.8-12.7,8.7-12.4,16.4v0c-1.2-0.1-2.5-0.2-3.7-0.2c-1.9,0-3.7,0.1-5.6,0.4
	c18.6-21.4,16.3-53.8-5.1-72.4C412,55.5,379.6,57.7,361,79.1c-9.2,10.6-13.6,24.4-12.4,38.3c-3-3.6-7.1-6-11.6-6.9
	c0.2-5,1-9.9,2.3-14.8c9.4-33.4,44.1-52.8,77.5-43.4C450.2,61.8,469.6,96.5,460.2,129.9"/>
<path class="st0" d="M410.8,196.7h5.5c-0.7-1.3-1.4-2.5-2.1-3.8c-4.5-8-14.7-10.8-22.7-6.3c-2.6,1.5-4.8,3.6-6.2,6.3
	c-0.7,1.3-1.4,2.5-2.1,3.8h5.5c0.3-0.5,0.5-0.9,0.8-1.4c1.1-1.9,2.6-3.4,4.4-4.4c5.7-3.2,12.9-1.2,16.1,4.4
	C410.3,195.8,410.6,196.2,410.8,196.7"/>
<path class="st0" d="M391.7,196.7h16.2c-2.5-4.5-8.1-6.1-12.5-3.7C393.8,193.9,392.5,195.1,391.7,196.7"/>
<path class="st0" d="M259.3,196.7c5.2-6.4,10.4-12.8,15.8-19c9.7-11.2,25.8-14.1,38.8-7c-0.5,0.6-0.9,1.3-1.3,1.9
	c-1.5,2.2-3,4.5-4.5,6.7c-8.6-4.1-18.8-2-25.1,5.2c-3.5,4-6.9,8.1-10.3,12.2H259.3z"/>
<path class="st0" d="M275.4,196.7c3-3.6,6.1-7.2,9.1-10.8c5.5-6.3,14.5-8.3,22.1-4.7c-0.9,1.4-1.8,2.7-2.8,4
	c-5.5-2.2-11.8-0.6-15.7,3.9c-2.2,2.5-4.4,5.1-6.5,7.6H275.4z"/>
<path class="st0" d="M284.6,196.7c1.7-2.1,3.5-4.1,5.3-6.2c3.1-3.6,8.2-5,12.8-3.4c-0.9,1.3-1.8,2.6-2.7,3.9c-2.5-0.4-5,0.5-6.7,2.5
	c-0.9,1.1-1.9,2.2-2.8,3.3H284.6z"/>
<path class="st0" d="M293.3,196.7h2.7c0.9-1.2,1.7-2.4,2.5-3.6c-1.4,0.1-2.7,0.7-3.6,1.7C294.4,195.5,293.8,196.1,293.3,196.7"/>
<path class="st0" d="M485.7,170.7c12.9-7.1,29.1-4.2,38.8,7c5.4,6.2,10.6,12.6,15.8,19h-13.3c-3.4-4.1-6.8-8.2-10.3-12.2
	c-6.2-7.2-16.5-9.3-25.1-5.2c-1.5-2.2-3-4.5-4.6-6.7C486.5,172,486.1,171.4,485.7,170.7"/>
<path class="st0" d="M524,196.7h-6.3c-2.1-2.6-4.3-5.1-6.5-7.6c-3.9-4.5-10.2-6-15.7-3.9c-0.9-1.3-1.9-2.7-2.8-4
	c7.6-3.5,16.6-1.6,22.1,4.7C518,189.5,521.1,193.1,524,196.7"/>
<path class="st0" d="M514.9,196.7h-5.8c-0.9-1.1-1.9-2.2-2.8-3.3c-1.7-1.9-4.2-2.9-6.7-2.5c-0.9-1.3-1.8-2.6-2.7-3.9
	c4.5-1.6,9.6-0.2,12.8,3.4C511.4,192.6,513.2,194.6,514.9,196.7"/>
<path class="st0" d="M506.2,196.7c-0.5-0.6-1-1.2-1.6-1.8c-0.9-1-2.2-1.7-3.6-1.7c0.8,1.2,1.6,2.4,2.5,3.6H506.2z"/>
<path class="st0" d="M445.2,184.6c0.1,0.2,0.7,1.3,0.8,1.5c2,3.6,4.1,7.1,6.1,10.6h5.3c-0.6-0.8-1.4-2-1.9-2.8
	c-2.2-3.3-6.2-8.1-8.1-8.8C446.7,184.7,445.3,184.4,445.2,184.6"/>
<path class="st0" d="M349.5,188.3c0,0-0.4-0.3-0.9-0.7c-1.3,1.4-2.5,3-3.6,4.7c-0.4,0.6-0.7,1.1-1.1,1.6c-0.6,0.8-1.4,2-1.9,2.8h0.5
	h4.7c1.4-2.4,2.7-4.7,4.1-7.1C350.8,189.2,350.1,188.8,349.5,188.3"/>
<path class="st0" d="M341.9,192.7c1.5-2.2,2.9-4.4,5.2-6.6c0,0,0,0-0.1-0.1c-1-1-1.8-2.1-2.5-3.3c-2.3,2.2-4.4,4.6-6.2,7.3
	c-1.5,2.2-3,4.4-4.5,6.7h5.6C340.1,195.5,340.8,194.3,341.9,192.7"/>
<path class="st0" d="M473.5,181.8c-1.5-2.3-3.2-4.4-4.9-6.4c-8.4-11-18.3-12.4-19.6-12.6c-1.7-0.3-3.3-0.4-5-0.4
	c-4.4,0-8.8,1.1-12.6,3.2c1.3,1.1,2.5,2.3,3.6,3.6c2.8-1.3,5.9-2,9-2c2.1,0,4.2,0.3,6.3,0.8v0c0,0,4.1,0.6,9.3,4.8
	c2.2,1.8,4.6,4.4,7,7.7c1,1.3,2,2.6,3,4c2.8,4.1,5.6,8.2,8.4,12.2h5.8C480.3,191.7,476.9,186.7,473.5,181.8"/>
<path class="st0" d="M467.4,185.9c-1.1-1.6-2.2-3-3.3-4.4c-2-2.8-4.2-5.1-6.1-6.6c-3.9-3.2-6.8-3.8-6.8-3.8l0,0
	c-2.3-0.8-4.7-1.3-7.1-1.3c-2.5,0-5,0.5-7.3,1.5c1,1.3,2,2.6,2.9,4c1.4-0.5,2.9-0.7,4.4-0.7c1.8,0,3.7,0.4,5.5,1
	c0.7,0.2,3.8,1.1,7.6,4.9c1.5,1.5,3.3,4,4.9,6.2v0c0.4,0.6,0.9,1.2,1.4,1.9c1.8,2.7,3.7,5.4,5.5,8.1h5.8
	C472.3,193.1,469.9,189.5,467.4,185.9"/>
<path class="st0" d="M461.3,190c-0.8-1.2-1.6-2.3-2.4-3.4c-2.6-3.6-4.9-5.6-6.6-6.8h0c0,0,0,0-0.1,0c-0.4-0.3-0.8-0.5-1.1-0.7
	c-2-1.2-4.7-2-7-2c-1,0-2,0.1-3,0.4l0,0.1c0.8,1.4,1.6,2.9,2.5,4.3c0.1,0,0.3,0,0.4,0c1.1,0,2.3,0.3,3.5,0.8l0,0
	c0,0,0.2,0.1,0.4,0.2c0.2,0.1,0.4,0.2,0.6,0.3c1.4,0.8,3.9,2.5,5.9,5.6c1,1.3,2,2.6,2.9,4c0.9,1.3,1.8,2.6,2.7,4h5.8
	C464.3,194.5,462.8,192.2,461.3,190"/>
<path class="st0" d="M484.2,174.5c-1.1-1.6-2.2-3.2-3.4-4.8c-3.1-4.2-6.3-7.4-9.3-10c-0.8-0.7-1.6-1.3-2.4-2
	c-2.6-2.1-5.6-3.7-8.7-5.1c-3.1-1.4-5.3-1.9-6.1-2c-3.4-0.8-6.8-1.3-10.2-1.3c-8.8,0-17.4,3-24.3,8.5c3.4,1.6,6.6,3.6,9.6,5.9
	c4.4-2.7,9.5-4.1,14.7-4.1c1.7,0,3.3,0.1,5,0.3c0.5,0.1,2,0.2,4.1,0.9c2,0.5,3.9,1.3,5.8,2.4c1.5,0.8,3,1.8,4.6,3c2.6,2,5,4.4,7.8,8
	c1.5,1.9,3,3.9,4.4,5.9c3.7,5.5,7.5,11,11.2,16.4h12.6C494.3,189.3,489.3,181.9,484.2,174.5"/>
<path class="st0" d="M496.2,159.6c-0.3,0.6-0.7,1.4-1.9,2.5c-1.1,1.2-3.1,2.6-5.9,3.4c-3.3,1-5.3,0.6-6.4,0.5
	c0.7,0.8,1.4,1.7,2.1,2.6c4.2-2.4,8.8-3.8,13.6-4.2C498.2,162.7,497.6,160.7,496.2,159.6"/>
<path class="st0" d="M472.6,156.4c0-1,0.2-1.9,0.7-2.8c1.5-3.1,5.2-4.4,8.1-3.1c-0.9,0.5-1.3,1.8-0.7,2.7c0.6,0.9,1.7,1.3,2.7,0.9
	c0.3-0.1,0.5-0.3,0.7-0.4c0.5-0.6,0.7-1.3,0.7-1.9c0.1-1.6-1.1-2.7-1.4-3c-1.1-0.9-2.7-1.4-4.2-1.6c-2.6-0.3-5.4,0.7-7.2,3
	c-1.1,1.3-1.7,2.9-1.8,4.5C470.9,155.1,471.8,155.7,472.6,156.4"/>
<path class="st0" d="M468,153.2c0.3-1.9,1.1-3.6,2.4-5c1.9-2.1,4.6-3.2,7.2-3.1c2.6,0,5.1,0.9,7.1,2.9c-1.3-2.6-4.5-4.4-7.6-4.7
	c-2.4-0.4-4.9,0.2-7,1.6c-2.4,1.6-3.9,4.1-4.3,6.9C466.5,152.2,467.2,152.7,468,153.2"/>
<path class="st0" d="M493.9,147.2c-0.5-0.7-1.1-1.4-1.9-2c1.7-6.3-2-12.9-8.3-14.6c-4.7-1.3-9.7,0.4-12.7,4.3
	c-5.8-3.9-13.8-2.4-17.7,3.4c-1.7,2.4-2.4,5.4-2.1,8.3c0,0,3.8,0.4,9.1,2.5c0,0,0,0,0.1,0c0.9,0.4,1.9,0.8,2.9,1.2
	c0.6-3,2.4-5.7,4.9-7.4c2.8-1.9,6.1-2.6,9.3-2.1c3,0.5,5.7,1.8,7.7,4.3c1.6,1.9,2.3,4.5,1.9,6.9c-0.4,2.4-2.3,4-4.8,4
	c-0.5,0-1-0.1-1.4-0.3c-1.7-0.8-2.5-2.7-1.7-4.4c-2.9,0.8-4.5,3.8-3.7,6.6c0.2,0.7,0.6,1.6,1,2.2c1,1.6,4.3,4.2,9.7,3.3
	c2.7-0.5,4.7-1.6,6.3-3.1c1.5-1.5,2.7-3.6,3-5.7C495.9,152.2,495.5,149.3,493.9,147.2"/>
<path class="st0" d="M448.3,196.7c-3.3-5.8-6.7-11.6-10-17.4c-12.1-21.3-39.1-28.7-60.4-16.7c-7,4-12.7,9.7-16.7,16.7
	c-3.3,5.8-6.6,11.7-10,17.4h11.9c1.9-3.2,3.7-6.5,5.6-9.7h0c3.4-6.2,7.1-10.1,9.9-12.4c1.3-1.1,2.7-2,4.2-2.9
	c0.6-0.3,0.9-0.4,0.9-0.4l0,0c10.3-5.5,22.2-5.1,31.9,0l0,0c0,0,0.2,0.1,0.6,0.3c1.2,0.6,2.3,1.3,3.4,2.1c0.2,0.2,0.5,0.4,0.7,0.5
	c0.1,0.1,0.2,0.1,0.2,0.2c2.9,2.4,6.6,6.3,10.1,12.6l0.1,0c1.8,3.2,3.7,6.5,5.5,9.7H448.3z"/>
<path class="st0" d="M428.5,188.2c-0.5-0.8-2.1-3.5-2.8-4.6c-1.8-2.6-3.6-4.6-5.3-6c-9.8-8.6-24.2-10.5-36.2-3.7
	c-1.7,1-3.3,2.1-4.7,3.3c-1.3,1.1-3.8,3.8-4.7,5.1c-0.5,0.7-1,1.4-1.5,2c-0.1,0.1-0.1,0.2-0.2,0.3c-0.4,0.6-1.1,1.9-1.3,2.2
	c-1.9,3.3-3.8,6.6-5.7,9.9h5.5c1.6-2.7,3.1-5.5,4.7-8.2c2-3.1,3.8-5.2,5.2-6.6c1.2-1.1,2.5-2.2,3.9-3.1h0h0c0.4-0.2,0.8-0.5,1.1-0.7
	c9-5.1,19.6-4.4,27.7,0.9h0c1.1,0.7,2.1,1.5,3,2.3c1.5,1.5,3.5,3.8,5.9,7.5c1.5,2.7,3.1,5.4,4.6,8h5.5
	C431.7,193.9,430.1,191,428.5,188.2"/>
<path class="st0" d="M420.6,189.3c-0.1-0.1-0.2-0.3-0.2-0.4c-1.2-1.8-2.3-3.2-3.3-4.4c-7.4-7.8-19.4-9.8-29.2-4.3
	c-2.5,1.4-4.7,3.3-6.5,5.5c-0.4,0.6-0.9,1.2-1.4,1.8c-0.4,0.5-0.8,1.1-1.1,1.7c-1.4,2.5-2.8,5-4.2,7.4h5.5c1-1.7,1.9-3.4,2.9-5
	c1.7-3,4.2-5.5,7.2-7.2c9.2-5.2,20.9-2,26.2,7.2c0.9,1.7,1.9,3.4,2.9,5h5.5C423.4,194.2,422,191.8,420.6,189.3"/>
<path class="st1" d="M322,625.1c-0.3-0.3-0.6-0.6-0.9-0.9c0.1-1.3,0.2-2.5,0.3-3.7v-5.7c0.2-1.1,0.9-2.5,0.4-3.9
	c-0.4-1.1-1.1-2-1.7-2.9c-1.2-1.8-1.9-3.9-3.5-5.2c-1.6-1.2-7-0.7-9.1-0.4c-2.1,0.4-4.3,0.5-6.2,0.9c-4.9,1.2-9.3,2.9-13.8,4.4
	c-0.2-0.2-0.2-0.3-0.5-0.4v0.2c-0.3-0.3-0.5-3.1-0.7-3.9c-0.4-1.5-1.1-2.5-1.5-3.9c-0.5-2,0-4.4-1.2-5.9c-0.5-0.3-1-0.5-1.5-0.7
	c-0.9-0.5-1.8-0.8-3.4-0.8c-0.1,0.1-1.9,0.5-2.2,0.7c-0.4,0.2-0.7,0.8-1.1,1.1c-0.4,0.1-0.9,0.3-1.3,0.5c-0.8,0.5-1.1,2.4-1.1,3.8
	c-0.1,0,0,0-0.1-0.1c0,0.4,0,0,0.1,0.4c-0.1,0.2-0.2,0.5-0.3,0.6c-0.1,0-0.1,0.1-0.1,0c-0.4,0.9-0.8,2.4-0.2,3.7
	c0.2,0.5,1,0.8,0.8,1.6c-0.1,0.7-0.6,1-0.9,1.4c1.8,2.1,4.2,3.5,7.3,4.3v0c-1,1.2-4.8,1.6-6.8,2.2c-1.7,0.4-3.3,0.8-4.9,1.3
	c-2.3,0.8-4.5,2-6.7,3c-0.1-1.6-0.6-2.9-1.8-3.4v-0.9c-0.4-1.2-1.6-2.2-2.2-3.4c-0.3-0.6-1.2-1.3-1-2.1c-0.5-0.2-1-0.1-1.4-0.2
	c-0.1-0.1-0.1,0-0.1-0.2c-0.3,0.1-0.3,0.2-0.5,0.3c-0.2,0.1-0.5-0.1-0.7-0.1c-0.2,1.1-0.9,1.9-1.2,2.9c-0.1,0.9-0.2,1.7-0.3,2.5
	c-1,2.8-1.8,6.1-3.3,8.5c-0.5,0.9-1.1,2.8-1.9,3.4c-0.6,0.5-1.3,0.2-2.2,0.4c-0.6,0.2-1,0.5-1.6,0.6c-0.9,0.3-2.4-0.2-2.8,0.3
	c-0.4,0.6-0.3,2.1-0.5,2.9c-0.5,2.1-1.6,4.8,0,6.5c0.3,0.3,1,0.8,1.3,0.9c0.2,0.1,0.7,0,0.7,0c0.6,0.4,3.2,2.6,3.2,2.9
	c0.5,0.1,2.4,0.5,2.6,0.6c0.4-0.3,1-0.1,1.6-0.4c1.9-0.9,3.4-1.2,4.6-2.7c0.6-0.8,1.5-3,2.2-3.4c0.3-0.2,0.7,0,1.1-0.2
	c0.7-0.3,1.4-0.6,2.1-0.9c0.8-0.9,1.5-1.8,2.3-2.6c2.1-1.5,4.4-2.9,6.6-4.4c0.6-0.6,1.3-1.1,1.8-1.7c1.3-0.8,2.7-1.1,4.3-1.6
	c1.2-0.4,2.3-0.9,3.5-1.4c1.4-0.5,2.8-0.6,4.1-1.1c2.6-1.1,5.9-1.9,8.5-3.1c3.3-1.5,6.8-3,10.4-4.3c3.3-1.2,7.3-1.8,10.1-2.6
	c2.1-0.7,5-0.7,6.4,0.5c0.5,0.5,0.3,0.7,0.5,1.2c0.1,0.1,0.3,0.2,0.4,0.3c0.9,1.4,0.2,3.6,0.1,5c-0.2,3.1-1.5,5.7-2.3,8.5
	c-1,0.5-5.2-0.6-6.7-0.4c-2.1,0.2-4.2,0.5-6.2,0.7c-0.4-0.2-0.8-0.4-1.2-0.6c-1.5-0.2-3-0.4-4.5-0.6c-1.4-0.2-4.6,0.5-5.8,0.7
	c-1.3,0.1-2.6,0.2-4,0.3c-0.2,0-0.2-0.1-0.2,0.2c0.6,0.1,1.2,0.1,1.9,0.2v0c-3.3,3-8.1,4-12.2,6.3c-1.1,0.7-2.3,1.5-3.5,2.3
	c-0.4,0.3-0.9,0.9-1.4,1c-0.4-2.3,1-7.3,2.3-8.3c1.1-0.8,2.7-1.1,3.7-1.6c0,0,0,0,0.1-0.1c-2.1-0.2-4.5-0.5-6.5,0.6
	c-2.2,1.2-5,4.4-6,6.9c-0.3,0.7-0.2,1.5-0.4,2.3c-1.4,5.1-1.6,9.8,1.1,13.8c0.6,0.9,1.6,1.5,2.9,1.8c0.8,0.2,1.2-0.4,1.8-0.1
	c0.6-0.5,1.7-1.9,2.2-2.1c0.1,0.1,0,0.1,0.2,0.1c0.4,1.3,0.1,2.8,1.1,3.5c1.8,1.1,3,0.3,4.5-0.2c0.9-0.2,1.7-0.5,2.7-0.8
	c0.7-0.1,1.5,0.1,2.3-0.3c0.6-0.3,0.9-1,1.5-1.4c0.8-0.5,2.8-1.3,3.7-1.4c0.3-0.6,0.1-1.3,0.3-2.1c0.1-0.1,0.2-0.3,0.3-0.4
	c0.1-0.4-0.4-0.6-0.2-1.1c0.2-0.8,0.8-1.7,1.1-2.4c-0.2-0.6-0.7-1.2-1.5-0.9c-0.1,0-0.1-0.1-0.1-0.1c2-1.9,2.9-4.1,4.2-6.8
	c0.3-0.4,0.5-0.8,0.8-1.2c0.2-0.6-0.4-1.3-0.3-1.7c0-1,0.5-1.8,0.5-2.9c-0.9-0.9-2.4-1.2-3.2-2.2v-0.1c3.8-0.7,8.4,0.3,11,2
	c0.9,0.6,1.1,1.9,2,2.5c1,0.6,2.6,0,3.7,0.4c0.7,0.6,1.5,1.2,2.3,1.8c0.9,0.7,0.8,1.4,1.4,2.4c0.5,0.9,1.7,1.6,2.7,1.9
	c0.6,0,1.3,0,1.9,0c3.3-0.5,2.7-3.2,4.4-5.8c0.6-1,1.9-1.6,2.2-2.9C322.6,627.1,322.4,625.7,322,625.1 M279.5,641.6
	c-0.8,0.1-1.3-0.6-2.2-0.8c0,0,0,0,0-0.1c0.4-1.5,3.2-1.6,4.3-2.3c0.1,0,0.2,0.1,0.3,0.1C281.2,639.7,279.9,640.3,279.5,641.6
	 M310.2,606.1c-1.1-0.2-2.8,0.2-3.9,0.5c-0.1-0.1-0.3-0.4-0.5-0.4c-0.2,0-0.4,0.4-0.7,0.5c-0.6,0.2-1.6,0.1-2.3,0.3
	c0.9-1.2,4.5-0.8,6.1-1.4h1.4C310.2,605.8,310.2,605.8,310.2,606.1 M310.4,606.1c0-0.1,0-0.1,0-0.2c0.1,0,0.1,0.1,0.1,0.1
	C310.5,606.1,310.4,606.1,310.4,606.1 M310.8,606.1c-0.2-0.2-0.2-0.2-0.4-0.2c0.2-0.3,0.5-0.3,0.7-0.4c0.5,0,1-0.1,1.3,0.2h0.1
	C312.2,605.9,311.4,605.9,310.8,606.1 M318.5,607.3L318.5,607.3c-3.3-3.2-6.3-2.7-11.3-2c-2,0.3-4.4,0.3-6,1c0,0-0.1-0.1-0.1-0.1
	c0.8-0.9,2.4-0.6,3.7-1c1.6-0.5,3.9-0.9,6.1-1c0.4,0,1.8,0.1,2.2-0.1c2.6,0.1,4.7,0.9,5.5,3.1V607.3z M298.6,651h0.6
	c0.2,0.2,0.5,0.5,0.7,0.6c-0.5,0.7-0.2,2.2-0.5,3.5c-0.3,0.9-0.8,1.5-1.1,2.1c-0.5,1.1-0.5,2.3-1.1,3.1c-1.3,1.6-1.9,0.7-3.3,1.4
	c-0.5,0.3-3.5,4.4-3.6,5.2c1,0.2,2.3,0.5,3,0.9c0.4,0.2,1.4,0.3,1.8,0.4c0.4,0,0.8-0.1,1.3-0.1c0.5,0.1,1.1,0.4,1.7,0.5
	c0.1,0.4,0.2,0.6,0.4,0.9c-0.1,0.1-0.1,0-0.2,0.2c0.1,0.2,0.3,0.4,0.4,0.6h0.1c0-0.1,0.1-0.2,0.1-0.3v0.1c0.2,0.4,0.4,0.9,0.6,1.1
	c0.3,0.1,0.5,0,0.7,0.2c0.3,0.4,0.5,1.1,0.8,1.5c0,0.4-0.1,0.7-0.2,1.1c-0.3,0.7-3.6,4.4-4.3,4.8c-0.4,0.1-1,0.2-1.4,0.3
	c-0.6-0.2-1.2-0.4-1.9-0.7c-0.7-0.4-1.4-1.6-2.4-1.4c-1,0.1-1.9,0.2-2.8,0.3c-0.7,0.2-1.4,0.5-2.1,0.7c-1,0.2-2.8,0.2-3.7,0.6
	c-1,0.5-2.3-0.5-2.6,0.9c-0.1,0-0.2,0-0.3-0.1c0.1,0,0.1-0.1,0.1-0.2c-3.3,0.1-3.6-1.6-5-3.6c-0.3-0.4-1-0.7-1.2-1.2
	c-0.4-1.2,0.2-3.1,0.6-3.9c0.9-1.6,2.4-2.5,4.5-2.8c0.7,0.1,1.3,0.1,1.9,0.2c0.8-0.5,1.6-1.1,2.4-1.6c0.6-0.2,1.6-0.4,2.4-0.8
	c0.5-0.6,0.9-1.3,1.4-1.9c0.5-0.7,1.1-1.3,1.6-1.8c0.5-1,1.1-1.9,1.6-2.9c-1.6,0.1-3.5,1.9-4.8,2.6c-4,2.2-8.3,5-11.6,7.2
	c-1.1,0.7-2.4,1.1-3.2,2.2c1.5,2.4,0.3,3.7-1.5,5c0.1,0.2,0.1,0.5,0,0.8c-0.8,0.2-2,0.8-2.9,0.7c-0.3,0-4.4-3-4.6-3.2
	c-0.1-0.4-0.1-0.8-0.2-1.3c-0.3-0.4-0.4-0.9-0.6-1.3c0.5-1.9-0.2-3.5-0.5-5.5c-0.2-0.9,0.2-1.2,0.4-1.9c0-0.3,0-0.7,0-0.9
	c0.2-1.9,0.4-4.4,1.2-5.6h0.3c2.4,1.4,4.1,3.4,5.3,5.7c1.8-0.2,2.7-2,4.3-2.6c3.2-1.2,5.7-3.1,8.6-4.3c1.3-0.5,2.6-0.9,3.9-1.4
	c1.4-0.9,2.8-2.3,4.4-2.8h1.7c0.5-0.2,1-0.3,1.5-0.4c0.9-0.2,1.7-0.3,2.5-0.4c0.3-0.1,0.6-0.3,0.8-0.5
	C296.2,650.8,297.4,651.6,298.6,651 M440.4,590.1c0.3,0.2,0.6,0.4,0.9,0.6c0-0.1-0.1,0,0.1-0.1c0.3,0.5,0.6,0.8,1.2,1.3
	c0.1,1,0.6,2.6,0.8,3.8c0.2,1-0.5,2.3-0.8,3.1c-0.2,0.4,0.1,1.1-0.1,1.5c-0.7,1.7-2.8,2.2-4.2,3.1c-0.2-0.1-0.2-0.1-0.3-0.3
	c-1.3,0.5-2.6,0.2-3.6-0.6c-0.3,0.2-0.6,0.4-0.9,0.5c-0.1-0.1-0.3-0.1-0.2-0.2c-0.8-3.2,6.1-7.4,2.6-10.6c0.3-0.8,1.3-1.4,2.3-1.3
	c0.1-0.4,0.2-0.3,0.5-0.5c0.2,0.1,0,0.1,0.2,0.2c0.2-0.1,0.3-0.2,0.5-0.3c0.1,0.6,0.3,0.3,0.7,0.1
	C440.2,590.2,440.3,590.2,440.4,590.1 M391.7,651.8L391.7,651.8c0-0.3,0-0.6,0.1-0.9v0c0,0,0-0.1-0.1-0.1c-0.2,0.9-0.5,1.8-0.7,2.6
	c-0.2,0.6-0.5,1.2-0.8,1.8h-0.3c0.3-1.9,0.9-3.5,1.3-5.2c0.8-3.3,1.3-6.2,2.3-9.3c0,0,0-0.1,0-0.1h-0.1h-0.1
	c-0.2,0.8-0.4,1.8-0.8,2.5c0,0.1-0.1,0.1-0.2,0.2c0,0-0.1-0.1-0.1-0.1c-0.4-3.4,0.9-6.2,2-8.6c0,0-0.1,0.1-0.1,0.1
	c0.2-0.4,0.3-1.5,0.7-1.9v-0.1c-0.4,0.3-0.7,1.2-0.9,1.8c-0.1,0-0.1,0-0.2,0.1c-0.2-1.1,0.7-2.1,0.7-3.1h-0.1
	c-0.7,1.1-2.1,6.3-2.9,6.6c-0.2,0.1-0.1,0.1-0.3,0c-0.3-1.3,0.6-2.5,0.8-3.5v0c0,0-0.1,0-0.1,0c-0.2,0.5-0.4,0.9-0.6,1.4
	c-0.1,0-0.2,0-0.2,0c0-0.2,0.6-2.8,0.7-3v-0.1c0,0,0,0-0.1,0c-0.3,0.3-0.5,0.8-0.5,1.3c0,0-0.1,0-0.1,0c-0.4-0.3-0.1-0.5,0-1.1h-0.1
	c-1.1,2.6-1.8,5.7-3,8.4c-0.3,0.7-0.9,1.7-1.1,2.6c-0.2,0.1-0.1,0-0.1-0.1c-0.1,0.1-0.1,0.1-0.2,0.2c0.1,0,0.1,0,0.2,0.1
	c0,0-0.1,0.2-0.1,0.2h-0.1c-0.3-2,0.6-3.5,1.1-5.2c0.8-2.6,1.5-5.3,2.3-7.9c-0.5,0.2-2.2,4.5-2.3,5.3c-0.1,0.1-0.1,0.1-0.1,0.1
	c-0.5-1.4,0.4-3.6,0.9-4.5c-0.1,0-0.1-0.1-0.1-0.1c-0.4,0.4-0.4,1-0.6,1.5c-0.4,1.1-1.7,5.2-2.5,5.8c-0.2-0.2-0.2-2.5-0.1-3.3
	c0.5-3,0.4-6.1,1.4-8.6c0.3-0.9,1.8-1,2.5-1.5c1.1-0.7,2.4-1.1,3.4-1.9c0.5-0.4,0.8-1.1,1.3-1.5c0.6-0.5,1.3-0.8,1.8-1.7
	c1.6-2.7-0.7-6.7-1.4-9.3c-0.6-2.2,0.8-4.4,0.2-6.8c-0.2-0.8-0.2-1.7-0.6-2.3c-0.3-0.2-0.5-0.3-0.8-0.5c-0.2-0.8-0.3-1.5-0.5-2.2
	c-0.2-0.4-1.9-1.8-2.4-2h-0.6c-0.2-0.2-0.5-0.4-0.8-0.7c-0.6-0.3-1.8-0.7-2.7-0.7c-0.1,0-0.2,0-0.3,0c0,0.6,0,1.3,0,1.9
	c-0.6,1.1-1.3,2.2-1.9,3.3c-0.9,1.9-1.7,3.6-2.5,5.6c-0.2,0.6-0.8,1-1,1.5c-0.2,0.3,0,0.5,0,0.8c-0.2,0.5-0.6,1.4-0.9,1.8
	c0.2,0.1-0.2,1.8-0.4,2.3c-0.1,0.1,0,0.1-0.2,0c-0.1,0.1-0.1,0.2-0.1,0.3v0.2h0.1c0.1-0.2,0.1-0.3,0.2-0.4h0.1c0,0,0,0,0,0
	c-0.3,1.2-0.6,2.4-1,3.5h0.1v0.2c0.9-1,0.9-3.3,1.9-4c0.1,0.1,0.2,0.2,0.3,0.3c-0.1,0.5-0.1,0.9-0.2,1.4c-0.3,1.3-0.9,5.5-1.5,6.3
	c-0.4,0.5-3.4,0.9-4.2,1.2c-3.6,1.1-7.2,2.2-10.7,3.3c-0.3,0-0.3-0.1-0.5-0.2c-0.1-0.5-0.1-1.3-0.5-1.6c-0.3,0.2-0.7,0.4-1,0.6h-0.7
	c-0.4,0.2-0.4,1-1,1.2c-0.9,0.3-1.3,0-1.6,0.7c-0.4,1,1.4,3,1.8,3.6c0.5,0.8,1.4,1.3,2.3,1.6c1.5,0.5,3.3-0.1,4.5-0.3
	c2.7-0.5,5.3-1.1,8-2c0.3,0,0.3,0,0.5,0.1c0.4,0.6,0,1.7,0,2.5c0,0,0,0,0.1,0c0.1-0.1,0.1-0.4,0.2-0.5c0.1,0,0.1-0.1,0.2-0.2
	c0.1,0.1,0.1,0.1,0.2,0.1c0.3,1.6,0.3,5.3-0.1,6.8v0.2h0.5h0c0,4.2,0.2,8.8,0.7,12.2c0.2,2.2,0.4,4.3,0.5,6.5c0.3,1.4,0.3,3,0.5,4.4
	c0.1,0.8,0.7,2.1,0.4,2.9c-0.5,1.9-0.4,4.8-1.1,6.8c-0.3,0.9-1.2,0.6-1.2,2.2c0,0,0.1,0,0.1,0.1c0.6,0.2,1.4-0.1,2,0.2
	c0.1,0.2,0.3,0.4,0.4,0.8c0.3,0.4,1.1,0.5,1.3,1.1c0,0.4,0.1,0.8,0.1,1.2c0.4,1.2,2.6,3.5,3.7,4c0.4,0.3,0.8-0.1,1.3-0.3
	c0.4-0.2,0.9-0.5,1.3-0.8c0.9-0.3,2.2,0.5,2.9-0.6c-2.1-4.3-1.5-11-0.5-15.9v-1.3c0.2-1.4,0.5-2.7,0.7-4.1c0.6-1.9,1.5-3.6,1.8-5.8
	h0L391.7,651.8z M388.4,614.6c0.2-1.4,0.5-3,0.7-4.4c0.6-3.1,0-5.3,2-7c2.2,1.4,1.1,3.1,1.1,5.4c0.1,2.9-1.2,5.8-2.6,7.6
	c-0.5,0.7-1.1,1.3-1.7,2.1c-0.1,0.1-0.2,0.2-0.4,0.3h-0.1C387.8,617.2,388.1,615.9,388.4,614.6 M443.9,644.6c-0.3-0.3-0.6-0.5-1-0.7
	c-1-0.4-1.6,0.6-2.4,0.7c-1.4,0.1-2.7,0.2-4.1,0.3c-0.8,0.3-1.2,1.2-2.1,1.5c-1.1,0.2-2.2,0.4-3.2,0.6h-0.1c0.2-0.8,1-1.4,1.3-2.1
	c0.2-0.9,0.4-1.7,0.7-2.6c0.1-1.3-0.5-3.1-0.3-4.5c0.4-4.6,0.8-9.1,1.2-13.7c0.5-3.1-0.1-6.3,0.1-9.1c0.1-1-0.4-1.9-0.2-2.7
	c-0.1-0.1-0.1-0.1-0.3,0v-0.2c0.1,0,0.1,0,0.1,0.1v-0.2c-0.3-0.4-1.1-1.8-1.4-2.5c-0.1-0.4-0.2-0.8-0.3-1.2c-0.8-1-2-2.1-2.5-3.3
	c-2.5-0.5-3.2-0.9-5.3,0.4c-0.4-0.4,0.2-3.7,0.2-4.7c0.3-0.2,2.1-0.8,2.1-1c0.3-0.5,0-1.1,0.7-1.4c0.1-0.6-0.4-0.6-1-0.6
	c-0.1-0.5,0-0.9-0.3-1.3c0.3-0.5,0.8-1.1,1.6-0.9c0.3-0.2,0.4-0.5,0.6-0.8c-0.1-1.4-1.8-2.9-3.2-3.2c-0.7-0.1-1,0.3-1.6,0.4
	c-0.3-0.2-0.7-0.5-1-0.8c-0.7-0.2-1.1,0.4-1.4,0.6c-0.3,0-0.7-0.1-1-0.1c-0.5,0.1-2,1.3-2.2,1.7c-0.1,0.6-0.1,1.1-0.2,1.7
	c-0.9,1.2-2.3,1.6-3.5,2.4c-2.7,1.8-6.4,3.1-9.8,4.2c0,0,0,0.1,0,0.1c0.3,0.1,0.6,0.2,0.8,0.5l0,0c-0.2,0.1-0.3,0.3-0.4,0.4
	c-0.2,0-0.3-0.1-0.4-0.1c-0.5,0.5-0.8,0.9-1.3,1.4c0,0.1,0,0.1,0,0.2c0.4,0.2,1.2,0.1,1.8,0.2c0,0,0,0.1,0.1,0.1v0.1
	c-0.4-0.1-1.1,0.5-1.7,0.6c0,0.1,0,0.1,0,0.2c0.5,0,2.4,0.4,2.8,0.3c0.8-0.3,1.6-0.6,2.5-0.9c0,0.1,0.1,0.1,0.2,0.2
	c-0.6,0.6-1.6,0.5-2.4,1c-0.5,0.3-0.8,1-1.4,1.3v0c0,0,0.1,0.1,0.1,0.1c0.1,0.2,0.3,0.1,0.5,0c0,0.1,0.1,0.2,0.1,0.2
	c-0.2,0.1-0.3,0.3-0.7,0.4c0.2,0.4,0.6,0.3,0.9,0.2c-0.1,0.5-0.3,1.1-0.5,1.7c0,0.1,0,0.2,0.1,0.2c0.9-0.2,1.1-0.9,1.8-1.1
	c0.7-0.3,1.4-0.3,2.4-0.5c0.3-0.1,0.8-0.4,1.2-0.2h0.1c-0.2,0.9-1.3,3.2-1.9,3.8c-0.9,0.5-1.8,1.1-2.8,1.5c-2.3,1.5-5,3.1-6.8,5.1
	c-1.6,1.7-3.3,1.9-2.6,5.4c0.8,0.4,0.9,1.1,1.9,1.4c1.1,1.9-0.4,10.2-1.1,12.5c-0.4,1.5-0.2,3-2,3.1v0.3c1.7-0.4,3,1.4,3.4,3.1
	c0.1,0.4-0.1,0.9-0.1,1.2c0.4,0.4,0.6,0.7,1,1c0,0.8-0.4,2,0.1,2.6c0.1,0.2,0.1,0.2,0.4,0.3c0.6-0.3,0.8-1,1-1.1
	c0.2-0.1,0.5-0.2,0.7-0.2c0.9-0.7,0.9-1.7,1-2.9c1.6-0.3,1.2-2.6,1.6-4.2c0.5-2.1,0.9-4.6,1.4-6.5c0.1-1.2,0.1-2.4,0.2-3.6
	c-0.1-0.7-0.3-1.9-0.1-2.7c0.2-0.5,0.4-0.9,0.7-1.4c0.8,0.1,1.3,0.8,2,1c1.1,0.5,2.6,0.6,4,0.6c0,0,0.1,0,0.1,0.1v0
	c-0.8,0.5-0.9,1.2-1.5,1.8c-1.1,1-3.1,2.9-4.3,3.3v-0.2H407c0,0.1,0,0.1-0.1,0.3c-0.1,0-0.2,0-0.2,0c-1.4,5,2.2,7.4,6.9,5.5
	c0.2,0.4,0.2,0.9,0.2,1.6c-0.5,0.3-0.9,0.1-1.6,0.4H412v0c0.9,0.8,2.2,1.7,0.8,2.9c0.4,0.5,0.5,0.4,0.8,1.2c-0.1,1-0.1,2.1-0.2,3.1
	c0.2,0.5,0.5,0.7,0.9,1c0.6-0.1,1-0.4,1.4-0.6c0.3-0.1,0.5,0.2,0.7,0.2c1.1,0.2,0.8-0.8,2.3,0.2c1.3-0.2,1.4-1.3,2.3-1.8
	c0.5,0.4,1.6,1,2.1,1.1c0.1,0.3,0.1,0.4,0,0.7c-0.3,0.1-0.6,0.3-0.9,0.4c-0.8,0.2-2,0.4-2.7,0.6c-1.8,0.5-3.5,0.2-5.4,0.7
	c-2,0.5-4,1.4-6.1,1.7c-2,0.3-4,0.3-6.4,0.5c-0.6-1.7,0.3-3.9,1-5v0c-0.6,0.2-0.9,1.1-1.6,1.5c-0.1-0.2-0.1-0.2,0-0.5
	c-1.5,1-2.6,2.2-3.8,3.5c-0.5,0.4-1,0.7-1.5,1.1c-0.7,1-1.3,4.2-0.6,5.5c0.4,0.6,4.5,1.6,5.9,1.4c1-0.2,1.9-0.3,2.9-0.5
	c1.1-0.2,2.3,0.1,3.6-0.2c2.1-0.6,4-1.8,6.3-2.1c0,0.2-0.1,0.1,0.2,0.3c0.1-0.1,0.1-0.1,0.1-0.4c2.4-0.8,6.5-2.4,9.2-2.1
	c0.2,3.5,0.3,8,0,11.6c-0.1,0.6,0.5,0.8,0.4,1.5c-0.3,1.7-0.7,3.5-1,5.2c-0.8,0.4-3.5,0.6-4,1.1c0-0.1,0-0.2,0.1-0.3
	c-1.3-0.8-4.2,0-5.5,0.2c0.1-0.1-3.5-0.3-4-0.1c-0.2-0.3-0.5-0.6-0.7-0.6c0.1-0.1,0.1-0.2,0.1-0.3c0,0-0.1,0-0.2,0
	c-0.5-0.6-0.4-1.9-0.5-2.4c0-0.5-0.1-1.1-0.4-1.3c0.3-0.1,0.2-1.3,0.3-1.6c0.3-1,1-2,1.6-2.6c1.1-1,2,3.7,2.5,4.3
	c0.3,0.3,2.2,1.3,3,1c0.2-0.1,0.3-0.4,0.6-0.5c0.4,0,0.8,0.1,1.1,0.2c1.8-0.3,2.3-1.4,2.4-3.2c0.2,0,0.4-0.2,0.6-0.3
	c-0.2-1.4-1.9-2.1-2.2-3.5c0.1-0.1,0.1-0.1,0.3-0.2c0,0,0-0.1,0.1-0.1c-0.4-0.5-1.1-0.7-1.4-1.2c-0.2-0.3-0.4-0.7-0.6-1
	c-0.4-0.3-0.8-0.6-1.3-0.9c-0.3-0.2-0.4-0.6-0.7-0.8c-0.4,0-0.6-0.1-1-0.1c-0.3-0.3-0.4-0.5-0.7-0.8c0.1,0,0,0,0.2,0
	c0,0-0.1-0.2-0.1-0.2c-1.8-0.5-1.9,0.8-3,1.6c-0.6,0.3-1.3,0.7-2,1c0,0.7,0.5,1.2,0.5,1.6c-0.2,0.2-0.5,0.4-0.7,0.6
	c-0.3,0.5-0.6,1.1-0.8,1.6c-0.5,1.2-0.7,2.4-1.2,3.8c-0.3,1-0.8,1.9-1,3c-0.2,1.4,0.4,3.5,1.1,4.4c0.1,0.2,0.5,0.3,0.6,0.6
	c0,0.3,0.1,0.6,0.1,0.8c0.2,0.6,0.5,1.1,0.8,1.6c0,0,0.1,0,0.1,0.1c-0.2-0.5-0.4-1.1-0.6-1.6v-0.2c0,0,0.2,0.1,0.2,0.2h0.1
	c-0.1-0.2-0.1-0.2-0.1-0.3c0.3,0.2,0.4,0.6,0.6,0.9c0.3,0.5,1.3,1.2,2.1,1.3c0,0.2,0,0-0.1,0.2c0.5,0,0.8,0,1.4,0.6v0
	c-0.6,0-1.6-0.4-2.3-0.7c0,0-0.1,0.1-0.1,0.1c0.9,1.1,3,1,4.3,1.2v0.2v0c-1.3,0.5-2.8-0.4-4-0.5c0.6,0.5,1.5,0.6,2,1.1
	c0.2-0.1,0.1-0.1,0.2-0.2c2.2,1.2,7.2,1.1,10.5,1.2c0.6,0,1.5-0.6,2.3-0.4c0.4,0.1,1,0.6,1.3,0.8c0.4,0.2,0.9,0.1,1.2,0.4
	c0.6-0.3,1.5-0.6,2.1-0.8c-0.1,0-0.1,0.1-0.1,0.2c0.1,0.1,0.3,0.2,0.3,0.2c0.3-0.1,0.8-0.3,1.2-0.4c0,0-0.1-0.1-0.2-0.2h0.5
	c0-0.1,0.1-0.2,0.2-0.2c0-0.1,0,0,0-0.1c0-0.1,0-0.2,0-0.3c0.2,0.1,0.1,0,0.3,0.2c0.2-0.4,0.4-0.9,0.6-1.3c-0.4-0.2-0.3-1.2-0.5-1.5
	c-0.9-1.7-1.4-4.3-1.2-6.1c-0.1,0.1-0.2,0.1-0.2,0.3c0-0.2,0.6-1.3,0.4-2c-0.4-2-0.3-3.8-0.6-6c0-0.4,0.2-1.1,0.2-1.5
	c-0.1-0.2-0.3-0.6-0.4-1c-0.1-1.3,0.4-2,0.2-3.2c-0.2-1.4-0.5-5.6,0-6.1c0.1-0.1,4.8-2.4,5.2-2.4c0.6-0.2,1.7-0.1,2.2-0.5
	c-0.1,0-0.1,0-0.2,0c0.2-0.2,0.1,0,0.5-0.1c0.1-0.2,0.3-0.3,0.3-0.8c-0.1,0-0.2,0-0.2,0v0c0.2-0.1,0.2-0.1,0.4,0
	c0-0.2,0-0.1-0.1-0.2c0.4-0.3,1-0.5,1.1-0.9c0.3,0.1,0.6,0.2,0.9,0.3h-0.5c0.1,0,0.2,0,0.2,0c-0.1,0.5-0.2,0.4-0.5,0.8h0.2
	c-0.1,0.2,0,0.2-0.2,0.4c0.4,0.1,0.6-0.2,0.9-0.2c0.1-0.3,0.3-0.2,0.5-0.6c0.3,0.1,0.7,0.1,1.1,0.2v0.1c-0.1,0.1-0.2,0.2-0.3,0.3
	c0.2,0,0.4,0,0.7-0.1c-0.1-0.1,0,0-0.2,0c0.2-0.3,0.2,0,0.2-0.3c0.2,0.1,0,0,0.2,0.1c0.2-0.1,0.1-0.1,0-0.4c0.3-0.1,0.6-0.2,0.7-0.5
	c0.2,0.2,0.1,0.1,0.1,0.4c0.2,0,0.2,0,0.4-0.1c0.2,0.1-0.1,0.1,0.3,0.2c-0.2,0.2-0.1,0.1-0.2,0.2c-0.1,0.1-0.3,0.1-0.5,0.2
	c0.3,0,0.7-0.1,0.9-0.1c0-0.1,0.1,0,0-0.1c0.2-0.2,0.1-0.1,0.3-0.1c-0.1-0.2-0.2-0.4-0.2-0.6c0,0,0.1,0,0.2,0.1c0,0.2,0.1,0.5,0,0.6
	c1,0.5,1-0.4,1.9-0.1h0c-0.2-0.3-0.4-0.4-0.7-0.6c0.1-0.3,0.2-0.5,0.3-0.8c-0.2-0.2-0.2-0.2-0.5-0.3c-0.1-0.4-0.1-0.8-0.2-1.1
	c0.4-0.2,1.3-0.6,2-0.5c0.2,0,0.5,0,0.7,0c0-0.1-0.1-0.2-0.1-0.3h0.8v0.1c0.1-0.1,0.3-0.2,0.4-0.3c0.1-0.2,0.1-0.4,0.1-0.5
	C446.8,645,445.1,645.2,443.9,644.6 M415.5,624c-0.6,0.3-6,0.3-6.5,0.1c-0.3,0-0.3,0.1-0.3-0.2c0.6-0.1,1.1-0.7,1.5-1
	c1.7-1,3.5-2.1,5.2-3.1C416.4,620.1,415.7,623.2,415.5,624 M430.7,618c0,1.3-0.1,2.6-0.1,3.8c0.2,1.5-0.4,4.3-0.7,5.9
	c-0.1,1-0.1,2-0.2,3c-0.9,4.5-1.2,9.4-3.1,12.9H426c-0.4-0.5-0.9-0.9-1.3-1.4h-0.4c-0.4,0.4-0.8,0.8-1.1,1.3c-2.6,0.3-2.6-1-2.2-3
	v-1.9c0.2-0.6,0.9-0.9,1.3-1.4c0.4-0.5,2.1-2.5,2.3-3.2c0.8-2.1-0.5-4.2-2-4.7c-1-1.4-0.2-2,0.1-3.3c0.2-1.2-0.5-2.2-0.3-3.5
	c0.3-2.1,0.7-4.2,1-6.4c1.3-0.7,2.6-1.5,4-2.2c0.5-0.1,1.1-0.2,1.7-0.3c0.3,0,0.5,0.1,0.8,0.1C430.3,614.9,430.8,616.7,430.7,618
	 M414,630.9c-0.9,0.8-2.1,2.1-3.2,2.6c0.1,0.4-0.2,1-0.3,1.3c0.6-0.1,2.2-0.3,2.7-0.9c0.1,0.1,0.2,0.2,0.3,0.3
	c0.1-0.2,0.8-0.7,0.9-0.8c0-0.7,0.4-1.9,0-2.2C414.3,631,414.2,631,414,630.9 M427.6,607.8c-1.6,0.6-4,0.7-3.7,2.9
	c0,0.5-0.1,0.6,0.1,0.9c1.7-0.4,2.9-1,4.6-1.5c0.8-0.3,1.8,0.1,2.3-0.4C429.8,608.6,429.7,607.8,427.6,607.8 M656.4,596.5
	c1.1,0.3,1.7,0.2,2.6,0.8c0.6,0.4,0.8,1.3,1.2,1.8c2.6,3.2,5.2,10.1,0.9,12.7c-0.5,0.3-1.1,0.8-1.7,0.9c-0.9,0-1.9-0.1-2.8-0.1
	c-1.2,0.3-2.3,0.7-3.3,1.1c-0.4,0.1-2,0.3-2.2,0.6c0.2,0,0.3-0.1,0.5-0.2c0,0.1-0.1,0.1-0.1,0.2c-2.7,0.4-0.9,5.3,0,6.3
	c-0.1,0.9-0.9,1.8-1.2,2.7h0c1.8-1.3,4-2,6.1-2.9c2.7-1.2,5.4-2.9,8.5-3.6c0.2,0,5.2,0.6,5.5,0.7c1,0.5,1.9,1.8,2.6,2.8
	c1,1.5,2.2,2.9,3.1,4.4c0.7,1.1,1.1,2.7,1.4,3.9c0.3,0.8,0.1,1.4,0.2,2.1c0.2,0,0.1-0.1,0.2,0c0.1,0.3,0.4,1.7,0.3,1.9
	c0.4,0.5,0.3,1.2,0.6,1.9c0.8,2.1,1.4,3.6-1.1,4.5c-0.4,0.2-1,0.5-1.6,0.3c-1.6-0.4-1.8-1.6-2.8-2.4c-0.7-0.5-1.5-0.3-2.4-0.8
	c-1.8-0.8-3.5-2.2-6.1-2.2v0c0.1-0.1,0.1-0.1,0.2-0.2c0.1-0.1,0.1-0.2,0.2-0.3c-0.6-0.1-1.7,0.2-2.1,0c0,0,0.1,0,0.1,0
	c0.2-0.2,0.5-0.4,0.8-0.6v0c0,0-0.1,0-0.2-0.1c-0.4,0.1-0.8,0.1-1.3,0.2v-0.1c0-0.2,0-0.1,0-0.3c-1.2-0.2-1.9,1-2.8,0.8h0.1
	c0.8-0.8,2.3-1.4,3.4-1.8c0.7-0.1,1.4-0.3,2.1-0.4c0.3-0.1,0.5-0.4,0.7-0.4c1-0.3,2.3-0.3,3-0.9c0.5,0.2,2.8-0.9,3.1-1.1
	c1.4-1,0.2-4.8-0.9-5.5c-2.1-1.3-8.1,1.5-9.6,2.4c-1.2,0.6-2.5,1.2-3.7,1.8c-0.9,0.7-1.8,1.3-2.7,1.9c-0.5,0.5-0.8,1.1-1.3,1.5
	c-1.4,1.1-2.8,2.2-4.1,3.3c-0.7,0.9-1.4,2.1-2,3.1c-0.6,1.1-0.7,2.2-1.3,3.2c-0.2,0.4-0.4,0.7-0.6,1.1c-0.1,0.3,0,0.4-0.1,0.6
	c-0.4,0.5-0.7,0.9-1.1,1.4c-0.5,0.8-0.5,2.2-1.3,2.7c-0.7,0.4-1.3,0.1-2.1,0.4c-0.5,0.1-0.5,0.7-1.2,0.6c-0.2-0.8-0.3-1-0.9-1.5
	c-2.9,0.1-4.2-1.3-4-4.3c0-0.9-0.5-1.8-0.3-2.2c-0.2-0.6-1.2-2.1-0.8-3.1c0.4-1.1,1.4-0.6,1.8-0.9c0.7-0.5,2.4-3.9,2.9-4.8
	c0.1-0.4,0.3-0.8,0.5-1.1c0.8-1,1.3-2.4,1.9-3.6c1.4-2.3,3.2-4.7,4.6-7.1c0.6-1.1,1.1-2.1,1.7-3c0.2-0.5,0.4-1,0.6-1.5
	c0.7-0.8,1.5,0,2-0.3c1.6-1.2,3.3-2.4,4.7-3.6c-0.4-0.8,0.1-4.2,0.4-5.4c0.1-0.5-0.1-1.2-0.1-1.8c0.3-1.6,0-4.3,0.1-5.8
	c0.1,0,0.1-0.1,0.2-0.1c0.2,0.1,0.2,0.1,0.5,0.1C655.8,596.8,656.1,596.7,656.4,596.5 M632.3,602.1c1,0,1.6,0.1,2.2,0.5
	c0,1-0.5,2.6-0.7,3.9v2.6c-0.1,1-0.2,2.1-0.4,3.1c-0.2,0.6,0.3,0.7,0.2,1.1c-0.2,1.2-0.5,2.7-0.3,3.7c0.2,1.1-0.9,2.4-0.6,3.5
	c0.2-0.1,0.1-0.1,0.3,0c0,0-0.1,0.1-0.1,0.1c-0.2,0-0.1,0-0.2,0.1c0,0.1-0.1,0.1-0.1,0.3c0.3,0,0.4,0,0.6,0.2c0,0.1-0.1,0.1-0.2,0.1
	c-0.2,0-0.3-0.1-0.5-0.1c0,0.2,0,0.4-0.1,0.5c0.1,0.1,0.2,0.1,0.2,0.1c0.1-0.1,0.1-0.2,0.2-0.2c0,0.2,0,0.2,0,0.4c0.1,0,0.3,0,0.4,0
	c-0.1,0.2-0.1,0.1-0.3,0.5c0.2,0.1,0.1,0.1,0.2,0.2c-0.1,0.1-0.1,0-0.2,0.3c-0.2-0.1-0.4-0.1-0.5-0.1c0.1,0.3,0.1,0.1,0,0.4
	c0.2,0,0.3-0.1,0.5-0.1c-0.1,0.1-0.2,0.2-0.3,0.2c0.1,0.3,0.2,0.4,0.4,0.6c-0.2,0.1-0.5,0.1-0.7,0.1c0,0.6,0.1,4.6,0.4,4.9
	c-0.6,0.9-0.3,1.9-1.3,2.6c-0.1-0.1,0-0.1-0.1,0c-0.2,0.1-0.3,0.4-0.4,0.6c0,0.1,0,0.1,0.1,0.1c0.1,0.1,0.2,0.1,0.3,0.1
	c-0.2,0.2-0.1,0-0.1,0.3c-0.2,0-0.5,0-0.5,0.1c-0.8,0.7,0.9,3.5,1.3,4c-0.2-0.1,0-0.1-0.2-0.1c0.6,1.2,1.4,2.4,2.1,3.6
	c0.1,0.2,0.1,0.6,0,0.8c0.4,0.8,0.4,1.7,0.9,2.4c-0.2,0.1-0.7,2.7-0.6,2.9c-0.2,0.2-0.6,0.4-0.5,0.6c-1.5-0.3-3.5-0.2-4.9-0.7
	c-0.6-0.2-1.9,0.2-2.6-0.1c-1-0.6-2.1-1.1-3.1-1.7c-0.4-0.3-0.6-0.8-1.1-0.8c-0.2,0.1-0.3,0.2-0.4,0.4c0,0.3-0.2,0.7-0.2,0.9v6.6
	c0.1,0.7,0,2.4-0.2,2.6c-0.1,0-0.1,0-0.2,0.1v0.1c0.2,0.1,0.3,0.1,0.4,0.4c-0.4,1,0.4,2.7,0.1,3.4c0.1-0.1,0.2-0.2,0.4-0.2
	c0,0.1-0.1,0.2-0.1,0.3c0.1,0,0.1,0,0.2-0.1c0.2-0.7,1.3-1.3,1.7-1.8c0.7-0.9,1.2-1.6,1.8-2.5c0.3-0.6,0.6-1.5,1.2-1.7v0
	c-0.3,0.6-0.3,2.2-0.7,2.3c0,0.1,0.1,0.2,0.1,0.4c-0.9,1.6-1.5,3.2-2,4.9c0.6,0.1,0.6-0.2,1-0.5c0.2,0,0.3,0,0.4,0
	c-0.1,0.1-0.2,0.2-0.2,0.3c0.1,0.1,0.2,0.1,0.3,0.1c-0.4,0.1-1.4,0.2-1.5,0.5c0,0,0,0,0,0c-0.4,0.9-1.1,1.2-0.7,2.2
	c-0.2-0.1-0.1-0.1-0.3-0.1c-0.5,0.9-0.8,1.6-1.1,2.8c-0.1,0.4,0.5,1.5,0.6,1.7c0.1,0.1,0.3,3,0.4,3.5c0.2,0.7,0.5,1.4,0.7,2
	c0.2,0.1,0.4,0.4,0.5,0.5c0.3,0.6,0,1.3,0.3,1.9c-0.2,0.1-0.1-0.1-0.2,0.1c0.2,0.3,0.2,0.3,0.4,0.6c-0.1,0.2,0,0.4-0.1,0.6
	c-0.6,1.3-5,1.1-5.7,1.8c0-0.1,0.1-0.1,0.1-0.2h-0.3c0-0.2-0.3-0.5-0.4-0.6c-0.3,0-0.4,0.3-0.8,0.2c-0.5-0.2-1.1-0.5-1.7-0.5
	c0-0.1,0-0.1,0.1-0.2c0.1-0.1,0,0,0-0.1c-0.1-0.1-0.1-0.2-0.2-0.2c-0.1,0-0.3,0-0.4,0.1c0-0.2,0-0.2-0.1-0.4h0.2
	c-1-1.3-2.2-3-3.3-4.7c-0.2-0.4-0.7-0.9-0.9-1.4c0-0.3,0.1-0.3,0.2-0.5c0.1-0.2,0-0.1-0.1-0.2c-0.4-1.2,1.2-1.9,1.1-2.9
	c-0.1-1.2-0.5-5.8-0.7-5.8l0-0.8c0,0,0-0.1,0-0.1v-0.2c-0.1-1.3-0.2-3.4-0.6-4.9c-0.4-1.4,0-3.1-0.3-4.4c-0.1-2.3-0.1-4.6-0.2-7
	c0.2-1.1,0.1-2.4-0.2-3.2c0.5-0.2,0-1.8,0.2-2.8c0-2.1,0.1-4.2,0.1-6.3c0.3-1.3,0.1-2.9,0.7-4.3c0.9-2.2,2.8-3.5,3.8-5.6
	c1.2-0.2,1.2,0.5,1.8,0.8c0.6,0.3,1.1,0.4,1.5,0.8c1.7,2.2,2.5,6.8,3.2,9.8c0,0.7,0,1.4,0.1,2.2c0,0.4-0.1,0.8-0.1,1
	c0,1.1-0.1,2.1-0.1,3.2c0,0.5-0.3,1.5,0,1.7c1.1,0.5,6,0.4,6.5-0.4c0.5-0.7-0.6-1.9-0.9-2.5c-1-1.9-1.4-2.4-2.1-4.7
	c-0.1-0.4-0.4-0.9-0.3-1.5c0.3-1.7,1.9-2.4,2.5-4.2c0.3-1,0.8-3.7,0.4-4.8c0.4-1.9,0.7-3.6,1.4-5.4c-0.1,0-0.1-0.1-0.2-0.2
	c0.4-0.3,0.7-1.3,0.7-1.9c0-0.9,1-5.4,0.8-5.7c-0.9,0.7-1.9,1.3-2.8,2c-1.9,1.3-4.5,2.4-5.8,4.3c-1.2,1.8-1.6,4.7-3.9,5.3
	c-1.7,0.4-1.6-1.4-2-2.1c2-0.8,1.9-5.3,3.3-7c0.8-1,2-1.7,2.9-2.5c2.5-2.2,5.2-4.3,8.1-6.1C630.8,602.7,631.6,602.6,632.3,602.1
	 M658.1,638.6c1,0.4,2.5,0,3.4,0.8c0,0.1-0.1,0,0.1,0.1c0.3,0.1,0.4,0.1,0.5,0.2c0.2,0.3,0.6,2.2,0.6,2.7c-0.2,0.2-0.5,0.4-0.6,0.7
	c0.3,0.2,0.5,0.5,0.5,0.9c-0.8,1-1.7,1.3-2.3,2.6c0,0,0,0.1,0.1,0.1c0.2,0.1,0.4,0.2,0.6,0.4c0,0.1,0,0.1-0.1,0.2
	c-1.4-0.1-3.6,0.7-4.7,1c-0.3,0-0.6,0-0.9,0c-0.1,0-0.2,0.2-0.5,0.2c-1.1-0.2-4.1-1.6-4.6-2.3c-0.1-0.4-0.2-0.7-0.3-1.1
	c-0.7-1.5-2-3.1-2.2-4.8c0.3-0.2,1-0.7,1.4-0.6c0.3,0.3,0.5,0.6,0.8,0.8c0.8,0.5,2.1,0.1,2.8,0v-0.1c0,0-0.1-0.2-0.1-0.3
	c0.2,0.1,0.3,0.3,0.5,0.4C655.4,640.5,656.6,639.4,658.1,638.6 M661.3,649.7c1.5-0.1,2.6,0.3,3.5,0.8c0.2,0.6,0.7,2.1,0.5,2.8
	c-0.4,0.9-1.7,1.6-2.3,2.4c-1.3,1.5-2.7,2.9-4.1,4.3c-0.9,1-2.2,1.7-3,2.8c0,0.1,0,0.1,0.1,0.1c2.2,0,2.7-0.1,3.7,1.4
	c0.2,0.2,0.4,0.4,0.6,0.6c0.2,0.7-0.1,1.6,0.2,2.1c-0.1,0-0.1,0-0.2-0.1c0,0.7-0.3,1-0.5,1.6c-0.1,0.7,0,1.2-0.2,2
	c-0.1,0.1-0.2,0.2-0.4,0.4c0,0,0,1.4-0.1,1.7c-0.2,0.6-0.3,1.2-0.5,2c-0.3,0.6-0.6,1.2-0.9,1.8c0.1,0.4,0.1,0.6,0.2,0.9
	c0.9,0.2,2.2,0.7,3.1,0.6c2-0.1,3.5-0.9,4.6-1.3c2.1-0.9,3.8-1,5.6-2.1c0.9-0.4,1.7-0.8,2.6-1.2c0.2-0.1,0.3,0.1,0.3,0.1
	c0.4-0.2,0.9-0.5,1.4-0.7c0,0,0,0,0,0c0.3-0.4,1.7-0.5,2.1-1c-2.8-3.9-3.5-9.2-3.1-15.2c-0.5-0.4-1.2-0.8-1.8-1.3
	c-0.6-0.5-0.9-1.5-1.7-1.8c0.2-0.4,0.6-0.6,1-0.7c-0.1-0.1-0.1-0.2-0.2-0.2c0.1-0.2,0.1-0.4,0.1-0.6h0.2c0.1,0.2,0.4,0.3,0.8,0.3
	c-0.2-0.7-0.2-0.8-0.4-1.3h0.3c0.7,0.3,1.2,0.7,2,1c0.2-0.4,0.7-0.6,1.1-0.8c0.1-0.2,0.1-0.4,0-0.6c0.5,0.1,0.9,0.2,1.3,0.2
	c-0.1,0.4-0.1,1,0.4,1.2c0.1-0.3,0.4-0.5,0.5-0.5c0.1,0.3,0.2,0.5,0.5,0.6c0-0.2,0.1-0.3,0.1-0.4h0.2c0.2,0.2,0.3,0.5,0.5,0.8
	c0.1-0.1,0.1-0.1,0.2-0.1c0.1-0.2,0.2-0.4,0.3-0.6c0.3,0,0.6,0.1,0.9,0.1c0.2,0.3,0.5,0.6,0.7,0.9c-0.6,5.7,0.7,10.9,3.2,15.2
	c0.7,1.3,1.6,3.6,2.9,3.9c0.5,3.4-5.8,3.3-8.4,4.1c-1.9,0.6-3.9,1.3-5.8,2c-1.6,0.6-3.2,1.6-5,2.1c-0.5,0.1-1.1,0-1.6,0.2
	c-1.5,0.4-3.5,1-4.9,0.8c-0.8,0-1.6,0-2.5,0c-2-0.3-4.2-0.6-5.5-1.5c-4.1-2.6-1.2-7.7,0.4-10.9c0.7-1.3,1.9-2.7,0.9-4.1
	c-1.7-0.1-3,1-4.1,1.8c-3.7,2.7-6.5,4.9-8.6,9.2c-0.4,0-0.7,0.2-1.1,0c-0.3-0.2-0.5-0.5-1-0.4c-0.6,0.2-1.7,0.7-2.7,0.5
	c-0.1-0.2-0.3-0.3-0.5-0.4c0.1-0.7-0.2-1.4-0.2-2.1c-0.2,0-0.4-0.1-0.6-0.2c-0.1-1.9,0.7-1.6,1.5-2.7c1.6-1.9,3.2-3.6,4.9-5.5
	c0.6-0.7,1.8-1.6,1.9-2.6c-0.5-0.1-0.7-0.3-1.1-0.5c0.1-3-2.8-2.3-3-4.3c0.4-0.9,1.1-2,1.9-2.5c1.1,0,1.4,1.1,2.4,1.3
	c0.9,0.1,3.5-1.5,4.3-1.8c1.2-0.4,2.2-0.6,3.3-1.1c0.6-0.3,1.2-0.7,1.8-1.1c1.4-0.4,3.2-0.7,4.5-1.4c0-0.2,0,0,0-0.4
	c0.4,0,0.7-0.2,0.8-0.6C660.2,650,660.8,649.9,661.3,649.7 M541.6,674.2h-0.3c0.1-0.1,2.2,0,2.4,0c0-0.1-0.1-0.2-0.1-0.2
	c0.4-0.4,5.3-1,5.6-2c0.1,0,0.3,0.1,0.4,0.1c0.4-0.8,1.6-1,2.3-1.5c0.6-0.6,1.2-1.5,2-1.9c1.4-0.9,2.7-2,3.7-3.2
	c0.1,0,0.3,0,0.5-0.1c0.4-0.3,2.5-2.6,2.6-3c0,0.1,0.2-0.2,0.3-0.1c0.2-0.1,0.2-0.3,0.2,0c0.5-0.3,2-1.8,1.8-2.4
	c0.2-0.2,0.1-0.1,0.3,0c0-0.8,0.8-1.2,1.1-1.6c-0.1-0.2,1.2-2.5,1.6-3.1c-0.1,0-0.2,0-0.3,0c0-0.3,0.1-0.2,0.1-0.5
	c0.1,0.1,0.1,0.1,0.2,0.2h0c0-0.1,0-0.2,0.1-0.3c0,0,0,0-0.1,0.1c0-0.1-0.1-0.1-0.2-0.2c0.1-0.1,0.2-0.2,0.3-0.2c0,0,0,0.1-0.1,0.1
	c0,0.1,0.1,0.1,0.1,0.1c0-1,1.3-3,0.8-3.7c0.6-0.2,0.5-1.2,0.7-1.9c0.3-1.4,0.6-3.7,0.9-5.4c-0.1,0-0.1,0.1-0.2,0.1h-0.1
	c0-0.4,0-0.4,0.3-0.5c-0.3,0,0-1,0-1.2c0.1-0.3,0.2-4.5,0-5c-0.3-1.1-0.4-2.2-0.8-3.2c-2.2-5.7-6.5-9.8-13-10.9
	c-0.5,0-0.9,0.1-1.4,0.1c-2.6-0.5-5.7,0.5-8.3,1c-1.1,0.2-2.4,0.8-3.4,0.5c0.1,0.1,0.1,0.2,0.1,0.2c-1.1,0-2.3,0.7-3.3,1.1
	c-1.2,0.4-2.1,0.6-2.9,0.8h-0.2c0,0,0-0.1-0.1-0.1c0.2-1.6,2.3-3.5,3.1-4.6c0.9-1.2,1.9-2.2,2.7-3.4c0.1-0.2,0.3-0.5,0.5-0.8
	c0.3-0.3,0.8-0.4,1.1-0.9c0.3-0.4,0.4-0.7,0.7-1.2c0.4-0.6,1-1,1.4-1.6c0.5-0.9,0.4-1.8,0.8-3c0.4-1.4,1.2-2.8,1.6-4.3
	c0.3-1.3,0.1-2.8,0.8-3.9c-0.2-0.5,0-1.2-0.1-1.7c-0.2-0.3-0.3-0.7-0.4-1c-0.7-0.2-1-0.2-1.2-0.9h-0.2c-0.1,0.2-0.3,0.4-0.5,0.6
	c-0.6-0.7-0.2-1.9-1.2-2.4c-0.5,0.6-0.4,1.4-0.8,2.1c-0.7,1.3-2.2,2.2-2.9,3.5c-0.4,0.7-0.4,1.9-1.4,1.6c0.1,0.2-0.1,0.1-0.2,0.1
	c0.1,0.1,0.1,0.2,0.2,0.4c-0.5,0.5-1.9,1.9-2.6,2.1c0,0,0.2-0.2,0.2-0.2c-0.7,0.3-1.2,1.5-1.9,2c-1.1,0.9-2.4,1.7-3.6,2.6
	c-0.3,0.2-0.6,0.5-0.9,0.8c-0.1,0-0.2,0-0.2,0.1c0.1-0.3,0.2-0.2,0.3-0.4c0.2-0.1,0.1-0.2,0.2-0.4c-0.2-0.1-0.1-0.1-0.4,0
	c0,0.3-0.3,0.9-0.8,1c0.1,0.2,0.1,0.1,0.2,0.2c-0.3,0.4-0.6,0.5-1,0.4c-0.1,0.1-0.1,0.2-0.1,0.3c0.2,0,0.2,0,0.3-0.2
	c0.1,0,0.1,0,0.2,0.1c-1.1,1.5-5.6,3.6-6,5.1c0-0.1-0.1-0.1-0.1-0.2c-1.6,0.9-2.6,2.7-4.1,3.5c0-0.1,0-0.1,0-0.1
	c-0.5,0.1-1.3,1.6-1.7,2c-0.5,0.5-1.1,0.8-1.7,1.3c-0.7,0.5-1,1.4-1.7,1.9c-0.6,0.4-1.3,0.8-1.8,1.3c-0.6,0.6-1.5,1.6-2.2,1.6
	c0,0,0,0.1,0.1,0.1c-0.1,0-0.1,0-0.1,0h-0.1c0-0.2,0-0.5,0.1-0.6c0-0.3,0-0.2-0.2-0.1c0-1.1,0.2-2.9,0.6-3.8
	c0.1-0.1,0.2-0.2,0.3-0.3c0,0.3-0.1,0.4-0.2,0.6c0.1,0,0.1,0,0.1,0.1c0-0.1,0-0.1,0.1-0.2c0.2-0.2,0.2-0.9,0.4-1.3
	c0.6-1,1.4-1.8,1.9-3.1c0.8-1.7,1-3.6,1.4-5.6c0.1-1.1,0.2-2.2,0.3-3.3c0.3-1.3,0.6-2.5,0.9-3.7c0.5-1.3,1.2-2.8,1.5-4.3
	c0.3-1.5-0.6-2.8-0.8-4.2c0,0,0,0.1,0,0.1c0.1-0.2-0.1-0.1-0.2-0.5c-0.1-0.5-0.2-1.1-0.2-1.6c-0.1-0.2-0.4-0.5-0.6-0.7
	c-0.1-0.4-0.3-0.8-0.4-1.2c-0.1-0.3-0.4-0.4-0.6-0.7c-0.5,0.3-0.5,0.7-0.9,0.9c-0.3,0.1-0.6,0.1-0.8,0.1c-0.7,0.2-1.2,0.9-1.5,1.4
	c-0.2,0-0.1,0-0.2,0h0c0,0.3-0.1,0.3,0.1,0.3c-0.1,0.8-0.6,1.3-0.8,2.1c-0.4,1.7-0.7,3.3-1.2,5c-1,3.8-1.6,8.5-2.6,12.5
	c-0.5,1.7-1.4,4.8-1.3,6.8c-0.5,0.3-1.1,0.4-1.5,0.9c-0.5,0.5-1,1.2-1.6,1.5c-0.6,0.4-1.8,0.5-2.2,1.1c-0.1,0-0.1,0.1-0.2,0.1
	c0.2,0.2-2.8,1.3-3.8,1.2c0-2.6,0.7-5.3,1.7-7.3c0.6-1.2,1.5-2.4,1.9-3.8c0.2-0.7-0.2-4.9,0.2-5c-0.2-0.2-0.4-0.5-0.3-0.8
	c-0.3-0.1-0.3-0.1-0.7-0.2c0.1-0.1,0.1-0.2,0.2-0.3c-0.5-0.3-0.8-0.5-1.3-0.8c-0.9-0.3-2.6,0.6-3,1c0.1-0.1,0.1-0.1,0.1-0.2
	c-5.5,2.4-6.7,15.6-3.7,20.4c0.7,0.6,1.4,1.2,2.1,1.7c0.4-0.2,5-0.5,6.2-0.5c0.6,0,1.8-0.5,1.8-0.4c0.4-0.2,2.2-1.6,2.6-1.2
	c0.1-0.2,0.1-0.3,0.2-0.4c0.3,0,0.4,0,0.6-0.1c-0.1,1.2,0.4,2.9,0,4.1c0.1,0.2,0.1,0.6,0.1,0.8c-0.1,0.3-0.4,0.4-0.4,0.7
	c-0.2-0.1-0.1-0.1-0.3,0c-0.2,0.1,0,0.4-0.3,0.7c-0.6,0.6-1.4,1.1-2.1,1.7c-1,0.8-1.7,2.3-2.7,2.8v0h0.1c-0.6,0.9-1.6,1.6-2.3,2.5
	c-2,2.5-4.3,5-6.8,7.2c-1.4,1.1-1.5,2.5-3.8,2.4c-0.1,0.4,0.1,0.5,0.3,0.7c0.2,0.1,0,0,0.2,0c0,0.8,0.4,1.6,0.8,2.4
	c0-0.1-0.1-0.1-0.2-0.1c0,0.3,0.1,0.6,0.2,0.9c0,0,0.1,0,0.1,0.1c0.1-0.2,0.1-0.1,0.1-0.4c0.4,0.6-0.7,2.2-0.9,2.8
	c0,0,0-0.1,0.1-0.1c-0.4,0.6-0.5,0.6-0.6,1.3c0-0.1,0-0.1-0.1-0.2c-0.1,0.2-0.3,0.3-0.4,0.5c0.1-0.1,0.2-0.2,0.3-0.2
	c-0.7,1-0.1,2.2,0.1,3.2c0.1,0.3-0.1,0.4,0.1,0.8c0.3,0.1,0.5,0.3,0.8,0.4c1,0.8,2.1,1.9,3.8,1.7c0.6-0.1,1-0.5,1.6-0.7
	c0.3-1.3-0.1-2.3,0.1-3.5c0.1,0.1,0.1,0.2,0.1,0.4h0c0.1-0.3,0-0.4,0.3-0.4c-0.1-0.1-0.1-0.3-0.2-0.4c0.7-0.5,0.9-1.5,2-1.5h0.1
	c0,0.1,0.1,0.1,0.1,0.1h-0.2c-0.1,0.2,0,0.2-0.1,0.3c0.1,0.2,0.1,0,0.2,0c0.2,0.2,0.2,0.2,0.2,0.3c0.2,0.3,0.7,0.1,0.7,0
	c0.4,0.2,0.6,0.3,1,0.4v0.3c0.1,0.1,0.1,0,0.1-0.1c0.2,0.1,0.2,0,0.2,0.3h0.2c0-0.2,0.1-0.5,0.1-0.8c3.3,1.2,5.5,4.8,8.2,6.9
	c0.5,0.4,1.1,0.6,1.6,1l1.9,2.7v0c0.3,0,0.8,0.1,0.8,0.4c0.2,0,0.4-0.1,0.6-0.1c0.4-1,1.7-1.4,2-2.2c0.2-0.5,0.2-3.6-0.1-4
	c-0.1-0.2-0.3-0.5-0.4-0.7c0-1.5-0.1-3-0.1-4.5c-0.2-2-0.4-3.9-0.6-5.9c0,0.1-0.1,0.1-0.2,0.2c-0.1-0.4-0.1-0.8-0.1-1.2
	c-0.4-0.9-0.7-5.2-0.7-6.3c0.1-1.2-0.5-2.6-0.1-3.3c1-1.6,2.6-2.7,3.8-4c0.1,0.1,0.3,0.1,0.5,0.1c0,0.4,0.1,0.6,0.1,1
	c0.3,0.2,0.6,0.3,1.1,0.4c0,0.3,0,0.4,0.1,0.6c-0.2,0-0.1,0-0.3,0.1c0.1,0.2,0.3,0.5,0.3,0.7c0.3,0.1,0.4,0.2,0.7,0.3
	c0.2,0.4,0.4,0.8,0.6,1.2c0.8,0.7,3,0.6,3.9,0.3c0.2-1.3,1.7-1.2,2.5-2c1.6-1.6,5.3-4.3,7.7-4.9c0.3,0.2,0.4,0.3,0.3,0.8
	c-0.7,0.4-1,2.1-1.6,2.5c-0.5,0.5-1.2,0.6-1.7,0.9v0.1c-0.3,0.8-1.2,1.1-1.7,1.7c0,0.4-0.1,0.7-0.1,1.1c-0.6,0.8-1.2,1.4-1.8,2.1
	c-0.6,0.5-2-0.7-2.4,0.3c-0.6-0.3-1.5-0.2-2.3-0.2c-0.3,0.7-0.5,2.5-0.8,2.8c-0.1,0-0.1,0-0.2,0c0.4,0.1,0.3,0.1,0.6,0
	c0.1,1.1-0.4,2.5-0.2,3.5c0.2,0.1,0.3,0.1,0.5,0.3c-0.1,0-0.1,0-0.2,0c1.2,0.6,2.8,0.7,4.1,1.4c0.6,0.3,1.2,0.7,1.8,1.1
	c0.3,0.3,0.3,0.7,0.8,0.8c0.5,0.2,1.9,0.8,2.4,0.5c0.2,0.3,0.4,0.3,0.6,0.6c0.2,0.6,0.4,1.2,0.6,1.8v0.3c-0.6-0.1-0.9-0.4-1.3-0.6
	c0,0-0.1,0-0.1,0.1c0.6,1,0.9,2.6,1.3,3.9c-1.4,1.8-3.3,3.4-4.6,5.2c-1.7,2.3-3,4.4-5.2,6.3c-0.3,0.3-0.5,0.8-0.9,1.1v-0.2h0
	c-0.8,0.5-1,1.3-1.5,2.1c0,0.5,0.2,0.4,0.2,0.8c0.7-0.7,1.5-0.7,2.5-1c0.7-0.2,1.5-0.8,2.1-1.1c0.3,0.3,1-0.3,1.6-0.3
	c1.6,0.1,3.6-0.3,5.1-0.8c0.7-0.2,4-1.4,4-1.4c1.3-0.3,2.6-2.1,3.6-3.2c0.6,0,1.2,0.5,1.7,0.6c1,0.3,2.3,0.3,3,0.6L541.6,674.2z
	 M540.7,674.2c0.1,0,0.2,0,0.2,0 M511.2,611.2c0.2-0.4,0.5-1.5,0.5-2.1c0-0.2-0.3-0.2-0.2-0.6c0.1-0.5,0.5-1,0.5-1.4
	c0.2-1.3,0.4-3.2,1.1-4.1h0.4c0.4,3.3-0.4,5.5-1.1,7.8c-0.2,0.8-0.3,1.9-0.7,2.6c-0.1,0.2-0.5,0.3-0.5,0.3
	C511.1,613.6,511,611.4,511.2,611.2 M505.3,663.9v0.3c-1.1-0.2-1.7-0.9-2.5-1.4c-1.2-0.7-2.4-1.2-3.6-1.9c-0.7-0.5-1.7-0.6-1.8-1.8
	c0.2-0.2,0.2-0.2,0.6-0.2c0,0,0-0.1,0.1-0.2c-0.1,0-0.1,0.1-0.2,0.1c0.2-0.8,1.2-1.1,1.6-1.8c1.5-1.9,3.4-3.6,5-5.4
	c0.7,0.8,0.1,2.9,0.3,4.3c0,1.3,0.1,2.5,0.1,3.7C505.2,661.2,505.6,662.7,505.3,663.9 M527,618c-0.9,1.3-2.6,2.9-3.6,3.5
	c-0.8,0.5-1.6,0.5-2.5,0.9c-0.1,0-0.2-0.1-0.3-0.1v-0.1c0.6-0.8,1.7-2.5,2.5-2.9c0.1-0.2,0.1-0.1,0.1,0.1c0.8-0.7,1.7-1.8,2.6-2.2
	v-0.2c-0.1,0.1-0.3,0.1-0.4,0.2c0,0-0.1,0-0.1,0c0-0.1,0-0.1-0.1-0.1c0.2-0.2,2.9-2.3,2.9-2.3h0.3c0,0.1,0,0.2,0,0.3
	C527.9,615.8,527.6,617.1,527,618 M554.5,622.9c1.2,0,2.1,0.4,2.9,0.7v0.4c-0.6-0.3-2.2-0.9-2.8-0.7
	C554.4,623.1,554.5,623.3,554.5,622.9 M560.6,627.7L560.6,627.7c0,0-0.1,0.1-0.1,0.1c-0.2-0.2-0.4-0.5-0.6-0.7c0.1,0,0.2,0,0.3,0v0
	c-0.1,0-0.1-0.1-0.1-0.2c-0.3,0-0.3-0.1-0.3-0.4v0h-0.3c0,0.1,0.1,0.2,0.2,0.3c-0.5-0.3-0.8-0.9-1.4-1.1c-0.1-0.2-0.1-0.2-0.1-0.4
	c-0.2,0-0.1,0.1-0.2-0.1c-0.1,0-0.2,0.1-0.3,0.1c0.1,0.1,0.2,0.2,0.3,0.4c-0.3-0.2-0.9-0.5-0.9-0.5c-0.2-0.1-0.1,0,0-0.2
	c1.4,0.1,2.1,0.8,2.8,1.6v0c0.1,0.1,0.2,0.3,0.3,0.4h0.1v0.2C560.2,627.3,560.4,627.5,560.6,627.7 M558.7,629.6
	c-0.2-0.2-0.4-0.5-0.8-0.5c0-0.1,0-0.1-0.1-0.1c0.3,0,0.3,0,0.5-0.1c-0.1,0-0.1,0.1-0.2-0.1c-0.1-0.2-0.1-0.2,0.1-0.3
	c-0.1-0.1-0.1-0.2-0.1-0.2h0c-0.7,0.1-0.8,0-1.3-0.2c-0.1,0.1-0.1,0.1-0.3,0.2c-0.4-0.2-0.7-0.2-1-0.3c0-0.1,0-0.1-0.1-0.2
	c0.1,0,0.2,0,0.3,0c0.6,0.2,1.4,0.2,2.1,0.5c0,0,0,0,0,0s0,0,0,0c0,0.1,0.2,0.1,0.2,0.1h0c1.1,0.4,2,1,2.3,2.5
	c-0.4-0.2-1.3-0.6-1.5-1h-0.1V629.6c0,0,0.1,0,0.1,0.1c0,0,0,0.1,0.1,0.1h0.1v-0.1C558.8,629.4,558.8,629.5,558.7,629.6
	 M557.7,628.8c-0.2-0.1-0.2-0.1-0.3-0.1c0.1-0.2-0.1-0.2,0-0.4c0.1,0.1,0.3,0.2,0.4,0.4C557.7,628.7,557.8,628.6,557.7,628.8
	 M557.4,628.6c-0.2-0.1-0.5-0.2-0.7-0.3c0,0,0-0.1,0-0.1c0,0,0.1,0,0.1,0C556.9,628.1,557.3,628.4,557.4,628.6 M558.1,625.7h0.2
	C558.1,625.8,558.3,625.8,558.1,625.7 M537.4,654.3c-0.2,0.8-1.1,3.8-1.1,4.3c0,0-0.1,0-0.1-0.1c-0.7,1.9-3.8,3.7-5.4,5.3
	c-0.9-1.2-1.8-2.9-1.9-4.6c1-1.1,2.3-1.7,3.4-2.9c0.3-0.3,0.6-1.2,0.9-1.2c0-0.3,0.1-0.4,0-0.5c0.1-0.1,0,0,0.2,0
	c0-0.1,0.8-4.8,0.8-4.8c0.3-0.5,1-0.6,1.5-1c1-0.8,1.8-2,3.1-2.6c0.1-0.1,0.3-0.1,0.4-0.1h0.2c-0.4,2.2-0.8,3.6-1.4,5.5
	C537.8,652.5,537.6,653.4,537.4,654.3 M563.1,640.1c0-0.1,0-0.2-0.1-0.3c0,0-0.1-0.1-0.1-0.1c0,0,0,0.1,0,0.1
	c0.4,1.7,0.2,8.5-1.2,9.7c0.1,0,0.2,0,0.3,0.1v0c-0.6,0.4-0.5,1.2-0.7,1.7c-0.5,1.3-1.1,2.5-1.8,3.7c-2.5,4.2-5.5,8-8.7,10.9
	c-0.1,0.1-0.1,0.1-0.1,0c-1.1,1.2-2.6,2.4-4.1,3c0,0-0.1,0.2,0,0.1c-0.2,0.1-0.1,0-0.1,0.3c-0.4-0.1-0.2-0.1-0.4,0.1
	c-0.1-0.1-0.1-0.1-0.1-0.1c-0.1,0-0.6,0.4-0.8,0.5c-0.1-0.1-0.2-0.1-0.4-0.1c-0.2,0-0.3,0.3-0.4,0.3c-0.6,0.2-1.3,0.3-1.9,0.4
	c-0.8,0.2-1.2-0.3-2-0.3c0.1,0,0.1-0.1,0.1-0.1c-0.8,0.1-1.1,0.3-1.8-0.1c-0.2-0.1-0.1,0-0.2-0.2c1.4-2,3.3-3.4,4.3-5.8
	c0.2-0.4,0.3-0.8,0.5-1.3c0.2-0.7-0.3-1.8,0.1-2.7c0.4-1,1.4-1.7,1.7-2.6V657c0.3-0.7,0.8-1.5,1-2.3c0.2-0.8,0.1-1.7,0.5-2.5
	c0.8-1.7,3.6-1.8,4.1-4c0.4-1.7-0.9-6-1.6-7.2c-0.5-0.8-2.8-2.3-2.7-3.1c-0.5-0.4-1.1-0.6-1.6-0.9c-0.5,0.4-1.3,0.7-2,0.7
	c-0.1,0.2-0.1,0.5-0.2,0.8c-0.1,0-0.3,0-0.4,0.1c-0.2-0.3-0.4-0.5-0.7-0.6c-0.4,0.4-0.1,1-0.5,1.6c-0.4,0.6-5.3,3.5-6,3.5
	c0.4-0.8-0.6-2.9-0.4-3.8h-0.2c0.2-0.5,0-1.2,0.1-1.8c0.5-0.4,1.5-1.2,2.4-1.1c3.5-2,7.5-2.4,11.7-3.5c1.9-0.5,4.8-1,6.3-0.5h0.3
	V632c-0.5-0.7-4.8-0.1-5.8,0.1c-2.8,0.6-5.5,1.2-7.9,1.8c-2.3,0.7-4.7,1.9-6.9,2.7c0-0.1,0-0.1,0.1-0.1c-0.1,0.1-0.3,0.2-0.4,0.3
	v0.1c-0.1-0.1-0.1-0.2-0.2-0.3c0.5-0.1,1.4-1,1.8-1.2c0.4-0.2,0.5,0,0.9-0.2c0.9-0.4,2-1.2,3-1.6h0.8c0.9-0.4,2.1-1.2,3.2-1.2
	c-0.1-0.2,0-0.1-0.2-0.1c0.2-0.3,1.7-0.2,2.4-0.4c1.6-0.6,3.8-0.7,5.8-1.2c0.7-0.1,1.5,0,2.1-0.3c3.3,0.5,5.6,1.7,6.9,4.4v0
	c-1.5-0.8-2.4-1.9-4.3-2.4c0.7,0.3,1.4,0.7,2.2,1C560.8,634.6,563,637.3,563.1,640.1L563.1,640.1z M566.7,633.9v0.2
	c-0.2-0.1-1.2-2.4-1.2-2.9c-0.2-0.1,0-0.1-0.2,0c-0.2-0.3-0.1-0.5-0.3-0.9c-0.5-0.9-2.3-2.3-2.7-3.1c-0.1,0.1,0,0-0.1,0.1
	c-0.4-0.2-0.2-0.3-0.6-0.3c-0.1,0-0.1-0.1-0.1-0.1c0.2,0,0.1,0,0.2,0c-0.1-0.3-0.5-0.5-0.5-0.6c0-0.2-2.8-2.1-2.9-2.1
	c0.1,0.1,0.1,0.1,0.1,0.2c-0.2-0.1-0.5-0.3-0.7-0.4c-0.2,0-0.2,0.1-0.3-0.1c0.1,0.1,0.1,0.1,0.1,0.1c-0.1-0.2-0.1-0.1-0.1-0.3
	c0.9,0.1,1.5,0.9,2.2,0.9c0.2,0.2,0.1,0,0.1,0.2c2.1,1,3.6,2.3,4.9,4.2c0.2,0.5,0.5,0.9,0.7,1.4C565.8,631,567,633,566.7,633.9
	 M191,668.9c-0.5-0.5-1.5-0.3-2.3-0.8c-3-1.8-6.2-3.5-9.1-5.3c-1-0.6-2.4-2.3-3.3-2.2v-0.1c0.1-0.1,0.2-0.1,0.5-0.2
	c0-0.2,0.6-0.9,0.3-1.3c0.1-0.3,0.1-0.2,0.4-0.2c0.1-0.7,0.4-1.3,0.4-2.3c-0.1,0.1-0.7,2-0.8,2.2c-0.2,0-0.4,0-0.6,0
	c-0.1,0.4-0.2,0.7-0.4,1h-0.3c0,0,0,0-0.1-0.1c0.1-0.3,0.1-0.3,0-0.6c0.1-0.1,0.3-0.2,0.4-0.2c0.2-0.3,0.2-0.7,0.2-1.1h-0.3v-0.1
	c0,0,0-0.1,0.1-0.2c0.2,0.1,0.1,0.1,0.2,0.2h0.1c0-0.3,0.1-0.2-0.2-0.3c0.2-0.5,0.5-0.4,0.6-1c-0.1-0.1-0.1-0.2-0.4-0.2
	c0.2-0.3,0.3-0.5,0.4-0.9c-0.1-0.2-0.1-0.2-0.3-0.3c0.2,0,0.2,0,0.4-0.1c0-0.3,0-0.2-0.1-0.3c0.2-0.2,0.2-0.1,0.3-0.3
	c-0.2,0.1-0.3,0.1-0.4,0.2h0c0.1-0.5,0.1-0.5,0.1-1.1h0.2c-0.1,0.5,0.2,0.6,0.2,0.9c0,0,0.1,0.1,0.2,0.1c0-0.2,0.1-0.4,0.1-0.5
	c-0.1,0-0.3,0-0.4,0c0.2-0.8,0.2-1.4,0.4-2.1c-0.2-0.2-0.1-0.1-0.4-0.1c0-1.7,0.4-2.1,0.7-3.6c0.2,0.1,0.2,0.3,0.3,0.5
	c0.1,0,0.2,0.1,0.2,0.1c0.4-1-0.1-2.1,0.1-3.2c0.9-4.5-1.2-8.4-3.3-11.3h0.2c-0.1-0.3-0.1-0.4-0.4-0.5c0.8-0.7,1.6-1.3,2.4-2
	c3.7-3.3,6.8-5.7,12.3-7.1c0.5-0.7,1-2.2,0.6-2.8c0.5-0.5,1.4-2,1.4-2.9c-0.1-0.2-0.3-0.4-0.4-0.6c-0.3,0-2.7-0.3-2.7-0.3
	c-0.2,0.1,0,0-0.1,0.1c-0.1,0.1-1.9,0.5-2.5,0.6c0-0.1,0-0.1,0-0.2c-4.3,0.7-6.8,3.5-9.1,6.1c-0.9,1-2.3,1.5-3.6,2.2
	c-0.9,0.6-1.4,1.7-2.3,2.2c-2.4,1.6-4.6,3.1-7,4.7c-1,0.7-2,1.7-3.1,2.3c-0.6,0.1-1.1,0.4-1.7,0.6c-0.7,0.4-1.3,1-2.3,1.1
	c0.5-2,1.3-4.3,1.9-6.2c0.2-0.7,0.1-1.5,0.4-2.2c0.4-0.7,0.8-1.5,1.3-2.2c0.1-0.5,0.2-1.1,0.3-1.6c0.3-0.6,1-0.6,1.3-1.1
	c0.8-1,0.9-2.2,1.1-3.5c-0.1,0-0.2,0.1-0.2,0.1c0-0.4,0.3-0.4,0.4-0.7c0.4-1.3,0.6-2.5,1-3.8c0.4-0.1,0.8-0.1,1.2-0.2
	c0.1-0.2,0.1-1,0.2-1.3c0.4-0.6,0.9-1.7,1.4-2.7c0.2-0.3-0.1-0.5,0-0.7c1.1-2.6,2.7-4.7,2.9-7.5c0.1-1.2,0.6-3,0.4-4
	c-0.1-0.2,0.6-1.2,0.5-1.5c-0.4-0.3,0-1.8-0.2-2.2c-0.7-1.6-0.7-3.6-2-5.1c-0.4-0.4-1.1-0.4-1.5-0.7c-0.2,0.1-0.4,0.3-0.7,0.4v0.3
	c-0.9,0.1-1.2,0.6-1.6,0.9c0.4,2.5-1.7,4.1-2.4,5.8c-0.2,0.6,0,0.9-0.1,1.3c-0.2,1-1,2-1.5,2.9c-0.2,0.6-0.4,1.2-0.6,1.8
	c-0.4,0.7-2.1,3.8-1.9,4.4c-0.1,0-0.2,0-0.3,0.1c-0.1,1.3-1.5,4.7-2.2,5.6c-0.1,0.6-0.3,1.2-0.5,1.8c-0.5,1.2-1,2.3-1.6,3.5
	c-0.5,1.5-0.9,3.1-1.4,4.6c-0.2,0.7-0.3,1.5-0.4,2.2c-1,2.4-2,5.1-2.8,7.7c-0.7,2.4-1.8,4.2-2.5,6.4c-0.3,0.8-1,2.3-0.6,3.2
	c0.5,1.8,1.6,2.7,2.5,4c0,0,0.1,0,0.1,0c-1.1,1.7-1.9,3.7-2.9,5.4c-0.7,1-1.5,2-2.2,3c-1.2,2.1-2.2,3.9-4.3,5.2h0
	c0.2-0.5,0.5-1,0.7-1.4c0.5-1.5,1.1-2.9,1.6-4.4c-0.1,0-0.1,0-0.2,0c0.8-0.8,1-2.2,1.5-3.2c1.6-3.2,4.6-8,1.5-11.4
	c-0.5-0.5-0.8-1.1-1.5-1.3c-0.6,0.4-1.3,0.3-1.9,0.7c-1.7,1.2-3.1,2.8-4.9,3.8c-0.7-3.8,0.6-7.4,0.8-10.7c0-1.2-0.5-2.6,0.1-3.6
	c0.9-0.4,1.7-0.9,2.6-1.4c1.5-0.9,3-1.8,4.4-2.8c0.7-0.5,1.3-1.8,2.1-2.1c-0.2-2.4,0.6-5.1,0.1-7.9c-0.5-2.7-0.5-5.5-1.2-8.2
	c-0.2-1-0.8-1.8-1-2.8c-0.1,0-0.1-0.1-0.2-0.1c0.4,2.9,1.6,9.1-0.1,11.9c-0.9,1.3-1.9,2.1-3.3,2.9c-0.9,0.5-1.8,1.5-2.9,1.8
	c-0.1-1-0.2-1.9-0.3-2.9c0.4-0.8,1.2-1.3,1.3-2.4c-0.1-0.8-0.2-1.6-0.3-2.4c0.6-2.8,1-5.8,2.1-8.1c-0.3-0.4,1.4-4.3,1.7-4.7
	c-0.4-0.2-1.9-1.3-2.5-1.2c-0.3,0.2-0.6,0.3-1,0.5c-0.8,0.2-1.5-0.2-2.1,0.1c-0.6,0.4-0.9,1.1-1.3,1.7c-2.1,3.2-3,7-3.9,11.3v0.1
	h0.4c0.8,2-1.6,2.6-1.7,3.5c-0.1,0.5,0.3,1.6,0.3,2.3c-0.3,2.3-0.6,4.6-1.1,6.6c-0.5,0.9-1.8,1.2-2.6,1.8c-1.8,1.3-7.3,4.9-10.1,4.9
	c-0.3,0.5-0.6,1.4-1.2,1.6c0,0.2,0.5,1.5,0.6,1.6c-0.1,0.1-0.2,0.2-0.3,0.2c0,0,0,0.1-0.1,0.2c1,0.2,2,0.5,3.2,0.4
	c0.2,0.3,0.5,1,1.1,0.9c0.4,0.1,1.1-0.2,1.5-0.3c1.3-0.3,2.5-0.5,3.7-0.8c0.9-0.3,1.6-0.7,2.6-0.8c0,0,0,0.2,0,0.2
	c0,0,0.5,6.3,0.5,6.4c-0.4,0-0.7,0.1-1.1,0.1c-0.1,0.1-0.1,0.2-0.1,0.5c-2.3,0-6.4,2.6-6.7,4.4c-0.1,0-0.1,0-0.2,0.1
	c-0.1-0.3-0.3-0.4-0.6-0.5c0,1.6-0.4,2.9-0.7,4.5c-0.2,1.1,0,1.8-0.2,2.9c-0.2,0.8-0.6,1.8-0.9,2.8c-0.3,1.1-1.6,3.7-1.5,4.6
	c-0.3,0.5-1,0.6-1.5,1c-1.3,1-2,2.5-2.2,3.9c0.6,0.3,1.8,1,2.1,1.5c0.3,0.6-0.1,0.6,0.2,1.1c-0.1,0-0.2,0.1-0.3,0.2
	c0.6,1.4,2.9,4.9,4.2,5.6c1.7,0.9,4.5,0.2,5.2-1.2c0.4-0.9-0.2-1.8-0.4-2.4c0.3-0.5,0.9-0.8,1.2-1.4c0.5-1.2,1.1-2.4,1.6-3.6
	c0-0.2-0.5-0.6-0.5-0.9c0.6-0.6,1-2.2,1.6-2.8c1.8-2.5,4.2-3.8,7-5.2c-0.2,1.1-1.1,2.5-1.7,3.3c-1.1,1.7-2.5,2.9-3.6,4.5
	c-0.3,0.5-1.1,1.2-1.4,1.6c-0.6,0.7-1.3,1-2.2,1.3v0.9c0.1,0.4,2.4,3.2,2.7,3.4c0.4,0.3,0.8,0.4,1,0.7c0.3,0.5,0.5,0.8,0.8,1.3
	c0.5,0.4,1.1,0.6,1.6,0.8h0.7c1.2-0.4,2.4-0.9,3.6-1.2c0.1-0.2,0,0,0-0.2c1.8-0.7,4.8-3.3,6.9-2.8c0,0,0.1,0,0.1,0.1
	c-0.2,0.2-0.4,0.3-0.8,0.4c0.5,0.6,2.1,1.1,2.7,0.9c0.2,0.2,0.2,0.2,0.5,0.3v0.1c-0.2,0.2-0.6,0.3-1,0.2c0,0.1,0,0.1,0,0.2
	c0.7,0.2,0.7,0.3,1.5,0.3v0.4c0.3,0.1,0.6,0.3,0.7,0.4c0.3,0.1,0.3,0.1,0.5,0.3c0,0,0,0.1-0.1,0.2c-0.1,0-0.1,0-0.2,0.1v-0.3
	c-0.9-0.2-1.8-0.4-2.7-0.6c0.3,0.6,4.4,2.3,5.7,2.4c-0.2,0.2-0.2,0.2-0.4,0.2c0,0.1-0.1,0.1-0.1,0.2c1.6,0.7,3.7,0.5,5.7,0.9
	c3.3,0.6,10.4,0,12.5-1.6c1-0.8,1.7-2,2.4-3.2c0.5-0.6,0.9-1.2,1.4-1.7c0.1,0,0.2-0.1,0.3-0.2c0.4,0.2,0.5,0.6,0.9,0.8
	c1.8,1.1,3,1.8,5,2.9c0.8,0.5,1.4,1.2,2.3,1.7c0.2-0.2,0.3-0.4,0.4-0.6h0.1c0,0.2,0.1,0.2,0.2,0.4c-0.1,0.2-0.2,0.3-0.4,0.5
	c1.4,1.3,4.2,3,7,3.8c1.8,0.8,3.9,1.5,4.6,1.3c1.5-0.4,3.9-0.9,5.6-0.7c1.9,0.2,5.3,0.7,6.4-0.7c0-0.2,0-0.1,0.1-0.1
	c-0.2-1.3,0.2-1.9,0.6-2.6c0.1-0.1,0.1-0.2,0.2,0c0.7-0.5,1.2-2,1.9-1.9c0.1-0.2,0.9-0.6,0.9-0.6c0.4-0.1,0.9-0.5,1.5-0.3
	c0-0.6,1.4-0.8,1.7-1.3c0.1-0.1,0.1-0.1,0.2-0.1c-1.7-1-4.5-0.8-6.7-1.4c-1.7-0.5-4-1.1-6.2-1.5c-2.2-0.4-4.4-0.4-6.4-0.9L191,668.9
	z M161.5,666.3c-0.9,1.2-2.2,1.9-3.9,2.1c-1,0.1-1.8,0-2.5,0.4v-0.3c-0.5,0.2-2.3,0.3-3,0c-0.2,0.1-0.1,0-0.1,0.2
	c0,0-0.1,0.1-0.1,0.1c-0.1-0.1-0.3-0.3-0.3-0.5c-0.4,0-0.4,0-0.6,0.2c-0.4-0.7-3.6-1-4.3-0.7c-0.1-0.1-0.2-0.2-0.3-0.2
	c1-0.6,2.5-3.7,3.3-3.7c-0.1-0.4,0.2-0.8,0.1-1.2c-0.2-0.2-0.3-0.4-0.4-0.6c-0.1-0.3,0.1-0.8,0.1-1.2c-0.6-0.8-2-1.3-3.2-1.6
	c-1-3.4,2.6-7.5,3.6-10.4c0,0,0.1-0.1,0.2-0.1c0.1,0,0.3,0.1,0.4,0.1c0.7,0.3,1.6,0.7,2.5,0.9c0.4,0.1,0.9,0.1,1.3,0.2
	c0,0.1-0.2,0.1-0.2,0.2c0.1,0.6,0.2,0.9,0.2,1.8c0.2-0.1,0.4-0.1,0.6-0.1c-0.1,0.7-0.2,1,0,1.6c-0.2,0.1-0.3,0.2-0.5,0.3h-0.1
	c0.2-0.5,0.1-0.8,0.1-1.2h-0.1c-0.1,1.3-0.2,2.6-0.3,3.9c0.1-0.2,0.3-0.3,0.4-0.5c0,0.5,0.1,3.5,1.2,3.6c-0.2,2.2,4.2,3.2,4.5,4.6
	c0.2-0.1,0.3-0.1,0.4-0.2c0,0.1-0.1,0.1-0.1,0.1c0,0-0.1,0-0.1,0.1c0.6,0.4,1.2,0.8,1.8,1.2C162.3,665.6,161.9,666,161.5,666.3
	 M169.9,641.5c-0.3,1.7-0.7,3.1-1.5,4.9c-0.5,1.2,0.2,3.2-0.3,4.3c0.1,0.2,0.3,0.2,0.4,0.4c0,0,0,0,0,0.1c-0.3,0.1-0.1,0-0.4-0.1
	c-0.3,1.7-0.8,3.3-1.4,5c-0.1,0.1-0.1,0.1-0.1,0.1c-0.8-0.5-2.9-0.8-2.7-2.1c-0.5-0.3-1.5-0.2-2-0.6c-1.7-1.2-3.4-2.3-4.4-4
	c0.5-1.2,0.2-2.3,0.7-3.4c0-0.1,2-1.2,2.2-1.4c0.2-0.1,0-0.1,0-0.3c0.2-0.2,0.4-0.3,0.6-0.4c0,0.2,0,0.3,0.1,0.4
	c2.2-0.6,6.1-3.1,8.1-4.7c0.9,0.3,0.5,1.5,1,1.8C169.9,641.6,170.1,641.5,169.9,641.5 M190.6,680.5c-0.1,0.1-0.2,0.1-0.4,0.2
	c-0.1-0.2-0.5-0.1-0.8-0.2c-0.1,0-0.1,0.1-0.1,0.1c-0.2,0-0.8-0.2-1.3-0.5c0.5,0.1,1.1,0.2,1.6,0.2c0,0.1,0,0.1,0,0.2
	c0.1-0.1,0.1-0.1,0.1-0.2h0.1c0,0.1,0,0,0.2,0.1v0c0,0-0.1,0-0.1-0.1h0.3c0,0,0,0,0,0.1h0.1v-0.1c0.2,0,0.4-0.1,0.6-0.1h0h0.1v0h0
	c-0.1-0.1-0.1-0.2-0.1-0.3c0.1,0,0.1,0.2,0.2,0.2C190.8,680.2,190.7,680.4,190.6,680.5 M190.6,679.8
	C190.6,679.8,190.6,679.8,190.6,679.8c0.1-0.1,0.1-0.1,0.2,0.1h0.1C190.8,680,190.8,679.9,190.6,679.8 M129.1,648.5
	c-0.4,0.3-0.9,0.6-1.3,0.9c0.1,0.8,0.2,1.6,0.4,2.4h0.2c0.8-0.6,1.7-1.3,2.5-1.9C130.5,649.1,130,648.5,129.1,648.5"/>
<path class="st0" d="M201.8,719.8h-0.4l-5.7,0l-7.5,0c-2.6,0-5-0.1-7-0.2l-0.5,0v0.5v6.3v0.5h0.5h0.7h0.5v-0.5c0-1.8,0.4-3,1.2-3.7
	c0.5-0.4,1.9-0.9,5.6-0.9h1.8h1.2h0.3v22.2c0,1.8-0.4,2.5-0.6,2.7c-0.4,0.4-1.3,0.6-2.7,0.7l-0.4,0v0.5v0.9v0.5l0.5,0
	c0.9-0.1,1.8-0.1,2.6-0.1c0.9,0,2,0,3.1,0c1.2,0,2.2,0,3.2,0c0.9,0,1.7,0,2.6,0.1l0.5,0v-0.5v-0.9v-0.5l-0.5,0
	c-1.8-0.1-2.5-0.4-2.7-0.7c-0.3-0.3-0.6-0.9-0.6-2.7l0-22.2h0.2h1.3h1.8c3,0,4.8,0.3,5.6,0.9c0.7,0.7,1.1,1.9,1.1,3.7v0.5h0.5h0.7
	h0.5v-0.5v-6.3v-0.5l-0.5,0C206.2,719.7,204,719.8,201.8,719.8"/>
<path class="st0" d="M241.5,747.8l0-0.4l-0.4,0c-1.4-0.1-2.3-0.3-2.7-0.7c-0.4-0.4-0.6-1.3-0.6-2.7v-18.8c0-1.9,0.4-2.5,0.6-2.7
	c0.4-0.4,1.3-0.6,2.7-0.7l0.4,0l0-0.4l0-1l0-0.5l-0.5,0c-1,0.1-1.9,0.1-2.7,0.1c0,0-0.9,0-0.9,0c-0.7,0-1.4,0-2.3,0
	c-0.8,0-1.6,0-2.3,0l-0.9,0c-0.8,0-1.7,0-2.6-0.1l-0.5,0v0.5v1v0.5l0.5,0c1.4,0.1,2.3,0.3,2.7,0.7c0.2,0.2,0.6,0.8,0.6,2.7v7.7
	h-13.2v-7.7c0-1.9,0.4-2.5,0.6-2.7c0.3-0.2,1-0.6,2.7-0.7l0.5,0v-0.5v-1v-0.5l-0.5,0c-0.9,0.1-1.8,0.1-2.6,0.1c0,0-0.9,0-0.9,0
	c-0.7,0-1.5,0-2.3,0c-0.8,0-1.5,0-2.3,0l-0.8,0c-0.9,0-1.7,0-2.7-0.1l-0.5,0l0,0.5l0,1l0,0.5l0.4,0c1.8,0.1,2.4,0.4,2.7,0.7
	c0.2,0.2,0.6,0.8,0.6,2.7v18.8c0,1.5-0.2,2.4-0.6,2.7c-0.4,0.4-1.3,0.6-2.7,0.7l-0.4,0l0,0.5l0,0.9l0,0.5l0.5,0
	c0.9-0.1,1.8-0.1,2.6-0.1c1,0,2,0,3.2,0c1.2,0,2.2,0,3.2,0c0.8,0,1.7,0,2.6,0.1l0.5,0v-0.5v-0.9v-0.5l-0.5,0
	c-1.7-0.1-2.4-0.4-2.7-0.7c-0.4-0.4-0.6-1.3-0.6-2.7v-8.8h13.2v8.8c0,1.4-0.2,2.4-0.6,2.7c-0.4,0.4-1.3,0.6-2.7,0.7l-0.5,0v0.5v0.9
	v0.5l0.5,0c0.9-0.1,1.8-0.1,2.6-0.1c0.9,0,2,0,3.2,0c1.2,0,2.2,0,3.2,0c0.8,0,1.7,0,2.6,0.1l0.5,0l0-0.5L241.5,747.8z"/>
<path class="st0" d="M264.9,741.7h-0.4l-0.1,0.4c-0.2,1.8-0.9,3.1-1.8,3.8c-1,0.7-2.7,1.1-5.1,1.1c-2.2,0-3.7-0.3-4.3-0.9
	c-0.6-0.6-1-1.9-1-3.8v-7.6h0l0,0c0.1,0,0.3,0,0.6,0c1.7,0,3,0.4,3.7,1c0.8,0.6,1.2,1.7,1.3,3.2l0,0.5h0.5h0.8h0.5l0-0.5
	c-0.1-0.9-0.1-1.8-0.1-2.6c0-1-0.1-2.1-0.1-2.9c0-1.2,0-2.1,0.1-2.9c0-0.8,0-1.7,0.1-2.6l0-0.5h-0.5h-0.8h-0.5l0,0.4
	c-0.1,1.7-0.6,3-1.4,3.8c-0.8,0.7-2,1.1-3.7,1.1c-0.2,0-0.3,0-0.4,0v-9.1c0-1.3,0.2-1.6,0.2-1.6c0,0,0.4-0.2,2.6-0.2
	c3.7,0,5.2,0.5,5.8,0.9c0.9,0.7,1.4,1.9,1.6,3.7l0.1,0.4h0.4h0.8h0.5v-0.5v-6.1v-0.5l-0.5,0c-1.7,0.1-3.3,0.1-4.9,0.1l-1.5,0l-4.6,0
	c-1.3,0-2.4,0-3.6,0l-1.3,0c-1.2,0-2.5,0-3.8-0.1l-0.5,0l0,0.5l0,1l0,0.5l0.5,0c1.4,0.1,2.3,0.3,2.7,0.7c0.3,0.3,0.6,1.1,0.6,2.7
	v18.8c0,1.9-0.4,2.5-0.6,2.7c-0.3,0.2-1,0.6-2.7,0.6l-0.4,0l0,0.4l0,0.9l0,0.5l0.5,0c1-0.1,2-0.1,2.9-0.1l1.7,0l3.6,0l2.6,0l3.4,0
	c2,0,4.2,0,7.3,0.1l0.5,0l0-0.5l0.2-6.5l0-0.5h-0.5H264.9z"/>
<path class="st0" d="M289.7,746.7c-0.4-0.4-0.6-1.3-0.6-2.8v-8.1c1,0.1,1.7,0.1,2.1,0.1c3.3,0,5.9-0.7,7.8-2.1
	c1.9-1.4,2.9-3.4,2.9-6c0-2.6-1-4.7-2.9-6c-1.8-1.3-4.6-2-8.1-2c-0.6,0-1.6,0-2.8,0.1h-2.7H283c-0.7,0-1.5,0-2.2-0.1l-0.5-0.1v0.5v1
	v0.5l0.5,0c1.4,0.1,2.3,0.3,2.7,0.7c0.2,0.2,0.5,0.9,0.5,2.7v18.8c0,1.8-0.3,2.5-0.6,2.7c-0.4,0.4-1.3,0.6-2.7,0.7l-0.5,0v0.5v0.9
	v0.5l0.5,0c0.9-0.1,1.8-0.1,2.6-0.1c1,0,2,0,3.2,0c1.2,0,2.2,0,3.2,0c0.8,0,1.7,0,2.6,0.1l0.5,0v-0.5v-0.9v-0.5l-0.5,0
	C290.5,747.2,289.9,746.9,289.7,746.7 M289.3,722c0.2-0.1,0.7-0.3,1.5-0.3c1.9,0,3.4,0.5,4.3,1.5c0.9,1,1.4,2.6,1.4,4.7
	c0,2.1-0.5,3.6-1.3,4.5c-0.9,1-2.2,1.5-4,1.5c-0.1,0-0.2,0-0.3,0c-0.2,0-0.4,0-0.6,0c0,0-0.2,0-0.2,0c-0.2,0-0.6-0.1-0.9-0.1v-11.2
	C289.1,722.2,289.2,722,289.3,722"/>
<path class="st0" d="M322.8,746.5c-0.6-0.5-1.1-1.4-1.6-2.7c0,0-9-24.4-9-24.4l-0.1-0.3h-0.3h-0.9h-0.3l-0.1,0.3l-8.9,23.2
	c-0.8,1.9-1.4,3.2-2,3.7c-0.6,0.5-1.4,0.9-2.5,1l-0.4,0.1v0.4v0.8v0.5l0.5,0c0.8-0.1,1.4-0.1,2-0.1h0h0c0.7-0.1,1.4-0.1,2.1-0.1
	c0.5,0,1.1,0,1.8,0.1h0h0c0.7,0,1.4,0,2.4,0.1l0.5,0v-0.5v-0.8v-0.5l-0.5,0c-0.8,0-1.5-0.2-1.9-0.5c-0.3-0.3-0.5-0.8-0.5-1.4
	c0-0.3,0-0.6,0.1-1c0.1-0.4,0.2-0.8,0.3-1.2l0,0c0,0,1.2-3.3,1.6-4.4h9.2l1.7,4.8c0.2,0.5,0.3,1,0.4,1.5c0,0,0,0.3,0,0.3
	c0.1,0.4,0.1,0.6,0.1,0.7c0,0.3-0.1,0.5-0.5,0.7c-0.4,0.2-1.1,0.4-2.2,0.5l-0.4,0v0.4v0.8v0.5l0.5,0c0.8-0.1,1.7-0.1,2.6-0.1
	c0.9-0.1,1.9-0.1,2.9-0.1c0.9,0,1.9,0,2.8,0.1c0.9,0,1.8,0,2.8,0.1l0.5,0v-0.5v-0.8v-0.4l-0.4,0C324,747.2,323.3,747,322.8,746.5
	 M309.9,726.2l3.7,10.4h-7.7L309.9,726.2z"/>
<path class="st0" d="M349.8,741.1h-0.5l0,0.5c-0.1,2.1-0.7,3.5-1.8,4.3c-1.1,0.8-3.1,1.3-5.7,1.3c-2.9,0-4.1-0.5-4.6-0.9
	c-0.5-0.4-1-1.4-1-4.1v-17c0-2,0.4-2.6,0.6-2.7c0.3-0.2,1-0.6,2.7-0.7l0.5,0v-0.5v-1v-0.5l-0.5,0c-1,0.1-1.8,0.1-2.6,0.1
	c0,0-0.9,0-0.9,0c-0.7,0-1.5,0-2.3,0c-0.8,0-1.6,0-2.3,0l-0.8,0c-0.8,0-1.7,0-2.7-0.1l-0.5,0v0.5v1v0.5l0.5,0
	c1.4,0.1,2.3,0.3,2.7,0.7c0.2,0.2,0.6,0.8,0.6,2.7v18.8c0,1.9-0.4,2.5-0.6,2.7c-0.3,0.2-1,0.6-2.7,0.6l-0.5,0v0.5v0.9v0.5l0.5,0
	c0.9-0.1,1.9-0.1,2.9-0.1l1.8,0l4.5,0c2.2,0,4.5,0,6.9,0h3.8c0.3,0,0.7,0,1.3,0.1c0.7,0.1,1.2,0.1,1.5,0.1h0.5v-0.5v-7.2v-0.5h-0.5
	H349.8z"/>
<path class="st0" d="M379.3,746.5c-0.6-0.5-1.1-1.4-1.6-2.7c0,0-9-24.4-9-24.4l-0.1-0.3h-0.3h-0.9h-0.3l-0.1,0.3l-8.9,23.2
	c-0.8,1.9-1.4,3.2-2,3.7c-0.5,0.5-1.4,0.9-2.5,1l-0.4,0.1v0.4v0.8v0.5l0.5,0c0.7-0.1,1.3-0.1,2-0.1h0h0c0.6-0.1,1.3-0.1,2.1-0.1
	c0.5,0,1.1,0,1.8,0.1h0h0c0.8,0,1.6,0,2.4,0.1l0.5,0v-0.5v-0.8v-0.5l-0.5,0c-0.9,0-1.5-0.2-1.9-0.5c-0.5-0.4-0.5-1-0.5-1.4
	c0-0.2,0-0.5,0.1-0.8l0-0.3c0-0.2,0.1-0.5,0.2-0.8l0.1-0.5c0,0,1.2-3.3,1.6-4.3h9.2l1.7,4.8c0,0,0,0.1,0,0.1
	c0.1,0.5,0.3,0.9,0.3,1.4c0.1,0.5,0.2,0.9,0.2,1c0,0.3-0.1,0.6-0.5,0.7c-0.4,0.2-1.1,0.4-2.2,0.5l-0.4,0v0.4v0.8v0.5l0.5,0
	c1-0.1,1.8-0.1,2.6-0.1c0.9-0.1,1.9-0.1,3-0.1c0.9,0,1.9,0,2.8,0.1c1,0,2,0,2.8,0.1l0.5,0v-0.5v-0.8v-0.4l-0.4,0
	C380.6,747.2,379.8,747,379.3,746.5 M366.4,726.2l3.7,10.4h-7.7L366.4,726.2z"/>
<path class="st0" d="M402.9,738.4h-0.4l-0.1,0.4c-0.6,3-1.5,5.2-2.9,6.8c-1.4,1.5-3.2,2.3-5.3,2.3c-2.8,0-4.9-1.1-6.5-3.4
	c-1.7-2.3-2.5-5.5-2.5-9.5c0-4.3,0.8-7.8,2.4-10.3c1.6-2.4,3.7-3.6,6.4-3.6c2.1,0,3.8,0.6,5.2,1.9c1.4,1.3,2.3,3.1,2.8,5.5l0.1,0.4
	h0.4h0.8h0.5l0-0.5l-0.3-7.9l0-0.5h-0.5h-0.5h-0.4l-0.1,0.4l-0.3,1.4c-1.2-0.8-2.3-1.4-3.4-1.7c-1.3-0.5-2.8-0.7-4.4-0.7
	c-4.2,0-7.7,1.5-10.4,4.4c-2.7,3.1-4,6.8-4,11.5c0,4.3,1.3,7.9,3.9,10.6c2.6,2.7,5.9,4.1,10,4.1c1.7,0,3.3-0.3,4.7-0.9
	c1.3-0.5,2.7-1.3,4.3-2.3l0.5,1.5l0.1,0.3h0.3h0.5h0.5V748v-9.1v-0.5h-0.5H402.9z"/>
<path class="st0" d="M428.6,741.4h-0.4l-0.1,0.4c-0.2,1.8-0.9,3.1-1.9,3.8c-1,0.8-2.7,1.1-5.1,1.1c-2.2,0-3.6-0.3-4.3-0.9
	c-0.6-0.5-1-1.8-1-3.8v-7.6h0c0,0,0,0,0,0c0.1,0,0.3,0,0.5,0c1.7,0,3,0.3,3.7,1c0.7,0.6,1.1,1.6,1.3,3.2l0,0.4h0.4h0.8h0.5l0-0.5
	l-0.1-2.6c0-0.9,0-1.9,0-2.9c0-1,0-2,0-2.9c0,0,0.1-2.6,0.1-2.6l0-0.5h-0.5h-0.8h-0.4l0,0.4c-0.1,1.7-0.6,3-1.4,3.8
	c-0.8,0.7-2,1.1-3.7,1.1c-0.2,0-0.3,0-0.5,0v-9.1c0-1.3,0.2-1.6,0.2-1.6c0,0,0.5-0.2,2.6-0.2c3.7,0,5.2,0.5,5.8,0.9
	c0.9,0.7,1.4,1.9,1.6,3.7l0.1,0.4h0.4h0.7h0.5v-0.5V720v-0.5l-0.5,0c-1.7,0.1-3.3,0.1-4.9,0.1c0,0-1.6,0-1.6,0l-4.5,0
	c-1.3,0-2.5,0-3.6,0l-1.2,0c-1.3,0-2.6,0-3.8-0.1l-0.5,0v0.5v1v0.5l0.5,0c1.4,0.1,2.3,0.3,2.7,0.7c0.2,0.1,0.6,0.7,0.6,2.7v18.8
	c0,1.9-0.4,2.5-0.6,2.7c-0.2,0.2-0.9,0.6-2.7,0.6l-0.5,0v0.5v0.9v0.5l0.5,0c1-0.1,2-0.1,2.9-0.1l1.7,0l3.6,0l2.5,0l3.5,0
	c1.9,0,4.2,0,7.2,0.1h0.5l0-0.5l0.2-6.5l0-0.5h-0.5H428.6z"/>
<path class="st0" d="M477.5,720.3l0-0.4H477c-0.1,0-0.3,0-0.5,0c-0.2,0-0.5,0-0.8,0c-1.2,0.1-2.1,0.1-2.8,0.1h-1.4
	c-0.2,0-0.5,0-0.9-0.1c-0.4,0-0.8,0-1.2-0.1l-0.4,0l-0.1,0.3l-8.2,20.6l-8.2-20.6l-0.1-0.3l-0.4,0c-0.4,0-0.8,0.1-1.1,0.1
	c-0.3,0-0.6,0-0.9,0.1h-1.5c-0.6,0-1.6,0-2.7-0.1c-0.4,0-0.7,0-1,0c-0.2,0-0.3,0-0.5,0H444v0.5v1v0.5h0.5h0.3c1,0,1.7,0.1,2.2,0.4
	l0,0l0,0c0.4,0.2,0.6,0.4,0.8,0.9v20.1c0,2.6-0.4,3.3-0.6,3.5c-0.4,0.4-1.2,0.6-2.5,0.7l-0.5,0v0.5v0.9v0.6l0.5-0.1
	c0.3,0,0.6,0,1-0.1c0.2,0,0.5,0,0.8,0h2.1h2.7c0.2,0,0.4,0,0.6,0c0.3,0,0.6,0,0.9,0.1l0.6,0.1v-0.6v-0.9v-0.4l-0.4,0
	c-1.6-0.1-2.3-0.4-2.5-0.7c-0.2-0.3-0.6-1-0.6-3v-17l8.8,21.9l0.1,0.3h0.3h0.5h0.3l0.1-0.3l8.6-21.7v17.1c0,1.7-0.3,2.4-0.6,2.7
	c-0.4,0.4-1.3,0.6-2.7,0.7l-0.5,0v0.5v0.9v0.6l0.6-0.1c0.2,0,0.6,0,0.9-0.1c0.2,0,0.5,0,0.7,0h3.9h3.8c0.2,0,0.5,0,0.7,0
	c0.4,0,0.7,0,1,0.1l0.6,0.1v-0.6v-0.9v-0.5l-0.4,0c-1.7-0.1-2.3-0.5-2.5-0.6c-0.2-0.2-0.6-0.8-0.6-2.5v-18.7c0-1.4,0.2-2.4,0.7-3
	c0.5-0.5,1.2-0.8,2.2-0.8h0.6h0.5l0-0.5L477.5,720.3z"/>
<path class="st0" d="M506.9,719.9h-2.6h-2c-0.6-0.1-1.1-0.1-1.7-0.1h-0.1l-0.5,0v0.5v1v0.5h0.5c1.5,0,2.2,0.3,2.5,0.6
	c0.1,0.1,0.6,0.8,0.6,3.5v12.2c0,3.2-0.7,5.6-2,7.1c-1.3,1.4-3.3,2.2-6,2.2c-2.2,0-4-0.6-5.1-1.8c-1.1-1.2-1.6-3.2-1.6-5.9v-14.6
	c0-1.3,0.2-2.3,0.6-2.7c0.4-0.4,1.1-0.6,2-0.6h0.6h0.5v-0.5v-1v-0.5l-0.5,0.1c-0.5,0.1-1.1,0.1-1.7,0.1l-1,0c0,0-1.4,0-1.4,0l-1.7,0
	l-1.7,0l-1.4,0c-0.3,0-0.6,0-0.9,0c-0.6,0-1.1,0-1.7-0.1l-0.5-0.1v0.5v1v0.5l0.5,0c1.4,0.1,2.3,0.3,2.7,0.7c0.2,0.2,0.6,0.7,0.6,2.7
	v15.2c0,3.2,0.9,5.7,2.7,7.2c1.8,1.6,4.5,2.4,8.1,2.4c3.9,0,6.7-1,8.4-3c1.7-1.9,2.5-5.2,2.5-9.8v-11.2c0-2.6,0.4-3.3,0.5-3.5
	c0.3-0.4,1-0.7,1.9-0.7c0.2,0,0.4,0,0.5,0.1l0.6,0.2v-0.7v-1v-0.5l-0.5,0C508,719.8,507.5,719.8,506.9,719.9"/>
<path class="st0" d="M519.8,731L519.8,731c-0.1-0.1-0.2-0.1-0.4-0.2l-0.1-0.1c-3.4-1.6-5.3-3.4-5.3-5.2c0-1.4,0.4-2.4,1.2-3.2
	c0.8-0.7,1.9-1.1,3.3-1.1c1.5,0,2.7,0.5,3.7,1.5c1,1,1.8,2.7,2.5,4.9l0.1,0.3h0.4h0.5h0.5v-0.5c0-0.6,0-1.2,0-1.9v-1.1v-0.7v-1.8
	c0,0,0-0.4,0-0.4c0-0.5,0-0.9,0.1-1.4l0.1-0.5h-0.5h-0.6h-0.3l-0.1,0.3l-0.5,1.4c-1-0.6-2-1.1-2.8-1.4c-0.9-0.4-2-0.6-3.1-0.6
	c-2.4,0-4.4,0.8-6,2.3c-1.5,1.5-2.3,3.6-2.3,6.1c0,1.9,0.5,3.5,1.5,4.8c1,1.3,2.8,2.5,5.5,3.8c2.8,1.3,4.5,2.3,5.2,3.2
	c0.7,0.9,1,2,1,3.4c0,1.6-0.5,2.9-1.4,3.9c-0.9,0.9-2.1,1.4-3.8,1.4c-1.8,0-3.3-0.6-4.5-2c-1.3-1.4-2.1-3.3-2.6-5.9l-0.1-0.5l-0.4,0
	l-0.7,0.1l-0.4,0.1v0.4c0,0.3,0,0.8,0,1.3v2.6v2.5c0,0.6,0,1.2,0,1.6v0.5h0.5h0.6h0.4l0.1-0.4l0.2-1.1c1,0.8,1.9,1.5,2.9,1.8
	c1.3,0.5,2.6,0.8,4,0.8c2.8,0,5.2-0.9,7-2.6c1.8-1.6,2.8-3.8,2.8-6.4c0-2.3-0.6-4.2-1.8-5.6C525,733.9,522.8,732.3,519.8,731"/>
<path class="st0" d="M552.1,741.7h-0.4l0,0.4c-0.2,1.8-0.8,3.1-1.8,3.8c-1,0.8-2.7,1.1-5.1,1.1c-2.2,0-3.6-0.3-4.4-0.9
	c-0.3-0.3-0.9-1.2-0.9-3.8v-7.6h0l0,0c0.1,0,0.3,0,0.5,0c1.7,0,2.9,0.3,3.6,1c0.8,0.7,1.2,1.7,1.3,3.2l0,0.5h0.5h0.9h0.5l0-0.5
	c0-0.3,0-0.7-0.1-1c0-0.5-0.1-1.1-0.1-1.6c0-0.9,0-1.9,0-2.9c0-1,0-2,0-2.9c0-0.6,0-1.1,0.1-1.7c0-0.3,0-0.6,0-0.9l0-0.5h-0.5h-0.9
	H545l0,0.4c-0.1,1.7-0.6,3-1.4,3.8c-0.8,0.8-2,1.1-3.7,1.1h-0.4v-9.1c0-1.3,0.1-1.5,0.2-1.6h0c0,0,0.4-0.2,2.6-0.2
	c3,0,4.9,0.3,5.8,0.9c0.9,0.7,1.4,1.9,1.6,3.7l0,0.4h0.4h0.8h0.5v-0.5v-6.1v-0.5l-0.5,0c-1.7,0.1-3.3,0.1-4.9,0.1c0,0-1.5,0-1.5,0
	l-4.6,0c-1.3,0-2.5,0-3.6,0l-1.2,0c-1.2,0-2.5,0-3.9-0.1l-0.5,0l0,0.5l0,1l0,0.4l0.4,0c1.4,0.1,2.3,0.3,2.7,0.7
	c0.3,0.3,0.6,1.1,0.6,2.7v18.8c0,1.9-0.4,2.6-0.6,2.8c-0.3,0.2-1,0.6-2.7,0.6l-0.4,0l0,0.4l0,0.9l0,0.6l0.6,0c1-0.1,2-0.1,2.9-0.1
	l1.7,0l3.6,0l2.5,0l3.4,0c2,0,4.1,0,7.3,0.1l0.5,0v-0.5l0.2-6.5l0-0.5h-0.5H552.1z"/>
<path class="st0" d="M584.1,720.3l0-0.5l-0.5,0c-0.6,0-1.1,0-1.8,0.1h-2.5h-2c-0.7-0.1-1.2-0.1-1.8-0.1l-0.5,0c0,0,0,0.5,0,0.5v1
	v0.5h0.5c1.7,0,2.2,0.4,2.4,0.6l0,0l0,0c0.2,0.2,0.6,0.9,0.6,3.5v12.2c0,3.2-0.6,5.6-1.9,7.1c-1.3,1.4-3.3,2.2-6,2.2
	c-2.3,0-4-0.6-5.1-1.8c-1.1-1.2-1.6-3.2-1.6-5.9v-14.6c0-1.7,0.3-2.4,0.6-2.7c0.4-0.4,1.1-0.6,2.1-0.6h0.6h0.5v-0.5v-1v-0.5
	l-0.5,0.1c-0.5,0.1-1.1,0.1-1.7,0.1c-0.3,0-0.6,0-1,0c0,0-1.4,0-1.4,0l-1.7,0l-1.7,0l-1.5,0c-0.3,0-0.6,0-0.9,0
	c-0.6,0-1.1,0-1.7-0.1l-0.5-0.1v0.5v1v0.5l0.5,0c1.7,0.1,2.4,0.4,2.6,0.7c0.3,0.2,0.6,0.9,0.6,2.7v15.2c0,3.3,0.9,5.7,2.7,7.2
	c1.8,1.6,4.5,2.4,8.1,2.4c3.9,0,6.7-1,8.4-3c1.7-1.9,2.5-5.2,2.5-9.8v-11.2c0-2.6,0.4-3.3,0.6-3.5c0.4-0.4,1-0.7,1.9-0.7
	c0.2,0,0.4,0,0.6,0.1l0.6,0.1l0-0.6L584.1,720.3z"/>
<path class="st0" d="M616.7,722.5c0.4-0.5,1.2-0.8,2.2-0.8h0.6h0.5l0-0.5l0-1l0-0.5h-0.5c-0.1,0-0.3,0-0.5,0c-0.2,0-0.5,0-0.8,0
	c-1.2,0.1-2.1,0.1-2.7,0.1H614c-0.2,0-0.5,0-0.9-0.1c-0.4,0-0.8,0-1.2-0.1l-0.4,0l-0.1,0.3l-8.2,20.6l-8.2-20.6l-0.1-0.3l-0.4,0
	c-0.4,0-0.8,0.1-1.1,0.1c-0.3,0-0.6,0-0.8,0.1H591c-0.7,0-1.5,0-2.8-0.1c-0.4,0-0.7,0-0.9,0c-0.2,0-0.3,0-0.5,0h-0.5v0.5v1v0.5h0.5
	h0.3c1,0,1.7,0.1,2.2,0.4c0.4,0.2,0.6,0.5,0.8,0.9v20.1c0,2.6-0.4,3.3-0.6,3.5c-0.2,0.3-0.9,0.6-2.5,0.7l-0.5,0v0.5v0.9v0.6l0.5-0.1
	c0.3,0,0.7,0,1-0.1c0.2,0,0.5,0,0.8,0h2.1h2.7c0.2,0,0.4,0,0.6,0c0.3,0,0.6,0,0.9,0.1l0.6,0.1v-0.6v-0.9v-0.5l-0.5,0
	c-1.3-0.1-2.1-0.3-2.5-0.7c-0.2-0.2-0.6-0.9-0.6-3v-17l8.8,21.9l0.1,0.3h0.3h0.5h0.3l0.1-0.3l8.6-21.7v17.1c0,1.7-0.4,2.4-0.7,2.7
	c-0.2,0.2-0.8,0.6-2.6,0.7l-0.4,0v0.5v0.9v0.6l0.6-0.1c0.2,0,0.6,0,0.9-0.1c0.2,0,0.5,0,0.7,0h3.9h3.8c0.2,0,0.5,0,0.7,0
	c0.4,0,0.7,0,1,0.1l0.6,0.1v-0.6v-0.9v-0.5l-0.5,0c-1.7-0.1-2.3-0.5-2.4-0.6c-0.3-0.3-0.6-0.9-0.6-2.5v-18.7
	C615.9,724.2,616.2,723.2,616.7,722.5"/>
</svg>
