<?xml version="1.0" encoding="utf-8"?>
<!-- Generator: Adobe Illustrator 22.1.0, SVG Export Plug-In . SVG Version: 6.00 Build 0)  -->
<svg version="1.1" id="图层_1" xmlns="http://www.w3.org/2000/svg" xmlns:xlink="http://www.w3.org/1999/xlink" x="0px" y="0px"
	 viewBox="0 0 800 800" style="enable-background:new 0 0 800 800;" xml:space="preserve">
<style type="text/css">
	.st0{fill:#990000;}
</style>
<g>
	<rect x="51.3" y="473.7" class="st0" width="685.7" height="4.8"/>
	<rect x="51.3" y="482" class="st0" width="685.7" height="2.4"/>
	<rect x="94.5" y="399.3" class="st0" width="26.4" height="74.3"/>
	<rect x="667.5" y="399.1" class="st0" width="26.4" height="74.3"/>
	<rect x="130.4" y="399.3" class="st0" width="24" height="74.3"/>
	<rect x="633.9" y="399.3" class="st0" width="24" height="74.3"/>
	<rect x="164" y="404.1" class="st0" width="14.4" height="69.5"/>
	<rect x="190.4" y="404.1" class="st0" width="14.4" height="69.5"/>
	<rect x="216.7" y="404.1" class="st0" width="14.4" height="69.5"/>
	<rect x="243.1" y="404.1" class="st0" width="14.4" height="69.5"/>
	<rect x="269.5" y="404.1" class="st0" width="14.4" height="69.5"/>
	<rect x="298.3" y="404.1" class="st0" width="14.4" height="69.5"/>
	<rect x="609.9" y="404.1" class="st0" width="14.4" height="69.5"/>
	<rect x="583.6" y="404.1" class="st0" width="14.4" height="69.5"/>
	<rect x="557.2" y="404.1" class="st0" width="14.4" height="69.5"/>
	<rect x="530.8" y="404.1" class="st0" width="14.4" height="69.5"/>
	<rect x="504.4" y="404.1" class="st0" width="14.4" height="69.5"/>
	<rect x="475.7" y="404.1" class="st0" width="14.4" height="69.5"/>
	<rect x="451.7" y="344.2" class="st0" width="14.4" height="129.5"/>
	<rect x="430.1" y="344.2" class="st0" width="14.4" height="129.5"/>
	<rect x="322.2" y="344.2" class="st0" width="14.4" height="129.5"/>
	<rect x="343.8" y="344.2" class="st0" width="14.4" height="129.5"/>
	<rect x="413.3" y="346.6" class="st0" width="9.6" height="127.1"/>
	<rect x="365.4" y="346.6" class="st0" width="9.6" height="127.1"/>
	<rect x="379.8" y="346.6" class="st0" width="9.6" height="127.1"/>
	<rect x="399" y="346.6" class="st0" width="9.6" height="127.1"/>
	<rect x="164" y="373" class="st0" width="14.4" height="24"/>
	<rect x="190.4" y="373" class="st0" width="14.4" height="24"/>
	<rect x="216.7" y="373" class="st0" width="14.4" height="24"/>
	<rect x="243.1" y="373" class="st0" width="14.4" height="24"/>
	<rect x="269.5" y="373" class="st0" width="14.4" height="24"/>
	<rect x="298.3" y="373" class="st0" width="14.4" height="24"/>
	<rect x="475.7" y="373" class="st0" width="14.4" height="24"/>
	<rect x="504.2" y="373" class="st0" width="14.4" height="24"/>
	<rect x="530.6" y="373" class="st0" width="14.4" height="24"/>
	<rect x="557.2" y="373" class="st0" width="14.4" height="24"/>
	<rect x="583.6" y="373" class="st0" width="14.4" height="24"/>
	<rect x="609.9" y="373" class="st0" width="14.4" height="24"/>
	<g>
		<rect x="89.7" y="394.9" class="st0" width="232.6" height="4.8"/>
		<rect x="466.1" y="394.9" class="st0" width="232.6" height="4.8"/>
	</g>
	<rect x="159.2" y="363.4" class="st0" width="163" height="4.8"/>
	<rect x="466.1" y="363.4" class="st0" width="163" height="4.8"/>
	<rect x="317.4" y="339.4" class="st0" width="153.4" height="4.8"/>
	<rect x="353.4" y="317.8" class="st0" width="81.5" height="21.6"/>
	<polygon class="st0" points="348.6,310.6 348.6,315.4 439.7,315.4 439.7,310.6 427.7,310.6 427.7,305.8 360.6,305.8 360.6,310.6 	
		"/>
	<polygon class="st0" points="372.6,281.8 415.7,281.8 415.7,284.2 410.9,284.2 410.9,301 415.7,301 415.7,303.4 372.6,303.4 
		372.6,301 377.4,301 377.4,284.2 372.6,284.2 	"/>
	<polygon class="st0" points="389.4,209.9 382.2,279.4 406.2,279.4 399,209.9 	"/>
	<path class="st0" d="M394.2,170c-11.3,0-20.4,9.1-20.4,20.4c0,11.3,9.1,20.4,20.4,20.4c11.3,0,20.4-9.1,20.4-20.4
		C414.5,179.1,405.4,170,394.2,170z M394.2,208.4c-9.9,0-18-8.1-18-18c0-9.9,8.1-18,18-18c9.9,0,18,8.1,18,18
		C412.1,200.3,404.1,208.4,394.2,208.4z"/>
	<polygon class="st0" points="394.2,178.2 397.2,187.5 407,187.5 399.1,193.3 402.1,202.6 394.2,196.9 386.2,202.6 389.2,193.3 
		381.3,187.5 391.1,187.5 	"/>
	<g>
		<path class="st0" d="M51,491.9h11.5l0,3.9H62c-0.2-1.4-0.7-2.3-1.6-2.8c-0.5-0.3-1.2-0.4-2.2-0.4v10.1c0,0.7,0.1,1.2,0.4,1.4
			c0.2,0.2,0.8,0.3,1.5,0.3v0.5h-6.8v-0.5c0.7,0,1.2-0.1,1.5-0.4c0.2-0.2,0.4-0.7,0.4-1.4v-10.1c-0.9,0-1.7,0.2-2.2,0.4
			c-0.9,0.5-1.4,1.4-1.6,2.8H51L51,491.9z"/>
		<path class="st0" d="M64.6,504.3c0.5,0,0.9-0.1,1.1-0.2c0.4-0.2,0.5-0.6,0.5-1.1v-9.3c0-0.5-0.2-0.9-0.5-1.1
			c-0.2-0.1-0.6-0.2-1.1-0.3v-0.5h6.5v0.5c-0.6,0-1,0.1-1.2,0.2c-0.4,0.2-0.5,0.6-0.5,1.1v4H74v-4c0-0.6-0.2-0.9-0.5-1.1
			c-0.2-0.1-0.6-0.2-1.2-0.2v-0.5h6.5v0.5c-0.6,0-0.9,0.1-1.2,0.2c-0.3,0.2-0.5,0.6-0.5,1.1v9.3c0,0.6,0.2,0.9,0.6,1.1
			c0.2,0.1,0.6,0.2,1.1,0.2v0.5h-6.5v-0.5c0.5,0,0.9-0.1,1.2-0.2c0.4-0.2,0.5-0.6,0.5-1.1v-4.4h-4.6v4.4c0,0.6,0.2,1,0.6,1.2
			c0.2,0.1,0.6,0.2,1.1,0.2v0.5h-6.5V504.3z"/>
		<path class="st0" d="M80.5,504.8v-0.5c0.5,0,0.9-0.1,1.2-0.2c0.4-0.2,0.5-0.6,0.5-1.1v-9.3c0-0.6-0.2-0.9-0.6-1.1
			c-0.2-0.1-0.6-0.2-1.2-0.2v-0.5h11.1v3.9H91c-0.2-1.2-0.7-2.1-1.2-2.5c-0.6-0.5-1.6-0.7-3.2-0.7c-0.6,0-1,0.1-1.1,0.2
			c-0.2,0.1-0.2,0.4-0.2,0.7v4.4c1.1,0,1.8-0.2,2.2-0.6c0.4-0.4,0.7-1.2,0.9-2.2h0.5v6.5h-0.5c-0.1-1.1-0.4-1.9-0.8-2.3
			c-0.4-0.4-1.2-0.7-2.3-0.7v4.6c0,0.4,0.1,0.7,0.3,0.8c0.2,0.1,0.6,0.2,1.3,0.2c1.2,0,2.2-0.2,3-0.7c0.8-0.5,1.5-1.4,2.1-2.7h0.5
			l-0.8,4H80.5z"/>
		<path class="st0" d="M99.9,504.3c0.7,0,1.2-0.1,1.4-0.4s0.3-0.6,0.3-1.1v-9.1c0-0.5-0.1-0.9-0.4-1c-0.2-0.2-0.7-0.3-1.3-0.3v-0.5
			h4.8l3.8,8.9h0.2l3.8-8.9h4.8v0.5c-0.6,0-1.1,0.2-1.3,0.4c-0.2,0.2-0.4,0.7-0.4,1.4v8.5c0,0.7,0.1,1.2,0.4,1.4s0.7,0.3,1.3,0.4
			v0.5h-6.4v-0.5c0.6,0,1-0.1,1.3-0.3c0.3-0.2,0.4-0.5,0.4-1.1v-9.4h-0.1l-4.7,11.3h-0.5l-4.7-11.1h-0.1v8.7c0,0.6,0.1,1.1,0.4,1.4
			s0.8,0.5,1.6,0.5v0.5h-4.5V504.3z"/>
		<path class="st0" d="M119,504.3c0.5,0,0.9-0.1,1.2-0.2c0.4-0.2,0.6-0.6,0.6-1.2v-9.3c0-0.6-0.2-0.9-0.6-1.1
			c-0.2-0.1-0.6-0.2-1.2-0.2v-0.5h6.7v0.5c-0.6,0-1,0.1-1.2,0.2c-0.4,0.2-0.6,0.6-0.6,1.1v9.3c0,0.5,0.1,0.9,0.4,1.1
			c0.3,0.2,0.7,0.3,1.3,0.3v0.5H119V504.3z"/>
		<path class="st0" d="M127.5,504.3c0.5,0,0.9-0.1,1.1-0.2c0.4-0.2,0.6-0.6,0.6-1.1v-9.3c0-0.6-0.2-0.9-0.5-1.1
			c-0.2-0.1-0.6-0.2-1.2-0.2v-0.5h6.7v0.5c-0.8,0-1.3,0.1-1.6,0.3c-0.3,0.2-0.4,0.7-0.4,1.4v9.1c0,0.4,0.1,0.7,0.3,0.8
			c0.2,0.1,0.7,0.2,1.3,0.2c1.2,0,2.1-0.3,2.9-0.8c0.8-0.5,1.5-1.5,2-3h0.6l-0.8,4.3h-11.1V504.3z"/>
		<path class="st0" d="M141.2,504.3c0.5,0,0.9-0.1,1.2-0.2c0.4-0.2,0.6-0.6,0.6-1.2v-9.3c0-0.6-0.2-0.9-0.6-1.1
			c-0.2-0.1-0.6-0.2-1.2-0.2v-0.5h6.7v0.5c-0.6,0-1,0.1-1.2,0.2c-0.4,0.2-0.6,0.6-0.6,1.1v9.3c0,0.5,0.1,0.9,0.4,1.1
			c0.3,0.2,0.7,0.3,1.3,0.3v0.5h-6.7V504.3z"/>
		<path class="st0" d="M149.8,491.9h11.5l0,3.9h-0.6c-0.2-1.4-0.7-2.3-1.6-2.8c-0.5-0.3-1.2-0.4-2.2-0.4v10.1c0,0.7,0.1,1.2,0.4,1.4
			c0.2,0.2,0.8,0.3,1.5,0.3v0.5h-6.8v-0.5c0.7,0,1.2-0.1,1.5-0.4c0.2-0.2,0.4-0.7,0.4-1.4v-10.1c-0.9,0-1.7,0.2-2.2,0.4
			c-0.9,0.5-1.4,1.4-1.6,2.8h-0.6L149.8,491.9z"/>
		<path class="st0" d="M162,504.3c0.5,0,0.8-0.2,1.1-0.6c0.2-0.2,0.4-0.8,0.8-1.6l4.3-10.5h0.5l4.3,10.1c0.5,1.1,0.8,1.9,1.1,2.2
			c0.2,0.3,0.6,0.5,1,0.5v0.5h-6.2v-0.5c0.6,0,1-0.1,1.2-0.2c0.2-0.1,0.3-0.3,0.3-0.6c0-0.1-0.1-0.4-0.1-0.7
			c-0.1-0.2-0.1-0.4-0.3-0.7l-0.5-1.2h-4.3c-0.3,0.8-0.5,1.3-0.5,1.5c-0.2,0.5-0.3,0.9-0.3,1.1c0,0.3,0.2,0.5,0.6,0.6
			c0.2,0.1,0.5,0.1,1,0.1v0.5H162V504.3z M169.2,500.3l-1.8-4.4h-0.2l-1.7,4.4H169.2z"/>
		<path class="st0" d="M176.8,504.3c0.6,0,1.1-0.2,1.3-0.4c0.2-0.2,0.4-0.7,0.4-1.4v-8.5c0-0.7-0.1-1.2-0.4-1.4
			c-0.2-0.1-0.6-0.3-1.3-0.3v-0.5h6.2c1.3,0,2.3,0.1,3.1,0.4c1.5,0.5,2.3,1.5,2.3,2.9c0,1-0.4,1.9-1.2,2.5c-0.6,0.4-1.3,0.7-2,0.9
			l4.1,5.5c0.1,0.1,0.2,0.2,0.3,0.3c0.1,0,0.3,0.1,0.4,0.1v0.5h-4l-4.5-6h0v3.8c0,0.7,0.1,1.1,0.3,1.4c0.2,0.2,0.7,0.4,1.3,0.4v0.5
			h-6.5V504.3z M184.3,497.7c0.5-0.3,0.8-1.1,0.8-2.3c0-0.7-0.1-1.3-0.3-1.8c-0.4-0.7-1-1.1-1.9-1.1c-0.5,0-0.8,0.1-1,0.2
			c-0.2,0.1-0.2,0.3-0.2,0.6v4.9C182.8,498.2,183.7,498,184.3,497.7z"/>
		<path class="st0" d="M197.3,491.9v0.5c-0.7,0-1.1,0.1-1.3,0.1c-0.2,0.1-0.3,0.2-0.3,0.4c0,0.1,0,0.2,0.1,0.3
			c0,0.1,0.1,0.3,0.2,0.6l2.5,4.6h0l2.1-3.4c0.1-0.2,0.3-0.5,0.4-0.8c0.2-0.5,0.3-0.8,0.3-1c0-0.3-0.1-0.6-0.4-0.7
			c-0.2-0.1-0.6-0.1-1.2-0.2v-0.5h4.2v0.5c-0.3,0.1-0.5,0.1-0.7,0.2c-0.2,0.1-0.4,0.3-0.6,0.5l-3.7,6v3.5c0,0.7,0.1,1.2,0.4,1.4
			c0.2,0.2,0.7,0.3,1.4,0.3v0.5h-6.6v-0.5c0.7,0,1.2-0.1,1.4-0.4s0.4-0.7,0.4-1.4v-2.8l-3.5-6.4c-0.2-0.4-0.5-0.7-0.9-0.9
			c-0.2-0.1-0.5-0.2-0.7-0.2v-0.5H197.3z"/>
		<path class="st0" d="M210.7,504.3c0.7,0,1.2-0.1,1.4-0.4s0.3-0.6,0.3-1.1v-9.1c0-0.5-0.1-0.9-0.4-1c-0.2-0.2-0.7-0.3-1.3-0.3v-0.5
			h4.8l3.8,8.9h0.2l3.8-8.9h4.8v0.5c-0.6,0-1.1,0.2-1.3,0.4c-0.2,0.2-0.4,0.7-0.4,1.4v8.5c0,0.7,0.1,1.2,0.4,1.4
			c0.2,0.2,0.7,0.3,1.3,0.4v0.5h-6.4v-0.5c0.6,0,1-0.1,1.3-0.3c0.3-0.2,0.4-0.5,0.4-1.1v-9.4h-0.1l-4.7,11.3h-0.5l-4.7-11.1h-0.1
			v8.7c0,0.6,0.1,1.1,0.4,1.4c0.2,0.3,0.8,0.5,1.6,0.5v0.5h-4.5V504.3z"/>
		<path class="st0" d="M236.3,491.9v0.5c-0.7,0-1.2,0.1-1.5,0.3c-0.2,0.2-0.4,0.7-0.4,1.4v6.4c0,1,0.1,1.7,0.3,2.3
			c0.4,1,1.2,1.5,2.4,1.5c1.5,0,2.5-0.5,3-1.6c0.3-0.6,0.4-1.4,0.4-2.5v-5.9c0-0.7-0.1-1.2-0.4-1.4c-0.3-0.3-0.7-0.4-1.5-0.5v-0.5
			h4.2v0.5c-0.6,0.1-1,0.3-1.2,0.4c-0.2,0.2-0.3,0.6-0.3,1.2v6.1c0,1.6-0.4,2.9-1.2,3.8c-0.8,0.9-2,1.3-3.7,1.3
			c-2.2,0-3.7-0.7-4.5-2c-0.4-0.7-0.6-1.6-0.6-2.7v-6.4c0-0.7-0.1-1.2-0.3-1.4c-0.2-0.2-0.6-0.3-1.3-0.4v-0.5H236.3z"/>
		<path class="st0" d="M245,500.3h0.6c0.3,1.4,0.8,2.5,1.5,3.1c0.7,0.7,1.5,1,2.3,1c0.9,0,1.5-0.2,1.8-0.7c0.4-0.4,0.5-0.9,0.5-1.4
			c0-0.6-0.2-1-0.6-1.4c-0.2-0.2-0.8-0.5-1.5-0.9l-1.2-0.6c-1.2-0.6-2.1-1.2-2.6-1.8c-0.5-0.6-0.7-1.3-0.7-2.2c0-0.9,0.3-1.8,1-2.6
			c0.7-0.8,1.7-1.2,3-1.2c0.7,0,1.4,0.1,2,0.3s1,0.3,1.1,0.3c0.2,0,0.4-0.1,0.4-0.2c0.1-0.1,0.1-0.3,0.2-0.5h0.6v4.2h-0.5
			c-0.3-1-0.7-1.8-1.3-2.5c-0.6-0.7-1.4-1-2.3-1c-0.6,0-1.1,0.2-1.5,0.5s-0.6,0.8-0.6,1.3c0,0.6,0.2,1.1,0.5,1.4
			c0.3,0.3,1.1,0.8,2.3,1.4l1.4,0.7c0.6,0.3,1.1,0.7,1.5,1.1c0.7,0.7,1.1,1.6,1.1,2.6c0,1-0.4,1.9-1.1,2.7c-0.8,0.9-2,1.3-3.6,1.3
			c-0.4,0-0.8,0-1.2-0.1c-0.4-0.1-0.8-0.2-1.2-0.3l-0.4-0.1c-0.1,0-0.2,0-0.2-0.1c-0.1,0-0.1,0-0.2,0c-0.2,0-0.3,0.1-0.4,0.2
			c-0.1,0.1-0.1,0.3-0.2,0.5H245V500.3z"/>
		<path class="st0" d="M256.3,504.8v-0.5c0.5,0,0.9-0.1,1.2-0.2c0.4-0.2,0.5-0.6,0.5-1.1v-9.3c0-0.6-0.2-0.9-0.6-1.1
			c-0.2-0.1-0.6-0.2-1.2-0.2v-0.5h11.1v3.9h-0.5c-0.2-1.2-0.7-2.1-1.2-2.5c-0.6-0.5-1.6-0.7-3.2-0.7c-0.6,0-1,0.1-1.1,0.2
			c-0.2,0.1-0.2,0.4-0.2,0.7v4.4c1.1,0,1.8-0.2,2.2-0.6c0.4-0.4,0.7-1.2,0.9-2.2h0.5v6.5h-0.5c-0.1-1.1-0.4-1.9-0.8-2.3
			c-0.4-0.4-1.2-0.7-2.3-0.7v4.6c0,0.4,0.1,0.7,0.3,0.8c0.2,0.1,0.6,0.2,1.3,0.2c1.2,0,2.2-0.2,3-0.7c0.8-0.5,1.5-1.4,2.1-2.7h0.5
			l-0.8,4H256.3z"/>
		<path class="st0" d="M276.5,491.9v0.5c-0.7,0-1.2,0.1-1.5,0.3c-0.2,0.2-0.4,0.7-0.4,1.4v6.4c0,1,0.1,1.7,0.3,2.3
			c0.4,1,1.2,1.5,2.4,1.5c1.5,0,2.5-0.5,3-1.6c0.3-0.6,0.4-1.4,0.4-2.5v-5.9c0-0.7-0.1-1.2-0.4-1.4s-0.7-0.4-1.5-0.5v-0.5h4.2v0.5
			c-0.6,0.1-1,0.3-1.2,0.4c-0.2,0.2-0.3,0.6-0.3,1.2v6.1c0,1.6-0.4,2.9-1.2,3.8c-0.8,0.9-2,1.3-3.7,1.3c-2.2,0-3.7-0.7-4.5-2
			c-0.4-0.7-0.6-1.6-0.6-2.7v-6.4c0-0.7-0.1-1.2-0.3-1.4c-0.2-0.2-0.6-0.3-1.3-0.4v-0.5H276.5z"/>
		<path class="st0" d="M284.8,504.3c0.7,0,1.2-0.1,1.4-0.4c0.2-0.3,0.3-0.6,0.3-1.1v-9.1c0-0.5-0.1-0.9-0.4-1
			c-0.2-0.2-0.7-0.3-1.3-0.3v-0.5h4.8l3.8,8.9h0.2l3.8-8.9h4.8v0.5c-0.6,0-1.1,0.2-1.3,0.4c-0.2,0.2-0.4,0.7-0.4,1.4v8.5
			c0,0.7,0.1,1.2,0.4,1.4c0.2,0.2,0.7,0.3,1.3,0.4v0.5h-6.4v-0.5c0.6,0,1-0.1,1.3-0.3c0.3-0.2,0.4-0.5,0.4-1.1v-9.4h-0.1l-4.7,11.3
			h-0.5l-4.7-11.1h-0.1v8.7c0,0.6,0.1,1.1,0.4,1.4s0.8,0.5,1.6,0.5v0.5h-4.5V504.3z"/>
		<path class="st0" d="M321.6,493.4c1.3,1.3,2,2.9,2,4.9c0,2-0.7,3.7-2,4.9c-1.3,1.2-2.9,1.9-4.8,1.9c-2,0-3.7-0.7-5-2.1
			c-1.2-1.3-1.8-2.8-1.8-4.7c0-2,0.6-3.7,1.9-5c1.3-1.3,2.9-2,4.9-2C318.7,491.6,320.3,492.2,321.6,493.4z M319.7,502
			c0.3-0.9,0.4-2.1,0.4-3.6c0-2-0.3-3.6-0.9-4.6c-0.6-1-1.4-1.6-2.5-1.6c-1.5,0-2.4,0.9-3,2.6c-0.3,0.9-0.4,2.1-0.4,3.6
			c0,1.5,0.1,2.7,0.4,3.6c0.5,1.7,1.5,2.6,3,2.6C318.2,504.6,319.2,503.7,319.7,502z"/>
		<path class="st0" d="M325.5,504.3c0.5,0,0.9-0.1,1.2-0.2c0.4-0.2,0.5-0.6,0.5-1.1v-9.3c0-0.6-0.2-0.9-0.5-1.1
			c-0.2-0.1-0.6-0.2-1.2-0.2v-0.5h10.9v3.9h-0.5c-0.2-1.2-0.6-2-1.2-2.5c-0.6-0.5-1.6-0.7-3.1-0.7c-0.6,0-0.9,0.1-1.1,0.2
			c-0.2,0.1-0.2,0.4-0.2,0.7v4.4c1,0,1.7-0.2,2.1-0.7s0.6-1.2,0.8-2.2h0.5v6.5h-0.5c-0.1-1-0.4-1.8-0.8-2.3
			c-0.4-0.5-1.1-0.7-2.1-0.7v4.5c0,0.6,0.2,1,0.5,1.1s0.9,0.2,1.6,0.2v0.5h-6.9V504.3z"/>
		<path class="st0" d="M343.1,491.9h11.5l0,3.9h-0.6c-0.2-1.4-0.7-2.3-1.6-2.8c-0.5-0.3-1.2-0.4-2.2-0.4v10.1c0,0.7,0.1,1.2,0.4,1.4
			c0.2,0.2,0.8,0.3,1.5,0.3v0.5h-6.8v-0.5c0.7,0,1.2-0.1,1.5-0.4c0.2-0.2,0.4-0.7,0.4-1.4v-10.1c-0.9,0-1.7,0.2-2.2,0.4
			c-0.9,0.5-1.4,1.4-1.6,2.8h-0.6L343.1,491.9z"/>
		<path class="st0" d="M356.7,504.3c0.5,0,0.9-0.1,1.1-0.2c0.4-0.2,0.5-0.6,0.5-1.1v-9.3c0-0.5-0.2-0.9-0.5-1.1
			c-0.2-0.1-0.6-0.2-1.1-0.3v-0.5h6.5v0.5c-0.6,0-1,0.1-1.2,0.2c-0.4,0.2-0.5,0.6-0.5,1.1v4h4.6v-4c0-0.6-0.2-0.9-0.5-1.1
			c-0.2-0.1-0.6-0.2-1.2-0.2v-0.5h6.5v0.5c-0.6,0-0.9,0.1-1.2,0.2c-0.3,0.2-0.5,0.6-0.5,1.1v9.3c0,0.6,0.2,0.9,0.6,1.1
			c0.2,0.1,0.6,0.2,1.1,0.2v0.5h-6.5v-0.5c0.5,0,0.9-0.1,1.2-0.2c0.4-0.2,0.5-0.6,0.5-1.1v-4.4h-4.6v4.4c0,0.6,0.2,1,0.6,1.2
			c0.2,0.1,0.6,0.2,1.1,0.2v0.5h-6.5V504.3z"/>
		<path class="st0" d="M372.6,504.8v-0.5c0.5,0,0.9-0.1,1.2-0.2c0.4-0.2,0.5-0.6,0.5-1.1v-9.3c0-0.6-0.2-0.9-0.6-1.1
			c-0.2-0.1-0.6-0.2-1.2-0.2v-0.5h11.1v3.9h-0.5c-0.2-1.2-0.7-2.1-1.2-2.5c-0.6-0.5-1.6-0.7-3.2-0.7c-0.6,0-1,0.1-1.1,0.2
			c-0.2,0.1-0.2,0.4-0.2,0.7v4.4c1.1,0,1.8-0.2,2.2-0.6c0.4-0.4,0.7-1.2,0.9-2.2h0.5v6.5h-0.5c-0.1-1.1-0.4-1.9-0.8-2.3
			c-0.4-0.4-1.2-0.7-2.3-0.7v4.6c0,0.4,0.1,0.7,0.3,0.8c0.2,0.1,0.6,0.2,1.3,0.2c1.2,0,2.2-0.2,3-0.7c0.8-0.5,1.5-1.4,2.1-2.7h0.5
			l-0.8,4H372.6z"/>
		<path class="st0" d="M401.6,492.1c0.8,0.3,1.3,0.4,1.4,0.4c0.2,0,0.4-0.1,0.6-0.3c0.1-0.2,0.2-0.4,0.3-0.6h0.5v4.5h-0.5
			c-0.5-1-0.9-1.7-1.4-2.3c-0.9-1-1.9-1.6-3-1.6c-1.3,0-2.2,0.6-2.7,1.7c-0.5,1.1-0.8,2.6-0.8,4.5c0,1.4,0.2,2.5,0.5,3.4
			c0.6,1.7,1.7,2.5,3.3,2.5c1,0,1.9-0.3,2.7-0.8c0.5-0.3,1.1-0.8,1.7-1.5l0.6,0.5c-0.7,0.8-1.4,1.4-2,1.8c-1,0.7-2.1,1-3.4,1
			c-1.9,0-3.5-0.6-4.8-1.7c-1.4-1.2-2.1-2.9-2.1-5c0-2.1,0.7-3.8,2-5.1c1.3-1.2,2.8-1.8,4.7-1.8C400,491.6,400.8,491.8,401.6,492.1z
			"/>
		<path class="st0" d="M406.9,504.3c0.5,0,0.9-0.1,1.1-0.2c0.4-0.2,0.5-0.6,0.5-1.1v-9.3c0-0.5-0.2-0.9-0.5-1.1
			c-0.2-0.1-0.6-0.2-1.1-0.3v-0.5h6.5v0.5c-0.6,0-1,0.1-1.2,0.2c-0.4,0.2-0.5,0.6-0.5,1.1v4h4.6v-4c0-0.6-0.2-0.9-0.5-1.1
			c-0.2-0.1-0.6-0.2-1.2-0.2v-0.5h6.5v0.5c-0.6,0-0.9,0.1-1.2,0.2c-0.3,0.2-0.5,0.6-0.5,1.1v9.3c0,0.6,0.2,0.9,0.6,1.1
			c0.2,0.1,0.6,0.2,1.1,0.2v0.5h-6.5v-0.5c0.6,0,0.9-0.1,1.2-0.2c0.4-0.2,0.5-0.6,0.5-1.1v-4.4h-4.6v4.4c0,0.6,0.2,1,0.6,1.2
			c0.2,0.1,0.6,0.2,1.1,0.2v0.5h-6.5V504.3z"/>
		<path class="st0" d="M422.7,504.3c0.5,0,0.9-0.1,1.2-0.2c0.4-0.2,0.6-0.6,0.6-1.2v-9.3c0-0.6-0.2-0.9-0.6-1.1
			c-0.2-0.1-0.6-0.2-1.2-0.2v-0.5h6.7v0.5c-0.6,0-1,0.1-1.2,0.2c-0.4,0.2-0.6,0.6-0.6,1.1v9.3c0,0.5,0.1,0.9,0.4,1.1
			c0.3,0.2,0.7,0.3,1.3,0.3v0.5h-6.7V504.3z"/>
		<path class="st0" d="M431.2,504.3c0.7,0,1.2-0.2,1.4-0.4c0.2-0.3,0.3-0.6,0.3-1.1v-9.1c-0.6-0.7-0.9-1-1.1-1.2
			c-0.1-0.1-0.3-0.2-0.6-0.2v-0.5h4.1l6.6,8h0.1v-5.6c0-0.6-0.1-1.1-0.4-1.4c-0.2-0.3-0.7-0.4-1.4-0.5v-0.5h4.1v0.5
			c-0.6,0.1-1,0.2-1.2,0.4s-0.3,0.5-0.3,1.1v11.3h-0.5l-8.4-10.3h-0.1v7.5c0,0.6,0.1,1,0.2,1.3c0.3,0.4,0.8,0.6,1.6,0.6v0.5h-4.3
			V504.3z"/>
		<path class="st0" d="M446,504.8v-0.5c0.6,0,0.9-0.1,1.2-0.2c0.4-0.2,0.5-0.6,0.5-1.1v-9.3c0-0.6-0.2-0.9-0.6-1.1
			c-0.2-0.1-0.6-0.2-1.2-0.2v-0.5H457v3.9h-0.5c-0.2-1.2-0.7-2.1-1.2-2.5c-0.6-0.5-1.6-0.7-3.2-0.7c-0.6,0-1,0.1-1.1,0.2
			c-0.2,0.1-0.2,0.4-0.2,0.7v4.4c1.1,0,1.8-0.2,2.2-0.6s0.7-1.2,0.9-2.2h0.5v6.5h-0.5c-0.1-1.1-0.4-1.9-0.8-2.3
			c-0.4-0.4-1.2-0.7-2.3-0.7v4.6c0,0.4,0.1,0.7,0.3,0.8c0.2,0.1,0.6,0.2,1.3,0.2c1.2,0,2.2-0.2,3-0.7c0.8-0.5,1.5-1.4,2.1-2.7h0.5
			l-0.8,4H446z"/>
		<path class="st0" d="M460.1,500.3h0.6c0.3,1.4,0.8,2.5,1.5,3.1c0.7,0.7,1.5,1,2.3,1c0.9,0,1.5-0.2,1.8-0.7
			c0.4-0.4,0.5-0.9,0.5-1.4c0-0.6-0.2-1-0.6-1.4c-0.2-0.2-0.8-0.5-1.5-0.9l-1.2-0.6c-1.2-0.6-2.1-1.2-2.6-1.8
			c-0.5-0.6-0.7-1.3-0.7-2.2c0-0.9,0.3-1.8,1-2.6c0.7-0.8,1.7-1.2,3-1.2c0.7,0,1.4,0.1,2,0.3c0.6,0.2,1,0.3,1.1,0.3
			c0.2,0,0.4-0.1,0.4-0.2c0.1-0.1,0.1-0.3,0.2-0.5h0.6v4.2H468c-0.3-1-0.7-1.8-1.3-2.5s-1.4-1-2.3-1c-0.6,0-1.1,0.2-1.5,0.5
			c-0.4,0.4-0.6,0.8-0.6,1.3c0,0.6,0.2,1.1,0.5,1.4c0.3,0.3,1.1,0.8,2.3,1.4l1.4,0.7c0.6,0.3,1.1,0.7,1.5,1.1
			c0.7,0.7,1.1,1.6,1.1,2.6c0,1-0.4,1.9-1.1,2.7c-0.8,0.9-2,1.3-3.6,1.3c-0.4,0-0.8,0-1.2-0.1c-0.4-0.1-0.8-0.2-1.2-0.3l-0.4-0.1
			c-0.1,0-0.2,0-0.3-0.1c-0.1,0-0.1,0-0.2,0c-0.2,0-0.3,0.1-0.4,0.2c-0.1,0.1-0.1,0.3-0.2,0.5h-0.6V500.3z"/>
		<path class="st0" d="M471.4,504.8v-0.5c0.6,0,0.9-0.1,1.2-0.2c0.4-0.2,0.5-0.6,0.5-1.1v-9.3c0-0.6-0.2-0.9-0.6-1.1
			c-0.2-0.1-0.6-0.2-1.2-0.2v-0.5h11.1v3.9h-0.5c-0.2-1.2-0.7-2.1-1.2-2.5c-0.6-0.5-1.6-0.7-3.2-0.7c-0.6,0-1,0.1-1.1,0.2
			c-0.2,0.1-0.2,0.4-0.2,0.7v4.4c1.1,0,1.8-0.2,2.2-0.6s0.7-1.2,0.9-2.2h0.5v6.5h-0.5c-0.1-1.1-0.4-1.9-0.8-2.3
			c-0.4-0.4-1.2-0.7-2.3-0.7v4.6c0,0.4,0.1,0.7,0.3,0.8c0.2,0.1,0.6,0.2,1.3,0.2c1.2,0,2.2-0.2,3-0.7c0.8-0.5,1.5-1.4,2.1-2.7h0.5
			l-0.8,4H471.4z"/>
		<path class="st0" d="M490.9,504.3c0.6,0,1.1-0.2,1.3-0.4c0.2-0.2,0.3-0.7,0.3-1.4v-8.5c0-0.7-0.1-1.2-0.3-1.4
			c-0.2-0.2-0.6-0.3-1.3-0.4v-0.5h6.2c1.6,0,2.9,0.3,3.7,0.8c0.9,0.5,1.3,1.4,1.3,2.7c0,0.6-0.2,1.2-0.5,1.8s-0.9,1-1.7,1.3
			c-0.6,0.2-1.2,0.4-1.7,0.4s-1.4,0.1-2.6,0.1v3.6c0,0.7,0.1,1.2,0.4,1.4s0.7,0.3,1.3,0.4v0.5h-6.4V504.3z M497.9,497.9
			c0.6-0.4,0.9-1.2,0.9-2.5c0-0.9-0.1-1.6-0.4-2.1s-0.9-0.8-1.7-0.8c-0.4,0-0.7,0-0.8,0.1c-0.2,0.1-0.2,0.3-0.2,0.5v5.2
			C496.7,498.3,497.5,498.2,497.9,497.9z"/>
		<path class="st0" d="M503.5,504.8v-0.5c0.6,0,0.9-0.1,1.2-0.2c0.4-0.2,0.5-0.6,0.5-1.1v-9.3c0-0.6-0.2-0.9-0.6-1.1
			c-0.2-0.1-0.6-0.2-1.2-0.2v-0.5h11.1v3.9h-0.5c-0.2-1.2-0.7-2.1-1.2-2.5c-0.6-0.5-1.6-0.7-3.2-0.7c-0.6,0-1,0.1-1.1,0.2
			c-0.2,0.1-0.2,0.4-0.2,0.7v4.4c1.1,0,1.8-0.2,2.2-0.6s0.7-1.2,0.9-2.2h0.5v6.5h-0.5c-0.1-1.1-0.4-1.9-0.8-2.3
			c-0.4-0.4-1.2-0.7-2.3-0.7v4.6c0,0.4,0.1,0.7,0.3,0.8c0.2,0.1,0.6,0.2,1.3,0.2c1.2,0,2.2-0.2,3-0.7c0.8-0.5,1.5-1.4,2.1-2.7h0.5
			l-0.8,4H503.5z"/>
		<path class="st0" d="M529.2,493.4c1.3,1.3,2,2.9,2,4.9c0,2-0.7,3.7-2,4.9c-1.3,1.2-2.9,1.9-4.8,1.9c-2,0-3.7-0.7-5-2.1
			c-1.2-1.3-1.8-2.8-1.8-4.7c0-2,0.6-3.7,1.9-5c1.3-1.3,2.9-2,4.9-2C526.4,491.6,528,492.2,529.2,493.4z M527.4,502
			c0.3-0.9,0.4-2.1,0.4-3.6c0-2-0.3-3.6-0.9-4.6c-0.6-1-1.4-1.6-2.5-1.6c-1.5,0-2.4,0.9-3,2.6c-0.3,0.9-0.4,2.1-0.4,3.6
			c0,1.5,0.1,2.7,0.4,3.6c0.5,1.7,1.5,2.6,3,2.6C525.9,504.6,526.8,503.7,527.4,502z"/>
		<path class="st0" d="M533.2,504.3c0.6,0,1.1-0.2,1.3-0.4s0.3-0.7,0.3-1.4v-8.5c0-0.7-0.1-1.2-0.3-1.4c-0.2-0.2-0.6-0.3-1.3-0.4
			v-0.5h6.2c1.6,0,2.9,0.3,3.7,0.8c0.9,0.5,1.3,1.4,1.3,2.7c0,0.6-0.2,1.2-0.5,1.8c-0.3,0.6-0.9,1-1.7,1.3c-0.6,0.2-1.2,0.4-1.7,0.4
			c-0.6,0-1.4,0.1-2.6,0.1v3.6c0,0.7,0.1,1.2,0.4,1.4c0.2,0.2,0.7,0.3,1.3,0.4v0.5h-6.4V504.3z M540.2,497.9
			c0.6-0.4,0.9-1.2,0.9-2.5c0-0.9-0.1-1.6-0.4-2.1s-0.9-0.8-1.7-0.8c-0.4,0-0.7,0-0.8,0.1c-0.2,0.1-0.2,0.3-0.2,0.5v5.2
			C539,498.3,539.8,498.2,540.2,497.9z"/>
		<path class="st0" d="M545.9,504.3c0.5,0,0.9-0.1,1.1-0.2c0.4-0.2,0.6-0.6,0.6-1.1v-9.3c0-0.6-0.2-0.9-0.5-1.1
			c-0.2-0.1-0.6-0.2-1.2-0.2v-0.5h6.7v0.5c-0.8,0-1.3,0.1-1.6,0.3c-0.3,0.2-0.4,0.7-0.4,1.4v9.1c0,0.4,0.1,0.7,0.3,0.8
			c0.2,0.1,0.7,0.2,1.3,0.2c1.2,0,2.1-0.3,2.9-0.8c0.8-0.5,1.5-1.5,2-3h0.6l-0.8,4.3h-11.1V504.3z"/>
		<path class="st0" d="M559.6,504.8v-0.5c0.6,0,0.9-0.1,1.2-0.2c0.4-0.2,0.5-0.6,0.5-1.1v-9.3c0-0.6-0.2-0.9-0.6-1.1
			c-0.2-0.1-0.6-0.2-1.2-0.2v-0.5h11.1v3.9h-0.5c-0.2-1.2-0.7-2.1-1.2-2.5c-0.6-0.5-1.6-0.7-3.2-0.7c-0.6,0-1,0.1-1.1,0.2
			c-0.2,0.1-0.2,0.4-0.2,0.7v4.4c1.1,0,1.8-0.2,2.2-0.6c0.4-0.4,0.7-1.2,0.9-2.2h0.5v6.5h-0.5c-0.1-1.1-0.4-1.9-0.8-2.3
			c-0.4-0.4-1.2-0.7-2.3-0.7v4.6c0,0.4,0.1,0.7,0.3,0.8c0.2,0.1,0.6,0.2,1.3,0.2c1.2,0,2.2-0.2,3-0.7c0.8-0.5,1.5-1.4,2.1-2.7h0.5
			l-0.8,4H559.6z"/>
		<path class="st0" d="M574.7,497.6c0.6-0.4,1-0.7,1.3-1c0.5-0.5,0.8-1,0.8-1.5c0-0.1,0-0.2-0.1-0.3c-0.1-0.1-0.2-0.1-0.3-0.1
			c-0.2,0-0.3,0-0.4,0c-0.4,0-0.8-0.1-1-0.4c-0.3-0.3-0.4-0.6-0.4-1.1c0-0.5,0.1-0.9,0.4-1.2c0.3-0.3,0.7-0.4,1.2-0.4
			c0.5,0,1,0.2,1.4,0.6s0.6,0.9,0.6,1.6c0,1-0.4,1.9-1.1,2.7c-0.5,0.5-1.2,1-2,1.5L574.7,497.6z"/>
		<path class="st0" d="M581.1,500.3h0.6c0.3,1.4,0.8,2.5,1.5,3.1c0.7,0.7,1.5,1,2.3,1c0.9,0,1.5-0.2,1.8-0.7
			c0.4-0.4,0.5-0.9,0.5-1.4c0-0.6-0.2-1-0.6-1.4c-0.2-0.2-0.8-0.5-1.5-0.9l-1.2-0.6c-1.2-0.6-2.1-1.2-2.6-1.8
			c-0.5-0.6-0.7-1.3-0.7-2.2c0-0.9,0.3-1.8,1-2.6c0.7-0.8,1.7-1.2,3-1.2c0.7,0,1.4,0.1,2,0.3c0.6,0.2,1,0.3,1.1,0.3
			c0.2,0,0.4-0.1,0.4-0.2c0.1-0.1,0.1-0.3,0.2-0.5h0.6v4.2H589c-0.3-1-0.7-1.8-1.3-2.5c-0.6-0.7-1.4-1-2.3-1c-0.6,0-1.1,0.2-1.5,0.5
			c-0.4,0.4-0.6,0.8-0.6,1.3c0,0.6,0.2,1.1,0.5,1.4c0.3,0.3,1.1,0.8,2.3,1.4l1.4,0.7c0.6,0.3,1.1,0.7,1.5,1.1
			c0.7,0.7,1.1,1.6,1.1,2.6c0,1-0.4,1.9-1.1,2.7c-0.8,0.9-2,1.3-3.6,1.3c-0.4,0-0.8,0-1.2-0.1c-0.4-0.1-0.8-0.2-1.2-0.3l-0.4-0.1
			c-0.1,0-0.2,0-0.3-0.1c-0.1,0-0.1,0-0.2,0c-0.2,0-0.3,0.1-0.4,0.2c-0.1,0.1-0.1,0.3-0.2,0.5h-0.6V500.3z"/>
		<path class="st0" d="M598.1,504.3c0.6,0,1.1-0.2,1.3-0.4c0.2-0.2,0.4-0.7,0.4-1.4v-8.5c0-0.7-0.1-1.2-0.4-1.4
			c-0.2-0.1-0.6-0.3-1.3-0.3v-0.5h6.2c1.3,0,2.3,0.1,3.1,0.4c1.5,0.5,2.3,1.5,2.3,2.9c0,1-0.4,1.9-1.2,2.5c-0.6,0.4-1.3,0.7-2,0.9
			l4.1,5.5c0.1,0.1,0.2,0.2,0.3,0.3c0.1,0,0.3,0.1,0.4,0.1v0.5h-4l-4.5-6h0v3.8c0,0.7,0.1,1.1,0.3,1.4c0.2,0.2,0.7,0.4,1.3,0.4v0.5
			h-6.5V504.3z M605.6,497.7c0.5-0.3,0.8-1.1,0.8-2.3c0-0.7-0.1-1.3-0.3-1.8c-0.4-0.7-1-1.1-1.9-1.1c-0.5,0-0.8,0.1-1,0.2
			c-0.2,0.1-0.2,0.3-0.2,0.6v4.9C604.1,498.2,605,498,605.6,497.7z"/>
		<path class="st0" d="M612.9,504.8v-0.5c0.6,0,0.9-0.1,1.2-0.2c0.4-0.2,0.5-0.6,0.5-1.1v-9.3c0-0.6-0.2-0.9-0.6-1.1
			c-0.2-0.1-0.6-0.2-1.2-0.2v-0.5h11.1v3.9h-0.5c-0.2-1.2-0.7-2.1-1.2-2.5c-0.6-0.5-1.6-0.7-3.2-0.7c-0.6,0-1,0.1-1.1,0.2
			c-0.2,0.1-0.2,0.4-0.2,0.7v4.4c1.1,0,1.8-0.2,2.2-0.6c0.4-0.4,0.7-1.2,0.9-2.2h0.5v6.5h-0.5c-0.1-1.1-0.4-1.9-0.8-2.3
			c-0.4-0.4-1.2-0.7-2.3-0.7v4.6c0,0.4,0.1,0.7,0.3,0.8c0.2,0.1,0.6,0.2,1.3,0.2c1.2,0,2.2-0.2,3-0.7c0.8-0.5,1.5-1.4,2.1-2.7h0.5
			l-0.8,4H612.9z"/>
		<path class="st0" d="M633.1,491.9v0.5c-0.7,0-1.1,0.1-1.3,0.2c-0.2,0.1-0.3,0.3-0.3,0.6c0,0.1,0,0.2,0,0.3c0,0.1,0,0.2,0.1,0.3
			l3,7.1h0l2.5-6.5c0.1-0.1,0.1-0.3,0.1-0.4c0.1-0.2,0.1-0.4,0.1-0.6c0-0.4-0.1-0.6-0.3-0.7s-0.7-0.2-1.3-0.2v-0.5h4.1v0.5
			c-0.5,0-0.8,0.2-1.1,0.4c-0.2,0.2-0.5,0.6-0.7,1.2l-4.4,11.3h-0.5l-4.9-11.5c-0.2-0.5-0.4-0.8-0.6-1s-0.5-0.3-1-0.4v-0.5H633.1z"
			/>
		<path class="st0" d="M653,493.4c1.3,1.3,2,2.9,2,4.9c0,2-0.7,3.7-2,4.9c-1.3,1.2-2.9,1.9-4.8,1.9c-2,0-3.7-0.7-5-2.1
			c-1.2-1.3-1.8-2.8-1.8-4.7c0-2,0.6-3.7,1.9-5c1.3-1.3,2.9-2,4.9-2C650.1,491.6,651.7,492.2,653,493.4z M651.2,502
			c0.3-0.9,0.4-2.1,0.4-3.6c0-2-0.3-3.6-0.9-4.6c-0.6-1-1.4-1.6-2.5-1.6c-1.5,0-2.4,0.9-3,2.6c-0.3,0.9-0.4,2.1-0.4,3.6
			c0,1.5,0.1,2.7,0.4,3.6c0.5,1.7,1.5,2.6,3,2.6C649.6,504.6,650.6,503.7,651.2,502z"/>
		<path class="st0" d="M657,504.3c0.5,0,0.9-0.1,1.1-0.2c0.4-0.2,0.6-0.6,0.6-1.1v-9.3c0-0.6-0.2-0.9-0.5-1.1
			c-0.2-0.1-0.6-0.2-1.2-0.2v-0.5h6.7v0.5c-0.8,0-1.3,0.1-1.6,0.3c-0.3,0.2-0.4,0.7-0.4,1.4v9.1c0,0.4,0.1,0.7,0.3,0.8
			c0.2,0.1,0.7,0.2,1.3,0.2c1.2,0,2.1-0.3,2.9-0.8c0.8-0.5,1.5-1.5,2-3h0.6l-0.8,4.3H657V504.3z"/>
		<path class="st0" d="M677.2,491.9v0.5c-0.7,0-1.2,0.1-1.5,0.3c-0.3,0.2-0.4,0.7-0.4,1.4v6.4c0,1,0.1,1.7,0.3,2.3
			c0.4,1,1.2,1.5,2.4,1.5c1.5,0,2.5-0.5,3-1.6c0.3-0.6,0.4-1.4,0.4-2.5v-5.9c0-0.7-0.1-1.2-0.4-1.4s-0.7-0.4-1.5-0.5v-0.5h4.2v0.5
			c-0.6,0.1-1,0.3-1.2,0.4c-0.2,0.2-0.3,0.6-0.3,1.2v6.1c0,1.6-0.4,2.9-1.2,3.8c-0.8,0.9-2,1.3-3.7,1.3c-2.2,0-3.7-0.7-4.5-2
			c-0.4-0.7-0.6-1.6-0.6-2.7v-6.4c0-0.7-0.1-1.2-0.3-1.4c-0.2-0.2-0.6-0.3-1.3-0.4v-0.5H677.2z"/>
		<path class="st0" d="M685.7,491.9h11.5l0,3.9h-0.6c-0.2-1.4-0.7-2.3-1.6-2.8c-0.5-0.3-1.2-0.4-2.2-0.4v10.1c0,0.7,0.1,1.2,0.4,1.4
			c0.2,0.2,0.8,0.3,1.5,0.3v0.5h-6.8v-0.5c0.7,0,1.2-0.1,1.5-0.4c0.2-0.2,0.4-0.7,0.4-1.4v-10.1c-0.9,0-1.7,0.2-2.2,0.4
			c-0.9,0.5-1.4,1.4-1.6,2.8h-0.6L685.7,491.9z"/>
		<path class="st0" d="M699.3,504.3c0.5,0,0.9-0.1,1.2-0.2c0.4-0.2,0.6-0.6,0.6-1.2v-9.3c0-0.6-0.2-0.9-0.6-1.1
			c-0.2-0.1-0.6-0.2-1.2-0.2v-0.5h6.7v0.5c-0.6,0-1,0.1-1.2,0.2c-0.4,0.2-0.6,0.6-0.6,1.1v9.3c0,0.5,0.1,0.9,0.4,1.1
			c0.3,0.2,0.7,0.3,1.3,0.3v0.5h-6.7V504.3z"/>
		<path class="st0" d="M719.6,493.4c1.3,1.3,2,2.9,2,4.9c0,2-0.7,3.7-2,4.9c-1.3,1.2-2.9,1.9-4.8,1.9c-2,0-3.7-0.7-5-2.1
			c-1.2-1.3-1.8-2.8-1.8-4.7c0-2,0.6-3.7,1.9-5c1.3-1.3,2.9-2,4.9-2C716.8,491.6,718.4,492.2,719.6,493.4z M717.8,502
			c0.3-0.9,0.4-2.1,0.4-3.6c0-2-0.3-3.6-0.9-4.6c-0.6-1-1.4-1.6-2.5-1.6c-1.5,0-2.4,0.9-3,2.6c-0.3,0.9-0.4,2.1-0.4,3.6
			c0,1.5,0.1,2.7,0.4,3.6c0.5,1.7,1.5,2.6,3,2.6C716.3,504.6,717.2,503.7,717.8,502z"/>
		<path class="st0" d="M723.6,504.3c0.7,0,1.2-0.2,1.4-0.4c0.2-0.3,0.3-0.6,0.3-1.1v-9.1c-0.6-0.7-0.9-1-1.1-1.2
			c-0.1-0.1-0.3-0.2-0.6-0.2v-0.5h4.1l6.6,8h0.1v-5.6c0-0.6-0.1-1.1-0.4-1.4c-0.2-0.3-0.7-0.4-1.4-0.5v-0.5h4.1v0.5
			c-0.6,0.1-1,0.2-1.2,0.4c-0.2,0.2-0.3,0.5-0.3,1.1v11.3h-0.5l-8.4-10.3h-0.1v7.5c0,0.6,0.1,1,0.2,1.3c0.3,0.4,0.8,0.6,1.6,0.6v0.5
			h-4.3V504.3z"/>
	</g>
	<path class="st0" d="M91.1,523l-2.3,0.7l-10.7,7.1l-0.1-1.3l0.6-2.3l0.1-3.6l1.6-4.3l-0.1-2c0,0,1-2.8-2.1-3.8
		c-3.1-1-4.5,1.8-4.5,1.8l-1.3,4.5l-0.7,7.2l-0.9,4.1l-0.4,4.1l-1.6,2.1l-6,4.4l-1.4,1.3l-1,1.3l-0.7,0.2l-0.2-0.6l0.3-2l-2-2.2
		l-1.1-0.9l-1.1-0.5l-1.3,1l-1.1,2.6l-0.4,2.8l-0.3,6.5v4.8l1.6,2.6l1.6,1l2-0.6l1.8-1l0.4-5.3v-4.3c0,0,0.7-2,2.6-2.3
		c1.8-0.3,1.8-0.3,1.8-0.3l1.3-0.9l2-0.6l1-1.1c0,0,1.3-0.3,0.9,1.7c-0.4,2-0.6,5-0.6,5v1.8l-2.4,1.7l-1.6,0.9l0.4,1.7l0.9,1.4h1.4
		l0.9,0.1c0,0,0.9,1.1,0.1,7.4c-0.7,6.2-2.6,32.8-2.6,32.8l0.3,13.6v2.7l-0.3,2c0,0-1.1,0.7-1,1.1c0.1,0.4,0.9,1.8,0.9,1.8l1.3,0.1
		h1.8l2.3-1l1.3-0.4l-1.1-5.5l-0.1-6.2l2.1-33.9l0.6-5.1l1.4-10.2c0,0,0-2.8,3.4-4.7c3.4-1.8,5.3-4.5,5.3-4.5l-0.4-1.8l-1.8-0.6
		l-1.6-1.1l0.3,1.5l1,0.9l-0.3,1.4l-4.4,2.3l-0.4-1.3l0.9-2.1l3-4.1l4.1-5.1l2.6-2l4.7-5l2.1-2.4v-5L91.1,523z M83.7,533
		c-0.6,1.1-1.4,1.6-1.4,1.6l-0.4,0.7l-1.2,1.4l-0.3,0.8l0.3,0.5l-0.1,0.8l-0.8-0.2c0,0-0.4-0.5-0.6-0.3c-0.1,0.2-0.4,0.7-0.4,0.7
		l-0.1,0.4c0,0,0,0.3,0.1,0.6c0.1,0.3-0.4,0.9-0.4,0.9c-0.4,0.4-0.4,1.2-0.4,1.2l-0.7,0.7l-0.9,0.1l0.2-1.4c0,0,0.4-0.9,0.5-1.1
		c0.1-0.2,0.4-1.7,0.4-1.7v-1.1l0.1-0.9L77,536l1-1l1.8-0.7l2.3-1.4l0.7-0.9C82.9,532,84.3,531.9,83.7,533z"/>
	<g>
		<path class="st0" d="M161.1,522.1l1-3.9c-0.5-3-4.1-3.2-4.1-3.2l-2.3,1.5l-1.9,1.4l-12.2,11.4l-4.9,5.1l-0.9-0.2l0.5-1l0.5-1
			l-0.5-1.1l-0.8-1l-1.2-1.2l-0.8,0.1l-0.6,1.7l-0.2,1.4l0.8,2v2.3v1.8c0,0-3.6,4.4-6.1,7.7c-2.5,3.3-3.1,8.9-3.1,8.9v4.1l0.8,3
			l0.3,5.4l-0.6,14.7c0,0-0.3,6-0.2,9.5c0.1,3.5-1,1.5-1,1.5l-1.9-2.8l-0.8-3.3l0.2-1.5l-0.6-3.5l-0.5-4.4l0.1-3.8l-0.5-3l-0.6-2.4
			l0.9-9.8l0.2-4.1l0.9-3.3l0.8-4.4l0.9-3.2l1-3l1.8-6l1.7-2.3l1-1.4l0.8-1.2l-0.5-1l-0.8-0.9l-0.9-1l-1.8-0.5h-1.4l-0.2,1.4
			l-0.8,1.2l0.1,0.7l-0.3,0.6l-0.5,2.2l-0.3,1.1l-1.2,4.3l-4.2,14l-1.6,13.1l0.1,16.8c0,0,2.8,14.8,6.9,15.2
			c4.2,0.3,3.7-1.5,3.7-1.5v-0.7v-2v-13.7l0.2-2.3l0.3-2.2l0.5-2.6l0.6-2.3l0.5-2.1c0,0,0.1-1.4,0.1-1.5c0-0.2,0.3-1.5,0.3-1.5
			l0.7-2.3c0,0-0.3-2.7-0.3-2.9s0.1-0.9,0.1-1.1s0.4-0.5,0.4-0.5l0.7-0.1l0.6-0.4l1.1-0.2l0.6,0.1l0.2,0.6l-0.5,0.8l-0.3,1l-0.5,0.8
			l-0.2,0.6l-0.4,0.9l-0.1,0.5c0,0-0.4,1-0.5,1.2s-0.1,0.7-0.1,0.7l-0.3,1l-0.5,0.9l0.2,0.8l0.8,1.2l0.6,0.3l1.4,0.2l0.7-0.1
			l-0.1,0.9l-0.7,2l-0.4,0.8l-0.1,0.9l-0.1,1l-0.2,1.2l-0.7,1.5l-0.6,1.4l-0.6,1.7l-0.2,1.1l-0.5,0.8l0.3,1.2l0.8,0.9l0.7,0.7
			l0.5,0.2l0.7-0.2c0,0,0.4-0.4,0.6-0.6s0.7,0.2,0.7,0.2l-0.1,0.6l-0.3,1.1l-0.1,1.1l-0.5,1.3c0,0-0.2,0.7-0.3,0.8s0.2,1,0.1,1.2
			s0.1,1.6,0.1,1.6l0.6,0.6c0,0,0.8,0.6,0.9,0.7c0.1,0.2,1.7,0.1,1.7,0.1s1.4-0.1,1.8-0.2c0.5-0.1,1.5-0.6,1.5-0.6l0.6-0.3
			c0,0,1-0.4,1.2-0.5c0.2-0.1,1.3-1.2,1.3-1.2l0.6-0.2l0.7-1.4l0.7-0.5l0.9-0.8l0.5-0.7c0,0,0.2-1,0.2-1.2s-0.1-1.1-0.1-1.1
			l-0.3-0.6l-0.6-0.6l-1.4-0.4l-1.3-0.3l-1.6,0.1l-1.6,1.5l-1.1,1l-1.5,1.4l-0.7,0.5l-0.7-0.8l-0.3-1.2l0.2-1.9l0.3-1.4l1.5-1.9
			l0.6-1.9l0.9-1.7l0.8-1.5l0.6-2.1l0.3-2.9l0.8-0.8l0.3,0.8l-0.9,1.6l0.5,2.4l2.9,8l1.4,0.9l0.7-0.8l1.7-1.2l0.2-1l-0.8-0.9
			l-1.2-2.1l-0.7-2.5l-1.4-4.1l-1-3.4l-0.5-2.5l0.3-1.1l3.2-7.2l2-3.7l2.1-3.3l1.1-1.7l1.2-1.6l0.2-1.6c0,0,0.6-0.7,0.9-0.8
			c0.3-0.1,0.5,0.7,0.5,0.7l0.5,0.9l-0.5,1l-0.5,3l-3.4,36l-1,13l-0.3,3.9l-1.2,0.8v0.9l0.8,1.6l1,0.7h1.2h1.2l1.1-0.5l0.8-0.3
			l0.2-1.5l2.3-33.7l1.2-19.7c0,0,0.1-7.4,1.2-9c3-4.2,1.8-4.4,1.8-4.4l-1.5-1.2l0.5-0.9L161.1,522.1z M134.7,545.3l-0.5,0.3
			l-0.6,0.7c0,0-0.7,0.6-1.5,1.2s-0.9-0.1-0.9-0.1l0.3-0.7l0.5-0.6l0.8-0.8l0.4-0.6l0.7-0.6l0.4-1.2l0.5,0.6l0.2,1L134.7,545.3z
			 M145.7,547.5l-0.4,2.6l-1,3.1l-1,3.2l-1.8,2.9l-0.9,1.5l-1-2.3V556l0.4-1.6l1.5-1.9l0.9-2.5l1.2-3.1l1.3-1.9l1.2,0.4L145.7,547.5
			z M157,523l-0.2,2c0,0-1.1,3.4-1,5.2c0.6,1.9-0.8,1.4-0.8,1.4l-0.6-0.7l-0.7-1l-0.5-0.5l-1.8-0.5l-1.5,0.2l-1.5,0.6l-0.8,0.5
			l-0.1,0.8l-0.5,0.9l0.6,1.6l0.5,1.5l-0.9,0.9l-0.3,0.8c0,0-0.1,0.5,0.1,2.3c0.2,1.8-0.6,1.5-0.6,1.5l-0.7-0.5l-0.8-0.8l-0.7,0.3
			l-0.9,0.2l-0.9-0.6l-1.1,0.3l-1.5,0.8l-0.9,0.8l-0.8,0.6l-0.6,0.2l-0.6,0.6c0,0,0,0-0.2-0.1c-0.2-0.1-0.3-0.3-0.3-0.3l0.2-0.5
			l0.3-0.6v-0.7l0.6-0.5l0.8-0.8l0.6-0.7l1.6-1.6l3.9-4.8l9.1-8.1l0.9-0.8l1.3-1l0.7-0.7C158.3,520.4,157,523,157,523z"/>
		<polygon class="st0" points="144.5,572.2 145.2,573.1 147.1,571.4 148.3,570 149.5,567.9 149.5,565.9 148.8,563 147.4,564.6 
			145.5,564.5 146.3,566.8 146.7,567.9 145.2,569.7 		"/>
	</g>
	<path class="st0" d="M211.3,527.3c0,0,1.8-2.9,4-1.2s0.4,4.9,0.4,4.9l-1,2.6l-2.6,2.6l-10.8,16l-5.7,9l0.9,0.5l1-0.7l3.4,2.1l3.5,3
		l3.3,4.4l3.8,4.1l2.7,3.4l6.3,7.2l3,3.2l2,1.1l0.8,0.4l-0.1,0.3h-0.7l-0.4,0.3l-0.1,0.5l0.2,0.5l0.4,0.1h0.8l0.9,0.2
		c0,0,0.5,0.4,0.7,0.5c0.2,0,0.9,0.2,0.9,0.2l0.2,0.3v0.5c0,0-0.4,0.1-0.5,0.1c-0.1,0-0.4,0-0.4,0s-0.3-0.2-0.5-0.2
		c-0.2,0-1.2-0.2-1.2-0.2l-0.6-0.1l-0.4,0.3v0.4c0,0,0,0.2,0.1,0.2c0.1,0,0.5,0.1,0.7,0.1c0.1,0,0.5-0.1,0.6,0
		c0.1,0.1,0.5,0.2,0.5,0.2l0.2,0.5c0,0-0.2,0.4-0.3,0.5c-0.1,0-0.5,0.1-0.8,0.1c-0.3,0-1.2-0.1-1.3-0.1c-0.2,0-1-0.3-1-0.3l-1.8-0.3
		c0,0-2-0.7-2.3-0.8s-1.6-1.1-1.6-1.1s-5-4.5-6.4-7.3l-3-4l-5.8-7.8l-3.2-4.2l-1.8-2.2l-1.5-1.5l-1-0.9l-0.5-0.6v-0.5l-0.4-0.5
		l-0.5,0l-0.2,0.3l0.1,0.6l-0.4,0.9l-4.3,7.1l-2.7,4.8l-2.5,3.8l-1.2,1.1l-1.3,1.2l-1.2,0.4l-0.5,0.2l-1.1,0l-0.3-0.4l0.1-0.6v-0.7
		l0-0.6l2-3.7l1.6-3.4l4.7-9.4l4.1-7.3l6.8-11.2l6.9-10.7l2.8-4.3l1.9-2.2l0.9-0.8L211.3,527.3z"/>
	<g>
		<path class="st0" d="M254.1,580.4l-0.5,0.3l-0.3,0.6l-0.4,0.2c0,0-0.6,2.6-4.5,8.4c-3.9,5.8-3.2-1.8-3.2-1.8l0.2-4.1l0.5-9.4
			l0.5-5.6l0.8-10.5l0.5-2.3l0.5-2.2c0,0,0.6-1.5,2.6-4.6c1.9-3.1,3.4-1,3.4-1l0.6,1.5l0.5-1l1.1,0.5c0,0,1.6-0.5,4.4-1.9
			c2.8-1.5,1-4.2,1-4.2l-1.5-0.3l-1.6,0.3V542l1.1-1.6l1-1.5l1.8-1.9l0.2-1.6l1-2.8l2.4-2.1l2.9-2.2l0.2-1.9l-0.3-2.3
			c0,0-3.4-1.4-4.1-1.4s-1.1,0.5-1.1,0.5l-2.3,1.6l-4.5,2.8l-6.7,5c0,0-2.1,1.6-2.6,1.9s-2.4,1.1-2.4,1.1l-1.8,1.5l-3.9,2.3l-1,1.2
			l-0.2,0.7l-0.2,0.9l-0.1,0.8l0.5,0.7l0.4,1.2l0.3,0.6l0.9,0.6l1.3,0.4h1.4l1.6-0.3l0.6-0.5l0.8-0.6l0.5-1.2l0.5-0.5l0.4,0.1
			l1.1-0.1l0.3-0.3l0.7-0.1l1.6-1.4l4.3-4.5l0.4-0.5l0.1-0.6l0.5-0.3c0,0,1.1-1.7,2.2-2.5c1.1-0.8,1,0.7,1,0.7l-0.4,0.3
			c0,0,0,0-0.1,0.3c-0.1,0.3-0.8,0.8-0.8,0.8l-0.5,0.8l-0.3,1.2l-1.6,3.6l-0.6,1.8l-1.2,1.7c0,0-1.9,0.3-5.8,3.9
			c-4,4.1-5.3,14.4-5.3,14.4l-1.2,11.7l0.3,17.7l0.1,3.4l-0.6,0.9l0.4,0.6l0.7,0.6l1.4,0.2l0.3,0.5l1.4,0.5l1.6-0.9l1.8-2.1l1.2-1.8
			l0.5-1.4l0.1-0.8l0.8-1l0.3-0.5l0-0.8l0.4-0.5l0.4-0.6l0-0.7l0.1-1.2l0.3-0.8l0.2-1.2l0.1-0.9l0.1-0.6l0.6-0.9c0,0,0.1-0.5,0.4-1
			C254.7,580.6,254.1,580.4,254.1,580.4z"/>
		<path class="st0" d="M278.7,594.3l-2.2-2.6h-2.2l0.6,2.8l0.9,2.6l-0.3,0.4c-8.9-6.5-14.3-25.8-14.3-25.8v-2.2l0.9-2.2l1.9-2.6
			l4.3-4.5l1.5-1.7v-2.4l-1.3-2.1h-2.2h-3l-2.8-1.2l-5.4-1.7l-1.5,1.9l-0.3,2.8l0.7,4.1v4.1l-2.2,1.9l-5.2,5l-0.4,1.7l-0.7,1.8
			l0.6,2.5l1.1,0.8l1.6,0.3l1.1-0.2l1.5-0.4l0.6-0.5l1,0.4l1.5-0.5l1.5-1.1l0.9-1.5l0.9,2.4l6.7,14.5c8.2,15.2,14.7,8.7,14.7,8.7
			l0.1-2.2L278.7,594.3z M259.8,559.8l-0.9,0.9l-0.7-0.4l-0.4-1.3l-0.1-1.7v-0.9l0.2-1h0.8h0.9l1,0.1l0.8,0.6l1,0.8l-0.3,0.9
			c0,0-1,0.6-1.2,0.7C260.6,558.7,259.8,559.8,259.8,559.8z"/>
	</g>
	<path class="st0" d="M339.9,521.6l-0.7-0.8l0.3-1v-1.5l-0.2-1.2l-1-1.9l-1.6-0.6l-1.3,0.8l-0.9,1.4l-1.2,1.4l-1.7,3l-1.2,1.4
		l-2,2.3l-1.4,1.9l-1.6,2.4l-1.5,1.6l-1.9,0.1l-1.6,0.9l-0.9-0.1l-0.2-1l0.5-1l-0.2-2.7v-2.7l-0.3-2.1l-0.8-0.8v-1.2l-1-1l-1.7-0.2
		l-2,0.5l-0.8,0.7l1.2,2.4v3.8l0.9,5.7v1.4l-0.9,0.8l-3.9,2.1l-3.9,1.6l-1.3,1.5h-1.4c-0.5,0.2,0.2,0.9,0.2,0.9l0.8,0.8l1,1l0.7,0.4
		l1.4,0l0.8-0.1l0.8-0.3l0.8-0.4l0.8-0.1l1.1-0.4l0.8-0.4l1.3-0.7l0.6-0.6c1.5-0.4,1,1.2,1,1.2l-0.2,0.7c0,0,0,0.5,0,0.7
		s0.2,1.2,0.2,1.3s-0.1,0.8-0.1,0.8l0.2,7.1l-0.4,0.7l-0.6,0.5l-0.6,0.2l-0.2-0.3l-0.5-0.3l-0.2-0.7l0.1-0.4l-0.4-0.6l-0.3-0.6v-1
		l-0.1-0.6l-0.7-0.7l-0.3-0.6l-0.4-0.2l-0.2-0.5c0,0-0.7-0.3-0.8-0.3s-0.5,0.3-0.5,0.3s-0.3,0.7-0.2,1c0.1,0.3,0.4,0.4,0.4,0.4
		l0.6,0.7l-0.3,0.4l-0.3,1.5l0.2,0.8l0.1,0.7l-0.3,0.5l0.1,0.8v1.2l-0.2,0.7l-0.5,0.6l0.1,0.7l0.9,1.8l2.3,2l0.5,0l0.4-0.5l0.3-0.2
		l0.3-0.4h0.4l0.3-0.2l0.2-0.6c0,0-0.6-1.4,0.7-1.5c1.2-0.2,0.7,1.1,0.7,1.1l-0.3,0.4l0.1,0.8l0.3,0.8v1.5l-0.5-0.3l-0.6-0.4
		l-0.4,0.4l0,0.8l0,0.9l-0.2,0.6l0.3,0.7c1.3,0,1.5,0.8,1.5,0.8l-0.1,1.3l0.1,5l-5.3,3.6l-5.6,3.2L301,580l-2.5,0.9l-1.2-0.5
		l-0.7-0.2l-2-0.2c0,0-2.4-0.2-0.3,3.1c2,3.3,4.6,2.2,4.6,2.2l1-0.3l0.7-0.3l1.6-0.1l2.6-1.1c0,0,9-4.8,10.2-5.9
		c1.3-1.2,1.4,0.3,1.4,0.3l-0.1,16.9l-0.3,11.6l0.7,0.7l0.3,0.7l-0.5,0.3l-0.3,0.6l0.1,0.4l0.5-0.2c0,0,0.6-0.1,0.7-0.1
		c0.1,0,0.5,0,0.6,0s0.3,0.2,0.3,0.2l0,0.6c0,0-0.7,0.3-0.8,0.3c-0.2,0-0.3,1.1-0.3,1.1l-0.2,0.8l-0.5,0.4l-0.5,0l0.3,2l0.6,1.7
		l0.2,2.2l0.1,0.7l-0.2,3.3l-0.3,0.6c0,0-0.3,0.5-0.4,0.7s0.2,0.5,0.2,0.5s0.6,1,0.7,1.1s-0.5,0.6-0.5,0.6l-0.3-0.4l-0.5-0.6
		l-0.3-0.3l-0.5,0.4l0.7,1.5l-0.3,0.3l-0.5,0.3l0,0.7l0.5,0.7v0.5l-0.3,0.5c0.9,2.1,2.7,0.2,2.7,0.2l1.6-1.2l0.3-0.5l0.3-0.5
		l0.6-0.1l0.4-0.3l0.2-0.6l-0.1-0.8v-1.6v-2l0-2.1l0.1-1.7l0.3-2.4l0-1.9l-0.3-0.6v-0.6l0.2-1.2l-0.1-2.9l-0.1-2.4v-1.2l0.4-1.3
		l-0.2-1.6l-0.2-1l0.2-1.1l-0.2-7l0.3-4l0.3-7.1c0,0,0.2-3.4,0.2-5.6c-0.3-2,1.1-2.4,1.1-2.4l4.6-2.5l0.8-0.4l2.9-1.7l1.2-0.7h0.9
		l4.6-3.2l1.5-1.8l0.3-1l-0.1-0.8l-0.7-1.1l-0.8-0.3h-0.5l-0.7-0.6l-2.5-0.8l-1.6-0.7l-0.5,0.3l-0.8,1.1v1c2.1,1.5,0.5,2.3,0.5,2.3
		l-0.9,0.5l-0.8,0.8l-0.7,0.4l-0.5-0.4l-0.8-0.1l-0.8,1l-1.4,1l-0.8,0.4l-1.3,0.4l-0.8,0.5l-0.6,0.7l-0.7-0.2l-0.4-0.4l0.1-0.8
		l0.2-1.9l0.4-0.7v-1.5l0-1.4l-0.2-0.7l0.7,0l0.6,1l0.6-0.2l1.1-0.8l0.8-0.6l0.2-0.8l-0.4-0.3l-0.5-0.7l0-0.5l0.2-0.4l0.3-0.4
		l0.4-0.5l1-0.7l0.7-0.3l0.3-0.5l0.3-0.6l1.2-1.4l1-1.5l0.9-1.4l1.3-1.3l0.7-0.2l1-1.2l0.9-1.5l0.8-1.4l1.2-1.3l1-0.7l0.3-0.7
		l-0.4-0.1l-0.4-0.9l0.4-0.4l0.2-0.7c0,0-0.7-0.1-0.8-0.1s-0.6-0.8-0.7-0.8s-1.1-0.4-1.1-0.4s-0.7,0.5-0.8,0.5
		c-0.2,0-0.6,0.1-0.9,0.1c-0.3,0-0.3,0.2-0.3,0.2l-0.6,1l-0.7,0.8l-1.7,0.7l-0.8,0.3l-1.1,1.3l-1.2-0.1l-0.2,0.7l-0.7,0.4L326,544
		l-1,0.9l-0.5,0.3l-0.5,0.1l-0.5,0.4l-0.4,0.8l-0.4-0.1v-0.7l0.1-1.1l0.5-0.7l0.5-0.3l0.3-0.3l0-0.3l0.2-0.7l0.4-1.2l0.1-0.6
		l0.5-0.5l1.4-1.6l3.1-4.7l1-1l1.2-1.3l1-0.3l1.5-0.1l1.6-0.2l0.8-0.8l1-0.9l1-1l1.4-1.6l0.3-0.9V524v-1L339.9,521.6z M322.7,550.8
		l3-2l2.8-1.4l3.4-2l1-0.6l0.3,0.3v0.3l-1.2,1.3l-1.4,0.9l-1.1,1.2l-0.4,0.8c0,0-0.9,0.5-1.1,0.7c-0.2,0.2-0.5,0.6-0.5,0.6l-0.5,0.8
		c0,0-0.8,0.5-0.9,0.6s-0.8,1-1,1.2c-0.2,0.2-0.7,0.6-0.7,0.6l-0.4,0.8l-0.6,0.6c0,0-0.2,0.2-0.3,0.3c-0.1,0.1-0.2,0.3-0.6,0.2
		c-0.4-0.2-0.4-0.2-0.4-0.2s0-0.5,0.2-0.7s0.5-0.7,0.5-0.8s-0.1-0.6-0.1-0.8s0-1.2,0-1.2l-0.2-1.4L322.7,550.8z M324.7,532l-0.4,0.5
		l-0.5,0.5l-0.6,0.3l0.1,0.7l0.6,0.7l-0.1,0.6l-0.3,0.5l-0.4,0.3c0,0-0.5,0.2-0.5,0s-0.2-0.8-0.2-0.8s-0.2-0.1-0.3,0
		c-0.1,0.1-0.3,0.2-0.5,0.2c-0.2,0-0.3,0.1-0.5,0c-0.2,0-0.7-0.1-0.7-0.2s0-0.5,0-0.5l0.2-0.6h0.3l0.8-0.4l0.7-0.7l0.6-0.5l0.2-0.5
		l0.6-0.6l0.4-0.4l0.7,0.6L324.7,532z M328.8,527.2l-0.7,0.5c0,0-0.4,0.4-0.4,0.5s0,0.4,0,0.4l-0.3,0.5l-0.5,0.1l-0.6-0.4l0.2-0.5
		l0.5-0.8c0,0,0.3-0.3,0.4-0.4s0.5-0.6,0.5-0.6l0.6-0.6l0.5,0.4L328.8,527.2z"/>
	<g>
		<path class="st0" d="M370.3,553.4l4.4-8.1l4.4-9.6l2.4-5.1l0.9-2.3l0.5-2.5l0.2-1.9v-1.6v-1.6c0,0,0,0-0.7-2.2s-4.2-0.2-4.2-0.2
			l0.3,1.9l-1.4,4.4l-5.8,13.7l-6.2,12.6l-2.5,4.5c-3.1,3.4-1.1,3.2-1.1,3.2l1.6-0.9C367.8,558,370.3,553.4,370.3,553.4z"/>
		<path class="st0" d="M406.8,541.1c-9.2-10.1-21.4-5.4-21.4-5.4l1.1,0.7l2.8,1l4.8,1.6l2.9,1.5l3.2,1.8c5.8,2.5-0.2,7-4.5,7.4
			c-4.3,0.3-2.3,1.2-2.3,1.2S413.4,550.2,406.8,541.1z"/>
		<path class="st0" d="M391.7,555.8l-1.5,0.3l-0.6,1.2l-1.1,0.9l-1.6,1.8l-0.1-1.4l0.1-1.5v-1l0.7-1v-1.7l-0.2-1.4l-1.1-1.2
			l-1.4,0.2l-1.5,1l-0.1-0.8l2.6-2.3l1-0.2l1-1l0.2-0.8v-1.2l-0.8-1.2l-1.4,0.3l-0.7-0.8l-1.8,0.5l-2.6,2.2l-2.2,2.3l-1.1,1.1h-1
			l-1,1l-1.1,2l-0.9,0.9l0,0.7l0.6,0.3l0.5-0.4l0.5-0.3l0.5-0.2h0.6l0.4-0.3l0.5-0.1l2,0.2c0,0,0.4-0.5,1.9-1.1
			c1.5-0.6,1.1,0.5,1.1,0.5l-0.6,0.5l-1.5,1.7c0,0,0.1,4.2,0,4.4c0,0.2,1.4,3.6,1.4,3.6l-0.1,4.8l-0.8,4.6l-0.8,1l-0.8,0.9
			c0,0,0.3,0.9-0.4,1.5c-0.7,0.6-1.5-0.2-1.5-0.2V575c0,0-0.1-5.9-0.2-8c-0.2-2-1.9-1.7-1.9-1.7s-2.5,0-3.4,0.4
			c-0.9,0.4-2.8,3.9-2.8,3.9l-1.1,4.6l-0.6,0.1l-0.5-0.8l-0.9-0.6c0,0-1.8,0-2.6,0.3s0,2,0,2l0.5,3.5c0,0,0.9,4.8,1.2,6.4
			c0.3,1.6,1.9,1.8,1.9,1.8l0.8,0l1.3,0.7l0.8,0.6l0.5,0l0.3-0.3l0.2-0.2l0.5-0.2l0.2-0.2l0.2-0.5l0.5-0.3l0.2,0.5
			c1.7,3.6,4.4,0.9,4.4,0.9l1.2-1.6l0.9-1c0,0,1.2-2.4,1.8-4.1c1.5-2.2,1.1-0.2,1.1-0.2l0.5,30.3l0.5,5.4l0.9,0.3l0.3,0.9h1l0.2-0.8
			h1.6l1-0.3l0.8-1.4l-0.8-1.8l-0.3-2.2c0,0,0-16.8,0.1-21.9c0.1-5.1,2.4-5.9,2.4-5.9l3.3-3.9c0,0,6.6-13.4,5.7-20.4
			C397.6,552.5,391.7,555.8,391.7,555.8z M372,582.6c0,0-0.1,3.7-1.1,0.6c-1-3.1,0.2-5.7,0.2-5.7s0.9-2,0.9,0.5V582.6z M394.7,564.9
			l-1.8,8.4l-1.4,2.9l-1,2l-0.8,0.9l0.1,0.8v1l-0.8-0.3l-0.6-1.7l-0.8-0.5l-0.3-1.7l0.7-10.8c0,0,0.6-2.3,1.3-2.6l2.4-2.6l0.7-0.5
			c0,0,2.3-1.5,2.3,1.5S394.7,564.9,394.7,564.9z"/>
	</g>
	<g>
		<path class="st0" d="M457.4,533.2l2.1-1.9c0,0,6.4-6.5,9.4-10.2c2.9-3.6-2-5.2-2-5.2h-2l-3.2,0.7l-3,1.4l-16.1,8.9
			c-0.7,0.6-0.7,0.5-1.8-0.3c-1.1-0.8-2.5-0.7-2.5-0.7c-4.4,0.8-5.1,4-5.1,4v1.4l-0.6,0.2l-0.3,0.9l0.5,1.2l-0.8,1.7l-0.3,0.5
			l0.1,5.7c0,0,0.9,2.7,3.9,3.6c3.5,0.3,4.2-1.9,4.2-1.9l0.1-1.1l-0.1-1.6l0.6-0.1l0.9-0.6l0.7-0.6l0.5-0.8l0.1-0.4l-0.1-0.4
			l0.4-1.1l0.6-0.3c0,0-0.2-0.4-0.2-0.6c0-0.2-0.5-0.5-0.5-0.5l-0.1-0.5l0.2-0.8l0.5-0.3l0.4-0.4v-0.7l-0.1-1.7l0.3-0.7l0.7-0.2
			l0.8-0.1l0.6-0.3l1.6-0.1l0.1,0.9l-0.3,0.5l-0.2,0.8l-0.2,1l0.5,0.8l0.6,1.1l-1.2,0.8l-0.4,3.9l-0.2,0.6l-1.1,1.4l-1.7,1.1l-1,0.4
			l-0.8,1.7c0,0,1,1.3,3.3,1.1c2.3-0.2,1.6,1.4,1.6,1.4l-0.1,0.7v0.8l-0.3,0.7l-0.6,0.7l-0.8,0.5l-0.9,0.3l-0.8,0.6l-0.3,0.5
			l-0.2,0.7L442,553l-0.8,0.4l-0.5,0.6l0.3,0.4l0.7-0.3l0.6-0.2l0.5-0.1h0.4l0.5-0.1l0.5-0.2l0.2-0.4l0.5-0.2h1l0.2,0.7l-0.3,0.2
			l-0.6,0.4l-0.7,0.8l-0.9,2l2,2.9l-0.5,2.7l-0.6,1.5l0.3,1.1l0.2,1.1l-0.6,1.2l0.2,1.1l-0.1,1l-0.3,0.8c0.2,2.8-2.2,3.9-2.2,3.9
			l-17.4,10.9l-1.6,1.2l-0.9,0.7l-0.6,0.4l0.7,0.9c1.7,1.6,3.3,1.2,3.3,1.2l4.7-1.8l0.5-0.6l0.9-0.6l1.2-0.4l4.7-2.9
			c0,0,4.1-2.7,5.4-3.5s1.4,0.3,1.4,0.3l0.1,0.9c0,0-0.1,0.5-0.8,1c-0.7,0.5,0.1,1.9,0.1,1.9l0.7,0.5l-0.2,0.5l0.1,8.1l-0.2,6.5
			l0.1,0.7l0.7,0.5l-0.4,0.5l-0.2,0.6l0.3,0.5l0.3,0.6l-0.5,0.3l-1,0.4l0.6,0.3l0.7,0.1l-0.2,0.6l-0.6,0.3l-0.5,0.5l0.5,0.2l0.8-0.2
			l0.5,0.5l-0.3,0.8l-0.7,0.6v1.1v1.6l-0.3,13.6l-0.1,0.8l0.8,0.6l1.3,0.6l0.6,1l0.5-0.6l0.7-0.7l0.4-0.8l0.2-1l-0.1-9.9l0.5-16
			l0.3-19l0.5-1.4c0.2-1.5,1.7-2.4,1.7-2.4l1.4-0.7l4.7-3l5.8-2.8l0.5-0.6l0.2-1l0.7-0.2l0.1-0.7l-0.5-0.6l-1.2-0.8l-2.1,0.1
			l-0.9,0.7l-2.4,1.3l-1-0.1l-2.5,1.5c0,0-1.9,0.8-3.1,1.5c-1.2,0.7-0.8-0.6-0.8-0.6l0.1-0.5l0.3-0.6l0.1-0.5l0.3-0.6
			c0.7-0.1,2.2-1.4,2.2-1.4l0.5-0.9l0.8-0.9l0.6-1.9c0,0-0.1-2.1-1-2.4c-1-0.3-0.4-1.2-0.4-1.2l0.6-0.3l0.4-0.6l0.2-0.7l0.5-0.6
			l0.1-0.8l-0.5-0.6l0.1-1.1l-0.3-0.5l-0.7-0.7l-0.8-0.7l0.2-0.5l0.2-0.7l0.1-1l0.3-0.4l0.6-0.3l1.1-0.6c0,0,4.2-3.7,5.3-3.8
			s0.5,1.1,0.5,1.1l-0.7,0.6l-0.7,1.5l-0.3,0.6v1.1l-0.5,0.5l-1.5,1.9l-1.3,1.5l-0.7,1.4l0.7,0.4l0.6-0.6l1.2-1.6l0.9-0.6l0.6-0.6
			l1.7-2.3v-0.5l0.2-0.5l0.3-0.2l0.6-1l0.8-1.3l1.2-2.3l0.8-1l0.2-0.7l-0.7-0.7l-1.9-0.5l-1.1,0.5l-0.7,0.5l-0.5,0.1l-0.9,0.4
			l-2.2,0.9c0,0-1.1,0.5-2.8,1.5c-1.6,1.1-0.8-0.8-0.8-0.8l0.5-0.5l1.5-1.5l0.8-0.7l0.1-0.6l0.9-1l0.7-0.3l0.8-0.1l0.3-0.4l0.3-0.6
			l0.3-0.8l0.3-1.3l-0.5-0.5l-1.7-0.8l-2.1,0.5l0.3-1L457.4,533.2z M455.1,530.9l-1,1.1l-0.3,0.3l-0.5-0.1l-0.4-1.2l-1.1-1l-0.8-0.6
			l-0.6-0.5l0.3-0.6l0.5-0.2l0.9-0.2l4.1-2.5l1.6-1l0.9-0.7c0,0,2.1-1.1,0.6,1c-1.6,2-2.3,2.6-2.3,2.6l-0.5,1.1l-0.2,0.6
			L455.1,530.9z"/>
		<path class="st0" d="M438.1,559.6l1.2,1.9l1.4,1.5l1.4,0.3l1.1-0.3l1-1l0.3-0.4l-0.5-1.7l-0.7-1.1l-1.1-1l-0.8-0.8l-0.8-0.1
			l-0.7,0.2l-0.5-0.5l-1-0.6c0,0-0.7-1-1.4-0.7c-0.2,0.1,0,1.5,0,1.5l0.2,1.4L438.1,559.6z"/>
	</g>
	<path class="st0" d="M529.9,549.6l-1.5-0.5l-1.7-1.5l-1.8,0.6l-5.8,2.2l-4.5,1.6l0.2-3.2c1.7,0.1,3-2.3,3-2.3l0.3-1.8l1.2-2.5
		l2.3-3.8l2-0.8l1.5-2.2l-3.7-1.7c0,0-1.7,0-3.8,1.3c-2.2,1.3-1.8,0-1.8,0l0.7-1.7l1.3-2l4.3-3.5c0,0,3.5-1.3,6.3-4.5
		c1.7-3.2-2.3-3.5-2.3-3.5s-3.3,0.7-5.7,2.3c-2.3,1.7-1.8,0.3-1.8,0.3l0.8-2.3l-0.2-2.8c0,0-1.2-2.7-5.5-2.7s-5.7,3.7-5.7,3.7
		l0.8,2.2l0.7,1.5l-0.8,5.3l-15.8,9.8l-1.7,1.7l0,1.3l1.2,0.2l0.8-0.4l0.1,0.7l0.4,1.3c1.6,2.3,7.9-1,7.9-1l0.5-1.3l0.8-0.3l1-0.7
		l2.1-1l2.9-1.8l0.2,0.8l0.4,1.6l-1.6,1.4l-1,0.2c0,0-5,4-2.9,6.4c2.1,2.4,3.3,1.9,3.3,1.9l1.3-1c0,0,0.2,1,0.3,4.6
		c0.1,3.6-1.2,4.1-1.2,4.1l-6.4,4.3l-6.7,3l-1.2,1.4l-1.6,1.4c0,0-0.9-0.6-2.3,0.5c-2.6,2.4,0.4,4.6,0.4,4.6l1.5,0.5h1.3l1.2,0.9
		l2.1-0.5l1.7-1.4l1.1-0.1l2.1-1.3l0.7-1l-0.1-1h0.8l0.8-0.3c0,0,2.7-2.5,3.8-3.8s1.4-0.4,1.4-0.4s1,5.9,0,7.4s-3.6,3.5-3.6,3.5
		s0.1-1-0.8,1.1c-0.9,2.1,1.2,2.1,1.2,2.1s1.2-0.9,2.5-1.9s1,0.7,1,0.7l-0.2,4.4l-0.7,2.1l-0.4,1.4l-0.3,2.4l1.4,2.3l0.4,1.1
		l0.4,1.8l-0.1,1.9l-0.3,1.1l0.1,20l-0.1,1.5l-0.2,0.5l-1-0.4l-0.8-0.8l-1.4-0.7l-0.8,0.2l-0.1,0.7l-0.6,0.7l-1.7,0.2l-0.6-0.7
		c0,0,0,0,2.1,2.7s3.8,2.7,6.1,2.2c2.2-0.4,3.6-1.9,3.6-1.9l0.3-1.9l0.3-1.9l-0.1-20.3l0.1-9l0.7-0.8c0,0,1.3-1.3,2.1-2.4
		c1.3-1,1.2-3.3,1.2-3.3l-0.7-1.9c0,0-0.3-1.1-1.5,1.3c-1.2,2.4-1.4,0.1-1.4,0.1l1.3-1.9l1-2.9l2.8-5.7l0.5-1.6l-1-1.2
		c0,0-0.8-0.6-3.5-0.1c-2.7,0.5-0.2-2.1-0.2-2.1l2.3-0.9l4.5-3.1l2.7-2l3.2-2.8l1.7-1.8l0.3-1.4L529.9,549.6z M521.8,554.4l-0.8,0.2
		l-0.6,1l-2.2,2.5l-2.3,2.3l-0.5,0.8l-0.3,0.6l-0.9-0.1l-0.1-1l0.5-2.1c0,0,0.3-2,0.7-2.1l3.3-1.9l1.9-0.8l0.7-0.7
		C521.2,553.1,523.9,552.8,521.8,554.4z"/>
	<g>
		<path class="st0" d="M565.5,537.5l1.7-1l1.4-1.8l0.8-1.2l-0.2-1.1l0.8-1.2c0,0,0.5-2.9-1.8-4.2c-2.3-1.2-0.7,1.5-0.7,1.5
			s0.8,1.1-1.6,2.6l-1.7,1.8l-0.5,0.7c0,0-1.7,0-0.7-1.5c1-1.5,1.7-6.9,1.7-6.9l0.9-4.4c0,0,0.7-2.3-2-3.3s-3.8,0.2-3.8,0.2
			l-0.1,3.4l-0.9,7.1l-0.5,3.9l-0.5,1.5v2.8l-0.2,1.6l-0.8,0.9l-1.7,0.7l-1.2,1l-1.6,0.9l-0.5,1.4l0.6,0.9l1.9,1.8h1.1
			c0,0,1.1-0.6,0.7,1.7c-0.5,2.3-2,20.4-2,20.4l0.2,8.8v3.8v1.6l1,1.1l1.5,0.9l1.2-0.7l1.5-3l-1-3.8l0.3-4.6v-2l0.9-13V552l1.6-7.7
			l0.8-0.8v-0.8l2-1.5C564.1,541.3,566.7,539.6,565.5,537.5z"/>
		<path class="st0" d="M567.7,555.7l0.1,0.9l1.8,0.8c3-0.5,2.7-3.7,2.7-3.7c-0.5-3.2-1.8-2.9-1.8-2.9l-0.2-1l-1.2-1.6l-2.7-0.9
			l-1.1,0.9c-1.1,0.9,0.7,2.7,0.7,2.7C568,554.2,567.7,555.7,567.7,555.7z"/>
		<path class="st0" d="M590.5,531.9l-3.2,1.5c0,0-3.4,1.9-3.9,2.4c-0.6,0.5-1.4,0.6-1.4,0.6l-0.3-1c0,0,1.6-1,1.8-2
			c0.2-1,1.2-1.6,1.2-1.6l3-2.7c0,0,4.3-4.2,5.9-5.8c1.6-1.6,0-1.6,0-1.6s-5.6,3.3-8,5s-1.4-0.8-1.4-0.8l0.6-1.7l0.2-2l0.3-1.8
			l0.2-2.5c-2.4-4.2-4.3-2.1-4.3-2.1l-1.1,4.8l-0.8,0.9l-2,8.5l-1.2,1.9l-2,1.9l-2.1,1.9c0.3,1,1.4,0.2,1.4,0.2s-0.2-0.7,1.8-0.8
			c2-0.1,0.8,2.6,0.8,2.6l-0.7,2.5l-0.6,1.2l-1.1,0.7l-1.5,1.1l-1,0.2c-1.4,1.4,1.4,0.8,1.4,0.8l2.7-1l-0.6,3.7c0,0,1.1,0.1-1.5,1.7
			c-2.6,1.6-0.9,2.4-0.9,2.4c2.6,0,1.6,1.7,1.6,1.7l-0.3,2.3c0,0-1.1,5.6-1.7,9.7c-0.6,4.1,1.7,4.7,1.7,4.7l-0.2,0.9l-3.6,4.3
			c0,0-6.3,6.7-3.6,9.1c2.7,2.5,7.3-1.6,7.3-1.6s0.7,0.7,2.9,1c2.3,0.3,1.2,2.8,1.2,2.8l0.5,1.6l-0.2,1.9l0.5,1.2l0.3,4.8l-0.3,0.8
			l0.1,1c0.6,2.8-1.5,0.9-1.5,0.9l-1.4-0.2l-1.1-0.3l-2.1-1.2c-1.9-0.3-0.9,0.3-0.9,0.3l3.7,2.4l0.1,1l2.4,3.5l0.6,1.4l0.2,1.4
			c5.2,4.6,5.4,0.5,5.4,0.5l0.3-1.2l0.5-0.9v-1.9l-0.5-17.4l0.7,0.2h1.9l1.1-0.7l0.8-1l-0.5-1.2l-1.2-1.2l-1.1-0.6h-1.7l0.3-7.3
			c0,0,2.6-3.8,3.6-5.4s-0.5-4.1-1.4-4.7c-0.9-0.7-0.3-1.6-0.3-1.6l5.1-4.3c0,0,0.8-1-1.1-1.9c-1.9-0.9-3-0.3-3.8,0.5
			s-1.8,0.2-1.8,0.2l-2.7-1.5l-0.9,1l-2.1,1.9l-0.8,1.2l0.1,1.9v1.7l-0.1,0.9l-0.7,0.5l-0.1-1.8l0.1-3.7l0.5-1.2l1.2-2l1.5-0.8
			l0.9-0.8c1.7-0.7,1.5-2.9,1.5-2.9l-0.2-1.9l1-0.5l3.7-4.8l4.6-5.5V537l0.6-0.8l1.5-1.5l0.3-1.1
			C596.3,529.6,590.5,531.9,590.5,531.9z M584.5,564.6c0,0,1,0.3,0.8,2.1s-1.4,0.7-1.4,0.7L584.5,564.6z M578.4,580.2l-2.6,1.1
			l-1-0.3l1.1-0.7l1.5-0.9C577.4,579.4,579.2,578.3,578.4,580.2z M578,571.2c0,0,0.7-1.5,1.1-0.8c0.5,0.7-0.7,1.6-0.7,1.6l-0.1,1
			l0.2,0.9l-0.1,0.9l-0.3,0.8l-8.2,6.9c0,0-2.1,0.2-0.9-1.4c1.1-1.6,2.7-2.9,2.7-2.9l4.3-4.7L578,571.2z M581.7,549.4l-0.8,0.7
			l-0.4,0.9l-0.7,0.7h-1l0.3-1.3l0.9-1.8l1.6-0.2V549.4z M590.7,534.8c-1.2,1.7-5.1,6.1-5.1,6.1l-0.2,1.5l-0.2,0.7l-1.2,0.3l-0.8-1
			l-1.6,0.6v1.4l-1.1-0.3l0.2-1.4l0.6-1l0.9-2.6l5.2-3.3l2.3-1.6l0.7-1C590.3,533.1,592,533.1,590.7,534.8z"/>
	</g>
	<g>
		<path class="st0" d="M640,588.4l2.1-3.8l-0.1-1l1.1-2.2l0.8-2.5l2.9-9.2l2.2-7.7l0.1-3.9c0,0-1.2-2.8-4.4-1.8l-6.7,7.7l-0.9,1.2
			l-0.5,0.9l-0.2,0.4l-0.9,0.1l0.1-0.9l0.3-1.3l-0.6-0.5l0.4-0.6l0.3-0.9l-0.3-1l-0.8-0.6l-0.4-0.3h-0.5l-0.3,0.2l-0.6,0.7l-0.8,0.1
			l-0.6,0.6l-0.7,0.9l-0.6,1.8v0.6l-2.3,4.8l-0.4,0.3v0.7v0.6c0,0-1.7,3.4,0.6,5.9s4.3,1.9,4.3,1.9l0.5-0.8l0.9-0.5l4.3-7.8l3.5-6.7
			v-1.3h0.4l1.2-1.7c0,0,1.5-1.5,0.6,1.2c-0.4,1.1-0.8,1.1-0.8,1.1l-2,7.1l-5.6,18.5l-0.8,3.6l0.1,0.4h0.6l1-1.1l0.9-0.9l0.6-1
			l1.2-0.9L640,588.4z"/>
		<path class="st0" d="M655.7,547.8c0.6-0.3,0.6-2.7-0.5-3c-0.9-0.6-1.3-2.5-3.1-2s-6.7,4.4-6.7,4.4s-0.7,0.8-1.8,0.7
			s-2.3,0.9-1.7-1.1s8.2-19.4,8.2-19.4l4.5-8.2c0,0,1-2-1.5-2.5l-1.6-0.3l-3.5,5.6l-1,2.4l-1.2,0.3L634.2,544l-4,7.6l-1.4,3.6
			l-1.3,2.1l-0.4,0.9v0.7l-0.2,1.1l0.2,0.3l0.7-0.1c-0.7,0.6,0.1,1.2-0.6,1.7c0,0-0.3,0.3-0.3,1.1s-1.6,1.4-1.4-0.8s0.4-8.3,0.4-8.3
			s0.1-1.3,2.6-4.9s7.3-12.7,6-19.4c-0.3-1.7-1-1.6-1.3-3.6c-0.3-1.4-1.3-2.5-1.3-2.5s-0.4-0.8,0-1.4s-1-0.8-1.5,0.2
			c-0.4,0.6-1,0.7-1,0.7l-1.4,3l-2.3,8.1l-1.4,10.2l-1.4,5.2l-0.1,2.5l-2.4,3.6c0,0-1,1.8-1.3,0.1l1.9-3.8c0,0,3.2-6.9,1.7-12.5
			c-2.2-4.5-7.1-0.1-7.9,5s-1.2,8-1.2,8l-0.1,7.5v1.4c0,0,0.9,2.6,3.2,2.3s3.5-1.1,4.1-2.2s1.5-2.1,1.2,0.8s-0.4,10.6-0.4,10.6
			l-8.3,15.9l-0.8,0.4v0.7l2.1,2c0,0,0.9,0.7,2.1-0.4c0,0,0.3-0.3-0.1-0.8c-0.4-0.5,1.3-2.5,1.3-2.5l2.8-5l0.7-2.4l0-1
			c0,0,1.1-0.6,1.1,0.8s-0.2,2-0.2,2l0.1,0.7l-0.1,1.2c0,0,1,1.9,0.2,2s-1.8,0.3-0.4,0.8s2.5,1,2.5,1s1.4,0.9,1.1-1.7
			c-0.3-2.6-0.4-10-0.4-10l-0.3-3.5l2.8-7c0,0-0.9-1.3,0.3-1.4c0.7-0.2,0.1-1.3,0.8-1.8s1-1.7,0.3-2.2c0,0-0.7-0.7-1.3-0.5l0.2-0.1
			l0.4-0.4l0.9-0.2l12.6-26.4l3.8-7.5h0.5l-1.4,2.9v1.3l-1.1,0.6l-3.2,8l-2.3,4.9l0.1,1.9l-0.9,0.9l-0.2,0.7l0.7,0.3l-0.1,0.6
			l-0.5,0.6L636,553l-0.3,3.9l0.2,0.6l1.4,0.7l0.8,0.3l1.1-0.1l0.7-0.1l0.8-0.8l0.9-0.9l0.7-0.6l0.8-0.6l1-0.5l1.1-0.7l0.8-0.9
			l0.9-0.7l1.6-1.5l0.7-0.9l0.9-0.8l0.5-0.2l0.6-0.6h0.6l0.6,0.8l0.3,8.1c0,0-0.9,16.9-4.2,23.4s-3.6,10-10,12.7l0.2,0.6l1,0.4
			c0,0,3.4,0.9,6.9-1.5s8.9-23.8,9.3-26.2s0-17.5,0-17.5S655.1,548.1,655.7,547.8z M626,543.5v-2.3l0.5-3.8l0.9-4.6l0.9-3.8l1.5-2.8
			c1.5-2.8,1.8,0.7,1.8,0.7l0.7,3l-0.5,3.5l-0.5,3.3l-0.5,1.5l-2.2,3.8l-1.8,4l-1.2,0.5L626,543.5z"/>
	</g>
	<g>
		<path class="st0" d="M688.9,552.9l9.4-16l3-5.4c0,0,0.2-0.5,0.3-1.4c0.2-0.6,0.9,0.3,0.9,0.3l0.4,0.9c0,0,1.2,1,1.4,2
			c0.6,0.6,4.3,0.1,4.3,0.1s1.7,0.1,0.9-1.7c-0.8-1.8-3-4.5-5.9-2.3c-1.1,1-1.1-0.5-1.1-0.5l2.1-2.7l2.3-3.4l1-2.2
			c0,0,1.1-3.7-1.8-4.3c0,0-0.9-1.1-3-0.7c-2.1,0.4-0.9,1.9-0.9,1.9s0.2,0.9-0.8,2.5l-11.8,20.7c0,0-1.3,2.3-1.7,2.5
			c-0.4,0.2,0.3,2-1.1,2.9c-1.4,0.9-1.4,3-2.4,4.5s-3.1,5.2-3.1,5.2l-6.4,11.7c0,0-1.3,2-2,3.8c-0.6,1.8-1.8,2.2-1.5,5
			c-0.2,2.2-1.4,3.2-1.4,3.2s-0.3,2,1.6-0.6c0.8-2.1,0.6-0.8,2.1-3.1c1.4-2.3,3.3-4.2,3.3-4.2l4.4-6.4L688.9,552.9z"/>
		<path class="st0" d="M698.1,542.7l-3.1,2.4c0,0-1.7,1.2-2,1.8c-0.2,0.3-0.2,1.3-0.2,1.3s-0.5,0.3-1,1.1s-0.3,2,0,2.8
			s1.2,0.7,1.2,0.7l0.8,0.5c0.5-0.2,0.7-0.2,1.6,0c1,0.3,1.2-0.9,1.7-0.8c0.8,0.2,1.4-0.1,1.4-0.1l1.1-0.6l1.2-0.8l2.1-1.9
			c0,0,2.6-2.3,0.6-5.1C701.4,541.4,698.1,542.7,698.1,542.7z"/>
		<path class="st0" d="M748.4,530.6c0.3-1-0.9-1.8-0.9-1.8s-2.6-1.2-3.3-0.2c-0.7,1-1,0.8-1,0.8s-0.7-1-1.2-0.2
			c-1.3,2-2.8,1.5-2.8,1.5l-0.5,0.6l-1.4,0.2l-1.5,1.1l-7.5,5.3l-5.5,4.1l-2.1,1.4c0,0-2.9,2.3-4.2,3.3c-1.3,1-1,1.9-1,1.9
			s0.3,0.6-0.6,0.6c-0.9,0-1.2,0.6-1.2,0.6s-1.1,0.8-1.8,2c-0.7,1.6-1.4,1-1.4,1s0.3-1.7-1.1-2.1c-1.4-0.5-0.6,1.3-0.6,1.3l-0.1,1.3
			l-0.3,0.4l-0.3,1.7l-0.4,0.4c0,0-0.4,0.1-1.1,0.9c-1,1.4-0.8-0.2-0.8-0.2s0.8-3,0-4.1c-1.5-2.2-4.1-0.5-4.1-0.5l-4.3,4.1l-3.7,4.8
			c0,0-2.2,4.1-3.2,3.3c-0.7-1.4-3.2-1.6-4.5,0c-1.3,1.6-1.5,11.4-1.5,11.4l-0.8,2l0.1,1.5l-0.6,3.8l-0.3,2.5
			c0.3,8.4-1.1,10.3-1.1,10.3s-1.3,13.3-0.7,13.9c0.5,0.6,0.7,1.3,2.4,2.7s2.1-0.5,2.8-0.2s1.4-0.4,1.4-0.4s3.5-7.3,4.1-8.2
			s1.7-4.4,1.7-4.4v-1.7c0.6-0.2,0.4-1.2,0.4-1.2s-0.4-1.1,0.2-1.2c0.6-0.1,0.7,0.6,0.9,1.7s2.5,3.3,2.5,3.3s4.1,1.3,4.4-2.2
			c0.3-3.5-3.6-6.4-5.3-7c-1.7-0.6-3,1.2-3,1.2v1l-0.4,0.2c0,0-4.2,6.5-4.5,8.3c0.1,1.4-0.8,1.2-0.8,1.2l-0.3-0.5l0.2-0.6l0.4-1.9
			c0,0-0.5-1.3,0.2-1.6c0.6-0.3,0.5-1.6,0.5-1.6s1.5-10.6,1.1-11.5c-0.3-0.9,0.6-2,0.3-2.5s0.6-2.3,0.6-2.3v-0.7c0,0,0,0,0.7-1.8
			c0.2-2.4,2.2-3.3,3.5-3.6s2.1-1.9,2.1-1.9l2.1-1c0,0,1.3-1,1.4-2.1c1.8-1.7,0.7,1.4,0.7,1.4s-1,1.3-0.3,1.3
			c1.2-0.1,1.7-2.8,1.7-2.8s2-8.5,2.6-9.9c1.4-1.7,1.9-0.4,1,0.8c-0.9,1.2-0.6,4.1-0.6,4.1l-0.6,2.9c0,0-1.7,5.4-2.2,8.3
			c-0.5,2.9-1.8,1.3-1.8,1.3c-1.5,0.6-1.3-0.1-2.4,0.2c-1,0.3-1.3,0.6-2.1,2.4c-1.5,1.5-3.9,4.7-3.9,4.7s-0.7,0.6,0.6,1.2
			c3.3,0.9,7.4-2.2,8.1-3.4c0.7-1.3,1.4-0.3,1.4-0.3s1,2.8,2.3,2.3c1.3-0.5,1.7,0.1,1.7,0.1s1.8,0.6,1.2-0.1s-0.1-1.1-0.1-1.1
			s1.5-1,1.6-2.9c0.1-1.9,0.3-1.3,0.9-3.3c0.5-2.1,0.2-8.3,0.2-8.3s0.6-3,0.9-3.3s1.5-1.6,1.1-2.2c-0.4-0.6-1.1-1.3,0.1-1.7
			c1.1-0.4,1.7-1.4,1.7-1.4s2.9-4,4.2-5.9c1.3-1.9,1.9-0.6,1,0.5c-0.9,1-1.7,4.9-2.9,9.5c-1.3,4.6-2.2,16.4-2.2,16.4
			s-1.7,29.7-1.9,35.4s-0.1,5.9,1.6,6.3c1.7,0.4,3.2-2.2,2.9-3.6c-0.3-1.4-0.1-3.1-0.1-3.1s0.6-18.7,0.6-20.9s1.5-0.5,1.5-0.5
			s1,0.6,2.5,0.7c1.5,0.2,0.7-0.4,1.7-0.5c2.6-0.1-0.2,1.7-0.2,1.7s-0.2,0.9-1.3,2.3c-2.6,2.6-0.8,7.2,0.8,7.1
			c2.2-0.7,1.3,0.9,2.2,0.3c2.2-1.1,3.7-0.2,4.6-0.2c0.9,0.1,0.9-0.9,2-0.4c1.1,0.5,2-0.2,1.9-1c-0.1-0.9,0.1-2,0.7-2.1
			c0.6-0.1,0.8-0.2,1.4-2.2c0.6-2.1-0.3-3.3-1.6-3.2c-1.3,0.1-0.5-1.1-1.4-1.1c-0.9-0.1-0.8-1.3-0.5-1.5c0.3-0.2,1.3-0.9,1-2
			s0.8-1.1,0.8-1.1s2.9-2.8,2.8-4c-0.3-1.6,0.5-2.5,0.5-2.5s0.4-1.4-1.5-3c-3-2.1-7.7,0.5-7.7,0.5s-5.3,3-8,4.8
			c-2.4,2-1.7-0.3-1.7-0.3l0.5-2.2l0.7-8.7l0.2-1.4l0.7-7.2c0,0,1-0.7,1.4,0c0.3,1.7,4.1-1.9,4.1-1.9s1.4-1.6,2.8-2.8
			s1.7-0.2,0.4,0.9s-6.4,10.5-7.8,11.4c-1.4,0.5-0.7,1.8-0.7,1.8s-0.9,2.2,0.5,3.3c1.4,1.1,1.1-0.6,1.8,0c0.7,0.6,1.1,0.5,1.1,0.5
			s1.4-1.4,2.4-1.5c0.9-0.1,1.3-0.5,1.3-0.5s1.1-1.2,1.8-1.7c1-0.5,0.1-1.5,0.1-1.5s0.2-0.9-0.9-1.4c-1.7-0.6-0.3-1.8-0.3-1.8
			l1.4-2.2c0,0,6.2-8.4,7.7-13.5c1.5-5.1-3.4-2.4-3.4-2.4l-5.8,4.2c0,0-5.2,3.9-5.9,5c-1.3,1.7-1.4,0-1.4,0l0.7-1.3
			c0,0,0.3-2.6,1-4.1c1.5-1.8,1.1-3.8,1.1-3.8s-0.6-2.4-2.1-1.7c-2,1.1-0.6-0.7-0.6-0.7s1.8-1.1,3.8-3.2c2-2.1,5.2-4.4,5.2-4.4
			s10.9-7.7,13.5-8.8c2.6-1,0.6,1.9,0.6,1.9s-3.9,5.1-4.4,6.8c-0.5,2.5-1.8,2.6-1.8,2.6l-0.6,0.3c-0.8,1,1.1,1.5,1.1,1.5l0.5-1
			c0,0,0.6-0.1,1.5-1.7c0.5-1.4,1.3-2,1.3-2l1.4-1.7l1.7-2.6l1.7-1.6c0,0,0.7-1,1.9-2.9S748,531.6,748.4,530.6z M701.4,558.5
			c0,0,0.5,1.1-0.4,1.5c-0.9,0.5,0.5,2.6-0.9,2.8c-0.6,0.3,1.4,1.9-0.7,3.7c-0.3,0.8-0.1,1.3-0.4,1.5c-0.3,0.2-0.8,0.2-1.6-0.6
			c-0.7-0.5-3.4,0.4-3.4,0.4s-1.7,1.5-1.9-0.3c-0.4-1.4-1-1.7,0.4-2.1c1.5-0.4,0.8-0.3,0.8-0.3s5.6-1.6,7.3-7.7
			c0.3-1.2,0.9-0.9,0.9-0.9S702.1,556.7,701.4,558.5z"/>
		<path class="st0" d="M725.7,521.6c1.1,1.1,1.6,1.4,0.4,3.8c-1.9,3.8,0.6,0.5,1.4-0.5s1.8-1,2.5-1s1.1,0,3.4-1.3s-0.5-6.4-5.6-7.5
			c-5.8-0.8-4,3.2-4,3.2S725,520.4,725.7,521.6z"/>
	</g>
</g>
</svg>
