<?xml version="1.0" encoding="utf-8"?>
<!-- Generator: Adobe Illustrator 22.1.0, SVG Export Plug-In . SVG Version: 6.00 Build 0)  -->
<svg version="1.1" id="图层_1" xmlns="http://www.w3.org/2000/svg" xmlns:xlink="http://www.w3.org/1999/xlink" x="0px" y="0px"
	 viewBox="0 0 800 800" style="enable-background:new 0 0 800 800;" xml:space="preserve">
<style type="text/css">
	.st0{fill-rule:evenodd;clip-rule:evenodd;fill:#A19EA2;}
	.st1{fill-rule:evenodd;clip-rule:evenodd;fill:#087B33;}
	.st2{fill-rule:evenodd;clip-rule:evenodd;fill:#6A696A;}
	.st3{fill-rule:evenodd;clip-rule:evenodd;fill:#076129;}
</style>
<polygon class="st0" points="241.8,279.7 398.9,205 559.7,278.4 515.2,298.3 399.8,246.6 327.4,278.4 441.1,331.8 401.6,352.2 "/>
<polygon class="st1" points="559.7,331.3 402.6,406 241.8,332.6 286.3,312.7 401.6,364.4 474,332.6 360.3,279.2 399.9,258.8 "/>
<polygon class="st2" points="559.7,278.4 559.7,331.3 515.2,311.1 515.2,298.3 "/>
<polygon class="st3" points="241.7,279.6 241.7,332.6 286.2,312.4 286.2,299.5 "/>
<g>
	<path d="M62.5,583.5h-8.8v8.9h8.8v-3l3.3,0.7v1.7c0,1.3-0.2,2.2-0.7,2.6c-0.5,0.5-1.4,0.7-2.8,0.7h-8.4c-1.4,0-2.3-0.2-2.8-0.7
		s-0.7-1.3-0.7-2.6v-7.4c0-1.3,0.2-2.1,0.7-2.6s1.4-0.7,2.8-0.7h8.4c1.4,0,2.3,0.2,2.8,0.7c0.5,0.5,0.7,1.3,0.7,2.6v1.3l-3.3,0.5
		V583.5z"/>
	<path d="M72.6,595v-14h3.3v5.4h10.2V581h3.3v14h-3.3v-6H75.8v6H72.6z"/>
	<path d="M96.6,595v-14h3.3v14H96.6z"/>
	<path d="M107,595v-14h2.2l9.9,8.3c0.3,0.3,0.6,0.5,0.9,0.8c0.3,0.2,0.5,0.5,0.7,0.8c-0.1-0.8-0.1-1.3-0.1-1.7c0-0.3,0-0.6,0-0.8
		V581h2.9v14h-2.2l-10.3-8.7c-0.2-0.2-0.5-0.4-0.7-0.6c-0.2-0.2-0.4-0.4-0.5-0.5c0,0.4,0.1,0.8,0.1,1.2c0,0.4,0,0.7,0,1v7.6H107z"/>
	<path d="M128,595l8-14h3.2l8.1,14h-3.7l-1.7-3.1h-8.9l-1.6,3.1H128z M134.3,589.4h6.2l-3-5.7L134.3,589.4z"/>
	<path d="M174.5,583.4h-9.2v3h8.8c1.4,0,2.3,0.2,2.8,0.7c0.5,0.5,0.7,1.3,0.7,2.6v1.9c0,1.3-0.2,2.1-0.7,2.6
		c-0.5,0.5-1.4,0.7-2.8,0.7h-8.7c-1.4,0-2.3-0.2-2.8-0.7c-0.5-0.5-0.7-1.3-0.7-2.6v-0.4l2.9-0.6v1.7h9.9v-3.2h-8.8
		c-1.4,0-2.3-0.2-2.8-0.7c-0.5-0.5-0.7-1.3-0.7-2.6v-1.6c0-1.3,0.2-2.1,0.7-2.6c0.5-0.5,1.4-0.7,2.8-0.7h8c1.3,0,2.2,0.2,2.7,0.7
		c0.5,0.5,0.8,1.3,0.8,2.4v0.3l-2.9,0.7V583.4z"/>
	<path d="M196.2,583.5h-8.8v8.9h8.8v-3l3.3,0.7v1.7c0,1.3-0.2,2.2-0.7,2.6c-0.5,0.5-1.4,0.7-2.8,0.7h-8.4c-1.4,0-2.3-0.2-2.8-0.7
		c-0.5-0.5-0.7-1.3-0.7-2.6v-7.4c0-1.3,0.2-2.1,0.7-2.6c0.5-0.5,1.4-0.7,2.8-0.7h8.4c1.4,0,2.3,0.2,2.8,0.7c0.5,0.5,0.7,1.3,0.7,2.6
		v1.3l-3.3,0.5V583.5z"/>
	<path d="M206.2,595v-14h3.3v14H206.2z"/>
	<path d="M216.7,595v-14h14.4v2.4h-11.1v3.1h6.5v2.4h-6.5v3.5h11.3v2.6H216.7z"/>
	<path d="M237.2,595v-14h2.2l9.9,8.3c0.3,0.3,0.6,0.5,0.9,0.8c0.3,0.2,0.5,0.5,0.7,0.8c-0.1-0.8-0.1-1.3-0.1-1.7c0-0.3,0-0.6,0-0.8
		V581h2.9v14h-2.2l-10.3-8.7c-0.2-0.2-0.5-0.4-0.7-0.6c-0.2-0.2-0.4-0.4-0.5-0.5c0,0.4,0.1,0.8,0.1,1.2c0,0.4,0,0.7,0,1v7.6H237.2z"
		/>
	<path d="M272.8,583.5h-8.8v8.9h8.8v-3l3.3,0.7v1.7c0,1.3-0.2,2.2-0.7,2.6c-0.5,0.5-1.4,0.7-2.8,0.7h-8.4c-1.4,0-2.3-0.2-2.8-0.7
		c-0.5-0.5-0.7-1.3-0.7-2.6v-7.4c0-1.3,0.2-2.1,0.7-2.6c0.5-0.5,1.4-0.7,2.8-0.7h8.4c1.4,0,2.3,0.2,2.8,0.7c0.5,0.5,0.7,1.3,0.7,2.6
		v1.3l-3.3,0.5V583.5z"/>
	<path d="M282.8,595v-14h14.4v2.4h-11.1v3.1h6.5v2.4h-6.5v3.5h11.3v2.6H282.8z"/>
	<path d="M311.2,595l8-14h3.2l8.1,14h-3.7l-1.7-3.1h-8.9l-1.6,3.1H311.2z M317.5,589.4h6.2l-3-5.7L317.5,589.4z"/>
	<path d="M334.9,595v-14h2.2l9.9,8.3c0.3,0.3,0.6,0.5,0.9,0.8c0.3,0.2,0.5,0.5,0.7,0.8c-0.1-0.8-0.1-1.3-0.1-1.7c0-0.3,0-0.6,0-0.8
		V581h2.9v14h-2.2l-10.3-8.7c-0.2-0.2-0.5-0.4-0.7-0.6c-0.2-0.2-0.4-0.4-0.5-0.5c0,0.4,0.1,0.8,0.1,1.2c0,0.4,0,0.7,0,1v7.6H334.9z"
		/>
	<path d="M358.6,595v-14h9.1c2.6,0,4.6,0.6,6,1.8c1.4,1.2,2.1,2.9,2.1,5.1c0,1.3-0.3,2.5-0.8,3.5c-0.5,1-1.3,1.9-2.3,2.5
		c-0.6,0.4-1.4,0.7-2.3,0.8c-0.9,0.2-2.1,0.3-3.5,0.3H358.6z M361.9,592.4h4.2c2.3,0,3.9-0.4,4.8-1c0.9-0.7,1.4-1.9,1.4-3.5
		c0-1.4-0.4-2.5-1.2-3.3c-0.8-0.7-1.9-1.1-3.5-1.1h-5.8V592.4z"/>
	<path d="M398.8,583.5V595h-3.3v-11.5h-6.5V581h16.2v2.5H398.8z"/>
	<path d="M409.3,595v-14h14.4v2.4h-11.1v3.1h6.5v2.4h-6.5v3.5h11.3v2.6H409.3z"/>
	<path d="M441.7,583.5h-8.8v8.9h8.8v-3l3.3,0.7v1.7c0,1.3-0.2,2.2-0.7,2.6c-0.5,0.5-1.4,0.7-2.8,0.7h-8.4c-1.4,0-2.3-0.2-2.8-0.7
		c-0.5-0.5-0.7-1.3-0.7-2.6v-7.4c0-1.3,0.2-2.1,0.7-2.6c0.5-0.5,1.4-0.7,2.8-0.7h8.4c1.4,0,2.3,0.2,2.8,0.7c0.5,0.5,0.7,1.3,0.7,2.6
		v1.3l-3.3,0.5V583.5z"/>
	<path d="M451.7,595v-14h3.3v5.4h10.2V581h3.3v14h-3.3v-6H455v6H451.7z"/>
	<path d="M475.7,595v-14h2.2l9.9,8.3c0.3,0.3,0.6,0.5,0.9,0.8c0.3,0.2,0.5,0.5,0.7,0.8c-0.1-0.8-0.1-1.3-0.1-1.7c0-0.3,0-0.6,0-0.8
		V581h2.9v14H490l-10.3-8.7c-0.2-0.2-0.5-0.4-0.7-0.6c-0.2-0.2-0.4-0.4-0.5-0.5c0,0.4,0.1,0.8,0.1,1.2c0,0.4,0,0.7,0,1v7.6H475.7z"
		/>
	<path d="M499.1,584.3c0-1.3,0.2-2.1,0.7-2.6c0.5-0.5,1.4-0.7,2.8-0.7H513c1.4,0,2.3,0.2,2.8,0.7c0.5,0.5,0.7,1.3,0.7,2.6v7.4
		c0,1.3-0.2,2.2-0.7,2.6c-0.5,0.5-1.4,0.7-2.8,0.7h-10.4c-1.4,0-2.3-0.2-2.8-0.7c-0.5-0.5-0.7-1.3-0.7-2.6V584.3z M502.4,592.4h10.8
		v-8.9h-10.8V592.4z"/>
	<path d="M523.4,595v-14h3.3v11.4h10.6v2.6H523.4z"/>
	<path d="M541.2,584.3c0-1.3,0.2-2.1,0.7-2.6c0.5-0.5,1.4-0.7,2.8-0.7h10.4c1.4,0,2.3,0.2,2.8,0.7c0.5,0.5,0.7,1.3,0.7,2.6v7.4
		c0,1.3-0.2,2.2-0.7,2.6c-0.5,0.5-1.4,0.7-2.8,0.7h-10.4c-1.4,0-2.3-0.2-2.8-0.7c-0.5-0.5-0.7-1.3-0.7-2.6V584.3z M544.5,592.4h10.8
		v-8.9h-10.8V592.4z"/>
	<path d="M578.7,583.5h-10.2v8.9h10.2v-3.1h-5.4v-2.4h8.5v4.8c0,1.3-0.2,2.2-0.7,2.6s-1.4,0.7-2.8,0.7h-9.7c-1.4,0-2.3-0.2-2.8-0.7
		s-0.7-1.3-0.7-2.6v-7.4c0-1.3,0.2-2.1,0.7-2.6s1.4-0.7,2.8-0.7h9.7c1.3,0,2.3,0.2,2.8,0.7c0.5,0.5,0.7,1.3,0.7,2.5v0.3l-3.2,0.6
		V583.5z"/>
	<path d="M592.2,595v-6.3l-7.3-7.8h4.4l4.8,5.4l4.8-5.4h3.8l-7.3,7.7v6.4H592.2z"/>
	<path d="M617.1,595v-14h2.6l6.6,8.5l6.5-8.5h2.6v14h-3v-8.7c0-0.2,0-0.4,0-0.6c0-0.3,0.1-0.5,0.1-0.9c-0.2,0.4-0.3,0.7-0.5,0.9
		c-0.1,0.2-0.3,0.4-0.4,0.6l-5.3,7h-0.7l-5.3-7c-0.2-0.3-0.4-0.5-0.5-0.8c-0.1-0.2-0.3-0.5-0.3-0.7c0,0.3,0,0.6,0.1,0.8s0,0.5,0,0.7
		v8.7H617.1z"/>
	<path d="M645.7,581v11.4h9.3V581h3.3v10.7c0,1.3-0.2,2.2-0.7,2.6c-0.5,0.5-1.4,0.7-2.8,0.7h-8.9c-1.4,0-2.3-0.2-2.8-0.7
		c-0.5-0.5-0.7-1.3-0.7-2.6V581H645.7z"/>
	<path d="M677.7,583.4h-9.2v3h8.8c1.4,0,2.3,0.2,2.8,0.7c0.5,0.5,0.7,1.3,0.7,2.6v1.9c0,1.3-0.2,2.1-0.7,2.6
		c-0.5,0.5-1.4,0.7-2.8,0.7h-8.7c-1.4,0-2.3-0.2-2.8-0.7c-0.5-0.5-0.7-1.3-0.7-2.6v-0.4l2.9-0.6v1.7h9.9v-3.2h-8.8
		c-1.4,0-2.3-0.2-2.8-0.7s-0.7-1.3-0.7-2.6v-1.6c0-1.3,0.2-2.1,0.7-2.6s1.4-0.7,2.8-0.7h8c1.3,0,2.2,0.2,2.7,0.7
		c0.5,0.5,0.8,1.3,0.8,2.4v0.3l-2.9,0.7V583.4z"/>
	<path d="M687.5,595v-14h14.4v2.4h-11.1v3.1h6.5v2.4h-6.5v3.5h11.3v2.6H687.5z"/>
	<path d="M711.4,581v11.4h9.3V581h3.3v10.7c0,1.3-0.2,2.2-0.7,2.6s-1.4,0.7-2.8,0.7h-8.9c-1.4,0-2.3-0.2-2.8-0.7
		c-0.5-0.5-0.7-1.3-0.7-2.6V581H711.4z"/>
	<path d="M731.2,595v-14h2.6l6.6,8.5l6.5-8.5h2.6v14h-3v-8.7c0-0.2,0-0.4,0-0.6c0-0.3,0.1-0.5,0.1-0.9c-0.2,0.4-0.3,0.7-0.5,0.9
		c-0.1,0.2-0.3,0.4-0.4,0.6l-5.3,7h-0.7l-5.3-7c-0.2-0.3-0.4-0.5-0.5-0.8s-0.3-0.5-0.3-0.7c0,0.3,0,0.6,0.1,0.8s0,0.5,0,0.7v8.7
		H731.2z"/>
</g>
<g>
	<path d="M498.7,496.3c-1.6,2.7-3.8,4.7-5.8,6.9c-0.3,0.4-0.7,0.7-1,1.1c-1.6,1.9-2.6,4-3,6.5c-1,6-2.2,11.9-3.2,17.9
		c-0.5,2.8-0.8,5.6-1.3,8.4c-0.2,0.9-0.4,1.9-0.8,2.7c-0.7,1.5-2.2,2-3.8,1.5c-1.1-0.4-1.9-1-2.6-1.9c-2.4-3-5.5-5.2-8.8-7.1
		c-1-0.6-2.1-1.3-2.9-2.2c-1.8-1.9-2-4.2-0.6-6.4c0.3-0.5,0.7-1,1.2-1.5c4-4,6.8-8.7,8.9-13.9c0.4-1,0.8-1.9,1.1-2.9
		c0.8-2.1,1.5-4.1,1.7-6.3c0.3-2.7,1-5.3,1.6-7.9c0.5-2.3,0.7-4.7,0.4-7.1c-0.1-0.8-0.2-1.6-1.1-2.1c-0.6,0.5-1.3,1.1-1.9,1.6
		c-2.4,1.9-4.7,3.9-7.1,5.8c-1.4,1.1-2.9,1.9-4.7,2.4c-3.3,1-6.5,0.7-9.5-1.1c-1.3-0.8-2.5-1.8-3.5-2.9c-2.1-2.3-1.8-5.2,0.4-7.4
		c0.9-0.9,2-1.5,3.2-1.9c3.4-0.9,6.8-1.8,10.2-2.7c2.5-0.6,5-1.3,7.4-1.9c0.8-0.2,1.5-0.6,2.3-0.9c4.3-1.8,6.5-5,6.7-9.6
		c0.1-2.3-0.1-4.7-0.3-7c-0.1-1-0.6-2-0.8-3c-0.8-3.7,2.2-6.4,5.8-5.3c0.8,0.2,1.6,0.7,2.2,1.2c1,1.1,1.9,2.3,2.8,3.5
		c0.2,0.3,0.3,0.8,0.3,1.1c0.3,3.4,1.9,6,4.9,7.8c0.3,0.2,0.7,0.5,1,0.7c1.5,1.1,2,2.5,1.5,4.2c-0.4,1.6-1.4,2.9-2.8,3.7
		c-5.2,2.9-7.8,7.3-8.3,13.1c-0.1,1.6-0.1,3.1-0.1,4.7c0,1.9,0,3.9,0,5.8c0.7,0.3,1.4,0.2,2,0c0.6-0.2,1.1-0.4,1.6-0.7
		c2.2-1.6,4.5-3.1,6.3-5.3c7.5-9.1,12.2-19.4,14-31c0.3-1.8,0.5-3.7,0.7-5.5c0.1-1.3,0.6-2.2,1.7-2.9c0.4-0.2,0.8-0.6,1.2-0.8
		c1.9-1.2,3.7-1,5.5,0.4c0.5,0.4,1.1,0.8,1.6,1.2c1.1,0.8,2.2,1.6,3.1,2.5c1.7,1.7,2,3.9,1.2,6.1c-0.6,1.7-1.7,3.1-2.8,4.4
		c-3,3.7-5.9,7.4-8.9,11.1c-0.3,0.4-0.6,0.9-0.9,1.3c-0.8,1.4-0.5,2.3,0.9,3.4c0.3-0.4,0.5-0.8,0.8-1.2c1.2-2.1,2.8-3.7,5.2-4.4
		c1.3-0.3,2.5-1,3.8-1.3c1-0.2,2.1-0.1,3.1,0.1c2.1,0.6,3.8,1.8,5.4,3.2c1.4,1.3,1.4,2.8-0.1,4.1c-1,0.8-2.1,1.5-3.2,2
		c-4.5,1.9-9.1,3.7-13.6,5.5c-0.7,0.3-1.4,0.5-2,0.8c-0.6,0.3-1.1,0.6-1.5,1.1c-0.9,0.9-0.9,1.7,0,2.6c0.3,0.3,0.7,0.5,1.1,0.8
		c0.4,0.2,0.8,0.4,1.2,0.6c3.8,2,5.2,4.9,4.4,9c-0.9,4.2-2.2,8.3-3.9,12.3c-0.4,0.8-0.7,1.7-0.9,2.5c-0.6,2.6,0.4,4.6,2.2,6.3
		c0.3,0.3,0.7,0.4,1.1,0.5c6.5,2.3,13.1,4.5,19.6,6.8c1,0.4,2.1,0.7,2.9,1.3c1.8,1.2,1.7,3.8-0.2,4.8c-3,1.5-6.2,2.7-9.7,2.5
		c-2.4-0.1-4.6-0.9-6.5-2.3c-1.4-1-2.7-2.2-3.9-3.5c-1.9-2-3.6-4-5.3-6.1c-0.4-0.5-0.9-0.8-1.6-0.9c-0.8-0.1-1.5-0.5-2.3-0.7
		c-1.4-0.4-2.6-0.1-3.6,1.2c-0.7,1-1.6,1.8-2.5,2.6c-2.4,2-5.2,2.4-8.1,1.3c-2.5-0.9-4.6-2.4-6.6-4.2c-0.6-0.5-0.9-1.5-1-2.3
		c-0.4-2.3-0.1-4.7,0.5-6.9c0.7-2.3,2.8-3.8,5.2-3.7c1.2,0.1,2.4,0.4,3.6,0.7c1.8,0.4,3.6,1,5.4,1.3c3.1,0.5,5.1-0.6,6.4-3.5
		c0.9-2,1.4-4.2,1.5-6.4c0-1.1-0.2-2.3-0.5-3.4c-0.3-1.2-1.2-2-2.3-2.5c-1.1-0.5-1.8-0.3-2.5,0.6c-0.5,0.7-0.9,1.4-1.4,2.2
		c-0.5,0.8-1.2,1.5-2.1,1.7c-0.5,0.2-0.9,0.1-1.2-0.3c-0.4-0.7-0.9-1.5-1.2-2.2c-0.3-0.7-0.4-1.5-0.6-2.2
		C500.2,497.6,499.8,497.2,498.7,496.3z M494.3,521.2c0.1,0.7,0.2,1.3,0.4,2c0.5,1.6,1.9,2.4,3.6,2.2c1.4-0.2,2.5-0.9,3.2-2.1
		c1.3-2.1-0.1-4.8-2.4-5c-0.8-0.1-1.7,0-2.5,0.1C495.1,518.7,494.4,519.6,494.3,521.2z"/>
	<path d="M154.6,485.8c1.4-1.3,1.9-2.8,2.1-4.4c0.1-0.5,0.2-1,0.2-1.5c0-0.8,0.4-1.3,0.8-1.9c0.5-0.8,0.7-1.7,1-2.6
		c0.1-0.4,0.2-0.8,0.4-1.1c0.6-1.1,1.3-2.1,1.8-3.1c0.7-1.4,1.2-2.9,2.6-3.9c0.2-0.2,0.4-0.5,0.5-0.8c0.9-1.7,2.2-3.2,3.8-4.3
		c0.4-0.3,0.8-0.6,1-1c1.4-2.2,3.4-3.8,5.6-5.2c2.1-1.3,4.2-2.6,6.3-3.9c1.6-1,3.1-2.1,4.7-3.2c1.1-0.7,2.2-1.4,3.4-2
		c3.1-1.4,6.2-1.3,9.2,0.4c3.9,2.3,6.9,5.6,8.8,9.8c1.1,2.4,1.2,5,0.4,7.5c-0.6,1.7-1.3,3.5-2.2,5.1c-2.5,4.2-3.5,8.7-3.3,13.4
		c0.1,3.4,0.4,6.8,0.6,10.2c0.2,4.6,0.5,9.3,0.5,13.9c0.1,9.9,0.1,19.7,0.2,29.6c0,1.5-0.3,2.9-1.1,4.3c-0.6,1-1.4,1.9-2.5,2.3
		c-1.1,0.4-1.9,0.3-2.7-0.6c-0.9-1-1.7-2.1-2.5-3.1c-0.1-0.1-0.1-0.2-0.2-0.4c-0.9-2.9-1.8-5.7-1.8-8.8c0-10.3-0.3-20.7-0.3-31
		c0-8.6,0.4-17.1,1.7-25.6c0.7-4.4,1.7-8.8,2.5-13.3c0.2-1,0.3-2,0.2-2.9c-0.1-1.2-0.6-1.8-1.7-1.9c-1.9-0.1-3.8,0.1-5.6,0.2
		c-0.2,0-0.4,0.2-0.5,0.3c-0.4,0.9-1.1,1.2-2,1.5c-0.9,0.3-1.5,0.7-2,1.4c-0.4,0.6-1,1.1-1.6,1.6c-0.5,0.4-1.2,0.8-1.8,0.8
		c-1.2-0.1-2,0.6-2.8,1.3c-2.2,1.9-4.1,3.9-5.3,6.6c-0.1,0.3-0.5,0.6-0.9,0.7c-2.2,0.5-3.3,2-3.8,4.1c-0.4,1.8-0.7,3.5-1.1,5.3
		c-0.2,0.7-0.6,1.3-1,1.9c-0.4,0.6-0.8,1.1-1.2,1.6c-0.5,0.7-0.7,1.5-0.4,2.5c1.6-0.4,3.1-0.8,4.7-1.2c1.3-0.4,2-1.4,2-2.8
		c0-1.4-0.1-2.9-0.1-4.3c0-0.9,0-1.9,0.2-2.8c0.4-1.3,1.3-1.7,2.6-1.2c0.3,0.1,0.7,0.2,1,0.4c4.7,1.9,6.7,5.4,6.2,10.5
		c-0.3,2.8-0.3,5.6,0.1,8.3c0.2,1.1,0.9,2,1.4,3c0.1,0.2,0.5,0.3,0.8,0.4c0.8,0.2,1.7,0.3,2.5,0.5c1.4,0.3,2.1,1.1,2.3,2.5
		c0.1,1.3,0.1,2.7,0.1,4c0,2,0,4,0.1,6.1c0.1,3,0.3,6-0.1,9c-0.1,0.5-0.2,1.1-0.3,1.6c-0.7,0.1-1.4,0.2-1.2,1.2
		c-3-0.1-4.6-1.3-5.2-4c-0.3-1-0.4-2-0.6-3c0-0.3,0-0.5-0.1-0.8c-0.8-2.1-1-4.3-1.2-6.6c-0.2-2.1-1.2-3.8-2.5-5.7
		c-0.9,2.2-1.9,4.2-2.3,6.3c-0.3,1.8,0.1,3.5,1.4,4.9c0.2,0.2,0.3,0.4,0.5,0.6c0,0,0,0.1,0.1,0.4c-1,1.3-2.1,2.7-3.3,4
		c-1.2,1.3-2.8,1.7-4.6,1.4c-1.1-0.2-2.1-0.2-3.2,0.1c-0.8,0.2-1.6,0.2-2.4,0.1c-1.4-0.2-1.9-1-1.7-2.4c0.3-2.5,0.7-4.9,1-7.4
		c0.1-0.6,0.1-1.2,0.2-2c-0.6,0.2-1,0.4-1.6,0.6c0.1-0.6,0.2-1.1,0.4-1.5c0.4-0.9,0.8-1.7,1.3-2.5c1.4-2.3,2.2-4.7,1.5-7.4
		c-0.2-1-0.2-2-0.5-3c-1.2,3-1.7,6.1-2.7,9.2c-0.4-0.3-0.8-0.6-1.3-1c-0.1,0.4-0.3,0.7-0.4,1c-0.8,2.8-1.1,5.7-1,8.7
		c0.1,1.7-0.3,3.5-0.6,5.2c-0.8,5.8-1.4,11.5-1.3,17.3c0,0.9-0.1,1.8-0.2,2.7c-0.2,1.6-1,2.9-2.7,3.4c-1.7,0.6-3.1,0.1-4.3-1.2
		c-3-3.2-5-7-5.2-11.4c-0.1-3.5-0.1-7,0-10.5c0.2-7.2,0.4-14.5,0.9-21.7c0.4-5.7,1.1-11.3,1.6-16.9c0.2-2.5,0.2-5,0.3-7.5
		c0.1-2.5,0.2-4.9,0.5-7.4c0.1-1.1,0.4-2.3,0.9-3.4c1.1-2.4,4.2-3.2,6.4-1.8c0.7,0.4,1.2,1.1,1.4,1.9c0.2,0.6,0.3,1.3,0.4,2
		c0.1,3.5,0.2,6.9,0.2,10.4c0,0.4-0.1,0.9-0.3,1.3c-0.8,1.4-1.1,3-1,4.6c0.1,0.9-0.2,1.7-0.5,2.5c-0.4,0.8-0.7,1.6-1,2.4
		C153.6,483.6,153.9,484.7,154.6,485.8z M174.5,488.4c-2.2,3.7-2.3,7.7-1.5,11.9c2.2-1.8,3.1-3.9,2.6-6.5
		C175.3,492,174.9,490.2,174.5,488.4z M170.4,506.5c0.5-0.5,1.1-1,1.6-1.5c0.5-0.7,0.6-1.5,0.3-2.3c-0.2-0.5-0.5-0.9-1.1-1
		c-0.6,0-1,0.1-1.4,0.6C168.8,503.5,169,505,170.4,506.5z"/>
	<path d="M693.9,505c2.2,1,4.3,1.9,6.4,2.8c0.8,0.3,1.2,0.7,1.6,1.5c0.8,1.9,1.6,3.8,1.9,5.9c0.4,2.6-0.1,5-2,6.8
		c-1.2,1.2-2.6,2.1-3.9,3.1c-0.4,0.3-0.9,0.5-1.2,0.9c-1.2,1.5-2.8,2.2-4.7,2.3c-0.7,0.1-1.3,0.3-1.8,0.7c-1.5,1.2-3.2,1.6-5.1,1.2
		c-1-0.2-2-0.5-3-0.9c-2-0.8-3.3-2.3-3.9-4.4c-0.1-0.4-0.2-0.8-0.4-1.2c-1.5-2.6-1.5-5.4-0.8-8.3c0.2-1.1,0.5-2.2,0.8-3.3
		c0.4-1.5,0.3-2.9-0.5-4.3c-0.6-0.9-1-1.9-1.2-3c-0.6-2.2,0-4.1,1.6-5.6c1-0.9,2.2-1.6,3.3-2.3c0.7-0.4,1.1-0.8,1.3-1.6
		c0.6-1.9,0.5-3.8,0.4-5.8c0-0.5-0.1-1.1-0.1-1.6c0-0.7-0.2-1.3-0.7-1.8c-0.9-0.9-0.8-2.1-0.6-3.3c0.2-0.8,0.4-1.6,0.7-2.8
		c-0.4,0.3-0.7,0.5-0.9,0.7c-1.9,2.4-3.9,4.7-5.7,7.2c-2.2,3.2-4.1,6.6-6.2,9.8c-2.9,4.5-5.9,8.9-8.9,13.3c-1.4,2-3.1,3.6-5.2,4.9
		c-2.6,1.7-4.7,1.2-6.1-1.7c-1.1-2.3-1.1-4.6,0.7-6.5c10.5-11.3,18.9-24.1,27.4-36.9c2.1-3.1,3.9-6.4,4.9-10
		c0.6-2.1,1.7-4.1,2.9-5.9c2.1-3.4,3.7-7.1,4.8-11c0.4-1.4,1-2.8,1.5-4.2c0.9-2.5,3-3.6,5.4-4.2c1-0.3,2,0.1,2.7,0.9
		c0.7,0.8,1.4,1.6,2,2.5c0.5,0.8,1.1,1.5,1.9,2c0.9,0.6,1.7,1.1,2.5,1.8c1.4,1.2,1.6,2.4,0.6,3.9c-0.8,1.2-1.7,2.4-2.7,3.6
		c-1.2,1.4-2.5,1.4-3.8,0.1c-0.4-0.5-0.8-1-1.2-1.5c-0.3,0.1-0.7,0.1-1,0.2c-2.2,0.7-4.1,2-5.2,4c-0.8,1.4-1.5,3-2.1,4.5
		c-1.8,5.3-3.5,10.7-5.2,16c-0.4,1.2-0.8,2.5-0.9,3.8c0.2-0.2,0.5-0.3,0.7-0.5c0.9-0.8,1.8-1.8,2.8-2.6c2.5-2,5.2-2.7,8.4-1.8
		c0.2,0.1,0.4,0.1,0.8,0.2c0-0.5,0-0.9-0.1-1.2c-0.4-1.6-0.9-3.1-1.3-4.7c-0.2-0.8-0.4-1.7-0.4-2.5c-0.1-1.6,0.6-2.9,2.1-3.7
		c2.4-1.2,5-1.6,7.6-1c2.3,0.5,3.7,2.1,4.3,4.4c0.2,0.7,0.2,1.4,0.3,2.1c0.1,1.2,0.6,1.6,1.7,1.4c0.4-0.1,0.9-0.2,1.3-0.4
		c0.2-0.1,0.3-0.1,0.5-0.2c2.2-0.9,3.1-0.4,3.6,1.8c0.3,1.2,1.2,1.9,2.4,2c0.3,0,0.7-0.1,1-0.3c1.7-1.1,3.3-2.2,5-3.2
		c1-0.6,1.9-1.3,2.6-2.2c1-1.3,2.1-2.3,3.8-2.5c0.3,0,0.6-0.4,1-0.6c0.5-0.3,1-0.6,1.5-0.8c0.7-0.3,1.5-0.5,2.2-0.8
		c1.7-0.8,3.5-1.7,5.4-2c3-0.5,5.4,0.6,7.4,2.7c0.2,0.2,0.4,0.5,0.4,0.8c0.1,1.3,0.1,2.5,0,3.8c0,0.4-0.6,0.7-0.9,1.1
		c-0.3,0.3-0.7,0.5-0.8,0.8c-0.8,1.8-2.2,3.2-3.5,4.6c-1.4,1.4-2.9,2.8-4,4.5c-0.8,1.3-2.2,2.1-3.5,2.9c-1.2,0.6-2.4,1.1-3.5,1.8
		c-1.1,0.6-2.1,1.4-3.1,2.2c-0.5,0.4-0.9,0.7-1.6,0.6c-1,0-2,0-2.8,0c-0.2,0.2-0.2,0.3-0.2,0.3c0,1.9-0.8,3.6-1.7,5.3
		c-1.1,2.3-1.8,4.8-1.7,7.4c0,0.5-0.1,1-0.2,1.5c-2.3,6.9-2.8,13.9-2.2,21.1c0.5,6.3,1.5,12.5,2.2,18.8c0.3,2.9,0.6,5.8,0.8,8.7
		c0.2,1.9,0,3.9-0.5,5.8c-0.2,0.8-0.6,1.6-1.1,2.3c-1.4,1.9-3.9,1.8-5.2-0.2c-1.1-1.8-2-3.7-2.9-5.6c-0.8-1.7-0.8-3.4-0.3-5.3
		c1.1-3.8,1.3-7.6,1-11.5c-0.3-3-0.6-6.1-1-9.1c-0.6-4.8-0.1-9.6,0.7-14.4c1.1-6,3-11.8,4.6-17.6c0.1-0.4,0.3-0.9,0.4-1.3
		c0.5-2.4,1.9-4.1,3.9-5.5c0.9-0.6,1.6-1.4,2.5-2.1c1.9-1.6,3.8-3.3,5.8-4.8c2-1.5,4.1-2.9,6.1-4.4c1.6-1.2,2.7-2.9,3.7-4.6
		c1-1.7-0.1-3.9-2.1-4.2c-0.5-0.1-1-0.2-1.5-0.2c-0.6,0-1.2,0-1.7,0.2c-2.1,1-4.1,2.1-6.1,3.2c-2.3,1.2-4.5,2.4-6.8,3.6
		c-0.4,0.2-0.8,0.3-1.3,0.4c0,0.4,0.1,0.7,0.1,1.1c0,0.7-0.2,1.3-1,1.4c-0.5,0-0.7,0.3-0.9,0.7c-0.8,1.5-1.6,3-2.3,4.6
		c-0.5,1.1-0.8,2.2-1.1,3.3c-0.3,1-0.6,2-1.1,2.9c-0.7,1.3-1.8,1.8-3.2,1.4c-1.1-0.3-2.1-0.8-3.1-1.3c-0.4-0.2-0.6-0.7-0.8-1
		c-1.4-2.8-1.3-5.6-0.1-8.3c0.5-1.1,0.6-2.3,0.5-3.4c-0.1-1.4-0.7-1.8-2.1-1.3c-1.1,0.5-2.1,1-3.3,1.6c0,3.4-0.1,6.9-0.1,10.3
		c0,3.5-0.3,6.9-0.9,10.4c-0.6,0.1-1.2,0.2-1.9,0.3c-1.2,0.2-2.3,0.7-3,1.7C694.8,498.9,694,501.8,693.9,505z"/>
	<path d="M295.2,564c-0.8-1.9-1.2-3.6-1.5-5.4c-0.6-3.7-0.3-7.4-0.2-11c0.4-9.3,0.6-18.5,0.3-27.8c-0.1-1.4-0.1-2.8-0.2-4.2
		c0-0.5-0.1-1-0.2-1.5c-0.3-1.5-1-2-2.5-1.4c-1.1,0.4-2.1,1.1-3.1,1.6c-1,0.5-2,0.9-3,1.3c-0.8,0.3-1.6,0.1-2.4-0.2
		c-2.5-1-4.3-3.9-3.6-6.6c1-3.8,2.3-7.5,3.6-11.1c0.7-1.9,1.9-2.5,3.9-2c1.8,0.4,3.6,1.1,5.4,1.6c0.6,0.2,1.3,0.3,2,0.4
		c0.6,0.1,1.2-0.2,1.3-0.8c0.3-1.7,1.1-3.4,0.6-5.3c-0.6-1.9-1.5-2.9-3.5-3c-2.1-0.1-4.2,0-6,1.4c-2,1.5-4.1,2.7-6.2,4.1
		c-0.5,0.3-0.9,0.7-1,1.3c-0.1,1.5-0.8,2.7-1.4,4c-0.5,1-0.9,2.1-1.5,3c-1,1.6-1.2,3.4-1.2,5.2c-0.1,2.9-0.2,5.8-0.8,8.7
		c-0.2,1.1-0.7,2.1-1.4,3c-1.1,1.3-2.1,2.6-3.2,3.8c-1.9,2.3-3.4,4.7-4.3,7.6c-0.6,2.2-2.1,3.1-4.4,2.9c-0.5,0-1-0.1-1.4-0.3
		c-3.5-1.2-6.6-3.1-9-5.9c-3.4-4-4-8.5-2.6-13.4c0.2-0.8,0.6-1.6,0.9-2.4c0.3-0.9,0.7-1.8,1-2.8c0.4-1.1,1-2.1,1.9-2.9
		c1.3-1.2,2.2-2.5,2.9-4.1c1.7-3.5,4.3-6.3,7.6-8.4c0.8-0.5,1.3-1.1,1.7-1.9c1.6-3.1,1.9-6.2,0.9-9.6c-0.7-0.3-1.4,0-1.9,0.3
		c-0.8,0.4-1.6,1-2.3,1.6c-1,0.7-1.8,1.6-2.8,2.3c-3.5,2.3-7.6,0.4-8.2-3.7c-0.3-2.3,0.1-4.3,1.7-6.2c2.3-2.7,4.5-5.5,6.8-8.2
		c2.4-2.8,5-5.4,8.1-7.5c0.7-0.5,1.3-1.1,1.9-1.8c1.1-1.2,2.2-2.3,3.8-3c0.3-0.1,0.5-0.5,0.8-0.9c0.5-0.8,0.9-1.7,1.5-2.4
		c1.8-2.5,4.3-3.8,7.4-3.8c1.6,0,3.1,0.1,4.7,0.3c1.7,0.2,2.8,1.2,3.2,2.9c0.2,0.9,0.4,1.9,0.5,2.8c0.2,1.6-0.3,3-1.5,4
		c-0.7,0.6-1.5,1.2-2.3,1.7c-4.2,2.8-8.3,5.5-12.5,8.3c-0.1,0-0.2,0.1-0.2,0.2c-1.2,1.6-2.2,3.3-2.2,5.4c0,0.4,0.4,0.9,0.7,1.2
		c0.4,0.5,0.7,1,0.8,1.7c0,0.4,0.3,0.9,0.6,1.2c1.7,1.7,2.2,3.8,2.2,6.2c0,1,0.1,2,0.2,3c0.2,1.7,1,3.1,2.5,4
		c0.3-0.2,0.6-0.4,0.9-0.6c1.5-1.3,2.9-2.5,4.4-3.8c1.1-0.9,2.1-1.9,2.8-3.1c0.3-0.5,1-0.9,1.5-1.2c0.7-0.4,1.4-0.6,2.1-1
		c5-2.5,7.6-6.7,8.2-12.2c0.4-3.2,0.1-6.5-0.1-9.7c-0.1-1.7-0.2-3.3-0.1-5c0.2-2.8,1.8-4.2,4.5-4.3c0.7,0,1.4,0,2,0.1
		c3.4,0.5,5.6,2.9,5.5,6.4c-0.1,2.3-0.5,4.6-0.9,6.8c-0.6,3-1.4,6-2.1,9.1c-0.7,3.3-1,6.6-0.5,9.9c0.6,3.9,2.2,7.2,4.7,10.1
		c0.5,0.5,1,1.1,1.4,1.7c1.3,2,1.3,4.1-0.1,6c-0.4,0.6-0.9,1.2-1.6,1.7c-3,2-4.4,5-4.9,8.5c-1.2,7.9-2.4,15.7-2.9,23.7
		c-0.2,3.2-0.3,6.5-0.3,9.7c0.1,4.1-0.7,8-2.3,11.7C298.7,558.6,297.1,561.2,295.2,564z M256.4,512.9c-0.1,2.3-0.1,4.6-0.2,6.9
		c-0.1,1.9,0.7,3.4,1.9,4.7c1.1,1.2,2.3,1.4,3.8,0.7c1.7-0.8,2.6-2.2,3-4c0.7-3.4-0.6-6.1-3.1-8.3
		C260.2,511.7,258.4,511.7,256.4,512.9z"/>
	<path d="M623.8,486.8c-0.4,0-0.8,0-1.1,0.1c-1.4,0.1-2.8,1.6-2.8,3c0,1.2,0.9,1.8,2,1.2c0.7-0.4,1.2-1.1,1.7-1.7
		c0.5-0.6,0.9-0.9,1.7-0.9c0.9,0.1,1.9,0.1,2.8,0.3c2.7,0.5,4.3,3.7,3.4,6.2c-0.3,0.9-1,1.5-1.9,1.8c-0.9,0.3-1.9,0.6-2.9,0.8
		c-2.1,0.5-3,1.5-3,3.7c-0.1,1.7,0,3.4-0.1,5.1c-0.3,4.5-0.6,9-1,13.5c-0.5,6.6-1,13.3-0.1,19.9c0.2,1.3,0.4,2.7,0.6,4
		c0.7,4.1-2.9,7.4-6.9,6.3c-0.7-0.2-1.4-0.6-1.9-1.1c-1.2-1.3-2.7-2-4.3-2.6c-1-0.3-2-0.7-2.9-1.1c-0.9-0.4-1.8-0.9-2.4-1.8
		c0.8-1.7,1.8-2.4,3.6-2.2c1.1,0.1,2.2,0.3,3.4,0.3c2.6,0,4.2-1.3,4.8-3.9c0.2-1.3,0.3-2.6,0.3-3.9c-0.1-5.2-0.3-10.4-0.4-15.7
		c-0.1-2.7-0.1-5.5-0.1-8.2c0-0.6,0.2-1.2,0.3-1.8c0.2-0.9,0-1.6-0.7-2.3c-1.1-1.1-2.1-2.2-3.1-3.4c-0.6-0.6-1.1-1.3-1.5-2.1
		c-1.2-1.8-1.5-3.8-0.7-5.8c0.7-1.9,1.6-3.8,2.5-5.7c0.8-1.8,1.8-3.5,2.6-5.3c0.9-2.2,1.4-4.5,1-6.9c-0.3-1.9-0.5-2-2.3-2
		c-0.2,0-0.4,0-0.9,0c0.4,0.4,0.7,0.7,1,1c0.9,1,1,1.6,0.4,2.8c-0.5,1-0.8,2.2-1.3,3.2c-0.1,0.3-0.3,0.7-0.5,0.9
		c-1.3,0.8-2.6,1.6-4.2,1.8c-1.9,0.2-2,0.5-2.3,2.4c-0.5,2.5-0.9,5-1.4,7.6c-0.5,2.7,0.4,4.8,2.7,6.2c0.9,0.5,1.7,1.2,2.5,1.9
		c0.8,0.7,1.2,1.7,1.2,2.9c0,1.1-0.6,1.8-1.6,2.2c-0.8,0.3-1.7,0.5-2.5,0.9c-2.9,1.4-4.2,3.5-3.7,6.6c0.5,3,0.1,5.9-0.6,8.8
		c-0.6,2.6-1.1,5.2-1.6,7.8c-0.2,0.7-0.3,1.4-0.7,2c-0.7,1.4-2.5,1.8-3.7,0.7c-0.9-0.8-1.6-1.7-2.2-2.7c-0.2-0.3-0.2-0.9-0.1-1.3
		c0.1-4.1,0.2-8.3,0.3-12.4c0-0.4,0-0.8,0-1.2c-0.1-0.7-0.3-1.2-1-1.5c-0.7-0.3-1.3-0.1-1.9,0.3c-0.8,0.7-1.1,1.6-1.2,2.6
		c-0.1,0.7-0.2,1.5-0.4,2.2c-0.2,0.9-0.8,1.5-1.6,1.8c-0.8,0.3-1.5,0.5-2.3,0.8c-0.7,0.3-1,0.7-1.2,1.5c-0.2,1.5-0.6,3-1,4.5
		c-0.6,2.2-1.8,2.8-4,2c-0.5-0.2-0.9-0.5-1.3-0.6c-1.3-0.4-2-1.2-1.7-2.6c0-0.1,0-0.3-0.1-0.4c-1.2-3.6-0.6-7.3-0.5-11
		c0-0.7,0.1-1.4,0-2.2c-0.1-1.4-0.5-1.9-2.1-2.6c-0.4,0.7-0.8,1.5-1.2,2.2c-0.8,1.5-1.6,3.1-2.5,4.7c-1.9,3.3-4.6,5.3-8.4,6.1
		c-0.2,0-0.4,0.1-0.7,0.1c-0.7,0.1-1.3-0.2-1.7-0.9c-0.3-0.6-0.2-1.4,0.4-2c0.6-0.6,1.3-1.1,1.7-1.7c0.6-0.9,1-1.8,1.4-2.8
		c0.6-1.5,1.3-3,2.4-4.4c0.8-1.1,1.3-2.6,2-3.8c1.6-2.7,3.2-5.3,4.8-7.9c1.5-2.5,3.1-5,4.6-7.5c0.2-0.4,0.4-0.8,0.6-1.2
		c0.5-1.5,1.3-2.8,2.6-3.9c0.4-0.4,0.7-1,0.9-1.6c0.3-1.4,0.5-2.7,0.6-4.1c0.1-1.2-0.3-1.7-1.3-1.8c-1.1-0.1-1.8,0.4-1.8,1.6
		c0,1.9-0.8,3.6-1.5,5.3c-0.2,0.6-0.6,0.9-1.3,1c-1.1,0.1-2.2,0.3-3.3,0c-1.4-0.4-2.1-1.2-2.1-2.6c0-1,0.2-2.1,0.6-3
		c3-7.7,6.9-15,11.8-21.6c0.7-1,1.4-2,1.8-3.1c0.4-1.1,0.9-2.2,1.3-3.2c0.1-0.3,0.2-0.6,0.4-0.9c1.1-2.1,2.7-3.1,4.5-2.8
		c2.1,0.4,4.2,2.6,4.5,4.5c0.1,1.1-0.2,2-0.9,2.7c-0.7,0.7-1.5,1.3-2.2,1.9c-1.1,0.9-2,1.8-2.5,3.1c-0.6,1.3-1.3,2.6-2,3.8
		c-0.6,1-0.7,2-0.6,3.1c0.3,1.6,0.6,3.3,0.8,4.9c0.3,2.1,0.7,4.3,1,6.4c0.2,1.7-0.2,3.4-0.9,5c-0.4,0.8-0.9,1.4-1.4,2.1
		c-0.7,0.9-1.5,1.8-2.1,2.8c-1.1,1.7-1.2,3.5-0.3,5.5c0.7-0.1,1.4-0.2,2.3-0.3c-0.1-0.4-0.1-0.6-0.1-0.8c-0.2-1.2,0.2-2.2,1.1-2.9
		c5.6-4.3,8.7-10.2,10.1-17c0.7-3.4,1.1-6.9,1.6-10.4c0.5-3.7,0.9-7.3,1.3-11c0.1-0.7,0-1.4,0-2.1c0-0.8-0.2-1.6-0.2-2.4
		c0-1.6,0.7-2.3,2.3-2.5c2.7-0.3,4.9,0.7,6.6,2.9c1,1.3,1.5,2.9,1.9,4.4c0.1,0.4,0,0.9-0.1,1.3c-0.8,3.6,0.3,6.4,3.3,8.5
		c1,0.7,2,1.3,3,1.8c1,0.4,1.4,1.1,1.7,2.1c0.2,0.7,0.5,1.4,0.8,2c0.9,1.6,2.4,2.2,4.2,2c0.6-0.1,1.2-0.2,1.9-0.3
		c3.1-0.5,5.3,1.3,5.5,4.4c0,0.8,0.1,1.6,0,2.4c-0.2,1.9-1.2,3-3.1,3.3c-0.5,0.1-1,0.1-1.5,0.1c-1.9,0.1-2.7,0.8-3,2.7
		C623.9,486,623.8,486.4,623.8,486.8z M588.6,514.2c0.5-1,0.9-1.7,1.3-2.5c1.8-3.7,3.3-7.6,4.1-11.7c0.5-2.5,0.5-2.6-0.7-4.7
		c-0.2-0.3-0.5-0.7-0.8-0.9c-0.5-0.3-0.9-0.3-1.2,0.3c-1.4,3.1-3,6.1-2.4,9.7c0,0.3,0,0.5,0,0.8c0.1,2.4-0.5,4.7-1.4,6.9
		c-0.2,0.4-0.3,0.7-0.5,1.2C587.5,513.7,588,513.9,588.6,514.2z M612.7,474.5c-0.7-1.6-1.4-2.9-2.6-3.9c-0.9-0.7-1.8-0.8-2.7-0.2
		c-1.4,0.9-2.1,2.2-2.8,3.8C607.3,474.3,609.9,474.4,612.7,474.5z"/>
	<path d="M81.6,535.3c-0.1-3.3-0.1-6.6-0.2-9.8c-0.1-4.1,0.6-8.1,1.2-12.2c0.3-1.7,0.3-3.5,0.2-5.2c-0.2-2.7-1.6-4.7-4.1-5.9
		c-2-1-4.2-1.6-6.4-1.7c-12.6-0.8-20.4-13.1-21.6-21.7c-0.4-3.3,0-6.3,1.2-9.4c0.3-0.7,0.6-1.3,1-1.9c1.4-2,3.2-2.6,5.5-1.7
		c1.1,0.4,2.1,1.1,3.1,1.7c0.8,0.5,1.5,1.1,2.3,1.7c0.8,0.6,1.2,1.4,1.4,2.4c0.2,1.1,0.4,2.1,0.7,3.2c0.4,1.2,1.3,1.5,2.3,0.9
		c0.3-0.2,0.5-0.5,0.7-0.8c1.4-2.7,3.4-4.9,5.6-6.8c1.7-1.4,3.4-2.8,5.1-4.2c1.6-1.2,2.4-2.8,2.4-4.7c0.1-1.7-0.2-3.5-0.3-5.2
		c-0.1-1.5-0.3-2.9-0.5-4.4c0-0.4-0.2-0.8-0.3-1.1c-0.3-0.9-0.8-1.8-0.9-2.7c-0.2-2.4-0.4-4.8-0.4-7.1c0.1-2.7,1.5-4.1,4.2-4.7
		c1.5-0.3,3-0.3,4.5,0.1c2.1,0.6,3.4,2,3.5,4.1c0.3,3.6,0.1,7.1-1.4,10.5c-0.2,0.4-0.3,0.9-0.4,1.4c-0.2,1.3-0.4,2.7-0.5,4
		c-0.1,0.9-0.1,1.9,0.1,2.8c0.3,1.6,1.2,2.5,2.8,2.6c1.1,0.1,2.3,0.1,3.5-0.2c4.2-0.8,8.2-0.5,12.2,0.8c0.8,0.3,1.6,0.6,2.3,1.1
		c1.3,0.9,2,2.2,2.2,3.7c0.1,0.7,0.2,1.3,0.4,2c1.1,2.9,0.7,5.7-1.1,8.2c-0.6,0.8-1.2,1.7-2,2.3c-2.2,1.9-4.3,3.9-6.7,5.4
		c-6.3,4.1-10,9.8-11.7,17c-0.9,3.7-1.3,7.4-1.6,11.2c-0.4,4.6-0.8,9.1-1.2,13.7c-0.5,5.8-0.9,11.7-0.1,17.5c0.4,2.9,1,5.8,2.1,8.5
		c0.9,2.3,0.7,4.7,0.3,7.1c-0.3,1.5-1.2,2.5-2.8,2.8c-1.5,0.3-2.6-0.5-3.4-1.7c-0.5-0.8-0.8-1.6-1.2-2.4c-0.9-2.2-1.8-4.3-2.1-6.7
		c-0.1-0.6-0.1-1.3-0.1-1.9c0-4.2,0-8.4,0-12.5C81.7,535.3,81.7,535.3,81.6,535.3z M83.1,476.7c0-0.4,0.1-0.8,0.1-1.2
		c0-1.1-0.5-1.8-1.8-2.1c-1-0.2-1.7,0.1-2.2,1.1c-0.2,0.6-0.4,1.2-0.5,1.8c-0.1,2.5-1.2,4.6-2.9,6.3c-0.4,0.4-0.7,1-0.8,1.6
		c-0.3,1-0.4,2-0.5,3.1c-0.1,0.6,0,1.3,0.2,1.8c0.1,0.4,0.6,0.9,1,0.9c1.4,0.2,2.7,0,3.6-1.2c1-1.3,1.8-2.8,2.4-4.3
		C82.7,481.9,83,479.3,83.1,476.7z M90.7,468.5c-0.3,1.3-0.4,2.3-0.7,3.2c-0.8,2.7-0.3,3.5,2.6,3.7c0.1,0,0.2-0.1,0.2-0.1
		c0.7-1,1.5-1.8,2.3-2.6c0.6-0.6,1.2-1.1,1.7-1.7c0.9-1,1.2-2.2,0.9-3.6C95.2,466.7,92.8,467.2,90.7,468.5z"/>
	<path d="M380.9,461.6c2.1-1,3.1-2.5,3.3-4.4c0.1-0.8,0.4-1.4,1-1.9c2.3-2,3.7-4.5,4.4-7.4c0.6-2.4,0.9-4.9,1.4-7.4
		c0.2-1.3,0.5-2.6,0.9-3.8c0.7-2.1,1.8-2.7,3.8-2c1.3,0.4,2.6,1,3.8,1.7c0.5,0.3,0.9,0.8,1.3,1.3c0.5,0.7,0.9,1.5,1.3,2.2
		c0.6,1.1,1.4,2.1,2.4,2.9c1,0.7,1.8,1.6,1.5,2.9c-0.3,1.3-1.4,1.9-2.6,2.1c-6.6,1.4-10.9,10.4-7,16.9c1.5,2.5,2.8,4.8,2.2,7.9
		c1,0.2,1.8,0.4,2.6,0.6c2.2,0.5,4.4,1.3,6.4,2.4c3.8,2.2,6.2,5.5,7.1,9.8c0.6,2.7-0.5,4.7-3,5.8c-4.1,1.8-8.4,2.3-12.8,1.8
		c-1.9-0.2-3.8-0.6-5.7-1c-0.6-0.1-1.1-0.3-1.6-0.6c-0.8-0.5-0.9-1.3-0.3-2.1c0.4-0.4,0.9-0.8,1.4-1c0.6-0.3,1.2-0.6,1.9-0.8
		c1.9-0.6,3.7-1.4,5.1-2.9c0.4-0.5,1.1-0.8,1.6-1.2c0.5-0.4,1.1-0.8,1.6-1.2c1.1-0.9,1.6-2.1,1.1-3.5c-0.5-1.5-1.5-2.6-3.1-2.8
		c-2.2-0.2-4.4,0-6.4,1.1c-7.6,4.1-15.3,8.1-22.6,12.7c-5.2,3.3-10.3,6.8-14.9,10.9c-0.6,0.5-1.1,1.1-1.4,1.9
		c-0.5,1.3-1.4,2.3-2.5,3.1c-1.9,1.4-3.9,2.8-5.9,4c-3.3,2-5.6,1.3-7.4-2.1c-0.4-0.9-0.8-1.8-1-2.8c-0.5-2.2,0.2-4,2-5.4
		c0.9-0.7,1.9-1.2,3-1.5c1.3-0.5,2.4-1.1,3.5-2c1.5-1.4,3.3-2.6,4.7-4c1.1-1.2,2.4-1.8,3.9-2.2c1.2-0.3,2.4-0.9,3.6-1.6
		c3.7-2.1,5.7-5.3,5.5-9.6c-0.1-1.9-0.3-3.9-0.8-5.7c-1.4-4.9-1.4-9.8-1.1-14.7c0.2-3.1,0.7-6.3,1-9.4c0,0,0-0.1,0-0.1
		c0.3-2.6,1.5-3.8,3.8-4c2.2-0.2,4.6,1.2,5.3,3.1c0.4,1.1,0.2,2.2-0.3,3.3c-0.4,1-0.9,2.1-1.3,3.1c-0.9,1.9-0.7,4-1.3,5.9
		c-0.3,1-0.6,2-1,2.9c-0.6,1.4-0.9,2.8,0.1,4.1c0.3,0.4,0.6,0.9,1.2,0.7c0.4-0.2,0.8-0.6,1-1c0.3-0.8,0.4-1.7,0.6-2.6
		c0.1-0.7,0.3-1.5,0.4-2.3c0.3-1.5,0.6-2.8,1.9-4c1.8-1.5,2-3.8,2.3-6c0.3-2.9,0.7-5.9,1.1-8.8c0-0.1,0-0.2,0-0.3
		c0.5-2.7,2.7-3.7,5.2-2.3c0.8,0.5,1.3,1.1,1.3,2.1c0,0.8,0,1.7-0.2,2.5c-0.5,2.7-1.4,5.3-2.4,7.9c-0.8,1.9-1.4,3.9-1.2,6
		C380.5,459.5,380.7,460.4,380.9,461.6z M384.7,467.3c-0.6,1.4-1.2,3-1.8,4.5c-0.3,1-0.7,2-0.8,3c-0.1,2.3,1.8,3.6,3.9,2.6
		c1.1-0.5,2.1-1.2,3-2c1.8-1.8,1.6-3.6-0.4-5.1c-0.2-0.2-0.5-0.4-0.8-0.6C386.7,468.8,385.6,468,384.7,467.3z M379.8,479.5
		c-1-1.1-1.9-1.8-2.9-2.1c-1.7-0.7-4,0.3-4.8,2c-0.3,0.7-0.2,1.3,0.5,1.7c0.9,0.5,1.9,0.6,2.9,0.4
		C377.1,481.1,378.4,480.3,379.8,479.5z"/>
	<path d="M381.9,492.7c3.7,0,5.5,1.8,6.5,5.2c0.6,1.9,0.2,3.9-0.7,5.6c-0.5,1-1.2,2-1.8,3c-1.5,2.3-1.8,4.8-0.7,7.3
		c0.1,0.3,0.4,0.7,0.7,0.9c0.7,0.6,1.5,1.2,2.2,1.8c0.5,0.4,0.9,0.9,1.4,1.3c1.3,0.9,2.4,0.9,3.7,0c0,0,0.1-0.1,0.1-0.1
		c2.8-1.9,4.7-1.5,6.5,1.4c0.5,0.8,0.9,1.6,1.2,2.4c0.6,1.9,0.1,3.4-1.7,4.1c-1.5,0.6-3.2,1-4.8,1.4c-0.9,0.2-1.9,0.3-2.8,0.6
		c-2.7,0.9-4.2,2.9-4.4,5.7c0,1,0,2,0.1,3c0.3,2.3,0.4,4.7-0.4,6.9c-0.8,2.3-2.1,4.4-3.7,6.2c-1.5,1.7-3.1,1.7-4.7,0.1
		c-0.4-0.4-0.8-0.8-1-1.2c-0.6-1-1.4-1.6-2.5-2c-0.8-0.3-1.6-0.7-2.3-1.1c-1-0.5-1.7-1.2-2.3-2.2c-0.4-0.6-0.9-1.2-1.3-1.9
		c-3.1-4.2-2.8-7.7,1.4-11c1.6-1.3,3.6-2.2,5.3-3.4c1.7-1.2,3.3-2.5,4.7-4c1.2-1.3,1.3-3,0.4-4.6c-0.9-1.6-1.8-3.1-2.7-4.7
		c-0.1-0.2-0.3-0.5-0.5-0.6c-1.5-1.2-1.4-3.1-0.7-4.6c0.3-0.6,0.6-1.2,0.8-1.8c0.7-2.2,0.1-3.8-2.1-4.5c-1.6-0.5-2.4-1.7-3.1-3
		c-0.9-1.7-0.5-3,1.3-3.7c2.2-0.9,4.5-1.6,6.7-2.3C381.2,492.7,381.7,492.7,381.9,492.7z M376.1,543.7c1.3-0.6,2.5-1.2,3.7-1.9
		c1-0.6,1.6-1.5,2-2.6c0.3-1,0.9-1.9,1.2-2.8c0.3-0.7,0.5-1.5,0.7-2.3c0.1-0.7-0.1-1.3-0.7-1.7c-0.9-0.5-1.8-0.9-2.7-1.1
		c-0.5-0.1-1.1,0.4-1.6,0.7c-1,0.7-2,1.4-2.9,2.2c-0.7,0.5-1.2,1.2-1.8,1.8c-0.8,1.1-1,2.3-0.5,3.6
		C374,541.1,374.9,542.4,376.1,543.7z"/>
	<path d="M723.8,533.6c0.2-1.2,0.4-2.5,0.5-3.9c0.2-1.7,0.4-3.4,0.3-5.1c0-1.9-0.6-3.7-1.8-5.3c-0.2-0.3-0.4-0.6-0.7-1
		c2.2-1.9,4.2-3.9,7.1-4.4c0.9-0.1,1.8-0.2,2.7-0.3c0.9-0.1,1.9-0.2,2.7-0.8c0.6-0.4,1.5,0,1.5,0.7c0.1,1,0.8,1.5,1.4,2
		c1.7,1.3,1.9,2,1.3,4.1c-0.3,0.9-0.7,1.8-0.9,2.7c-0.1,0.6-0.1,1.3,0.1,2c0.2,0.7,0.8,1.1,1.5,1.4c0.9,0.3,1.8,0.6,2.6,1.1
		c1.6,0.9,2.2,2.2,1.7,4c-0.5,2-1.2,4-2.4,5.7c-1.5,2.2-3.4,2.8-5.9,1.8c-0.9-0.3-1.8-0.9-2.6-1.4c-1-0.6-2-1.2-3-1.8
		c-1.8-1-3.6-1.5-5.7-1.3c-0.2,0-0.4,0-0.5,0C724,533.8,724,533.8,723.8,533.6z"/>
	<path d="M726.9,489.1c0.6-0.4,1.2-0.8,1.7-1.2c1.2-0.9,2.5-1.2,3.9-1.1c1.1,0.1,2.2,0.3,3.3,0.5c0.3,0,0.6,0.2,0.8,0.4
		c1.7,1.7,2.4,3.7,1.6,6c-0.2,0.7-0.5,1.4-0.9,2c-1.6,2.5-2.2,5.3-2.7,8.1c-0.3,1.5-0.5,2.9-0.8,4.4c-0.1,0.4-0.3,0.7-0.6,1
		c-0.6,0.6-1.4,1-2,1.6c-1.3,1.1-2.8,1.3-4.3,0.7c-1.2-0.5-2.4-1.2-3.5-2c-1.3-0.9-1.6-2.2-1.2-3.6c0.2-0.8,0.5-1.6,0.7-2.5
		c0.3-1,0.8-1.9,1.7-2.5c1.5-1.1,2.3-2.6,2.2-4.4c-0.1-1.6-0.3-3.2-0.4-4.8c-0.1-0.8,0-1.7,0-2.5
		C726.7,489.1,726.8,489.1,726.9,489.1z"/>
	<path d="M731.4,443c1,0.1,2,0.2,2.9,0.4c0.5,0.1,0.9,0.4,1.3,0.7c1.1,1,2.2,2.1,3.1,3.2c1.7,2.1,1.4,3.9-0.8,5.4
		c-1.8,1.2-3.6,2.4-5.4,3.5c-1.4,0.8-2.9,1.4-4.6,1.6c-2.3,0.3-3.8-0.6-4.6-2.8c-1-2.8-0.3-5.4,1.4-7.7c0.7-0.9,1.5-1.8,2.3-2.6
		C728.3,443.4,729.8,443,731.4,443z"/>
	<path d="M182.3,522.8c-0.9,2-2.4,3.4-4.4,4.2c-1.5,0.6-3,0.9-4.5,1.4c-1.6,0.4-3.2,0.9-4.8,1.2c-0.5,0.1-1.2,0.2-1.7,0
		c-1.3-0.5-2.2-1.4-2.8-2.6c-0.8-1.6-0.1-3.1,1.5-3.7c0.7-0.2,1.4-0.3,2.1-0.5c0.8-0.3,1.5-0.8,2.3-1c0.8-0.2,1.6,0,2.4-0.1
		c0.7-0.1,1.5-0.4,2.2-0.7c0.7-0.2,1.4-0.6,2.2-0.8C179.3,519.5,181.1,520.3,182.3,522.8z"/>
	<path d="M184.1,487.4c0-0.8,0-1.6,0-2.4c0.1-1.1,0.5-2,1.3-2.7c0.8-0.7,1.5-0.8,2.5-0.4c2.8,1.4,3.6,4,2.2,6.8
		c0,0.1-0.1,0.2-0.1,0.2c-1.2,2.3-1.6,2.5-4.2,2.6c-1,0-1.4-0.3-1.5-1.3c-0.1-0.9,0-1.9,0-2.8C184.2,487.4,184.1,487.4,184.1,487.4z
		"/>
</g>
</svg>
