<?xml version="1.0" encoding="utf-8"?>
<!-- Generator: Adobe Illustrator 22.1.0, SVG Export Plug-In . SVG Version: 6.00 Build 0)  -->
<svg version="1.1" id="图层_1" xmlns="http://www.w3.org/2000/svg" xmlns:xlink="http://www.w3.org/1999/xlink" x="0px" y="0px"
	 viewBox="0 0 800 800" style="enable-background:new 0 0 800 800;" xml:space="preserve">
<style type="text/css">
	.st0{fill:#B8282F;}
	.st1{fill:#23814D;}
	.st2{fill:#0055A6;}
	.st3{fill:#606164;}
	.st4{fill:#67696B;}
</style>
<g>
	<polygon class="st0" points="212.4,354.2 282.3,381.7 350.1,492.8 343.9,567.8 273.7,539.8 205.8,428.4 	"/>
	<polygon class="st1" points="519.9,361.7 592.7,347.1 587.2,421.5 509.6,508.3 436.3,522.9 443,447.8 	"/>
	<polygon class="st2" points="417.9,227.8 457,290.2 436.3,522.9 387.1,578.7 348.2,515.1 368.5,283.2 	"/>
	<g>
		<polygon class="st3" points="350.1,492.8 350.1,492.8 350.1,492.8 		"/>
		<polygon class="st3" points="436.4,522.7 436.3,522.8 436.4,522.7 		"/>
		<path class="st3" d="M515.1,351.6l-57.6,63.6L468.4,288l-48.7-78.7L357,277.7l-15.7,180.1l-52.1-85.9l-87-34.1l-8,93.1L266,548.6
			l87.6,35.2l2.3-34.6l29.2,48.1l57.3-64.1l73-14.6l82.7-92.8l7.4-92.5L515.1,351.6z M587.2,421.4l-77.6,86.8l-63,12.6l0,0.1
			l-3.4,0.6l-6.8,1.4l-49.2,55.8l-38.9-63.4l-4.4,52.5l-70.2-28.1l-67.9-111.4l6.6-74.2l69.9,27.5l67.8,111.1l18.4-209.6l49.4-55.4
			l39.1,62.4l-14,157.6l0,0l77-86.2l72.7-14.6L587.2,421.4z"/>
	</g>
	<g>
		<path class="st4" d="M410.2,749.8c-4.1,0-7.6,0-11.6,0c-0.1-1.6-0.2-3-0.2-4.5c-0.3-10.4-0.6-20.9-1-31.3c-0.1-4.1-2-5.4-6.6-5.3
			c-4.8,0.2-6.2,1.3-6.1,5.6c0.3,10.6,0.8,21.1,1.1,31.7c0,1.5-0.2,2.9-0.3,4.6c-2.1,0.1-3.8,0.3-5.6,0.4c-5.6,0.2-6.2-0.7-6.2-6.2
			c0-9,0.2-18.2-0.8-27.1c-1.6-12.9,6.1-17.7,15.6-18.3c4-0.2,8.1,1,12.1,1.4c1.5,0.1,3.2-0.1,4.6-0.6c6.4-2.3,12.9-2.6,19.3-0.2
			c5.6,2.1,8.6,6.6,8.8,12.6c0.4,10.7,0.8,21.4,1.3,32.1c0.2,3.2-0.6,5.1-4.2,4.8c-1.1-0.1-2.2,0-3.3,0.1c-3.6,0.3-4.7-1.6-4.8-4.9
			c-0.2-10.5-0.6-21.1-0.9-31.6c-0.1-4.1-1.5-5.1-6.5-5c-4.7,0.2-6.3,1.5-6.2,5.7c0.4,10.7,0.9,21.4,1.4,32.1
			C410.2,746.9,410.2,748.1,410.2,749.8z"/>
		<path class="st4" d="M688.6,602.6c-3.2,2.8-5.9,5.3-8.9,8c-4.2-3.9-8.2-7.8-12.3-11.6c-4.4-4.1-8.9-8.2-13.3-12.3
			c-3.4-3.2-6-3.2-8.8-0.2c-3.8,4.1-3.7,6.4,0.2,10c8.4,7.7,16.8,15.4,25.5,23.5c-2.5,2.8-5,5.5-7.7,8.4c-5.1-4.7-10-9.1-14.8-13.5
			c-3.9-3.6-7.9-7.3-11.8-10.9c-3-2.8-5.2-2.5-8.3,0.9c-3.2,3.6-3.4,5.7-0.6,8.3c7.9,7.2,15.8,14.4,23.7,21.7c1,0.9,1.8,2,3,3.2
			c-2.5,2.8-4.9,5.4-7.6,8.3c-1.6-1.4-3.1-2.5-4.5-3.8c-7.4-6.9-14.6-14.2-22.4-20.7c-6.4-5.3-6.6-12-3.1-17.5
			c2.7-4.3,6.7-8,10.8-11c2.3-1.7,4-3.3,5.2-5.9c2.7-5.8,7-10.1,12.8-12.9c4.4-2.2,9-2.3,12.7,1
			C668.6,584.2,678.1,593.1,688.6,602.6z"/>
		<path class="st4" d="M72.6,407.9c0.9-0.3,1.1-0.5,1.4-0.5c10,0.3,7.9-0.6,8.1,7.7c0.1,4.5,0,9.1-0.1,13.6c0,0.2-0.2,0.5-0.3,0.7
			c-6.4,0-12.8,0.5-19.2-0.2c-6-0.6-10.4-6.8-11-15.1c-0.3-4,0.1-8.2,1.1-12.1c1.9-7.4,6.5-10.5,14.2-10.4c8,0.1,15.9,0.3,23.9,0.5
			c6.2,0.2,10.6,3.7,12.4,11.1c1.7,7,1.6,14.1-2.3,20.7c-2.4,4.1-9.8,8.1-16.2,5.4c0-3.6,0-7.2,0-11.1c1.1-0.1,2-0.2,3-0.3
			c5.4-0.2,6.4-1.2,6.6-6.4c0.1-5.6-1.4-7.6-6.4-7.8c-6.9-0.2-13.7-0.3-20.6-0.2c-4.2,0-5.8,2.2-5.9,7.1c-0.1,4.8,1.7,7.1,5.8,7.3
			c5.6,0.3,5.7,0.2,5.7-5.5C72.6,411,72.6,409.5,72.6,407.9z"/>
		<path class="st4" d="M170.4,634.4c-2.6-2.7-4.7-5-7.4-7.8c2.3-2.1,4.4-4.1,6.3-5.7c5.4,4.8,10.6,9.6,16.3,14.7
			c-5.2,5-9.7,9.6-14.6,13.6c-1.8,1.4-4.9,1.9-7.4,1.8c-9.6-0.3-20.9-12.5-20.2-22c0.2-2.7,1.6-5.9,3.4-7.9
			c5.5-6,11.5-11.4,17.2-17.1c3.7-3.7,8-4.7,12.8-3.1c8.3,2.8,14,8.4,16.8,16.7c2,6-0.4,11.9-6.9,16.7c-1.5-1.7-3-3.4-4.6-5.1
			c-1-1.1-2-2.2-3-3.3c0.3-0.5,0.3-0.9,0.6-1.2c4.5-4.3,4.3-7.3-0.6-11.3c-2.8-2.3-5.4-2.5-8,0.2c-5.1,5-10.1,10-15.2,15.1
			c-2.9,2.9-1.5,5.4,0.8,7.8c3.7,3.9,5.9,4.5,8.7,2.3C167.2,637.4,168.6,636,170.4,634.4z"/>
		<path class="st4" d="M120.2,503.7c0.2,10.2-2.9,14.5-12.3,17c-6.3,1.7-12.7,3.4-19.1,5c-7.9,2.1-12.1,0.9-16.7-5.8
			c-4.7-6.7-6.5-14.2-4.4-22.3c1.2-4.7,4.2-7.8,9.1-9.1c8.1-2,16.2-4.2,24.2-6.4c5-1.4,8.9,0.5,12.2,4
			C118,491.1,120.3,497.2,120.2,503.7z M77.2,505.3c0,6.4,3.1,10.2,7.6,9.1c7.4-1.8,14.8-3.7,22.1-6c1.4-0.5,2.9-2.8,3.1-4.5
			c0.3-2-0.5-4.3-1.2-6.3c-1-2.9-2.9-4.3-6.3-3.3c-7.1,2-14.2,3.9-21.4,5.7C78.2,500.7,77.2,502.5,77.2,505.3z"/>
		<path class="st4" d="M129.5,612c-2.5-0.8-4.4-1.1-6.1-2c-7.8-4.3-13-10.8-14.6-19.8c-1.1-5.9,1.2-10.4,6.1-13.7
			c5.7-3.9,11.4-7.7,16.7-12c7.7-6.2,14.1-4.8,20.3,0.7c6.5,5.8,11,12.8,9.3,22c-0.4,2.4-2.1,5.2-4.1,6.7
			c-6.7,5.3-13.6,10.2-20.6,15C134.4,610.5,131.7,611.1,129.5,612z M150.9,582.9c0.1-4.1-3.8-9.6-6.9-10.4c-1-0.3-2.5-0.1-3.4,0.5
			c-6.4,4.5-12.7,9.1-19.1,13.7c-2.1,1.5-2.6,3.5-1.4,5.8c0.9,1.8,2,3.6,3.3,5.2c2,2.5,4.4,3,7.2,1c6-4.4,12.1-8.6,18-13
			C149.7,584.8,150.4,583.5,150.9,582.9z"/>
		<path class="st4" d="M718.1,539c-0.6,9.3-4.5,16.8-12.4,22c-3.6,2.3-7.5,2.7-11.3,0.9c-7.8-3.8-15.5-7.6-23.2-11.6
			c-5.3-2.8-7.8-8.6-6.3-15.6c1.4-6.9,4.6-12.8,10.2-17.3c4.4-3.5,9.1-4.2,14.2-1.6c7.1,3.6,14.2,7.2,21.3,10.7
			C715.9,529,718.5,533,718.1,539z M708.7,541.1c-1.8-1.8-3-3.6-4.6-4.4c-6.3-3.4-12.7-6.5-19.1-9.6c-3.7-1.8-5.9-0.7-8.3,3.8
			c-2.6,4.8-2.2,7.5,1.5,9.4c6.6,3.4,13.2,6.8,19.9,9.9c1.4,0.6,4.1,0.7,4.8-0.1C705.1,547.6,706.6,544.5,708.7,541.1z"/>
		<path class="st4" d="M703,236.4c-7,3.2-13.4,6.1-20.2,9.2c1.8,3.8,3.5,7.3,5.4,11.3c5.8-2.7,11.3-5,16.6-7.7
			c2.6-1.3,4-0.9,4.9,1.9c0.8,2.3,2,4.4,3.2,7c-3.9,1.8-7.5,3.5-11.1,5.1c-7.2,3.4-14.5,6.5-21.6,10.1c-6.2,3.1-11.2,2-16-2.7
			c-4.8-4.8-7.3-10.7-7.6-17.3c-0.2-5.4,2.7-9.5,7.8-11.9c9.9-4.6,19.8-9.3,29.7-14.1c2.8-1.4,4.5-0.9,5.7,2.1
			C700.7,231.6,701.8,233.8,703,236.4z M678.8,260.7c-1.4-3-2.6-5.9-4.1-8.6c-0.4-0.7-1.6-1.6-2.3-1.5c-4.7,0.5-6.5,3.8-4.6,8.1
			C670.4,264.7,672.2,265.1,678.8,260.7z"/>
		<path class="st4" d="M280.4,705.4c-0.4-0.5-0.5-0.6-0.6-0.7c-10.2-5.4-10.2-5.4-14.8,5c-1.5,3.3-3.1,6.7-4.7,10.3
			c-3.5-1.5-6.6-2.9-10-4.4c0.4-1.3,0.6-2.4,1.1-3.5c4.6-10.1,9.1-20.2,13.8-30.3c2.9-6.2,7.5-9.1,14.2-7.5
			c4.8,1.1,9.6,3.2,13.7,5.9c5.9,3.9,7.2,9.3,4.5,15.8c-4.4,10.5-9.1,20.8-13.6,31.3c-1,2.2-2.4,2.7-4.6,1.9
			c-0.1-0.1-0.2-0.1-0.4-0.2c-7.8-3-7.9-3.3-4.1-10.7c1.9-3.7,3.4-7.5,5.1-11.2C280.2,706.5,280.2,706,280.4,705.4z M284.5,695.7
			c6-7.6,1.5-9.9-4-11.5c-3.9-1.1-4.8,2.1-6,4.7c-1.3,3,1.5,3,3,3.8C279.7,693.8,282.2,694.7,284.5,695.7z"/>
		<path class="st4" d="M745.1,367c0.4,4,0.7,7.7,1,11.6c-7.2,0.7-13.8,1.3-20.2,1.9c-0.3,0.6-0.5,0.9-0.5,1.1
			c0.2,3.3-0.5,6.9,0.8,9.7c1.9,4.1,5.8,0.5,8.8,0.9c2.8,0.4,5.7-0.3,8.6-0.7c2.4-0.3,3.6,0.7,3.8,3c0,0.5,0.1,1.1,0.1,1.6
			c0.4,7,0.4,6.8-6.7,7.3c-12.8,0.9-25.7,2.1-38.5,3.1c-1.8,0.1-5.1-0.3-5.3-1.1c-0.8-2.9-0.8-6.2-0.5-9.3c0-0.5,2.6-1.1,4-1.3
			c4.2-0.4,8.5-0.8,12.7-0.9c2.7-0.1,3.7-1.2,3.3-3.8c-0.4-2.8-0.7-5.7-1.1-9.1c-6.9,0.4-13.6,0.9-20.8,1.3c-0.3-4-0.5-7.5-0.7-11.4
			C710.9,369.8,727.7,368.4,745.1,367z"/>
		<path class="st4" d="M116,320.4c-15.7-5.2-30.6-10.2-45.5-15.2c-2.4-0.8-3.1-2.1-2.3-4.7c2.6-7.9,2.5-7.9,10.5-5
			c0.8,0.3,1.6,0.5,2.3,0.8c11.3,3.8,11.4,3.7,13.6-9c-4.8-1.6-9.7-3.5-14.7-4.8c-3.8-1-4.9-2.4-3.3-6.3c2.6-6.3,2.4-6.4,8.7-4.2
			c12.7,4.3,25.4,8.7,38.2,13c1.3,0.4,2.5,0.9,4.1,1.5c-1.2,3.7-2.4,7.2-3.7,11c-6.7-2.3-13-4.4-19.9-6.7c-1.3,3.5-2.7,6.8-3.5,10.1
			c-0.2,0.8,1.3,2.5,2.3,2.9c5.4,2,10.8,3.8,16.8,5.8C118.3,313.3,117.2,316.7,116,320.4z"/>
		<path class="st4" d="M447,696.1c4.1-0.7,7.7-1.4,11.6-2.1c1.5,7.1,3,13.7,4.4,20.4c1,4.8,2.3,9.6,3.1,14.5c0.6,4,3.1,4.8,6.4,4.5
			c1.7-0.2,3.5-0.7,5.1-1.3c2.2-0.9,3.3-2.4,2.6-5.2c-2.3-10.1-4.4-20.3-6.5-30.5c-0.3-1.6-0.6-3.2-0.9-5c3.9-0.8,7.5-1.4,11.5-2.2
			c1.7,8,3.4,15.6,5.1,23.1c0.9,4.1,1.5,8.4,2.6,12.4c1.7,5.9-0.7,10.1-5.2,13.5c-7.4,5.7-20.2,6.7-27.1,1.9c-2-1.4-4-3.7-4.5-5.9
			C452.3,721.8,449.8,709.2,447,696.1z"/>
		<path class="st4" d="M722.3,272.8c1.2,3.1,2.3,5.9,3.4,8.7c1.2,2.9-1.2,3.3-2.8,3.9c-9.7,3.8-19.5,7.4-29.2,11.1
			c-4.9,1.8-5.6,3.8-3.4,9.3c1.9,5,3.7,5.8,8.3,4.1c10.6-4.1,21.2-8.1,32.4-12.4c1.2,3.2,2.5,6.1,3.3,9.2c0.2,0.8-0.9,2.5-1.7,2.8
			c-11,4.3-22,8.6-33,12.7c-5.7,2.1-11.8-0.8-15.7-7.5c-3.4-5.8-5.1-12.1-4.3-18.9c0.4-4.1,2.3-7.3,5.9-8.8
			C697.5,282.2,709.9,277.6,722.3,272.8z"/>
		<path class="st4" d="M604.3,620c8.5,10.5,16.7,20.5,24.7,30.8c2.4,3.1,2.1,7,0.5,10.6c-3.8,8.8-15.6,16.6-23.8,15.4
			c-2.4-0.4-5.2-1.5-6.8-3.3c-8.1-9.5-15.9-19.3-23.8-29c-0.2-0.3-0.3-0.7-0.6-1.4c2.3-1.9,4.5-3.8,6.9-5.6c2.3-1.9,3.4,0.1,4.6,1.6
			c6.4,7.9,12.8,15.8,19.2,23.6c1.5,1.8,3,4.9,5.8,3.3c3-1.8,5.6-4.5,7.9-7.2c0.5-0.5-1.1-3.2-2.1-4.5c-6.4-8-13-15.9-19.5-23.9
			c-0.7-0.8-1.3-1.8-2.2-3.1C598.1,624.9,600.9,622.7,604.3,620z"/>
		<path class="st4" d="M527.9,673.4c1.2,3.1,2.3,5.9,3.4,8.9c-6.5,2.5-12.7,4.7-18.7,7.2c-3.9,1.6-4.1,3-2.2,6.6
			c1.4,2.7,3.4,1.8,5.3,1.3c3.7-0.8,7.4-2.2,11.1-2.5c5-0.4,8.6,2.1,10.6,6.9c0.8,2,1.7,4.1,2.4,6.1c2.7,7.7,0.5,12.5-7.3,16.3
			c-7.1,3.5-14.8,5.7-22.2,8.6c-4.2,1.6-3.9-1.9-4.9-4c-1.2-2.4-1.5-4.3,1.7-5.4c6.3-2.2,12.6-4.6,18.9-6.9c2.7-1,4.3-2.4,2.7-5.5
			c-1.4-2.8-1.2-7.3-6.6-5.6c-3.4,1.1-6.8,2.3-10.3,2.5c-7.4,0.5-10.9-2.6-13.4-11.1c-1.8-6,0.3-11.9,6.1-14.6
			C512,678.9,519.9,676.4,527.9,673.4z"/>
		<path class="st4" d="M111.2,469.8c-1.1,0.4-1.5,0.5-1.9,0.6c-7.7,2-9,1.1-9.4-6.9c-0.1-1.9-0.3-3.8-0.6-5.7
			c-0.9-5.3-6.6-7.6-11.1-4.5c-0.7,0.5-0.9,2.1-0.8,3.2c0.6,5.3,1.4,10.5,2.2,16.3c-3.5,0.4-6.5,0.8-10.3,1.2
			c-0.6-5.4-1.5-10.3-1.7-15.3c-0.1-3.5-1.3-4.4-4.7-4.1c-6.6,0.7-7.2,1-6.6,7.6c0.4,4.2,1.1,8.3,1.7,13.1
			c-3.5,0.4-6.5,0.7-10.6,1.2c-0.5-7.9-1.3-15.4-1.3-22.8c0-3.9,4.4-7.9,8.4-8.4c10.3-1.4,20.6-2.8,31-4c5.7-0.6,11,2.9,12.4,8.6
			C109.5,456.3,110.1,463,111.2,469.8z"/>
		<path class="st4" d="M558.3,679.3c3.9-2.1,7.7-3.9,11.4-6c5.7-3.2,6.8-2.9,9.2,3.4c0.3,0.8,0.5,1.6,0.9,2.9
			c-5.6,2.8-11.2,5.7-16.8,8.5c0.1,0.7,0,1.2,0.2,1.5c4.3,9.5,4.3,9.5,13.6,4.6c2.6-1.4,5.2-2.9,8.4-4.6c1.7,3,3.2,5.7,5.1,9.2
			c-7.3,3.2-13.9,6.6-20.9,9c-4.6,1.6-8.9-0.7-11.1-4.9c-5-9.6-9.8-19.3-14.3-29.1c-2.4-5.3-1.1-9.9,3.6-12.9
			c5.7-3.7,11.9-6.6,17.8-9.9c0.6,0.8,0.9,1.1,1.1,1.4c4.8,7.3,4.8,7.3-3.1,11c-1,0.5-2,0.9-2.9,1.5
			C552.3,669.7,552.1,670.9,558.3,679.3z"/>
		<path class="st4" d="M90,336.1c-1.2,6-2.3,12.1-3.5,18.3c-1.4,0.1-2.5,0.3-3.6,0.2c-6.3-0.6-6.9-1.7-5.3-7.8
			c0.9-3.4,1.7-6.9,2.1-10.5c0.1-1.1-1.2-2.7-2.2-3.3c-1.4-0.8-3.2-0.7-4.8-1c-2.6-0.5-4.1,0.4-4.6,3.2c-0.8,5-1.8,9.9-2.8,15.4
			c-3.4-0.5-6.4-1-10.4-1.7c1.9-7.6,3.2-15,5.7-22c1.8-4.9,6.8-6.6,12-5.7c9.4,1.7,18.9,3.5,28.2,5.4c7.3,1.5,10.9,6.1,10.1,13.6
			c-0.6,6.2-2,12.4-3,18.3c-0.8,0.2-1.1,0.3-1.3,0.3c-9.3-1.1-9.3-1.1-7.2-10.3c0.2-0.8,0.4-1.6,0.5-2.4
			C101.5,337,100.2,335.7,90,336.1z"/>
		<path class="st4" d="M716.9,483.4c-1.9,5.8-3.4,11-5.2,16.2c-0.9,2.6-0.2,3.7,2.4,4.4c5.8,1.6,11.5,3.5,17,5.2
			c0.2,0.6,0.4,0.9,0.4,1.1c-1.3,9.8-1.9,10.1-11.1,7c-9.2-3.1-18.5-5.9-27.8-8.8c-7.7-2.4-10.8-7.6-8.8-15.4
			c1.5-6,3.3-11.8,5.1-17.9c0.8,0,1.5-0.1,2.1,0c7.9,1.5,8.2,2.1,5.4,9.6c-0.9,2.4-1.4,5-2.4,7.4c-1.5,3.7-0.4,5.8,3.4,6.6
			c1.2,0.3,2.4,0.6,4.1,1c1-3.3,2.1-6.5,3.1-9.7c1-3.1,1.9-6.2,3-9.8C710.8,481.4,713.6,482.3,716.9,483.4z"/>
		<path class="st4" d="M697,418.7c3.6,0.3,6.6,0.5,9.3,0.7c0,4.7,0.1,8.9,0,13.1c-0.1,3.5,1.1,5.3,4.9,5.5
			c7.1,0.3,14.2,0.9,21.3,1.6c3.8,0.4,5.2-1.6,5.6-4.9c0.4-4.1,0.8-8.1,1.2-12.5c3,0,5.8,0,8.5,0c2.8,8.8-0.5,22.3-6.8,26.6
			c-2.1,1.4-5.1,2.1-7.6,2c-8.5-0.2-17-0.9-25.5-1.5c-6.2-0.5-11.5-6.4-11.7-13.8C696,430,696.6,424.7,697,418.7z"/>
		<path class="st4" d="M263,666c-1.9,3-3.6,5.5-5.4,8.3c-3.7-2.3-7.1-4.6-10.6-6.6c-4.1-2.4-5.5-2-8.1,1.9
			c-3.8,5.7-7.5,11.5-11.3,17.2c-2.2,3.2-1.6,5.6,1.5,7.6c3.4,2.3,6.8,4.6,10.7,7.1c-1.7,2.6-3.3,5.2-5.3,8.2
			c-6.3-4.8-13.8-7.4-17.7-14.7c-2.4-4.5-2.3-8.8,0.5-13.1c4.2-6.3,8.3-12.6,12.4-18.9c4.7-7.3,11.7-9.5,19.4-5.5
			C253.7,659.9,258,662.9,263,666z"/>
		<path class="st4" d="M313,730.8c6.9,2,13.4,3.9,20.3,5.8c-0.8,3.1-1.6,6-2.4,9.4c-10.7-3-21.2-5.9-32.1-9
			c2.2-8.3,4.3-16.2,6.5-24.1c2.1-7.7,4.4-15.3,6.4-23c0.7-2.8,2-3.7,4.7-2.8c2.4,0.8,4.9,1.6,7.9,2.5
			C320.5,703.4,316.8,716.9,313,730.8z"/>
		<path class="st4" d="M105.4,572.4c-3,1.4-5.7,2.7-8.7,4.2c-4.7-10.1-9.3-19.8-14.2-30.2c15.7-7.4,31.3-14.8,47.3-22.4
			c1.8,3.5,3.4,6.9,5.3,10.7c-13,6.2-25.7,12.2-38.7,18.4C99.6,559.8,102.4,565.9,105.4,572.4z"/>
		<path class="st4" d="M198.7,672.4c2,1.8,3.6,3.1,5.5,4.8c-2,2.6-3.9,5-5.9,7.6c-6.7-5.3-12.9-10.3-19.4-15.5
			c2.1-2.7,3.9-5,5.7-7.3c6.4,3.5,6.5,3.6,11.1-2.3c4.6-5.8,9.2-11.6,14-17.7c-1.8-1.6-3.3-3-5.3-4.7c1.9-2.5,3.7-4.9,5.7-7.6
			c6.6,5.2,12.9,10.2,19.5,15.3c-2,2.6-3.8,5-5.8,7.6c-2-1.4-3.7-2.7-5.9-4.2C211.5,656.3,205.3,664.2,198.7,672.4z"/>
		<path class="st4" d="M731.6,344.3c-10.4,2-20.2,3.9-29.8,5.7c0.2,2.7,0.4,4.7,0.6,7.2c-3.1,0.6-6,1.1-9.1,1.7
			c-1.5-7.5-3.1-14.5-4.3-21.7c-0.2-1,1.4-2.4,2.4-3.3c0.6-0.5,1.9-0.3,2.8-0.6c2.9-0.9,4.6,0,4.7,3.1c0.2,2.8,1.4,3.3,4.1,2.8
			c7.9-1.7,15.9-3,23.8-4.6c1.1-0.2,2.5-1.3,2.8-2.2c0.5-1.7-0.4-4.9,0.3-5.2c2.2-1.1,5-1.1,7.5-1.6c0.1,0,0.3,0.1,0.9,0.3
			c1.4,7,3,14.4,4.1,21.7c0.1,0.7-3,2.3-4.8,2.9c-1.6,0.5-3.9,1.3-4.7-1.6C732.4,347.6,732.1,346.2,731.6,344.3z"/>
		<path class="st4" d="M123.6,272.2c1.7-3.4,3.3-6.6,5.1-10.1c-5.8-3-11.3-6-16.9-8.9c-5.5-2.9-10.9-5.8-16.5-8.4
			c-2.8-1.3-3.4-2.7-1.7-5.3c1.1-1.7,1.9-3.6,3-5.9c12.3,6.4,24.4,12.6,36.8,19.1c1.2-2.1,2.4-3.8,3-5.6c1.3-3.8,3.4-4.5,6.7-2.2
			c1.2,0.9,2.6,1.4,4.4,2.4c-5.1,9.9-10.1,19.6-15.4,29.7C129.2,275.2,126.5,273.8,123.6,272.2z"/>
	</g>
	<g>
		<g>
			<path class="st4" d="M125.6,174.3l18.2-18l-3.3-3.3l6.2-6.1l3.3,3.3l18.5-18.2l32.4,32.8c0.8,0.8,1.4,1.7,1.8,2.6
				c0.4,0.9,0.6,1.9,0.5,3.1c-0.1,1.1-0.7,2.2-1.7,3.3l-14.3,14.1l4.1,4.2l-6.2,6.1l-4.1-4.2l-18.2,18L125.6,174.3z M163.2,199.7
				l11.9-11.8l-25.3-25.6L137.8,174L163.2,199.7z M181.3,181.8l10.2-10.1c0.9-0.9,1.4-1.5,1.4-1.9c0-0.4-0.3-0.9-1-1.6l-23.8-24.1
				l-12.2,12L181.3,181.8z"/>
			<path class="st4" d="M193.6,108.3l53.1-29.7l26.4,47.1c0.6,1.1,1.1,2.2,1.4,3.3c0.3,1.1,0.3,2.2,0,3.5c-0.3,1.3-2.3,2.9-6.1,5.1
				l-44.5,24.9L193.6,108.3z M228.2,151.7l35.3-19.7c0.8-0.4,1.2-0.9,1.3-1.3s-0.2-1.1-0.6-1.9l-22-39.2l-37.1,20.8L228.2,151.7z
				 M217.6,125.4l10.8-6l-3.7-6.6l-10.8,6l-3.4-6.1l31-17.4l3.4,6.1l-12.5,7l3.7,6.6l12.3-6.9l3.4,6.1l-12.3,6.9l4.9,8.7l4.4-2.4
				l-0.3-4.9l4.7-2.6l2.3,3.7l2.2-1.2l3.4,6.1l-31.9,17.8l-3.4-6.1l10.8-6l-4.9-8.7l-10.8,6L217.6,125.4z"/>
			<path class="st4" d="M299.8,77l-3.2,0.8l9.1,37.3l6.6-1.6l2,8.1l-21.5,5.2l-2-8.1l6.7-1.6l-9.1-37.3l-6.7,1.6l-2-8.1l6.7-1.6
				l-1.8-7.5l8.2-2l1.8,7.5l5.5-1.3l0.2,0.8l1.9-0.6l-1.8-7.2l8.2-2l1.7,7l6.1-2l-1.8-7.2l8.2-2l1.7,7.1l14.8-4.9l8.3,34.2
				c0.3,1.1,0.4,2.4,0.4,3.8c0,1.4-0.5,2.7-1.3,4c-0.8,1.3-2.5,2.3-5.2,2.9l-4.7,1.1l-1.9-7.6l1.5-0.4c1.1-0.3,1.8-0.7,2.1-1.2
				c0.3-0.5,0.4-1,0.5-1.5c0-0.5,0-0.9-0.1-1.3l-5.8-23.6l-6.8,2.1l8.4,34.4l-8.2,2l-8.4-34.3l-6.1,2l8.4,34.6
				c0.3,1.2,0.8,1.9,1.4,2.2c0.6,0.3,2.7,0,6.3-0.9l22.2-5.4l1.9,7.7l-27.3,6.7c-4.5,1.1-7.6,0.6-9.2-1.4c-1.7-2-2.7-3.9-3.1-5.7
				l-8.7-35.6l-4.2,1.3L299.8,77z"/>
			<path class="st4" d="M373.9,49.9l48.7,1.4c0.9,0,1.6-0.1,1.9-0.3c0.3-0.2,0.5-0.7,0.5-1.3l0-0.7l8.5,0.2l-0.1,3.6
				c0,0.5-0.1,1.2-0.3,2.3c-0.2,1.1-0.7,2-1.5,2.7c-0.8,0.7-2.9,1-6.1,0.9l-13.4-0.4l-0.1,4.7l20.9,0.6l-0.2,7.3l-20.9-0.6l-0.1,4.6
				l20,0.6l-0.7,23.3l-8.7-0.2l0.5-16l-29.1-0.8l-0.4,15.6l-8.6-0.2l0.7-23l17.2,0.5l0.1-4.6l-20.7-0.6l-1,35.5c0,1.2-0.2,2.2-0.6,3
				c-0.3,0.8-0.9,1.4-1.6,1.9s-2.6,0.7-5.5,0.6l-4.5-0.1l0.2-7.3l1.5,0c0.5,0,1-0.1,1.4-0.4c0.4-0.3,0.6-1.1,0.7-2.3L373.9,49.9z
				 M402.8,62.9l0.1-4.7l-20.7-0.6l-0.1,4.7L402.8,62.9z M431.3,104.7l-0.2,7.3l-7.1-0.2c-1.9-0.1-3.2-0.2-4-0.5
				c-0.8-0.3-1.6-0.8-2.4-1.6l-10.7-10l-8.2,9.4c-0.6,0.7-1.4,1.2-2.4,1.4c-1,0.2-3.7,0.3-8.2,0.2l-4-0.1l0.2-7.3l5.6,0.2
				c1.2,0,2-0.1,2.6-0.3c0.6-0.2,1.2-0.7,1.9-1.5l8.2-9.2l0.2-6.7l9.4,0.3l-0.2,6.5l9.4,9.8c0.9,1,1.6,1.6,2,1.7
				c0.4,0.2,1.3,0.3,2.7,0.3L431.3,104.7z"/>
			<path class="st4" d="M462.6,64.5l5.2,1.6l3.1-10.1l7.8,2.4l-3.1,10.1l4.2,1.3l-2.4,7.8l-4.2-1.3l-13.2,42.7l-7.8-2.4l13.2-42.7
				l-5.2-1.6L462.6,64.5z M486.8,126.1l-14.8-4.6c-1.6-0.5-2.9-1.4-3.7-2.6c-0.8-1.2-0.9-2.8-0.3-4.9l0.8-2.7l7.8,2.4l-0.3,0.8
				c-0.3,1,0.1,1.6,1.3,2l11,3.4L486.8,126.1z M509.9,113.6l-0.6,1.8l2.2,0.7l-1.9,6.3l-2.2-0.7l-1.4,4.7c-0.3,1.1-1.1,2.2-2.3,3.4
				c-1.2,1.1-3.2,1.3-6,0.4l-8.1-2.5l1.9-6.1l4.7,1.5c0.8,0.2,1.4,0.3,1.8,0.1c0.4-0.2,0.7-0.7,0.9-1.4l0.8-2.5l-31.9-9.8l1.9-6.3
				l31.9,9.8l0.6-1.8L509.9,113.6z M483.3,62.5l16.3,5l0.8-2.4l7.7,2.4l-0.8,2.4l5.1,1.6l1.9-1.7l6,1.9l0.8,2.5l2.9,0.9l-1.9,6.3
				l-16.8-5.2l-1,3.4l16.3,5l-8.9,29.1l-7.8-2.4l1-3.2l-8.6-2.6l-1.1,3.6l-7.7-2.4l1.1-3.6l-8.3-2.6l-1.1,3.6l-7.7-2.4l9.1-29.5
				l16.1,4.9l1-3.4l-16.3-5L483.3,62.5z M490.6,96.9l1.1-3.6l-8.4-2.6l-1.1,3.6L490.6,96.9z M493.6,87.2l1.1-3.6l-8.3-2.6l-1.1,3.6
				L493.6,87.2z M506.9,101.9l1.1-3.6l-8.6-2.6l-1.1,3.6L506.9,101.9z M509.9,92.2l1.1-3.6l-8.6-2.6l-1.1,3.6L509.9,92.2z"/>
			<path class="st4" d="M544.7,127.2l-5.7,2.8c-1.6,0.8-2.9,1.2-4.1,1.2c-1.1,0-2.3-0.4-3.5-1.1l-2-1.3l4-6.3l0.7,0.4
				c0.3,0.2,0.7,0.3,1.1,0.3c0.4,0,1.3-0.4,2.7-1.1l15.3-8.2l4.7-7.4l-2.8-1.8l-1,0.9c-1.2,1-2.4,1.4-3.6,1.3c-1.2-0.1-2.2-0.5-3-1
				l-2.9-1.9l3.6-5.7l0.8,0.5c0.2,0.2,0.6,0.2,0.9,0.1c0.4-0.1,1.1-1,2.2-2.7l3.8-6l6.4,4.1l-2.7,4.2l2,1.3l4-6.2l7.3,4.7l-4,6.2
				l3.4,2.2l-4.2,6.5l-3.4-2.2l-4,6.2l3.2,2.1l-4.1,6.4l-3.2-2.1l-13.5,21.1c-1.2,1.8-2.6,3.1-4.3,3.8c-1.7,0.8-4.1,0.2-7-1.7
				l-7.6-4.9l4.1-6.4l5.2,3.3c0.9,0.6,1.6,0.8,2.2,0.6c0.6-0.1,1.7-1.3,3.1-3.5L544.7,127.2z M540.7,152.2l4.1-6.5l2,1.3
				c0.5,0.3,0.9,0.5,1.4,0.5c0.4,0,1.5-1,3.2-2.9l22-26.6l7.2,4.6l-24.7,29.1c-1.8,2.1-3.2,3.5-4.2,4.2c-1,0.6-2,0.9-3,0.7
				c-1.1-0.2-2.2-0.6-3.3-1.4L540.7,152.2z M551.9,158.9l4.2-6.5l2,1.3c0.4,0.3,0.9,0.4,1.4,0.5c0.5,0,1.5-1,3.2-2.9l22-26.6
				l7.2,4.6L567,158.4c-1.8,2.1-3.2,3.5-4.2,4.2c-1,0.6-2,0.8-3.1,0.7c-1.1-0.2-2.2-0.6-3.3-1.3L551.9,158.9z M562.6,166.2l4.1-6.5
				l2.1,1.4c1.1,0.7,1.9,0.9,2.4,0.6c0.5-0.3,1.4-1.3,2.5-3l21.9-34.2l-15.3-9.8l-2.8,2c-1.1,0.8-2.2,1.2-3.2,1.1
				c-1-0.1-2.1-0.4-3.2-1.2l-2.7-1.7l4.2-6.5l0.9,0.6c0.5,0.3,1.4-0.1,2.6-1.2l5-4.6l7,4.5l-1.8,2.2l20.2,12.9l-26.6,41.5
				c-1.6,2.4-3,4.2-4.2,5.3s-2.6,1.5-4.1,1.4c-1.5-0.2-3.3-1-5.5-2.4L562.6,166.2z"/>
			<path class="st4" d="M606.2,194l-6,5.4l-5.8-6.4c-1.2-1.3-2.1-2.4-2.7-3.2c-0.7-0.9-0.9-1.7-0.9-2.6s0.5-1.7,1.2-2.5
				c0.8-0.8,1.7-1.8,2.9-2.8l26.5-23.9l5.8,6.4l-23.7,21.4c-1.2,1.1-1.8,1.9-1.9,2.3c-0.1,0.5,0.3,1.1,1,1.9L606.2,194z M638.4,172
				l24,26.6l-7.9,7.1c-0.9,0.8-1.9,1.6-3,2.3c-1.1,0.7-2.2,1.1-3.2,1.2c-1,0.1-2-0.3-3-1s-2.1-1.7-3.2-3l-12.4-13.8l-2.7,2.4
				l18.2,20.2l-10.9,9.9c-2.5,2.3-4.5,3.4-5.9,3.5s-2.7-0.3-3.6-1.2c-1-0.9-2.1-2-3.4-3.4l-17.6-19.6L638.4,172z M614.9,204.9
				l10.5,11.7c0.8,0.9,1.5,1.4,2,1.4c0.5,0,1.2-0.4,2-1.1l5-4.5L622,198.5L614.9,204.9z M632.8,173.9l-5.3-5.9l7-6.3l-4.2-4.6
				l-1.6,0.6c-1.4,0.5-2.5,0.4-3.3-0.2c-0.8-0.7-1.5-1.4-2.2-2.2l-2.5-2.8l5.3-4.8l0.4,0.5c0.3,0.4,0.6,0.6,0.9,0.6
				c0.3,0,0.7-0.1,1.2-0.3l7.6-3.4l5.9,6.6l-3.9,1.8l7.8,8.6L632.8,173.9z M651.6,196.8L639.1,183l-4.2,3.8l10.3,11.5
				c0.9,1,1.6,1.5,2.1,1.6c0.5,0.1,1-0.2,1.6-0.7L651.6,196.8z M648.2,162.9l8.1,9l3.3-1.5l7,7.8l-1.9,3.1l7.6,8.4l-8.1,7.3
				l-5.8-6.4l2.9-2.7l-12.7-14.1l-2.9,2.7l-5.6-6.2L648.2,162.9z"/>
		</g>
	</g>
</g>
</svg>
