<?xml version="1.0" encoding="utf-8"?>
<!-- Generator: Adobe Illustrator 22.1.0, SVG Export Plug-In . SVG Version: 6.00 Build 0)  -->
<svg version="1.1" id="图层_1" xmlns="http://www.w3.org/2000/svg" xmlns:xlink="http://www.w3.org/1999/xlink" x="0px" y="0px"
	 viewBox="0 0 800 800" style="enable-background:new 0 0 800 800;" xml:space="preserve">
<style type="text/css">
	.st0{fill:#231915;}
	.st1{fill-rule:evenodd;clip-rule:evenodd;fill:url(#SVGID_1_);}
	.st2{fill-rule:evenodd;clip-rule:evenodd;fill:url(#SVGID_2_);}
	.st3{fill-rule:evenodd;clip-rule:evenodd;fill:#81BF24;}
	.st4{fill-rule:evenodd;clip-rule:evenodd;fill:url(#SVGID_3_);}
	.st5{fill-rule:evenodd;clip-rule:evenodd;fill:url(#SVGID_4_);}
	.st6{fill-rule:evenodd;clip-rule:evenodd;fill:url(#SVGID_5_);}
	.st7{fill-rule:evenodd;clip-rule:evenodd;fill:url(#SVGID_6_);}
	.st8{fill-rule:evenodd;clip-rule:evenodd;fill:url(#SVGID_7_);}
	.st9{fill-rule:evenodd;clip-rule:evenodd;fill:url(#SVGID_8_);}
	.st10{fill-rule:evenodd;clip-rule:evenodd;fill:url(#SVGID_9_);}
	.st11{fill-rule:evenodd;clip-rule:evenodd;fill:url(#SVGID_10_);}
	.st12{fill-rule:evenodd;clip-rule:evenodd;fill:url(#SVGID_11_);}
	.st13{fill-rule:evenodd;clip-rule:evenodd;fill:url(#SVGID_12_);}
	.st14{fill-rule:evenodd;clip-rule:evenodd;fill:url(#SVGID_13_);}
</style>
<path class="st0" d="M400,45c97.1,0,185,39.7,248.6,103.9c63.7,64.3,103,153,103,251.1c0,98-39.3,186.7-103,251
	C585,715.2,497.1,755,400,755c-97,0-184.9-39.8-248.6-104c-63.7-64.3-103-153-103-251c0-98.1,39.3-186.8,103-251.1
	C215.1,84.7,303,45,400,45L400,45z M644.1,153.6C581.6,90.5,495.3,51.5,400,51.5s-181.6,39-244.1,102.1
	C93.5,216.7,54.8,303.8,54.8,400s38.7,183.3,101.1,246.3c62.5,63.1,148.8,102.2,244.1,102.2s181.6-39.1,244.1-102.2
	c62.5-63,101.1-150.1,101.1-246.3S706.6,216.7,644.1,153.6L644.1,153.6z"/>
<path class="st0" d="M118.6,468l-21.9,3.6c-2,0-2.8,1.6-2.1,4.7l-1.6,0.2l-2.3-14.6c-1.1-7.4,0.9-11.6,5.7-12.8
	c4.4-0.2,7.2,2.5,8.3,8l0.2-0.1c-0.8-6.7,1.4-10.6,6.2-11.7c5.6,0.1,8.9,3.1,10,9l2.8,17.3l-1.6,0.2
	C122,468.6,120.7,467.4,118.6,468L118.6,468z M105.8,457.9l1.2,7.3l10.8-1.7c2.4,0,3.1-1.7,2.3-5.1c-0.8-6.2-3.5-8.8-8.1-7.9
	C107.3,451.2,105.4,453.8,105.8,457.9L105.8,457.9z M105.4,465.4l-0.6-4.4c-0.8-5.2-3.1-7.4-7.2-6.6c-4.3,0.5-6,3.6-5,9
	c0.5,3,1.4,4.2,2.8,3.7L105.4,465.4z M106.1,420l1,14.8c6.2-0.5,9.3-3,9.3-7.4c-0.1-2.5-1.6-4.7-4.6-6.6l0.6-1.2
	c3.2,2.1,4.9,5.1,5.3,9.2c0.1,6.2-3.3,9.7-10.1,10.7c-6.8,0-10.7-3-11.8-9.2C95.7,424.4,99.1,420.9,106.1,420L106.1,420z M105.4,435
	l-0.6-10.2c-5.3,0.3-7.7,2.2-7.6,5.5C97.5,433.8,100.3,435.3,105.4,435L105.4,435z M116.5,403.4v11.3h-1.6c0.1-2.5-0.4-3.7-1.7-3.6
	H98.6c-1.3-0.1-1.9,1.1-1.9,3.6h-1.4l-0.4-7.9h18.3c1.3,0.2,1.8-0.9,1.7-3.4H116.5z M85.5,409.4c0.2-1.4,1.1-2.3,2.6-2.5
	c1.6,0.2,2.4,1.1,2.6,2.5c-0.2,1.6-1,2.5-2.6,2.7C86.5,411.9,85.7,411,85.5,409.4L85.5,409.4z M94.9,390.9l22.1,0.4
	c4.7,0.2,7.2,2.8,7.4,7.8c-0.5,2.9-2,4.5-4.4,5c-2-0.2-3-1-3-2.6c0.1-1.2,0.9-1.8,2.4-1.9c1.2,0.1,2,0.5,2.5,1.5c0.6-0.2,1-1,1-2.2
	c-0.1-1.9-1.3-3.1-3.6-3.2l-20.6-0.3c-1.3-0.1-2,0.9-2,2.8h-1.4L94.9,390.9z M85.5,393.5c0.2-1.6,1.2-2.5,2.7-2.7
	c1.5,0.3,2.4,1.2,2.5,2.7c-0.2,1.6-1.1,2.4-2.6,2.5C86.5,395.9,85.7,395,85.5,393.5L85.5,393.5z M117.2,373.6l-1,11.3l-1.5-0.2
	c0.3-2.5-0.2-3.7-1.5-3.7l-14.5-1.3c-1.3-0.2-2,0.9-2.3,3.4l-1.4-0.1l0.3-7.8l18.1,1.5c1.3,0.4,2-0.6,2.1-3.1L117.2,373.6z
	 M85.8,376.9c0.4-1.4,1.4-2.2,2.9-2.3c1.5,0.3,2.3,1.2,2.3,2.7c-0.2,1.6-1.2,2.5-2.7,2.4C86.8,379.5,85.9,378.6,85.8,376.9
	L85.8,376.9z M96.5,366.9l0.6-7.1l4.2,0.5v-0.1c-2.7-1.9-3.9-4.4-3.4-7.6c0.8-4.3,3.8-6.2,9-5.5l10.2,1.4c1.3,0.4,2-0.5,2.3-2.9
	l1.5,0.2l-1,7.5l-15.1-2.2c-3.1-0.3-4.8,0.6-5.3,2.8c0,3.5,2.3,5.6,6.8,6.8l9,1.2c1.2,0.4,1.9-0.6,2.3-3.2l1.5,0.2l-1.5,11l-1.6-0.2
	c0.4-2.3,0-3.5-1.3-3.5l-14.4-2.1c-1.3-0.3-2,0.6-2.4,2.9L96.5,366.9z M121.5,335.6h-0.1c-0.8,2.9-2,4.1-4.2,3.6
	c-1.4-0.4-2.3-2.4-2.3-5.8h-0.2c-2,3.2-4.5,4.5-7.4,3.9c-4-1.5-5.6-4.8-4.9-9.7c0.5-2.1,1.2-3.7,2-4.9c-2-0.4-2.9-1.8-2.5-4
	c0.4-1.9,1.4-2.7,3-2.3c1.2,0.3,1.6,1.2,1.3,2.3c-0.2,1.2-0.9,1.7-1.7,1.5c-0.2-0.1-0.4-0.1-0.8-0.2c-0.1,0-0.2-0.1-0.3-0.2
	c0,0.2,0,0.3,0,0.3c-0.1,0.9,0.3,1.4,1.2,1.5l0.8,0.2c0.4-0.5,1.3-1,2.3-1.3c0.2-0.1,0.2-0.2,0.3-0.3c0.9-0.2,1.9-0.3,3.1-0.2
	c3.9,1.7,5.6,4.5,5.1,8.6c-0.8,4.9-0.5,7.3,0.5,7.1c0.9,0.2,1.7-1.4,2.7-4.7c2-6.8,4.6-9.8,7.8-9.2c4.5,1.4,6.2,5.5,5,12.6
	c-1.6,5.8-4.3,8.6-7.8,8.2C122.2,341.9,121.2,339.6,121.5,335.6L121.5,335.6z M124.7,339.3c2.8,0.3,4.8-1.5,6.1-5.4
	c0.9-4.7-0.1-7.6-2.8-8.7c-2-0.5-3.8,1.9-5.1,7.5C122.1,336.5,122.8,338.7,124.7,339.3L124.7,339.3z M103.9,327.5
	c-0.4,2.7,1.1,4.4,4.4,5.2c3.5,0.9,5.6-0.1,6.3-2.7c0.6-2.7-0.9-4.5-4.4-5.4C106.7,323.8,104.7,324.8,103.9,327.5L103.9,327.5z
	 M110.8,273.6l3.5-9.4l1.5,0.6c-1.2,2.7-0.8,4.2,1.3,4.7l20.7,8c1.9,1.2,3.4,0.1,4.4-3l1.5,0.5l-4.8,12.6l-1.5-0.6
	c1.3-2.6,0.9-4.3-1.3-4.9l-23.2-9l23.9,19.8l-0.5,1.5l-30.7-1.8v0.1l21,8.1c3.4,1.7,5.6,0.9,6.4-2.5l1.5,0.6l-3.9,10.2l-1.5-0.5
	c1.5-2.9,0.4-5-3.2-6.1l-18.7-7.3c-1.8-1-3.2,0.1-4.3,3.1l-1.5-0.5l3.9-10.1l24.2,1.5l0.1-0.1L110.8,273.6z M157.7,250.9l-3.5,6.2
	l-3.5-2.1c1.5,3,1.6,5.8,0.2,8.3c-2.4,3.9-5.8,4.5-10.2,1.9l-8.9-5.2c-1.1-0.8-2.1-0.1-3.2,1.8l-1.3-0.8l3.8-6.5l13.5,7.9
	c2.6,1.4,4.4,1.2,5.6-0.9c1.6-2.7,0.6-5.5-2.8-8.3l-8.8-5.1c-1.1-0.8-2.3,0-3.4,2.2l-1.3-0.8l4-6.8l15.4,9.1c1.1,0.9,2,0.2,3.1-1.9
	L157.7,250.9z M160.2,246.4l-0.8,1.1l-6.2-4.1l0.8-1.1c4,1.4,7.2,0.3,9.6-3.2c1.4-2.6,1.3-4.7-0.5-6.1c-1.6-1.1-4-0.1-7.2,2.9
	c-3.8,3.5-7,4.4-9.4,2.8c-3-2.3-3.3-5.5-1.1-9.8c1.1-1.4,2.4-2.6,3.8-3.6c0.3-0.2,0.5-0.4,0.6-0.6c0.3-0.4,0.2-1-0.3-1.4l1-1.4
	l5.5,3.7l-0.9,1.3c-3.9-0.9-6.6,0-8.4,2.8c-1.3,2.5-1.2,4.2,0.4,5.2c1.4,1,3.5,0,6.4-2.8c4.1-3.9,7.4-5,10-3.2
	c3.6,2.6,4,6.3,1.2,10.9c-1,1.5-2.1,2.8-3.5,3.9c-0.8,0.5-1.2,0.9-1.4,1.1C159.4,245.2,159.7,245.8,160.2,246.4L160.2,246.4z
	 M176.5,206.3l-9.3,11.6c4.9,3.9,8.9,4.2,11.8,1.1c1.6-1.8,2-4.5,1.2-8l1.2-0.4c1,3.8,0.2,7.1-2.4,10.3c-4.1,4.7-9,5-14.6,1
	c-5-4.7-5.8-9.6-2.5-14.9C166,202.4,170.8,202.2,176.5,206.3L176.5,206.3z M166,216.9l6.3-8c-4.1-3.2-7.2-3.7-9.3-1.1
	C160.9,210.5,161.9,213.5,166,216.9L166,216.9z M204.1,192.2l-4.9,5.1l-2.9-2.8c0.6,3.4,0.1,6.1-1.9,8.1c-3.2,3.1-6.6,2.9-10.3-0.6
	l-7.4-7.1c-0.9-1-2-0.6-3.6,1l-1-1.1l5.1-5.4l11.3,11c2.1,2.1,4,2.2,5.7,0.5c2-2.3,1.8-5.2-0.9-8.8l-7.3-7.1c-0.8-1-2-0.5-3.9,1.3
	l-1-1.1l5.4-5.6l13,12.6c0.8,1.1,1.9,0.8,3.4-1.1L204.1,192.2z M235.1,166.3l-6,4.7l-9.3-12.1c-2-2.5-4-2.9-6-1.3
	c-2.4,2.1-2,5,1,8.8l5.6,7.3c0.6,1.2,1.8,1.1,3.6-0.5l1,1.3l-5.8,4.7l-9.4-12.1c-1.9-2.6-4-3-6-1.4c-2.3,2.1-1.9,5,1,8.8l5.7,7.4
	c0.5,1.2,1.8,0.9,3.9-0.9l1,1.3l-8.8,6.9l-1-1.2c1.9-1.4,2.5-2.6,1.5-3.6l-8.9-11.6c-0.9-1-2.1-0.9-3.9,0.5l-0.9-1.1l5.5-4.8
	l2.6,3.2l0.1-0.1c-1-2.8-0.3-5.1,1.8-6.9c2.7-2.2,5.5-2.3,8.3-0.4c-0.9-3.2-0.1-5.8,2.3-7.9c3.5-2.5,6.8-2.1,9.5,1.3l7.1,9.2
	c0.6,1.2,1.9,1,3.8-0.6L235.1,166.3z M255,152c3.8-1.7,4.1-5.6,0.9-11.5c-3.2-5.7-6.5-7.6-10.2-5.5c-3.6,1.8-3.9,5.7-0.5,11.6
	C248.2,152.5,251.5,154.3,255,152L255,152z M244.9,133.7c6.2-2.8,11.3-1.3,15.1,4.5c2.9,6.3,1.4,11.3-4.4,14.8
	c-6.2,3.1-11.1,1.7-14.9-4.1C237.8,142.7,239.2,137.6,244.9,133.7L244.9,133.7z M271.3,120.2l0.8,1.3l-4.7,2.5l7.7,14.7
	c0.3,1.4,2,1.2,4.9-0.6l0.8,1.4l-11.5,6.2l-0.8-1.4c2.8-1.2,3.6-2.4,2.8-3.6l-7.7-14.6l-3.6,1.8l-0.6-1.2l3.6-1.9l-1.2-2.3
	c-2-4.2-0.9-7.7,3.5-10.4c2.9-1.4,4.8-1.2,5.9,0.6c0.8,1.5,0.3,2.7-1,3.4c-1.4,0.8-2.4,0.5-3-0.8c-0.4-0.8-0.4-1.4-0.2-2.2
	c-0.3,0.1-0.8,0.2-1.2,0.4c-2,1.2-2.5,2.8-1.5,4.7l2.4,4.4L271.3,120.2z M284,103l7.7-2.4l22.4,17.9l-5.6-18.3c-0.3-2.1-2-2.5-5-1.5
	l-0.4-1.5l9.8-3l0.5,1.5c-2.9,0.8-3.9,2.1-2.9,3.9l7.8,25.9l-1.7,0.5L292.3,107l-0.1,0.1l5.9,19.7c0.2,2.3,2,2.7,5.5,1.4l0.5,1.6
	l-10.7,3.2l-0.4-1.5c3.1-0.8,4.2-2.2,3.3-4.2l-6.8-22.4c-1.4-1-3.1-1.1-4.9-0.4L284,103z M345.8,112.8l1.4-0.3
	c0.5,3.6-0.6,5.6-3.5,6.3c-2,0.6-3.5-0.3-4.5-2.9c-0.4,2.9-2.5,4.8-6.1,5.6c-4.1,0.9-6.5-0.2-7.3-3.2c-0.8-3,2.5-6.6,9.4-10.6
	c0.8-0.4,1.3-0.8,1.5-1l-0.9-4.1c-0.5-1.7-2.3-2.4-5.1-1.8c-1.5,0.4-2.8,1.1-3.9,2.3c1.2-0.1,1.9,0.5,2.4,1.7
	c0.2,1.7-0.5,2.8-1.9,3.2c-1.7,0.3-2.8-0.4-3.2-1.9c-0.2-3,1.9-5.3,6.4-6.7c5.8-1.4,9-0.1,9.9,4.1l2.5,10.8c0.3,1.8,1,2.5,1.9,2.2
	C345.8,116.1,346.1,114.9,345.8,112.8L345.8,112.8z M337.9,111.9l-1-3.9c-5,3-7.3,6.1-6.6,8.9c0.5,2.3,1.8,3.1,3.9,2.6
	C337.2,118.4,338.5,115.9,337.9,111.9L337.9,111.9z M352.5,88.3l1.6-0.2l0.9,7.1l6.3-0.8l0.2,1.4l-6.3,0.8l2,16.6
	c0,1.6,1,2.4,2.7,1.9c2.1-0.2,3.1-1.9,2.8-5.2l-0.1-1.1l1.2-0.1l0.1,0.9c0.6,4.3-1,6.6-4.8,6.9c-3.9,0.6-6-0.9-6.3-4.4l-1.8-14.9
	l-3.1,0.4l-0.2-1.4C350.8,96.1,352.5,93.5,352.5,88.3L352.5,88.3z M391.5,113l-7.1,0.5l-0.3-4.1c-1.7,3-4,4.5-6.8,4.8
	c-4.5,0.2-7-2.3-7.3-7.4l-0.8-10.4c0.1-1.3-1.1-1.8-3.3-1.7l-0.1-1.4l7.5-0.5l1.1,15.7c0.2,3,1.5,4.4,3.9,4.2c3-0.2,4.8-2.5,5.1-6.9
	l-0.6-10.2c0-1.4-1.2-1.9-3.8-1.7v-1.5l7.7-0.5l1.3,18.1c-0.2,1.3,1,1.8,3.3,1.5L391.5,113z M407,111.8v1.6h-11.9v-1.6
	c2.4,0.1,3.4-0.5,3.3-1.8V95.3c0-1.3-1.1-2.1-3.1-2.1v-1.4l7.1-0.3v6.3h0.1c1-4.3,3.1-6.5,6.2-6.5c2,0.1,3.2,1.2,3.5,3
	c-0.2,1.6-1,2.4-2.3,2.6c-1.6,0-2.4-0.8-2.4-2.2c0-0.8,0.3-1.3,1-1.8c-0.2,0-0.2,0-0.2,0c-0.1-0.1-0.2-0.1-0.3-0.1
	c-3.4,0.6-5.3,5.4-5.4,14.3C402,110.7,403.5,112.2,407,111.8L407,111.8z M436.4,110l1.4,0.1c-0.4,3.5-2.1,5.2-5.1,5
	c-2,0-3.2-1.4-3.4-4.2c-1.2,2.7-3.8,3.9-7.5,3.6c-4.1-0.3-6.1-2.2-6-5.2c0.2-3.1,4.2-5.6,12-7.5c0.9-0.1,1.5-0.2,1.8-0.3l0.3-4.3
	c0-1.8-1.5-2.8-4.4-3.1c-1.6-0.1-3,0.2-4.4,0.9c1.2,0.3,1.8,1.2,1.8,2.5c-0.3,1.6-1.3,2.5-2.8,2.5c-1.7-0.2-2.5-1.2-2.5-2.8
	c0.6-2.9,3.3-4.4,8-4.4c5.9,0.2,8.7,2.5,8.3,6.8l-0.8,11c-0.2,1.8,0.2,2.7,1.3,2.6C435.6,113.2,436.2,112.1,436.4,110L436.4,110z
	 M429.3,106.8l0.2-3.9c-5.8,1.4-8.8,3.6-9,6.5c-0.1,2.3,0.9,3.5,3,3.7C426.7,112.9,428.6,110.8,429.3,106.8L429.3,106.8z
	 M450.8,117.9l-10.9-1.7l0.2-1.6c2.5,0.5,3.6,0.1,3.8-1.2l3.8-24c0.3-1.3-0.8-2.1-3.2-2.5l0.3-1.6l7.7,1.1l-4.4,27.7
	c-0.4,1.3,0.6,2.1,3.1,2.4L450.8,117.9z M476.3,123.5l-12.9-3.5l0.4-1.5c2.8,1,4.4,0.3,4.7-1.9l5.7-21.5c0.8-1.9-0.3-3.2-3.2-3.9
	l0.4-1.5l12.8,3.5l-0.4,1.5c-3.2-1-4.8-0.4-5,1.6l-2.5,9.3l13,3.6l2.5-9.4c0.8-1.8-0.3-3.1-3.3-3.8l0.4-1.6l12.4,3.4l-0.4,1.6
	c-2.8-0.9-4.3-0.3-4.6,1.6l-5.8,21.6c-0.9,2.1,0.2,3.5,3.3,4.1l-0.3,1.5l-12.8-3.5l0.4-1.5c2.9,1,4.5,0.4,4.9-1.8l2.8-10.7l-13-3.6
	l-2.9,10.8c-0.9,2.1,0.3,3.5,3.8,4.1L476.3,123.5z M507.3,134.4l-10.5-3.8l0.5-1.5c2.3,1,3.6,0.8,4-0.5l4.9-13.7
	c0.5-1.2-0.3-2.3-2.7-3l0.5-1.4l7.4,2.4l-6.2,17.3c-0.6,1.2,0.2,2.1,2.6,2.8L507.3,134.4z M512.2,102.9c1.3,0.8,1.7,1.8,1.4,3.4
	c-0.8,1.4-1.8,1.9-3.1,1.5c-1.5-0.6-2.1-1.7-1.7-3.2C509.5,103.1,510.6,102.6,512.2,102.9L512.2,102.9z M512.3,136.3l-1.2-0.4
	l3.1-6.9l1.1,0.5c-0.6,4.2,0.9,7.3,4.7,9.1c2.8,1.1,4.7,0.5,5.9-1.4c0.8-1.7-0.5-4-4.1-6.7c-4-3.2-5.4-6.3-4.2-9
	c1.8-3.4,4.9-4.2,9.5-2.6c1.5,0.9,2.9,1.9,4,3.2c0.3,0.2,0.5,0.4,0.8,0.5c0.5,0.2,1.1,0,1.4-0.5l1.5,0.6l-2.7,6.1l-1.5-0.8
	c0.3-3.9-1.1-6.5-4.1-7.9c-2.6-0.9-4.2-0.4-5,1.3c-0.6,1.5,0.6,3.6,3.8,6.1c4.5,3.4,6.1,6.5,4.8,9.3c-2,4.1-5.6,5.1-10.6,2.9
	c-1.6-0.8-3-1.7-4.3-2.9c-0.6-0.6-1.1-1.1-1.3-1.2C513.4,135.5,512.9,135.7,512.3,136.3L512.3,136.3z M549.5,123.3l1.4,0.8l-3.5,6.2
	l5.5,3.2l-0.8,1.3l-5.5-3.2l-8.3,14.4c-1,1.4-0.6,2.5,1,3.2c1.8,1.1,3.6,0.3,5.4-2.5l0.5-0.9l1.1,0.6l-0.4,0.8c-2,3.8-4.7,4.5-8,2.5
	c-3.4-1.8-4.2-4.3-2.4-7.4l7.4-13l-2.7-1.6l0.6-1.2C543.4,128.3,546.3,127.3,549.5,123.3L549.5,123.3z M556.4,159.5
	c3.4,2.4,6.9,0.8,10.3-4.9c3.5-5.6,3.4-9.4,0-11.7c-3.5-2.3-7-0.5-10.3,5.1C552.8,153.7,552.8,157.5,556.4,159.5L556.4,159.5z
	 M567.4,141.8c5.4,4.1,6.5,9.2,3.3,15.5c-4,5.5-9,6.7-15,3.4c-5.7-4-6.9-9.1-3.6-15.2C556.2,139.8,561.2,138.6,567.4,141.8
	L567.4,141.8z M579,175.3l-1.1,1.3l-9.3-7.4l1-1.3c1.8,1.6,3.1,1.8,3.8,0.8l9-11.6c0.8-1.1,0.3-2.3-1.4-3.6l1-1.1l5.8,4.1l-3.9,4.9
	l0.1,0.1c3.4-2.8,6.3-3.1,8.9-1.2c1.5,1.3,1.8,2.9,0.9,4.7c-1.1,1.1-2.3,1.2-3.3,0.5c-1.2-1-1.4-2.1-0.4-3.1c0.4-0.5,1-0.9,1.7-0.9
	c-0.1-0.1-0.1-0.1-0.1-0.1c0-0.2-0.1-0.3-0.2-0.4c-3.1-1.5-7.4,1.1-12.9,8C575.8,171.5,576,173.6,579,175.3L579,175.3z M597.4,166.5
	l1-1.1l7.5,7l-1,1.1c-1.7-1.6-2.7-2.1-2.9-1.3c-0.2-0.1-1.1,1.8-2.6,6c-1.2,3-2.1,5.6-2.9,7.8c4.6-2.4,7.7-3.9,9.4-4.7
	c1.8-0.8,2.9-1.3,3.1-1.6c0.9-0.6,0.4-1.8-1.2-3.4l1-1.1l6.1,5.7l-1,1.1c-1.3-1.3-2.5-1.5-3.5-0.6l-12.3,6.1
	c-9,4.8-14.4,5.7-16.2,2.8c-2-2.2-2.3-4.2-0.6-6.2c1.3-1.4,2.6-1.4,4-0.1c1.2,1,1.3,2.2,0.3,3.4c-1,0.8-1.9,1-3,0.6
	c0,0.4,0.2,1,0.6,1.3c1.6,1.4,4.4,1.1,8.3-1l6.8-18.4C598.9,168.7,598.5,167.5,597.4,166.5L597.4,166.5z"/>
<path class="st0" d="M189,624c-8.9,0.5-14.9,0.9-18.1,1c-0.8,0-1.1,0-1.3-0.1c-0.1-0.3,0-0.9,0.3-1.4c0.3-0.9,0.9-2.8,1.7-6
	c0.1-0.3,0.2-0.6,0.4-0.9c0.1-1.1,0.6-1.4,1.7-0.9c4.4,2.2,9.9,4.4,16.7,6.6l9.6-11.4l-7.4-6.5c-1.2-1.1-2.3-2.1-3.2-2.8l0.2-2.2
	c0.4,0.5,0.9,1.1,1.4,1.5l10.1,8.9l11.4-13.2c2.9,3,4.7,5.3,5.5,6.7c0.1,0.6-0.2,1-0.9,1c-1,0.1-1.7,0-2.1-0.2l-27.2,31.6
	c-1.3,1.5-2.6,3-3.8,4.4c-0.6,1-1.3,1.8-1.8,2.5c-0.4,0.2-1.5-0.1-3.2-0.9c-2.3-1.1-3.4-1.8-3.5-2.5c-0.1-0.2,0.5-1,1.6-2.3
	c1-0.9,2.6-2.5,4.8-4.9L189,624z M210.8,632.8l-11.6,13.4c-1.6,1.6-1.5,3.1,0.3,4.7l5.1,4.4c2.7,3.5,7.6,2.6,15-2.3
	c0.5-0.4,1.1-0.5,1.4-0.4c0,0.2-0.3,0.5-0.9,0.9c-3.9,2.7-5.9,5.6-6.1,8.8c-0.1,1.3-0.2,2.2-0.5,2.5c-2.6,2.5-6.3,1.6-11.3-2.4
	l-9.2-8.2c-3.9-3.5-4.2-7-1.2-10.6l28.4-33c1-1.3,1.6-2.5,2-3.5c0.4-1.1,0.9-1.5,1.3-1.6c3.2,3.6,5.3,6.4,6.1,8.8
	c-0.2,0.2-1,0.3-2.5,0.2c-0.4,0-0.6,0-0.6,0l-14.9,17.2c5.4-0.2,11.3-1.2,17.8-2.8c1-0.3,1.4,0,1.5,1c0.4,3.2,1,6.3,1.3,8.9
	c0.1,0.8,0,1.2-0.4,1.3c-0.2,0.2-0.5,0.2-0.9-0.1c-1.4-1.3-2.6-1.9-3.5-2.2c-1.8-0.6-5.3-1.7-10.4-3
	C215,634.1,212.8,633.5,210.8,632.8L210.8,632.8z M254.2,642.9l42.3,19.9c3.2-1.9,5.5-3,6.4-3.4c0,0,0.3,0.2,1,0.4
	c1.8,3.2,3.3,6.2,4.4,8.5c0,0.8-0.3,1.2-0.9,1.3l-50.8-23.9c-1.5-0.8-2.8-1.4-3.9-1.8l-0.3-2.2C253,642.2,253.6,642.5,254.2,642.9
	L254.2,642.9z M265.6,659.4l-5,11l21.9,10.3l5-11L265.6,659.4z M260.5,692.7l7.8-16.8l-8.5-4l-0.2,0.4c-0.6,1-2.1,1.3-4.6,1
	c-2.4-0.8-3.3-1.7-2.9-2.8l7-13.2c0.6-1.4,1.2-2.8,1.7-4.2c0.1-0.2,0.3-0.2,0.9-0.2c0.4,0.8,1.1,1.7,2.1,2.7
	c0.9,1.2,1.7,2.2,2.3,2.8l20.6,9.6c1.7-0.6,3-1.2,3.8-1.6c0.2-0.1,0.5,0.1,1.1,0.5c1.6,1.7,3.1,3.8,4.4,6.3c0.2,0.2,0.1,0.5-0.3,0.6
	c-0.3,0.2-0.9,0.3-1.8,0.3c-0.1-0.1-0.2-0.1-0.2-0.1l-5,12.7c-0.6,0.9-2.1,0.9-4.7,0c-2.4-0.9-3.3-1.8-2.9-2.7l0.9-1.8l-5.5-2.6
	c0.3,1-0.4,1.3-2.3,1.2l-8.1,17.7c-2,2.4-5.3,2.8-9.5,1.4c-0.6-0.5-1-0.9-0.9-1c0.4-3.8-1.1-7-4.5-9.6c-0.1-0.9,0-1.2,0.4-1
	C256.9,691.8,259.9,693.2,260.5,692.7L260.5,692.7z M278.1,640.7c7.1,3.7,9.9,7.6,8.6,11.6c-1.2,2.6-3.2,3.7-5.9,3.1
	c-2.9-1-3.9-2.7-2.8-5.3c1.1-2.4,1.1-5.4-0.1-8.9C277.8,641.1,277.9,641,278.1,640.7L278.1,640.7z M256.2,675.4
	c1.8,1.8,3.8,4.2,5.9,7.3c-0.1,0.5-0.3,0.8-0.8,0.9c-0.4,0.1-1,0.1-1.6,0c-0.4-0.2-0.8-0.3-0.8-0.3c-8.6,1.7-17,2.1-25.5,0.9
	c-0.3-0.5-0.4-0.9-0.2-1c7.6-0.8,14.9-3.4,22-7.8C255.3,675.3,255.6,675.3,256.2,675.4L256.2,675.4z M275.8,686.1
	c8.1,5.2,12.3,10.7,12.6,16.6c-0.4,2.8-1.9,4.4-4.5,4.9c-2.5,0-3.9-1.5-4.5-4.7c-0.2-0.8-0.3-1.8-0.4-3.2c0.4-4.4-0.9-8.8-3.8-13
	c-0.3-0.1-0.4-0.2-0.3-0.4C275.1,686.2,275.4,686.1,275.8,686.1L275.8,686.1z M333.7,706.1l-2,11.8l25,4.4l2-11.8L333.7,706.1z
	 M336.1,692.7l-2.1,12.2l25,4.4l2.1-12.2L336.1,692.7z M338.5,679.1l-2.1,12l25,4.4l2.1-12L338.5,679.1z M352.7,671.9l-6.9,7
	l16.6,2.9c1.2-1.2,2.3-1.8,3.1-1.9c0.2,0,0.3,0,0.5,0c0-0.1,0.3-0.1,0.8-0.1c0.3,0.4,0.8,0.8,1.4,1.1c1.8,1.3,3.3,2.5,4.5,3.4
	c0.1,0.3,0,0.6-0.2,1c-0.2,0.4-0.9,1-1.7,1.5c-0.2,0.1-0.3,0.2-0.3,0.2l-5.3,29.7c-0.3,2.1-0.9,5.1-1.6,9.3c0.1,0.5,0.1,0.9,0.1,1
	c-0.3,0.9-1.7,1.3-4.1,1.4c-2.7-0.3-4-0.9-3.8-1.5l0.5-3.2l-25-4.4l-0.4,2.3c-0.3,0.8-1.6,1.2-4,1.1c-2.3-0.1-3.2-0.5-3.1-1.3
	c0.1-0.5,0.2-1.5,0.5-3c0.3-2.2,1.1-5.5,2-10.2l5.9-34c0.3-0.1,2.6,1.2,6.5,3.7l2.9,0.5c-0.2,0.3-0.1-0.1,0.2-1.2
	c0.9-2.6,1.5-4.8,1.9-6.4c0.5-1.9,0.9-3.1,1.2-3.7c0-0.1,0.2-0.2,0.8-0.3c3.1,0.9,6.4,1.9,9.9,3.2c0,0.5-0.1,0.8-0.1,0.8
	C354.5,670.9,353.5,671.3,352.7,671.9L352.7,671.9z M413.3,684.1l7-1.1c0-0.8,0.4-1.7,1.2-2.7c0.1-0.1,0.5-0.3,1.2-0.4
	c1.8,0.1,4.3,0.9,7.4,2.3c0,0.2,0.1,0.4,0.1,0.8c-0.1,0.2-0.3,0.4-0.6,0.6c-0.9,0.4-1.2,0.8-1.2,1c-0.5,2.4-1,4.8-1.5,7l7.4-1
	c0-5.5-1-12.3-2.8-20.6c4-0.6,6.9-0.5,8.9,0.2c0.5,0.2,0.5,0.6,0.1,1c-0.5,0.8-1.1,1.3-1.6,1.5l0.9,5.5c0.5,4.3,0.9,8.2,0.8,11.5
	l7.3-1.1c0.8-1.5,1.9-3.1,3.3-5.1c0,0,0.2,0,0.8-0.1c2.4,1.2,4.4,2.6,6.1,4.2c0.4,0.5,0.4,0.9-0.1,1.1l-15.3,2.2
	c3.9,8.9,10.2,13.6,19,14.5c0.2,0.4,0.2,0.8,0.1,1c-2.7,0.4-4.8,2.1-6.4,5c-0.2,0.2-0.5,0.3-0.8,0.1c-6.9-2.3-11.3-9-13.2-20.3
	l-0.8,0.1c-0.8,14-7.6,22.6-20.5,26.2c-0.4,0.1-0.8,0-0.8-0.1c0-0.2,0.2-0.5,0.6-0.9c9-5.4,13.7-13.5,14.2-24.4l-7.5,1.1
	c-4.8,15-13.1,24.1-24.9,27.4c-0.3,0.2-0.4,0.2-0.4,0c-0.1-0.3,0-0.5,0.3-0.8c7.8-4.8,13.5-12.2,17.2-22.4c-1.4,1.5-2.9,1.6-4.3,0.1
	c-0.3-0.2-0.5-0.8-0.8-1.7c-0.4-2.3-1.4-3.9-2.9-4.7c-0.1,0-0.2-0.1-0.3-0.2c-3.2,6.1-6.8,10.2-10.6,12.4c-0.6,0.3-0.9,0.1-0.6-0.4
	c5.9-8,8.9-18,9.3-30c-0.2-0.3,0.1-0.4,1-0.3c2.9,0.4,5.7,1,8.4,1.8c0.4,0.4,0.3,0.8-0.1,1.1c-0.1,0.3-0.4,0.6-0.9,0.9
	c-0.6,0.2-1,0.4-1,0.6c-0.2,0.5-0.6,1.4-1.2,2.7C414.2,681.7,413.7,683.1,413.3,684.1L413.3,684.1z M420.7,684.3l-7.9,1.1
	c-0.6,1.6-1.4,3.2-2.1,5c5.6-0.4,8.5,1,8.7,4.3C420.5,691,421,687.5,420.7,684.3L420.7,684.3z M442.5,674.6c4.1-0.4,7.1,0.4,8.9,2.6
	c1.3,1.9,1.2,3.9-0.4,5.6c-2,1.5-3.6,1.2-4.9-0.8c-0.2-0.2-0.3-0.6-0.4-1.3c-0.2-2.7-1.3-4.5-3.3-5.6
	C441.9,675,441.9,674.8,442.5,674.6L442.5,674.6z M412.9,719.5c3.6,5.4,3.6,10-0.1,13.5c-2.4,1.4-4.4,1.5-6,0.3
	c-1.8-1.9-1.8-3.7,0-5.3c0.1-0.4,0.3-0.6,0.6-0.9c3-1.3,4.5-3.8,4.5-7.6C412,719.4,412.3,719.4,412.9,719.5L412.9,719.5z
	 M423.4,718.2c4.9,1.2,7.8,3.6,8.6,7.3c0,2.3-1.1,3.8-3.1,4.5c-2.5,0.5-4-0.1-4.6-1.9c-0.3-1.1-0.3-2.3,0-3.6c0.9-1.3,0.5-3.1-1-5.4
	c-0.2-0.2-0.3-0.3-0.3-0.5C422.9,718.4,423,718.3,423.4,718.2L423.4,718.2z M434.5,716.4c5.5,0.3,9.1,1.9,11.1,5.1
	c0.9,2.5,0.1,4.3-2,5.6c-3.2,1.2-5,0.6-5.6-1.7c-0.1-0.9-0.2-1.5-0.3-1.9c0.3-2.6-0.6-4.8-3.1-6.3c-0.3,0.1-0.5,0-0.5-0.1
	C434.1,716.8,434.2,716.6,434.5,716.4L434.5,716.4z M447.3,713c6.3,0.9,10.9,3.1,13.6,7c1,2.1,0.6,3.9-1.1,5.3
	c-2.1,1.5-3.9,1.5-5.3,0c-0.6-0.6-1.1-1.6-1.5-3.1c-0.4-3.1-2.4-6-6-8.3c-0.3,0-0.4-0.1-0.3-0.5C446.7,713.2,447,713.1,447.3,713
	L447.3,713z M406.4,698.4c3,0,5.6,1.2,7.5,3.2c1.3,2.1,1.1,4-0.6,6c-1.7,1.3-3.2,0.9-4.5-1.4c-0.2,0.1-0.2-0.2-0.1-0.8
	c-0.2-2.8-1.1-5-2.5-6.3C405.9,699,406,698.7,406.4,698.4L406.4,698.4z M517.6,670.5l2,4.9l6.2-2.5l-1.9-5L517.6,670.5z
	 M515.1,664.1l2,5.2l6.3-2.6l-2.1-5.2L515.1,664.1z M511.6,671.6l-2-5.2l-4.9,2.1l2,5.1L511.6,671.6z M514.1,677.7l-2-5l-4.8,1.9
	l1.9,5L514.1,677.7z M517.1,685.2l-2.5-6.1l-4.9,1.9l2.3,5.6c0.3,1.2-0.3,2.3-1.9,3.2c-2,1.2-3.3,1.4-3.9,0.5
	c-0.9-2.3-1.7-4.4-2.4-6.7c-1.9-5.6-3.4-10-4.7-13.1l-1.5-3.8c1.8-0.2,4.1-0.1,6.6,0.3l4.8-2.1l-1.8-4.4l-10.9,4.4
	c-1.2,0.8-2.4,1.3-3.5,1.8l-2.1-1.1c0.8-0.1,1.5-0.3,2.3-0.6l13.9-5.7l-3.8-9.4c4.1-1.4,6.6-2.2,7.5-2.2c0.3,0,0.5,0.4,0.4,1.2
	c-0.4,1.1-0.9,1.6-1.1,1.8l2.5,6.3l9.3-3.8c0.8-2.7,1.4-4.5,2-5.7c-0.1,0.1,0.1,0,0.8-0.3c2.3,0.3,4.6,1.2,6.9,2.4
	c0.5,0.5,0.6,0.9,0.1,1.1l-18.5,7.6l1.7,4.4l5.1-2.1c0.4-0.9,0.9-1.9,1.4-3.2c0.1-0.1,0.4-0.2,0.8-0.3c0.1-0.1,0.3-0.2,0.6-0.3
	c2,0.5,4,1,6,1.4c-0.1,0.2-0.1,0.3,0.1,0.2c0.1,0.5,0.2,0.9,0.1,1.1c0,0.3-0.3,0.9-0.8,1.4c-0.2,0.1-0.3,0.1-0.3,0.1l6.8,14.7
	c0.2,0.9-0.6,1.8-2.4,2.9c-2.1,1-3.3,1.2-3.6,0.3l-1.9-4.9l-6.3,2.5l2.5,6.2C520.4,685.8,518.5,686.6,517.1,685.2L517.1,685.2z
	 M484.9,680.8l-2.8,1.2c-1.3,0.8-2.6,1.3-3.9,1.8l-1.8-1.2c0.8-0.1,1.4-0.3,2.3-0.6l5.8-2.4l-7.5-18.7c4.1-1.5,6.5-2.3,7.5-2.3
	c0.3,0,0.5,0.4,0.4,1.2c-0.4,1.1-0.9,1.7-1.2,1.8l6.3,15.7l1.4-0.5c0.8-2.3,1.2-4,1.5-5c0.2-0.1,0.4-0.2,0.8-0.3
	c2.5,0.9,4.4,1.7,5.9,2.6c0,0.5-0.1,0.8-0.2,0.9l-8.9,3.6c5,12,10,23.8,14.9,35.3c-2.6,3.4-4.7,4.4-6.5,3.1c-1.6-4-4-10-7.1-17.5
	C489,691.1,486.6,685,484.9,680.8L484.9,680.8z M531.2,696.9l-3.8-9.4l-19.6,8c-0.2,0.3-1.5,0.9-3.9,1.8l-1.8-1.2
	c0.8,0,1.4-0.2,2-0.4l22.8-9.3l-0.5-1.2l-1.5-3l0,0c-0.1,0.1-0.1,0,0.2-0.3c2.3-0.5,4.8-1,7.5-1.4c0.1,0.3,0.3,0.6,0.4,1
	c-0.1,0.3-0.3,0.9-0.9,1.4c-0.1,0-0.2,0.1-0.2,0.1l0.5,1.2l1.1-0.5c0.8-2.6,1.5-4.5,2-5.7c-0.1,0.1,0.1,0,0.8-0.3
	c2.3,0.3,4.6,1.2,6.9,2.4c0.6,0.5,0.6,0.9,0.2,1.1l-10.5,4.2l0.5,1.4c1.5,3.7,3,7,4.6,10.2c1.2,2.8-0.4,5.2-4.7,7.1
	c-0.3,0-0.5-0.1-0.6-0.3c-1.6-1.6-4.1-2.6-7.6-2.6c-0.5,0-0.9-0.1-1-0.4c-0.1-0.4,0-0.8,0.5-0.8
	C529.4,699.2,531.5,698.2,531.2,696.9L531.2,696.9z M512.2,647.5c4.2-1.9,7.1-1.7,8.9,0.4c0.6,2.2,0.1,3.7-1.7,4.5
	c-1.4,0.5-2.7-0.2-3.9-2.3c-0.4-0.5-1.5-1.2-3.3-1.9C511.9,648.3,511.9,648,512.2,647.5L512.2,647.5z M511.3,695.8
	c5.5-1.5,9.2-0.6,11,2.6c0.6,1.7,0.1,3.1-1.8,4.2c-2.1,1.1-3.6,0.8-4.6-0.8c-1.4-2.4-3-4.1-4.8-5.2
	C510.7,696.2,510.7,695.9,511.3,695.8L511.3,695.8z M581.7,622l-1.4,1.1c0.2,0.3,0.2,0.5,0.1,1c-0.1,0.2-0.2,0.5-0.3,0.9
	c0,0.2,0,0.5,0.1,0.9c5.8,13.1,6.4,24.6,2.1,34.5c-0.4,0.5-0.6,0.5-0.8-0.1c1.4-9.2-1.2-19.8-7.9-31.7l-1.4,1.2
	c0.5,6.1,0.3,11.4-0.8,15.9c-0.2,0.6-0.4,0.5-0.8-0.1c-0.3-3.1-1-6.4-1.8-9.8l-6,4.9l7.9,9.8c0.3-0.5,0.8-1.1,1.2-1.6
	c1.3-1.4,3-3.8,5.4-7c0.4,0,0.5,0,0.5,0.2c-0.4,1.1-0.9,2.1-1.2,3c-1,1.8-2.1,4.5-3.8,8.2l3.5,4.3c3.3,4.2,7,8.6,10.7,13.1
	c-0.2,2.8-1.6,4.5-4.1,5.3c-2.1-2.7-4.2-5.2-6-7.5c-1.9-2.4-3.5-4.7-5-6.7l-1.7-2.2c-0.5,1.5-1.4,3.7-2.5,6.6
	c-0.4,1.2-0.6,1.9-0.9,2.3c-0.4,0.4-0.8,0.5-0.9,0.4c-0.4-0.3-1.9-1.2-4.4-2.6c-0.8-0.5-1.3-0.9-1.6-1.3c-0.5-0.3-0.6-0.6-0.5-1
	c2.1-2.5,4.5-5.4,7.2-8.8l-8.7-10.8l-3.3,2.7c2.3,5.7,3.4,10.4,3.4,13.9c0.2,0.5,0,0.5-0.5,0.1c-2.9-6-7.1-12.2-12.6-18.9
	c-0.2-0.3-0.3-0.5-0.2-0.5c0,0,0.1-0.1,0.2-0.2c1.8-1.3,3.8-2.6,5.8-4.1c0.5,0.1,0.8,0.3,0.9,0.6c-0.3,1-0.4,1.8-0.1,2.7
	c0.9,1.6,1.8,3.5,2.7,5.3l3.1-2.5l-10.9-13.6c3-1.9,5.1-3.2,6.6-3.8c0.3,0.1,0.6,0.4,0.8,1c0,1-0.1,1.6-0.2,2.2l8.5,10.4
	c0-2.4,0-4.1,0-5.2c0.1-0.1,0.3-0.2,0.5-0.4c2.7,0.1,4.7,0.3,6,0.6c-1.8-5.7-4.1-11.3-6.9-16.7c-0.2-0.2-0.2-0.5-0.1-0.9
	c1.8-0.8,4.8-1.9,9-3.4c0.3,0.1,0.5,0.3,0.6,0.8c-0.2,0.3-0.3,0.6-0.5,1c-0.4,0.9-0.6,1.4-0.5,1.8c0.9,3.9,1.4,7.5,1.8,10.6
	l14.2-11.7c-0.1-0.1-0.1-1.4-0.1-3.8c0-0.2,0.3-0.4,0.8-0.6c0,0,0.1,0,0.2-0.1c2.3-0.8,4.8-1.4,7.9-1.9c0.1,0.2,0.2,0.3,0.3,0.4
	c0.3,0.4,0.4,0.6,0.4,0.6c0.1,0.5,0,1.2-0.2,1.7c-0.2,0.9,0.2,1.6,1.1,2.5c15.8,20.1,19.7,33.1,12.1,39c-0.3,0.1-0.6,0.1-1.1,0.2
	c-2.8-1.6-5.8-1.8-8.9-0.5c-0.4,0.1-0.5,0-0.3-0.4c11.8-2.6,8.5-14.9-9.6-37.1l-1.4,1.2c0.5-0.2,0.9-0.2,1-0.1
	c0.1,0.1,0,0.4-0.3,0.9c-0.2,0.5-0.3,1.1-0.3,1.6c0.1,0.1,0.1,0.1,0.1,0.1c10.4,17.9,10.4,33.2-0.1,46.2c-0.4,0-0.6,0.1-1,0
	c-0.1-0.1,0-0.2,0.3-0.4C593.8,652.8,592,638.3,581.7,622L581.7,622z M641.4,580.7l7.4-9.6l-7-5.5l-7.4,9.6L641.4,580.7z M658,593.8
	l8.7-11.3l-8.1-6.4l-8.7,11.3L658,593.8z M638.7,554.4L623.6,574c2.3,1.2,3.8,2.3,4.5,3.2c0.3-0.1,0.4-0.2,0.3,0
	c3.1-2.1,4.7-3,5-2.8l6.4-8.4c0,0,0-0.2-0.2-0.9c-0.2-0.8-0.3-1.6-0.3-2.5c0.1-0.3,0.2-0.6,0.4-0.9c2.1-1,4.3-1.7,6.3-2.5
	c0.2,0.2,0.4,0.4,0.5,0.5c0.1,0.6,0.1,1.2,0.1,1.6l7.3,5.7c0.6,0.8,0.6,1.9-0.3,3.7c-1.1,1.9-1.9,2.6-2.8,1.9l-1.2-1l-7.4,9.6l6.3,5
	l8.1-10.6c-0.1,0.3-0.4-0.4-0.8-2.3c-0.2-0.3-0.3-0.8-0.3-1.2c0,0,0-0.1,0.1-0.2c0.2-0.2,0.4-0.4,0.5-0.5c0.3-0.2,0.5-0.3,0.9-0.3
	c1.6-0.9,3.6-1.6,5.9-2.4c0.4,0.1,0.6,0.3,0.9,0.6c0.1,0.6,0.1,1.5,0.1,2.3l9.3,7.4c0.5,0.9,0.1,2.4-1.3,4.5c-1.1,1.3-2,1.6-2.9,0.9
	l-1.6-1.2l-8.7,11.1l3.2,2.5c0.2,0.9-0.3,2.2-1.7,4.2c-0.9,1.2-1.7,1.5-2.4,1L628.7,579c0.1,2.1-0.4,3.5-1.6,4.2
	c-1.4,0.6-2.8,0.2-4.1-1.3c-0.6,1-1,2.7-1.1,5c0,1.4-0.2,2.4-0.3,2.9c-0.1,0.3-0.2,0.6-0.3,0.8c-0.2,0-0.4-0.1-0.5-0.4
	c-0.6-0.5-1.7-1.8-3.1-3.8l-4.4,5.6c0.2,0.5,0.4,1.2,0.8,1.8c2.9,8.1,4.3,12,4,11.8c-0.4,0.5-0.6,0.6-0.9,0.3
	c-2.9-5.1-8.9-12.4-17.9-22.2c-0.2-0.2-0.2-0.5,0.2-1.1c4-3.1,6.5-5,7.7-5.5c0.8-0.1,1.1,0.1,1.2,0.5c0,0.6,0,1.6,0,2.9
	c0.1,0.3,1.3,3.1,3.5,8.2c-0.3-0.6-0.1-0.1,0.6,1.5l3.3-4.1c-0.1-0.3-0.2-0.8-0.5-1.4c-0.3-0.6-0.5-1.3-0.6-1.7c0-0.2,0.3-0.5,0.9-1
	c1.5-0.3,3.2-0.6,5.3-1.1c0.6-0.3,1.2-0.5,1.5-0.6c0,0,0-0.2-0.1-0.4c-0.8-2.3-2.6-4.1-5.6-5.4c-0.2-0.3-0.1-0.5,0.2-0.8
	c2-0.5,4-0.5,5.6-0.1l14.9-19.4c-0.5-1.5-0.9-2.6-1.1-3.1c-0.2-0.2,0-0.5,0.8-1c1.3-0.5,3.6-1.3,7.1-2.2c0.5-0.1,0.9-0.2,1.1-0.5
	c0.6,0.3,0.9,0.6,0.9,1c-2.3,4.1-3.5,7.6-3.8,10.6c-0.1,0.4-0.2,0.6-0.2,0.8c-0.3,0-0.5-0.1-0.6-0.4
	C640.8,558.6,639.8,556.8,638.7,554.4L638.7,554.4z M642.4,593.1l5.7,22.2c0.2,0.9-0.1,1.2-0.9,1.2l-6.5-0.3c-0.6,0.1-1,0.1-0.8-0.2
	c0-0.2,0-0.4-0.1-0.8c0-0.4,0-1,0-1.6l-21.3-16.8c-0.4-0.3-0.4-0.8-0.1-1.1c2-2.5,3.8-4,4.9-4.8c0.2-0.1,0.4,0.1,0.6,0.4l0.2,2.2
	l17.3,13.5c0-4.7,0-9.4,0-14.1c0.2-0.2,0.4-0.4,0.6-0.4C642.3,592.7,642.3,592.8,642.4,593.1L642.4,593.1z M615.4,562.1
	c6.1-5.7,10.4-7.6,12.9-5.6c2.1,1.4,2.4,3.5,1,6.2c-1.7,2.2-3.4,2.5-5.5,0.9c-0.4-0.3-1-0.6-1.7-1c-2-0.8-4.1-0.6-6,0.3
	c-0.2,0.3-0.5,0.2-1-0.1C615,562.6,615.2,562.3,615.4,562.1L615.4,562.1z"/>
<linearGradient id="SVGID_1_" gradientUnits="userSpaceOnUse" x1="109.4857" y1="398.1584" x2="649.0276" y2="398.1584">
	<stop  offset="0" style="stop-color:#1A2C81"/>
	<stop  offset="0.1254" style="stop-color:#21357C"/>
	<stop  offset="0.33" style="stop-color:#324D6E"/>
	<stop  offset="0.5882" style="stop-color:#4F7558"/>
	<stop  offset="0.8872" style="stop-color:#77AC3A"/>
	<stop  offset="1" style="stop-color:#87C22D"/>
</linearGradient>
<path class="st1" d="M130.8,534.6c0,0,16.4-80.3,51.5-136.7s83-108.9,159.7-129.7c76.9-20.9,112.6,1.1,180.7-9.6
	c68.2-10.8,96.1-19.8,126.3-55.6c0,0-3.5,89.2-20.2,144.8c-16.6,55.6-52.1,167.4-133,213.1c-80.9,45.8-184.3,32.5-242.4,22.8
	c-58-9.6-86.4-22.9-103.3-20.8c-16.8,2.2-21.1,9.6-24.8,22.4l-15.9-1.1c0,0,12.6-34.6,46.4-54.9c33.8-20.2,75.5-21.3,104.4-32.5
	c29.1-11.1,46.3-19.4,46.3-19.4L287.3,536l84.3-56.6l-15.1,46.8c0,0,112.7-69.4,145-94.8c32.3-25.4,86.9-92.5,105.3-126.4
	c18.2-33.9,19.8-49.2,19.8-49.2s-40.2,51.8-60,72.8c-12,12.8-28.5,29.4-49,40.9c-16.1,9-31.3,13.7-46.1,13.9
	c-28.4,0.1-55.7-11.8-87.3-9.6c-41.7,2.8-78.5,16.9-105.2,51.8c-26.6,35-45.7,52.3-72.7,65s-34.6,15.3-52.1,26.3
	C136.8,527.8,130.8,534.6,130.8,534.6L130.8,534.6z"/>
<linearGradient id="SVGID_2_" gradientUnits="userSpaceOnUse" x1="259.2453" y1="504.3438" x2="644.5051" y2="504.3438">
	<stop  offset="0" style="stop-color:#1A2C81"/>
	<stop  offset="0.1401" style="stop-color:#182978"/>
	<stop  offset="0.3687" style="stop-color:#132160"/>
	<stop  offset="0.6571" style="stop-color:#0B1338"/>
	<stop  offset="0.9914" style="stop-color:#000101"/>
	<stop  offset="1" style="stop-color:#000000"/>
</linearGradient>
<path class="st2" d="M641,362.1c-2.3,39.9-59.4,186.3-165.4,227.2c-14.8,5.7-29.7,10-44.4,13.3c-13.1,15.7-27,21.9-27,21.9v18.1
	c-15.8-2.2-23-21.1-25.9-32.3c-66.9,4.7-119-8.8-119-8.8c42.2,40.2,129.4,49.8,176.5,43.3c65.6-9.2,127.9-43.1,169.3-112.9
	C661.1,436.6,641,362.1,641,362.1z"/>
<path class="st3" d="M591.5,484.6C623,435,639.8,383.3,641,362.1c0,0,20.2,74.5-36,169.7c-23.2,39.1-53,67-86.2,85.5
	c5.4-4,12.8-9.8,20.6-17.1c15.2-14.1,29.4-29.3,29.4-29.3l1.7-12.2l4.6-2.3l2.4-4.4l0.6-10.1l5.7-9.1l0.8-5.7l-3-7.4l1-4.4l8.7-7.4
	l7-17.2L591.5,484.6z"/>
<linearGradient id="SVGID_3_" gradientUnits="userSpaceOnUse" x1="153.5452" y1="283.7593" x2="578.4894" y2="283.7593">
	<stop  offset="0" style="stop-color:#144488"/>
	<stop  offset="0.5523" style="stop-color:#143C7F"/>
	<stop  offset="1" style="stop-color:#133274"/>
</linearGradient>
<path class="st4" d="M398.5,151.3c71.2,0,135.3,30.7,180,79.7c-58.9,15.9-133,10.3-186.5,14.4c-41.2,3.1-80.2,11.7-131.6,44.7
	c-53.3,34.2-87.6,89-106.1,126.2c-0.4-5.8-0.6-11.7-0.6-17.6C153.5,262.1,263.2,151.3,398.5,151.3L398.5,151.3z"/>
<linearGradient id="SVGID_4_" gradientUnits="userSpaceOnUse" x1="188.9954" y1="280.7828" x2="355.6188" y2="280.7828">
	<stop  offset="0" style="stop-color:#87C22D"/>
	<stop  offset="0.2197" style="stop-color:#90C227"/>
	<stop  offset="0.5779" style="stop-color:#A8C318"/>
	<stop  offset="1" style="stop-color:#CDC400"/>
</linearGradient>
<path class="st5" d="M199,255.2l0.5,8.6l3.3-6.1l-2.1-1.9l8.4-6.3l4.9,0.5l-3.9,7.4l3.5,1.9v6.4l-3.8,0.5l-0.9,11.3l2.5,3.6
	l-3.8,2.2l-1.1,3.4l3.9,5.4l-0.5,5.5l-2.8-0.3l-0.2,2.9l-3.9-1.8l-0.6,7.4l-1.5,2.1c-1.8,0.2-3.9,9.8-3.9,9.8s-9.4,18.8-8,38.5
	l0.2,2.5c18.3-24.9,41.8-49.8,71-68.5c18.8-12,35.8-20.8,52-27.3l0.9-6.4l-1.7-5.5l20-17.1l7.8-0.6l10.3-8.8l0.5-9.1l5.5-3.2
	l-4.8-4.2l-6.4-0.2l-10.2,7.1l-2.8-0.2l-1.6-2.5l-4.3,3l-11.6,2.7l-4-5.8l-4.9,1.3l-5,5.1l-3.4,1.2l-2.1-2.8l-4.7-1.3l-0.5-4.7h-3.6
	l-2.7,1.5l-2.3-1.2l-1.2-2.7l-2.5,0.3l-1.6,1.9l-1.4-1.4l-0.5-2.3l-2.8-1.3l-1.3,1.4l-1.6,3.1l-5,0.6l-2.5,2.4L255,213l-0.4-4
	l-5.9-6C229.7,217.8,212.9,235.5,199,255.2L199,255.2z"/>
<linearGradient id="SVGID_5_" gradientUnits="userSpaceOnUse" x1="409.1121" y1="202.2611" x2="513.3113" y2="202.2611">
	<stop  offset="0" style="stop-color:#87C22D"/>
	<stop  offset="0.2197" style="stop-color:#90C227"/>
	<stop  offset="0.5779" style="stop-color:#A8C318"/>
	<stop  offset="1" style="stop-color:#CDC400"/>
</linearGradient>
<path class="st6" d="M490.5,242.3c-8.5,0.3-16.8,0.5-25.2,0.8l-5.3-9.3l1-5.6l-3.8,0.6l-5.4-6.8l0.2-5.5l4.5-0.4l1.1-4.2l2.6-1.5
	l-7.1-11.9l-5.1,2.1l-3-3.5l-1.9-6.3l-2.1-0.2l-0.4-3.9l-17.2-0.2l-6.4-1l-3.1-3.1l-1.1-2.8h-3.6l4-2.1h4.3l1.2-3.4l3.3-0.1l4.3-8.1
	l19.6-0.9l2.7-3.4l11.9-0.1l3.3,3l5.8,1.2l5.7,3.1l6.8-0.9l6.3,4.8l0.3,5.2l3.5,2.6l5.4,5.3l4.7,1.3l0.4,4.4l2.5,2.7l-5.4,2.6
	l4.1,2.5l9.5,2.3l-3.1,4.4l-4.7-1.6l-2,0.3l5.6,5.6c0,0-14.6,11.7-18.4,15.8c-3.8,4-4.2,5.6-4.2,5.6l-0.8,3.2l-2.7,1.2L490.5,242.3z
	"/>
<linearGradient id="SVGID_6_" gradientUnits="userSpaceOnUse" x1="369.6622" y1="243.226" x2="396.1407" y2="243.226">
	<stop  offset="0" style="stop-color:#87C22D"/>
	<stop  offset="0.2197" style="stop-color:#90C227"/>
	<stop  offset="0.5779" style="stop-color:#A8C318"/>
	<stop  offset="1" style="stop-color:#CDC400"/>
</linearGradient>
<path class="st7" d="M396.1,245c-1.4,0.1-2.8,0.2-4.2,0.3c-7.5,0.5-14.9,1.3-22.3,2.3l3.6-8.8l8.3,2.2l5.4-1.9l3.9,0.3L396.1,245z"
	/>
<linearGradient id="SVGID_7_" gradientUnits="userSpaceOnUse" x1="288.1895" y1="198.4189" x2="332.6779" y2="198.4189">
	<stop  offset="0" style="stop-color:#87C22D"/>
	<stop  offset="0.2197" style="stop-color:#90C227"/>
	<stop  offset="0.5779" style="stop-color:#A8C318"/>
	<stop  offset="1" style="stop-color:#CDC400"/>
</linearGradient>
<polygon class="st8" points="288.2,200.4 295.6,193.6 295.6,190.9 299.3,190.5 304.1,187.8 308.2,189.5 312.7,193.6 316.9,194.3 
	317.8,197.2 321.2,197.5 325.1,193.6 327.7,192.4 331.1,190.6 332.7,191.8 329.5,195.7 325.9,198 325,200 328.5,202.8 327.5,204.3 
	325.1,205.1 321.7,205.1 319.2,208.8 314.3,209.1 309.4,207.7 303.6,206.9 295.4,206.7 293.5,205.1 299.8,204 302.1,202.4 
	298.9,200.9 299.1,198.4 301.7,197.4 309,195.9 309.4,194.3 307.9,192.5 302.3,192.8 300.4,195.1 298.1,196.8 297.2,198.8 
	293.1,198.8 290.2,201 "/>
<linearGradient id="SVGID_8_" gradientUnits="userSpaceOnUse" x1="371.1629" y1="172.6595" x2="416.1873" y2="172.6595">
	<stop  offset="0" style="stop-color:#87C22D"/>
	<stop  offset="0.2197" style="stop-color:#90C227"/>
	<stop  offset="0.5779" style="stop-color:#A8C318"/>
	<stop  offset="1" style="stop-color:#CDC400"/>
</linearGradient>
<path class="st9" d="M371.2,175.7c0,0,4-5,7.3-6.4c3.3-1.4,12.9-1.6,12.9-1.6l0.6-2.3l13-0.6l3.8-2.6l4.6,0.4l2.9,2.8l-0.2,2.9
	l-2.8,3l-5.4,0.5l-1.5,3.2h-3.6l-8,7.9l-6.4-3l-4.7,0.1l2-3.4l-1.3-1.8l-3.4,0.1L379,177l-6.3,0.2L371.2,175.7z"/>
<linearGradient id="SVGID_9_" gradientUnits="userSpaceOnUse" x1="361.1933" y1="188.1908" x2="385.4207" y2="188.1908">
	<stop  offset="0" style="stop-color:#87C22D"/>
	<stop  offset="0.2197" style="stop-color:#90C227"/>
	<stop  offset="0.5779" style="stop-color:#A8C318"/>
	<stop  offset="1" style="stop-color:#CDC400"/>
</linearGradient>
<polygon class="st10" points="365.4,183.6 366.3,189.4 369.1,190.6 377.2,190.8 382.5,189.5 384.9,187.9 385.4,189.3 384.5,192.7 
	361.8,192.4 361.2,190 "/>
<linearGradient id="SVGID_10_" gradientUnits="userSpaceOnUse" x1="355.9404" y1="218.225" x2="426.2642" y2="218.225">
	<stop  offset="0" style="stop-color:#87C22D"/>
	<stop  offset="0.2197" style="stop-color:#90C227"/>
	<stop  offset="0.5779" style="stop-color:#A8C318"/>
	<stop  offset="1" style="stop-color:#CDC400"/>
</linearGradient>
<polygon class="st11" points="355.9,206.3 363.1,199.7 364.4,197.2 368.1,197.2 368.9,202.5 372.1,202.4 375.1,197.8 381.9,198.1 
	382.5,202.5 388.2,202.4 392.5,198.3 396,200.4 396.1,205 400.5,204.5 401,208.9 403.3,211 404.8,209.1 412,208.9 409.2,211.5 
	409.2,213.7 410.6,215.8 415.9,217 417.2,219.7 424.5,221.4 426.3,223.6 421.4,227 418.8,227.2 412.9,224.6 411.1,222.6 408.9,224 
	415.1,230.9 414.6,239.3 397.5,239.3 390.6,233.2 377.8,233 377.8,228.9 390.2,229.2 398.8,222.4 398.3,217.6 394.4,217 
	386.4,209.2 372.7,209.9 367,210.7 364.9,209.2 364.3,207.1 362.5,207.6 359.4,209.3 "/>
<linearGradient id="SVGID_11_" gradientUnits="userSpaceOnUse" x1="357.9772" y1="218.1169" x2="372.235" y2="218.1169">
	<stop  offset="0" style="stop-color:#87C22D"/>
	<stop  offset="0.2197" style="stop-color:#90C227"/>
	<stop  offset="0.5779" style="stop-color:#A8C318"/>
	<stop  offset="1" style="stop-color:#CDC400"/>
</linearGradient>
<polygon class="st12" points="358,222.8 368.6,223.1 372.2,219.9 372.2,214.2 367,213.1 362.7,216.8 "/>
<linearGradient id="SVGID_12_" gradientUnits="userSpaceOnUse" x1="351.2236" y1="231.5914" x2="370.5197" y2="231.5914">
	<stop  offset="0" style="stop-color:#87C22D"/>
	<stop  offset="0.2197" style="stop-color:#90C227"/>
	<stop  offset="0.5779" style="stop-color:#A8C318"/>
	<stop  offset="1" style="stop-color:#CDC400"/>
</linearGradient>
<polygon class="st13" points="351.2,233.5 354.4,229.6 355.1,225.5 357.2,226.3 358.5,229.6 361.8,229.3 364.1,231.9 365.7,233.4 
	370.5,233.5 370,236.1 362.5,236.4 358.7,233.1 354.8,235.3 354.3,237.7 351.2,237.7 "/>
<linearGradient id="SVGID_13_" gradientUnits="userSpaceOnUse" x1="526.9258" y1="219.5778" x2="543.9707" y2="219.5778">
	<stop  offset="0" style="stop-color:#87C22D"/>
	<stop  offset="0.2197" style="stop-color:#90C227"/>
	<stop  offset="0.5779" style="stop-color:#A8C318"/>
	<stop  offset="1" style="stop-color:#CDC400"/>
</linearGradient>
<polygon class="st14" points="526.9,217.2 529.8,214.7 534.8,216 538.9,215.2 542.7,218.5 544,220.1 544,224.4 535.9,224.1 
	534.9,221.2 529.3,218.2 "/>
</svg>
