<?xml version="1.0" encoding="utf-8"?>
<!-- Generator: Adobe Illustrator 22.1.0, SVG Export Plug-In . SVG Version: 6.00 Build 0)  -->
<svg version="1.1" id="图层_1" xmlns="http://www.w3.org/2000/svg" xmlns:xlink="http://www.w3.org/1999/xlink" x="0px" y="0px"
	 viewBox="0 0 800 800" style="enable-background:new 0 0 800 800;" xml:space="preserve">
<style type="text/css">
	.st0{fill:#936C14;}
</style>
<g>
	<g>
		<path class="st0" d="M69.7,303.8v3H136v-3H69.7z"/>
		<path class="st0" d="M74.9,308.2h-3.3l3,2.2H78L74.9,308.2z"/>
		<path class="st0" d="M76,320v-2.2H63.1l2.5,2.2H76z"/>
		<path class="st0" d="M79.1,317.8v-2.2h-1.7v4.4h13.2v-2.2H79.1z"/>
		<path class="st0" d="M93.9,317.8v-2.2H92v4.4h13.8v-2.2H93.9z"/>
		<path class="st0" d="M90.1,324.2H79.6V339h10.5V324.2z M88.7,326.4v11.3H81v-11.3H88.7z"/>
		<path class="st0" d="M111,317.8v2.2h15.1v-2.2H111z"/>
		<path class="st0" d="M122.8,324.7h-8.3v14h8.3V324.7z M116,337.4v-10.2h5.5v10.2H116z"/>
		<path class="st0" d="M109.6,316.2h-2.5v45.4h2.5V316.2z"/>
		<path class="st0" d="M59,315.6h-3.6l5.2,4.4v41.6h2.8v-42.1L59,315.6z"/>
		<path class="st0" d="M51,311.5v3h224.9v-3H51z"/>
		<path class="st0" d="M56.8,362.7v6.9h1.9v-5h51.7v5h1.9v-6.9H56.8z"/>
		<path class="st0" d="M52.4,370.7v3h695.2v-3H52.4z"/>
		<path class="st0" d="M122.8,342.6h-8.3v13.8h8.3V342.6z M116,344.8h5.5V355H116V344.8z"/>
		<path class="st0" d="M90.1,358v-15.1H79.6V358H90.1z M81,356.6v-11.3h7.7v11.3H81z"/>
		<path class="st0" d="M114,362.7v1.9h161.8v-1.9H114z"/>
		<path class="st0" d="M206.2,304.9h-1.9v5.5h1.9V304.9z"/>
		<path class="st0" d="M194.1,304.9h-1.9v5.5h1.9V304.9z"/>
		<path class="st0" d="M194.1,315.6v4.4h15.1v-2.2h-13.5v-2.2H194.1z"/>
		<path class="st0" d="M192.7,320v-2.2h-13.5v-2.2h-1.7v4.4H192.7z"/>
		<path class="st0" d="M191.1,324.7h-8.3v14h8.3V324.7z M184.2,327.2h5.5v10.2h-5.5V327.2z"/>
		<path class="st0" d="M204.9,324.7h-8.5v14h8.5V324.7z M197.7,327.2h5.8v10.2h-5.8V327.2z"/>
		<path class="st0" d="M181.7,310.4v-5.5h-1.7v5.5H181.7z"/>
		<path class="st0" d="M230.7,304.9h-2.2v5.5h2.2V304.9z"/>
		<path class="st0" d="M218.3,304.9h-1.9v5.5h1.9V304.9z"/>
		<path class="st0" d="M218.3,324.7h-8.5v14h8.5V324.7z M217,337.4h-5.5v-10.2h5.5V337.4z"/>
		<path class="st0" d="M212.6,317.8v-2.2h-1.9v4.4h15.4v-2.2H212.6z"/>
		<path class="st0" d="M232.1,324.7h-8.8v14h8.8V324.7z M230.5,327.2v10.2h-5.8v-10.2H230.5z"/>
		<path class="st0" d="M229.4,315.6h-1.9v4.4h15.4v-2.2h-13.5V315.6z"/>
		<path class="st0" d="M146,293.9v3.3h129.9v-3.3H146z"/>
		<path class="st0" d="M152.6,298h-3.3l5.2,4.7v7.7h2.8v-8.3L152.6,298z"/>
		<path class="st0" d="M134.4,308.2h-2.5v2.2h2.5V308.2z"/>
		<path class="st0" d="M136.6,324.7h-8.3v14h8.3V324.7z M129.7,327.2h5.5v10.2h-5.5V327.2z"/>
		<path class="st0" d="M129.2,317.8v-2.2h-1.7v4.4h15.4v-2.2H129.2z"/>
		<path class="st0" d="M150.1,324.7h-8.3v14h8.3V324.7z M143.2,327.2h5.5v10.2h-5.5V327.2z"/>
		<path class="st0" d="M146,315.6h-1.7v4.4h15.1v-2.2H146V315.6z"/>
		<path class="st0" d="M169.6,304.9H168v5.5h1.7V304.9z"/>
		<path class="st0" d="M157,300l2.5,2.2h116.4V300H157z"/>
		<path class="st0" d="M163.8,324.7h-8.3v14h8.3V324.7z M157,327.2h5.5v10.2H157V327.2z"/>
		<path class="st0" d="M162.5,317.8v-2.2h-1.7v4.4h15.4v-2.2H162.5z"/>
		<path class="st0" d="M177.6,324.7h-8.5v14h8.5V324.7z M170.5,327.2h5.8v10.2h-5.8V327.2z"/>
		<path class="st0" d="M177.6,342.6h-8.5v13.8h8.5V342.6z M170.5,344.8h5.8V355h-5.8V344.8z"/>
		<path class="st0" d="M163.8,342.6h-8.3v13.8h8.3V342.6z M157,344.8h5.5V355H157V344.8z"/>
		<path class="st0" d="M150.1,342.6h-8.3v13.8h8.3V342.6z M143.2,344.8h5.5V355h-5.5V344.8z"/>
		<path class="st0" d="M136.6,342.6h-8.3v13.8h8.3V342.6z M129.7,344.8h5.5V355h-5.5V344.8z"/>
		<path class="st0" d="M232.1,342.6h-8.8v13.8h8.8V342.6z M230.5,355h-5.8v-10.2h5.8V355z"/>
		<path class="st0" d="M218.3,342.6h-8.5v13.8h8.5V342.6z M211.5,344.8h5.5V355h-5.5V344.8z"/>
		<path class="st0" d="M204.9,342.6h-8.5v13.8h8.5V342.6z M197.7,344.8h5.8V355h-5.8V344.8z"/>
		<path class="st0" d="M191.1,342.6h-8.3v13.8h8.3V342.6z M184.2,344.8h5.5V355h-5.5V344.8z"/>
		<path class="st0" d="M322.9,282.3l2.5,1.9h148.9l2.8-1.9H322.9z"/>
		<path class="st0" d="M306.1,287.8l-0.6-2.8h-29.2c-1.1,3.3-0.6,5.5,1.7,7.4h25.9C305.6,291.1,306.1,289.8,306.1,287.8z
			 M304.2,287.3c0,1.1,0,2.2-0.8,3h-24.8c-0.8-0.8-1.1-1.9-1.1-3H304.2z"/>
		<path class="st0" d="M310.5,276.3v3.3h178.9v-3.3H310.5z"/>
		<path class="st0" d="M318.8,280.7h-3.6l5.5,4.1v9.6h2.8v-10.2L318.8,280.7z"/>
		<path class="st0" d="M299.8,284.3h4.4l-12.9-7.2l-13.2,7.2h4.1l9.1-4.7L299.8,284.3z"/>
		<path class="st0" d="M306.1,295.5v3h50.4v-3H306.1z"/>
		<path class="st0" d="M319.4,311.2H318v6.1h-11.8v1.9H318v41h1.4V311.2z"/>
		<path class="st0" d="M312.8,316.2v-5h-1.7v5H312.8z"/>
		<path class="st0" d="M300.6,310.4v-3.3h-19.3v3.3H300.6z"/>
		<path class="st0" d="M306.1,307.1v3.3h187.7v-3.3H306.1z"/>
		<path class="st0" d="M323.5,317.3v-6.1h-1.4v49h1.4v-41h12.1v41h1.4v-49h-1.4v6.1H323.5z"/>
		<path class="st0" d="M328.4,316.2h1.9v-5h-1.9V316.2z"/>
		<path class="st0" d="M346.3,311.2v5h1.9v-5H346.3z"/>
		<path class="st0" d="M341.4,311.2H340v49h1.4v-41h11.8v41h1.4v-49h-1.4v6.1h-11.8V311.2z"/>
		<path class="st0" d="M254.7,304.9H253v5.5h1.7V304.9z"/>
		<path class="st0" d="M242.8,304.9h-1.9v5.5h1.9V304.9z"/>
		<path class="st0" d="M245.6,324.7h-8.5v14h8.5V324.7z M244.2,337.4h-5.8v-10.2h5.8V337.4z"/>
		<path class="st0" d="M245.9,315.6h-1.7v4.4h15.1v-2.2h-13.5V315.6z"/>
		<path class="st0" d="M259.1,324.7h-8.5v14h8.5V324.7z M251.9,337.4v-10.2h5.8v10.2H251.9z"/>
		<path class="st0" d="M262.4,317.8v-2.2h-1.7v4.4h15.1v-2.2H262.4z"/>
		<path class="st0" d="M267.1,304.9h-1.9v5.5h1.9V304.9z"/>
		<path class="st0" d="M272.6,324.7h-8.3v14h8.3V324.7z M271.2,337.4h-5.5v-10.2h5.5V337.4z"/>
		<path class="st0" d="M272.6,342.6h-8.3v13.8h8.3V342.6z M265.7,344.8h5.5V355h-5.5V344.8z"/>
		<path class="st0" d="M259.1,342.6h-8.5v13.8h8.5V342.6z M251.9,355v-10.2h5.8V355H251.9z"/>
		<path class="st0" d="M245.6,342.6h-8.5v13.8h8.5V342.6z M238.4,344.8h5.8V355h-5.8V344.8z"/>
		<path class="st0" d="M277.5,369.6h2.5v-72.4h22v63h2.5v-66.3h-27V369.6z"/>
		<path class="st0" d="M281.4,366.3v1.9h237.3v-1.9H281.4z"/>
		<path class="st0" d="M302,361.3v1.9h195.7v-1.9H302z"/>
		<path class="st0" d="M431.1,293.9v-1.4l1.4-0.6v-1.7l-12.4,3.6v-1.4l1.4-0.6v-1.7l-12.9,3.9c-0.3-2.2-1.4-3.9-3-5.2
			c-1.4-1.4-3.3-2.2-5.5-2.2c-1.9,0-4.1,0.8-5.5,2.2c-1.7,1.4-2.8,3-3,5.2l-12.7-3.9v1.7l1.1,0.6v1.4l-12.1-3.6v1.7l1.1,0.6v1.4
			l-12.1-3.6v1.7l1.1,0.6v6.3c0,2.8,0.8,4.4,2.2,5.2c1.4,0.8,3.6,1.4,6.9,1.4l5.2-0.8l5.8,0.8l0,0l5.2-0.8l5.8,0.8l3.3-0.6H408
			l3,0.6l0,0l5.8-0.8l5.2,0.8l5.8-0.8l5.2,0.8c3.3,0,5.5-0.6,6.9-1.4c1.4-0.8,2.2-2.5,2.2-5.2v-6.3l1.4-0.6v-1.7L431.1,293.9z
			 M431.1,298.8v-3l9.6-3v6.1c0,1.9-0.3,3-0.8,3.9c-0.8,0.5-1.9,0.8-3.9,1.1l0.3-0.3c1.1-1.1,1.9-2.8,1.9-4.4v-2.5H438
			c-0.3,2.2-1.1,4.1-2.2,5.5c-1.4,1.1-2.8,1.7-3.9,1.7l-2.2-0.3C430.6,302.7,431.1,301.1,431.1,298.8z M427.2,299.1v-2.5H427
			c-0.3,2.2-1.1,4.1-2.2,5.5c-1.4,1.1-2.8,1.7-3.9,1.7l-2.2-0.3c0.8-0.8,1.4-2.5,1.4-4.7v-3l9.6-3v6.1c0,1.9-0.6,3-0.8,3.9
			c-0.8,0.5-1.9,0.8-3.9,1.1l0.3-0.3C426.4,302.4,427.2,300.8,427.2,299.1z M418.7,292.8v6.1l-0.8,3.9c-0.8,0.5-1.9,0.8-3.9,1.1
			v-0.3c1.4-1.1,2.2-2.8,2.2-4.4v-2.5H416c-0.6,2.2-1.1,4.1-2.5,5.5c-1.1,1.1-2.5,1.7-3.6,1.7c-2.5-0.3-4.4-0.6-5.5-1.1
			c2.5-1.7,3.9-3.9,4.1-6.9L418.7,292.8z M406.6,293.3l0.3,1.9c0,1.7-0.5,2.8-1.4,4.1l-1.4,1.4l-2.2,0.8l1.9,2.5h-7.4l0.6-0.6
			l1.1-1.4v-0.6c-0.8,0-1.4-0.3-1.9-0.8l3.9-2.2l4.1,2.2l-0.8-4.4L406.6,293.3z M405,290.6l1.7,2.5l-4.7-0.6l-1.9-3.9
			C401.9,288.7,403.6,289.2,405,290.6z M395.3,290.6c1.4-1.4,2.8-1.9,4.7-1.9l-1.9,3.9l-4.4,0.6L395.3,290.6z M370.5,298.8v-6.1
			l9.4,3v3c0,2.2,0.6,3.9,1.4,4.7l-2.2,0.3c-1.1,0-2.5-0.6-3.6-1.7c-1.1-1.4-1.9-3.3-2.2-5.5H373c-0.6,2.8,0,5,1.9,6.9v0.3l-3-0.8
			C371.1,302.4,370.5,301.1,370.5,298.8z M368.9,295.8v3c0,2.2,0.6,3.9,1.4,4.7l-2.2,0.3c-1.1,0-2.5-0.6-3.9-1.7
			c-1.1-1.4-1.9-3.3-1.9-5.5H362c-0.6,2.8,0,5,1.7,6.9l0.3,0.3c-1.7-0.3-3-0.6-3.9-1.1c-0.3-0.8-0.5-1.9-0.5-3.9v-6.1L368.9,295.8z
			 M400,295.3l1.7-2.2l3.6,0.5L400,295.3l2.8,0.8l0.6,3.9L400,295.3v2.8l-3.3,1.9L400,295.3l-2.8,0.8l0,0l-2.8-2.5L400,295.3
			l-1.7-2.2l1.7-3.3V295.3z M394.5,299.4c-0.8-1.4-1.4-2.5-1.4-4.1l0.6-1.9l3.3,3l-1.1,4.4L394.5,299.4z M395.6,302.7
			c-1.1,0.5-3,0.8-5.5,1.1c-1.1,0-2.5-0.6-3.6-1.7c-1.1-1.4-1.9-3.3-2.2-5.5H384c-0.6,2.8,0,5,1.9,6.9v0.3l-3-0.8
			c-0.8-0.5-1.4-1.9-1.4-4.1v-6.1l9.9,3C391.7,298.8,393.1,301.1,395.6,302.7L395.6,302.7z"/>
		<path class="st0" d="M416.8,311.2v5h1.9v-5H416.8z"/>
		<path class="st0" d="M412.1,311.2h-1.4v49h1.4v-41h11.8v41h1.4v-49h-1.4v6.1h-11.8V311.2z"/>
		<path class="st0" d="M406.3,311.2v6.1h-11.8v-6.1h-1.4v49h1.4v-41h11.8v41h1.4v-49H406.3z"/>
		<path class="st0" d="M429.7,311.2h-1.4v49h1.4v-41h11.8v41h1.4v-49h-1.4v6.1h-11.8V311.2z"/>
		<path class="st0" d="M443.8,295.5v3h50.1v-3H443.8z"/>
		<path class="st0" d="M434.4,311.2v5h2.2v-5H434.4z"/>
		<path class="st0" d="M453.9,311.2h-1.7v5h1.7V311.2z"/>
		<path class="st0" d="M447.3,317.3v-6.1H446v49h1.4v-41h11.8v41h1.4v-49h-1.4v6.1H447.3z"/>
		<path class="st0" d="M359,311.2h-1.4v49h1.4v-41h12.1v41h1.4v-49h-1.4v6.1H359V311.2z"/>
		<path class="st0" d="M365.6,316.2v-5h-1.7v5H365.6z"/>
		<path class="st0" d="M381.6,311.2v5h1.9v-5H381.6z"/>
		<path class="st0" d="M376.6,317.3v-6.1h-1.4v49h1.4v-41h12.1v41h1.4v-49h-1.4v6.1H376.6z"/>
		<path class="st0" d="M399.4,311.2v5h1.7v-5H399.4z"/>
		<path class="st0" d="M517.5,284.3h4.4l-13.2-7.2l-12.7,7.2h4.1l8.5-4.7L517.5,284.3z"/>
		<path class="st0" d="M524.1,287.8l-0.5-2.8h-29.2c-1.1,3-0.8,5.5,1.7,7.4h25.9C523.3,291.1,524.1,289.8,524.1,287.8z M522.2,287.3
			c0.3,1.1,0,2.2-1.1,3h-24.5c-0.8-0.8-1.1-1.9-0.8-3H522.2z"/>
		<path class="st0" d="M534.9,304.9h-1.9v5.5h1.9V304.9z"/>
		<path class="st0" d="M523.9,293.9v3.3H654v-3.3H523.9z"/>
		<path class="st0" d="M523.9,300v2.2h116.7l2.5-2.2H523.9z"/>
		<path class="st0" d="M523.9,317.8v2.2H539v-2.2H523.9z"/>
		<path class="st0" d="M523.9,311.5v3H749v-3H523.9z"/>
		<path class="st0" d="M542.6,315.6h-2.2v4.4h15.4v-2.2h-13.2V315.6z"/>
		<path class="st0" d="M518.6,310.4v-3.3h-19.5v3.3H518.6z"/>
		<path class="st0" d="M535.7,324.7h-8.5v14h8.5V324.7z M534.3,327.2v10.2h-5.8v-10.2H534.3z"/>
		<path class="st0" d="M559.1,304.9h-1.9v5.5h1.9V304.9z"/>
		<path class="st0" d="M547,304.9H545v5.5h1.9V304.9z"/>
		<path class="st0" d="M559.1,317.8v-2.2h-1.9v4.4h15.1v-2.2H559.1z"/>
		<path class="st0" d="M569.3,304.9v5.5h1.9v-5.5H569.3z"/>
		<path class="st0" d="M562.7,324.7h-8.3v14h8.3V324.7z M561.3,327.2v10.2h-5.5v-10.2H561.3z"/>
		<path class="st0" d="M549.2,324.7h-8.5v14h8.5V324.7z M547.8,327.2v10.2H542v-10.2H547.8z"/>
		<path class="st0" d="M481.2,280.7l-4.4,3.6v10.2h2.8v-9.6l5.2-4.1H481.2z"/>
		<path class="st0" d="M465,311.2h-1.4v49h1.4v-41h12.1v41h1.4v-49h-1.4v6.1H465V311.2z"/>
		<path class="st0" d="M469.9,316.2h1.9v-5h-1.9V316.2z"/>
		<path class="st0" d="M482.6,317.3v-6.1h-1.4v49h1.4v-41h11.3v-1.9H482.6z"/>
		<path class="st0" d="M487.8,311.2v5h1.7v-5H487.8z"/>
		<path class="st0" d="M495.2,360.2h2.5v-63H520v72.4h2.5v-75.7h-27.2V360.2z"/>
		<path class="st0" d="M549.2,356.4v-13.8h-8.5v13.8H549.2z M547.8,344.8V355H542v-10.2H547.8z"/>
		<path class="st0" d="M567.9,342.6v13.8h8.5v-13.8H567.9z M569.3,355v-10.2h5.8V355H569.3z"/>
		<path class="st0" d="M562.7,356.4v-13.8h-8.3v13.8H562.7z M555.8,355v-10.2h5.5V355H555.8z"/>
		<path class="st0" d="M535.7,356.4v-13.8h-8.5v13.8H535.7z M528.5,355v-10.2h5.8V355H528.5z"/>
		<path class="st0" d="M523.9,362.7v1.9H686v-1.9H523.9z"/>
		<path class="st0" d="M567.9,324.7v14h8.5v-14H567.9z M569.3,337.4v-10.2h5.8v10.2H569.3z"/>
		<path class="st0" d="M650.5,298h-3l-5,4.1v8.3h2.8v-7.7L650.5,298z"/>
		<path class="st0" d="M632,304.9h-1.9v5.5h1.9V304.9z"/>
		<path class="st0" d="M639.2,320v-2.2h-13.5v-2.2h-1.9v4.4H639.2z"/>
		<path class="st0" d="M642.2,317.8v-2.2h-1.7v4.4h15.1v-2.2H642.2z"/>
		<path class="st0" d="M644.4,324.7h-8.3v14h8.3V324.7z M643,327.2v10.2h-5.5v-10.2H643z"/>
		<path class="st0" d="M668.1,308.2h-2.5v2.2h2.5V308.2z"/>
		<path class="st0" d="M664,303.8v3h66.3v-3H664z"/>
		<path class="st0" d="M659,317.8v-2.2h-1.9v4.4h15.4v-2.2H659z"/>
		<path class="st0" d="M673.9,315.6v4.4H689v-2.2h-13.5v-2.2H673.9z"/>
		<path class="st0" d="M671.7,324.7h-8.5v14h8.5V324.7z M670.3,327.2v10.2h-5.8v-10.2H670.3z"/>
		<path class="st0" d="M658.2,324.7h-8.5v14h8.5V324.7z M656.8,327.2v10.2H651v-10.2H656.8z"/>
		<path class="st0" d="M595.4,304.9h-1.7v5.5h1.7V304.9z"/>
		<path class="st0" d="M583.3,304.9h-1.7v5.5h1.7V304.9z"/>
		<path class="st0" d="M575.9,317.8v-2.2h-2.2v4.4h15.4v-2.2H575.9z"/>
		<path class="st0" d="M592.4,315.6h-1.9v4.4h15.4v-2.2h-13.5V315.6z"/>
		<path class="st0" d="M589.9,324.7h-8.3v14h8.3V324.7z M588.5,327.2v10.2H583v-10.2H588.5z"/>
		<path class="st0" d="M619.9,304.9H618v5.5h1.9V304.9z"/>
		<path class="st0" d="M607.8,304.9h-1.9v5.5h1.9V304.9z"/>
		<path class="st0" d="M609.2,317.8v-2.2h-1.9v4.4h15.1v-2.2H609.2z"/>
		<path class="st0" d="M617.4,324.7h-8.5v14h8.5V324.7z M616.1,327.2v10.2h-5.8v-10.2H616.1z"/>
		<path class="st0" d="M603.7,324.7h-8.3v14h8.3V324.7z M602.3,327.2v10.2h-5.5v-10.2H602.3z"/>
		<path class="st0" d="M603.7,356.4v-13.8h-8.3v13.8H603.7z M602.3,344.8V355h-5.5v-10.2H602.3z"/>
		<path class="st0" d="M622.4,342.6v13.8h8.5v-13.8H622.4z M623.8,355v-10.2h5.8V355H623.8z"/>
		<path class="st0" d="M617.4,356.4v-13.8h-8.5v13.8H617.4z M610.3,355v-10.2h5.8V355H610.3z"/>
		<path class="st0" d="M581.7,342.6v13.8h8.3v-13.8H581.7z M583,355v-10.2h5.5V355H583z"/>
		<path class="st0" d="M658.2,356.4v-13.8h-8.5v13.8H658.2z M656.8,344.8V355H651v-10.2H656.8z"/>
		<path class="st0" d="M676.9,342.6v13.8h8.3v-13.8H676.9z M678.3,355v-10.2h5.5V355H678.3z"/>
		<path class="st0" d="M671.7,356.4v-13.8h-8.5v13.8H671.7z M664.5,355v-10.2h5.8V355H664.5z"/>
		<path class="st0" d="M644.4,356.4v-13.8h-8.3v13.8H644.4z M637.5,355v-10.2h5.5V355H637.5z"/>
		<path class="st0" d="M630.9,338.8v-14h-8.5v14H630.9z M623.8,337.4v-10.2h5.8v10.2H623.8z"/>
		<path class="st0" d="M676.9,324.7v14h8.3v-14H676.9z M678.3,337.4v-10.2h5.5v10.2H678.3z"/>
		<path class="st0" d="M744.3,315.6H741l-4.4,3.9v42.1h2.8V320L744.3,315.6z"/>
		<path class="st0" d="M692.9,316.2h-2.5v45.4h2.5V316.2z"/>
		<path class="st0" d="M694.5,315.6v4.4H708v-2.2h-11.8v-2.2H694.5z"/>
		<path class="st0" d="M709.4,315.6v4.4h13.5v-2.2H711v-2.2H709.4z"/>
		<path class="st0" d="M728.4,308.2h-3.6l-2.8,2.2h3.3L728.4,308.2z"/>
		<path class="st0" d="M725.9,317.8v-2.2h-1.7v4.4h10.2l2.5-2.2H725.9z"/>
		<path class="st0" d="M720.4,324.2h-10.5V339h10.5V324.2z M711.3,337.7v-11.3h7.7v11.3H711.3z"/>
		<path class="st0" d="M720.4,358v-15.1h-10.5V358H720.4z M711.3,356.6v-11.3h7.7v11.3H711.3z"/>
		<path class="st0" d="M687.6,362.7v6.9h1.7v-5h52v5h1.7v-6.9H687.6z"/>
		<path class="st0" d="M641.7,428.2l0.3-0.8l-5.2-5l-2.2-0.3l-2.8,2.5h-17.3l3.6-9.9l1.9-1.7c0.3-0.8,0.3-1.4-1.1-1.9l-8.3-1.9
			c-0.5,5.8-1.9,12.1-4.1,18.7l-4.1,11l0.3,0.3l0.6-0.3c2.8-1.7,5.5-4.7,8.5-9.1h0.8c-1.1,4.7-2.8,9.4-5,14
			c-3.3,7.2-7.2,12.9-11.8,17.6v-12.4l10.2-6.9l-0.3-1.1l-9.9,3.9v-13.5h8l0.6-0.6l-0.3-1.4l-3-4.4l-0.5-0.6c-0.6,0-0.8,0-1.1,0.6
			l-2.2,1.9h-1.4v-10.7l1.4-1.7c1.1-1.1,0.8-1.9-0.8-2.5l-9.1-1.7c-1.1-0.3-1.7,0-1.7,0.6l0.5,5.5v10.5h-3.6l1.7-6.6l0.8-1.4
			l0.3-0.8l-0.8-0.6l-8.3-1.7l-0.3,11c-0.3,8.3-1.1,15.1-2.5,20.6l0.3,0.6h1.1c2.8-4.4,5.2-9.9,6.9-16.8h4.4v16.8l-10.5,4.1
			l-1.7,0.3h-3.6l4.4,8.8c0.3,1.4,1.4,1.7,2.5,0.6c2.2-1.9,5.2-4.1,8.8-6.9v21.5c4.1-0.3,7.2-0.8,9.1-2.2l0.5-2.2v-9.4
			c4.4-1.9,8-4.7,10.7-7.7c6.1-6.1,10.7-14.3,14.3-25.3l1.7,0.3c-1.4,5.8-3.6,11.6-6.3,17.6c-4.4,9.9-9.9,17.1-16.5,22.3
			c-0.3,0.6,0,0.8,1.4,0.3c3-0.3,6.9-2.5,10.5-5.8c7.4-6.6,13.8-18.2,19.3-34.1l-0.3,23.7c-0.3,6.1-1.9,9.6-5.2,11.3l-1.4,0.3
			l-1.1,0.3l-10.7,0.3v1.1l3.6,0.3c2.2,0.5,3.3,1.4,3.6,2.2v4.1c0.6,1.1,1.4,1.9,3.3,1.9l3.3-0.6l1.4-0.5l2.2-1.4
			c5.8-4.1,9.1-9.4,9.9-15.4l0.3-1.1v-26.7L641.7,428.2z"/>
		<path class="st0" d="M681,496.2h-10.2l-0.3,0.6c-0.3,0,0,0.3,0,0.5h0.8c1.1,0.3,1.7,0.6,1.9,0.8l0.3,3.9v14.9l-0.3,3.6
			c-0.3,0.3-0.8,0.8-1.9,0.8l-0.8,0.3v0.3l0.3,0.6H681l0.3-0.6l-0.3-0.3l-0.5-0.3l-1.9-0.8c-0.3-0.5-0.6-1.7-0.6-3.6V502
			c0-2.2,0.3-3.3,0.6-3.9c0.3-0.3,0.8-0.6,1.9-0.8h0.5l0.3-0.5L681,496.2z"/>
		<path class="st0" d="M525.2,418.9l0.6-1.1c0.6-1.7,0-2.8-1.7-4.1c-1.7-1.4-3.9-1.9-7.2-1.4l-0.8-0.3l-8.3-1.9
			c-0.8,0-1.7,0-1.4,0.5l0.6,8.3h-14.9l-2.8-0.5c-0.5,0-0.5,0.5-0.5,1.1l3,3.9l2.2-0.8h12.9v5h-6.3l0.3-1.4c0.3-0.8-0.3-1.4-1.4-1.4
			l-7.2-0.8c-0.5,0-0.8,0.5-0.5,0.8v5l-3-3.6l-0.6-0.3l-0.8,0.3l-2.2,1.9l-0.8,0.5h-0.6v-11.6l1.4-1.7l0.8-1.4
			c-0.3-0.3-0.8-0.6-1.7-0.8l-8.8-1.9c-1.4-0.3-1.9,0-1.9,0.5l0.5,5.5v11.3h-4.1l-1.7-0.5l-0.8-0.3c-0.3,0.3-0.5,0.5-0.5,1.1
			l1.9,3.3l2.2-0.6h3v43.8c4.1-0.3,7.2-0.8,9.1-1.9l0.5-2.2v-39.6h6.9h1.1v21.7l0.3,0.6l4.4-0.6c2.5-0.5,3.9-0.8,3.9-1.4v-2.5h6.6
			v5.2c3.3,0,5.8-0.5,7.4-1.4c0.6-0.3,0.6-0.8,0.6-1.9v-1.9h6.9v3.3l0.3,0.3c3.6,0,6.3-0.5,8.3-1.4l0.3-0.5v-18.4l2.2-2.2l0.3-1.1
			V429l-5.2-4.4c-0.8-0.8-1.7-0.8-2.5,0l-3.6,2.8H515v-5h17.1l1.4-0.3l0.3-1.4l-3.9-4.7l-0.6-0.5c-0.3,0-0.5,0-1.1,0.5l-2.8,2.2
			L525.2,418.9z M517,413.3l0.3-0.3c1.9,1.1,3.3,2.5,3.9,4.1l1.4,1.7H515v-3.3C515.3,415,515.9,413.9,517,413.3z M515,445v-4.7h6.6
			v4.7H515z M521.7,431.5v4.4H515v-4.4H521.7z M507.1,440.3v4.7h-6.3v-4.7H507.1z M507.1,431.5v4.4h-6.3v-4.4H507.1z"/>
		<path class="st0" d="M525.2,509.7c0,3.6,1.4,6.9,3.9,9.4c2.5,2.5,5.8,3.9,9.9,3.9s7.2-1.1,9.9-3.6c2.5-2.8,3.9-6.1,3.9-9.9
			c0-3.9-1.1-7.2-3.3-9.6c-2.5-2.8-6.1-4.1-10.2-4.1s-7.4,1.4-9.9,3.9C526.6,502.3,525.2,505.8,525.2,509.7z M533.2,499.8
			c1.7-1.7,3.3-2.5,5.5-2.5c3,0,5.2,1.4,6.9,4.1c1.4,2.2,1.9,5.2,1.9,8.5c0,3.9-0.8,6.9-2.2,8.8c-1.4,1.9-3.6,2.8-5.8,2.8
			c-3,0-5.2-1.7-6.9-4.4c-1.4-2.5-1.9-5.2-1.9-8.5C530.7,504.7,531.6,501.7,533.2,499.8z"/>
		<path class="st0" d="M436.1,423.8V423l-5.8-6.6c-0.3-0.3-0.8-0.3-1.4,0l-2.8,2.5h-21.5h0.6c3-1.4,3-3.6,0.8-6.3
			c-2.5-2.8-6.6-3.9-12.1-3.3h-0.6c-0.3,0-0.3,0.3,0,0.3l1.9,1.7l1.9,3.3c0.6,2.2,1.4,3.6,3.3,4.4h-20.1c-0.6-2.2-1.9-3.6-3.6-4.1
			c-0.3,0-0.3,0-0.3,0.3c0,3-1.1,5.8-3.3,8.3c-3,2.5-3.9,5.5-2.8,8.5c1.4,3.3,3.3,3.9,6.1,1.7c3-2.8,4.7-6.3,4.7-10.7h44.6l-2.5,3.3
			l-1.1-1.1c-0.3,0-0.8,0-1.4,0.5l-2.2,1.9l-1.7,0.6h-30.3l-5.2-0.6c-0.8,0-0.8,0.3-0.8,1.4l2.2,4.1l5.8-0.8h2.8
			c-4.4,5.2-10.2,9.6-17.6,14.3c0,0.3,0,0.6,0,0.6l8-2.5c5.5-1.7,10.2-4.1,14.9-6.9l0.5,1.1c-5,6.3-12.9,12.4-24.2,17.9
			c-0.3,0-0.3,0,0.3,0c10.2-1.4,19.3-5.2,26.7-11l0.3,1.4c-6.6,8-16.5,15.1-29.7,21.5h0.3c11-1.7,21.2-6.3,30.6-13.2
			c-0.3,4.4-1.9,8.3-4.7,11.6l-12.4,0.3l-0.3,0.6l4.7,0.8c3.3,1.4,5.5,3.9,6.6,7.4c2.8,0.8,5,0.3,7.2-1.9l4.7-6.3
			c1.7-3.3,2.5-7.4,2.2-12.4l-0.8-7.2l1.4-0.8c2.2,10.5,7.7,17.6,16.2,21.7l0.6,0.3l1.9-1.7c0.3-0.6,1.4-1.4,3.3-1.9l5.2-0.8h1.1
			l0.5-0.8c0-0.5-1.1-1.1-3-1.7l-0.8-0.3c-3.9-0.8-7.2-1.9-9.4-3.3c-4.7-2.8-9.1-6.9-13.2-12.7l13.2-6.6h2.8c0.5,0,0.8-0.5,0.8-1.1
			l-0.5-1.1l-6.6-3.9l0,0l-14,11c-1.4-4.4-4.1-7.7-8-9.4l3.9-3H427l0.8-0.3c0.8-0.6,0.8-1.1,0-1.7l-1.9-2.2c1.4-1.1,2.5-1.9,3.6-2.2
			l6.1-0.8L436.1,423.8z"/>
		<path class="st0" d="M394.5,501.7c0-2.2-0.3-3.9-0.8-5.2l-5.2-0.8c-2.8,0-5,0.8-6.3,2.2c-1.7,1.4-2.2,3-2.2,5.2
			c0,2.8,1.7,5.5,5.5,7.4l1.7,0.8c2.5,1.7,3.9,3.6,3.9,5.8l-1.1,3c-0.8,0.8-2.2,1.4-3.6,1.4c-1.7,0-3-0.8-4.4-2.5
			c-1.1-1.1-1.7-2.2-2.2-3.9l-1.1,0.3c0,2.8,0.3,5,1.1,6.1c2.2,0.8,4.4,1.4,6.3,1.4c2.8,0,5-0.6,6.6-2.2c1.7-1.4,2.5-3,2.5-5.2
			c0-3.3-1.9-6.1-5.2-8l-2.5-1.1c-2.5-1.4-3.9-3-3.9-5c0-2.8,1.7-4.1,4.7-4.1c2.2,0,4.1,1.4,5,4.7L394.5,501.7z"/>
		<path class="st0" d="M331.7,421.9c0-1.4,0.8-3,2.8-4.7l0.3-0.8c0.3-0.3,0-0.8-0.6-1.1l-10.2-3.9h-0.6l-3.9,3.9h-40.7V415l0.6-1.4
			v-1.1c0-0.3-0.6-0.3-1.4-0.6l-8.3-0.8c-0.8,0-1.1,0.3-0.8,1.1v63.6l0.3,0.3l5.2-0.3c2.8-0.6,4.1-1.4,4.4-1.9v-2.8h42.7v4.4v0.3
			l4.4-0.6l5.8-1.4v-0.3V421.9z M321.3,419.4l0.3,0.3v38.3l-3.6-3.3l-0.3-0.5c-0.3,0-1.1,0-1.4,0.5l-3.9,2.2h-8.3v-11.6
			c1.9,1.7,2.8,3,2.8,4.4c0,1.7,0.8,3.3,1.9,4.4c1.1,1.1,2.8,1.4,4.4,0.5c2.8-1.1,3-3.3,1.1-6.3c-1.9-3-5.5-4.7-10.2-4.4v-0.8H318
			l1.1-0.6l-0.3-1.4l-3.6-3.9l-0.6-0.6c-0.3-0.3-0.8,0-1.4,0.6l-2.8,2.2h-6.3v-9.9h13.2l1.4-0.3c0.6-0.6,0.6-0.8,0.3-1.7l-3.9-4.7
			l-0.6-0.3l-1.1,0.6l-2.5,2.2l-0.8,0.3h-26.7l-2.5-0.5c-0.6,0.3-0.8,0.5-0.6,1.1l2.2,3.9l2.2-0.6h10.2v9.9h-9.4l-1.7-0.5H283
			c-0.3,0.3-0.5,0.5-0.3,1.1l2.2,3.6l2.8-0.5h7.4v13.8h-11.6l-1.7-0.6c-1.7-0.3-1.9,0-1.7,1.1l2.5,3.9l3.3-0.8h35.5v6.6h-42.7v-47.6
			H321.3z"/>
		<path class="st0" d="M253.6,497.3l0.3,0.6l0.8,0.3c1.1,0,1.7,0.3,1.9,0.8l0.3,3.6v14.6l-0.3,3.9c-0.3,0.6-0.8,0.6-1.9,0.6
			l-1.1,0.3c-0.3,0.3-0.3,0.3-0.3,0.6l0.5,0.6h18.7l1.7-5.5c-0.3-0.6-0.8-0.6-1.1-0.3l-2.5,3.6l-4.4,0.8l-4.1-0.8
			c-0.5-0.8-0.5-2.2-0.5-4.1v-14c0-1.9,0-3,0.3-3.6c0.3-0.6,0.8-0.8,1.9-0.8l0.5-0.3l0.5-0.6l-0.5-0.5h-10.5L253.6,497.3z"/>
		<path class="st0" d="M144,498.1h0.5c1.1,0,1.7,0.3,1.9,0.5l0.6,3.9v14.6l-0.6,3.9l-1.9,0.8H144l-0.3,0.6l0.3,0.6h10.2l0.3-0.6
			v-0.6h-0.8c-0.8-0.3-1.7-0.3-1.9-0.8c-0.3-0.3-0.3-1.7-0.3-3.9v-14.6c0-1.9,0-3.3,0.3-3.9c0.3-0.3,1.1-0.5,1.9-0.5h0.8
			c0.6-0.8,0.3-1.1-0.3-1.4H144C143.5,496.7,143.5,497.3,144,498.1z"/>
		<path class="st0" d="M163.3,500c-2.5,2.8-3.9,6.3-3.9,10.2s1.4,6.6,3.9,9.4c2.5,2.5,5.8,3.9,10.2,3.9c3.9,0,6.9-1.1,9.6-3.9
			c2.8-2.5,3.9-5.5,3.9-9.6c0-3.9-1.1-6.9-3.6-9.4c-2.5-3-5.8-4.4-9.9-4.4C169.4,496.2,166,497.6,163.3,500z M172.9,497.8
			c2.8,0,5,1.4,6.6,4.1c1.4,2.5,2.2,5.2,2.2,8.5c0,3.9-1.1,6.9-2.5,8.8c-1.4,1.9-3.3,2.8-5.8,2.8c-2.8,0-5.2-1.4-6.9-4.4
			c-1.1-2.2-1.7-5.2-1.7-8.5c0-3.9,0.6-6.9,2.5-8.8C168.8,498.7,170.7,497.8,172.9,497.8z"/>
		<path class="st0" d="M741,423.5L741,423.5l-5.2-5.8h-0.3c-1.4,0.6-2.8,1.7-4.1,3.6h-21.7c-0.3-3.6-1.4-5.8-3.9-6.3h-0.3v0.3v3.6
			c-0.5,2.2-1.4,3.3-2.8,3.9c-0.5,0.3-1.1,0.6-1.4,1.1l-0.3-0.3c-2.2-1.1-4.1-1.9-6.3-3c-0.3,0-0.5,0-0.5,0.6l-0.8,2.8h-5.8l4.1-8.8
			c1.4-0.3,1.9-0.8,1.9-1.4c0.3-0.8,0-1.1-0.6-1.1l-0.8-0.3H692l-10.7-2.5L681,410l-0.3,0.3v0.3c-1.4,8.5-3.3,16.5-6.6,23.7l-4.4,8
			v0.6h0.3c5.2-1.9,10.2-6.6,14.6-13.8h7.4l-1.9,8.3l-0.8-0.3l-1.1-0.3h-0.3l-0.5-0.3l0,0l-1.1-0.3H686l-4.7-0.3l-0.8,0.3l-0.3,1.1
			l0.3,28.3l-2.8,2.8v0.6l5.2,7.7h0.3h0.3l16.8-30v-0.3l0,0l-0.5-0.3l-0.3,0.3L689,456.8v-14.6c0-1.4,0.3-2.2,1.4-3.3l0.3-0.8
			c2.5-2.2,6.1-6.3,10.2-12.9l-0.3,2.8c0.6,2.8,1.7,4.1,3.3,4.1l1.9-0.6l1.1-0.8v44.9v0.3h0.3c5.2-0.8,8-1.7,8.5-2.8v-1.9h12.7v2.8
			l0.3,0.3l6.6-0.8l1.7-0.8v-14.6l1.4-1.4l1.1-1.7l-0.8-0.8l-4.1-2.2l-1.7-0.5l-1.1,0.3l-3.3,2.5v0.3h-12.7v-5.2h10.5v1.4h0.3
			c3,0,5.2-0.3,6.9-0.8l1.4-1.4l0,0v-11.6l1.4-1.1l1.4-1.7c0-0.5-0.3-0.8-0.5-0.8l-4.4-1.9l-1.9-0.5c-0.3,0-0.5,0-0.5,0.3l-3.6,2.2
			l-0.3,0.3h-10.5v-0.6l0.8-1.1v-0.6l-1.4-0.8l0,0h-0.5l-6.6-0.8l1.4-3.9h19.5l-1.1,4.1v0.3h0.6c3.6-2.8,7.2-4.1,9.6-4.1l2.8-1.1
			L741,423.5z M726.2,437.3v7.7h-10.5v-7.7H726.2z M715.7,458.2h12.7v8.8h-12.7V458.2z"/>
		<path class="st0" d="M712.9,409.8c-0.6,0-0.8,0.3-0.8,1.1l0,0l2.5,1.9l1.9,3.9l1.1,2.8c0.5,1.1,1.7,1.7,3,1.7h0.8
			c2.8-0.6,3.6-2.5,3-5.8c-0.3-1.4-0.8-2.5-1.7-3c-1.4-1.4-2.8-1.9-4.7-2.2l-3-0.6L712.9,409.8z"/>
		<path class="st0" d="M731.9,495.9l-0.5-0.3l-1.1,0.8l-1.7,1.1l-0.8,3l-7.2,18.7l-1.9,1.9l-1.4,0.3c-0.6,0.3-0.6,0.5,0,0.8h8
			l0.3-0.6v-0.3l-2.5-0.8l0.3-2.2l1.7-4.7l0.6-1.1h0.8h5.2h1.1l0.3,1.1l1.9,5.5l0.3,1.4l-1.1,0.6l-1.1,0.3v0.3l0.3,0.6h9.6l0.3-0.6
			l-0.3-0.3l-0.5-0.3l-1.9-0.8l-1.1-2.5L731.9,495.9z M729.2,502.3L729.2,502.3l2.8,7.7v0.8h-0.8H727h-0.8l0.3-0.8L729.2,502.3z"/>
		<path class="st0" d="M694.8,496.2h-7.2l-0.3,0.6l0.3,0.5h0.3l2.2,0.8l1.1,1.7l0.3,12.7c0,4.4-0.3,6.9-0.8,7.7
			c-0.3,0.5-0.5,1.1-1.7,1.1l-0.5,0.3l-0.6,0.3l0.6,0.6h8.5l0.3-0.6l-0.3-0.3l-1.1-0.3c-0.8,0-1.4-0.6-1.7-1.1
			c-0.6-0.8-0.8-3.3-0.8-7.7v-10.2l18.2,20.9l1.1-0.5v-16.2c0-4.7,0-7.2,0.6-8c0.3-0.3,0.5-0.5,1.7-0.8l1.1-0.3v-0.5l-0.3-0.6h-8.5
			l-0.3,0.6l0.3,0.5h0.8c1.1,0.3,1.7,0.8,1.9,1.1c0.6,1.1,0.8,3.6,0.8,8v7.7v0.8l-9.6-10.5C697.3,500.6,695.3,497.8,694.8,496.2z"/>
		<path class="st0" d="M570.9,498.1c1.1,0.5,2.2,1.7,2.5,4.1c0.8,0,1.1,0,1.4-0.6v-5.5h-17.9v0.6v0.5h0.6c0.8,0.3,1.7,0.6,1.9,0.8
			l0.3,3.9v14.9l-0.3,3.6c-0.3,0.3-1.1,0.8-1.9,0.8l-0.8,0.3v0.3v0.6h11.3v-0.6v-0.3l-1.7-0.3c-1.1-0.3-1.4-0.6-1.7-0.8
			c-0.6-0.5-0.6-1.9-0.6-3.6v-5.5c0-0.8,0.3-1.4,1.1-1.4l5.5,0.6l1.1,1.4l0.3,1.4l0.6,0.5l0.6-0.5v-8l-0.6-0.3l-0.6,0.3l-0.3,1.4
			l-1.1,1.4l-5.5,0.3L564,508v-0.8V500l0.3-1.9c0.3,0,0.6-0.3,1.4-0.3h2.2L570.9,498.1z"/>
		<path class="st0" d="M611.4,499.2c-3.6,2.2-5,5.8-5,10.2c0,4.7,1.7,8.5,5.5,11c2.8,1.7,6.1,2.5,9.9,2.5l7.4-1.1
			c0.8-1.7,1.7-3.6,1.9-6.1l-0.5-0.3h-0.8c-1.4,3.9-4.1,6.1-8,6.1c-2.8,0-5-1.1-7.2-3.3c-1.9-2.2-3-5.2-3-9.1c0-3.9,1.1-6.9,3-9.1
			c1.9-1.9,4.1-2.8,6.9-2.8c4.1,0,6.6,1.9,7.4,5.8h1.1l-0.3-6.3l-8-1.1C617.7,495.6,614.4,496.7,611.4,499.2z"/>
		<path class="st0" d="M646.3,496.2h-10.2l-0.3,0.6l0.3,0.5h0.5l1.9,0.8l0.6,3.9v14.9l-0.6,3.6l-1.9,0.8l-0.3,0.3l-0.3,0.3l0.3,0.6
			h10.2l0.6-0.6l-0.3-0.3l-1.1-0.3l-1.9-0.8c-0.3-0.5-0.3-1.9-0.3-3.6v-6.1V510h11h1.9l0.3,0.8v6.1l-0.6,3.6l-1.7,0.8l-0.8,0.3
			l-0.3,0.3l0.3,0.6h10.5l0.3-0.6l-0.3-0.3l-0.8-0.3l-1.7-0.8c-0.3-0.5-0.3-1.7-0.3-3.6V502c0-2.2,0-3.3,0.3-3.9
			c0-0.3,0.8-0.6,1.7-0.8h0.8v-0.5v-0.6h-10.5l-0.3,0.6l0.3,0.5h0.8c1.1,0.3,1.4,0.6,1.7,0.8l0.6,3.9v4.7l-0.3,1.1l-1.9,0.3l-11-0.3
			v-1.1V502c0-1.9,0-3.3,0.3-3.9c0.3-0.3,0.8-0.6,1.9-0.8h0.5v-0.5V496.2z"/>
		<path class="st0" d="M517.3,452.7c-0.8-0.3-1.4,0-1.1,0.8v3.9h-25.6l-1.7-0.3l-0.8-0.3c-0.5,0.3-0.8,0.5-0.5,1.4l1.9,3.9
			c1.1-0.6,1.7-0.6,2.5-0.8h2.5c1.9,2.2,3.3,3.9,3.3,5.2c0,1.9,0.6,3.3,1.4,4.4c1.4,1.1,3,1.7,5,0.6l0.5-0.3c2.8,0,5.2,1.1,6.9,2.8
			l1.9,2.2c3.6,0.5,6.6-0.3,8.8-2.2c1.4-1.4,1.9-2.8,1.9-3.9l0.6-8.8h8.8l1.4-0.3c0.8-0.3,0.8-0.8,0.3-1.4l-3.9-3.6l-0.6-0.5h-1.4
			l-1.4,1.4l-1.7,0.5h-1.7V456l0.5-1.9l-0.3-0.3L517.3,452.7z M513.7,468.4l-7.7,0.6c0-1.4,0-2.8-1.1-4.1c-0.8-1.7-2.5-2.8-4.4-3.6
			h15.7v3.6C516.1,466.7,515.3,467.8,513.7,468.4z"/>
		<path class="st0" d="M483.1,501.7h0.3v16.2l-0.6,2.5c0,0.3-0.5,0.6-1.4,0.8l-0.8,0.3l-0.6,0.3l0.6,0.6h9.9l0.3-0.6l-0.3-0.3
			l-1.1-0.3c-0.5-0.3-1.1-0.6-1.4-0.6l-0.3-2.5l-0.3-17.6c0-1.1,0-1.9,0.3-2.2c0.3-0.3,0.8-0.5,1.7-0.8l1.4-0.3v-0.5l-0.3-0.6h-7.2
			l-8.8,19.3l-6.1-12.7c-1.4-3-2.2-5-2.2-6.6h-7.7l-0.6,0.6l0.3,0.5l1.4,0.3c1.4,0.3,2.2,1.1,2.2,3l-1.1,17.6l-0.5,2.5l-1.9,0.6
			l-0.6,0.3v0.3v0.6h8.3c0.3,0,0.3-0.6,0-0.8l-1.4-0.3l-1.4-1.1v-2.5l0.3-16l9.1,20.9c0.3,0.3,0.5,0.3,0.8,0L483.1,501.7z"/>
		<path class="st0" d="M373.6,496.2h-8.3l-0.3,0.6c-0.3,0,0,0.3,0,0.5h0.8c1.1,0.3,1.7,0.6,1.9,1.1l0.5,12.9c0,6.6-2.2,9.9-6.9,9.9
			c-4.7,0-7.2-3.3-7.2-10.2V502c0-1.9,0.3-3.3,0.3-3.9c0.6-0.3,1.1-0.6,1.9-0.8h0.8l0.3-0.5l-0.3-0.6h-10.2l-0.3,0.6l0.3,0.5h0.5
			c1.1,0.3,1.4,0.6,1.7,0.8l0.6,3.9v9.9c0,4.1,0.5,6.9,2.5,8.8c1.9,1.4,4.7,2.2,8,2.2c3.6,0,6.1-0.8,7.7-3c1.7-1.7,2.5-4.7,2.5-9.1
			v-4.4c0-4.7,0.3-7.2,0.5-8c0-0.3,0.8-0.5,1.7-0.8l1.1-0.3v-0.5L373.6,496.2z"/>
		<path class="st0" d="M401.9,497.3h0.6c0.8,0.3,1.7,0.6,1.7,0.8l0.3,3.9v14.9l-0.3,3.6l-1.7,0.8l-1.4,0.3l-0.3,0.3l0.3,0.6h19.8
			c0.8-1.1,1.1-3,1.7-5.5c-0.6-0.6-0.8-0.8-1.4-0.3l-2.2,3.3l-5,0.8l-4.4-0.8c-0.3-0.3-0.5-1.7-0.5-4.1v-5l0.3-0.8h0.5h5.2l1.1,1.4
			l0.3,1.7h1.4v-8c-0.5-0.6-1.1-0.6-1.4,0l-0.3,1.4l-1.1,1.4l-5.2,0.3l-0.5-0.3l-0.3-0.8V500l0.3-1.9l1.4-0.3h2.8l3,0.3
			c1.1,0.3,1.9,1.7,2.5,3.6h1.1l-0.6-5.5h-17.6l-0.3,0.6L401.9,497.3z"/>
		<path class="st0" d="M452.6,496.2h-8.3l-0.3,0.6v0.5h1.1c0.8,0.3,1.4,0.6,1.7,1.1l0.8,12.9c0,6.6-2.2,9.9-7.2,9.9
			c-4.7,0-7.2-3.3-7.2-10.2V502c0-1.9,0.3-3.3,0.6-3.9c0.3-0.3,0.8-0.6,1.9-0.8h0.8v-0.5l-0.3-0.6h-10.2v0.6v0.5h0.8
			c0.8,0.3,1.4,0.6,1.7,0.8l0.3,3.9v9.9c0,4.1,0.8,6.9,2.8,8.8c1.7,1.4,4.4,2.2,8,2.2c3.3,0,5.8-0.8,7.4-3c1.9-1.7,2.5-4.7,2.5-9.1
			v-4.4c0-4.7,0.3-7.2,0.8-8c0-0.3,0.5-0.5,1.7-0.8l0.5-0.3l0.6-0.5L452.6,496.2z"/>
		<path class="st0" d="M236.8,513.3h1.4l0.5,1.1l1.7,5.2l0.3,1.9l-1.1,0.3h-0.8l-0.3,0.6l0.3,0.6h9.9l-0.3-1.1h-0.5l-1.9-0.8
			l-1.1-2.5l-7.4-21.7l-0.5-0.6L236,497l-1.9,1.1l-0.5,2.8l-7.4,19l-1.9,1.7l-1.4,0.3v0.6v0.6h8l0.3-0.6l-0.3-0.6l-2.2-0.5l0.5-2.2
			l1.4-4.7l0.3-1.1h1.1H236.8z M237.6,511.3h-1.1h-4.1h-0.6v-0.8l2.8-8h0.3l2.5,8L237.6,511.3z"/>
		<path class="st0" d="M340.8,496.2h-7.4l-8.8,19.3l-6.1-12.7c-1.4-3.3-1.9-5.5-2.2-6.6h-7.7c-0.3,0.3-0.6,0.6-0.3,1.1l1.4,0.3
			c1.4,0.3,2.2,1.1,2.2,3l-1.1,17.6l-0.5,2.5l-1.9,0.6l-0.6,0.3c0,0-0.3,0,0,0.3v0.6h8.3l0.6-0.6l-0.6-0.3l-1.4-0.3
			c-0.5-0.3-1.1-0.6-1.4-1.1v-2.5l0.3-16l9.1,20.9l0.3,0.3l0.6-0.3l9.9-20.9v16.2l-0.3,2.5c-0.3,0.3-0.8,0.6-1.4,0.8l-1.1,0.3
			l-0.3,0.3l0.3,0.6h9.9l0.3-0.6v-0.3l-1.4-0.3l-1.4-0.6c0-0.5-0.3-1.4-0.3-2.5l-0.3-17.6c0-1.1,0-1.9,0.3-2.2
			c0.3-0.3,0.8-0.5,1.7-0.8l1.4-0.3v-0.5V496.2z"/>
		<path class="st0" d="M226.9,415l-10.5-3.9h-0.3L212,415h-40.2l0.3-2.2c0-0.6-0.5-0.6-1.7-0.6l-8-1.4c-1.1,0-1.4,0.3-1.1,1.1v63.9
			h0.3l5.2-0.6c2.8-0.3,4.1-0.8,4.7-1.7l0.3-1.7l-0.3-1.1h42.4v4.4h0.3c4.4,0,7.7-0.5,9.9-1.7l0.3-0.5v-51.5c0-1.4,0.8-3,2.5-5
			l0.6-0.6L226.9,415z M213.9,419.1v47.3h-42.1v-47.3H213.9z"/>
		<path class="st0" d="M206.8,423c-0.3-0.3-0.6,0-1.1,0.3l-2.5,1.9l-0.8,0.3h-24.8l-1.7-0.5h-1.1c-0.5,0-0.8,0.5-0.5,1.1l1.9,3.9
			l2.5-0.5h8.8v9.6h-9.1l-1.9-0.3h-0.8c-0.6,0.3-0.6,0.5-0.6,1.4l2.5,3.3l2.8-0.5h7.2v14.6h-11.3l-2.5-0.3c-0.3,0-0.6,0.3-0.6,0.8
			l1.9,3.9l3-0.6l32.8,0.3l1.1-0.5l0.3-1.4l-6.9-5l-0.8,0.6l-2.5,2.2h-0.8h-4.4v-14.6h13.5l0.8-0.6l-0.5-1.4l-3-3.6l-0.8-0.6
			c-0.3,0-0.8,0-1.7,0.6l-2.5,1.7h-5.8v-9.6h12.7l1.4-0.3c0.6-0.3,0.6-1.1,0-1.7l-3.6-4.1L206.8,423z"/>
		<path class="st0" d="M199.4,443.6c-0.8,0-0.8,0.6-0.6,0.8c2.2,2.2,3.6,3.9,3.9,5.2l1.1,2.8c0.8,1.7,2.2,2.2,4.1,1.4
			c1.7-1.4,2.5-2.8,1.7-4.7C208.7,446.4,205.1,444.5,199.4,443.6z"/>
		<path class="st0" d="M137.4,495.9l-0.3-0.3h-0.6c-0.6,0.8-1.4,1.1-3,1.1h-18.4l-0.8-1.1H114h-0.3l-1.7,6.1l0.6,0.6h0.6
			c0.8-1.7,1.4-2.8,2.2-3l4.1-0.8h1.9l0.8,0.3l0.3,1.4v17.1l-0.3,3.9l-1.9,0.8h-1.7v0.6v0.6h11.8l0.3-0.6l-0.3-0.6h-1.4l-1.7-0.8
			c-0.3-0.3-0.6-1.7-0.6-3.9V500l0.3-1.4l0.8-0.3h2.2c2.2,0,3.6,0.3,4.1,0.8c0.8,0.3,1.1,1.7,1.4,3h0.5h0.5
			C136.6,500.6,136.9,498.4,137.4,495.9z"/>
		<path class="st0" d="M195.5,500.6l0.3,12.4c0,4.4-0.3,6.9-0.6,7.7c-0.3,0.8-0.8,0.8-1.7,0.8l-0.8,0.3l-0.3,0.6l0.3,0.6h8.3
			l0.3-0.6v-0.6h-0.8c-0.8-0.3-1.7-0.5-2.2-1.1c-0.3-0.8-0.5-3.6-0.5-7.7l0.3-10.2l17.9,20.9l1.4-0.6v-16.5c0-4.4,0-6.9,0.3-7.4
			c0.3-0.6,0.8-1.1,1.7-1.1h1.1c0.3-0.6,0.3-1.1,0-1.4h-8.5c-0.8,0-0.8,0.5-0.3,1.4h0.8c1.1,0,1.9,0.5,2.2,1.1l0.6,16.2l-15.7-18.7
			h-7.4l-0.3,0.5v0.8h0.8l1.9,0.5L195.5,500.6z"/>
		<path class="st0" d="M112.9,422.2h-0.5l-3.9,3.6H93.9v-10.2c0-0.6,0.6-1.7,1.9-2.2l0.3-0.8c0-0.3-0.6-0.8-1.4-1.1l-9.1-1.9
			c-1.4,0-1.9,0-1.9,0.6l0.6,5.2v10.5H67.8l0.6-2.5c-0.3-0.3-0.8-0.3-1.7-0.6l-8-0.8c-0.8,0-1.1,0.3-0.8,1.1v37.2l0,0l5.5-0.5
			c2.5-0.3,3.9-0.8,4.1-1.7v-2.5h16.8v22c4.4,0,7.2-0.6,9.1-1.7l0.6-2.2v-18.2h16.5v3.9h0.3c4.4,0,7.4-0.6,9.4-1.4l0.3-0.6v-25.3
			c0-1.4,0.8-3,2.5-4.4l0.6-0.6c0.3-0.5,0-1.1-0.6-1.1L112.9,422.2z M93.9,451.3v-21.2h16.5v21.2H93.9z M84.3,430.1v21.2H67.8v-21.2
			H84.3z"/>
		<path class="st0" d="M55.4,498.1l1.9,0.5l1.4,1.9V513c0,4.4,0,6.9-0.6,7.7c-0.3,0.8-0.8,0.8-1.7,0.8l-1.1,0.3v0.6l0.3,0.6h8.5
			v-0.6v-0.6h-0.8c-0.8-0.3-1.7-0.5-1.9-1.1c-0.6-0.8-0.8-3.6-0.8-7.7v-10.2l18.2,20.9c0.8,0,1.1-0.3,1.4-0.6v-16.5
			c0-4.4,0-6.9,0.6-7.4c0-0.6,0.5-1.1,1.7-1.1h0.8v-1.4h-8.5c-0.8,0-0.8,0.5-0.3,1.4h0.8c1.1,0,1.7,0.5,2.2,1.1l0.6,15.1v1.1
			L68.3,505c-3.6-3.9-5.5-6.6-6.3-8.3h-7.2l-0.3,0.5l0.3,0.8H55.4z"/>
		<path class="st0" d="M94.8,513.3h1.1h5h1.4l2.2,6.3v1.9l-1.1,0.3h-0.8l-0.3,0.6l0.6,0.6h9.6l0.3-0.6l-0.3-0.6h-0.6l-1.9-0.8
			c-0.3-0.3-0.8-1.1-1.4-2.5l-7.2-21.7l-0.6-0.6L100,497l-1.9,1.1l-0.8,2.8l-7.2,19l-2.2,1.7l-1.1,0.3l-0.3,0.6l0.3,0.6h8l0.3-0.6
			l-0.3-0.6l-2.2-0.5l0.3-2.2L94.8,513.3z M95.6,511.3l0.3-0.8l2.8-8l2.8,8v0.8h-1.1h-3.9H95.6z"/>
	</g>
</g>
</svg>
