<?xml version="1.0" encoding="utf-8"?>
<!-- Generator: Adobe Illustrator 22.1.0, SVG Export Plug-In . SVG Version: 6.00 Build 0)  -->
<svg version="1.1" id="图层_1" xmlns="http://www.w3.org/2000/svg" xmlns:xlink="http://www.w3.org/1999/xlink" x="0px" y="0px"
	 viewBox="0 0 800 800" style="enable-background:new 0 0 800 800;" xml:space="preserve">
<style type="text/css">
	.st0{fill:#009F4F;}
</style>
<g>
	<g>
		<path class="st0" d="M458.9,64.7v22.5c10.3,2.7,20.3,6.2,30.2,10.3c27.3,11.5,51.8,28,72.8,49.1c21,21,37.5,45.5,49.1,72.8
			c11.9,28.2,18,58.2,18,89.1s-6.1,60.9-18,89.1c-11.5,27.3-28,51.8-49.1,72.8c-5.9,5.9-12.1,11.5-18.6,16.7v-58.4l-69.6,39.9
			c-7.9,4.5-17.7,3.6-24.3-2.3c-0.3-0.3-0.6-0.5-0.9-0.8c-2.5-2.4-3.7-5-3.7-8.1c0.1-4.2,2.3-8.1,6.1-10.5l99.6-64.9V197.3
			c8.9-4.4,15.1-13.6,15.1-24.2c0-14.9-12-26.9-26.9-26.9s-26.9,12-26.9,26.9c0,11.3,7,21,16.9,25v24.6l-90.4,57.1v25.8l90.4-57.1
			v48.3l-90.4,57.1v25.8l90.4-57.1v47.5L439,428.5c-9.9,6.4-15.9,17.1-16,28.5c-0.1,9.2,3.5,17.6,10.4,24.2c0.4,0.4,0.9,0.8,1.3,1.2
			c13.6,12.3,33.6,14.3,49.8,5.1l36.9-21.2v36.2c-10.3,6.4-21.1,12.1-32.3,16.8c-23.9,10.1-49,16-74.9,17.5V262.7H427
			c0.4,0,0.8-0.2,1.1-0.4l17.5-17.5c0.3-0.3,0.4-0.7,0.4-1.1v-14.8c0-0.8-0.7-1.5-1.5-1.5h-37.6c-0.8,0-1.5,0.7-1.5,1.5v29.6
			c0,1.2-0.9,2.1-2.1,2.1s-2.1-0.9-2.1-2.1v-29.6c0-0.8-0.7-1.5-1.5-1.5h-37.6c-0.8,0-1.5,0.7-1.5,1.5v15.7c0,0.4,0.2,0.8,0.4,1.1
			l16.5,16.5c0.3,0.3,0.7,0.4,1.1,0.4h13.7v274.7c-28.2-0.9-55.6-6.9-81.5-17.8c-8.9-3.8-17.5-8.1-25.8-12.9v-40.2l36.9,21.2
			c16.1,9.3,36.1,7.2,49.8-5.1c0.4-0.4,0.9-0.8,1.3-1.2c6.9-6.6,10.5-15,10.4-24.2c-0.2-11.4-6.2-22.1-16-28.5l-89.7-58.4v-47.5
			l90.4,57.1v-25.8l-90.4-57.1v-48.3l90.4,57.1v-25.8l-90.4-57.1v-24.6c9.9-4,16.9-13.7,16.9-25c0-14.9-12-26.9-26.9-26.9
			c-14.9,0-26.9,12-26.9,26.9c0,10.6,6.1,19.8,15.1,24.2V382l99.6,64.9c3.8,2.4,6,6.4,6.1,10.5c0,3.1-1.1,5.7-3.7,8.1
			c-0.3,0.3-0.6,0.5-0.9,0.8c-6.6,5.9-16.3,6.9-24.3,2.3l-69.6-39.9v63.5c-8.8-6.6-17.2-13.9-25.2-21.8c-21-21-37.5-45.5-49.1-72.8
			c-11.9-28.2-18-58.2-18-89.1s6.1-60.9,18-89.1c11.5-27.3,28-51.8,49.1-72.8c21-21,45.5-37.5,72.8-49.1c12.8-5.4,26-9.6,39.4-12.6
			V62.6C235.6,85.7,149.2,187,149.2,308.5c0,138.5,112.3,250.8,250.8,250.8S650.8,447,650.8,308.5C650.8,190.3,569,91.2,458.9,64.7z
			"/>
		<path class="st0" d="M405.3,146.6v31.1c0,0.8,0.7,1.5,1.5,1.5h37.6c0.8,0,1.5-0.7,1.5-1.5V60.8c0-0.8-0.7-1.5-1.5-1.5h-12.7
			c-0.8,0-1.5,0.7-1.5,1.5v82.8c0,0.8-0.7,1.5-1.5,1.5h-21.9C406,145.1,405.3,145.8,405.3,146.6z"/>
		<path class="st0" d="M362,179.2h37.6c0.8,0,1.5-0.7,1.5-1.5v-31.1c0-0.8-0.7-1.5-1.5-1.5h-22.2c-0.8,0-1.5-0.7-1.5-1.5V60.8
			c0-0.8-0.7-1.5-1.5-1.5H362c-0.8,0-1.5,0.7-1.5,1.5v116.9C360.5,178.5,361.2,179.2,362,179.2z"/>
		<path class="st0" d="M399.7,185.2h-37.6c-0.8,0-1.5,0.7-1.5,1.5v33.3c0,0.8,0.7,1.5,1.5,1.5h37.6c0.8,0,1.5-0.7,1.5-1.5v-33.3
			C401.2,185.8,400.5,185.2,399.7,185.2z"/>
		<path class="st0" d="M444.5,185.2h-37.6c-0.8,0-1.5,0.7-1.5,1.5v33.3c0,0.8,0.7,1.5,1.5,1.5h37.6c0.8,0,1.5-0.7,1.5-1.5v-33.3
			C446,185.8,445.3,185.2,444.5,185.2z"/>
		<path class="st0" d="M394.6,141.6h17.1c0.8,0,1.5-0.7,1.5-1.5V50.5c0-0.8-0.7-1.5-1.5-1.5h-17.1c-0.8,0-1.5,0.7-1.5,1.5v89.6
			C393.1,141,393.8,141.6,394.6,141.6z"/>
	</g>
	<g>
		<path d="M159.2,621.6c-0.6,0.7-1.7,1.7-3.6,2.1v30.1c-0.1,0.7-7.3,3.2-12,3.2h-2.5v-7.9h-17.8v32.4c0,1.4-6.3,5-11.8,5h-2.7v-37.3
			H91.2v4.9c0,1.4-6.4,4.6-12.3,4.6h-2.1v-45.7l15.3,5.8h16.6v-21.1l18,1.7c-0.2,1.3-0.8,2.3-3.5,2.7v16.7h16.9l6.2-6.8L159.2,621.6
			z M108.8,646.5v-25.2H91.2v25.2H108.8z M141.1,646.5v-25.2h-17.8v25.2H141.1z"/>
		<path d="M253.1,607.3c-0.7,0.8-1.8,1.6-3.7,2.1v72.5c-0.1,1-6.4,4.1-11.4,4.1h-2.2v-7.6h-53v3.1c0,1.7-5.3,5-11,5h-2.2v-87.6
			l14.4,5.7h50.9l6.3-6.9L253.1,607.3z M235.8,675.8v-68.6h-53v68.6H235.8z M218.1,643.5c16.5,2.3,14.8,12.1,9.4,13.8
			c2.2,1.9,5.5,4.7,8,6.9c-0.3,1-1.2,1.5-2.5,1.5h-47.3l-0.7-2.6h17.7v-21.3h-12.6l-0.7-2.6h13.4v-17.6h-16.2l-0.7-2.6h32.6l5.7-7.5
			c0,0,6.4,5.1,10.2,8.6c-0.3,1-1.3,1.5-2.6,1.5h-16.8v17.6h2.2l5.3-7.3c0,0,6.1,5,9.6,8.4c-0.3,1-1.2,1.5-2.5,1.5h-14.7V663h5
			l4.3-5.8c-0.9-0.3-1.8-0.7-2.7-1.5c-0.1-4.2-1.9-8.9-3.9-11.8L218.1,643.5z"/>
		<path d="M341.4,643c-0.7,0.9-2.2,1-3.9,0.3c-3.8,2.2-11.8,5.7-19.7,8.1c8,10.1,18.7,16.7,30.3,21.5l-0.4,1
			c-6.1,0.7-11,4.6-13.7,10.9c-16.8-12.1-26.4-27.4-30.2-58.9c-2.7,6.1-5.7,11.3-9.1,16l5.2,0.5c-0.3,1.4-1,2.3-3.6,2.7v24
			c4.9-0.8,10.2-2,15.6-3l0.2,0.8c-3.8,3.6-11.2,9.8-21.1,16.5c-0.8,1.9-2.1,3.2-3.2,3.9l-9.6-14.4c3.6-2.4,4.2-3.6,4.2-5.7v-12.4
			c-6.6,5.3-14.2,9.5-22.9,13l-0.7-0.8c14.3-11,26.1-26.9,32.4-47.4h-15c5.1,22.6-22.7,15.5-10.9,1.7c3.5-1.3,6.6-4.4,7.2-10h0.9
			c0.9,2.1,1.6,3.9,2.2,5.7h16.5c1.7-6.2,2.9-12.7,3.6-19.7l19.2,3.9c-0.3,1.3-1.3,2.2-3.7,2.2c-1.1,4.9-2.4,9.4-3.8,13.6H328
			l6.9-6.8l11.7,11.1c-0.8,0.8-1.6,1.1-3.6,1.2c-3.7,2.8-9.8,6.9-14.2,9.4L341.4,643z M306.5,619.5c-0.5,1.2-0.9,2.3-1.4,3.6
			c2.2,10.3,5.8,18.6,10.5,25.4c5-5.4,10.3-12.6,12.7-16.7l-0.4-0.3c0.3-3.2,0.8-8.1,0.9-12H306.5z"/>
		<path d="M428,666.4c0,0,8.4,7.3,13.1,12c-0.3,1-1.4,1.5-2.8,1.5h-84l-0.7-2.6h26.7v-78.3l16.3,1.5c-0.2,1.3-0.8,2.2-3,2.4v74.4
			h7.1v-78.1l16.3,1.5c-0.2,1.3-0.8,2.2-3,2.4v51.7c3.6-12.9,7.2-27.6,9.3-38.5l17.7,4.9c-0.5,1.2-1.5,2.2-3.8,2.2
			c-5,10.5-13.8,26.5-23.1,39.3v14.6h6.8L428,666.4z M358.4,616.4c30.5,24.5,21.5,53.6,9,41.6c-0.6-13.3-5.5-28.8-10.2-41.2
			L358.4,616.4z"/>
		<path d="M527.3,653.2c0,0,5.2,4.1,8.4,7.1c-0.2,1-1.1,1.5-2.4,1.5h-12.9v12.7c0,7.5-1.7,11.2-13.7,12.2c-0.2-3.2-0.5-5.5-1.6-7
			c-1-1.3-2.4-2.5-6.3-3.2v-1.2c0,0,7,0.5,8.4,0.5c1.1,0,1.4-0.4,1.4-1.3v-12.6h-33.2l-0.7-2.6h34v-6.7l6.2,0.5
			c-0.1-2.3-0.1-4.2-0.6-5.1c-0.5-0.9-1-2.2-3.5-2.5V644c0,0,2,0.2,3.1,0.2c1,0,1.2-0.6,1.2-1.4v-1.3h-6.6v6.5
			c0,0.9-5.1,3.2-9.4,3.2H497v-9.6h-6.4v8.9c0,1-4.9,3.6-9.6,3.6h-1.6v-27c-0.5,0.4-1.1,0.6-1.9,0.6h-9.8v54.4
			c0,1.3-5.7,4.5-10.6,4.5h-2.5v-58.9h-8.4l-0.7-2.6h9.2v-27.3l16.6,1.6c-0.2,1.3-0.8,2.3-3.5,2.7v22l4-6.6c0,0,4.8,4.7,7.7,8.1
			v-9.9l11.8,4.7h5.8v-7.1h-20.4l-0.7-2.6H497v-12.8l12.6,1.1l0.6-0.5c21.7-3.3,13.8,14.8,4.1,9c-0.2-2.6-1.7-5.4-3.5-7.3
			c-0.5,0.5-1.1,0.8-2.3,1v9.5h11.3l5.5-6.9c0,0,6.4,4.7,10.2,8c-0.3,1-1.2,1.5-2.5,1.5h-24.5v7.1h5.6l5.2-5.9l11.3,8.5
			c-0.6,0.7-1.9,1.6-3.8,2.1v18.5c0,5.9-1.2,8.7-9.6,9.7l6.3,0.6c-0.2,1.4-1.1,2.1-3.1,2.4v3.1h2.2L527.3,653.2z M481.5,662.8
			c26.7-1,18.6,19.9,7.5,13.7c-1.2-4.9-4.9-10-8.1-13.1L481.5,662.8z M490.6,622.8v6.7h6.4v-6.7H490.6z M497,638.9v-6.7h-6.4v6.7
			H497z M508.5,622.8v6.7h6.6v-6.7H508.5z M515.1,638.9v-6.7h-6.6v6.7H515.1z"/>
		<path d="M629.9,618.7c-0.7,0.8-2.2,1.6-4.4,2c-1.2,37.4-3.3,53.5-9.4,59.3c-3.9,3.6-8.3,5.2-15.4,5.2c0-4.3-0.6-7.5-2.2-9.3
			c-1.9-2.2-5.4-3.8-10.3-5v-1c4.8,0.4,11.4,0.8,14,0.8c1.7,0,2.6-0.4,3.7-1.3c3.3-2.8,5.1-16.8,6.2-40.9
			c-5.9,21.1-18.2,40-40.9,51.3l-0.7-0.8c18.7-15.5,28-38.2,30.4-60.3c-4.9,16.3-15.4,31.8-30.5,41.5l-0.7-0.9
			c9.9-11,16.9-26.8,19.2-40.9c-5,8-11.2,14.1-18.8,18.6l-0.9-0.7c2.3-3.6,4.5-7.7,6.5-12.4h-8.1v17.9c3.7-0.9,7.6-1.9,11.4-2.8
			l0.2,0.9c-3,2.2-6.8,4.9-11.6,8V683c0,0.9-5.1,3.4-9.9,3.4h-2.5v-31c-2.4,1.5-5.1,3-7.9,4.5c-0.5,1.2-1.5,2.2-2.6,2.6l-5.2-14.7
			c3.2-0.6,8.9-1.7,15.7-3.3v-20.7h-5.6c-2.2,5.9-5.1,11.1-8.6,15.3l-1.3-0.7c2-9.5,2.9-22.5,2.7-33.9l12.8,2.3v-9.4l15.9,1.6
			c-0.2,1.3-0.8,2.2-3.5,2.6v18.5l4.5-7.7c0,0,2.9,3,5.6,6c2.2-6.6,4-13.8,4.9-21.1l16.8,5c-0.5,1.2-1.6,2-3.8,2
			c-1.4,4-3.1,7.8-5,11.1h21.1l7-7.1L629.9,618.7z M554.9,621.2v-11.9c-0.4,0.1-0.8,0.2-1.4,0.3c-0.9,4-2,8-3.2,11.6H554.9z"/>
		<path d="M723.1,615.5c-0.7,0.8-1.6,1-3.6,1.2c-2.5,2.1-6.5,5.1-9.6,7l6.5,4.9c-0.6,0.7-1.7,1.4-3.5,1.8v17
			c-0.1,0.7-6.3,2.6-10.1,2.6h-2.2v-4.5h-14.9v10.7h17.1l5.4-5.8l11.1,8.3c-0.5,0.7-1.6,1.5-3.4,1.8v20.7c0,0.8-6,3.4-10.1,3.4h-2.2
			v-6.2h-18.1v3.6c0,1.4-5.1,4.3-10.6,4.3h-2v-60.4c-2.9,1.1-6.8-0.3-8-4c-2.7,3.1-6,6.4-9,8.4h-1.1c1-3.6,2-9.6,2.5-13.9H648
			c-4,8.2-9,16.5-14.7,22.6l-0.8-0.5c3.5-10.4,6.5-28.5,7.6-41.2l17.5,4.1c-0.4,1-1.1,1.6-3.6,1.4c-1.4,3.5-2.9,7.1-4.7,10.9h7.7
			l5.5-5.7l7,6.1l0.6-0.3c1.6-1.5,3.4-4.7,2.2-7.5l1.2-0.1c1,1.9,1.9,3.6,2.4,5.2h13.3c-0.5-0.3-1-0.7-1.5-1
			c-0.1-4.9-2.2-10.1-4.5-13.5l0.7-0.5c18.4,1.6,18.5,11.6,13.3,15h8.8l6.3-6.3L723.1,615.5z M655.6,666.4c4-1.6,8.4-3.5,12.8-5.2
			l0.4,0.8c-3.4,3.9-9.8,11.2-18.3,19.1c-0.9,2.5-2.5,4.1-4,5l-7.4-13.7c3.8-2.1,4.4-3.1,4.4-5.2v-36.9l14.2,1.4
			c-0.1,0.8-0.7,1.5-2.1,1.8V666.4z M708.3,622.4l-0.9-8.3h-30.6c0.7,3.2,0.7,6-0.1,8l9.6,3.8h13.5l5.4-5.8L708.3,622.4z
			 M700.7,642.9v-14.3h-14.9v14.3H700.7z M685.8,658.8v16.9h18.1v-16.9H685.8z"/>
	</g>
	<g>
		<path d="M188.4,714.4c1.6,0.4,2.5,0.7,2.7,0.7c0.4,0,0.8-0.1,1.1-0.3c0.4-0.2,0.6-0.6,0.7-1h0.9l0.4,9.4h-1
			c-0.6-1.9-1.3-3.4-2.2-4.5c-1.7-2.1-4-3.2-6.9-3.2c-2.9,0-5.3,1.2-7.2,3.5c-1.9,2.3-2.8,5.5-2.8,9.6c0,3.7,1,6.7,2.9,8.9
			c2,2.2,4.4,3.3,7.4,3.3c2.2,0,4.2-0.5,6-1.6c1-0.6,2.2-1.5,3.4-2.7l0.8,0.8c-0.9,1.2-2.1,2.2-3.4,3.1c-2.3,1.5-4.9,2.2-7.6,2.2
			c-4.5,0-8.1-1.4-10.7-4.3c-2.4-2.7-3.7-6-3.7-9.9c0-4.1,1.3-7.5,3.9-10.2c2.7-2.9,6.2-4.3,10.6-4.3
			C185.2,713.8,186.8,714,188.4,714.4z"/>
		<path d="M196.5,741.3c1.1-0.1,1.8-0.4,2.2-0.8s0.5-1.4,0.5-2.8v-19.6c0-0.8-0.1-1.3-0.3-1.7c-0.2-0.4-0.7-0.5-1.4-0.5
			c-0.1,0-0.3,0-0.4,0c-0.1,0-0.3,0-0.5,0.1v-0.7c0.6-0.2,1.3-0.4,2.2-0.6c0.9-0.3,1.5-0.4,1.8-0.5l2-0.6l0,0.1v12.5
			c0.9-1,1.6-1.7,2.3-2.2c1.2-0.8,2.5-1.2,3.9-1.2c2.2,0,3.7,0.9,4.5,2.8c0.4,1,0.7,2.3,0.7,3.9v8.3c0,1.4,0.2,2.4,0.5,2.8
			s1,0.7,2.1,0.9v0.6h-8.8v-0.6c1.2-0.2,1.9-0.4,2.3-0.8c0.3-0.4,0.5-1.3,0.5-2.8v-8.3c0-1.3-0.2-2.4-0.7-3.2
			c-0.4-0.8-1.3-1.2-2.5-1.2c-1.1,0-2.1,0.4-3.1,1.1c-1,0.8-1.5,1.3-1.5,1.5v10.1c0,1.5,0.2,2.5,0.5,2.9s1.1,0.7,2.3,0.8v0.6h-9
			V741.3z"/>
		<path d="M217.8,741.3c1.5-0.1,2.4-0.4,2.8-0.7c0.4-0.4,0.6-1.3,0.6-2.9v-9.7c0-0.9-0.1-1.5-0.2-1.8c-0.2-0.6-0.6-0.8-1.3-0.8
			c-0.1,0-0.3,0-0.4,0c-0.1,0-0.6,0.1-1.2,0.3V725l0.9-0.3c2.4-0.8,4-1.4,5-1.8c0.4-0.2,0.6-0.2,0.7-0.2c0,0.1,0,0.2,0,0.3v14.7
			c0,1.6,0.2,2.5,0.6,2.9c0.4,0.4,1.2,0.6,2.5,0.8v0.6h-9.9V741.3z M221.1,714c0.4-0.4,0.9-0.6,1.5-0.6c0.6,0,1.1,0.2,1.5,0.6
			c0.4,0.4,0.6,0.9,0.6,1.5c0,0.6-0.2,1.1-0.6,1.5c-0.4,0.4-0.9,0.6-1.5,0.6c-0.6,0-1.1-0.2-1.5-0.6c-0.4-0.4-0.6-0.9-0.6-1.5
			S220.7,714.5,221.1,714z"/>
		<path d="M229.4,741.3c1-0.1,1.6-0.4,2-0.7s0.6-1.2,0.6-2.4v-10.4c0-0.9-0.1-1.5-0.2-1.8c-0.3-0.5-0.8-0.8-1.6-0.8
			c-0.1,0-0.2,0-0.4,0c-0.1,0-0.3,0-0.5,0.1v-0.7c0.6-0.2,1.9-0.6,4-1.3l1.9-0.6c0.1,0,0.2,0,0.2,0.1c0,0.1,0,0.2,0,0.3v3
			c1.2-1.2,2.2-2,2.9-2.4c1.1-0.7,2.2-1,3.3-1c0.9,0,1.8,0.3,2.5,0.8c1.5,1,2.2,2.9,2.2,5.5v9.5c0,1,0.2,1.7,0.6,2.1
			c0.4,0.4,1,0.7,2,0.7v0.6h-8.7v-0.6c1-0.1,1.7-0.4,2.1-0.8c0.4-0.4,0.6-1.3,0.6-2.7v-8.7c0-1.2-0.2-2.1-0.6-2.9
			c-0.4-0.8-1.2-1.2-2.4-1.2c-0.8,0-1.6,0.3-2.4,0.8c-0.5,0.3-1.1,0.8-1.8,1.6v11.4c0,1,0.2,1.6,0.7,2c0.4,0.3,1.1,0.5,2.1,0.5v0.6
			h-8.9V741.3z"/>
		<path d="M254,732.9c1.3-0.8,3.7-1.9,7.5-3.3v-1.7c0-1.4-0.1-2.4-0.4-2.9c-0.5-0.9-1.4-1.4-2.9-1.4c-0.7,0-1.4,0.2-2,0.5
			c-0.6,0.4-0.9,0.9-0.9,1.5c0,0.2,0,0.4,0.1,0.8s0.1,0.6,0.1,0.7c0,0.8-0.3,1.3-0.8,1.6c-0.3,0.2-0.6,0.3-1,0.3
			c-0.6,0-1.1-0.2-1.4-0.6c-0.3-0.4-0.5-0.8-0.5-1.3c0-1,0.6-1.9,1.8-3c1.2-1,2.9-1.6,5.2-1.6c2.6,0,4.4,0.9,5.4,2.6
			c0.5,0.9,0.8,2.3,0.8,4.1v8.2c0,0.8,0.1,1.3,0.2,1.6c0.2,0.5,0.5,0.8,1.1,0.8c0.3,0,0.6,0,0.8-0.1c0.2-0.1,0.6-0.3,1.1-0.7v1.1
			c-0.4,0.5-0.9,1-1.4,1.3c-0.8,0.5-1.5,0.8-2.3,0.8c-0.9,0-1.6-0.3-2-0.9c-0.4-0.6-0.6-1.3-0.7-2.1c-1,0.9-1.9,1.6-2.7,2
			c-1.2,0.7-2.4,1.1-3.5,1.1c-1.2,0-2.2-0.4-3-1.2c-0.9-0.8-1.3-1.9-1.3-3.1C251,735.9,252,734.2,254,732.9z M261.5,730.6
			c-1.6,0.5-2.9,1.1-3.9,1.7c-2,1.2-2.9,2.6-2.9,4.1c0,1.2,0.4,2.1,1.2,2.7c0.5,0.4,1.1,0.6,1.8,0.6c0.9,0,1.8-0.3,2.6-0.8
			c0.8-0.5,1.2-1.1,1.2-1.9V730.6z"/>
		<path d="M276.8,741.9v-0.8c1.1-0.1,1.9-0.5,2.4-1.2c0.5-0.7,1.5-2.6,2.8-5.6l8.7-20.5h0.8l10.4,23.7c0.7,1.6,1.2,2.5,1.7,2.9
			c0.4,0.4,1.1,0.6,2.1,0.8v0.8h-10.6v-0.8c1.2-0.1,2-0.2,2.4-0.4c0.4-0.2,0.5-0.5,0.5-1.1c0-0.2-0.1-0.6-0.2-1.1s-0.3-1.1-0.6-1.6
			l-1.7-4h-11c-1.1,2.7-1.7,4.4-1.9,5c-0.2,0.6-0.3,1.1-0.3,1.4c0,0.7,0.3,1.2,0.9,1.5c0.4,0.2,1,0.3,2,0.4v0.8H276.8z M294.8,731.2
			l-4.8-11.5l-4.8,11.5H294.8z"/>
		<path d="M310.3,732.9c-0.7-1-1-2.2-1-3.5c0-1.6,0.6-3.1,1.9-4.5c1.3-1.4,3.1-2.1,5.4-2.1c1,0,2.1,0.2,3.3,0.7
			c1.2,0.5,2.3,0.7,3.4,0.7c0.3,0,0.7,0,1.3,0s1,0,1.3,0h0.2v1.7h-3.5c0.2,0.6,0.4,1.1,0.6,1.5c0.2,0.8,0.3,1.5,0.3,2.2
			c0,1.6-0.6,3-1.9,4.3c-1.3,1.3-3,1.9-5.2,1.9c-0.3,0-1-0.1-1.8-0.2c-0.4,0-0.9,0.3-1.6,1c-0.7,0.7-1,1.2-1,1.6
			c0,0.4,0.5,0.8,1.4,1c0.6,0.1,1.3,0.2,2.1,0.2c3.5,0,5.9,0.2,7.1,0.6c2.1,0.6,3.1,2,3.1,4.1c0,2.1-1.2,3.9-3.6,5.1
			c-2.4,1.3-4.8,1.9-7.3,1.9c-2.2,0-4-0.5-5.3-1.4c-1.3-0.9-2-1.9-2-2.8c0-0.5,0.2-1,0.5-1.4s1-1.2,2-2.1l1.3-1.2l0.2-0.2
			c-0.6-0.2-1.1-0.5-1.4-0.7c-0.5-0.4-0.8-0.9-0.8-1.4c0-0.5,0.2-1.1,0.7-1.7c0.5-0.6,1.5-1.6,3-2.9
			C311.9,734.6,311,733.9,310.3,732.9z M312.4,748c1.3,0.4,2.8,0.7,4.4,0.7c2.3,0,4.1-0.4,5.5-1.2s2.1-1.7,2.1-2.9
			c0-0.9-0.6-1.5-1.7-1.8c-0.7-0.2-2.1-0.3-4-0.3c-0.5,0-1,0-1.6-0.1c-0.6,0-1.1,0-1.5-0.1c-0.3,0-0.8-0.1-1.5-0.2s-1.2-0.2-1.5-0.2
			c-0.2,0-0.6,0.4-1.2,1.3c-0.6,0.9-1,1.7-1,2.4C310.5,746.8,311.2,747.6,312.4,748z M318.9,734c0.8-0.7,1.2-1.8,1.2-3.4
			c0-1.3-0.3-2.7-1-4.4c-0.7-1.6-1.8-2.4-3.3-2.4c-1.3,0-2.3,0.6-2.8,1.9c-0.3,0.7-0.4,1.5-0.4,2.5c0,1.7,0.4,3.1,1.2,4.5
			c0.8,1.3,1.8,2,3.1,2C317.8,734.6,318.4,734.4,318.9,734z"/>
		<path d="M327.5,741.2c1.3-0.1,2.1-0.3,2.5-0.7s0.6-1,0.6-2.1v-9.2c0-1.3-0.1-2.3-0.4-2.9c-0.3-0.6-0.7-0.9-1.4-0.9
			c-0.1,0-0.3,0-0.5,0.1s-0.5,0.1-0.7,0.1V725c0.8-0.3,1.6-0.6,2.4-0.8c0.8-0.3,1.4-0.5,1.7-0.6c0.7-0.3,1.4-0.6,2.1-0.9
			c0.1,0,0.2,0,0.2,0.1c0,0.1,0,0.2,0,0.4v3.3c0.9-1.2,1.7-2.2,2.5-2.8s1.7-1,2.5-1c0.7,0,1.3,0.2,1.7,0.6c0.4,0.4,0.7,0.9,0.7,1.6
			c0,0.6-0.2,1-0.5,1.4s-0.8,0.6-1.3,0.6c-0.5,0-1-0.2-1.6-0.7c-0.5-0.5-0.9-0.7-1.2-0.7c-0.5,0-1.1,0.4-1.8,1.2
			c-0.7,0.8-1,1.6-1,2.4v9.2c0,1.2,0.3,2,0.8,2.4c0.5,0.5,1.4,0.7,2.7,0.6v0.7h-10.1V741.2z"/>
		<path d="M342,741.3c1.5-0.1,2.4-0.4,2.8-0.7c0.4-0.4,0.6-1.3,0.6-2.9v-9.7c0-0.9-0.1-1.5-0.2-1.8c-0.2-0.6-0.6-0.8-1.3-0.8
			c-0.1,0-0.3,0-0.4,0s-0.6,0.1-1.2,0.3V725l0.9-0.3c2.4-0.8,4-1.4,5-1.8c0.4-0.2,0.6-0.2,0.7-0.2c0,0.1,0,0.2,0,0.3v14.7
			c0,1.6,0.2,2.5,0.6,2.9s1.2,0.6,2.5,0.8v0.6H342V741.3z M345.3,714c0.4-0.4,0.9-0.6,1.5-0.6c0.6,0,1.1,0.2,1.5,0.6
			c0.4,0.4,0.6,0.9,0.6,1.5c0,0.6-0.2,1.1-0.6,1.5c-0.4,0.4-0.9,0.6-1.5,0.6c-0.6,0-1.1-0.2-1.5-0.6c-0.4-0.4-0.6-0.9-0.6-1.5
			S344.9,714.5,345.3,714z"/>
		<path d="M367.6,724c1.2,0.9,1.8,1.8,1.8,2.9c0,0.4-0.2,0.9-0.5,1.2c-0.3,0.4-0.8,0.6-1.4,0.6c-0.5,0-0.9-0.2-1.3-0.5
			c-0.4-0.3-0.6-0.8-0.8-1.4l-0.2-1c-0.2-0.7-0.5-1.2-0.9-1.5c-0.4-0.3-1-0.4-1.8-0.4c-1.6,0-2.9,0.7-3.9,2
			c-1.1,1.4-1.6,3.2-1.6,5.4c0,2.1,0.6,3.9,1.8,5.5c1.2,1.6,2.8,2.5,4.8,2.5c1.4,0,2.7-0.5,3.8-1.4c0.6-0.5,1.3-1.4,2.1-2.5l0.6,0.3
			c-0.8,1.6-1.6,2.9-2.4,3.9c-1.6,1.8-3.6,2.7-5.7,2.7c-2.1,0-4-0.8-5.6-2.5c-1.6-1.7-2.4-3.9-2.4-6.8c0-2.8,0.9-5.2,2.7-7.3
			c1.8-2,4-3,6.8-3C364.9,722.7,366.4,723.1,367.6,724z"/>
		<path d="M377.9,723v13.1c0,0.9,0.1,1.7,0.4,2.2c0.5,1,1.4,1.6,2.8,1.6c0.9,0,1.8-0.3,2.7-0.9c0.5-0.3,1-0.8,1.5-1.4v-11.2
			c0-1-0.2-1.7-0.6-2.1s-1.2-0.5-2.4-0.6V723h6.6v14.4c0,0.9,0.2,1.6,0.5,1.9s1,0.5,2.1,0.5v0.6c-0.7,0.2-1.3,0.4-1.7,0.5
			c-0.4,0.1-0.9,0.3-1.8,0.6c-0.4,0.1-1.1,0.4-2.3,0.9c-0.1,0-0.1,0-0.1-0.1s0-0.1,0-0.2v-3.3c-0.9,1.1-1.8,1.9-2.5,2.4
			c-1.2,0.8-2.4,1.2-3.7,1.2c-1.2,0-2.3-0.4-3.3-1.3c-1.1-0.8-1.6-2.2-1.6-4.2v-10.6c0-1.1-0.2-1.8-0.7-2.2
			c-0.3-0.2-0.9-0.4-1.9-0.5V723H377.9z"/>
		<path d="M393.1,741.3c1.3-0.1,2.1-0.4,2.6-0.8s0.7-1.1,0.7-2.3v-19.9c0-0.9-0.1-1.5-0.2-1.9c-0.3-0.6-0.8-0.9-1.7-0.9
			c-0.2,0-0.4,0-0.6,0.1c-0.2,0-0.5,0.1-0.8,0.2v-0.7c1.8-0.5,4-1.1,6.6-2c0.1,0,0.2,0,0.2,0.1c0,0.1,0,0.3,0,0.5v24.5
			c0,1.2,0.2,1.9,0.6,2.3c0.4,0.3,1.3,0.6,2.5,0.7v0.6h-9.9V741.3z"/>
		<path d="M414.5,723.1v1.5h-4.2l0,11.8c0,1,0.1,1.8,0.3,2.3c0.3,0.9,1,1.4,1.9,1.4c0.5,0,0.9-0.1,1.3-0.3s0.8-0.6,1.2-1.1l0.5,0.4
			l-0.4,0.6c-0.7,1-1.5,1.6-2.2,2s-1.6,0.6-2.3,0.6c-1.6,0-2.7-0.7-3.3-2.1c-0.3-0.8-0.5-1.9-0.5-3.2v-12.4h-2.2
			c-0.1,0-0.1-0.1-0.2-0.1c0,0-0.1-0.1-0.1-0.2c0-0.1,0-0.2,0.1-0.3c0.1-0.1,0.3-0.2,0.6-0.5c0.9-0.8,1.6-1.4,2-1.9s1.4-1.8,2.9-3.8
			c0.2,0,0.3,0,0.3,0c0,0,0.1,0.1,0.1,0.3v5H414.5z"/>
		<path d="M422,723v13.1c0,0.9,0.1,1.7,0.4,2.2c0.5,1,1.4,1.6,2.8,1.6c0.9,0,1.8-0.3,2.7-0.9c0.5-0.3,1-0.8,1.5-1.4v-11.2
			c0-1-0.2-1.7-0.6-2.1s-1.2-0.5-2.4-0.6V723h6.6v14.4c0,0.9,0.2,1.6,0.5,1.9s1,0.5,2.1,0.5v0.6c-0.7,0.2-1.3,0.4-1.7,0.5
			c-0.4,0.1-0.9,0.3-1.8,0.6c-0.4,0.1-1.1,0.4-2.3,0.9c-0.1,0-0.1,0-0.1-0.1s0-0.1,0-0.2v-3.3c-0.9,1.1-1.8,1.9-2.5,2.4
			c-1.2,0.8-2.4,1.2-3.7,1.2c-1.2,0-2.3-0.4-3.3-1.3c-1.1-0.8-1.6-2.2-1.6-4.2v-10.6c0-1.1-0.2-1.8-0.7-2.2
			c-0.3-0.2-0.9-0.4-1.9-0.5V723H422z"/>
		<path d="M436.6,741.2c1.3-0.1,2.1-0.3,2.5-0.7c0.4-0.3,0.6-1,0.6-2.1v-9.2c0-1.3-0.1-2.3-0.4-2.9c-0.3-0.6-0.7-0.9-1.4-0.9
			c-0.1,0-0.3,0-0.5,0.1c-0.2,0-0.5,0.1-0.7,0.1V725c0.8-0.3,1.6-0.6,2.4-0.8c0.8-0.3,1.4-0.5,1.7-0.6c0.7-0.3,1.4-0.6,2.1-0.9
			c0.1,0,0.2,0,0.2,0.1c0,0.1,0,0.2,0,0.4v3.3c0.9-1.2,1.7-2.2,2.5-2.8s1.7-1,2.5-1c0.7,0,1.3,0.2,1.7,0.6s0.7,0.9,0.7,1.6
			c0,0.6-0.2,1-0.5,1.4c-0.3,0.4-0.8,0.6-1.3,0.6c-0.5,0-1-0.2-1.6-0.7c-0.5-0.5-0.9-0.7-1.2-0.7c-0.5,0-1.1,0.4-1.8,1.2
			s-1,1.6-1,2.4v9.2c0,1.2,0.3,2,0.8,2.4c0.5,0.5,1.4,0.7,2.7,0.6v0.7h-10.1V741.2z"/>
		<path d="M454.8,732.9c1.3-0.8,3.7-1.9,7.5-3.3v-1.7c0-1.4-0.1-2.4-0.4-2.9c-0.5-0.9-1.4-1.4-2.9-1.4c-0.7,0-1.4,0.2-2,0.5
			c-0.6,0.4-0.9,0.9-0.9,1.5c0,0.2,0,0.4,0.1,0.8s0.1,0.6,0.1,0.7c0,0.8-0.3,1.3-0.8,1.6c-0.3,0.2-0.6,0.3-1,0.3
			c-0.6,0-1.1-0.2-1.4-0.6c-0.3-0.4-0.5-0.8-0.5-1.3c0-1,0.6-1.9,1.8-3c1.2-1,2.9-1.6,5.2-1.6c2.6,0,4.4,0.9,5.4,2.6
			c0.5,0.9,0.8,2.3,0.8,4.1v8.2c0,0.8,0.1,1.3,0.2,1.6c0.2,0.5,0.5,0.8,1.1,0.8c0.3,0,0.6,0,0.8-0.1c0.2-0.1,0.6-0.3,1.1-0.7v1.1
			c-0.4,0.5-0.9,1-1.4,1.3c-0.8,0.5-1.5,0.8-2.3,0.8c-0.9,0-1.6-0.3-2-0.9c-0.4-0.6-0.6-1.3-0.7-2.1c-1,0.9-1.9,1.6-2.7,2
			c-1.2,0.7-2.4,1.1-3.5,1.1c-1.2,0-2.2-0.4-3-1.2s-1.3-1.9-1.3-3.1C451.9,735.9,452.8,734.2,454.8,732.9z M462.3,730.6
			c-1.6,0.5-2.9,1.1-3.9,1.7c-2,1.2-2.9,2.6-2.9,4.1c0,1.2,0.4,2.1,1.2,2.7c0.5,0.4,1.1,0.6,1.8,0.6c0.9,0,1.8-0.3,2.6-0.8
			c0.8-0.5,1.2-1.1,1.2-1.9V730.6z"/>
		<path d="M469.7,741.3c1.3-0.1,2.1-0.4,2.6-0.8s0.7-1.1,0.7-2.3v-19.9c0-0.9-0.1-1.5-0.2-1.9c-0.3-0.6-0.8-0.9-1.7-0.9
			c-0.2,0-0.4,0-0.6,0.1c-0.2,0-0.5,0.1-0.8,0.2v-0.7c1.8-0.5,4-1.1,6.6-2c0.1,0,0.2,0,0.2,0.1c0,0.1,0,0.3,0,0.5v24.5
			c0,1.2,0.2,1.9,0.6,2.3c0.4,0.3,1.3,0.6,2.5,0.7v0.6h-9.9V741.3z"/>
		<path d="M491.4,741.1c1.7-0.2,2.8-0.6,3.3-1.2c0.5-0.6,0.7-2,0.7-4.2v-17c0-1.5-0.2-2.5-0.7-2.9c-0.5-0.5-1.6-0.7-3.2-0.8v-0.8
			h8.2l9.6,20.8l9.4-20.8h8.3v0.8c-1.6,0.1-2.6,0.4-3,0.8c-0.4,0.5-0.7,1.4-0.7,2.9v18.6c0,1.5,0.2,2.5,0.7,2.9
			c0.4,0.4,1.4,0.7,3,0.8v0.8h-11.7v-0.8c1.7-0.1,2.7-0.4,3.2-0.9c0.4-0.5,0.6-1.6,0.6-3.4v-18.8l-10.7,23.8h-0.6l-10.5-22.8v16.7
			c0,2.3,0.3,3.8,1,4.5c0.4,0.4,1.4,0.8,2.9,0.9v0.8h-9.8V741.1z"/>
		<path d="M534.6,723v13.1c0,0.9,0.1,1.7,0.4,2.2c0.5,1,1.4,1.6,2.8,1.6c0.9,0,1.8-0.3,2.7-0.9c0.5-0.3,1-0.8,1.5-1.4v-11.2
			c0-1-0.2-1.7-0.6-2.1c-0.4-0.3-1.2-0.5-2.4-0.6V723h6.6v14.4c0,0.9,0.2,1.6,0.5,1.9s1,0.5,2.1,0.5v0.6c-0.7,0.2-1.3,0.4-1.7,0.5
			c-0.4,0.1-0.9,0.3-1.8,0.6c-0.4,0.1-1.1,0.4-2.3,0.9c-0.1,0-0.1,0-0.1-0.1s0-0.1,0-0.2v-3.3c-0.9,1.1-1.8,1.9-2.5,2.4
			c-1.2,0.8-2.4,1.2-3.7,1.2c-1.2,0-2.3-0.4-3.3-1.3c-1.1-0.8-1.6-2.2-1.6-4.2v-10.6c0-1.1-0.2-1.8-0.7-2.2
			c-0.3-0.2-0.9-0.4-1.9-0.5V723H534.6z"/>
		<path d="M551.2,735.5h0.7c0.3,1.6,0.7,2.7,1.3,3.6c1,1.5,2.3,2.3,4.2,2.3c1,0,1.8-0.3,2.4-0.8c0.6-0.6,0.9-1.3,0.9-2.2
			c0-0.6-0.2-1.1-0.5-1.7c-0.3-0.5-0.9-1-1.8-1.6l-2.3-1.3c-1.7-0.9-2.9-1.8-3.7-2.7c-0.8-0.9-1.2-2-1.2-3.2c0-1.5,0.5-2.8,1.6-3.8
			c1.1-1,2.5-1.5,4.1-1.5c0.7,0,1.5,0.1,2.4,0.4c0.9,0.3,1.4,0.4,1.5,0.4c0.2,0,0.4,0,0.5-0.1c0.1-0.1,0.2-0.2,0.3-0.3h0.5l0.1,5.7
			h-0.6c-0.3-1.3-0.6-2.3-1.1-3.1c-0.8-1.4-2.1-2-3.7-2c-1,0-1.7,0.3-2.2,0.9s-0.8,1.3-0.8,2.1c0,1.3,0.9,2.4,2.8,3.3l2.7,1.4
			c2.9,1.6,4.3,3.4,4.3,5.5c0,1.6-0.6,2.9-1.8,3.9c-1.2,1-2.8,1.5-4.7,1.5c-0.8,0-1.7-0.1-2.8-0.4c-1-0.3-1.6-0.4-1.8-0.4
			c-0.2,0-0.3,0.1-0.4,0.2c-0.1,0.1-0.2,0.3-0.3,0.4h-0.5V735.5z"/>
		<path d="M579.9,724.7c1.4,1.3,2.2,3.2,2.2,5.6h-13c0.1,3.1,0.9,5.4,2.1,6.9c1.3,1.4,2.8,2.2,4.6,2.2c1.4,0,2.6-0.4,3.6-1.1
			c1-0.7,1.9-1.8,2.7-3.2l0.7,0.2c-0.6,1.7-1.6,3.3-3.1,4.8c-1.5,1.5-3.4,2.2-5.6,2.2c-2.6,0-4.5-1-5.9-2.9
			c-1.4-1.9-2.1-4.2-2.1-6.7c0-2.7,0.8-5.1,2.4-7.1c1.6-2,3.7-3,6.3-3C576.8,722.8,578.4,723.4,579.9,724.7z M570.1,726.3
			c-0.4,0.7-0.7,1.7-0.9,2.8h8.6c-0.1-1.4-0.4-2.4-0.8-3c-0.7-1.2-1.8-1.8-3.3-1.8C572.1,724.2,570.9,724.9,570.1,726.3z"/>
		<path d="M590.3,723v13.1c0,0.9,0.1,1.7,0.4,2.2c0.5,1,1.4,1.6,2.8,1.6c0.9,0,1.8-0.3,2.7-0.9c0.5-0.3,1-0.8,1.5-1.4v-11.2
			c0-1-0.2-1.7-0.6-2.1s-1.2-0.5-2.4-0.6V723h6.6v14.4c0,0.9,0.2,1.6,0.5,1.9s1,0.5,2.1,0.5v0.6c-0.7,0.2-1.3,0.4-1.7,0.5
			c-0.4,0.1-0.9,0.3-1.8,0.6c-0.4,0.1-1.1,0.4-2.3,0.9c-0.1,0-0.1,0-0.1-0.1s0-0.1,0-0.2v-3.3c-0.9,1.1-1.8,1.9-2.5,2.4
			c-1.2,0.8-2.4,1.2-3.7,1.2c-1.2,0-2.3-0.4-3.3-1.3c-1.1-0.8-1.6-2.2-1.6-4.2v-10.6c0-1.1-0.2-1.8-0.7-2.2
			c-0.3-0.2-0.9-0.4-1.9-0.5V723H590.3z"/>
		<path d="M605.4,741.4c1.1-0.1,1.8-0.3,2.1-0.5c0.5-0.4,0.8-1.2,0.8-2.4v-10.6c0-1-0.1-1.7-0.4-2c-0.3-0.3-0.7-0.5-1.3-0.5
			c-0.3,0-0.5,0-0.6,0c-0.1,0-0.3,0.1-0.5,0.1v-0.7l1.5-0.5c0.5-0.2,1.4-0.5,2.6-1c1.2-0.5,1.9-0.7,1.9-0.7c0.1,0,0.1,0,0.1,0.1
			c0,0.1,0,0.2,0,0.4v2.8c1.3-1.2,2.5-2.1,3.5-2.5c1-0.5,2-0.7,3-0.7c1.4,0,2.5,0.5,3.3,1.4c0.4,0.5,0.8,1.2,1.1,2.1
			c1-1,1.9-1.8,2.6-2.3c1.3-0.8,2.6-1.3,4-1.3c2.2,0,3.7,0.9,4.4,2.7c0.4,1,0.6,2.6,0.6,4.8v8.5c0,1,0.2,1.6,0.6,2
			c0.4,0.3,1.2,0.6,2.3,0.7v0.5h-9.2v-0.6c1.2-0.1,2-0.3,2.3-0.7c0.4-0.4,0.6-1.1,0.6-2.2v-8.8c0-1.3-0.1-2.3-0.4-2.9
			c-0.5-1.1-1.5-1.7-3-1.7c-0.9,0-1.8,0.3-2.6,0.9c-0.5,0.3-1.1,0.9-1.9,1.6v10.4c0,1.1,0.2,1.9,0.6,2.5c0.4,0.6,1.2,0.9,2.5,0.9
			v0.5h-9.4v-0.5c1.3-0.2,2.1-0.5,2.5-0.9c0.4-0.5,0.5-1.6,0.5-3.4v-5.7c0-2.1-0.1-3.5-0.4-4.3c-0.4-1.3-1.4-2-2.9-2
			c-0.8,0-1.6,0.2-2.4,0.7c-0.8,0.5-1.5,1.1-2.1,1.8v11.2c0,1,0.2,1.7,0.5,2.1c0.4,0.4,1.1,0.6,2.4,0.6v0.5h-9.3V741.4z"/>
	</g>
</g>
</svg>
