<?xml version="1.0" encoding="utf-8"?>
<!-- Generator: Adobe Illustrator 22.1.0, SVG Export Plug-In . SVG Version: 6.00 Build 0)  -->
<svg version="1.1" id="图层_1" xmlns="http://www.w3.org/2000/svg" xmlns:xlink="http://www.w3.org/1999/xlink" x="0px" y="0px"
	 viewBox="0 0 800 800" style="enable-background:new 0 0 800 800;" xml:space="preserve">
<style type="text/css">
	.st0{fill:#006648;}
	.st1{fill:#A80221;}
</style>
<g>
	<path class="st0" d="M690.6,242.8c14,9.9,38.4,16.5,60.4,18.6l-0.3,1.7c-8.8,2-15.4,8.4-18,18c-22.8-7.6-37.4-20.1-46.9-38.3h-28.4
		c-3.3,4.5-7.3,8.7-11.9,12.6l27.3,1.8c-0.3,2.1-2.1,3.2-5.9,3.6v42.5c0,12.7-3.3,19.4-27.7,21.1c-0.5-5.9-1.2-10.2-3.5-13
		c-2.4-2.8-5.4-4.8-13.1-6c-11.9,7.6-30.6-0.4-17.8-13.7c8.6-3.6,17.8-10.8,21.6-20l1.9,0.1c5.7,16.5,2.6,26.6-3.5,31.9
		c4.3,0.3,13.3,0.7,15.7,0.7c2.2,0,2.9-0.6,2.9-2v-45.5c-14.7,11.9-35.3,21-59.3,27.4L583,283c19.6-9.9,34.9-25.3,43.6-40.2h-40.3
		l-1.4-3.9h43.6V219h-35.1l-1.4-3.9h36.5v-23.8l31.8,2c-0.3,2-1.4,3.4-6.2,4.1v17.8h21.3v-23.8l32.4,2c-0.3,2-1.6,3.4-6.4,4.1v17.8
		h9.2l11.6-13c0,0,13.3,8.8,20.9,14.7c-0.5,1.5-2.4,2.2-4.8,2.2h-36.9v19.9h14.2l12.1-13.4c0,0,13.7,9.1,21.6,15.1
		c-0.5,1.5-2.4,2.2-5,2.2H690.6z M675.4,238.9V219h-21.3v19.9H675.4z M676.3,272.2c40,20.1,17.3,47.8,1.2,32.9
		c1.6-10.8-0.3-22.8-3.1-32.3L676.3,272.2z M696.5,271.2c59.2,12.3,40.3,48.4,18,34.8c-2.8-11.8-11.4-24.8-19.6-34.1L696.5,271.2z"
		/>
	<path class="st0" d="M722.8,438.4c0,0,16.1,9.8,25.8,16.4c-0.5,1.5-2.4,2.2-5.2,2.2H588.2l-1.4-3.9h65.7v-53H601l-1.4-3.9h52.9
		v-46.7h-57.6l-1.4-3.9h108l14-14.4c0,0,15.7,9.7,25.3,16.1c-0.5,1.5-2.4,2.2-5,2.2h-55.5v46.7H697l13.5-13.7
		c0,0,15.1,9.1,24.2,15.4c-0.5,1.5-2.4,2.2-5,2.2h-49.5v53h28.2L722.8,438.4z"/>
	<path class="st0" d="M671.2,505.9c-0.5,1.5-2.1,2.5-6.4,2.7c-3.5,5.5-7.8,11.8-13,18.2l9.9,2.9c-0.5,1.3-2.1,2.2-5.4,2.7v66.9
		c-0.3,1.3-10,4.8-19,4.8H633V546c-2.6,2.1-5.2,4.2-8,6l-1.7-1.1c9.3-15.5,16.4-38.3,19-52.9h-18v32.5c0,23.8-1.9,54.7-38.1,74.6
		l-1.4-1c13.8-21.5,14.4-49.2,14.4-73.6v-44.2l28.7,7.8h39.1l-0.5-0.3c-1.7-8.1-7.6-16.5-13.5-22l1-0.7
		c38.6-0.1,40.8,16.6,30.8,22.9h31.3l11.9-13.3c0,0,13.5,9,21.3,15c-0.5,1.5-2.4,2.2-4.8,2.2H646L671.2,505.9z M732.3,512.4
		c0,0,11.1,9.2,16.6,15.1c-0.5,1.5-2.2,2.2-4.7,2.2h-19.6v51.9c0,13.2-3.6,20.3-30.5,22.2c-0.5-6.3-1.6-10.8-4.7-13.9
		c-3.1-2.9-6.9-5-16.6-6.4v-1.8c0,0,20.1,1,24,1c2.8,0,3.6-0.7,3.6-2.4v-50.6h-37.5l-1.4-3.9h38.9V499l30.3,2.1
		c-0.3,2.1-2.1,3.4-6.2,3.9v18.2L732.3,512.4z M668.3,535.9c47.6,13.6,23.7,43.1,5.4,28.4c0.3-9.7-3.1-19.9-6.9-27.8L668.3,535.9z"
		/>
</g>
<path class="st1" d="M52.8,196.9h63.3c1,0,1.8,0.8,1.8,1.8V215c0,1-0.8,1.8-1.8,1.8H76.3c-1,0-1.8,0.8-1.8,1.8v14.5
	c0,1,0.8,1.8,1.8,1.8h39.8c1,0,1.8,0.8,1.8,1.8V253c0,1-0.8,1.8-1.8,1.8H76.3c-1,0-1.8,0.8-1.8,1.8v16.3c0,1,0.8,1.8,1.8,1.8h39.8
	c1,0,1.8,0.8,1.8,1.8v211.6c0,1-0.8,1.8-1.8,1.8H76.3c-1,0-1.8,0.8-1.8,1.8v113.9c0,1-0.8,1.8-1.8,1.8H52.8c-1,0-1.8-0.8-1.8-1.8
	V471.8c0-1,0.8-1.8,1.8-1.8h39.8c1,0,1.8-0.8,1.8-1.8V296.4c0-1-0.8-1.8-1.8-1.8H76.3c-1,0-1.8,0.8-1.8,1.8v153.7
	c0,1-0.8,1.8-1.8,1.8H52.8c-1,0-1.8-0.8-1.8-1.8V198.8C51,197.8,51.8,196.9,52.8,196.9z"/>
<rect x="137.8" y="196.9" class="st1" width="155.5" height="19.9"/>
<path class="st1" d="M137.8,236.7V253c0,1,0.8,1.8,1.8,1.8h151.9c1,0,1.8-0.8,1.8-1.8v-16.3c0-1-0.8-1.8-1.8-1.8H139.6
	C138.6,234.9,137.8,235.7,137.8,236.7z"/>
<path class="st1" d="M139.6,274.7h63.3c1,0,1.8,0.8,1.8,1.8v57.9h0c-12,0-21.7-9.7-21.7-21.7v-16.3c0-1-0.8-1.8-1.8-1.8h-18.1
	c-1,0-1.8,0.8-1.8,1.8v14.5c0,13-10.5,23.5-23.5,23.5h0v-57.9C137.8,275.5,138.6,274.7,139.6,274.7z"/>
<path class="st1" d="M228.2,274.7h63.3c1,0,1.8,0.8,1.8,1.8v57.9h0c-12,0-21.7-9.7-21.7-21.7v-16.3c0-1-0.8-1.8-1.8-1.8h-18.1
	c-1,0-1.8,0.8-1.8,1.8v14.5c0,13-10.5,23.5-23.5,23.5h0v-57.9C226.4,275.5,227.2,274.7,228.2,274.7z"/>
<path class="st1" d="M137.8,352.5h155.5v0c0,11-8.9,19.9-19.9,19.9h-45.2c-1,0-1.8,0.8-1.8,1.8v16.3c0,1,0.8,1.8,1.8,1.8h65.1v0
	c0,11-8.9,19.9-19.9,19.9h-45.2c-1,0-1.8,0.8-1.8,1.8v16.3c0,1,0.8,1.8,1.8,1.8h65.1v0c0,11-8.9,19.9-19.9,19.9H157.7
	c-11,0-19.9-8.9-19.9-19.9v0h65.1c1,0,1.8-0.8,1.8-1.8V414c0-1-0.8-1.8-1.8-1.8h-45.2c-11,0-19.9-8.9-19.9-19.9v0h65.1
	c1,0,1.8-0.8,1.8-1.8v-16.3c0-1-0.8-1.8-1.8-1.8h-45.2C146.7,372.4,137.8,363.5,137.8,352.5L137.8,352.5z"/>
<path class="st1" d="M137.8,470h155.5v0c0,11-8.9,19.9-19.9,19.9H157.7C146.7,489.9,137.8,481,137.8,470L137.8,470z"/>
<path class="st1" d="M96.2,567.7h19.9c1,0,1.8-0.8,1.8-1.8v-34.4c0-1,0.8-1.8,1.8-1.8H136c1,0,1.8,0.8,1.8,1.8v34.4
	c0,1,0.8,1.8,1.8,1.8h41.6c1,0,1.8,0.8,1.8,1.8v16.3c0,1-0.8,1.8-1.8,1.8h-85c-1,0-1.8,0.8-1.8,1.8v16.3c0,1,0.8,1.8,1.8,1.8h106.7
	c1,0,1.8-0.8,1.8-1.8v-56.1c0-1-0.8-1.8-1.8-1.8h-39.8c-1,0-1.8-0.8-1.8-1.8v-34.4c0-1-0.8-1.8-1.8-1.8H96.2c-1,0-1.8,0.8-1.8,1.8
	v54.3C94.4,566.9,95.2,567.7,96.2,567.7z"/>
<path class="st1" d="M358.4,509.8h19.9c1,0,1.8,0.8,1.8,1.8v94c0,1-0.8,1.8-1.8,1.8H228.2c-1,0-1.8-0.8-1.8-1.8v-16.3
	c0-1,0.8-1.8,1.8-1.8h126.6c1,0,1.8-0.8,1.8-1.8v-74.1C356.6,510.6,357.4,509.8,358.4,509.8z"/>
<path class="st1" d="M226.4,549.6v16.3c0,1,0.8,1.8,1.8,1.8h106.7c1,0,1.8-0.8,1.8-1.8v-74.1c0-1,0.8-1.8,1.8-1.8h39.8
	c1,0,1.8-0.8,1.8-1.8v-16.3c0-1-0.8-1.8-1.8-1.8h-39.8c-1,0-1.8-0.8-1.8-1.8V296.4c0-1,0.8-1.8,1.8-1.8h16.3c1,0,1.8,0.8,1.8,1.8
	v153.7c0,1,0.8,1.8,1.8,1.8h19.9c1,0,1.8-0.8,1.8-1.8V198.8c0-1-0.8-1.8-1.8-1.8H315c-1,0-1.8,0.8-1.8,1.8V215c0,1,0.8,1.8,1.8,1.8
	h39.8c1,0,1.8,0.8,1.8,1.8v14.5c0,1-0.8,1.8-1.8,1.8H315c-1,0-1.8,0.8-1.8,1.8V253c0,1,0.8,1.8,1.8,1.8h39.8c1,0,1.8,0.8,1.8,1.8
	v16.3c0,1-0.8,1.8-1.8,1.8H315c-1,0-1.8,0.8-1.8,1.8V508c0,1-0.8,1.8-1.8,1.8H184.8c-1,0-1.8,0.8-1.8,1.8v16.3c0,1,0.8,1.8,1.8,1.8
	h126.6c1,0,1.8,0.8,1.8,1.8V546c0,1-0.8,1.8-1.8,1.8h-83.2C227.2,547.8,226.4,548.6,226.4,549.6z"/>
<g>
	<path class="st0" d="M507.5,195.9c0.2,2.2,0.6,3.7,1.4,4.4c0.8,0.7,2.3,1.1,4.7,1.1H543c2.5,0,4.1-0.4,4.7-1.1s1.1-2.2,1.3-4.4h1.7
		v21.4c0,5.7-0.9,10-2.8,13s-5,4.4-9.5,4.4c-2.2,0-4.2-0.6-6.2-1.7c-1.9-1.2-3.5-3.1-4.6-5.7c-0.8-2-1.3-4-1.5-6s-0.3-5-0.3-9h-12.4
		c-2.4,0-4.1,0.4-4.8,1.2c-0.8,0.8-1.2,2.4-1.3,4.6h-1.7v-22.2H507.5z M529.7,220.2c1.3,2.1,4.2,3.2,8.7,3.2c3,0,5.5-0.5,7.3-1.5
		s2.8-3,2.8-5.9c0-1.3-0.2-2.3-0.5-2.8c-0.3-0.6-0.9-0.9-1.8-0.9h-17.9C528.4,216.2,528.8,218.8,529.7,220.2z"/>
	<path class="st0" d="M507.4,236.7c0.2,1.3,0.5,2.2,0.9,2.7c0.5,0.5,1.3,0.8,2.6,0.8l2,0.1H531c1.4,0,2.4-0.2,2.9-0.7
		c0.5-0.5,0.8-1.4,1-2.8h1.6v12.6h-5.2c1.8,1.4,3.3,2.8,4.4,4.2c1.1,1.4,1.6,3,1.6,4.8c0,1.4-0.4,2.6-1.3,3.7
		c-0.9,1.1-2.2,1.6-3.9,1.6c-1.3,0-2.4-0.4-3.2-1.2c-0.8-0.8-1.3-1.8-1.3-3c0-1.4,0.7-2.6,2-3.7c1.3-1,2-1.8,2-2.2
		c0-0.9-0.5-1.8-1.6-2.7c-1.1-0.9-2.7-1.4-4.7-1.4h-12.6c-2.2,0-3.6,0.3-4.1,1s-0.9,1.9-1.1,3.8h-1.6v-17.7H507.4z"/>
	<path class="st0" d="M507.4,266.2c0.2,1.2,0.5,2,0.9,2.4c0.6,0.7,1.6,1,3.2,1H531c1.4,0,2.3-0.2,2.8-0.7c0.5-0.5,0.9-1.4,1.1-2.7
		h1.6v12.8h-25.3c-1.5,0-2.4,0.2-2.8,0.7c-0.4,0.4-0.7,1.2-1,2.4h-1.6v-15.9H507.4z M550.3,270.6c1,1,1.5,2.2,1.5,3.7
		c0,1.4-0.5,2.6-1.5,3.6c-1,1-2.2,1.5-3.7,1.5c-1.4,0-2.7-0.5-3.7-1.5c-1-1-1.5-2.2-1.5-3.6c0-1.4,0.5-2.7,1.5-3.7s2.2-1.5,3.7-1.5
		C548.1,269.1,549.3,269.6,550.3,270.6z"/>
	<path class="st0" d="M507.4,284.7c0.2,1.2,0.5,2.1,1,2.7c0.5,0.6,1.5,0.9,3,0.9H531c1.4,0,2.3-0.2,2.8-0.7c0.5-0.5,0.9-1.4,1-2.8
		h1.6v12.6h-4.8c1.6,1.1,2.9,2.4,4,4c1.1,1.6,1.6,3.5,1.6,5.4c0,2.9-0.7,5.1-2.2,6.7s-4.1,2.4-7.8,2.4h-16.1c-1.5,0-2.5,0.3-2.9,0.8
		c-0.4,0.5-0.7,1.4-0.9,2.6h-1.6v-15.6h1.6c0.2,1.2,0.6,2,1,2.4c0.4,0.4,1.3,0.7,2.8,0.7h16.1c1.5,0,2.7-0.2,3.4-0.5
		c1.4-0.5,2-1.6,2-3.1c0-1.1-0.4-2.2-1.3-3.2s-1.7-1.7-2.5-2.2h-17.8c-1.5,0-2.4,0.2-2.8,0.7c-0.4,0.4-0.7,1.2-1,2.4h-1.6v-16H507.4
		z"/>
	<path class="st0" d="M535.3,345.1c-1.4,2-3.1,3.1-5.3,3.1c-1.1,0-2.1-0.4-3-1.2s-1.3-1.8-1.3-3.1c0-0.8,0.2-1.6,0.6-2.2
		c0.7-1.2,2-1.8,3.8-1.8c0.2,0,0.5,0,0.9,0c0.4,0,0.8,0,1.2,0c1.2,0,2-0.3,2.4-0.8c0.4-0.6,0.7-1.2,0.7-1.9c0-2.1-1.1-3.5-3.4-4.4
		c-2.3-0.9-4.9-1.3-7.8-1.3c-4.2,0-7.7,0.8-10.5,2.5s-4.2,3.9-4.2,6.7c0,1.8,0.4,3.3,1.2,4.5c0.5,0.7,1.3,1.6,2.5,2.7l-1.1,1.2
		c-3-2.2-5.1-4.7-6.2-7.6c-0.6-1.5-0.9-3.2-0.9-4.9c0-4.3,1.5-7.8,4.6-10.5c3.1-2.7,6.8-4.1,11.2-4.1c4.6,0,8.6,1.4,11.9,4.3
		s4.9,6.7,4.9,11.5C537.3,340.6,536.6,343,535.3,345.1z"/>
	<path class="st0" d="M533,355.7c2.8,2.7,4.2,6,4.2,9.9c0,2.2-0.6,4.3-1.7,6.2c-1.1,1.9-2.7,3.4-4.8,4.5c-1.5,0.8-3.5,1.3-6,1.6
		c-1.1,0.2-2,0.2-2.6,0.2v-17c-2.7,0.2-5,0.6-6.9,1.3c-3.7,1.3-5.5,3.6-5.5,6.9c0,1.6,0.5,3,1.5,4.4c0.6,0.8,1.6,1.9,3,3.2l-0.9,1.5
		c-3.4-2.1-5.7-4.5-7.1-7.2c-0.8-1.8-1.3-3.8-1.3-6.1c0-3.3,1.3-6.3,3.9-9.2s6.7-4.3,12.4-4.3C526.2,351.7,530.2,353,533,355.7z
		 M524.6,369.9c3.9,0,6.7-0.3,8.2-0.9s2.3-1.7,2.3-3.4c0-1.7-0.9-2.9-2.7-3.6s-4.4-1-7.9-1.1V369.9z"/>
	<path class="st0" d="M507.5,398.1c0.1,1.8,0.3,3.1,0.7,3.9c0.7,1.3,2,1.9,4,1.9h32.3c1.9,0,3.2-0.6,3.9-1.8c0.4-0.7,0.7-2.1,0.8-4
		h1.7v22.5h-1.7c-0.2-2.3-0.6-3.8-1.3-4.7c-0.7-0.8-2.3-1.2-4.8-1.2h-14.3l14.5,14.3c1,1,1.7,1.6,2.1,1.9c0.4,0.3,0.9,0.4,1.5,0.4
		c0.8,0,1.4-0.4,1.6-1.2c0.2-0.8,0.4-2.3,0.6-4.5h1.7v19.3h-1.7c-0.3-3.4-1.3-6.3-2.9-8.6c-1.7-2.3-5.7-6.6-12.2-12.9L508.8,444
		c-0.5,0.4-0.9,0.9-1,1.3c-0.1,0.4-0.3,1.1-0.3,2h-1.7v-22.3h1.7c0,2,0.1,3.4,0.3,4.1c0.2,0.7,0.5,1.1,1.1,1.1
		c0.3,0,0.6-0.1,1.1-0.4s1-0.7,1.8-1.3l15.1-12.1l-1.7-1.7h-13c-1.9,0-3.2,0.6-3.9,1.9c-0.4,0.7-0.7,2-0.7,3.9h-1.7v-22.5H507.5z"/>
	<path class="st0" d="M536.5,461.8h-22.6c-1.3,0-2.3,0.2-3,0.5c-1.1,0.6-1.7,1.7-1.7,3.3c0,1.1,0.3,2.1,1,3.1c0.4,0.6,1,1.3,1.9,2.2
		H531c1.4,0,2.4-0.3,2.9-0.8c0.6-0.6,0.9-1.7,0.9-3.3h1.6v13.3h-24c-1.4,0-2.3,0.3-2.9,0.8c-0.5,0.5-0.9,1.5-1,3.1h-1.5
		c-0.4-4.1-0.7-6.7-0.9-7.8c-0.2-1.1-0.6-2.8-1.4-5.2h4.4c-1.4-1.6-2.3-2.9-2.9-3.9c-1-1.8-1.5-3.7-1.5-5.7c0-2.1,0.7-4.1,2-6
		s3.8-2.8,7.3-2.8H531c1.4,0,2.4-0.2,2.8-0.7c0.4-0.5,0.8-1.3,1.1-2.6h1.6V461.8z"/>
	<path class="st0" d="M507.4,486.3c0.2,1.2,0.5,2.1,1,2.7c0.5,0.6,1.5,0.9,3,0.9H531c1.4,0,2.3-0.2,2.8-0.7c0.5-0.5,0.9-1.4,1-2.8
		h1.6v12.6h-4.8c1.6,1.1,2.9,2.4,4,4c1.1,1.6,1.6,3.5,1.6,5.4c0,2.9-0.7,5.1-2.2,6.7s-4.1,2.4-7.8,2.4h-16.1c-1.5,0-2.5,0.3-2.9,0.8
		s-0.7,1.4-0.9,2.6h-1.6v-15.6h1.6c0.2,1.2,0.6,2,1,2.4c0.4,0.4,1.3,0.7,2.8,0.7h16.1c1.5,0,2.7-0.2,3.4-0.5c1.4-0.5,2-1.6,2-3.1
		c0-1.1-0.4-2.2-1.3-3.2s-1.7-1.7-2.5-2.2h-17.8c-1.5,0-2.4,0.2-2.8,0.7c-0.4,0.4-0.7,1.2-1,2.4h-1.6v-16H507.4z"/>
	<path class="st0" d="M501,525c1,0.8,1.7,2.2,2,4.1h0.5c0.5-1.3,1-2.2,1.5-2.8c0.9-1,2.2-1.6,3.7-1.6c1.9,0,3.5,0.8,4.8,2.5
		s2.2,3.2,2.8,4.8h0.5c0.9-2.3,2.2-4.1,3.9-5.5c1.7-1.4,3.7-2.1,6.1-2.1c3,0,5.5,1.2,7.5,3.6c2,2.4,3,5.7,3,9.9c0,1.6-0.2,3-0.5,4.3
		c-0.3,1.3-0.6,2.3-0.9,3v8.8h-3.5v-5.4c-0.8,0.9-1.8,1.5-3,2s-2.4,0.7-3.7,0.7c-4.2,0-7-2-8.6-6c-0.8-2.1-1.2-4.7-1.2-7.8
		c0-0.7,0-1.1,0-1.3c0-0.2,0-0.5,0-0.9c-0.1-0.7-0.5-1.3-1-2c-0.6-0.7-1.3-1.1-2.2-1.1c-0.7,0-1.2,0.2-1.6,0.6s-0.6,0.9-0.7,1.5
		c0,0.3-0.1,1-0.1,2.1c0,1.1,0,1.9,0,2.5l-0.1,4.3c0,2.4-0.4,4.5-1.1,6.2c-1.3,3.2-3.6,4.8-7,4.8c-4.3,0-7.3-2.4-8.9-7.2
		c-0.8-2.5-1.3-5.7-1.3-9.5c0-3.1,0.3-5.8,0.9-8.1c1-3.7,2.8-5.6,5.2-5.6C499,523.8,500,524.2,501,525z M495.3,531.9
		c-0.8,1.5-1.2,3.6-1.2,6.4c0,2.5,0.2,4.5,0.6,6.1c0.7,3,2.1,4.5,4.1,4.5c1.2,0,2-0.4,2.6-1.3c0.6-0.9,0.9-2.4,0.9-4.7V532
		c-0.6-0.7-1-1.2-1.4-1.5c-0.7-0.5-1.5-0.8-2.3-0.8C497.2,529.7,496.1,530.4,495.3,531.9z M520.8,534.2c-2,0.7-2.9,1.9-2.9,3.7
		c0,1.7,0.7,2.8,2.2,3.4c1.5,0.6,3.6,0.9,6.4,0.9c3,0,5.2-0.3,6.5-1c1.4-0.7,2-1.8,2-3.4c0-1.8-0.7-2.9-2.2-3.5
		c-1.5-0.6-3.6-0.9-6.4-0.9C524,533.5,522.1,533.8,520.8,534.2z"/>
	<path class="st0" d="M530.9,561.4c1.4,2,2.6,3.5,3.6,4.5c1.8,1.8,3.5,2.7,5.1,2.7c0.4,0,0.8-0.1,1.1-0.3c0.3-0.2,0.4-0.6,0.4-1
		c-0.1-0.7-0.2-1.2-0.2-1.4c0-1.4,0.5-2.6,1.4-3.5c1-0.9,2.2-1.4,3.7-1.4c1.7,0,3,0.5,4.1,1.5c1,1,1.6,2.4,1.6,4.1
		c0,1.9-0.7,3.5-2.1,4.8c-1.4,1.3-3.3,1.9-5.6,1.9c-3.4,0-6.6-1.3-9.4-4c-1.8-1.7-3.5-4-5.2-7.1L530.9,561.4z"/>
	<path class="st0" d="M515.9,577v1.9c-3.2,0.7-5.4,1.9-6.7,3.6c-1.3,1.8-2,3.6-2,5.5c0,1.7,0.4,3,1.2,3.8s1.8,1.2,3,1.2
		c1.2,0,2.2-0.4,3.1-1.3c0.5-0.5,0.9-1.2,1.5-2.3l2.4-4.9c1.3-2.6,2.7-4.5,4.2-5.6c1.5-1.1,3.3-1.7,5.3-1.7c2.6,0,4.8,0.9,6.7,2.7
		c1.9,1.8,2.8,4.3,2.8,7.5c0,1.4-0.2,2.9-0.7,4.5c-0.5,1.6-0.7,2.6-0.7,3c0,0.5,0.1,0.9,0.3,1.2c0.2,0.2,0.5,0.4,1,0.6v1.5h-9.6
		v-1.7c2.3-0.6,4.1-1.7,5.4-3.1s2-3.1,2-5c0-1.5-0.4-2.6-1.2-3.3c-0.8-0.7-1.7-1.1-2.7-1.1c-0.8,0-1.6,0.3-2.3,1
		c-0.8,0.6-1.6,1.8-2.5,3.6l-1.8,3.6c-1.1,2.3-2.1,3.9-3.2,4.9c-1.7,1.7-3.9,2.6-6.4,2.6c-2.5,0-4.8-0.9-6.9-2.7
		c-2.1-1.8-3.2-4.5-3.2-8c0-0.9,0.1-1.8,0.3-2.7c0.2-0.9,0.5-2,1-3.3l0.4-1.1c0.2-0.4,0.2-0.7,0.3-0.8c0-0.1,0-0.2,0-0.4
		c0-0.4-0.1-0.7-0.4-1s-0.8-0.6-1.5-0.9V577H515.9z"/>
	<path class="st0" d="M427.6,195.7c0,2.5,0.5,4.2,1.3,4.9s2.2,1.1,4,1.1h31.6c1.8,0,3-0.4,3.6-1.3c0.6-0.9,0.9-2.4,1.1-4.6h1.7v16.8
		L440,225.8v0.6l30.8,13v16.8h-1.7c-0.2-2.3-0.6-3.8-1.2-4.6c-0.7-0.8-2.3-1.2-4.8-1.2h-29.5c-2.4,0-4.1,0.4-4.8,1.2
		c-0.8,0.8-1.2,2.4-1.3,4.6h-1.7v-22.1h1.7c0.1,2,0.4,3.5,1,4.5s1.9,1.5,3.9,1.5H465v-0.5l-39.2-16.3v-1.8l38.4-16.5v-0.3h-30.1
		c-2.2,0-3.8,0.4-4.9,1.2c-1,0.8-1.6,2.6-1.7,5.5h-1.7v-15.6H427.6z"/>
	<path class="st0" d="M439.2,263.7c1.8,2.9,3.5,7.4,5.3,13.6h4.8c2,0,3.4-0.4,4.4-1.3c0.9-0.8,1.4-2.3,1.4-4.4
		c0-1.2-0.2-2.2-0.7-2.9c-0.4-0.8-1-1.2-1.7-1.2c-0.3,0-0.5,0-0.7,0.1c-0.2,0.1-0.4,0.2-0.6,0.4l-0.5,0.4c-0.4,0.3-0.8,0.5-1.2,0.7
		s-0.9,0.3-1.4,0.3c-1.3,0-2.2-0.4-2.9-1.3s-1-1.8-1-2.9c0-1.3,0.4-2.4,1.1-3.3c0.8-0.9,1.9-1.3,3.3-1.3c2.6,0,4.6,1.2,6.1,3.6
		c1.5,2.4,2.2,5.4,2.2,8.9c0,3.8-0.7,6.9-2.2,9.5c-1.5,2.5-4.2,3.8-8.1,3.8h-16.1c-0.5,0-0.9,0.1-1.2,0.4s-0.5,0.5-0.5,0.8
		c0,0.3,0,0.5,0.1,0.7c0.1,0.2,0.4,0.5,0.8,1l-1.4,1c-1.5-1.3-2.6-2.7-3.2-4.3c-0.4-1-0.6-2-0.6-3.2c0-2,0.6-3.4,1.7-4.3
		c0.7-0.5,1.6-0.9,2.9-1.1c-1.8-1.8-3.1-3.9-3.9-6.2c-0.5-1.4-0.7-2.8-0.7-4.2c0-1.8,0.6-3.5,1.7-5.1c1.2-1.6,3-2.4,5.4-2.4
		C435.1,259.4,437.5,260.8,439.2,263.7z M430.7,275.3c0.4,0.5,1,1.1,1.8,1.9h9.7c-0.4-1.8-1.1-3.3-2.1-4.7c-1.6-2.3-3.6-3.4-6.1-3.4
		c-1.5,0-2.6,0.3-3.3,1c-0.7,0.7-1.1,1.4-1.1,2.2C429.7,273.4,430,274.4,430.7,275.3z"/>
	<path class="st0" d="M427.5,292.1c0.2,1.2,0.5,2.1,1,2.7s1.5,0.9,3,0.9h19.6c1.4,0,2.3-0.2,2.8-0.7c0.5-0.5,0.9-1.4,1-2.8h1.6v12.6
		h-4.8c1.6,1.1,2.9,2.4,4,4c1.1,1.6,1.6,3.5,1.6,5.4c0,2.9-0.7,5.1-2.2,6.7s-4.1,2.4-7.8,2.4h-16.1c-1.5,0-2.5,0.3-2.9,0.8
		s-0.7,1.4-0.9,2.6h-1.6v-15.6h1.6c0.2,1.2,0.6,2,1,2.4c0.4,0.4,1.3,0.7,2.8,0.7h16.1c1.5,0,2.7-0.2,3.4-0.5c1.4-0.5,2-1.6,2-3.1
		c0-1.1-0.4-2.2-1.3-3.2s-1.7-1.7-2.5-2.2h-17.8c-1.5,0-2.4,0.2-2.8,0.7c-0.4,0.4-0.7,1.2-1,2.4h-1.6v-16H427.5z"/>
	<path class="st0" d="M436,329.7v1.9c-3.2,0.7-5.4,1.9-6.7,3.6c-1.3,1.8-2,3.6-2,5.5c0,1.7,0.4,3,1.2,3.8c0.8,0.8,1.8,1.2,3,1.2
		c1.2,0,2.2-0.4,3.1-1.3c0.5-0.5,0.9-1.2,1.5-2.3l2.4-4.9c1.3-2.6,2.7-4.5,4.2-5.6c1.5-1.1,3.3-1.7,5.3-1.7c2.6,0,4.8,0.9,6.7,2.7
		c1.9,1.8,2.8,4.3,2.8,7.5c0,1.4-0.2,2.9-0.7,4.5c-0.5,1.6-0.7,2.6-0.7,3c0,0.5,0.1,0.9,0.3,1.2c0.2,0.2,0.5,0.4,1,0.6v1.5h-9.6V349
		c2.3-0.6,4.1-1.7,5.4-3.1c1.4-1.4,2-3.1,2-5c0-1.5-0.4-2.6-1.2-3.3c-0.8-0.7-1.7-1.1-2.7-1.1c-0.8,0-1.6,0.3-2.3,1
		c-0.8,0.6-1.6,1.8-2.5,3.6l-1.8,3.6c-1.1,2.3-2.1,3.9-3.2,4.9c-1.7,1.7-3.9,2.6-6.4,2.6c-2.5,0-4.8-0.9-6.9-2.7
		c-2.1-1.8-3.2-4.5-3.2-8c0-0.9,0.1-1.8,0.3-2.7c0.2-0.9,0.5-2,1-3.3l0.4-1.1c0.2-0.4,0.2-0.7,0.3-0.8c0-0.1,0-0.2,0-0.4
		c0-0.4-0.1-0.7-0.4-1c-0.3-0.3-0.8-0.6-1.5-0.9v-1.6H436z"/>
	<path class="st0" d="M427.5,355c0.2,1.2,0.5,2,0.9,2.4c0.6,0.7,1.6,1,3.2,1h19.6c1.4,0,2.3-0.2,2.8-0.7c0.5-0.5,0.9-1.4,1.1-2.7
		h1.6v12.8h-25.3c-1.5,0-2.4,0.2-2.8,0.7c-0.4,0.4-0.7,1.2-1,2.4h-1.6V355H427.5z M470.4,359.5c1,1,1.5,2.2,1.5,3.7
		c0,1.4-0.5,2.6-1.5,3.6s-2.2,1.5-3.7,1.5c-1.4,0-2.7-0.5-3.7-1.5s-1.5-2.2-1.5-3.6c0-1.4,0.5-2.7,1.5-3.7c1-1,2.2-1.5,3.7-1.5
		C468.1,358,469.4,358.5,470.4,359.5z"/>
	<path class="st0" d="M452.7,378.2c3.1,2.9,4.7,6.4,4.7,10.7c0,4.4-1.6,8-4.7,10.8c-3.2,2.8-7,4.2-11.5,4.2c-4.4,0-8.3-1.4-11.5-4.2
		c-3.2-2.8-4.8-6.4-4.8-10.9c0-4.3,1.6-7.9,4.7-10.8s7-4.3,11.6-4.3C445.8,373.9,449.6,375.4,452.7,378.2z M431.3,384.4
		c-2.9,0.8-4.3,2.3-4.3,4.5c0,2.1,1.1,3.6,3.3,4.2c2.2,0.7,5.8,1,10.8,1c5,0,8.6-0.4,10.8-1.1c2.2-0.7,3.3-2.1,3.3-4.1
		c0-2.3-1.4-3.8-4.3-4.5c-1.9-0.5-5.2-0.7-9.8-0.7C436.5,383.7,433.2,384,431.3,384.4z"/>
	<path class="st0" d="M427.5,406.8c0.2,1.2,0.5,2.1,1,2.7c0.5,0.6,1.5,0.9,3,0.9h19.6c1.4,0,2.3-0.2,2.8-0.7c0.5-0.5,0.9-1.4,1-2.8
		h1.6v12.6h-4.8c1.6,1.1,2.9,2.4,4,4c1.1,1.6,1.6,3.5,1.6,5.4c0,2.9-0.7,5.1-2.2,6.7c-1.5,1.6-4.1,2.4-7.8,2.4h-16.1
		c-1.5,0-2.5,0.3-2.9,0.8c-0.4,0.5-0.7,1.4-0.9,2.6h-1.6v-15.6h1.6c0.2,1.2,0.6,2,1,2.4c0.4,0.4,1.3,0.7,2.8,0.7h16.1
		c1.5,0,2.7-0.2,3.4-0.5c1.4-0.5,2-1.6,2-3.1c0-1.1-0.4-2.2-1.3-3.2c-0.8-1-1.7-1.7-2.5-2.2h-17.8c-1.5,0-2.4,0.2-2.8,0.7
		c-0.4,0.4-0.7,1.2-1,2.4h-1.6v-16H427.5z"/>
</g>
</svg>
