<?xml version="1.0" encoding="utf-8"?>
<!-- Generator: Adobe Illustrator 22.1.0, SVG Export Plug-In . SVG Version: 6.00 Build 0)  -->
<svg version="1.1" id="图层_1" xmlns="http://www.w3.org/2000/svg" xmlns:xlink="http://www.w3.org/1999/xlink" x="0px" y="0px"
	 viewBox="0 0 800 800" style="enable-background:new 0 0 800 800;" xml:space="preserve">
<style type="text/css">
	.st0{fill:#660A0A;}
</style>
<g>
	<path class="st0" d="M550.4,292c-9.4,0.8-16.4,9.1-16.4,18.6v142.2c0,3.6-2.9,6.6-6.6,6.6h-49.6c-3.5,0-6.4-2.7-6.6-6.2L458,201.7
		c3.4-6.5,5.6-13.7,6.5-21.3l78.1,0c4.7,0,8.7,3.3,9.7,7.8c0.9,4.4,1.4,8.9,1.4,13.5c0,4.6-0.5,9.1-1.4,13.5c-1,4.6-5,7.8-9.7,7.8
		h-21.8h-23h-3.2c-5.4,0-9.9,4.4-9.9,9.9l0,175.1c0,9.5,7,17.8,16.4,18.6c10.7,0.9,19.7-7.5,19.7-18V265.7c0-3.6,2.9-6.6,6.6-6.6
		h27.3h1.2c20.2-11.2,33.9-32.7,33.9-57.5c0-23.9-12.8-44.9-32-56.4c-1.2-0.7-2.7-1.1-4.1-1.1l0,0h-34h-62.5
		c-7.5-13.4-19.9-23.6-34.8-28.3V88.4l140.6,0c10.6,0,19.8-8.2,20.3-18.8c0.5-11.3-8.5-20.6-19.7-20.6l-317.9,0
		c-10.6,0-19.8,8.2-20.3,18.8c-0.5,11.3,8.5,20.6,19.7,20.6h141.2v27.5c-14.9,4.7-27.3,14.9-34.8,28.3h-62.5h-34l0,0
		c-1.5,0-2.9,0.4-4.1,1.1c-19.2,11.5-32,32.4-32,56.4c0,24.7,13.7,46.3,33.9,57.5h1.2h27.3c3.6,0,6.6,2.9,6.6,6.6l0,142.2
		c0,9.5,7,17.8,16.4,18.6c10.7,0.9,19.7-7.5,19.7-18V232.9c0-5.4-4.4-9.9-9.9-9.9h-3.2h-23h-21.8c-4.7,0-8.7-3.3-9.7-7.8
		c-0.9-4.4-1.4-8.9-1.4-13.5c0-4.6,0.5-9.1,1.4-13.5c1-4.6,5-7.8,9.7-7.8l78.1,0c0.8,7.2,2.8,14,5.9,20.1l-13.2,252.7
		c-0.2,3.5-3.1,6.2-6.6,6.2h-49c-3.6,0-6.6-2.9-6.6-6.6V310.6c0-9.5-7-17.8-16.4-18.6c-10.7-0.9-19.7,7.5-19.7,18v175.7
		c0,5.4,4.4,9.9,9.9,9.9h6.8h19.4h59.9h14.8h12c5.2,0,9.6-4.1,9.8-9.3L384.4,231c0,0,0,0,0,0l2-37.7c0.1-1.6-0.5-3.2-1.5-4.5
		c-4.2-5.4-6.3-12.5-4.7-20.1c2-9.8,9.9-17.5,19.7-19.1c15.4-2.6,28.8,9.2,28.8,24.1c0,6-2.2,11.4-5.7,15.7c-1.1,1.3-1.7,3-1.6,4.7
		l1.9,37.1c0,0,0,0,0.1,0l13.4,255c0.3,5.2,4.6,9.3,9.8,9.3h11.3h15.6h60.5h19.7h6.6c5.4,0,9.9-4.4,9.9-9.9V310
		C570.1,299.5,561.1,291.1,550.4,292z"/>
	<g>
		<g>
			<path class="st0" d="M208.7,646c4.6-0.5,7.5-1.5,8.8-3.1c1.3-1.6,1.9-5.3,1.9-11.1v-44.7c0-4-0.6-6.6-1.9-7.8
				c-1.3-1.2-4.1-1.9-8.6-2.1v-2h21.7L256,630l24.7-54.9h21.9v2c-4.1,0.3-6.7,1-7.9,2.2c-1.2,1.2-1.8,3.8-1.8,7.7v49
				c0,4,0.6,6.6,1.8,7.7c1.2,1.1,3.8,1.9,7.9,2.2v2h-30.8v-2c4.4-0.4,7.2-1.2,8.3-2.4c1.1-1.2,1.6-4.2,1.6-8.8v-49.4L253.5,648H252
				l-27.7-60.1v43.9c0,6,0.9,9.9,2.6,11.8c1.1,1.2,3.7,2,7.7,2.4v2h-25.9V646z"/>
		</g>
		<g>
			<path class="st0" d="M327.4,598.2v1.4c-2.8,0.2-4.7,0.7-5.5,1.4c-0.8,0.8-1.3,2.5-1.3,5.2v23.6c0,3.9,0.5,6.9,1.6,9
				c2,3.9,5.7,5.9,11.2,5.9c6,0,10.1-2,12.1-6c1.2-2.3,1.7-5.7,1.7-10.4v-19.2c0-4-0.5-6.5-1.4-7.5s-2.8-1.7-5.5-1.9v-1.4h17v1.4
				c-2.9,0.3-4.7,1-5.6,2.1c-0.9,1.1-1.3,3.5-1.3,7.4v19.2c0,5.1-0.8,9.1-2.3,11.9c-2.9,5.3-8.3,7.9-16.4,7.9
				c-8,0-13.4-2.6-16.3-7.8c-1.6-2.8-2.3-6.4-2.3-11v-23c0-2.7-0.4-4.4-1.2-5.2c-0.8-0.8-2.6-1.2-5.4-1.5v-1.4H327.4z"/>
		</g>
		<g>
			<path class="st0" d="M363.9,632.5c1.2,3.2,2.7,5.8,4.3,7.8c2.9,3.4,6.4,5,10.7,5c2.3,0,4.3-0.7,6-2.2c1.7-1.5,2.5-3.5,2.5-6.1
				c0-2.4-0.8-4.4-2.5-6.1c-1.1-1.1-3.4-2.8-7-5l-6.2-3.8c-1.9-1.2-3.3-2.4-4.4-3.6c-2-2.3-3.1-4.8-3.1-7.5c0-3.6,1.2-6.7,3.6-9.1
				s5.6-3.6,9.6-3.6c1.6,0,3.6,0.4,5.9,1.2s3.6,1.2,4,1.2c0.9,0,1.5-0.2,1.9-0.6c0.3-0.4,0.6-1,0.8-1.8h1.5l1.6,15.4h-1.7
				c-1.2-4.6-3.1-7.9-5.7-9.7c-2.6-1.8-5.2-2.8-7.7-2.8c-2,0-3.7,0.6-5.2,1.7c-1.5,1.2-2.2,2.8-2.2,4.9c0,1.9,0.6,3.4,1.7,4.8
				c1.1,1.3,2.9,2.7,5.3,4.2l6.3,3.9c4,2.4,6.8,4.7,8.4,6.7c1.6,2.1,2.4,4.5,2.4,7.3c0,3.8-1.4,6.9-4.3,9.5c-2.9,2.5-6.5,3.8-11,3.8
				c-2.2,0-4.6-0.4-7-1.3c-2.4-0.8-3.8-1.3-4.2-1.3c-0.8,0-1.4,0.3-1.7,0.8c-0.3,0.5-0.5,1.1-0.6,1.7h-1.6l-2.2-15.4H363.9z"/>
		</g>
		<g>
			<path class="st0" d="M399,646.6c2.8-0.3,4.6-0.8,5.4-1.5s1.2-2.5,1.2-5.3v-33.5c0-2.7-0.4-4.4-1.2-5.2c-0.8-0.8-2.6-1.3-5.4-1.5
				v-1.4h40l0.3,10.8h-1.9c-0.6-3.3-1.6-5.5-2.9-6.4c-1.3-1-4.1-1.5-8.5-1.5h-10.2c-1.1,0-1.8,0.2-2,0.5c-0.3,0.4-0.4,1-0.4,2v16.8
				h11.6c3.2,0,5.3-0.5,6.1-1.4c0.9-1,1.6-2.9,2.1-5.8h1.8v17.4h-1.8c-0.6-2.9-1.3-4.8-2.2-5.8c-0.9-0.9-2.9-1.4-6.1-1.4h-11.6V642
				c0,1.5,0.5,2.4,1.4,2.6c0.9,0.3,3.8,0.4,8.5,0.4c5.1,0,8.9-0.6,11.3-1.7c2.4-1.1,4.6-3.8,6.5-8.1h2.1l-3.4,12.7H399V646.6z"/>
		</g>
		<g>
			<path class="st0" d="M464.4,598.2v1.4c-2.8,0.2-4.7,0.7-5.5,1.4c-0.8,0.8-1.3,2.5-1.3,5.2v23.6c0,3.9,0.5,6.9,1.6,9
				c2,3.9,5.7,5.9,11.2,5.9c6,0,10.1-2,12.1-6c1.2-2.3,1.7-5.7,1.7-10.4v-19.2c0-4-0.5-6.5-1.4-7.5s-2.8-1.7-5.5-1.9v-1.4h17v1.4
				c-2.9,0.3-4.7,1-5.6,2.1c-0.9,1.1-1.3,3.5-1.3,7.4v19.2c0,5.1-0.8,9.1-2.3,11.9c-2.9,5.3-8.3,7.9-16.4,7.9
				c-8,0-13.4-2.6-16.3-7.8c-1.6-2.8-2.3-6.4-2.3-11v-23c0-2.7-0.4-4.4-1.2-5.2c-0.8-0.8-2.6-1.2-5.4-1.5v-1.4H464.4z"/>
		</g>
		<g>
			<path class="st0" d="M497.4,646c4.6-0.5,7.5-1.5,8.8-3.1c1.3-1.6,1.9-5.3,1.9-11.1v-44.7c0-4-0.6-6.6-1.9-7.8
				c-1.3-1.2-4.1-1.9-8.6-2.1v-2h21.7l25.3,54.9l24.7-54.9h21.9v2c-4.1,0.3-6.7,1-7.9,2.2c-1.2,1.2-1.8,3.8-1.8,7.7v49
				c0,4,0.6,6.6,1.8,7.7s3.8,1.9,7.9,2.2v2h-30.8v-2c4.4-0.4,7.2-1.2,8.3-2.4c1.1-1.2,1.6-4.2,1.6-8.8v-49.4L542.2,648h-1.5
				L513,587.9v43.9c0,6,0.9,9.9,2.6,11.8c1.1,1.2,3.7,2,7.7,2.4v2h-25.9V646z"/>
		</g>
		<g>
			<path class="st0" d="M336,566.3h19.2l0.2,5.8h-0.8c-0.4-1.8-0.9-3-1.5-3.5c-0.6-0.5-1.9-0.8-3.9-0.8h-1.9v17.4
				c0,1.3,0.2,2.1,0.6,2.4c0.4,0.3,1.3,0.5,2.7,0.6v0.6h-9.9v-0.6c1.4-0.1,2.3-0.3,2.7-0.7s0.5-1.3,0.5-2.7v-17H342
				c-1.9,0-3.2,0.3-3.8,0.8c-0.7,0.5-1.2,1.7-1.5,3.6h-0.8L336,566.3z"/>
			<path class="st0" d="M356.6,588.2c1.4-0.1,2.3-0.3,2.7-0.6c0.4-0.3,0.6-1.1,0.6-2.4V570c0-1.3-0.2-2.1-0.6-2.4
				c-0.4-0.4-1.3-0.6-2.7-0.6v-0.6h10.1v0.6c-1.4,0.1-2.3,0.3-2.7,0.6c-0.4,0.4-0.6,1.2-0.6,2.4v15.1c0,1.3,0.2,2.1,0.6,2.4
				c0.4,0.3,1.3,0.5,2.7,0.6v0.6h-10.1V588.2z"/>
			<path class="st0" d="M367.9,588.8v-0.6c0.9-0.1,1.5-0.4,2-1c0.4-0.6,1.2-2.1,2.2-4.6l7.1-16.7h0.7l8.5,19.3
				c0.6,1.3,1,2.1,1.4,2.4c0.3,0.3,0.9,0.5,1.7,0.6v0.6h-8.6v-0.6c1-0.1,1.6-0.2,1.9-0.3c0.3-0.1,0.4-0.4,0.4-0.9
				c0-0.2-0.1-0.5-0.2-0.9c-0.1-0.4-0.3-0.9-0.5-1.3l-1.4-3.3h-9c-0.9,2.2-1.4,3.6-1.6,4.1c-0.2,0.5-0.3,0.9-0.3,1.2
				c0,0.6,0.2,1,0.7,1.2c0.3,0.1,0.8,0.2,1.6,0.3v0.6H367.9z M382.5,580.1l-3.9-9.4l-3.9,9.4H382.5z"/>
			<path class="st0" d="M392.3,588.2c1.4-0.1,2.3-0.5,2.7-1s0.6-1.6,0.6-3.4v-15l-0.5-0.5c-0.5-0.6-0.9-0.9-1.3-1.1
				c-0.3-0.1-0.9-0.2-1.6-0.2v-0.6h5.8l13.1,16.3v-11.3c0-1.9-0.3-3.1-0.8-3.6c-0.4-0.4-1.2-0.6-2.4-0.7v-0.6h8v0.6
				c-1.3,0.1-2.2,0.4-2.6,0.9c-0.4,0.5-0.6,1.6-0.6,3.4v17.9h-0.6l-15-18.6v13.2c0,1.9,0.3,3.1,0.8,3.6c0.4,0.4,1.1,0.6,2.4,0.7v0.6
				h-8V588.2z"/>
			<path class="st0" d="M417.3,585.5c0.3-0.3,0.7-0.4,1.1-0.4c0.8,0,1.3,0.5,1.7,1.4s0.8,1.4,1.2,1.4c0.4,0,0.7-0.2,0.9-0.6
				c0.2-0.4,0.3-1.1,0.3-2V570c0-1.3-0.2-2.1-0.6-2.4c-0.4-0.4-1.3-0.6-2.5-0.6v-0.6h9.8v0.6c-1.3,0.1-2.2,0.3-2.6,0.7
				c-0.4,0.4-0.6,1.2-0.6,2.3v12.5c0,2.3-0.5,4-1.6,5.1c-1.1,1.1-2.5,1.7-4.1,1.7c-1.1,0-1.9-0.2-2.5-0.7c-0.6-0.5-0.9-1-0.9-1.6
				C416.8,586.2,417,585.8,417.3,585.5z"/>
			<path class="st0" d="M430.3,588.2c1.4-0.1,2.3-0.3,2.7-0.6c0.4-0.3,0.6-1.1,0.6-2.4V570c0-1.3-0.2-2.1-0.6-2.4
				c-0.4-0.4-1.3-0.6-2.7-0.6v-0.6h10.1v0.6c-1.4,0.1-2.3,0.3-2.7,0.6c-0.4,0.4-0.6,1.2-0.6,2.4v15.1c0,1.3,0.2,2.1,0.6,2.4
				c0.4,0.3,1.3,0.5,2.7,0.6v0.6h-10.1V588.2z"/>
			<path class="st0" d="M441.4,588.2c1.4-0.1,2.3-0.5,2.7-1s0.6-1.6,0.6-3.4v-15l-0.5-0.5c-0.5-0.6-0.9-0.9-1.3-1.1
				c-0.3-0.1-0.9-0.2-1.6-0.2v-0.6h5.8l13.1,16.3v-11.3c0-1.9-0.3-3.1-0.8-3.6c-0.4-0.4-1.2-0.6-2.4-0.7v-0.6h8v0.6
				c-1.3,0.1-2.2,0.4-2.6,0.9s-0.6,1.6-0.6,3.4v17.9h-0.6l-15-18.6v13.2c0,1.9,0.3,3.1,0.8,3.6c0.4,0.4,1.1,0.6,2.4,0.7v0.6h-8
				V588.2z"/>
		</g>
	</g>
	<path class="st0" d="M258.7,697.3h1.7l9.9-5.6l3.1-1.3l3.5-1.5l3.5-1.8l3.6-2l3.2-1.7l1.4-0.8l2.5,0.3l3.4,0.7l2,0.8l1,0.8v1.1
		l-1.4,1.4l-2,1.8l-1.7,1.3l-1.3,1l-2.1,1.1l-1.1,0.8l-1.7,0.4l-2.2-0.4h-1.7l-1,0.4l-1.4,1l-0.7,1.8v2l1,1.1l1.4,0.3l1.7,0.3l1.1-1
		l1.1-1.7l0.8-1.3l2-0.6l2.1-0.6l2.7-0.1h1.7l1.4,0.8l1,0.8v1.3l-0.4,1.1c0,0-9.2,4.1-14.4,9v5.7c0,0,10.6,4.3,13.3,9.4h5.5l3.2,0.3
		l1.7,0.7l0.8,1.4l0.4,1.7l-2.7,2.8h-10.4c0,0-8.1-10.4-12.5-11.3l-1.8-0.7l-1.3,0.4l-0.6,0.8l-0.4,3.2l-0.4,2.4l-1.5,2.5l-1.8,2
		l-2,1.8l-4.2,3.5l-2.7,1.4l-2.4,1l-3.4,0.8l-2.5-0.3l-0.7-1.3v-2.1l0.8-1.8l1.3-2.2l0.7-0.8l1-1.3l2-1.7l1.5-1.5l1.1-1.3l0.3-1.3
		l-0.7-0.8l-1-0.1l-1.1,1.4l-1.7,1.7l-1.5,1.1l-1.3,1.8l-1.4,0.1l-1.8-0.4l-1.7-1.7l-1.4-1.4l-0.3-2l0.7-1.4l1.5-0.7l1.3-0.6l2.8-1
		l1.5-1.3l2.5-1.8l3.2-2.1l2.9-2.4l1.7-0.6l1.4-1.8l1.1-1.5l-0.1-1.7l-1.1-0.7l-2.9-0.4l-1.8-0.6l-1.8-0.8l-1.7-0.8l-1.8-1.3
		l-1.7-1.4l-0.3-1.4L258.7,697.3z"/>
	<g>
		<polygon class="st0" points="317.5,705.7 318.4,706.9 319.4,706.9 319.4,704.6 319.7,702.1 321.3,699.5 322.8,696 324.4,693.8 
			325.6,690.9 325.6,689.3 324.2,686.9 321.6,684.7 319.7,683.5 318.4,682.8 316.6,685.4 316.6,692.9 316.6,697.6 317,704 		"/>
		<path class="st0" d="M355.6,694.1l-0.7-1.9l1.7-1.6l1.7-1.9l0.9-3.3l-0.9-3.3l-1.4-0.9l-3.3-0.3H352h-1.4l-0.3-2.1l-1.2-2.2
			l-1.7-1.7l-1.9-2.8h-2.2l-1,1.2l-0.3,2.4l0.3,2.6l-0.3,3.1l-0.3,1.9l-1.7,1l-2.1,1.7l-2.2,1.9l-1.7,1.9l-1.6,2.1l-1.2,1.4
			l-0.7,1.4l0.2,2.6l0.7,1.4l1.7,0.3l1.6-1l1.2-1l1.2-2.6l1.1-1.6l0.8-2.2l0.5-1.2l1.2,0.3l0.5,1.2l-0.2,1.9l-0.5,4.3v1.6l-0.5,1.6
			l-6.2,4.1l-3.4,2.1l-3.6,2.2l-2.6,0.7l-0.2,2.2l0.7,2.5l0.5,1.4l-0.7,1.9l-1,1l-1.2-1l-0.5-2.2l-0.7-2.6l-1.2-1.2l-1.4-0.5l-1,0.9
			l-0.5,2.2v2.6v4.3v4.7l0.3,4l0.8,1.7l1,2.6l1.2,0.9h2.1l1.2-0.7l0.9-2.9l0.7-2.2l0.9-1.7l0.9-5.3l1.2-1.7l1.4-1.6l0.7-1.9
			l-0.9-3.3l2.6-1l3.4-2.6l2.2-1.4l1.4-0.5l0.5,1.6l-1.4,1.2l-1.4,0.9l-0.9,1.2l-0.5,3.3v3.3v2.6l1.6,0.7l1.4,0.5l-0.2,1.7l-0.3,1.6
			l-2.2,1l-1.7,0.9l-1.6,1l-0.7,1.4v1.7l0.5,1.9l0.9,1.2l1.6,0.3l1.6-0.5l1.9-0.7l1.6,0.9l-0.5,1.6l0.2,4.8l0.3,2.8v2.8l0.3,2.6
			l1.2,1.2h2.1l0.7-3.1l0.3-5.5l0.7-3.4l0.5-4.3l0.5-5.3l1.2-2.2l2.1-0.7l2.1-1l1.2-1.7l1-0.7l1.2-1.2l-1-1h-2.1l-0.2-1.4l0.7-1.4
			l1.2-1.9l0.2-1.7l-1.6-0.7l-1.7-0.2l-1.2-1.4l1.2-1l1.4-1.4l-0.3-1.4h-2.1l-1-2.3l0-0.1l1.7-0.5l1.7-0.9l2.1-0.9l3.1-2.6l2.1-1.9
			l0.9-2.9l-1-1.9L355.6,694.1z M353.2,689.1l-2.2,1.9l-1.4,1.7l-1.4,1.2h-1.7v-2.6V690l1-0.9l1.4-2.1l1.2-0.7l1.6-1l1.7-0.3h1.4
			l0.3,1.6l-0.5,1.6L353.2,689.1z"/>
	</g>
	<path class="st0" d="M428.8,715.2c-1.3,0-9.3,0-9.3,0l0.1-4.6l1-1.1c0,0,4-8.8,3.3-13.1c-0.7-4.3-2.6-2.9-2.6-2.9l0.1-3.4l1.1-1
		l1.5-2.6l2-2.5l1.1-1.9l0.5-1.8l1-0.5l0.2-1.4l-1-1.8l-1.4-1l-1.5-1.4c0,0-0.8-0.1-1.3,0c-0.5,0.1-0.7,1.1-0.7,1.1v1.4v1.5
		l-0.6,1.4l-1.3,2.5l-1.1,0.5l-0.8-1.3l-1.1-0.1l-2-0.2l-1.4,0.2l1.1-6.7l0.4-3.9l0.1-1.8l-0.1-2.5c0,0-1-0.8-1.3-0.8
		c-0.4,0-2,0.1-2,0.1l-1.3,0.2l-0.8,1.1v2.1l-0.5,5.2L410,676l-0.4,3.4l-0.2,1.9c0,0-13.4,2.7-17.8,16.9v-8.7l-1.3-1.2l-1.1,0.1
		l-0.5,0.7l-0.2,3l-0.8,5.3l-0.7,1.4l-1.1,0.4l-0.5-2.3l0.5-2.3l0.7-2.5l-0.2-2.4l0.1-2.5l-1.2-0.8l-2.3,0.1l-0.8,1.2l-0.6,1.5
		l0.1,2.3v3.9l-0.2,4.5l-0.2,1.4l-1,0.2l-1.5,0.5l-1.4,0.4l-1.4,0.2l-1.5,0.2l-2.1-1.3l-1.5-0.5l-1.5,0.7l-0.4,1.5v1.8l0.2,1.4
		l0.8,0.7l0.8,0.2l0.9,0.5l0.8,1.1l0.4,1.2l1.3-0.4l0.2-1.1l0.7-0.6h1.1l1.3-0.4l1.3-0.5l1.1-0.6h0.8l0.2,1l-0.8,7.5
		c0,0-2,19.5-1.1,23.4c1,3.9,2.5,6.9,3.6,7.5c1.1,0.6,3.6,1.5,3.4-2.4c-0.1-3.9,1.1-30.5,9-44.5s13.1-13.8,13.1-13.8v5.9
		c0,0-11.6,4.4-14.1,16.5c-0.7,4.8,4.3,7.8,4.3,7.8l1.5,0.1l0.8-0.5l0.7-2.5v-1.5l-1.2-1.2l-0.8-1.1l0.7-1.8l0.8-1.4l1.1-1.2
		l0.8-0.8l1.3-1l1.5-0.2l0.7,0.5l0.2,1.5l-0.1,1.5l-0.6,1.8l-1.5,1.4l-1.5,0.4l-0.2,1.4v1.9v1.4l-0.8,1.2l-1.9,2.5l-1.1,1.7
		l-1.9,2.5l-1.1,1.2l-1.2,1.4l-1.3,0.5l-1.3,0.4l-0.5,1.7l-0.1,2.3l0.4,2l1,1.9l2-0.1l1.4-0.8l1.8-1.1l1.7-1l2.9-0.8l0.8,0.1
		l0.1,1.3l0.5,1.3l1.4,0.2v1.3l-0.2,1.3l-1.1,0.6l-0.5,1l0.4,1.5l0.6,1.3l1.3,1.1l1.4,0.7l2,1l2.3-0.1l0.5,0.8l0.6,0.7l0.6,0.7
		l2.3,0.4h1.4c0,0,2.9-0.2,3.4-5.2c0.6-5,0.8-18.1,0.8-18.1l1.8-0.2c0,0,5.6-1.1,6.9-3.2C430.9,716.4,430.2,715.2,428.8,715.2z
		 M388.6,702.8l-0.2,1.9c-1.9,2.6-3.6,15-3.6,15l-1,1.1l-0.1-2.3l0.1-4.2l0.4-2.7l0.1-1.5l0.7-4.2c1.2-1.4,3.6-5.2,3.6-5.2V702.8z
		 M403.7,723.3l-0.5,0.8l-1.4,0.5l-1,0.7h-1.7l0.1-1.2l0.6-1.7l2.1-2.5l0.7-0.5l1.3-0.4l0.2,1.9l0.1,1.3L403.7,723.3z M412.7,688
		l0.6-0.8l1-0.5l1.4,0.4l0.7-0.7l0.7-0.6l1.7,0.1l1,1.7l-1.2,1.7l-1,1l-1.2,0.2l-2.1,0.2l-1.2-0.2l-0.6-1.2L412.7,688z M414.8,695.7
		l-0.7,1l-1-0.1l0.4-1.4l0.9-0.4L414.8,695.7z M410.3,737.4l-0.2-1.7l0.5-1.1l0.5-0.7l0.1-1.3l0.4-1.4l-0.8-1.2l-0.9-0.1l-1.5-0.2
		l-1-1l-0.4-1.3c0,0,4.6-0.8,6.4-2.4h0.8C414.2,725.1,415.7,736.8,410.3,737.4z M415.1,718.6l-1.4,0.2l-1.9,0.7l-0.7,1l-1.3,1
		l-1.1-0.5l-0.8-1.1l0.2-1.5l1.1-1.3l1.2-0.8h1.5l1.4-0.5h1.3l0.8,1.8L415.1,718.6z M417.9,704.9l-0.7,2.3l-0.5,1.5l-0.7,1.5
		l-1.3,0.5l-1.3,0.2l-1-0.8l0.1-2.3l0.4-1.7l0.1-1.7l0.6-1.8l1.1-1.3l0.7-1.4l1-1l0.8-1.1l0.4-1.5h1.4l0.8,1v1.4l-1,4.3L417.9,704.9
		z"/>
	<path class="st0" d="M486.2,702.8c-3.3-3-12-0.1-12-0.1s-3.1,0.1-1-2.5c2.1-2.7,9.3-15.1,5.4-16.8c-3.9-1.8-7.4,3.7-9.9,6.6
		s-6.4,7.8-6.4,7.8l-1.2,0.6l-0.4-0.9l0.7-1.8l0.1-1.9l0.2-1.6l0.1-2v-1l0.4-1.3l0.4-2.3l0.4-2.6c0,0-0.4-4.2-4.9-1.8
		c-4.4,2.4-3.1,4.4-2.3,6.3c0.8,1.9,0.2,9.7,0.2,9.7l-4.4,5.4l-1.1,0.8l-1.6,0.1l-0.3-1.9l0.3-1.7l0.9-0.6l0.9-1l1.3-1.1l0.2-1.6
		c0,0,0.4-5.7-0.4-7.3c-0.9-1.7-2.3-5.9-3.3-4.5l-1,1.3l-1.3,2.1l-1.1,1.6l-0.4,2.3l-0.7,2.9v4.8v2.5l0.2,2.3l0.9,1.2l0.7,1.7
		l1.9,1.1l1.4,0.2l2.4-0.6l1.6-0.8l0.9-0.2l0.1,1c0,0-12.7,15.7-18.3,18.3l-1.2,1c0,0-3.1,5.9,4,4.9c7-4,12.7-2.1,14.1-1.2
		c1.3,0.9,4.5,3.7,5.8,1.2c0.3-3.3,0.3-17.3,0.3-17.3l0.4-2l0.6-4.9l13-18.3l1-0.9l0.9,0.4l-0.4,0.9l-1.1,2.5l-1.1,2.8l-2,3.1
		l-1.3,2.9l-1.4,2.2l-2,1.2l-0.3,1.3l0.1,1.8l0.2,1.6l1.1,0.9l1.2,0.7l1.3-0.1l1.6-0.8l1.8-1.4l1.1-0.9l2-0.8l1.3-0.4l1.2-0.4l2,0.1
		l1.3,0.4l0.6,1.2l-0.1,2l-0.2,3.5l-0.9,3.1c0,0-3,10.5-4.5,12c-2,0.3-4.2,0.2-4.2,0.2l-0.2-1.3l1.1-2.3l0.9-1.8l0.8-2l0.6-1.4
		c0,0,2.7-5.9-1.2-6.9s-13-1.8-13.3,4.9c0,5,1.2,4.2,2.5,5.1c3,1.7,1.8,6,1.4,6.4c-0.3,0.4-2.5,2.7-4.4,3.2
		c-1.9,0.6-0.2,2.9,2.2,2.1c3.1-2,7.3-3.5,11.6-1c4.3,2.5,7-1.8,8.3-4.8S492.2,708.2,486.2,702.8z M455.1,722.4v1.2
		c0,0-0.1,0.9-0.6,1.2c-0.4,0.3-1.6,0.9-1.6,0.9l-1.3,0.3l-1.8-0.2l-1-0.1l-0.1-1.3l0.7-1.6l0.6-1l1-1.7l0.7-1l1-1.3l0.7-0.9
		l0.9-0.3l0.7,0.1l0.3,0.9l0.1,2.7L455.1,722.4z M469.3,720.5l-0.3,1.4l-0.6,2l-0.8,1l-0.7-1V722v-2.2l1.3-0.3h1V720.5z"/>
	<g>
		<path class="st0" d="M508.6,709.7l1.3-0.8l0.5-2.8l1.1-3.3l0.5-1.6l1.1-1.7l0.8-1.9l2.1-2.4l1.7-1.6h1.3l0.9,0.8l-1.1,1.3
			l-0.5,1.1l1.6,0.3l2.7-1.1c0,0,4.3-4.3,0-6.2l-3-0.3l-0.5-1.4l0.9-1.4l1.4-1.4l1.7-0.9l0.9-0.9l-1.4-1.6l-1.1-2.1l-0.5-1.7
			c0,0-1.3-3.2-3.9-1.1l-0.9,0.9l-0.2,1.4c0,0,0.6,1.9-0.6,2.5l-6.3,13.6l-0.5,3.2l-3.9,9c0,0-7.4,6.8-8.7,14.7
			c-1.3,7.9,2.7,5.5,5.5,2.8c2.8-2.7,4.7-8.4,5.2-10.4c0.5-2.1,1.4-2.7,1.4-2.7L508.6,709.7z"/>
		<polygon class="st0" points="515.8,703.1 515.5,704.2 515.9,704.8 516.7,704.8 517.8,704.2 518.8,703.4 520.3,702.4 521.2,701.7 
			521.8,700.8 521.7,699.8 521.4,699.2 520.4,698.9 519.5,698.9 518.8,698.8 518.2,698.3 517.7,697.9 517.2,697.6 516.6,697.6 
			515.9,697.6 515.3,698.1 514.8,699.6 514.9,700.1 515.4,700.4 515.8,700.4 516,700.9 515.8,702.3 		"/>
		<path class="st0" d="M533,685.4c0.6,0.3,1.9,1.4,1.9,1.4v1.4l-0.3,1.7l-0.2,1.7h1.6l1.1-1.3l0.3-1.7l0.9-1.4l1.6-0.8l1.1-0.8v-2.2
			l-1.7-1.4L538,681l-2.1-0.9h-2h-1.6l-1.6,0.6v2.8l0.6,1.5C531.4,685.1,532.3,685.1,533,685.4z"/>
		<path class="st0" d="M547,687.5c-4.6,0.9-13.1,10.1-13.1,10.1l-0.9-1.9l-1.3-2.1l-0.9-1.3l-1.1,0.5l-0.8,1.4l-0.6,1.3l-0.8,1.7
			l-1.4,1.1l-1.6,1.1l-0.6,1.4l0.3,3.3l-0.9,0.6l-0.6-1.7l-0.9,0.3l-2.1,0.9l-2.2,1.6l-1.7,1.4l-1.6,0.9l-2.1,1.3c0,0-2.4,1.1-2.2,3
			c0.2,1.9,0.9,0.9,1.3,2.2s0.6,5.1,0,6.3s-4.9,6.8-1.7,10.4c3.2,3.6,4.7,0.6,6.2,0s3.5-1.7,3.5-1.7s1.9-2.1,1.7-3s0.9-0.9,2.4,0
			c1.4,0.9,2.7,0.8,2.7,0.8l1.1-0.2l0.5-1.4h0.9l0.9,0.8l1.3,0.6v2.9c0,0,0.3,3.2,1.4,3.5s3.6,0.3,4.7,0s1.9-0.6,1.9-1.7
			s0-1.1,0-1.1l-1.3-1.7l1.3-0.2l1.4-0.2l0.5,1.1v1.1l2.2,0.6l1.7-0.3l0.8-0.9l2.1-0.6l1.6-0.6c0,0,2.2-4.1-0.8-4.7l-4.9-0.2
			l-0.3-2.1l1.7-0.6l2.1-1.1c0,0,4.1-2.7,0-5.1H545l-0.9-1.3l-1.1-0.5l0.2-1.1l-0.2-0.9l1.1-0.3h1.7l1.6-0.6l0.9-1.1V708l-2.1-0.8
			l0.2-1.3v-2.5l-1.3-1.1c0,0-0.8-0.5-1.4-0.4s-2.4,0-2.4,0l-2.5,0.7l-1.7,0.6l4.6-3c0,0,8.7-4.6,10.1-7.4
			C553.2,690,553.3,686.7,547,687.5z M515.1,713.7l0.6-0.2l0.4,0.1l0.6-0.1l0.4,0.3l0.2,0.3l0.1,0.4l0,0.4l0,0.4l-0.2,0.3l-0.2,0.3
			h-0.5h-1.4l-0.3-0.9L515.1,713.7z M519.5,723.8l-0.8,0.8l-1.1,0.6l-0.8,0.6l-1.3,0.2l-0.6-0.4l-0.2-1.4v-1.3l0.6-0.5v-1l-0.2-1.1
			c0,0-0.5-1.4,0.3-1.3c0,0,3.1-0.4,4.1,3.5L519.5,723.8z M521,709.4l-0.8,1.2l-1.2-0.1l-0.6-1.7l1.2-1.3l1.7,0.3L521,709.4z
			 M539.1,711c0-0.5,0.8-0.9,0.8-0.9l1.1,0.9l-0.3,2.2l-1.6-0.3C539.1,712.9,539.1,711.5,539.1,711z M537.5,722.4v-1.9h2.1l0.5,2.4
			l-0.9,1.1l-1.3,0.3l-1.3-0.3L537.5,722.4z M541,698.1c-2.1,1.4-6.5,4.7-7.3,5.7c-0.8,0.9-2.1,2.4-1.9,4.4s-0.3,10.3-0.3,10.3
			l-0.8,1.4c0,0-1.3,0.3-1.3,0.8s0,0.5,0,0.5l-1.4,0.6l0.3,0.9l-0.9,0.6l-1.3-0.3l0.3-3.3l0.5-2.2l0.2-1.3l-1.6-0.8H524v1.7
			l-0.6,1.1l-0.6-1.7v-2.7v-2.2v-1.6l0.3-1.3l0.9-0.9l2.7,0.3l2.2-0.3l0.3-1.6l0.5-1.4c0,0,8.5-7.7,10.7-8.5
			C542.6,695.5,543.1,696.6,541,698.1z"/>
	</g>
</g>
</svg>
