<?xml version="1.0" encoding="utf-8"?>
<!-- Generator: Adobe Illustrator 22.1.0, SVG Export Plug-In . SVG Version: 6.00 Build 0)  -->
<svg version="1.1" id="图层_1" xmlns="http://www.w3.org/2000/svg" xmlns:xlink="http://www.w3.org/1999/xlink" x="0px" y="0px"
	 viewBox="0 0 800 800" style="enable-background:new 0 0 800 800;" xml:space="preserve">
<g>
	<path d="M684.1,419.4c0-1.2,0-2.4,0-3.6c0-1,0.1-2,0.4-3c0.2-0.9,0.3-1.9,0.4-2.8c0.1-1.4,0.2-2.7,0.3-4.1c0-0.4,0-0.8,0.1-1.2
		c0-1.9,0.1-3.8,0.1-5.8c0-0.4,0-0.8,0.1-1.2c0-0.7,0.3-1.4,0.6-2c0.4-0.7,0.8-1.4,1.3-2c0.5-0.5,1-0.8,1.6-1c1-0.3,1.9-0.6,2.8-1
		c0.3-0.1,0.5-0.3,0.7-0.5c0.6-0.5,1.2-1,1.7-1.6c0.3-0.3,0.7-0.5,1.1-0.6c1.1-0.3,2.2-0.2,3.2-0.1c0.7,0.1,1.4,0.1,2.1,0.1
		c0.8,0,1.1-0.3,1.3-1.1c0-0.3,0.1-0.5,0.1-0.8c0.1-1.3-1-2.6-2.6-2.1c-1,0.3-2,0.6-3,0.9c-0.3,0.1-0.6,0.3-0.8,0.5
		c-0.4,0.3-0.8,0.6-1.2,0.7c-0.4,0.1-0.7,0.3-1,0.6c-0.1,0.1-0.2,0.3-0.4,0.3c-0.9,0.4-1.6,1.1-2.5,1.5c-0.4,0.2-0.8,0.5-1.1,0.9
		c-0.4,0.5-0.9,1-1.3,1.5c-0.4,0.6-1,0.7-1.7,0.6c-0.7-0.1-1.2-0.5-1.7-1c-0.6-0.7-0.7-1.5-0.2-2.3c0.4-0.6,0.9-1.3,1.4-1.9
		c0.7-0.9,1.3-1.7,2-2.6c0.2-0.2,0.3-0.4,0.5-0.6c0.6-0.5,1.2-1,1.8-1.6c0.8-0.7,1.5-1.4,2.2-2.2c0.3-0.3,0.5-0.7,0.5-1.1
		c0.1-0.4-0.2-0.7-0.7-0.6c-0.2,0-0.3,0.1-0.5,0.2c-0.7,0.4-1.5,0.3-2.1-0.1c-0.7-0.4-1.4-0.9-1.9-1.5c-0.2-0.3-0.4-0.5-0.6-0.8
		c-0.2-0.3-0.4-0.7-0.5-1.1c-0.2-1.4,0-2.7,0.7-3.9c0.8-1.3,1.7-2.3,2.9-3.2c0.7-0.5,1.3-1,2.1-1.3c0.3-0.1,0.5-0.3,0.7-0.5
		c0.7-0.4,1.3-0.4,2,0c0.2,0.1,0.3,0.2,0.5,0.3c0.3,0.2,0.5,0.4,0.8,0.5c1.3,0.5,2.5,1.1,3.9,1.2c0.9,0.1,1.8,0.5,2.5,1
		c1.1,0.7,1.3,1.8,0.4,2.7c-0.5,0.6-0.9,1.2-1.1,1.9c0,0.1-0.1,0.3-0.2,0.4c-0.5,0.6-1,1.2-1.5,1.8c-0.2,0.2-0.5,0.3-0.7,0.4
		c-1.1,0.6-2.1,1.2-2.9,2.2c-0.3,0.3-0.5,0.7-0.8,1c-0.1,0.2-0.2,0.3-0.2,0.5c-0.1,0.3,0.1,0.5,0.4,0.5c0.4,0,0.8-0.1,1-0.3
		c0.5-0.4,1.2-0.7,1.8-0.9c0.2-0.1,0.5-0.2,0.7-0.3c0.6-0.4,1.3-0.6,2-0.6c0.1,0,0.3,0,0.4,0c0.9,0,1.6-0.5,1.9-1.3
		c0.2-0.4,0.3-0.9,0.4-1.3c0.1-0.8,0.3-1.5,0.8-2.2c0.2-0.3,0.4-0.7,0.4-1.1c0.2-0.9,0.5-1.8,1-2.6c0.2-0.3,0.3-0.7,0.4-1.1
		c0.2-0.8,0.4-1.5,0.8-2.2c0.2-0.5,0.4-1,0.6-1.5c0.2-0.7,0.4-1.4,0.8-2c0.2-0.4,0.4-0.9,0.5-1.3c0.2-0.6,0.4-1.1,0.7-1.5
		c0.2-0.2,0.3-0.4,0.4-0.7c0.3-0.6,0.6-1.2,1-1.7c0.2-0.2,0.3-0.5,0.4-0.8c0.2-0.5,0.5-0.9,0.7-1.4c0.2-0.3,0.3-0.7,0.5-1
		c0.2-0.5,0.4-1,0.8-1.5c0.2-0.3,0.4-0.7,0.6-1.1c0.2-0.6,0.4-1.1,0.8-1.6c0.1-0.1,0.1-0.2,0.2-0.3c0.4-1.4,0.8-2.7,0.5-4.1
		c-0.2-0.8-0.3-1.6-0.7-2.4c-0.3-0.8-0.3-1.6,0-2.3c0.1-0.2,0.2-0.4,0.2-0.5c0.5-1.1,1.4-1.8,2.6-1.9c1.4-0.2,2.9-0.2,4.3-0.2
		c0.7,0,1.4,0.3,2,0.6c1,0.6,1.9,1.4,2.6,2.3c0.6,0.7,0.9,1.6,1.2,2.4c0.1,0.4,0,0.8-0.1,1.2c-0.2,0.5-0.4,1.1-0.7,1.6
		c-0.2,0.3-0.4,0.6-0.6,0.8c-0.1,0.2-0.3,0.3-0.5,0.5c-0.5,0.6-1.1,1-1.8,1.3c-0.2,0.1-0.5,0.2-0.7,0.4c-0.7,0.5-1.5,0.7-2.3,0.7
		c-0.4,0-0.9,0-1.3,0c-0.6,0-1.1,0.2-1.5,0.5c-0.8,0.5-1.5,1.1-2.1,1.9c-0.4,0.5-0.7,1.1-0.8,1.8c-0.2,0.8-0.4,1.7-0.8,2.4
		c-0.1,0.3-0.2,0.6-0.3,0.9c-0.2,0.7-0.4,1.3-0.8,1.9c-0.3,0.4-0.4,0.9-0.6,1.4c-0.2,0.7-0.4,1.4-0.7,2.1c-0.2,0.6-0.3,1.2-0.4,1.7
		c-0.1,0.3-0.1,0.7-0.1,1c-0.1,0.6-0.3,1.1-0.6,1.6c-0.2,0.3-0.4,0.7-0.3,1.1c0,0.5,0.5,0.7,0.9,0.5c0.1-0.1,0.2-0.2,0.3-0.3
		c1-0.8,1.9-1.6,2.9-2.4c0.8-0.7,1.7-1.3,2.5-1.9c0.2-0.1,0.4-0.2,0.6-0.4c0.4-0.3,0.9-0.6,1.3-0.9c0.1-0.1,0.2-0.2,0.3-0.3
		c1-0.6,2-1.2,3-1.7c0.1-0.1,0.3-0.1,0.4-0.2c0.5-0.5,1.1-0.7,1.7-1c1-0.5,2-1.2,3.2-1.5c0.2,0,0.3-0.2,0.4-0.3
		c0.5-0.3,1-0.5,1.5-0.7c0.6-0.1,1.1-0.3,1.6-0.6c0.5-0.3,1-0.4,1.5-0.6c1-0.2,2-0.4,2.9-0.6c0.9-0.2,1.8-0.1,2.7,0
		c1,0.2,2.1,0.4,3.1,0.5c0.6,0.1,1.2,0.3,1.7,0.8c0.7,0.7,1,1.6,0.8,2.6c-0.3,1.6-1.3,2.7-2.6,3.5c-0.2,0.1-0.5,0.3-0.7,0.4
		c-0.5,0.3-1,0.5-1.6,0.7c-0.6,0.2-1.2,0.3-1.7,0.6c-0.7,0.3-1.4,0.5-2.1,0.5c-0.9,0.1-1.8,0.2-2.7,0.2c-0.8,0-1.5,0.3-2.1,0.9
		c-0.6,0.6-1.3,1.2-2,1.8c-0.6,0.5-1.1,1.1-1.7,1.7c-0.6,0.7-1.2,1.4-1.8,2.2c-0.3,0.3-0.5,0.6-0.6,1c-0.1,0.5-0.4,1-0.7,1.5
		c-0.2,0.3-0.3,0.5-0.4,0.8c-0.2,0.5-0.1,0.8,0.2,1c0.3,0.2,0.7,0.2,1-0.1c0.8-0.8,1.8-1.1,2.6-1.8c0.2-0.2,0.4-0.3,0.7-0.4
		c0.4-0.2,0.9-0.3,1.3-0.5c0.7-0.3,1.4-0.4,2.1-0.3c0.5,0.1,1.1,0.1,1.6,0.2c1.1,0.2,2.2,0.6,3.1,1.4c0.2,0.2,0.5,0.4,0.7,0.6
		c0.5,0.4,0.7,0.9,0.7,1.5c0,0.9-0.2,1.8-0.7,2.6c-0.1,0.1-0.2,0.2-0.2,0.3c-0.4,1-1.1,1.9-1.8,2.7c-0.7,0.9-1.4,1.8-2.3,2.5
		c-0.6,0.4-1.2,0.9-1.8,1.4c-0.4,0.3-0.7,0.6-0.9,1c-0.4,0.7-0.9,1.2-1.6,1.6c-0.3,0.1-0.6,0.3-0.9,0.5c-0.2,0.1-0.1,0.4,0,0.4
		c0.9,0.3,1.7,0.8,2.7,0.8c0.5,0,1.1,0.1,1.6,0.3c0.9,0.3,1.2,0.8,1,1.7c-0.1,0.8-0.3,1.5-0.5,2.3c-0.2,1-0.6,1.8-1.4,2.5
		c-0.6,0.5-0.9,1-1.1,1.7c-0.1,0.4-0.3,0.7-0.4,1c-0.3,0.6-0.7,1.1-1.3,1.6c-0.3,0.2-0.6,0.6-0.9,0.9c-0.2,0.2-0.3,0.4-0.1,0.7
		c0.1,0.3,0.4,0.4,0.6,0.4c0.2,0,0.4,0,0.6,0c0.8-0.2,1.5-0.3,2.2-0.8c0.7-0.5,1.5-0.6,2.3-0.7c1.1,0,2.2,0,3.3-0.1
		c0.2,0,0.4,0,0.6,0c1.3,0.1,2.3,0.5,3.1,1.5c0.2,0.3,0.4,0.5,0.6,0.8c0.2,0.4,0.4,0.8,0.5,1.2c0.5,1,0.5,2,0,3
		c-0.2,0.5-0.5,1.1-0.7,1.7c-0.2,0.5-0.4,0.9-0.8,1.2c-0.6,0.6-1.2,1.1-2,1.5c-0.2,0.1-0.3,0.2-0.5,0.3c-0.3,0.2-0.4,0.6-0.3,0.9
		c0.1,0.4,0.4,0.6,0.8,0.7c0.3,0,0.5,0,0.8,0c1-0.2,2.1-0.3,3.1-0.6c1.3-0.4,2.7-0.3,3.9,0.3c0.3,0.1,0.6,0.3,0.9,0.4
		c0.7,0.3,1.3,0.7,1.8,1.4c0.2,0.3,0.4,0.5,0.7,0.8c0.7,0.6,0.7,2.3,0,2.9c-0.3,0.3-0.6,0.7-0.9,1c-0.3,0.4-0.7,0.6-1.2,0.7
		c-0.5,0.1-0.9,0.1-1.4,0.1c-1.4,0.1-2.9,0.1-4.3,0.2c-1.3,0.1-2.5,0.3-3.7,0.6c-0.8,0.2-1.6,0.4-2.4,0.6c-0.7,0.1-1.3,0.3-2,0.6
		c-0.5,0.2-1.1,0.4-1.6,0.5c-0.6,0.2-1.2,0.4-1.7,0.7c-1.1,0.6-2.2,1.1-3.2,1.7c-0.7,0.4-1.4,0.6-2.2,0.8c-0.8,0.3-1.6,0.2-2.4-0.1
		c-0.4-0.2-0.9-0.4-1.3-0.6c-0.2-0.1-0.3-0.1-0.5-0.2c-0.8-0.2-1.2,0.2-1.3,0.9c0,0.4,0,0.7,0,1.1c0.1,1.3,0.4,2.7,0.7,4
		c0.2,1,0.3,2.1,0.5,3.1c0.1,0.4,0.1,0.9,0.2,1.3c0.1,0.6,0.3,1.2,0.6,1.7c0.2,0.3,0.4,0.6,0.5,0.9c0.1,0.3,0.2,0.5,0.3,0.8
		c0.2,0.9,0,1.5-0.9,1.8c-0.5,0.2-0.9,0.3-1.4,0.4c-1,0.1-2,0.3-3,0.3c-1.5,0-2.8-0.5-3.8-1.7c-0.4-0.5-0.6-1.1-0.7-1.7
		c0-0.3,0-0.7,0-1c0-1,0-1.9-0.1-2.9c-0.1-0.8,0-1.7-0.1-2.6c0-1.3,0-2.5,0-3.8c0-0.6-0.1-1.3-0.1-1.9c-0.1-1.5,0.1-3,0.2-4.5
		c0.1-1.2,0.2-2.3,0.2-3.5c0-0.6-0.1-1.3-0.2-1.9c0-0.6-0.1-1.2,0-1.8c0.1-0.9,0.2-1.8,0.2-2.6c0.1-1.3,0.1-2.7,0.2-4
		c0.1-1.3,0.2-2.6,0.3-3.9c0-0.7,0-1.4,0-2.1c-0.2-2.5-0.3-5-0.1-7.5c0.1-1.1,0.1-2.2,0.1-3.3c0-1.4,0.1-2.7,0.6-4.1
		c0.2-0.5,0.2-1.1,0.2-1.7c0-1.3,0.1-2.6,0.4-3.8c0.1-0.6,0.4-1.2,0.5-1.8c0.2-0.5,0.4-1,0.5-1.6c0.2-0.7,0.4-1.4,0.8-2
		c0,0,0,0,0-0.1c0.6-1.4,1.3-2.7,2-4c0.4-0.8,0.9-1.5,1.5-2.1c0.2-0.2,0.3-0.4,0.5-0.5c0.9-0.8,1.7-1.6,2.5-2.5
		c0.1-0.1,0.2-0.2,0.3-0.3c0.5-0.7,1.1-1.2,1.7-1.7c0.2-0.2,0.4-0.3,0.5-0.6c0.2-0.2,0-0.6-0.3-0.6c-0.2,0-0.4,0-0.5,0.1
		c-0.4,0.2-0.8,0.4-1.2,0.7c-0.5,0.3-1,0.6-1.5,0.8c0,0-0.1,0-0.1,0c-0.6,0.3-1.1,0.7-1.7,1c-0.6,0.3-1.2,0.5-1.6,0.9
		c0,0-0.1,0.1-0.1,0.1c-0.9,0.4-1.7,1.1-2.5,1.7c-1.2,0.9-2.4,1.9-3.2,3.2c-0.2,0.3-0.4,0.7-0.5,1.1c-0.3,0.8-0.5,1.6-0.8,2.5
		c-0.2,0.6-0.4,1.2-0.5,1.7c-0.2,0.8-0.6,1.5-1.4,1.8c-0.6,0.3-1,0.8-1.2,1.4c-0.1,0.3-0.1,0.6-0.2,0.8c-0.2,0.5-0.3,1.1-0.5,1.6
		c-0.4,0.9-0.6,1.9-0.7,2.9c-0.1,0.6-0.1,1.3-0.2,1.9c-0.1,0.6-0.3,1.2-0.4,1.8c-0.2,0.9-0.5,1.7-0.7,2.6c-0.3,1.2-0.6,2.4-0.9,3.6
		c-0.3,1.1-1,1.9-1.9,2.6c-0.4,0.3-0.7,0.5-1.1,0.8c0,0,0,0-0.1,0.1c-1.2,0.6-2.3,1.4-3.6,1.7c-1.1,0.3-2.1,0.9-3.1,1.5
		c-0.3,0.2-0.6,0.5-0.8,0.9c-0.2,0.3-0.3,0.7-0.5,1c-0.4,0.7-0.5,1.5-0.4,2.2c0.1,0.7,0.1,1.3,0.1,2c0,0.8,0,1.6-0.2,2.4
		c-0.6,2.1-0.6,4.2-0.3,6.4c0,0.2,0,0.3,0.1,0.5c0.3,0.8,1.1,1.1,1.7,0.6c0.6-0.5,1.1-1,1.5-1.6c0.2-0.3,0.4-0.6,0.6-0.9
		c0.9-1.3,1.1-3.2,0.2-4.6c-0.5-0.8-0.7-1.7-0.7-2.7c0-0.6,0.2-1.1,0.6-1.5c0.7-0.7,1.4-1.2,2.4-1.5c0.4-0.1,0.7-0.3,1.1-0.5
		c0.6-0.4,1.3-0.6,2.1-0.7c0.9,0,1.7,0,2.6,0.2c0.5,0.1,1,0.3,1.4,0.5c0.5,0.3,0.9,0.6,1.4,0.8c0.8,0.4,1.4,1,2,1.7
		c0.4,0.5,0.4,1,0.2,1.6c-0.5,1.2-1.3,2.1-2.2,2.9c-0.3,0.2-0.6,0.3-0.9,0.5c-0.6,0.3-1.3,0.5-1.9,0.7c-0.6,0.2-1.2,0.4-1.8,0.3
		c-0.5,0-0.9,0-1.4,0c-0.9,0-1.6,0.6-1.8,1.5c0,0.1,0,0.2,0,0.3c0,1.3-0.6,2.5-0.9,3.8c-0.1,0.4-0.3,0.7-0.5,1.1
		c-0.1,0.2-0.3,0.4-0.3,0.6c-0.3,1-1,1.8-1.6,2.6c-0.1,0.2-0.2,0.3-0.4,0.5c-0.8,0.6-1.6,1.3-2.6,1.5c-0.5,0.1-1,0.3-1.5,0.7
		c-1.2,0.9-2.5,0.8-3.7,0.2c-0.5-0.2-0.9-0.5-1.4-0.8c-0.2-0.1-0.4-0.3-0.6-0.5c-1-1.3-1.7-2.6-1.7-4.3
		C684.2,421.9,684.2,420.7,684.1,419.4C684.2,419.4,684.1,419.4,684.1,419.4z M720.1,402.4c0,0.5,0,0.8,0,1.1c0,0.1,0,0.1,0,0.2
		c0.1,0.6,0.7,0.9,1.3,0.5c0.1-0.1,0.3-0.2,0.4-0.4c0.2-0.3,0.5-0.6,0.7-1c0.3-0.5,0.6-0.9,1-1.4c0.9-1,1.7-2,2.6-3
		c0.1-0.1,0.2-0.3,0.3-0.5c0.3-0.5,0.6-0.9,0.9-1.4c0.1-0.2,0.3-0.4,0.3-0.6c0.1-0.4-0.1-0.8-0.5-0.9c-0.2,0-0.3,0-0.5-0.1
		c-0.3,0-0.6,0-0.9,0c-0.8-0.1-1.5-0.1-2.3-0.3c-1.7-0.5-2.4-2.2-1.4-3.7c0.2-0.3,0.4-0.7,0.7-1c0.7-0.9,1.3-1.9,1.8-2.9
		c0.3-0.7,0.6-1.4,0.7-2.2c0.1-0.6,0.3-1.2,0.7-1.7c0.3-0.3,0.4-0.7,0.5-1.1c0.1-0.7-0.1-1.1-0.8-1.4c-0.4-0.2-0.8-0.4-1.2-0.6
		c-0.7-0.3-1.2-0.2-1.6,0.4c-0.3,0.4-0.4,0.9-0.5,1.4c-0.3,1.3-0.5,2.6-0.8,4c-0.1,0.3-0.1,0.7-0.1,1c-0.1,1.7-0.2,3.4-0.8,5
		c-0.2,0.7-0.2,1.4-0.1,2.1c0.1,0.6,0.2,1.2,0.2,1.8c0,1-0.1,2-0.2,3C720.2,400.1,720.1,401.3,720.1,402.4z M720.3,419.8
		c0.1,0,0.2,0,0.3-0.1c0.7-0.2,1.3-0.3,2-0.3c0.6,0,1-0.3,1.2-0.8c0.3-0.6,0.7-1.1,1.3-1.5c0.2-0.2,0.4-0.3,0.6-0.5
		c0.9-0.9,1.8-1.9,2.6-2.8c0.4-0.5,0.7-1.1,1-1.7c0.2-0.5,0-1-0.6-1.2c-0.4-0.1-0.8-0.2-1.2-0.1c-0.5,0.1-0.9,0.2-1.4,0.2
		c-0.5,0-1.1,0.1-1.5,0c-1.2-0.3-2.4-0.7-3.3-1.5c-0.4-0.4-0.9-0.5-1.4-0.5c-1,0-1.6,0.8-1.2,1.7c0.4,1,0.5,2.1,0.6,3.2
		c0,0.6-0.1,1.1-0.4,1.6c-0.3,0.5-0.3,1-0.2,1.6c0.1,0.4,0.2,0.9,0.3,1.3c0.1,0.3,0.1,0.5,0.2,0.8
		C719.4,419.5,719.7,419.8,720.3,419.8z M694.6,398c0.4,0,0.8-0.1,1.1-0.5c0.4-0.5,0.3-1-0.2-1.3c-0.5-0.3-1.1-0.2-1.7-0.1
		c-0.6,0.2-0.8,0.8-0.4,1.3C693.7,397.9,694.1,398,694.6,398z"/>
	<path d="M271.1,425.4c-1.4,0-3.3-0.1-5.2-0.2c-0.6,0-1.1-0.2-1.7-0.3c-0.8-0.2-1.5-0.5-2.3-0.7c-0.5-0.1-0.9-0.3-1.3-0.7
		c-0.1-0.1-0.2-0.2-0.4-0.2c-1-0.5-1.8-1.1-2.7-1.7c-0.9-0.6-1.7-1.2-2.5-1.8c-0.3-0.2-0.7-0.5-1-0.7c-0.3-0.2-0.7-0.5-1-0.7
		c-0.3-0.2-0.6-0.4-0.8-0.6c-0.3-0.3-0.7-0.5-1-0.8c-0.2-0.1-0.4-0.3-0.6-0.4c-0.4-0.3-0.9-0.6-1.3-0.9c-1-0.7-1.9-1.3-2.9-2
		c-0.2-0.1-0.3-0.2-0.5-0.4c-0.3-0.2-0.6-0.5-1-0.7c-0.4-0.3-0.7-0.5-1.1-0.8c-0.9-0.7-1.9-1.5-2.8-2.2c0,0-0.1-0.1-0.1-0.1
		c-1.1-0.8-1.9-0.6-2.5,0.7c-0.4,0.9-0.7,1.9-0.7,2.9c0,0.9,0.1,1.8,0.1,2.7c0,1.1,0.1,2.2,0.1,3.3c-0.1,1.8,0,3.7,0.3,5.5
		c0.3,1.6,0.3,3.2,0.3,4.8c0,1.4,0,2.7,0.1,4.1c0,0.6,0,1.1,0.1,1.7c0.1,0.8,0,1.6-0.1,2.4c-0.2,0.9-0.6,1.6-1.4,2.1
		c-1.7,1-3.4,1.1-5.2,0.5c-0.3-0.1-0.6-0.3-1-0.4c-1.6-0.5-2.7-1.6-3.6-2.9c-0.3-0.5-0.5-1-0.6-1.5c-0.3-1.1-0.6-2.1-0.8-3.2
		c-0.1-0.4-0.2-0.8-0.3-1.3c-0.1-0.5,0.1-0.9,0.5-1.2c0.2-0.1,0.5-0.2,0.7-0.3c0.9-0.4,1.4-1,1.6-2c0.2-1.1,0.4-2.2,0.6-3.3
		c0-0.1,0-0.3,0-0.4c0.1-1.4,0.2-2.8,0.3-4.2c0-0.4,0-0.7,0-1.1c0-0.5,0.1-1,0.1-1.5c0-0.2,0-0.3,0-0.5c0-0.2-0.3-0.4-0.5-0.4
		c-0.2,0-0.4,0.1-0.6,0.2c-0.4,0.3-0.8,0.6-1.2,0.9c-1.7,1.6-3.5,3.2-5.2,4.8c-0.6,0.5-1.1,1.2-1.7,1.7c-0.6,0.5-1.1,1-1.7,1.6
		c-0.1,0.1-0.3,0.2-0.5,0.3c-0.5,0.3-1,0.6-1.6,0.9c-1.2,0.6-2.2,1.6-3.2,2.4c-0.5,0.4-1.1,0.7-1.7,1c-0.3,0.1-0.6,0.2-0.9,0.2
		c-0.4,0-0.8-0.1-1.2-0.2c-0.8-0.2-1.6-0.2-2.4-0.1c-0.3,0.1-0.6,0.1-0.9,0c-0.7,0-1.1-0.4-1.4-1c-0.3-0.5-0.3-1,0.1-1.4
		c0.2-0.2,0.4-0.5,0.6-0.7c0.6-0.6,1.1-1.2,1.7-1.8c1-1,2-2.1,2.9-3.1c0.6-0.6,1.2-1.3,1.8-2c0.3-0.4,0.6-0.7,1-1.1
		c2.2-2.5,4.6-4.8,7-7.1c0.3-0.3,0.7-0.6,1.1-1c0.2-0.2,0.5-0.4,0.7-0.7c0.7-0.7,1.4-1.5,2.1-2.3c0.4-0.4,0.8-0.9,1.2-1.3
		c0.1-0.1,0.3-0.3,0.4-0.4c1-0.7,1.8-1.7,2.7-2.5c0.5-0.5,1.1-1.1,1.5-1.7c0.5-0.6,0.8-1.3,1.2-2c0.1-0.3,0.2-0.6,0.2-0.9
		c0-0.7,0.2-1.4,0.4-2.1c0-0.1,0.1-0.2,0.1-0.3c0-0.4-0.2-0.7-0.6-0.7c-0.1,0-0.1,0-0.2,0c-1.2,0.3-2.5,0.4-3.6,1.1
		c-0.4,0.2-0.9,0.3-1.3,0.5c-0.5,0.2-1.1,0.4-1.6,0.6c-0.6,0.3-1.3,0.6-1.9,0.7c-0.5,0.1-1,0.3-1.4,0.6c-0.4,0.2-0.9,0.4-1.3,0.6
		c-0.5,0.2-1.1,0.5-1.6,0.7c-0.2,0.1-0.4,0.3-0.7,0.4c-0.7,0.3-1.4,0.6-2,1.2c-0.4,0.4-1,0.6-1.6,0.5c-0.3,0-0.7-0.1-1-0.2
		c-0.6-0.1-1.1-0.4-1.4-0.9c-0.2-0.3-0.5-0.5-0.7-0.8c-0.2-0.3-0.4-0.6-0.5-0.9c-0.3-0.8-0.3-1.6,0.5-2.3c0.5-0.4,1-0.8,1.7-0.9
		c0.5,0,1-0.3,1.4-0.6c0.3-0.3,0.7-0.5,1.2-0.7c0.2-0.1,0.4-0.2,0.5-0.3c0.6-0.5,1.3-0.8,2-1.2c0.7-0.5,1.4-0.9,2.1-1.3
		c0.2-0.1,0.3-0.2,0.4-0.3c0.4-0.4,0.9-0.7,1.4-0.9c0.2-0.1,0.3-0.2,0.5-0.3c0.5-0.4,1-0.7,1.5-1c0.5-0.4,1-0.8,1.4-1.3
		c0.3-0.3,0.2-0.6,0-0.9c-0.2-0.2-0.4-0.4-0.6-0.5c-0.5-0.3-0.9-0.6-1.2-1.1c-0.1-0.1-0.1-0.2-0.2-0.3c-0.8-0.6-1.3-1.5-1.9-2.3
		c-0.6-0.9-0.9-1.8-0.9-2.9c0-1.1,0-2.2,0.2-3.3c0.1-0.7,0.3-1.3,0.6-2c0.2-0.4,0.4-0.9,0.5-1.4c0.2-1.1,0.6-2,1.1-2.9
		c0.4-0.7,1-1.3,1.5-1.9c0.8-0.8,1.8-0.9,2.8-0.4c0.7,0.4,1.5,0.8,2.2,1.2c0.2,0.1,0.4,0.3,0.5,0.4c0.3,0.3,0.5,0.5,0.8,0.8
		c0.4,0.4,0.8,0.8,0.9,1.4c0,0,0,0.1,0,0.1c0.4,1,1,1.3,2.1,0.9c0.5-0.2,1.1-0.4,1.5-0.9c0.2-0.2,0.4-0.4,0.6-0.6
		c0.7-0.7,1.1-1.6,1.3-2.6c0.1-0.9,0.2-1.8,0.2-2.7c0-0.6,0.1-1.1,0.1-1.7c0-0.1,0-0.2,0-0.3c0-0.7-0.4-1.2-1.1-1.3
		c-0.3,0-0.5,0-0.8,0c-0.9,0-1.8-0.1-2.7-0.2c-0.4,0-0.8-0.2-1.1-0.3c-0.4-0.2-0.8-0.4-1.1-0.6c-0.3-0.2-0.6-0.4-0.8-0.6
		c-0.8-0.7-1.4-1.4-2-2.2c-0.1-0.2-0.2-0.3-0.3-0.5c-0.3-0.5-0.5-1.1-0.8-1.6c-0.4-0.7-0.4-1.4,0-2.1c0.4-0.7,0.8-1.4,1.4-1.9
		c0.8-0.7,1.5-1.5,2.4-2c0.7-0.7,1.8-1.1,2.5-1.8c0.1-0.1,0.2-0.2,0.3-0.3c0.8-0.5,1.6-1.1,2.5-1.6c0.9-0.5,1.2-1.2,1-2.2
		c0-0.1,0-0.2-0.1-0.3c-0.6-1.9-0.4-3.9-0.4-5.9c0-0.7,0.3-1.3,0.8-1.9c1-1.1,1.3-1.3,2.7-1.3c0.6,0,1.1,0.1,1.7,0.1
		c0.5,0.1,0.9,0.3,1.2,0.6c0,0,0,0,0.1,0.1c1.1,0.9,1.1,0.9,1.7,2.3c0.1,0.2,0.2,0.4,0.3,0.6c0.3,0.5,0.5,1,0.6,1.5c0,0,0,0.1,0,0.1
		c0.3,1.1,0.6,1.3,1.7,1.1c1-0.1,2-0.3,3-0.5c0.7-0.2,1.5-0.1,2.2,0.1c0.2,0.1,0.4,0.2,0.6,0.2c0.8,0.2,1.5,0.7,2.1,1.3
		c0.4,0.4,0.6,0.9,0.8,1.4c0.5,1.4,0.8,2.8,1,4.3c0.1,0.7,0.2,1.5,0,2.2c-0.2,1-0.6,1.8-1.2,2.6c-0.1,0.2-0.3,0.3-0.4,0.4
		c-0.7,0.5-1.4,1-2.3,1.2c-0.7,0.2-1.3,0.5-1.9,0.9c-0.3,0.2-0.7,0.4-1,0.6c-0.3,0.2-0.6,0.3-0.8,0.5c-0.6,0.5-1.3,0.7-2,0.9
		c-0.5,0.1-1,0.1-1.4,0.2c-0.6,0.1-1.1,0.3-1.4,0.7c-0.1,0.1-0.2,0.2-0.3,0.3c-0.6,0.5-0.9,1.1-1.1,1.9c-0.2,0.7-0.4,1.3-0.7,1.9
		c-0.2,0.5-0.3,1-0.4,1.5c-0.1,0.7-0.2,1.4-0.4,2c-0.1,0.2-0.1,0.5-0.1,0.8c0,0.5,0.3,0.7,0.8,0.7c0.2,0,0.4-0.1,0.7-0.2
		c0.2-0.1,0.4-0.2,0.6-0.3c0.7-0.4,1.4-0.8,2.1-1.1c0.4-0.1,0.7-0.4,1-0.6c0.3-0.3,0.7-0.5,1.1-0.6c0.5-0.2,1-0.5,1.5-0.7
		c0.4-0.2,0.8-0.4,1.3-0.5c1-0.1,2-0.2,3-0.2c1.2,0,2.2,0.4,3.1,1.3c0.3,0.3,0.6,0.6,0.9,0.8c1.2,1,1,2.9,0.2,3.9
		c-0.2,0.2-0.4,0.4-0.6,0.6c-0.7,0.7-1.5,1.4-2.5,1.8c-0.3,0.1-0.6,0.3-0.9,0.5c-0.2,0.1-0.4,0.3-0.6,0.4c-0.6,0.3-1.2,0.6-1.6,1.1
		c-0.1,0.1-0.3,0.2-0.5,0.3c-0.2,0.2-0.5,0.3-0.7,0.5c-1,0.8-2,1.5-3,2.3c-0.8,0.7-1.8,1.3-2.5,2.1c-0.2,0.2-0.3,0.3-0.5,0.4
		c-0.2,0.1-0.3,0.2-0.5,0.4c-0.9,1-1.9,1.8-2.9,2.7c-0.2,0.2-0.3,0.4-0.3,0.7c0,0.4,0.3,0.7,0.7,0.7c0.4,0,0.7-0.1,1-0.4
		c0.7-0.6,1.4-0.9,2.3-1.1c0.3,0,0.5-0.2,0.8-0.3c0.5-0.4,1.1-0.6,1.7-0.8c0.5-0.1,0.9-0.3,1.3-0.6c0.4-0.3,0.9-0.4,1.3-0.6
		c0.6-0.2,1.2-0.5,1.8-0.7c0.2-0.1,0.4-0.2,0.6-0.2c1.4-0.2,2.6,0.2,3.6,1.2c0.2,0.3,0.4,0.6,0.4,0.9c0,0.3,0,0.6,0,0.9
		c-0.1,0.7-0.2,1.4-0.3,2c-0.1,0.7-0.5,1.2-1.1,1.6c-0.9,0.6-2,0.9-3.1,1.1c-1,0.1-1.9,0.4-2.8,0.8c-0.6,0.2-1.1,0.3-1.7,0.5
		c-0.8,0.2-1.5,0.4-2.1,0.9c-0.4,0.4-1,0.5-1.6,0.6c-0.7,0.1-1.4,0.4-1.9,0.9c-0.2,0.2-0.4,0.3-0.5,0.4c-0.2,0.2-0.4,0.5-0.6,0.7
		c-0.3,0.5-0.2,1.1,0.2,1.5c0.4,0.4,0.7,0.8,1.2,1c0.5,0.2,0.8,0.6,1.2,1c0.5,0.6,1.2,1.2,1.6,1.9c0.1,0.1,0.2,0.2,0.2,0.4
		c0.3,0.5,0.3,1,0.1,1.6c-0.2,0.3-0.3,0.6-0.5,0.9c-0.2,0.4-0.3,0.7-0.3,1.1c0,0.9,0.4,1.6,1.2,2c0.2,0.1,0.5,0.2,0.7,0.3
		c0.2,0.1,0.5,0.2,0.7,0.4c0.5,0.4,1.1,0.7,1.6,1.1c0.8,0.5,1.5,1,2.4,1.3c0.2,0.1,0.4,0.2,0.5,0.3c0.7,0.6,1.4,1.2,2.2,1.7
		c0.8,0.6,1.6,1.3,2.5,1.7c0.3,0.1,0.6,0.3,0.8,0.5c0.4,0.4,0.9,0.6,1.4,0.8c0.5,0.2,0.9,0.5,1.4,0.7c0.4,0.2,0.9,0.4,1.3,0.6
		c0.6,0.2,1.2,0.4,1.7,0.7c0.4,0.2,0.9,0.4,1.3,0.6c0.2,0.1,0.4,0.1,0.6,0.2c1.1,0.5,2.2,1.1,3.3,1.6c0.1,0,0.1,0.1,0.2,0.1
		c1.4,0.6,2.7,1.5,4.2,1.9c0.5,0.2,1,0.4,1.4,0.6c0.4,0.2,0.8,0.4,1.2,0.5c0.8,0.2,1.5,0.5,2.2,0.8c0.4,0.2,0.8,0.4,1.3,0.5
		c0.6,0.2,1.2,0.4,1.7,0.8c0.3,0.2,0.6,0.3,0.9,0.5c0.2,0.1,0.4,0.2,0.6,0.3c0.6,0.4,0.7,0.9,0,1.3c-0.3,0.2-0.6,0.3-1,0.4
		c-0.6,0.1-1.2,0.2-1.8,0.3C276.6,425.2,273.5,425.5,271.1,425.4z M246.8,369.2c-0.7,0-1.2,0.2-1.8,0.6c-1.1,0.7-2.2,1.4-3.4,1.8
		c-1.2,0.5-1.8,1.4-1.9,2.7c0,0.6,0,1.3,0.2,1.9c0.1,0.5,0.2,0.9,0.1,1.4c0,0.2-0.1,0.4,0,0.6c0.1,0.6,0.6,0.9,1.2,0.6
		c0.1-0.1,0.2-0.1,0.3-0.2c0.8-0.8,1.7-1.5,2.2-2.5c0.1-0.2,0.3-0.3,0.4-0.5c0.2-0.2,0.4-0.4,0.6-0.6c1-1.2,2-2.3,3-3.5
		c0.1-0.2,0.3-0.3,0.4-0.5c0.4-0.7,0.1-1.5-0.7-1.7C247.2,369.2,247,369.2,246.8,369.2z M235.7,377.4c0-0.2,0-0.3,0-0.4
		c-0.1-0.5-0.5-0.7-0.9-0.6c-0.5,0.2-1,0.5-1.2,1c-0.4,0.9-0.9,1.9-0.8,2.9c0,0.3-0.1,0.6-0.1,0.8c0,0.3,0,0.5,0,0.8
		c0,0.3,0.3,0.6,0.6,0.6c0.9,0.2,2-0.6,2.1-1.5c0.1-1.2,0.2-2.4,0.4-3.7C235.7,377.5,235.7,377.4,235.7,377.4z"/>
	<path d="M412,414.9c0.1-2.3,0.1-4.7,0.3-7c0.1-1.3,0.2-2.6,0.4-3.9c0.2-1.5,0.3-3,0.5-4.5c0.1-0.8,0.1-1.7,0.2-2.5c0-0.5,0-1,0-1.5
		c-0.3-1.5,0-3,0.1-4.4c0.1-1.3,0.2-2.6,0.2-3.9c0-1.1-0.1-2.1-0.2-3.2c-0.1-0.8-0.3-1.5-1-1.9c-1-0.6-2-1-3.2-0.7
		c-1.3,0.3-2.6,0.5-3.7,1.2c-0.5,0.3-1.1,0.4-1.6,0.4c-0.1,0-0.3,0-0.4-0.1c-0.7-0.2-0.9-0.7-0.6-1.3c0.2-0.5,0.5-0.8,0.9-1.1
		c0.9-0.6,1.7-1.5,2.7-2c0.2-0.1,0.4-0.3,0.5-0.4c0.2-0.2,0.5-0.3,0.7-0.5c0.4-0.3,0.8-0.5,1.1-0.8c0.1-0.1,0.3-0.2,0.4-0.3
		c1.5-0.6,3-1.4,4.6-1.4c0.8,0,1.7,0,2.5,0c0.7,0,1.4,0.2,2,0.6c0.3,0.2,0.6,0.3,0.9,0.5c0.3,0.2,0.6,0.5,0.9,0.7
		c0.2,0.2,0.4,0.5,0.7,0.7c0.4,0.4,0.6,0.8,0.8,1.3c0.1,0.2,0.1,0.3,0.2,0.5c0.6,1.2,0.6,2.5,0.5,3.9c-0.1,0.9-0.1,1.8-0.1,2.7
		c0,1-0.1,1.9-0.3,2.9c-0.2,1-0.3,2-0.4,3.1c-0.1,0.8-0.3,1.7-0.4,2.5c-0.2,1.2-0.5,2.5-0.5,3.7c0,1.3-0.1,2.6-0.1,3.9
		c-0.1,1.5-0.2,3.1-0.3,4.6c0,1.5,0,3.1,0,4.6c0,1.6,0.2,3.1,0.2,4.7c0,0.5,0,1.1-0.1,1.6c0,0.6,0,1.2-0.1,1.8c0,0.8,0,1.6-0.2,2.3
		c-0.4,1.4,0.2,2.4,1.3,3.1c0.7,0.5,1.3,1,1.9,1.5c0.2,0.2,0.4,0.4,0.6,0.6c0.4,0.5,0.7,1,1.1,1.5c0.4,0.5,0.5,1.5-0.2,2
		c-0.7,0.7-1.5,1.4-2.2,2c-0.3,0.3-0.8,0.5-1.2,0.6c-1.4,0.3-2.8,0.1-4-0.7c-0.1-0.1-0.2-0.2-0.4-0.2c-1.1-0.5-2-1.2-2.9-1.9
		c-0.7-0.5-1.2-1.1-1.8-1.7c-0.2-0.2-0.4-0.5-0.7-0.7c-0.4-0.3-0.6-0.7-0.9-1.2c-0.1-0.3-0.3-0.5-0.5-0.8c-0.2-0.2-0.3-0.4-0.5-0.5
		c-0.4-0.3-0.9-0.3-1.3,0.1c-0.3,0.3-0.7,0.6-0.9,1.1c-0.2,0.5-0.6,0.9-1,1.3c-0.6,0.7-1.2,1.4-1.9,2c-0.7,0.7-1.3,1.3-2,2
		c-0.6,0.6-1.3,1.1-1.9,1.7c-0.7,0.6-1.4,1.1-2.2,1.6c-0.4,0.3-0.9,0.4-1.4,0.4c-1.7,0-3.4,0.2-5.1,0.1c-0.2,0-0.5,0-0.7-0.1
		c-0.8-0.2-1.1-0.9-0.8-1.6c0.1-0.2,0.2-0.4,0.4-0.5c0.2-0.2,0.5-0.4,0.7-0.5c0.7-0.3,1.3-0.8,1.9-1.3c0.7-0.7,1.3-1.3,1.9-2.1
		c0.4-0.6,0.9-1,1.4-1.5c0.9-1,1.8-1.9,2.5-3c0.6-0.9,1.3-1.7,1.9-2.5c0.2-0.3,0.3-0.5,0.5-0.8c0.2-0.4,0.4-0.8,0.7-1.2
		c0.3-0.4,0.5-0.9,0.6-1.3c0.1-0.4,0-0.8-0.3-1.2c-0.5-0.6-1-1.1-1.6-1.5c-0.5-0.3-0.9-0.8-1.3-1.1c-0.2-0.2-0.5-0.4-0.7-0.6
		c-0.2-0.2-0.5-0.1-0.6,0.2c-0.2,0.3-0.2,0.7-0.2,1.1c0,0.3,0.1,0.6,0.1,0.9c0,0.9-0.2,1.6-0.9,2.2c-0.2,0.2-0.3,0.3-0.5,0.5
		c-0.4,0.4-0.9,0.6-1.4,0.6c-0.4,0-0.9,0-1.3,0c-0.4,0-0.8,0-1.2,0.1c-0.6,0.1-1.1,0.3-1.6,0.7c-0.4,0.3-0.8,0.6-1.2,0.9
		c-1.2,0.9-2.7,0.9-4.1,0.8c-0.3,0-0.5-0.2-0.8-0.3c-0.2-0.1-0.3-0.3-0.5-0.4c-0.5-0.3-0.8-0.3-1.2,0.2c-0.8,1.1-0.9,2.3-0.6,3.5
		c0.1,0.4,0.3,0.8,0.4,1.2c0.3,0.9,0.4,1.8,0.4,2.7c0,1-0.5,1.8-1.3,2.3c-0.7,0.4-1.4,0.7-2.2,0.8c-0.8,0.1-1.7,0.1-2.5,0
		c-1-0.2-1.9-0.7-2.7-1.3c-0.7-0.6-1-1.5-1.1-2.4c0-0.6,0-1.1,0.1-1.7c0-0.5,0.2-1,0.2-1.5c0-0.2,0-0.3,0-0.5c0-0.3-0.4-0.5-0.7-0.3
		c-0.2,0.1-0.4,0.3-0.5,0.4c-0.6,0.5-1.3,0.8-2.1,0.8c-0.8,0-1.5,0.2-2.3,0c-0.3-0.1-0.6-0.2-0.9-0.3c-0.6-0.3-1-1-0.8-1.7
		c0-0.2,0.1-0.4,0.2-0.5c0.1-0.2,0.3-0.3,0.5-0.5c0.6-0.6,1.2-1.2,1.7-1.9c0.1-0.2,0.3-0.4,0.5-0.6c0.1-0.1,0.3-0.2,0.3-0.4
		c0.4-0.8,1-1.4,1.5-2.1c0.3-0.4,0.7-0.8,0.9-1.2c0.6-1,1.3-1.9,1.8-2.9c0.2-0.4,0.4-0.8,0.7-1.1c0.6-0.9,0.7-1.9,0.6-2.9
		c0-0.4-0.4-0.6-0.8-0.5c-0.1,0-0.2,0-0.2,0.1c-0.6,0.3-1.2,0.6-1.7,1c-0.8,0.5-1.6,1-2.3,1.6c-0.2,0.2-0.4,0.3-0.7,0.4
		c-0.4,0.2-0.8,0.4-1.2,0.6c-0.5,0.3-1.1,0.5-1.7,0.6c-0.8,0.1-1.5,0.2-2.3,0.3c-1,0-2.1-0.1-3.1-0.4c-0.4-0.1-0.7-0.3-1-0.5
		c-0.3-0.3-0.6-0.5-0.9-0.8c-0.7-0.8-0.8-1.8-0.2-2.6c0.1-0.2,0.3-0.4,0.4-0.6c0.5-1.1,1.3-1.8,2.2-2.6c0.4-0.4,0.9-0.7,1.4-1
		c0.6-0.5,1.2-0.9,1.7-1.4c0.5-0.4,0.9-0.9,1.4-1.4c0.8-0.8,1.5-1.6,2.2-2.5c0.2-0.2,0.3-0.4,0.4-0.6c0.1-0.2,0.2-0.4,0.3-0.5
		c0.7-0.7,1.1-1.6,1.6-2.4c0.3-0.4,0.5-0.9,0.6-1.4c0.2-0.7,0.4-1.4,0.8-2.1c0.2-0.5,0.4-1,0.5-1.6c0.2-0.9,0.6-1.6,1.1-2.3
		c1.7-2.1,3.5-4.1,5.4-6.1c0.3-0.4,0.7-0.7,1.2-0.9c0.3-0.1,0.6-0.4,0.9-0.6c0.4-0.3,0.8-0.4,1.3-0.5c0.9-0.1,1.9-0.2,2.8,0.3
		c1,0.7,2.2,1.1,3,2.1c0.1,0.1,0.3,0.3,0.4,0.4c1.4,1.3,1.9,2.9,1.5,4.7c-0.4,1.8-0.5,1.9-1.8,3.2c-0.7,0.6-1.3,1.3-2.1,1.7
		c-0.1,0-0.2,0.1-0.3,0.2c-0.5,0.5-1.2,0.7-1.8,0.8c-1,0.1-1.9,0.4-2.8,0.9c-0.4,0.2-0.9,0.4-1.5,0.4c-0.7,0-1.3,0.3-1.9,0.7
		c-0.8,0.7-1.7,1.2-2.6,1.8c-0.9,0.6-1.6,1.3-2.3,2.1c-0.9,1.2-1.8,2.4-2.8,3.5c-0.1,0.1-0.3,0.3-0.4,0.5c-0.1,0.2-0.1,0.3,0.1,0.5
		c0.1,0.1,0.3,0.2,0.5,0.1c0.1,0,0.2-0.1,0.3-0.1c0.5-0.4,1.1-0.6,1.7-0.8c0.2-0.1,0.5-0.2,0.7-0.3c1.2-0.9,2.4-1.7,3.5-2.8
		c0.9-1,1.8-1.9,2.7-2.7c1-0.8,2-1.5,3.4-1.4c1.7,0,3.3-0.3,5-0.8c0.6-0.2,1.2-0.3,1.7-0.4c0.4-0.1,0.9-0.1,1.3,0
		c0.5,0.1,0.8,0.5,0.8,1c0,0.4-0.2,0.8-0.4,1.1c-0.5,0.5-1.1,1-1.6,1.6c-0.1,0.1-0.3,0.2-0.4,0.3c-0.7,0.4-1.5,0.8-2.2,1.2
		c-0.3,0.2-0.6,0.4-0.8,0.7c-0.5,1-1.2,1.9-1.5,3.1c-0.1,0.2-0.1,0.4-0.1,0.7c-0.1,0.7,0.1,1.2,0.5,1.7c0.1,0.1,0.2,0.2,0.3,0.3
		c0.7,0.8,0.7,1.6,0.1,2.4c-0.3,0.4-0.6,0.8-0.9,1.1c-0.1,0.1-0.2,0.2-0.3,0.3c-0.5,0.7-0.3,1.2,0.5,1.5c0.7,0.3,1.4,0.6,2.1,0.8
		c0.5,0.2,1,0.5,1.4,0.8c0.7,0.4,1.4,0.8,2.1,1.1c0.6,0.3,1,0,1.2-0.6c0-0.1,0-0.2,0-0.3c0.1-2,0.3-3.9,0.4-5.9
		c0.1-1.5,0.1-3,0.2-4.5c0-1,0.1-2,0.2-3c0.1-0.6,0.2-1.2,0.4-1.8c0.4-1.3,0.6-2.6,0.7-4c0-0.8,0.1-1.7,0.2-2.5
		c0.1-0.6,0.2-1.1,0.5-1.6c0.4-0.9,0.6-1.8,0.7-2.7c0.1-1.3,0.3-2.5,0.4-3.8c0.1-0.7,0.3-1.4,0.5-2.1c0.2-0.5,0.3-1,0.4-1.6
		c0.1-0.6,0.3-1.1,0.5-1.6c0.2-0.5,0.5-1.1,0.6-1.7c0.2-0.7,0.5-1.4,0.9-2c0.6-1,1.1-2,1.6-3c0.6-1.3,1.4-2.5,2.1-3.8
		c0.2-0.4,0.4-0.7,0.4-1.2c0-0.5-0.1-0.9-0.6-1.1c-0.6-0.3-1.2-0.7-1.6-1.2c-0.1-0.1-0.2-0.2-0.3-0.2c-0.7-0.4-1.2-1-1.9-1.5
		c-0.4-0.3-0.6-0.8-0.6-1.3c0-0.8,0.2-1.6,0.9-2.2c0.4-0.4,0.8-0.7,1.3-1c0.9-0.6,1.8-1,2.8-1.3c0.2-0.1,0.5-0.2,0.7-0.4
		c0.5-0.3,1.1-0.5,1.7-0.7c0.6-0.2,1.2-0.4,1.7-0.6c0.6-0.3,1.3-0.6,2-0.7c0.7-0.1,1.3-0.3,1.9-0.6c0.6-0.3,1.3-0.5,2-0.6
		c0.7-0.1,1.4-0.3,2-0.5c1.2-0.5,2.3-0.1,3.3,0.6c0.5,0.4,0.7,0.9,0.7,1.6c-0.1,0.5-0.2,0.9-0.4,1.3c-0.2,0.5-0.5,0.9-0.7,1.4
		c-0.2,0.3-0.4,0.7-0.7,1c-0.5,0.6-0.9,1.2-1.5,1.7c-0.5,0.5-1,0.9-1.6,1.3c-1.4,1.1-3,2.1-4.3,3.4c-0.4,0.5-0.9,0.9-1.4,1.3
		c-0.7,0.7-1.2,1.6-1.8,2.4c-0.2,0.3-0.3,0.6-0.4,0.9c-0.2,0.5-0.4,0.9-0.6,1.4c-0.2,0.5-0.5,1-0.6,1.5c-0.2,0.5-0.4,1-0.7,1.5
		c-0.3,0.5-0.4,1-0.6,1.5c-0.1,0.3-0.2,0.7-0.4,1c-0.3,0.4-0.5,0.9-0.6,1.4c-0.1,0.5-0.3,1-0.6,1.4c-0.5,0.9-0.9,1.8-1,2.8
		c-0.1,0.8-0.3,1.6-0.6,2.3c-0.3,0.9-0.5,1.8-0.5,2.8c0,0.2,0,0.3,0,0.5c-0.4,2-0.6,4-1,6c-0.2,1.1-0.3,2.1-0.4,3.2
		c-0.1,1.3-0.3,2.6-0.6,3.9c-0.4,1.4-0.5,2.8-0.6,4.2c0,0.4-0.1,0.9-0.1,1.3c-0.1,1.2-0.1,2.4,0.3,3.6c0.1,0.4,0.3,0.9,0.7,1.2
		c0.3,0.3,0.7,0.3,0.9-0.1c0.1-0.2,0.2-0.4,0.2-0.6c0.1-0.7,0.3-1.3,0.7-1.8c0.3-0.5,0.5-1,0.6-1.6c0.1-0.5,0.3-0.9,0.5-1.3
		c0.9-1.1,0.8-2.4,0.5-3.7c-0.1-0.3-0.2-0.5-0.2-0.7c-0.2-0.5-0.1-1,0.2-1.6c0.6-1.1,1.4-1.6,2.7-1.4c0.6,0.1,1.1,0.2,1.5,0.5
		c0.5,0.4,1.1,0.6,1.7,0.8c0.9,0.3,1.6,1,2.2,1.6c0.6,0.7,0.6,2,0,2.7c-0.4,0.5-0.9,0.9-1.6,1.2c-1.3,0.5-2.3,1.4-3.1,2.5
		c-0.1,0.2-0.2,0.3-0.4,0.5c-0.8,0.8-1.1,1.9-1.5,3c-0.2,0.5,0,0.9,0.4,1.3c0.4,0.4,0.9,0.5,1.4,0.6c1,0.3,1.9,0.6,2.9,0.8
		c0.5,0.2,1,0.4,1.5,0.7c0.9,0.7,1.1,1.3,0.6,2.3c-0.3,0.6-0.3,1.1-0.1,1.6c0.1,0.2,0.1,0.4,0.2,0.6c0.1,0.2,0.1,0.4,0.3,0.5
		c0.3,0.4,0.7,0.4,1,0.1c0.5-0.4,0.8-1,0.9-1.6c0-0.3,0-0.6,0-0.9C412.1,417.2,412.1,416.1,412,414.9
		C412.1,414.9,412.1,414.9,412,414.9z M382.6,420.7c0.2,0,0.4,0,0.5,0c0.5-0.1,0.8-0.4,0.8-0.9c0-0.4-0.3-0.7-0.8-0.8
		c-0.6-0.1-1.2,0.2-1.5,0.7c-0.2,0.3,0,0.7,0.3,0.8C382.2,420.6,382.4,420.6,382.6,420.7z"/>
	<path d="M506.8,436.1c-1.3-0.1-2.6-0.3-4-0.5c-0.4,0-0.7-0.1-1.1-0.2c-1.2-0.4-2.5-0.5-3.7-0.6c-2.3-0.2-4.7-0.3-7-0.5
		c-1.2-0.1-2.3-0.4-3.5-0.6c-0.6-0.1-1.3-0.2-2-0.3c-1-0.1-2-0.3-2.9-0.8c-0.5-0.2-1.1-0.4-1.6-0.5c-0.7-0.2-1.3-0.4-1.9-0.7
		c-0.5-0.3-1.1-0.5-1.7-0.6c-0.8-0.2-1.5-0.4-2.2-0.7c-0.5-0.2-1.1-0.4-1.6-0.5c-1.4-0.3-2.8-0.5-4.1-1c-0.5-0.2-1-0.2-1.5-0.3
		c-1.1-0.1-2.2-0.3-3.3-0.7c-0.9-0.3-1.9-0.5-2.9-0.6c-2.6-0.3-5.3-0.3-7.9-0.2c-0.7,0-1.3,0.1-2,0.2c-0.7,0.1-1.4,0.3-2.1,0.6
		c-0.6,0.3-1.3,0.4-2,0.4c-0.9-0.1-1.6-0.5-2.1-1.2c-0.4-0.7-0.4-1.7,0.2-2.3c0.5-0.6,1.1-1.1,1.6-1.6c0.3-0.3,0.7-0.6,1-0.8
		c0.1-0.1,0.2-0.2,0.3-0.2c1-0.5,1.8-1.2,2.9-1.5c0.5-0.2,0.9-0.4,1.2-0.8c1.3-1.2,2.6-2.3,3.9-3.5c1.6-1.5,3.2-2.9,4.5-4.6
		c0.5-0.7,1.1-1.3,1.7-1.9c0.5-0.6,1-1.3,1.6-1.9c0.3-0.4,0.7-0.8,1-1.2c0.4-0.4,0.5-0.9,0.4-1.4c-0.1-0.4-0.3-0.5-0.6-0.2
		c-0.9,0.8-1.9,1.4-2.9,2.2c-0.6,0.5-1.2,1-1.8,1.6c-0.2,0.2-0.4,0.6-0.6,0.9c-0.2,0.4-0.4,0.8-0.6,1.2c-0.2,0.3-0.4,0.6-0.5,0.9
		c-0.3,0.7-0.8,1.2-1.5,1.6c-0.4,0.2-0.8,0.5-1.2,0.7c-0.4,0.3-0.9,0.4-1.4,0.5c-1,0.2-1.9,0.2-2.8-0.3c-1.2-0.7-1.7-2.1-0.9-3.3
		c0.4-0.6,0.6-1.2,0.9-1.7c0.6-1.1,1.1-2.2,1.8-3.2c0.1-0.1,0.2-0.2,0.2-0.4c0.8-1.6,2-2.9,3-4.4c0.1-0.2,0.3-0.4,0.5-0.6
		c0.2-0.2,0.4-0.4,0.5-0.6c0.2-0.4,0.5-0.7,0.8-1.1c0.3-0.3,0.5-0.5,0.3-0.9c-0.1-0.3-0.5-0.4-1-0.2c-0.4,0.1-0.8,0.3-1.1,0.5
		c-0.4,0.3-0.8,0.5-1.3,0.6c-0.5,0.1-1,0.3-1.4,0.7c-0.3,0.2-0.6,0.4-1,0.5c-0.5,0.2-0.9,0.4-1.3,0.8c-0.1,0.1-0.2,0.1-0.3,0.2
		c-1,0.5-1.8,1.2-2.7,1.7c0,0-0.1,0.1-0.1,0.1c-0.9,0.6-1.8,1.3-2.6,1.9c0,0-0.1,0.1-0.1,0.1c-0.9,0.5-1.6,1.2-2.5,1.7
		c-0.1,0.1-0.2,0.1-0.4,0.2c-0.8,0.6-1.6,1.3-2.4,1.9c-0.7,0.6-1.4,1.1-2.1,1.7c-0.1,0.1-0.2,0.1-0.3,0.2c-0.7,0.9-1.8,1.2-2.7,1.8
		c-0.4,0.3-0.9,0.3-1.4,0.2c-1.1-0.2-1.6-1.2-1.1-2.2c0.3-0.6,0.7-1.1,1.1-1.6c0.2-0.3,0.6-0.7,0.8-1c0.4-0.6,0.9-1.1,1.5-1.5
		c1.8-1.3,3.4-2.8,5-4.4c1.2-1.2,2.5-2.3,3.7-3.4c0.4-0.4,0.9-0.8,1.3-1.2c0.5-0.5,1.1-0.9,1.6-1.4c0.7-0.5,1.3-1.1,2-1.5
		c0.2-0.1,0.3-0.3,0.5-0.4c0.1-0.1,0.3-0.3,0.5-0.4c1-0.5,1.8-1.4,2.8-1.8c0.2-0.1,0.3-0.2,0.4-0.3c0.4-0.3,0.7-0.6,1.2-0.9
		c0.8-0.5,1.2-1.2,1.2-2.1c0-0.5,0.1-0.9,0.1-1.4c0.1-0.7,0.2-1.3,0.5-1.9c0.1-0.1,0.1-0.3,0.1-0.5c0-0.5-0.2-0.8-0.7-1
		c-0.4-0.1-0.7-0.2-1.1-0.1c-0.4,0.1-0.8,0.3-1.2,0.5c-0.4,0.2-0.8,0.4-1.2,0.5c-0.5,0.2-1.1,0.3-1.7,0.5c-0.5,0.1-1,0.1-1.5,0
		c-0.2-0.1-0.4-0.1-0.6-0.2c-0.7-0.2-1.2-0.6-1.7-1.1c-0.6-0.6-1.1-1.2-1.4-2c-0.2-0.4-0.2-0.9-0.2-1.3c0.1-0.6,0.4-1,1-1.2
		c0.6-0.2,1.1-0.6,1.6-1c0.2-0.2,0.4-0.3,0.6-0.4c0.2-0.1,0.4-0.3,0.7-0.4c0.9-0.6,1.7-1.2,2.6-1.9c0.2-0.2,0.5-0.3,0.7-0.5
		c0.3-0.2,0.6-0.4,0.9-0.6c0.3-0.3,0.7-0.5,1-0.8c1.2-1,2.4-1.9,3.3-3.2c0.2-0.3,0.3-0.7,0.4-1.1c0-0.2,0.1-0.4,0.1-0.6
		c0.1-1.4,0.1-2.9,0.2-4.3c0.1-0.9,0.2-1.8,0.2-2.6c0.2-2.5,0.3-5,0.2-7.5c-0.1-1.9-0.3-3.8-0.3-5.7c0-0.7,0.1-1.3,0.4-1.9
		c0.2-0.3,0.2-0.7,0.2-1.1c0-0.2,0-0.5,0-0.7c0.1-0.8,0.6-1.4,1.4-1.5c0.9-0.1,1.9-0.3,2.8-0.4c0.2,0,0.5-0.1,0.7-0.1
		c1.1,0.1,2.2,0.2,3.2,0.4c0.8,0.1,1.5,0.4,2,1.1c0.2,0.2,0.4,0.4,0.5,0.6c0.9,0.9,1.8,1.8,2.3,2.9c0.1,0.1,0.1,0.2,0.2,0.3
		c0.9,1.1,1.1,2.4,1,3.8c-0.1,1-0.3,2-0.9,2.9c-0.2,0.4-0.4,0.9-0.5,1.4c-0.2,0.6-0.4,1.2-0.9,1.6c-0.4,0.3-0.7,0.6-1.1,1
		c-0.5,0.5-0.9,0.9-1.4,1.4c-0.3,0.3-0.4,0.7-0.5,1.1c0,0.3,0.2,0.6,0.5,0.6c0.4,0,0.7,0,1-0.2c0.4-0.3,0.9-0.4,1.5-0.3
		c1.3,0.1,2.2,0.8,3.2,1.5c0.3,0.2,0.6,0.5,0.9,0.7c0.1,0.1,0.2,0.2,0.3,0.3c1.1,1.4,1.9,2.9,1.9,4.8c0,0.8-0.3,1.5-1,2.1
		c-0.7,0.5-1.5,1-2.2,1.5c-1,0.6-2.1,1.1-3,1.8c-0.1,0.1-0.2,0.2-0.4,0.2c-0.8,0.3-1.4,0.9-2,1.5c-0.9,0.9-1.6,1.9-1.9,3.2
		c-0.2,1.4-0.5,2.8-0.7,4.1c-0.1,0.5-0.1,1-0.1,1.5c0,0.9,0.4,1.6,1.1,2.1c0.3,0.3,0.6,0.3,1,0.2c0.8-0.3,1.7-0.6,2.4-1.1
		c0.2-0.1,0.5-0.2,0.7-0.3c0.6-0.2,1.1-0.5,1.6-0.8c0.4-0.3,0.8-0.4,1.2-0.6c0.4-0.2,0.8-0.3,1.1-0.6c0.7-0.6,1.6-0.6,2.3-0.2
		c0.6,0.4,1.3,0.8,1.8,1.3c0.7,0.6,0.8,1.4,0.2,2.2c-0.1,0.1-0.2,0.2-0.3,0.3c-0.6,0.5-1.2,1-1.9,1.5c-0.2,0.2-0.5,0.4-0.7,0.6
		c-0.1,0.1-0.2,0.2-0.3,0.3c-0.9,0.6-1.8,1.1-2.6,1.8c-1,0.8-2.1,1.3-3.1,2c-0.1,0.1-0.2,0.2-0.3,0.2c-1.1,0.4-2,1.3-3.1,1.7
		c-0.2,0.1-0.4,0.2-0.5,0.3c-0.5,0.5-0.9,0.9-1.3,1.4c-0.7,0.8-1.3,1.5-1.9,2.3c-0.8,1-1.6,1.9-2.2,3c-0.2,0.3-0.4,0.7-0.5,1
		c-0.1,0.4,0.1,0.7,0.6,0.6c0.2,0,0.3-0.1,0.5-0.2c0.3-0.1,0.6-0.2,0.9-0.2c0.3-0.1,0.7,0,1,0.1c0.1,0.1,0.2,0.1,0.3,0.2
		c0.3,0.1,0.5,0.1,0.6-0.2c0.1-0.1,0.1-0.3,0.1-0.4c0.2-0.9,0.7-1.5,1.5-1.9c0.5-0.3,1.1-0.5,1.7-0.7c0.3-0.1,0.6-0.1,0.8-0.1
		c0.9,0.1,1.7,0.6,2.4,1.3c0.3,0.3,0.3,0.7,0.2,1.1c-0.1,0.2-0.2,0.4-0.2,0.5c-0.3,0.6-0.5,1.2-0.8,1.7c-0.2,0.3-0.3,0.7-0.5,1
		c-0.1,0.1-0.2,0.3-0.3,0.4c-0.4,1-1.1,1.8-1.7,2.8c-0.2,0.3-0.3,0.5-0.5,0.8c-2.8,2.9-5.5,5.8-8.4,8.6c-0.2,0.2-0.5,0.4-0.7,0.6
		c-0.1,0.1-0.3,0.3-0.4,0.4c-0.3,0.5-0.1,1.1,0.4,1.2c0.3,0.1,0.6,0.1,0.9,0.1c0.7-0.1,1.3-0.1,2,0c0.2,0,0.4,0,0.6,0
		c1.4,0,2.9,0.2,4.3,0.3c2.1,0.2,4.3,0.4,6.4,0.6c2.5,0.2,5,0.4,7.4,0.8c1.4,0.2,2.8,0.3,4.3,0.4c1.1,0.1,2.2,0.2,3.3,0.3
		c0.5,0,0.9,0.1,1.4,0.1c1.5,0,3,0.2,4.4,0.6c0.7,0.2,1.4,0.3,2.1,0.4c1.1,0.1,2.1,0.3,3.2,0.6c1.4,0.4,2.7,0.5,4.1,0.6
		c1.3,0.1,2.5,0.3,3.8,0.4c0.5,0,0.9,0.1,1.4,0.1c0.6,0,1.3,0,1.9,0c1.7,0,3.4-0.2,5.1-0.3c1.1-0.1,2.2-0.1,3.3-0.1
		c0.6,0,1.1,0.2,1.6,0.5c0.6,0.3,0.9,0.8,1,1.5c0,0.8-0.2,1.5-0.5,2.2c-0.2,0.5-0.5,0.9-0.7,1.4c-0.1,0.1-0.1,0.2-0.2,0.3
		c-0.7,0.7-1.4,1.5-2.4,2c-0.6,0.3-1.3,0.6-1.9,0.8c-0.5,0.2-1.1,0.3-1.7,0.4c-0.9,0.2-1.8,0.4-2.7,0.7c-1,0.4-2.1,0.5-3.2,0.7
		C508.2,436,507.5,436,506.8,436.1z M469.2,363.7C469.2,363.6,469.2,363.6,469.2,363.7C469.1,363.6,469.1,363.6,469.2,363.7
		C469.1,363.6,469.1,363.7,469.2,363.7C469.1,363.7,469.1,363.7,469.2,363.7z"/>
	<path d="M567.3,417.2c1.7,0,3.3-0.2,5-0.4c0.2,0,0.3-0.1,0.5-0.1c1.8,0,3.5-0.7,5.2-1.3c0.6-0.2,1.3-0.5,2-0.6c1-0.1,2-0.4,2.8-1
		c0.2-0.1,0.4-0.2,0.5-0.2c0.6-0.2,1.1-0.6,1.5-1.2c0.5-0.7,1-1.4,1.5-2.1c0.1-0.2,0.3-0.3,0.5-0.5c0.3-0.3,0.7-0.6,1-0.9
		c0.4-0.4,0.9-0.6,1.4-0.6c1.2-0.1,2.1,0.4,2.7,1.4c0.3,0.4,0.4,0.9,0.3,1.4c-0.2,0.7,0,1.3,0.3,1.9c0.5,0.7,0.5,1.5,0.4,2.3
		c-0.1,0.7-0.3,1.4-0.4,2.1c-0.1,0.7-0.6,1.2-1.3,1.3c-0.4,0.1-0.9,0.1-1.4,0.2c-0.8,0.2-1.7,0.3-2.5,0.5c-1.4,0.4-2.8,0.6-4.2,0.8
		c-0.8,0.1-1.6,0.3-2.3,0.6c-1.2,0.5-2.4,0.6-3.7,0.8c-1.2,0.2-2.3,0.3-3.5,0.5c-1.9,0.4-3.8,0.5-5.7,0.7c-0.6,0-1.1,0.1-1.7,0.1
		c-1.6,0.1-3.2,0-4.8-0.3c-0.3-0.1-0.6-0.2-0.9-0.4c-0.2-0.1-0.4-0.3-0.7-0.4c-1-0.4-1.8-0.9-2.6-1.5c-0.9-0.7-1.7-1.5-2.2-2.5
		c-0.1-0.1-0.1-0.2-0.2-0.3c-0.7-0.8-1-1.8-1.1-2.8c-0.2-1-0.3-2-0.2-3c0-0.3,0-0.6,0-0.9c-0.1-0.4-0.4-0.6-0.7-0.3
		c-0.4,0.3-0.7,0.6-0.9,1.1c-0.3,0.6-0.6,1.2-1,1.7c-0.2,0.2-0.3,0.5-0.5,0.7c-0.2,0.3-0.5,0.7-0.8,1c-0.7,0.9-1.5,1.8-1.9,2.8
		c-0.1,0.2-0.2,0.4-0.3,0.5c-0.5,0.6-0.8,1.2-1.1,1.9c-0.1,0.2-0.2,0.4-0.4,0.6c-0.9,1.1-1.5,2.4-1.9,3.7c-0.3,1-0.9,1.6-1.9,1.8
		c-0.5,0.1-1,0.2-1.4,0.2c-1,0.1-2,0.3-2.8,1c-0.5,0.4-1.1,0.7-1.6,1.1c-0.5,0.4-1.1,0.6-1.7,0.7c-0.5,0.1-1,0-1.5,0
		c-0.1,0-0.2,0-0.3-0.1c-1.1-0.3-2.1-1.6-2.1-2.7c0-0.8,0.2-1.6,0.5-2.3c0.3-0.6,0.5-1.2,0.6-1.9c0.1-0.7,0.4-1.3,0.8-1.9
		c0.2-0.4,0.4-0.8,0.5-1.3c0.2-0.6,0.4-1.2,0.8-1.7c0.3-0.4,0.4-0.8,0.5-1.3c0.1-0.6,0.4-1.1,0.7-1.7c0.2-0.4,0.4-0.9,0.6-1.3
		c0.2-0.7,0.4-1.4,0.8-2c0.3-0.4,0.4-0.8,0.4-1.3c0.1-0.7,0.3-1.3,0.8-1.9c0.1-0.1,0.2-0.3,0.3-0.5c0.2-0.9-0.2-1.4-1.1-1.3
		c-0.4,0-0.7,0.1-1.1,0.2c-0.4,0.1-0.9,0.2-1.3,0.4c-0.6,0.2-1.2,0.1-1.8-0.1c-1-0.4-1.9-1-2.7-1.8c-0.6-0.7-0.7-1.4-0.5-2.2
		c0.1-0.3,0.3-0.6,0.5-0.8c0.7-0.6,1.1-1.5,1.7-2.3c0.2-0.7,0.7-1.3,1.1-1.8c0.1-0.2,0.2-0.4,0.3-0.5c0.2-0.6,0.5-1.2,0.9-1.7
		c0.2-0.2,0.3-0.5,0.3-0.8c0.1-0.3,0.1-0.6,0.2-0.9c0.1-0.4,0.2-0.7,0.4-1c0.4-0.5,0.5-1.1,0.5-1.7c0-0.5,0.1-1.1,0.1-1.6
		c0-0.1,0-0.3,0-0.4c-0.1-0.4-0.3-0.7-0.7-0.8c-0.4-0.1-0.7-0.1-1.1-0.2c-0.3,0-0.7,0-1,0c-0.7,0-1.3-0.2-1.9-0.6
		c-0.1,0-0.1-0.1-0.2-0.1c-1.8-1.1-1.6-0.9-2.7-2.6c-0.8-1.2-1.1-2.6-0.7-4c0.2-1,0.5-1.9,0.9-2.7c0.3-0.7,0.6-1.4,0.9-2
		c0.4-0.9,0.9-1.7,1.4-2.6c0.7-1.2,1.6-2.3,2.4-3.4c0.5-0.6,1-1.2,1.6-1.8c1.1-1.2,2.3-2.5,3.5-3.7c0.3-0.4,0.7-0.7,1-1.1
		c0.3-0.3,0.5-0.5,0.8-0.8c1-0.9,1.9-1.9,2.9-2.8c0.6-0.6,1.2-1.3,1.7-1.9c0.9-1.1,2-2,3.5-2.3c0.7-0.1,1.4-0.3,2.1-0.3
		c0.7,0,1.3,0.2,1.8,0.7c0.2,0.2,0.3,0.3,0.5,0.5c0.6,0.7,1.2,1.4,1.8,2.1c0.1,0.2,0.2,0.3,0.3,0.5c0.3,0.5,0.5,1,0.8,1.4
		c0.7,1,0.7,2.2,0.5,3.3c0,0.1-0.1,0.2-0.1,0.3c-0.6,0.8-1.2,1.7-2.3,2.2c-0.6,0.2-1.1,0.5-1.6,0.8c-0.4,0.2-0.9,0.4-1.4,0.5
		c-0.5,0.2-1,0.4-1.5,0.7c-0.4,0.2-0.8,0.4-1.2,0.6c-0.5,0.2-1,0.5-1.4,0.9c-0.8,0.8-1.6,1.5-2.2,2.4c-0.5,0.6-1.1,1.2-1.6,1.8
		c-0.7,0.8-1.6,1.6-2.4,2.3c-0.6,0.6-1.1,1.3-1.6,2c-0.3,0.4-0.5,0.9-0.4,1.4c0.1,0.7,0.7,1,1.3,0.6c0.1-0.1,0.3-0.2,0.4-0.3
		c0.8-0.6,1.6-0.9,2.6-0.9c0.1,0,0.1,0,0.2,0c1.1,0.4,2.3,0.6,3.1,1.6c0.1,0.1,0.2,0.3,0.4,0.4c0.8,0.5,1.2,1.3,1.7,2
		c0.2,0.3,0.4,0.7,0.5,1c0.2,0.8,0.3,1.6,0.1,2.5c-0.1,0.6-0.3,1.1-0.7,1.6c-0.3,0.4-0.5,0.8-0.7,1.3c-0.2,0.4-0.4,0.9-0.6,1.3
		c0,0.1-0.1,0.1-0.1,0.2c-0.4,1.1-1.2,2-1.8,3c-0.5,0.8-1.1,1.5-1.7,2.1c-0.4,0.5-0.9,0.9-1.3,1.4c-0.1,0.1-0.2,0.2-0.3,0.4
		c-0.4,0.5-0.1,1.1,0.5,1.2c0.3,0,0.5,0,0.8,0c1.1,0,2,0.4,2.8,1.1c0.4,0.4,0.8,0.8,1.1,1.2c0.6,0.7,0.7,1.6,0.2,2.4
		c-0.4,0.7-0.7,1.5-1,2.3c-0.3,0.8-0.5,1.6-0.5,2.4c0,1.1-0.5,1.7-1.6,1.9c-0.7,0.2-1.1,0.5-1.5,1c-0.9,1-1.5,2.2-2.2,3.4
		c-0.2,0.3-0.3,0.7-0.4,1c-0.2,0.5-0.3,0.9-0.5,1.4c-0.4,0.9-0.7,1.8-0.8,2.7c-0.1,0.8-0.3,1.6-0.6,2.4c-0.1,0.2-0.1,0.5-0.1,0.8
		c0,0.3,0.1,0.5,0.4,0.6c0.3,0.1,0.5,0.1,0.7-0.1c0.5-0.5,1-1,1.5-1.6c0.3-0.4,0.7-0.8,1-1.2c0.6-0.9,1.4-1.7,1.9-2.6
		c0.1-0.1,0.1-0.2,0.2-0.3c0.5-0.7,1-1.4,1.4-2.2c0.1-0.2,0.3-0.4,0.4-0.5c0.2-0.2,0.3-0.5,0.5-0.7c0.1-0.2,0.2-0.4,0.3-0.5
		c0.5-0.6,1-1.3,1.3-2c0.1-0.2,0.2-0.3,0.4-0.5c0.1-0.1,0.3-0.2,0.3-0.4c0.3-0.7,0.7-1.2,1.2-1.7c0.1-0.2,0.2-0.3,0.3-0.5
		c0.2-0.4,0.5-0.8,0.7-1.2c0.1-0.2,0.3-0.4,0.4-0.6c0.3-0.5,0.6-1,0.9-1.4c0.2-0.3,0.4-0.6,0.5-0.9c0.2-0.5,0.4-0.9,0.7-1.2
		c0.3-0.3,0.5-0.7,0.6-1.1c0.1-0.5,0.3-1,0.7-1.4c0.2-0.3,0.4-0.6,0.4-0.9c0-0.4,0.1-0.8,0.2-1.2c0.1-0.5,0.2-1,0.4-1.5
		c0.4-0.9,0.7-1.9,0.8-2.9c0.1-0.8,0.3-1.6,0.6-2.3c0.3-0.7,0.5-1.3,0.6-2.1c0.1-0.5,0.2-1.1,0.5-1.5c0.5-0.9,0.9-1.8,1.2-2.7
		c0-0.1,0.1-0.2,0.1-0.2c0.2-0.6,0.6-0.9,1.3-0.9c0.6,0,1.3,0,1.9,0c0.8,0,1.5,0.3,2.1,0.9c0.6,0.5,1.2,1.1,1.6,1.7
		c0.4,0.6,1,0.8,1.7,0.8c0.3,0,0.6-0.1,0.8-0.4c0.2-0.4,0.5-0.7,0.8-1c0.2-0.2,0.4-0.4,0.6-0.6c0.3-0.4,0.6-0.9,0.9-1.3
		c0.2-0.3,0.4-0.5,0.5-0.9c0.1-0.4,0.3-0.8,0.6-1.1c0.3-0.3,0.5-0.6,0.6-1c0.1-0.2,0.2-0.5,0.3-0.7c0.5-0.6,0.8-1.3,1-2.1
		c0.1-0.4,0.4-0.8,0.6-1.2c0.3-0.7,0.6-1.5,0.9-2.2c0.2-0.5-0.1-0.9-0.6-0.9c-0.3,0-0.5,0-0.7,0.2c-0.8,0.5-1.6,0.8-2.3,1.4
		c-0.2,0.2-0.5,0.3-0.7,0.4c-0.4,0.2-0.8,0.5-1.1,0.7c-0.1,0-0.1,0.1-0.2,0.2c-0.9,0.4-1.7,1.1-2.5,1.6c-0.4,0.2-0.8,0.5-1.1,0.9
		c-0.1,0.1-0.2,0.2-0.4,0.4c-1.3,1.4-1.3,1.4-3,2.2c-0.7,0.3-1.3,0.3-2-0.1c-0.5-0.3-1-0.6-1.5-0.8c-0.7-0.3-1.1-0.8-1.1-1.6
		c0-0.3-0.1-0.7-0.1-1c-0.1-0.3-0.1-0.6-0.2-0.9c-0.2-0.7-0.1-1.1,0.5-1.5c0,0,0,0,0.1,0c1.1-0.6,2.1-1.4,3-2.2
		c0.1-0.1,0.1-0.1,0.2-0.2c0.8-0.6,1.7-1.2,2.5-1.8c0.5-0.4,1.1-0.8,1.6-1.2c0.7-0.5,1.4-0.9,2.1-1.3c0.8-0.5,1.6-0.9,2.4-1.4
		c0.5-0.3,1-0.6,1.5-0.7c0.4-0.1,0.8-0.3,1.2-0.5c0.6-0.4,1.4-0.6,2.1-0.7c1.5-0.3,3.1-0.2,4.6,0c0.6,0.1,1.2,0.3,1.6,0.7
		c0.3,0.2,0.6,0.5,1,0.7c0.5,0.3,0.9,0.7,1.3,1.1c0.3,0.4,0.7,0.9,1,1.2c0.6,0.6,0.8,1.3,0.8,2.1c-0.1,1.3-0.2,2.5-0.7,3.7
		c-0.3,0.7-0.5,1.5-0.7,2.3c-0.1,0.7-0.4,1.3-0.7,1.9c-0.2,0.3-0.3,0.7-0.5,1c-0.2,0.6-0.5,1.1-0.8,1.6c-0.2,0.2-0.3,0.5-0.4,0.8
		c-0.2,0.6-0.5,1.1-0.9,1.6c-0.2,0.2-0.3,0.5-0.5,0.7c-0.4,0.8-1,1.5-1.7,2c-0.7,0.5-1.2,1.1-1.8,1.7c-0.5,0.5-0.9,1-1.3,1.5
		c-0.1,0.1-0.2,0.3-0.3,0.5c-0.3,0.4-0.6,0.8-0.8,1.2c-0.1,0.2-0.3,0.4-0.4,0.6c-0.4,0.8-1,1.4-1.6,2c-0.2,0.2-0.3,0.3-0.5,0.4
		c-0.8,0.5-1.5,1.2-2,1.9c-0.4,0.6-1,1-1.6,1.4c-0.3,0.2-0.7,0.3-1,0.4c-0.3,0.1-0.7,0.1-1,0.2c-0.6,0.1-1.1,0.4-1.4,1
		c-0.5,1.1-0.9,2.3-1,3.5c-0.2,2-0.2,3.9-0.2,5.9c0,0.6,0.2,1.3,0.4,1.9c0.2,0.9,0.5,1.9,0.8,2.8c0.4,1.4,1.2,2,2.7,2.1
		C566.3,417.2,566.8,417.2,567.3,417.2z"/>
	<path d="M182,354.7c-0.1,1.9-0.2,3.8-0.3,5.7c-0.1,1.1-0.2,2.2-0.3,3.2c-0.1,1.2-0.2,2.3-0.3,3.5c-0.1,2.2-0.2,4.5-0.4,6.7
		c-0.1,0.9-0.2,1.9-0.2,2.8c0,1.2,0,2.3,0,3.5c0.1,1.5,0.1,3,0,4.5c-0.1,1.8-0.3,3.5-0.2,5.3c0.1,1.6,0,3.3-0.1,4.9
		c-0.1,1.6-0.3,3.1-0.5,4.7c-0.1,0.7-0.2,1.4-0.3,2c-0.2,0.9-0.6,1.7-1.3,2.4c-0.4,0.4-0.8,0.5-1.2,0.2c-0.5-0.3-1-0.5-1.5-0.9
		c-0.4-0.3-0.8-0.6-1.3-0.9c-0.3-0.2-0.7-0.5-1-0.7c-0.1-0.1-0.2-0.2-0.4-0.3c-1-0.6-1.9-1.4-2.8-2.1c-1-0.8-2.1-1.1-3.4-0.8
		c-1,0.2-1.9,0.4-2.8,0.9c-0.5,0.3-1.1,0.4-1.6,0.5c-0.6,0.1-1.1,0.3-1.7,0.6c-0.5,0.2-1.1,0.4-1.6,0.6c-0.8,0.2-1.7,0.4-2.5,0.5
		c-1.2,0.2-2.3-0.1-3.2-0.8c-0.4-0.3-0.7-0.8-0.9-1.2c-0.2-0.7-0.5-1.3-0.7-2c-0.3-0.9-0.3-1.7,0.2-2.6c0.2-0.4,0.4-0.7,0.7-1
		c0.6-0.6,1.3-1.3,2-1.9c0.6-0.5,1.3-0.5,1.8,0.1c0.1,0.1,0.2,0.2,0.4,0.4c0.3,0.4,0.7,0.4,1.2,0.3c0.3-0.1,0.6-0.3,0.9-0.4
		c0.5-0.3,1.1-0.4,1.6-0.6c0.6-0.1,1.2-0.3,1.7-0.5c0.9-0.3,1.7-0.2,2.6,0.1c1.5,0.6,2.5,1.6,3.3,3c0.1,0.2,0.3,0.5,0.5,0.7
		c0.3,0.3,0.5,0.6,0.8,0.9c0.2,0.2,0.3,0.4,0.6,0.5c0.5,0.3,1,0.4,1.5,0.1c0.5-0.3,0.9-0.7,0.8-1.4c0-0.2,0-0.3-0.1-0.5
		c-0.4-1.1-0.3-2.2-0.2-3.2c0.3-1.9,0.4-3.8,0.5-5.7c0.1-2.2,0.1-4.3,0.2-6.5c0-1.3,0.2-2.5,0.3-3.8c0-0.6,0.1-1.3,0.1-1.9
		c0-1.3,0-2.5,0-3.8c0-0.7,0.1-1.4,0.1-2.1c0-0.3,0.1-0.7-0.2-0.9c-0.3-0.2-0.6,0-0.8,0.2c-0.6,0.4-1.2,0.7-1.8,0.9
		c-0.3,0.1-0.6,0.4-0.8,0.6c-0.7,0.8-1.5,1.5-2.2,2.3c-0.7,0.8-1.4,1.5-2,2.3c-0.6,0.7-1.2,1.4-1.8,2.2c-0.1,0.2-0.2,0.3-0.3,0.5
		c-0.5,0.9-0.2,1.6,0.9,1.7c0.2,0,0.5,0,0.7,0c1.1,0.1,2.3,0.2,3.4,0.7c0.7,0.3,1.3,0.6,1.9,1c0.4,0.2,0.6,0.5,0.7,0.9
		c0.4,1.5,0.6,3.1,0.2,4.7c-0.1,0.5-0.4,0.9-0.7,1.2c-0.2,0.1-0.3,0.3-0.5,0.4c-1.8,1.1-3.7,1.9-5.9,1.6c-0.2,0-0.4-0.1-0.6-0.1
		c-1.4-0.7-2.5-1.7-2.8-3.3c0-0.2-0.1-0.5-0.2-0.7c-0.1-0.3-0.5-0.4-0.8-0.2c-0.2,0.2-0.3,0.4-0.4,0.6c-0.4,1.2-1.2,2.1-2,3
		c-0.7,0.8-1.4,1.6-2.1,2.4c-0.8,1-1.8,1.7-2.9,2.4c-0.5,0.3-1,0.6-1.5,0.8c-0.2,0.1-0.5,0.2-0.8,0.2c-0.6,0-1.1-0.5-1-1.1
		c0-0.3,0.1-0.6,0.3-0.8c0.4-0.6,0.8-1.2,1.3-1.8c0.1-0.2,0.3-0.3,0.4-0.5c0.6-0.8,1.1-1.7,1.7-2.5c0.7-0.9,1.2-1.8,1.7-2.8
		c0.3-0.7,0.7-1.3,0.9-2c0.1-0.4,0.3-0.8,0.5-1.1c0.5-0.8,0.7-1.8,0.9-2.7c0.1-0.3,0-0.6-0.2-0.9c-0.3-0.6-0.7-1.1-1.4-1.4
		c-0.7-0.3-1.3-0.6-1.9-1c-0.3-0.2-0.6-0.3-0.9-0.5c-0.8-0.5-0.8-1.2-0.1-1.8c0.4-0.3,0.9-0.7,1.4-0.9c0.7-0.3,1.4-0.7,1.9-1.2
		c0.5-0.5,1.2-0.9,1.7-1.5c0.5-0.5,0.9-1,1.3-1.6c0.3-0.4,0.4-0.9,0.4-1.4c0.1-0.7,0.1-1.5,0.1-2.2c0-0.8-0.1-1.7-0.6-2.4
		c-0.1-0.1-0.1-0.1-0.1-0.2c-0.5-1-0.2-2,0.9-2.4c0.3-0.1,0.5-0.2,0.8-0.3c0.6-0.2,1.2-0.4,1.8-0.6c0.6-0.2,1.3-0.4,1.9-0.5
		c0.7-0.1,1.4,0.1,2,0.4c0.6,0.4,1.2,0.8,1.7,1.3c0.3,0.3,0.6,0.6,0.9,0.8c0.6,0.6,1.2,0.9,2,1.1c0.8,0.2,1.6,0.6,2.2,1.1
		c0.5,0.4,0.8,0.8,0.9,1.4c0.1,0.3,0.2,0.6,0.2,0.9c0,0.2,0.1,0.3,0.2,0.5c0.1,0.1,0.3,0.1,0.4,0c0.1-0.2,0.2-0.5,0.2-0.7
		c0-0.5,0-0.9,0-1.4c-0.2-1.4,0-2.9,0.1-4.3c0.1-1.2,0.2-2.4,0.2-3.6c0-1.3-0.2-2.6-0.3-3.8c0-0.5-0.3-0.9-0.6-1.2
		c-0.4-0.3-0.7-0.6-1.1-0.8c-0.3-0.2-0.6-0.3-1-0.3c-1-0.1-1.9,0-2.9,0.4c-0.6,0.2-1.2,0.4-1.8,0.7c-0.4,0.2-0.9,0.3-1.3,0.6
		c-0.5,0.3-1.1,0.5-1.7,0.7c-0.6,0.2-1.1,0.4-1.6,0.7c-0.3,0.2-0.7,0.3-1,0.5c-0.5,0.2-1,0.5-1.5,0.9c-0.2,0.2-0.4,0.3-0.6,0.4
		c-0.4,0.3-0.8,0.5-1.2,0.8c-0.3,0.2-0.5,0.3-0.8,0.5c-0.4,0.2-0.8,0.5-1.3,0.7c-0.8,0.5-1.6,0.6-2.5,0.2c-1.1-0.4-1.4-1.7-0.5-2.5
		c0.8-0.8,1.6-1.6,2.3-2.4c1.2-1.3,2.5-2.5,3.7-3.7c0.7-0.7,1.5-1.4,2.4-2c0.7-0.5,1.4-0.9,2.1-1.3c0.8-0.5,1.7-0.9,2.6-1.4
		c0.9-0.5,1.9-0.9,3-1c0.5-0.1,1.1-0.2,1.6-0.3c0.8-0.2,1.7-0.3,2.5-0.4c1-0.1,1.9,0,2.8,0.4c0.2,0.1,0.3,0.1,0.5,0.2
		c1.6,0.6,1.7,0.6,2.9,1.9c0.7,0.8,1.4,1.8,1.6,2.9c0.2,0.9,0.4,1.7,0.8,2.5c0.4,0.9,0.5,1.9,0.6,2.9
		C182,352.6,181.9,353.6,182,354.7C182,354.7,182,354.7,182,354.7z"/>
	<path d="M105.3,401.9c0-0.4,0-0.8,0-1.2c-0.1-1.4,0.1-2.9,0.2-4.3c0-0.2,0.1-0.5,0.1-0.7c0.1-1.6,0.1-3.2,0.2-4.8
		c0.1-1.9,0.2-3.7,0.6-5.5c0.3-1.1,0.4-2.3,0.4-3.5c0-0.5,0-0.9,0-1.4c0-0.9,0.1-1.9,0.1-2.8c0-0.9,0-1.8,0-2.7c0-3,0-6,0-9
		c0-1,0.1-2,0.1-3c-0.1-1.8-0.1-3.7-0.5-5.5c-0.1-0.5-0.3-0.9-0.4-1.4c-0.2-0.6-0.5-1.2-0.7-1.8c-0.2-0.5-0.4-1.1-0.8-1.5
		c-0.4-0.5-0.7-1.2-1.3-1.6c-0.4-0.4-0.9-0.8-1.3-1.1c-0.7-0.5-1.5-0.6-2.3-0.6c-1,0-2,0.2-3,0.5c-0.8,0.3-1.7,0.5-2.5,0.8
		c-0.7,0.2-1.4,0.4-2.1,0.8c-0.4,0.2-0.9,0.4-1.4,0.5c-0.5,0.2-1.1,0.4-1.5,0.7c-0.1,0.1-0.2,0.2-0.4,0.2c-1,0.4-2,1.1-2.9,1.6
		c-0.6,0.3-1,0.7-1.3,1.3c-0.3,0.8-1,1.2-1.7,1.6c-0.4,0.3-1,0.2-1.4,0c-0.7-0.3-1.3-0.6-1.9-0.9c-0.5-0.3-1-0.6-1.5-0.8
		c-0.6-0.3-1.1-0.7-1.6-1.2c-0.3-0.3-0.5-0.7-0.5-1.2c0-1.1,0.2-2.1,0.9-2.9c0.5-0.6,1.1-1.3,1.6-1.9c0.6-0.6,1.3-1.1,1.9-1.7
		c0.8-0.6,1.6-1.3,2.3-1.9c0,0,0,0,0.1-0.1c1.2-0.6,2-1.6,3.1-2.2c0.4-0.2,0.8-0.5,1.2-0.6c0.6-0.1,1.2-0.4,1.7-0.8
		c0.3-0.3,0.8-0.4,1.2-0.5c0.6-0.1,1.2-0.3,1.6-0.7c0.3-0.3,0.8-0.4,1.3-0.5c0.8-0.1,1.6-0.4,2.3-0.8c0.5-0.3,1.1-0.4,1.6-0.4
		c1.6,0,3.3-0.1,4.9,0.1c0.5,0.1,1,0.2,1.4,0.4c0.6,0.4,1.3,0.6,2.1,0.8c0.5,0.1,0.9,0.3,1.3,0.6c0.4,0.2,0.7,0.5,1.1,0.6
		c0.5,0.2,1,0.6,1.4,1c0.9,0.9,1.8,1.8,2.6,2.8c0.2,0.2,0.4,0.5,0.5,0.7c0.6,1.3,1.1,2.6,1.3,4c0.1,0.8,0.3,1.6,0.5,2.4
		c0.1,0.3,0.1,0.6,0.1,0.9c0,0.6,0.2,1.1,0.4,1.7c0.1,0.4,0.3,0.8,0.3,1.2c0.1,0.6,0.1,1.3,0.1,1.9c0,1.7,0,3.5,0.2,5.2
		c0,0.4,0.1,0.8,0.1,1.2c0,0.4,0,0.8,0,1.2c0,1.2-0.1,2.5-0.1,3.7c0,1.3,0.1,2.5,0.2,3.8c0,0.5,0.2,1,0.3,1.5c0.2,0.9,0.3,1.9,0,2.8
		c-0.5,1.8-0.6,3.7-0.7,5.6c-0.1,1.9-0.2,3.8-0.4,5.7c0,0.5-0.1,1-0.2,1.4c-0.2,2.2-0.2,4.3-0.2,6.5c0,1.3-0.1,2.5-0.3,3.8
		c-0.2,1.1-0.1,2.2,0,3.3c0.2,1.6,0.2,3.2,0,4.8c-0.3,1.8-0.4,3.7-0.4,5.6c0,2.9-0.1,5.9-0.2,8.8c0,1-0.1,2.1-0.1,3.1
		c0,0.9-0.2,1.8-0.5,2.6c-0.2,0.4-0.3,0.9-0.4,1.3c-0.2,0.9-0.7,1.5-1.3,2.2c-0.5,0.5-1.1,0.9-1.9,1c-0.8,0.1-1.6,0.2-2.4,0.1
		c-0.6-0.1-1.2-0.1-1.8-0.1c-0.7,0-1.4-0.1-2-0.4c-0.6-0.2-1.1-0.6-1.4-1.2c-0.1-0.2-0.2-0.4-0.4-0.6c-0.3-0.4-0.6-0.9-1-1.2
		c-0.2-0.2-0.4-0.4-0.6-0.6c-0.5-0.8-0.1-1.7,0.8-1.9c0.2,0,0.5,0,0.7,0c0.3,0,0.5,0,0.8,0c0.8,0,1.2-0.4,1.5-1.1
		c0.2-0.4,0.2-0.9,0.3-1.3c0.2-1.6,0.3-3.2,0.5-4.8c0-0.3,0-0.5,0-0.8c0.1-1.9,0.1-3.8,0.2-5.7c0.1-1.4,0.2-2.8,0.4-4.2
		C105.2,406.8,105.4,404.4,105.3,401.9z"/>
	<path d="M98.2,369.5c0,0.5,0,1,0,1.5c0,0.7-0.2,1.2-0.7,1.7c-0.9,0.9-1.7,1.8-2.6,2.7c-0.8,0.9-1.7,1.7-2.4,2.6
		c-0.3,0.4-0.6,0.7-0.7,1.2c-0.2,0.6-0.4,1-0.8,1.5c-0.1,0.2-0.2,0.4-0.4,0.6c-0.2,0.3-0.5,0.6-0.7,0.8c-0.6,0.5-1.1,1.1-1.7,1.6
		c-0.1,0.1-0.2,0.2-0.3,0.3c-0.1,0.1-0.2,0.3,0,0.5c0.1,0.1,0.3,0.2,0.4,0.2c0.3,0,0.6-0.1,0.8-0.3c0.4-0.4,1-0.6,1.5-0.7
		c0.4-0.1,0.9-0.3,1.2-0.6c0.3-0.3,0.8-0.4,1.2-0.5c0.6-0.2,1.1-0.4,1.7-0.6c1-0.5,2-0.4,3-0.2c0.7,0.1,1.4,0.4,2,0.7
		c1.2,0.5,1.4,1.7,0.6,2.7c-0.7,0.8-1.5,1.6-2.5,2c-0.3,0.1-0.5,0.3-0.8,0.5c-0.4,0.2-0.8,0.5-1.2,0.6c-1.1,0.4-2.1,1.1-2.9,1.9
		c-0.8,0.8-1.5,1.6-2.3,2.4c-0.2,0.3-0.5,0.5-0.7,0.8c-1.4,1.4-2.7,2.8-3.9,4.3c-0.2,0.2-0.3,0.4-0.4,0.6c-0.2,0.3-0.4,0.5-0.5,0.8
		c-0.2,0.4-0.5,0.7-0.7,1.1c-0.2,0.3-0.4,0.6-0.6,0.9c0,0,0,0-0.1,0.1c-0.6,0.9-1.1,1.8-1.7,2.7c-0.2,0.3-0.3,0.7-0.3,1.1
		c-0.1,0.2,0.1,0.5,0.3,0.6c0.2,0.1,0.5,0.1,0.6-0.1c0.3-0.3,0.6-0.6,0.8-0.9c0.9-1.1,1.8-2.1,2.8-3.1c0.3-0.3,0.7-0.5,1-0.8
		c0.1-0.1,0.3-0.2,0.4-0.3c0.6-0.5,1.3-0.8,2-1.1c0.3-0.1,0.5-0.2,0.8-0.3c0.9-0.6,2-0.7,3.1-0.7c0.6,0,1.3,0.2,1.9,0.4
		c0.8,0.2,1.3,0.7,1.9,1.3c0.3,0.3,0.4,0.8,0.3,1.2c-0.3,1.2-0.3,2.5-0.5,3.7c-0.2,1.3-0.7,2.5-1.4,3.7c-0.1,0.2-0.3,0.4-0.5,0.6
		c-1.4,1.4-2.7,2.8-4.3,3.9c-1,0.7-1.9,1.6-2.8,2.6c-0.7,0.7-1.4,1.5-2,2.2c-0.2,0.2-0.3,0.3-0.5,0.5c-0.6,0.9-1.5,1.2-2.4,1.3
		c-1,0-1.8,0.3-2.7,0.8c-0.4,0.2-0.7,0.4-1.1,0.7c-0.7,0.4-1.4,0.7-2.2,0.6c-0.6,0-1.3,0-1.9,0c-0.6,0-1.2-0.3-1.8-0.6
		c-1-0.6-1.7-1.4-2.2-2.3c-0.2-0.3-0.3-0.7-0.4-1.1c-0.1-0.6-0.2-1.3-0.1-1.9c0-1,0.1-2,0.2-3c0.1-0.6,0.2-1.1,0.4-1.7
		c0.3-0.7,0.5-1.5,0.7-2.2c0.1-0.5,0.3-1,0.6-1.5c0.2-0.4,0.4-0.8,0.6-1.2c0.2-0.5,0.4-1,0.7-1.4c0.2-0.3,0.4-0.7,0.6-1
		c0.3-0.4,0.5-0.9,0.8-1.3c0.5-0.7,1-1.4,1.6-2c0.8-0.9,1.7-1.8,2.7-2.6c0.8-0.6,1.6-1.3,2.4-2c1.5-1.3,2.9-2.5,4.5-3.7
		c0.2-0.1,0.4-0.3,0.5-0.4c0.2-0.2,0.3-0.4,0.2-0.7c-0.1-0.4-0.4-0.6-0.8-0.5c-0.2,0.1-0.4,0.2-0.6,0.4c-1.1,0.8-2,1.8-3,2.7
		c-1,1-2.1,1.9-3.2,2.8c-0.5,0.4-1.1,0.7-1.6,1c-0.4,0.2-0.8,0.2-1.2,0.2c-1.7-0.2-3.3-0.7-4.9-1.6c-0.6-0.3-1.1-0.8-1.2-1.5
		c-0.1-0.6-0.1-1.1,0.4-1.5c0.6-0.5,1.1-1,1.9-1.3c0.1,0,0.2-0.1,0.3-0.2c1.1-0.8,2.2-1.5,3-2.5c0.2-0.2,0.4-0.5,0.5-0.8
		c0.1-0.2,0.2-0.4,0.3-0.5c0.5-0.7,0.8-1.4,0.9-2.2c0-0.3,0.2-0.6,0.3-0.9c0.2-0.7,0.1-0.9-0.6-1.2c-0.8-0.3-1.6-0.5-2.4-0.8
		c-0.7-0.3-1.4-0.5-2.1-0.8c-0.8-0.4-1.1-1-1-1.8c0-0.4,0.1-0.7,0.4-1c0.6-0.5,1.1-0.9,1.7-1.4c0.3-0.2,0.6-0.4,0.8-0.6
		c0.6-0.6,1.2-1.2,1.8-1.8c0.7-0.7,1.3-1.5,1.9-2.3c0.3-0.4,0.4-0.9,0.6-1.4c0.3-0.9,0.5-1.8,0.7-2.7c0.1-0.5,0.2-1.1,0.3-1.6
		c0.1-0.6,0.1-1.3,0.2-1.9c0.1-0.5,0.2-1.1,0.5-1.5c0.3-0.6,0.5-1.2,0.7-1.8c0.3-1,0.9-1.9,1.7-2.6c0.3-0.3,0.7-0.5,1-0.8
		c0.5-0.4,1.1-0.5,1.7-0.4c0.7,0.1,1.4,0.4,1.9,0.8c0.4,0.3,0.9,0.7,1.3,1c0.2,0.1,0.3,0.3,0.5,0.5c0.4,0.4,0.7,0.7,1.1,1.1
		c0.2,0.3,0.4,0.6,0.6,0.8c0.4,0.5,0.7,1.1,1.1,1.6c0.2,0.3,0.6,0.5,1,0.6c0.4,0.1,0.8,0.2,1.2,0.3c1.1,0.3,1.9,1,2.5,1.8
		c0.3,0.3,0.4,0.8,0.4,1.2C98.2,368.3,98.2,368.9,98.2,369.5C98.2,369.5,98.2,369.5,98.2,369.5z M81.6,411.7
		C81.6,411.7,81.6,411.7,81.6,411.7c0,0.1,0,0.3,0,0.4c0,0.8,0,1.7,0.2,2.5c0.1,0.2,0.1,0.5,0.2,0.6c0.3,0.5,0.8,0.6,1.3,0.3
		c0.1,0,0.1-0.1,0.2-0.2c1.2-0.9,2.2-2,3.2-3.1c0.5-0.6,1-1.1,1.5-1.7c1-1.2,2-2.4,2.8-3.7c0.3-0.5,0.4-1,0.3-1.5
		c-0.1-0.7-0.6-1.1-1.3-1.2c-0.5,0-0.9,0-1.3,0.2c-0.6,0.2-1.3,0.4-2,0.6c-0.5,0.1-0.9,0.4-1.4,0.7c-1,0.8-2,1.6-2.9,2.5
		c-0.5,0.5-0.8,1-0.8,1.7C81.6,410.5,81.6,411.1,81.6,411.7z"/>
	<path d="M50,411.7c0.1-2.5,0.1-4.6,0.2-6.7c0-1.4,0-2.9,0-4.3c0-1.8,0.2-3.7,0.5-5.5c0.3-1.5,0.5-3,0.5-4.5c0-1.4,0-2.8,0.1-4.2
		c0.1-1.6,0.1-3.1,0.5-4.7c0-0.1,0-0.3,0.1-0.4c0.4-0.8,0.4-1.7,0.4-2.6c0-0.3,0-0.6,0-0.9c0-0.5,0.1-1,0.3-1.5
		c0.3-0.6,0.4-1.3,0.5-2c0.2-1,0.4-2,0.5-3c0.1-1,0.4-2,0.8-2.9c0.2-0.4,0.2-0.8,0.3-1.2c0.1-0.9,0.2-1.8,0.7-2.6
		c0.2-0.3,0.3-0.6,0.3-1c0.2-1.1,0.6-2.1,1.2-3.1c0.4-0.6,0.7-1.1,1-1.7c0.5-0.8,1.1-1.5,1.8-2.2c0.4-0.4,0.8-0.7,1.4-0.9
		c0.2-0.1,0.5-0.2,0.7-0.3c0.9-0.4,1.7-0.4,2.5,0.1c0.4,0.3,0.9,0.5,1.4,0.8c1.5,0.7,2.7,1.8,3.7,3.2c0.3,0.4,0.4,0.8,0.4,1.3
		c0.2,1.8,0.2,3.6,0.1,5.4c0,0.4-0.1,0.9-0.1,1.3c-0.1,0.9-0.3,1.6-0.7,2.4c-0.6,1.2-1.1,2.5-1.7,3.7c-0.1,0.2-0.1,0.4-0.2,0.7
		c-0.2,0.8-0.4,1.6-0.7,2.4c-0.2,0.5-0.3,1-0.5,1.6c-0.2,0.8-0.3,1.5-0.6,2.2c-0.5,1.2-0.7,2.4-0.7,3.7c0,1.7-0.4,3.2-0.8,4.8
		c-0.2,0.7-0.3,1.4-0.4,2.1c-0.2,2.8-0.3,5.5-0.4,8.3c0,1.4-0.1,2.7-0.6,4.1c-0.4,1.3-0.3,2.6,0.3,3.8c0.4,0.8,0.6,1.7,0.8,2.6
		c0.1,0.5,0,0.9-0.1,1.4c-0.2,0.6-0.3,1.2-0.2,1.8c0.1,0.6,0.2,1.2,0.5,1.7c0.3,0.8,0.5,1.6,0.6,2.5c0.1,1.2,0.3,2.4,0.4,3.7
		c0,0.4,0,0.9,0,1.3c0,0.3-0.1,0.6-0.1,0.9c0,0.6,0.1,1.1,0.3,1.7c0.2,0.4,0.3,0.8,0.4,1.1c0.2,0.7,0.1,1.4-0.4,2
		c-0.1,0.2-0.3,0.4-0.4,0.6c-0.3,0.4-0.6,0.6-1.1,0.8c-1,0.3-1.9,0.6-2.9,0.8c-0.6,0.2-1.1,0.2-1.7,0.1c-1.5-0.2-3.1-0.5-4.6-0.7
		c-0.3,0-0.6-0.1-0.8-0.3c-0.3-0.1-0.6-0.4-0.8-0.6c-0.3-0.4-0.6-0.8-0.9-1.2c-0.2-0.3-0.4-0.6-0.5-1c-0.3-1.2-0.8-2.4-1-3.7
		c-0.1-0.7-0.2-1.4-0.2-2.1c-0.1-1.6-0.1-3.2-0.2-4.8C50.1,414.4,50,412.8,50,411.7z"/>
	<path d="M482.8,406.5c0.1-1.3,0.1-2.7,0.2-4c0.1-0.9,0.3-1.8,0.7-2.6c0.2-0.5,0.4-1,0.5-1.5c0.1-0.7,0.3-1.4,0.7-2
		c0.3-0.4,0.4-0.8,0.5-1.3c0.1-0.7,0.4-1.3,0.8-1.9c0.2-0.3,0.4-0.7,0.5-1c0.2-0.6,0.4-1.1,0.8-1.6c0.1-0.2,0.2-0.4,0.3-0.6
		c0.2-0.5,0.4-0.9,0.7-1.4c0.3-0.5,0.6-1.1,0.9-1.6c0.2-0.3,0.1-0.5-0.1-0.7c-0.5-0.3-1-0.7-1.5-1c-0.6-0.3-1.2-0.7-1.8-0.9
		c-0.5-0.2-0.9-0.5-1.3-1c-0.3-0.3-0.5-0.6-0.8-0.9c-0.2-0.2-0.3-0.5-0.4-0.7c-0.4-1-0.7-1.9-0.7-3c0-1.8,0-3.6,0-5.4
		c0-0.6,0.1-1.2,0.2-1.8c0.2-0.9,0.7-1.6,1.5-2.1c0.4-0.2,0.8-0.3,1.2-0.3c0.9,0,1.9,0,2.8,0c1.2,0,2.2-0.3,3.2-1.1
		c0.9-0.7,1.9-1.4,2.9-2.1c0.5-0.3,1.1-0.6,1.6-0.9c1-0.7,2.2-1.1,3.3-1.7c0.3-0.2,0.6-0.3,0.9-0.3c1.5-0.4,3-0.5,4.5-0.3
		c0.5,0.1,1,0.3,1.4,0.7c0.9,0.8,1.8,1.7,2.6,2.6c0.3,0.4,1.3,2.2,1.3,2.7c0.1,0.5,0.1,0.9,0,1.4c0,0.4-0.2,0.7-0.4,0.9
		c-0.3,0.4-0.5,0.9-0.7,1.4c-0.2,0.5-0.4,0.9-0.7,1.3c-0.6,1-1.4,1.6-2.3,2.2c-0.3,0.2-0.7,0.4-1.1,0.6c-0.6,0.2-1.1,0.5-1.6,0.9
		c-0.2,0.2-0.4,0.3-0.7,0.4c-1.2,0.6-2.1,1.5-2.7,2.8c-0.1,0.3-0.3,0.5-0.5,0.8c-0.3,0.4-0.5,0.7-0.7,1.2c-0.5,1.4-1,2.8-1.3,4.3
		c-0.1,0.7-0.3,1.3-0.6,2c-0.4,0.9-0.4,1.9-0.2,2.9c0,0.2,0.1,0.3,0.3,0.4c0.2,0.1,0.3,0,0.4-0.2c0.1-0.1,0.1-0.1,0.2-0.2
		c0.3-0.4,0.7-0.6,1.2-0.5c0.6,0,1.2-0.2,1.8-0.4c1.6-0.7,3.1-0.5,4.6,0.3c0.3,0.2,0.5,0.4,0.8,0.5c0.9,0.5,1.6,1.3,2,2.3
		c0.1,0.1,0.1,0.3,0.2,0.4c0.5,0.7,0.7,1.6,0.7,2.4c0.1,0.8,0.2,1.6,0.3,2.4c0.2,1.4,0,2.7-0.4,4c-0.1,0.3-0.3,0.7-0.5,1
		c-0.2,0.3-0.3,0.6-0.5,0.9c-0.3,0.7-0.6,1.3-0.9,1.9c-0.2,0.4-0.3,0.8-0.4,1.2c-0.1,0.3-0.1,0.7-0.2,1c-0.1,0.5-0.3,1-0.6,1.4
		c-0.3,0.4-0.6,0.9-0.8,1.3c-0.3,0.4-0.6,0.7-1,0.9c-1.2,0.7-2.4,1.3-3.8,1.4c-1,0.1-2,0.4-3,0.7c-2.1,0.6-4.3,0.9-6.5,0.3
		c-1.3-0.4-2.5-0.9-3.8-1.4c-0.7-0.3-1.3-0.7-1.9-1.1c-0.7-0.4-1.2-1-1.6-1.6c-0.2-0.3-0.3-0.7-0.4-1c-0.1-0.5-0.1-1-0.2-1.5
		C482.9,407.7,482.9,407.1,482.8,406.5C482.9,406.5,482.9,406.5,482.8,406.5z M492.6,405.7c0,0.2,0,0.4,0,0.6
		c0.1,1.2,0.7,1.6,1.9,1.2c0.4-0.2,0.8-0.4,1.3-0.5c0.6-0.2,1-0.6,1.2-1.2c0.1-0.4,0.3-0.8,0.6-1.2c0.3-0.4,0.5-0.8,0.6-1.3
		c0.2-0.9,0.4-1.7,0.9-2.5c0.1-0.1,0.1-0.2,0.1-0.2c0.4-1.1-0.7-2.3-1.8-2.1c-0.6,0.1-1.2,0.3-1.7,0.8c-0.2,0.2-0.5,0.4-0.8,0.6
		c-0.8,0.3-1.2,1-1.5,1.7C492.9,402.8,492.7,404.2,492.6,405.7z M493.7,375.5c0.1,0.5,0.2,1.1,0.3,1.7c0.1,0.8,0.3,1.6,0.4,2.4
		c0,0.1,0,0.2,0.1,0.2c0,0.1,0.1,0.2,0.2,0.2c0.1,0,0.3-0.1,0.3-0.1c0.1-0.2,0.1-0.4,0.1-0.7c0.1-0.4,0.1-0.8,0.3-1.3
		c0.1-0.4,0.5-0.8,0.9-1c0.3-0.1,0.6,0,0.7,0.3c0.1,0.2,0.1,0.4,0.2,0.6c0.1,0.2,0.3,0.3,0.6,0.3c0.2,0,0.4-0.2,0.4-0.5
		c0.1-0.2,0-0.5-0.1-0.7c-0.2-0.4-0.3-0.7-0.3-1.1c0.2-1,0.1-2.1,0.6-3.1c0.2-0.4,0-0.8-0.5-0.8c-0.3,0-0.7,0-1,0.1
		c-0.7,0.3-1.4,0.6-2,0.9c-0.6,0.3-0.9,0.8-1,1.5C493.8,374.9,493.8,375.2,493.7,375.5z"/>
	<path d="M328.6,457.3c0-1.9,0.2-3.8,0.4-5.6c0-0.5,0.2-0.9,0.5-1.3c0.4-0.5,0.8-1,1.2-1.5c0.9-0.9,0.9-2.4,0.1-3.4
		c-0.3-0.4-0.7-0.8-1.1-1.2c-0.5-0.5-0.8-1.1-0.9-1.8c-0.1-0.5-0.2-1-0.3-1.4c-0.1-0.6-0.1-1.2,0-1.8c0.1-0.4,0.2-0.9,0.3-1.3
		c0.1-0.5,0.1-1,0-1.5c-0.1-0.5,0-0.9,0-1.4c0-0.8,0.1-1.7,0.1-2.5c0-0.5,0-0.9,0-1.4c0-0.9,0.1-1.7,0.1-2.6c0-1,0-2,0.1-3
		c0.2-4.4,0.1-8.8,0.2-13.2c0-1.6,0.1-3.1,0.2-4.7c0.1-1.4,0.3-2.8,0.8-4.1c0.2-0.6,0.3-1.2,0.4-1.8c0.1-0.9,0.1-1.8,0.2-2.7
		c0.1-0.8,0.1-1.7,0.2-2.5c0.1-0.6,0.3-1.2,0.7-1.7c0.2-0.2,0.3-0.4,0.4-0.7c0.2-0.4,0.4-0.8,0.8-1.1c0.2-0.2,0.5-0.4,0.7-0.6
		c0.4-0.4,0.9-0.7,1.5-0.7c0.7-0.1,1.3-0.3,1.8-0.8c0.2-0.2,0.5-0.3,0.7-0.5c0.5-0.4,0.9-0.8,1.2-1.4c0.1-0.3,0.3-0.5,0.5-0.8
		c0.3-0.3,0.6-0.7,0.7-1.1c0.2-0.4,0.4-0.8,0.7-1.2c0.2-0.2,0.3-0.4,0.4-0.6c0.2-0.6,0.6-1.1,0.9-1.6c0.4-0.5,0.5-1.2,0.5-1.8
		c0-0.6-0.4-1-0.9-1c-0.8,0-1.6,0-2.2,0.4c-0.5,0.3-1,0.5-1.5,0.7c-0.5,0.2-1,0.5-1.5,0.7c-0.4,0.2-0.7,0.4-1.1,0.5
		c-0.5,0.2-1,0.5-1.4,0.9c-0.4,0.4-0.8,0.7-1.2,1.1c-0.5,0.4-1,0.5-1.6,0.5c-0.4,0-0.9,0-1.3,0c-0.6-0.1-1.2-0.3-1.4-1
		c-0.3-0.7-0.2-1.4,0.3-1.9c1-1,2-2,3-3c1.1-1,2.2-2,3.4-2.9c0.2-0.1,0.3-0.3,0.5-0.4c0.8-0.4,1.5-0.8,2.3-1.2
		c0.3-0.1,0.7-0.2,1-0.3c0.6-0.1,1.3-0.3,1.8-0.7c0.3-0.2,0.7-0.3,1-0.4c0.9-0.2,1.7-0.3,2.6-0.3c0.7,0,1.4,0.1,2.1,0.1
		c0.9,0,1.7,0.3,2.4,1c0.2,0.2,0.4,0.5,0.7,0.7c1.1,1.1,1.3,2.5,0.7,3.9c-0.4,1-0.8,1.9-1.5,2.8c-0.1,0.1-0.2,0.2-0.2,0.3
		c-0.4,1.1-1.2,2-1.8,3c-0.5,0.9-1.2,1.7-1.7,2.6c-0.2,0.3-0.5,0.7-0.6,1c-0.3,0.7-0.2,1.1,0.3,1.6c0.4,0.3,0.9,0.7,1.4,0.9
		c1,0.4,1.8,1.1,2.5,1.9c0.4,0.5,0.7,1,0.9,1.6c0.2,0.6,0.3,1.1,0.5,1.6c0.4,1.2,0.4,2.4,0,3.5c-0.2,0.7-0.4,1.4-0.5,2.2
		c-0.1,0.7-0.4,1.4-0.9,2c-0.7,1-1.2,2.1-1.6,3.2c-0.2,0.6-0.5,1.2-1,1.7c0,0-0.1,0.1-0.1,0.1c-0.6,1.1-1.5,1.9-2.5,2.7
		c-0.2,0.2-0.4,0.3-0.6,0.4c-0.6,0.3-1.1,0.6-1.6,1c-0.4,0.3-0.9,0.6-1.5,0.6c-0.9,0.1-1.6,0.6-2.4,1.1c-0.5,0.3-0.7,0.8-0.7,1.4
		c0.1,0.9,0.1,1.7,0.2,2.6c0.3,2,0.3,3.9,0.3,5.9c0,0.5,0,1,0,1.5c0,0.7,0.1,1.4,0.3,2.1c0.6,1.8,0.5,3.7,0.2,5.5
		c-0.1,0.4-0.2,0.8-0.5,1.2c-0.4,0.6-0.6,1.2-0.4,2c0.1,0.7,0.1,1.5,0,2.2c-0.5,3.1-0.9,6.3-0.8,9.5c0,0.9-0.1,1.8-0.4,2.7
		c-0.3,0.9-0.3,1.7-0.2,2.6c0.1,0.8,0.1,1.6-0.1,2.4c-0.2,1-0.3,2-0.1,3.1c0.1,0.8-0.1,1.5-0.7,2.1c-0.3,0.3-0.5,0.6-0.7,1
		c-0.3,0.5-0.7,0.7-1.3,0.7c-0.4,0-0.9,0-1.3,0c-0.5,0-0.9-0.2-1.1-0.7c-0.2-0.8-0.7-1.5-1.1-2.2c-0.4-0.6-0.5-1.3-0.5-2
		C328.6,458.2,328.6,457.7,328.6,457.3z M343.8,399.9c-0.1-0.9-0.1-1.7-0.2-2.5c-0.1-1.1-0.7-1.9-1.4-2.7c-0.1-0.1-0.3-0.2-0.4-0.3
		c-0.5-0.2-0.9-0.1-1.1,0.4c-0.1,0.3-0.2,0.6-0.3,0.9c-0.2,0.6-0.3,1.2-0.5,1.8c-0.2,0.6-0.4,1.3-0.6,1.9c-0.2,0.6-0.4,1.3-0.8,1.8
		c-0.2,0.2-0.3,0.5-0.5,0.7c-0.2,0.3-0.4,0.6-0.6,0.9c-0.8,1.1-1.4,2.2-1.4,3.6c0,0.2,0,0.3,0,0.5c-0.2,1.1,0.3,2,1.1,2.7
		c0.7,0.6,1.4,0.5,2.1,0c0.4-0.3,0.8-0.6,1.1-0.9c0.3-0.3,0.6-0.6,0.8-1c0.2-0.3,0.3-0.5,0.5-0.8c0.5-0.6,0.7-1.3,0.9-2
		c0.1-0.6,0.3-1.2,0.7-1.6c0.2-0.3,0.4-0.6,0.4-1C343.7,401.5,343.7,400.7,343.8,399.9z"/>
	<path d="M317.4,400.4c0.3,0.3,0.6,0.3,0.9,0.3c0.9,0.2,1.4,0.7,1.6,1.5c0,0.2,0.1,0.4,0.1,0.6c0.4,1.4-0.1,2.5-0.8,3.6
		c-0.3,0.4-0.6,0.8-0.9,1.2c-0.4,0.6-0.9,1.2-1.5,1.6c-0.2,0.1-0.4,0.4-0.5,0.6c-0.2,0.2-0.1,0.6,0.2,0.6c0.3,0,0.6,0.1,0.8,0
		c0.7-0.1,1.4-0.2,2.1-0.5c0.9-0.4,1.9-0.4,2.8-0.7c0.3-0.1,0.7,0,1,0c0.6,0.2,1.2,0.3,1.9,0.2c1.2-0.1,1.7,0.8,1.2,1.8
		c-0.2,0.4-0.4,0.8-0.6,1.1c-0.3,0.4-0.6,0.9-0.8,1.3c-0.6,1.2-1.6,1.8-3,1.8c-0.1,0-0.2,0-0.3,0c-1.2-0.1-2.3,0-3.3,0.5
		c-0.5,0.2-1,0.3-1.5,0.4c-0.6,0.1-1.1,0.3-1.6,0.6c-0.5,0.3-1.1,0.5-1.7,0.6c-0.7,0.2-1.4,0.4-2,0.7c-0.4,0.2-0.8,0.4-1.3,0.5
		c-0.6,0.2-1.1,0.4-1.6,0.7c-0.4,0.2-0.8,0.4-1.2,0.6c-0.4,0.2-0.9,0.4-1.3,0.6c-0.6,0.3-1.1,0.6-1.7,0.7c-0.7,0.2-1.4,0.4-2,0.7
		c-0.5,0.2-1,0.4-1.5,0.5c-0.5,0.1-1.1,0.2-1.6,0.4c-0.7,0.2-1.3,0.1-1.9-0.1c-0.5-0.1-0.8-0.5-1.1-0.9c-0.3-0.4-0.5-0.7-0.8-1.1
		c-0.3-0.4-0.3-0.7,0-1.1c0.3-0.3,0.6-0.5,0.8-0.7c0.4-0.3,0.7-0.6,1.1-0.9c0.3-0.2,0.6-0.4,0.9-0.7c0.4-0.3,0.7-0.6,0.9-1
		c0.1-0.4,0.1-0.8-0.3-1.1c0,0,0,0-0.1-0.1c-0.9-0.5-1.4-1.4-2-2.1c-0.4-0.5-0.7-1.1-0.8-1.7c-0.1-0.3-0.1-0.7,0.1-1
		c0.5-0.8,0.7-1.8,0.9-2.7c0.1-0.3,0.2-0.6,0.5-0.9c0.2-0.2,0.3-0.5,0.5-0.8c0.3-0.5,0.6-1,0.9-1.5c0.3-0.4,0.6-0.8,1.1-1.1
		c0.1,0,0.2-0.1,0.3-0.2c0.2-0.2,0.2-0.4,0.1-0.5c-0.2-0.2-0.4-0.5-0.6-0.6c-0.9-0.5-1.8-1-2.7-1.5c-1.1-0.6-2-1.9-1.9-3
		c0-0.3,0.1-0.6,0.2-0.9c0.2-0.5,0.4-1,0.5-1.5c0.1-0.6,0.3-1.1,0.6-1.6c0.3-0.5,0.6-1.1,0.7-1.7c0.1-0.6,0.4-1.1,0.8-1.5
		c0.1-0.2,0.3-0.3,0.3-0.5c0.3-0.7,0.9-1.2,1.4-1.7c0.4-0.4,0.8-0.8,1.3-1.1c0.3-0.1,0.5-0.4,0.8-0.6c0.3-0.2,0.6-0.3,1-0.4
		c0.5,0,1.1,0,1.6,0.2c0.8,0.3,1.6,0.5,2.3,0.9c0.9,0.5,1.8,0.3,2.6-0.3c0.8-0.6,1.7-1.3,2.5-1.9c0,0,0,0,0.1-0.1
		c0.8-0.5,1.5-1,2.3-1.4c0.3-0.2,0.7-0.2,1.1-0.3c0.6-0.1,1.1-0.2,1.7-0.4c0.6-0.2,1.1-0.2,1.7-0.2c1.2,0.1,2.1,1,2.1,2.2
		c0,1.4,0,2.8-0.6,4c-0.1,0.3-0.2,0.5-0.3,0.8c-0.2,0.7-0.5,1.3-0.9,1.9c-0.6,0.9-1.1,1.8-1.8,2.7c-0.5,0.6-0.9,1.3-1.5,1.9
		c-0.5,0.4-0.3,1.1,0.2,1.4c0.3,0.2,0.7,0.2,1,0.3c0.9,0,1.7,0,2.6,0c0.5,0,1.1-0.1,1.6-0.1c0.2,0,0.5,0.1,0.6,0.2
		c0.4,0.2,0.4,0.8,0,1c-0.2,0.1-0.4,0.2-0.6,0.2c-0.5,0.1-0.9,0.1-1.4,0.1c-0.6,0-1.3,0.1-1.9,0.2C317.7,400,317.7,400,317.4,400.4z
		 M307.7,402.5c-0.2,0-0.4,0-0.6,0c-1,0-1.2,0.2-1.2,1.2c0,0.7-0.1,1.4-0.2,2c-0.1,0.3-0.2,0.7-0.3,1c-0.2,0.7-0.2,1.3,0,1.9
		c0.3,1,1.2,1.3,2,0.6c0.3-0.2,0.5-0.5,0.9-0.6c0.6-0.2,0.9-0.6,1-1.2c0.1-0.5,0.3-0.8,0.7-1.1c0.2-0.1,0.3-0.3,0.4-0.4
		c0.4-0.6,0.8-1.3,1-2c0.1-0.4,0.3-0.6,0.6-0.8c0.2-0.2,0.4-0.4,0.6-0.6c0.2-0.2,0.2-0.5,0-0.7c-0.1-0.1-0.3-0.2-0.5-0.3
		c-0.5-0.1-0.9,0-1.3,0.3C309.8,402.3,308.8,402.5,307.7,402.5z M309.3,394.4c0,0.4,0.2,0.6,0.6,0.7c0.4,0.1,0.8-0.1,1.1-0.3
		c0.4-0.3,0.9-0.6,1.4-0.7c0.4-0.1,0.7-0.3,0.9-0.6c0.5-0.5,1-0.9,1.4-1.5c0.5-0.6,1-1.2,1.4-1.8c0.3-0.4,0.1-0.9-0.4-1
		c-0.2,0-0.5,0-0.8,0c-0.6,0.1-1.1,0.2-1.7,0.3c-1.1,0.1-2,0.6-2.7,1.4c-0.7,0.7-1.1,1.5-1.2,2.4
		C309.4,393.5,309.4,393.9,309.3,394.4z M307.4,413.3c0.5,0,0.9-0.3,1.2-0.7c0.3-0.3,0.6-0.7,0.8-1c0.1-0.1,0.1-0.1,0.2-0.2
		c0.2-0.3,0.1-0.7-0.3-0.7c-0.2,0-0.5,0-0.7,0.1c-0.5,0.3-1,0.6-1.4,1.1c-0.2,0.2-0.3,0.5-0.3,0.8
		C306.8,413.1,307,413.3,307.4,413.3z M314.2,400.4c-0.1,0-0.3,0.1-0.5,0.1c-0.3,0.1-0.4,0.5-0.1,0.7c0.4,0.5,1.3,0.4,1.6-0.2
		c0.1-0.1,0.1-0.3-0.1-0.4C314.9,400.5,314.6,400.4,314.2,400.4z"/>
	<path d="M616.8,385.5c0.1-1.2-0.1-2.3-0.4-3.5c-0.5-1.5-0.5-2.9,0.1-4.4c0.1-0.1,0.1-0.3,0.1-0.4c0.3-1.3,1.3-2.1,2.3-2.7
		c0.1,0,0.2-0.1,0.2-0.1c1.2-0.9,2.5-0.8,3.9-0.5c1.1,0.3,2.1,0.7,3.2,1c0.2,0.1,0.5,0.2,0.7,0.3c1.2,0.9,2.4,1.8,3.4,3
		c0.1,0.1,0.2,0.3,0.3,0.4c0.8,0.7,1.1,1.7,1.4,2.6c0.3,0.7,0.2,1.5,0.1,2.2c-0.2,1.1-0.4,2.2-0.6,3.4c-0.2,1-0.8,1.8-1.4,2.5
		c-0.7,0.7-1.4,1.4-2.4,1.8c-0.2,0.1-0.4,0.2-0.6,0.4c-0.5,0.3-0.9,0.7-1.4,0.9c-0.3,0.1-0.5,0.4-0.7,0.6c-0.2,0.2-0.3,0.4-0.2,0.7
		c0.1,0.3,0.4,0.4,0.6,0.4c0.9,0.1,1.7,0,2.5-0.4c0.5-0.2,1-0.3,1.5-0.3c0.7,0,1.4,0.1,1.9,0.6c0.2,0.2,0.5,0.3,0.7,0.4
		c0.6,0.4,0.8,1,0.6,1.7c-0.1,0.3-0.2,0.5-0.4,0.7c-0.6,0.7-1.1,1.3-1.9,1.9c-0.5,0.4-1,0.8-1.5,1.3c-0.9,0.8-2,1.5-2.8,2.5
		c-0.6,0.7-1.3,1.4-1.9,2.2c-0.7,0.8-1.3,1.6-2,2.3c-0.8,0.8-1.5,1.5-2.4,2.1c-0.9,0.7-2,1.2-2.8,2c0,0-0.1,0.1-0.1,0.1
		c-0.8,0.4-1.4,0.9-2.2,1.4c-0.8,0.5-1.3,1.2-2,1.8c0,0,0,0-0.1,0.1c-0.4,1-1.2,1.8-1.6,2.9c-0.2,0.5-0.4,1-0.7,1.4
		c-0.3,0.5-0.5,1-0.5,1.6c0,0.4,0,0.7,0,1.1c0,0.7,0,1.4,0,2.1c0,0.8-0.2,1.6-0.7,2.4c-0.5,0.8-0.7,1.7-0.7,2.7c0,1.7,0,1.8-1.3,2.9
		c-0.2,0.2-0.4,0.4-0.7,0.5c-0.3,0.2-0.6,0.4-0.9,0.6c-0.4,0.3-0.9,0.5-1.4,0.5c-0.7,0-1.4,0.1-2.1,0.1c-0.6,0-1.1-0.3-1.5-0.7
		c-0.3-0.3-0.6-0.6-0.8-1c-0.2-0.3-0.4-0.7-0.4-1c-0.1-0.6-0.2-1.1-0.2-1.7c0-1.5,0.1-2.9,0.5-4.3c0.3-1.1,0.5-2.2,0.7-3.4
		c0.1-0.6,0.3-1.2,0.5-1.8c0.2-0.5,0.4-0.9,0.6-1.4c0.2-0.5,0.5-1,0.9-1.4c0.6-0.6,1.1-1.3,1.7-2c0.5-0.6,1-1.2,1.6-1.8
		c0.7-0.6,1.4-1.3,2.2-1.7c0.1-0.1,0.3-0.1,0.4-0.2c0.9-0.9,2.1-1.2,3-2c0.2-0.1,0.4-0.2,0.6-0.3c0.5-0.2,1-0.5,1.5-0.8
		c0.2-0.2,0.4-0.3,0.7-0.4c0.6-0.2,1.1-0.6,1.6-1c0.2-0.1,0.4-0.3,0.6-0.4c0.1-0.1,0.3-0.1,0.4-0.2c1-1,2.3-1.6,3.3-2.6
		c0.1-0.1,0.2-0.2,0.3-0.3c0.2-0.2,0-0.5-0.3-0.6c-0.2,0-0.3,0-0.5,0c-0.2,0-0.3,0.1-0.5,0.2c-0.6,0.3-1.2,0.3-1.8,0.3
		c-1.4,0-2.5-0.6-3.3-1.7c-0.1-0.1-0.1-0.1-0.1-0.2c-0.7-1.3-1.1-2.6-0.8-4c0-0.2,0.1-0.4,0.1-0.6c0.1-0.9,0.5-1.7,1.1-2.4
		c0.5-0.7,0.8-1.5,1.4-2.2c0.3-1,0.7-1.9,1.1-2.9c0.2-0.5,0.3-1.2,0.3-1.8C616.9,386.4,616.8,386,616.8,385.5z"/>
	<path d="M310.9,345.2c0.6,0.1,1.3,0.1,1.9,0.2c0.2,0,0.4,0.1,0.6,0.2c0.6,0.2,1.1,0.7,1.2,1.3c0.2,0.6,0.2,1.2,0.1,1.9
		c-0.1,0.6-0.2,1.2-0.5,1.8c-0.5,1.3-1.2,2.5-2.2,3.4c-1.3,1.3-2.4,2.7-3.4,4.2c-0.2,0.3-0.3,0.7-0.5,1c-0.2,0.4-0.4,0.8-0.6,1.1
		c-0.8,0.9-1.3,1.9-1.7,2.9c-0.3,0.8-0.6,1.7-1.1,2.4c-0.2,0.3-0.3,0.6-0.4,0.9c-0.2,0.6-0.5,1.2-0.8,1.8c-0.2,0.3-0.4,0.7-0.5,1.1
		c-0.2,0.6-0.4,1.2-0.8,1.7c-0.2,0.4-0.4,0.8-0.5,1.2c-0.2,0.6-0.5,1.2-0.7,1.7c-0.2,0.5-0.4,1-0.5,1.5c-0.2,0.6-0.4,1.2-0.8,1.7
		c-0.2,0.3-0.4,0.7-0.6,1.1c-0.2,0.5-0.5,0.9-0.7,1.4c-0.2,0.3-0.3,0.6-0.5,0.9c-0.2,0.4-0.5,0.7-0.7,1c-0.7,0.9-1.3,1.8-2,2.7
		c-0.2,0.2-0.3,0.5-0.5,0.7c-0.2,0.2-0.3,0.4-0.5,0.6c-0.7,1.1-1.6,2-2.6,2.8c-0.9,0.6-1.6,1.3-2.5,1.9c-1,0.6-1.8,1.5-2.9,2
		c-0.8,0.8-1.9,1.1-2.8,1.8c-0.4,0.3-0.8,0.4-1.3,0.4c-0.6,0-1.1,0-1.7-0.1c-1.1-0.1-2.1-0.3-3.2-0.1c-0.3,0.1-0.7,0.1-1,0.2
		c-0.4,0.1-0.7,0.1-1.1,0.1c-0.3-0.1-0.6-0.2-0.7-0.6c-0.1-0.3,0.1-0.6,0.4-0.8c0.2-0.1,0.4-0.2,0.6-0.3c0.5-0.2,0.8-0.5,1.1-1
		c0,0,0.1-0.1,0.1-0.1c0.6-1.2,1.4-2.2,2.4-3.1c1.2-1.1,2.4-2.3,3.6-3.4c1.1-1.2,2.2-2.4,3.2-3.7c0.7-0.9,1.5-1.8,2.1-2.8
		c0.6-0.9,1.3-1.8,1.9-2.8c0.5-0.8,1-1.6,1.5-2.5c0.1-0.2,0.3-0.4,0.4-0.6c0.4-0.6,0.4-1.1-0.2-1.6c-0.1-0.1-0.2-0.2-0.3-0.3
		c-0.4-0.4-0.9-0.9-1.3-1.4c-0.2-0.2-0.3-0.4-0.5-0.5c-0.6-0.6-1-1.3-1.5-2c-0.2-0.3-0.4-0.7-0.4-1.1c0-0.5,0.2-1,0.6-1.3
		c0.9-0.7,1.7-1.4,2.8-1.7c0.3-0.1,0.5-0.2,0.8-0.3c1-0.5,2-0.5,3.1-0.2c0.3,0.1,0.6,0.2,0.9,0.3c0.5,0.2,1,0.3,1.6,0.3
		c0.6,0,1.1-0.2,1.3-0.8c0.5-0.9,1.2-1.7,1.6-2.6c0.1-0.2,0.2-0.3,0.3-0.5c0.3-0.5,0.5-0.9,0.8-1.4c0.1-0.2,0.3-0.4,0.4-0.7
		c0.1-0.2,0.2-0.3,0.3-0.5c0.1-0.3,0.1-0.6-0.1-0.8c-0.2-0.3-0.5-0.2-0.8-0.1c-0.8,0.3-1.5,0.4-2.3,0.5c-0.5,0.1-0.9,0.2-1.4,0.4
		c-0.6,0.2-1.2,0.3-1.8,0.3c-0.5,0-1-0.1-1.5-0.4c-0.3-0.2-0.7-0.4-1-0.7c-1.3-1.1-1.1-2.9,0.3-3.8c0.3-0.2,0.7-0.3,1-0.5
		c0.3-0.1,0.6-0.3,0.9-0.5c0.4-0.3,0.9-0.6,1.4-0.8c0.5-0.2,1-0.4,1.4-0.7c0,0,0,0,0.1,0c1.4-0.6,2.6-1.5,4.1-1.9
		c0.4-0.1,0.8-0.3,1.2-0.5c0.3-0.1,0.5-0.3,0.8-0.5c0.7-0.3,1.4-0.7,2.2-1c0.4-0.2,0.9-0.3,1.4-0.4
		C308.9,345.4,309.9,345.3,310.9,345.2z"/>
	<path d="M624.2,359.3c-0.6-0.1-1.2,0.1-1.7,0.5c-0.5,0.4-1,0.8-1.3,1.4c-0.4,0.7-0.9,1.4-1.3,2c-0.1,0.1-0.2,0.2-0.3,0.3
		c-0.5,0.6-1,1.2-1.5,1.8c-0.1,0.2-0.3,0.4-0.4,0.6c-0.5,0.9-1,1.8-1.5,2.7c-0.2,0.5-0.5,0.9-0.8,1.3c-0.1,0.1-0.3,0.3-0.3,0.5
		c-0.4,1.1-1.2,2-1.6,3c-0.1,0.2-0.2,0.4-0.4,0.7c-0.3,0.5-0.6,1-0.9,1.4c-0.1,0.1-0.1,0.2-0.2,0.3c-0.6,0.7-1.2,1.5-1.8,2.2
		c-0.4,0.4-0.7,0.9-1.1,1.3c-1.3,1.5-2.7,3-4,4.6c-0.1,0.1-0.1,0.2-0.2,0.3c-0.5,0.8-1,1.5-1.6,2.3c-0.5,0.7-1.2,1.3-1.7,2
		c-0.8,1-1.7,1.9-2.3,3c-0.1,0.2-0.3,0.4-0.5,0.6c-0.1,0.1-0.2,0.2-0.2,0.3c-0.6,0.9-1.2,1.9-1.8,2.8c-0.2,0.2-0.3,0.5-0.5,0.7
		c-0.7,0.7-1.7,0.6-2.3-0.1c-0.3-0.4-0.6-0.8-0.8-1.2c-0.4-0.9-0.5-1.8,0.1-2.7c0.3-0.4,0.4-0.8,0.5-1.3c0.1-0.5,0.3-1,0.7-1.5
		c0.3-0.4,0.5-0.8,0.6-1.2c0.1-0.5,0.3-0.9,0.6-1.3c0.3-0.4,0.6-0.9,0.7-1.4c0.1-0.4,0.3-0.8,0.6-1.1c0.3-0.3,0.5-0.7,0.6-1
		c0.1-0.5,0.3-0.9,0.7-1.3c0.3-0.4,0.6-0.8,0.7-1.3c0-0.1,0.1-0.3,0.2-0.4c0.6-0.8,1-1.8,1.6-2.6c0.3-0.4,0.6-0.8,0.8-1.3
		c0.1-0.2,0.2-0.5,0.4-0.7c0.3-0.3,0.5-0.7,0.7-1.1c0.4-0.8,0.9-1.7,1.4-2.5c0.1-0.2,0.3-0.4,0.4-0.5c0.4-0.4,0.7-0.9,1-1.5
		c0-0.1,0.1-0.3,0.2-0.4c0.5-0.6,0.8-1.3,1.2-2c0.4-0.5,0.7-1.1,1-1.7c0.1-0.3,0.3-0.6,0.6-0.9c0.3-0.3,0.5-0.7,0.7-1.1
		c0.2-0.5,0.5-1,0.8-1.4c0.3-0.4,0.4-0.9,0.6-1.3c0.1-0.3,0.2-0.6,0.4-0.8c0.5-0.6,0.7-1.4,1-2.1c0.1-0.3,0.2-0.6,0.3-0.9
		c0.2-0.4,0.4-0.8,0.6-1.2c0.2-0.5,0.5-1,0.8-1.4c0.2-0.2,0.3-0.4,0.3-0.7c0.2-0.6,0.4-1.1,0.9-1.6c0.3-0.3,0.5-0.6,0.5-1.1
		c0-0.5,0.3-0.9,0.6-1.3c0.4-0.5,0.8-1,0.8-1.7c0-0.4,0.2-0.8,0.5-1.1c0.3-0.4,0.5-0.7,0.7-1.2c0.1-0.3,0.2-0.5,0.4-0.8
		c0.3-0.5,0.7-1.1,1-1.6c0.1-0.2,0.3-0.4,0.4-0.5c0.1-0.2,0.3-0.4,0.4-0.6c0.1-0.3,0.3-0.6,0.6-0.8c0.3-0.2,0.5-0.5,0.6-0.9
		c0.1-0.4,0.4-0.5,0.6-0.2c0.5,0.4,1,0.3,1.5,0.2c0.2-0.1,0.5-0.2,0.7-0.3c1-0.6,2.1-0.6,3.2-0.5c0.3,0,0.5,0.2,0.8,0.4
		c0.4,0.2,0.7,0.5,1.1,0.7c0.5,0.3,1,0.7,1.3,1.2c0.2,0.3,0.3,0.5,0.6,0.8c0.5,0.5,0.7,1.1,1,1.8c0.6,1.4,0.6,2.9,0.8,4.4
		c0.1,0.6-0.1,1.1-0.4,1.6c-0.4,0.7-0.9,1.3-1.6,1.8c-0.7,0.5-1.6,1-2.1,1.7c-0.6,0.7-1.1,1.4-1.7,2c-0.1,0.1-0.1,0.1-0.1,0.2
		c-0.3,0.7-0.7,1.3-1.1,2C625.3,359.2,624.8,359.4,624.2,359.3z"/>
	<path d="M381.7,352.6c0.1,0.6,0,1.3-0.2,1.9c-0.1,0.2-0.1,0.5-0.1,0.8c0,0.6,0.4,0.9,1,0.8c0.2,0,0.5-0.1,0.7-0.2
		c0.4-0.2,0.8-0.4,1.1-0.7c0.4-0.3,0.8-0.7,1.3-0.9c0.1,0,0.2-0.1,0.2-0.1c0.8-0.7,1.7-1.1,2.5-1.6c1.1-0.7,2.2-0.6,3.3-0.1
		c1.1,0.5,1.9,1.3,2.7,2.3c0.2,0.2,0.3,0.5,0.4,0.7c0.2,0.4,0.4,0.9,0.6,1.3c0.2,0.5,0.2,1,0.1,1.5c-0.2,0.6-0.4,1.3-0.6,1.9
		c-0.1,0.2-0.1,0.4-0.3,0.5c-0.6,0.6-1.2,1.3-2,1.7c-0.6,0.3-1.1,0.7-1.6,1.1c-0.6,0.5-1.2,0.9-1.8,1.3c-0.2,0.2-0.5,0.3-0.8,0.3
		c-0.9,0.1-1.8,0.3-2.6,0.3c-0.8,0.1-1.5-0.1-2.3-0.3c-0.8-0.2-1.4-0.6-1.9-1.3c-0.2-0.3-0.5-0.6-0.8-0.9c-0.1-0.1-0.3-0.2-0.4-0.3
		c-0.4-0.2-0.8-0.1-1,0.3c-0.1,0.2-0.2,0.5-0.2,0.7c-0.1,0.7-0.3,1.3-0.4,2c-0.2,1-0.4,2.1-0.6,3.1c-0.1,0.8-0.1,1.7,0.1,2.5
		c0.2,0.8,0.6,1.1,1.4,1c0.6-0.1,1.1-0.2,1.6-0.5c0.6-0.4,1.1-0.6,1.8-0.8c1.1-0.3,1.9-1,2.6-1.8c0.3-0.4,0.6-0.8,1-1.2
		c0.4-0.4,0.8-0.8,1.3-1.1c0.3-0.1,0.5-0.3,0.8-0.5c1.1-0.7,2.3-0.7,3.5-0.5c0.7,0.1,1.2,0.5,1.4,1.2c0.1,0.4,0.3,0.9,0.3,1.3
		c0.1,0.4,0.1,0.7,0.1,1.1c-0.1,1.2-0.4,2.4-0.9,3.5c-0.4,1-1.1,1.8-2.2,2.3c-1,0.5-2,1.3-3,1.9c-0.4,0.2-0.7,0.4-1.1,0.6
		c-0.4,0.2-0.8,0.4-1.2,0.7c-0.4,0.3-0.8,0.5-1.2,0.6c-0.7,0.2-1.3,0.5-1.9,0.8c-0.4,0.2-0.9,0.4-1.4,0.5c-0.6,0.2-1.3,0.4-1.8,0.7
		c-0.5,0.3-1.1,0.4-1.7,0.4c-0.6,0-1.3-0.1-1.9-0.2c-0.4-0.1-0.7-0.2-1-0.4c-0.5-0.2-0.9-0.5-1.3-0.8c-0.9-0.7-1.9-1.4-2.4-2.5
		c0-0.1-0.1-0.2-0.1-0.2c-0.7-0.9-1-1.9-1.1-3c-0.1-0.6-0.2-1.2-0.3-1.9c-0.1-0.8-0.3-1.6-0.3-2.5c-0.1-0.9-0.1-1.8,0.2-2.7
		c0.3-1.3,0.5-2.7,0.6-4.1c0.1-1.2,0.4-2.3,0.7-3.4c0.2-0.9,0.4-1.8,0.5-2.8c0.2-1.1,0.3-2.2,0.8-3.2c0.3-0.8,0.4-1.6,0.6-2.4
		c0.1-0.7,0.3-1.4,0.7-2.1c0.2-0.4,0.4-0.8,0.6-1.2c0.5-0.9,1.2-1.5,2.3-1.6c0.6-0.1,1.1-0.1,1.7,0c0.6,0,1.1,0.3,1.5,0.7
		c0.9,0.7,1.5,1.7,2.1,2.7c0.3,0.4,0.4,1,0.4,1.5C381.7,351.9,381.7,352.3,381.7,352.6z"/>
	<path d="M695.5,360.8c0-0.5,0-1,0-1.5c0-0.3-0.1-0.6-0.2-0.8c-0.2-0.5-0.8-0.6-1.1-0.2c-0.2,0.2-0.4,0.4-0.5,0.7
		c-0.3,0.6-0.7,1.2-1,1.8c-0.5,1-1.1,2-1.6,2.9c-0.3,0.5-0.5,1.1-0.9,1.6c-0.1,0.2-0.2,0.4-0.3,0.6c-0.2,0.3-0.3,0.6-0.5,0.9
		c-0.9,1.3-1.8,2.7-2.5,4.2c-0.5,0.9-1,1.8-1.6,2.7c-0.1,0.2-0.3,0.4-0.4,0.6c-0.4,1.1-1.2,1.9-1.8,2.8c-0.3,0.4-0.6,0.7-1,1
		c-0.6,0.5-1.2,1-1.6,1.8c-0.1,0.3-0.3,0.5-0.5,0.7c-0.1,0.2-0.3,0.4-0.4,0.6c-0.6,1.2-1.6,2.2-2.4,3.2c-0.6,0.9-1.4,1.7-1.9,2.6
		c-0.1,0.2-0.3,0.5-0.5,0.7c-0.2,0.4-0.5,0.7-0.7,1.1c-0.1,0.1-0.2,0.3-0.3,0.4c-1.1,1.4-2.2,2.8-3.5,4.1c-0.2,0.2-0.3,0.3-0.5,0.5
		c-0.2,0.2-0.5,0.3-0.7,0.4c-0.8,0.2-1.4-0.1-1.7-0.9c-0.1-0.4-0.1-0.9,0-1.4c0.1-0.6,0.3-1.2,0.6-1.7c0.3-0.5,0.5-1,0.6-1.6
		c0.1-0.6,0.3-1.1,0.7-1.6c0.1-0.2,0.2-0.3,0.3-0.5c0.3-0.7,0.6-1.3,1.1-1.8c0.1-0.1,0.1-0.1,0.2-0.2c0.5-0.9,1.1-1.7,1.6-2.6
		c0.1-0.1,0.1-0.2,0.2-0.3c0.6-0.7,1-1.5,1.6-2.2c0.3-0.4,0.6-0.8,0.8-1.2c0.2-0.4,0.4-0.9,0.8-1.2c0.2-0.2,0.3-0.5,0.4-0.7
		c0.3-0.5,0.6-1.1,0.9-1.6c0.6-0.9,1.1-1.9,1.7-2.9c0.3-0.6,0.5-1.1,0.9-1.6c0.2-0.2,0.3-0.6,0.5-0.9c0.2-0.5,0.4-0.9,0.7-1.3
		c0.2-0.3,0.4-0.6,0.5-1c0.2-0.6,0.5-1.2,0.9-1.7c0.2-0.3,0.3-0.7,0.5-1c0.2-0.5,0.4-0.9,0.7-1.4c0.2-0.4,0.4-0.8,0.6-1.2
		c0.2-0.5,0.4-1,0.8-1.5c0.2-0.3,0.4-0.7,0.5-1.1c0.2-0.5,0.4-0.9,0.7-1.4c0.2-0.3,0.4-0.6,0.5-1c0.3-0.6,0.5-1.1,0.7-1.7
		c0.2-0.6,0.4-1.3,0.6-2c0.1-0.8,0.3-1.5,0.5-2.2c0.3-0.9,0.5-1.8,0.5-2.7c0.1-1.2,0.2-2.4,0.3-3.7c0.1-0.8,0.3-1.5,0.6-2.1
		c0.2-0.5,0.4-0.9,0.6-1.4c0.2-0.6,0.5-1.2,1.1-1.6c0,0,0.1-0.1,0.1-0.1c0.9-0.9,1.9-1.2,3.2-1.3c1.2-0.1,2.3,0,3.5,0.2
		c0.5,0.1,0.9,0.3,1.3,0.5c0.4,0.2,0.7,0.5,1.1,0.7c0.6,0.3,1.1,0.8,1.5,1.4c0.3,0.5,0.7,1,1,1.5c0.6,1,0.5,2.1,0,3.1
		c-0.3,0.6-0.6,1.2-0.8,1.9c-0.1,0.5-0.4,0.9-0.7,1.3c-0.2,0.2-0.3,0.5-0.4,0.7c-0.2,0.5-0.5,0.9-0.9,1.3c0,0-0.1,0.1-0.1,0.1
		c-0.6,0.8-0.4,1.5,0.5,1.9c0.6,0.3,1.2,0.5,1.8,0.8c1.1,0.5,1.8,1.4,2.4,2.4c0.2,0.3,0.3,0.7,0.5,1c0.7,1.3,0.7,2.6,0,3.9
		c-0.2,0.4-0.4,0.7-0.6,1c-0.3,0.5-0.7,0.9-1.3,1.1c-0.6,0.3-1.2,0.6-1.8,0.9c-0.3,0.2-0.7,0.3-1,0.4c-0.8,0.2-1.5,0.5-2.2,0.8
		c-0.4,0.2-0.8,0.3-1.2,0.4c-0.8,0.1-1.3-0.2-1.5-0.9c-0.2-0.6-0.3-1.3-0.3-1.9C695.5,361.6,695.5,361.2,695.5,360.8
		C695.5,360.8,695.5,360.8,695.5,360.8z"/>
	<path d="M136,392.8c0.1-0.8,0.1-1.9,0.2-2.9c0-1.3,0-2.6,0.1-3.9c0.1-1.8,0.1-3.6,0.2-5.4c0.1-1,0.1-1.9,0.2-2.9
		c0.1-0.7,0.2-1.3,0.3-1.9c0.2-0.7,0.3-1.4,0.2-2.1c0-0.9,0.1-1.8,0.3-2.6c0.2-1,0.3-2,0.5-3c0.1-0.8,0.3-1.5,0.5-2.3
		c0.3-0.9,0.5-1.9,0.6-2.9c0.1-0.9,0.3-1.7,0.7-2.5c0.2-0.3,0.3-0.6,0.4-0.9c0.2-0.5,0.5-1,0.9-1.5c0.1-0.1,0.2-0.3,0.3-0.5
		c0.5-0.9,1.1-1.6,1.7-2.4c0.4-0.6,1-1,1.5-1.5c0.1-0.1,0.3-0.2,0.4-0.3c1-0.3,2-0.3,2.8,0.5c0.4,0.4,0.8,0.8,1.1,1.3
		c0.2,0.3,0.3,0.7,0.4,1c0.2,0.7,0.2,1.5,0.2,2.2c-0.1,1-0.1,2.1-0.1,3.1c0,1.2-0.2,2.3-0.7,3.3c-0.2,0.4-0.3,0.9-0.4,1.4
		c-0.3,0.9-0.5,1.9-0.8,2.8c-0.3,0.8-0.4,1.7-0.5,2.5c-0.2,1.9-0.4,3.8-0.7,5.7c-0.3,1.3-0.5,2.7-0.5,4c-0.2,2.8-0.2,5.6,0.3,8.4
		c0.1,0.4,0.1,0.9,0.2,1.4c0.1,0.7,0.2,1.4,0.3,2c0.1,0.5,0.2,0.9,0.2,1.4c0,1-0.1,2.1-0.1,3.1c0,0.5,0,1.1-0.1,1.6
		c0,0.6-0.1,1.2-0.1,1.8c0,0.4-0.2,0.8-0.5,1.1c-0.4,0.4-0.8,0.8-1.3,1.2c-0.2,0.2-0.5,0.3-0.7,0.4c-0.7,0.2-1.4,0.4-2.1,0.3
		c-0.8-0.1-1.6-0.2-2.4-0.2c-0.7-0.1-1.3-0.4-1.7-1c-0.8-0.9-1.1-1.8-1.2-3c-0.1-1.4-0.3-2.8-0.4-4.3
		C136.1,394.7,136.1,393.9,136,392.8z"/>
	<path d="M312.6,381.8c-1.2-0.1-2.3,0.2-3.3,0.7c-0.5,0.2-1,0.4-1.5,0.4c-0.9,0.1-1.8,0.1-2.7,0c-0.4,0-0.8-0.1-1.1-0.3
		c-0.6-0.4-1.3-0.9-1.9-1.4c-0.3-0.3-0.5-0.7-0.6-1.1c-0.1-0.6,0-1.1,0.5-1.6c0.7-0.7,1.5-1.3,2.3-2c0.2-0.2,0.5-0.3,0.8-0.4
		c0.1-0.1,0.3-0.1,0.4-0.1c1-0.2,1.7-0.7,2.3-1.5c0.4-0.5,0.8-1,1-1.7c0.1-0.3,0.3-0.6,0.5-0.8c0.5-0.6,1.1-1.2,1.7-1.9
		c0.1-0.1,0.1-0.1,0.2-0.2c0.6-0.7,0.8-1.5,0.2-2.3c-0.7-1-1.2-2.1-2-3c-0.4-0.5-0.8-1.1-1.1-1.6c-0.6-0.9-0.5-2.3,0.2-3.1
		c0.7-0.8,1.4-1.7,2.2-2.6c0.4-0.5,0.9-0.9,1.3-1.4c0.3-0.4,0.7-0.8,0.9-1.2c0.5-1.1,1.3-1.9,2-2.9c0.6-0.8,1.3-1.7,1.9-2.5
		c0.5-0.6,1.1-1.2,1.7-1.7c0.7-0.6,1.4-1.1,2.3-1.4c0.2-0.1,0.5-0.2,0.7-0.3c1.1-0.5,2.3-0.2,3.1,0.7c0.3,0.3,0.4,0.7,0.4,1.1
		c0,0.9-0.3,1.8-1,2.5c-0.7,0.7-1.4,1.4-2.2,2c-0.6,0.4-1.2,0.9-1.7,1.4c-0.7,0.6-1.3,1.2-2,1.7c-0.3,0.2-0.6,0.4-0.9,0.6
		c-0.4,0.2-0.8,0.5-1.1,0.9c-0.4,0.5-0.8,1.1-1.1,1.6c-0.5,0.8-0.4,1.7-0.2,2.6c0,0.1,0.1,0.3,0.2,0.4c0.4,0.5,0.8,0.9,1.2,1.4
		c0.5,0.5,1,0.4,1.5,0c1.1-1.1,2.2-2.2,3.3-3.2c0.8-0.8,1.6-1.5,2.4-2.2c0,0,0,0,0.1-0.1c0.7-0.5,1.5-1,2.2-1.4c1-0.5,2.2-0.3,3,0.5
		c0.2,0.2,0.4,0.4,0.6,0.5c0.7,0.6,0.8,2.1,0,2.8c-0.6,0.5-1.1,1-1.7,1.5c-1.7,1.3-3.4,2.7-4.9,4.3c-0.2,0.2-0.4,0.4-0.4,0.7
		c0,0.4,0.1,0.7,0.5,0.9c0.2,0.1,0.5,0.2,0.7,0.2c0.6,0.1,1.2,0.3,1.7,0.5c0.7,0.3,1.3,0.5,2,0.6c1,0.1,2,0.3,2.9,0.7
		c0.6,0.2,1.2,0.3,1.7,0.5c0.4,0.1,0.7,0.2,1.1,0.3c0.4,0.2,0.6,0.5,0.6,0.9c0,0.5-0.1,1-0.5,1.3c-0.7,0.5-1.3,1.1-2,1.6
		c-1.1,0.6-2.3,0.9-3.6,0.6c-0.7-0.1-1.4-0.3-2-0.4c-0.5-0.1-0.9-0.3-1.3-0.5c-0.5-0.3-1.1-0.5-1.7-0.6c-0.6-0.1-1.2-0.4-1.8-0.7
		c-0.6-0.3-1.2-0.5-1.9-0.6c-0.8-0.1-1.6-0.3-2.5-0.4c-0.8-0.2-1.5,0.1-2.2,0.5c-0.3,0.2-0.6,0.6-0.9,0.9c-0.3,0.3-0.2,0.6,0.3,0.7
		c0.4,0.1,0.9,0.1,1.3,0.2c0.4,0.1,0.7,0.1,1.1,0.2c0.6,0.2,1,0.6,1.2,1.2c0.1,0.3,0.1,0.6,0.2,0.8c0,0.7,0.1,1.4,0,2.1
		c0,1.1-0.5,2.1-1.4,2.8c-0.3,0.2-0.6,0.5-0.9,0.7c-0.4,0.3-0.9,0.5-1.4,0.5C313.4,381.8,313,381.8,312.6,381.8z"/>
	<path d="M627.3,359.2c1.7,0.2,3.4,0.3,5,0.9c0.5,0.2,1.1,0.4,1.7,0.4c0.9,0.1,1.7,0.4,2.4,0.9c0.2,0.2,0.5,0.2,0.8,0.3
		c0.4,0.1,0.7,0.1,1.1,0.2c0.8,0.1,1.6,0.3,2.3,0.7c0.8,0.4,1.6,0.6,2.5,0.7c1,0.1,2,0.3,2.9,0.8c0.4,0.2,0.9,0.3,1.3,0.4
		c0.4,0.1,0.7,0.1,1.1,0.2c0.7,0.1,1.3,0.3,1.9,0.6c0.3,0.1,0.6,0.3,0.9,0.4c0.7,0.2,1.4,0.5,1.9,1c0.2,0.2,0.6,0.4,0.9,0.5
		c0.7,0.3,1.3,0.7,1.8,1.1c0.7,0.6,1.4,1.2,2,2c0.4,0.6,1,1.1,1.5,1.6c0.6,0.6,1,1.4,1.2,2.2c0.1,0.4,0.1,0.8,0,1.2
		c-0.2,0.8-0.5,1.6-1.1,2.3c-0.7,0.8-1.4,1.5-2.1,2.3c0,0,0,0-0.1,0.1c-1.1,0.8-2.2,1.5-3.6,1.6c-0.5,0-1-0.1-1.5-0.4
		c-0.5-0.3-1-0.5-1.6-0.7c-0.6-0.2-1.1-0.4-1.6-0.7c-0.4-0.2-0.9-0.5-1.3-0.5c-1.5-0.2-2.7-1-3.9-1.9c-0.4-0.3-0.8-0.7-1.2-1
		c-0.6-0.5-1.2-1.1-1.9-1.6c-1-0.8-2.1-1.6-3.4-2c-0.4-0.1-0.8-0.3-1.2-0.5c-0.5-0.3-1-0.5-1.6-0.7c-0.5-0.2-0.9-0.4-1.3-0.6
		c-0.4-0.2-0.9-0.4-1.3-0.6c-0.5-0.2-1.1-0.4-1.5-0.7c-0.3-0.2-0.7-0.4-1.1-0.5c-0.7-0.3-1.2-0.6-1.7-1.2c-0.6-0.7-1.2-1.4-1.6-2.3
		c-0.1-0.3-0.3-0.5-0.4-0.7c-0.7-0.8-1-1.8-1.3-2.7c-0.3-1,0-1.6,0.7-1.9c0.2-0.1,0.4-0.2,0.6-0.4
		C626.1,359.2,626.6,359.1,627.3,359.2z"/>
	<path d="M167.9,433.2c-1.4,0-2.7,0-4.1,0c-1.2,0-2.5-0.1-3.7-0.2c-0.6-0.1-1.1-0.2-1.7-0.4c-0.6-0.2-1.3-0.4-1.9-0.6
		c-0.5-0.1-1-0.3-1.5-0.6c-0.4-0.2-0.8-0.4-1.2-0.6c-0.5-0.2-1-0.4-1.4-0.7c-0.1-0.1-0.3-0.2-0.4-0.3c-0.8-0.4-1.4-0.9-2-1.5
		c-0.9-0.9-1.8-1.9-2.6-2.8c-0.5-0.6-0.9-1.2-1.3-1.9c-0.2-0.3-0.3-0.7-0.4-1c-0.2-0.5-0.4-1.1-0.6-1.6c-0.5-1-0.7-2-1.1-3
		c-0.2-0.6,0-1.2,0.4-1.7c0.6-0.7,1.4-1.1,2.3-1c1.1,0,2.1,0.2,3,0.8c0.2,0.2,0.5,0.2,0.7,0.4c0.2,0.2,0.5,0.3,0.6,0.6
		c0.6,0.9,1.3,1.8,1.5,3c0,0.1,0.1,0.2,0.1,0.3c0.5,1,1.1,1.9,1.7,2.9c0.2,0.3,0.5,0.5,0.8,0.8c0.7,0.8,1.6,1.4,2.6,1.8
		c0.8,0.3,1.5,0.7,2.4,0.8c0.1,0,0.1,0,0.2,0c2,0,4.1,0.3,6.1,0.1c0.4,0,0.9,0,1.3,0c1.4-0.1,2.8-0.1,4.2-0.2
		c0.8-0.1,1.6-0.3,2.3-0.5c0.7-0.2,1.4-0.5,2-0.7c0.7-0.2,1.2-0.7,1.5-1.4c0.2-0.7,0.7-1.1,1.4-1.4c1.2-0.4,2.5-0.5,3.7,0
		c0.1,0,0.2,0.1,0.2,0.1c1.1,0.2,1.8,1,2.5,1.8c0,0,0.1,0.1,0.1,0.1c0.5,0.7,0.5,2.8-0.2,3.6c-0.6,0.7-1.2,1.4-2.1,1.7
		c-0.2,0.1-0.4,0.2-0.6,0.4c-0.4,0.3-0.9,0.5-1.4,0.7c-0.6,0.2-1.1,0.4-1.7,0.6c-0.6,0.3-1.3,0.5-2,0.6c-0.7,0.1-1.4,0.3-2.1,0.7
		c-0.8,0.4-1.6,0.6-2.4,0.5c-1.2,0-2.3,0-3.5,0C169,433.2,168.4,433.2,167.9,433.2C167.9,433.2,167.9,433.2,167.9,433.2z"/>
	<path d="M623.3,417c0-0.5,0.1-1.2,0.2-1.9c0.1-1.4,1-2.1,2.1-2.5c0.3-0.1,0.7-0.2,1-0.2c0.6-0.1,1.2-0.1,1.8-0.2
		c0.7-0.1,1.3-0.3,2-0.6c0.7-0.4,1.4-0.6,2.2-0.8c1-0.2,2-0.4,2.9-0.7c0.5-0.2,0.9-0.3,1.4-0.3c1-0.1,2-0.2,3-0.3c0.4,0,0.7,0,1.1,0
		c0.8,0.1,1.5,0.2,2.3,0.3c0.8,0.1,1.5,0.3,2.2,0.6c0.6,0.2,1.3,0.5,1.9,0.7c0.5,0.2,1.1,0.4,1.5,0.8c0.2,0.1,0.3,0.2,0.5,0.3
		c0.6,0.4,1.1,0.8,1.5,1.5c0.1,0.1,0.2,0.3,0.3,0.4c1,1.2,1.2,2.7,0.9,4.2c-0.2,1.1-0.9,1.9-2,2.2c-1.6,0.5-3.2,0.9-5,0.9
		c-0.6,0-1.2-0.1-1.8-0.3c-0.8-0.4-1.6-0.5-2.5-0.6c-0.6,0-1.1-0.1-1.7-0.2c-0.8-0.1-1.3-0.5-1.5-1.2c-0.1-0.2-0.2-0.5-0.3-0.7
		c-0.4-0.7-1.1-0.7-1.6-0.2c-0.1,0.1-0.2,0.3-0.3,0.5c-0.2,0.7-0.6,1.3-1,1.9c-0.1,0.1-0.1,0.2-0.2,0.3c-0.3,1-1,1.8-1.5,2.7
		c-0.2,0.4-0.6,0.6-1,0.8c-0.8,0.3-1.6,0.6-2.5,0.7c-0.3,0-0.5,0-0.8,0c-0.9-0.1-1.8-0.4-2.6-0.8c-0.5-0.3-0.9-0.6-1.2-1.1
		c-1-1.3-1.4-2.9-1.5-4.5C623.4,418.2,623.3,417.7,623.3,417z"/>
	<path d="M162.9,408.9c1.1,0,2.1,0.1,3.1,0.4c0.9,0.2,1.8,0.4,2.8,0.4c0.9,0,1.7-0.1,2.5-0.5c0.7-0.3,1.4-0.5,2.2-0.7
		c0.7-0.2,1.3-0.3,2-0.6c1-0.4,2.1-0.7,3.2-0.7c0.9-0.1,1.7-0.2,2.5-0.4c0.7-0.2,1.5-0.3,2.2-0.3c1.7-0.1,3.4,0.1,5,0.5
		c0.3,0.1,0.6,0.1,0.9,0.2c0.7,0.2,1.4,0.4,2,0.9c0.1,0.1,0.3,0.2,0.4,0.3c0.9,0.4,1.6,1.1,2.4,1.7c0.2,0.2,0.5,0.5,0.6,0.7
		c0.3,0.6,0.6,1.2,0.8,1.9c0.3,0.9,0.2,1.8-0.6,2.5c-0.2,0.2-0.4,0.4-0.5,0.5c-0.4,0.4-1,0.7-1.6,0.8c-1.6,0.4-3.1,0.5-4.7,0.2
		c-0.7-0.2-1.4-0.3-2.1-0.4c-1.1-0.2-2.2-0.2-3.2,0.1c-0.6,0.2-1.2,0.4-1.6,0.9c-0.3,0.3-0.6,0.5-1.1,0.5c-0.9,0.1-1.5-0.5-1.2-1.4
		c0.1-0.4,0.3-0.7,0.6-1.1c0.5-0.7,1.1-1.5,1.6-2.2c0.4-0.5,0.3-1-0.2-1.3c-0.1-0.1-0.2-0.1-0.4-0.2c-1.2-0.4-2.4-0.6-3.7-0.5
		c-0.4,0.1-0.8,0.1-1.2,0.2c-0.5,0.1-0.9,0.3-1.3,0.6c-0.2,0.2-0.4,0.4-0.7,0.5c-0.4,0.3-0.7,0.8-0.7,1.3c0,0.4-0.1,0.8-0.1,1.2
		c0,0.3,0,0.5-0.1,0.8c-0.6,1.5-1.3,2.9-2.5,4c-0.4,0.4-0.9,0.5-1.4,0.5c-1,0-1.9,0-2.9-0.1c-0.7,0-1.3-0.3-1.8-0.8
		c-0.1-0.1-0.2-0.2-0.3-0.2c-0.8-0.4-1.4-1.1-2-1.8c-0.4-0.5-0.7-1-0.8-1.6c-0.2-1.1-0.5-2.1-0.8-3.2c-0.2-0.6-0.3-1.2-0.3-1.8
		c-0.1-0.7,0.1-1.3,0.6-1.8c0.4-0.3,0.8-0.5,1.2-0.5C162.1,408.8,162.5,408.9,162.9,408.9z"/>
	<path d="M631.2,438c-1.8,0-3.4-0.1-5-0.4c-0.9-0.2-1.9-0.3-2.8-0.4c-0.8-0.1-1.6-0.3-2.3-0.7c-0.2-0.1-0.5-0.2-0.7-0.3
		c-0.6-0.3-1.1-0.5-1.6-1c-0.1-0.1-0.2-0.2-0.3-0.2c-1.2-0.7-2.4-1.7-3.3-2.8c-1.1-1.3-1.9-2.8-1.9-4.6c0-0.7,0-1.5,0-2.2
		c0-0.7-0.1-1.4-0.1-2.1c0-0.4-0.2-0.8-0.4-1.2c-0.8-1.4-0.3-1.8,0.6-2.5c0.9-0.7,1.8-0.7,2.9-0.5c0.6,0.1,1.1,0.5,1.2,1.2
		c0.1,0.2,0.1,0.4,0.1,0.7c0.2,1.3,0.4,2.5,0.8,3.8c0.2,0.6,0.3,1.3,0.4,1.9c0.1,1,0.5,1.9,1.3,2.6c0.6,0.6,1.3,1,2,1.5
		c1.4,0.9,2.9,1.1,4.4,1.3c1.7,0.2,3.5,0,5.2-0.1c0.7-0.1,1.4-0.2,2.1-0.2c0.7-0.1,1.5-0.2,2.2-0.5c0.7-0.2,1.4-0.4,2-0.6
		c1.1-0.3,1.4-0.8,1.1-2c-0.1-0.5-0.3-0.9-0.5-1.4c-0.1-0.3-0.3-0.6-0.5-0.9c-0.2-0.4-0.2-0.8-0.2-1.2c0.1-0.6,0.6-0.9,1.1-0.6
		c0.1,0.1,0.3,0.2,0.4,0.3c0.5,0.6,1,1.1,1.3,1.8c0.3,0.7,0.8,1.3,1.5,1.6c0.5,0.3,1.1,0.5,1.6,0.8c0.1,0.1,0.3,0.1,0.4,0.2
		c1.4,0.7,1.9,2.2,1.2,3.6c-0.5,0.9-1,1.6-1.9,2.2c-0.7,0.5-1.4,0.9-2.2,1.1c-0.3,0.1-0.6,0.2-0.9,0.4c-0.5,0.3-1,0.4-1.5,0.5
		c-0.7,0.1-1.3,0.2-2,0.3c-0.6,0.1-1.1,0.1-1.7,0.3C633.7,437.9,632.4,438,631.2,438z"/>
	<path d="M129.8,426.5c0-0.6,0.1-1.2,0.1-1.9c0-0.5,0.1-1,0.1-1.5c0.1-1,0.3-2,0.8-3c0.2-0.5,0.4-1,0.6-1.4c0.1-0.2,0.2-0.5,0.3-0.7
		c0.4-0.7,0.8-1.5,1.4-2.2c0.8-1.1,1.8-2.1,2.8-3c1-0.9,2-1.7,2.9-2.6c0.4-0.4,0.8-0.9,1.3-1.2c0.3-0.3,0.7-0.5,1.1-0.7
		c0.1-0.1,0.3-0.1,0.4-0.1c0.5-0.1,0.9,0.2,0.8,0.7c-0.1,0.5-0.3,0.9-0.6,1.2c-0.1,0.1-0.2,0.2-0.3,0.3c-0.1,0.1-0.2,0.2-0.3,0.3
		c-0.6,0.8-1.1,1.5-1.7,2.3c-0.3,0.4-0.6,0.9-0.8,1.3c-0.2,0.4-0.4,0.8-0.6,1.1c-0.2,0.4-0.4,0.8-0.6,1.1c-0.3,0.4-0.5,0.8-0.6,1.3
		c-0.1,0.7-0.3,1.5-0.3,2.2c-0.1,0.9,0,1.8,0,2.7c0,0.3,0.1,0.5,0.1,0.8c0.1,0.5,0.5,0.8,0.9,1.1c0.2,0.1,0.4,0.1,0.6,0.2
		c0.7,0.3,0.9,0.9,0.6,1.6c-0.1,0.1-0.1,0.2-0.2,0.4c-0.2,0.4-0.4,0.8-0.6,1.1c-0.5,0.8-0.9,1.5-1.3,2.3c-0.3,0.6-0.8,1.1-1.3,1.4
		c-0.8,0.5-1.7,0.5-2.4-0.1c-0.9-0.6-1.7-1.3-2.3-2.1c-0.4-0.5-0.6-1.2-0.7-1.8C129.9,427.3,129.8,427,129.8,426.5z"/>
	<path d="M406,395.9c-0.3,0-0.5,0-0.8,0c-0.6,0-1.2-0.3-1.6-0.7c-0.2-0.2-0.4-0.4-0.6-0.6c-0.5-0.5-0.9-1-1.2-1.7
		c-0.2-0.5-0.4-0.9-0.6-1.3c-0.3-0.5-0.3-1.1-0.1-1.7c0.2-0.4,0.5-0.7,1-0.9c0.8-0.2,1.5-0.5,2.3-0.7c0.7-0.2,1.4-0.3,2.1,0
		c0.8,0.3,1.5,0.6,2.3,1c0.4,0.2,0.7,0.4,1,0.7c0.3,0.4,0.6,0.7,0.9,1.1c0.4,0.5,0.4,1.1,0.2,1.6c-0.4,0.9-1,1.7-1.9,2.3
		C407.8,395.8,407.2,395.9,406,395.9z"/>
	<path d="M178.2,420c0,0.4-0.2,0.7-0.4,0.8c-0.3,0.1-0.7,0-0.9-0.3c-0.3-0.3-0.3-0.7-0.1-1c0.2-0.2,0.5-0.3,0.8-0.3
		C178,419.3,178.2,419.6,178.2,420z"/>
</g>
</svg>
