<?xml version="1.0" encoding="utf-8"?>
<!-- Generator: Adobe Illustrator 22.1.0, SVG Export Plug-In . SVG Version: 6.00 Build 0)  -->
<svg version="1.1" id="图层_1" xmlns="http://www.w3.org/2000/svg" xmlns:xlink="http://www.w3.org/1999/xlink" x="0px" y="0px"
	 viewBox="0 0 800 800" style="enable-background:new 0 0 800 800;" xml:space="preserve">
<style type="text/css">
	.st0{fill:#2E766E;}
</style>
<g>
	<g>
		<path d="M498.9,665.6c0-0.1,0-0.2,0-0.3c-0.2-2.4-0.2-4.8,0-7.2c0-0.5,0-1-0.1-1.4c-0.1-0.8-0.6-1.1-1.5-1c-0.3,0-0.6,0.2-0.8,0.3
			c-1.3,0.7-2.7,1.2-4,2c-0.6,0.4-1.4,0.6-2.1,0.9c-1.4,0.5-2.8,1-4,1.8c-1.3,0.8-1.4,1.9-0.2,2.8c0.7,0.5,1.4,0.9,2.2,1.4
			c0.7,0.4,1.5,0.7,2.2,1.1c0.9,0.5,1.6,1.1,2.1,1.9c0.7,0.9,0.8,1.8,0.4,2.8c-0.5,1.1-1.2,1.9-2.2,2.5c-0.9,0.5-1.8,0.5-2.7,0.1
			c-0.2-0.1-0.4-0.2-0.6-0.4c-1.7-1.3-3.3-2.6-4.5-4.4c-0.5-0.7-0.8-1.5-1.1-2.3c-0.3-1-0.9-1.9-1.8-2.5c-1.1-0.7-1.8-0.8-2.9-0.1
			c-0.2,0.2-0.5,0.3-0.7,0.5c-0.6,0.6-1.3,0.9-2.2,1.1c-0.9,0.2-1.6,0.6-2.4,1c-0.7,0.4-1.5,0.7-2.2,1c-1,0.5-2.1,0.9-3.1,1.5
			c-1.4,0.8-2.8,1.2-4.4,1.3c-1.8,0.1-3.4-1.1-3.7-2.9c-0.2-1.1-0.1-2.1,0.6-3c0.4-0.6,0.9-1.1,1.3-1.7c0.4-0.6,1-0.9,1.7-1
			c0.1,0,0.2,0,0.3,0c1.7-0.1,2.9-0.9,3.9-2.1c1.9-2.2,3.8-4.3,5.7-6.5c1.5-1.7,2.7-3.6,3.9-5.5c0.1-0.2,0.2-0.3,0.3-0.5
			c0.9-1.2,1.9-2.4,2.8-3.6c0.6-0.7,0.8-1.5,0.6-2.4c-0.2-0.6-0.4-1.3-0.6-1.9c-0.5-1.5-0.3-2.4,1.1-3.3c1.1-0.7,2.1-1.6,2.9-2.5
			c0.7-0.8,1.1-1.7,1.1-2.7c0-0.4,0-0.8,0-1.1c0-1.4,0-2.9,0-4.3c0-0.5,0-1,0-1.4c-0.2-1.1-1.1-1.7-2.1-1.3
			c-0.4,0.1-0.8,0.4-1.1,0.7c-1.5,1.6-3,3.2-4.5,4.8c-1.2,1.2-1.8,2.7-1.8,4.4c0,2.3-0.1,4.7,0,7c0.1,1.5-0.5,2.6-1.4,3.6
			c-0.7,0.7-1.8,1-2.6,0.5c-1.8-1-3.7-2-5-3.8c-0.5-0.7-0.9-1.4-0.9-2.2c0-1.8,0-3.5,0-5.3c0-0.9,0.3-1.8,0.7-2.6
			c0.6-1.2,1.1-2.4,1.6-3.7c0.5-1.4,1.4-2.5,2.2-3.7c1.5-2.1,3.4-3.7,5.4-5.3c1.1-0.9,2.2-1.8,3.3-2.7c2-1.7,4-3.4,6.1-5
			c1.3-1,2.2-2.2,2.7-3.8c0.1-0.5,0.5-1,0.7-1.5c0.9-1.6,0.6-2.6-1.1-3.5c-1-0.5-2.1-0.6-3.2-0.4c-1.1,0.2-2.2,0.4-3.3,0.5
			c-1.3,0.2-2.5,0.6-3.5,1.5c-0.2,0.2-0.5,0.5-0.8,0.6c-2.1,1.3-3.4,3.2-4.7,5.2c-0.3,0.5-0.6,1.1-1,1.6c-0.6,0.8-1.1,1.6-1.5,2.6
			c-0.1,0.4-0.4,0.8-0.6,1.1c-0.5,0.6-1,1.3-1.3,2c-0.3,0.5-0.7,1.1-1,1.6c-0.1,0.2-0.3,0.4-0.4,0.6c-0.8,1.8-2.3,3.1-3.2,4.8
			c-0.1,0.3-0.3,0.5-0.5,0.7c-0.7,0.7-1.1,1.6-1.4,2.5c-0.3,0.9-0.7,1.8-1.3,2.6c-0.4,0.6-0.6,1.3-0.7,2c-0.2,1.9-0.6,3.8-1.2,5.6
			c-0.6,1.9-1,3.9-1,5.9c0,1.7-0.3,3.3-0.7,5c-0.8,3.6-1.6,7.3-1.9,11c-0.1,0.6-0.2,1.1-0.4,1.7c-0.6,1.6-1,3.2-1.2,4.9
			c-0.4,3.8-0.8,7.6-1.3,11.4c-0.2,1.7-0.1,3.3,0.1,5c0.4,2.9-0.5,5.5-2.2,7.8c-0.1,0.2-0.3,0.4-0.5,0.5c-1.2,1.3-2.8,0.9-3.6-0.1
			c-1-1.3-2.2-2.5-2.8-4.1c-0.4-1.1-0.9-2.1-1.4-3.1c-0.4-0.8-0.3-1.5,0.1-2.2c0.3-0.4,0.5-0.8,0.7-1.2c1.5-2.5,2-5.1,1.5-8
			c-0.2-1.1-0.3-2.3-0.4-3.4c-0.2-3.2-0.3-6.4-0.4-9.6c-0.1-2.7-0.1-5.4-0.2-8c0-2.8-0.2-5.5-0.6-8.3c-0.1-1-0.2-2.1-0.3-3.1
			c0-0.4,0-0.8-0.1-1.1c-0.2-0.9-0.2-1.7-0.1-2.6c0-0.3,0-0.7,0-1c-0.1-0.6-0.4-1.1-0.9-1.4c-1-0.6-2.5-0.4-3.2,0.2
			c-1.3,1.1-2.6,2.2-3.9,3.2c-0.7,0.5-1.5,1-2.3,1.4c-1.5,0.8-3.1,0.6-4.6-0.1c-0.8-0.4-1.6-0.9-2.3-1.5c-1.1-0.9-1.4-2.2-1.4-3.5
			c0-0.9,0.2-1.8,0.6-2.6c0.2-0.4,0.6-0.8,1-1c1.9-0.8,3.7-1.3,5.8-0.9c1.8,0.4,3.7,0.3,5.6,0c2.1-0.3,4-1.3,5.5-2.8
			c0.9-0.9,1.4-2,1.4-3.3c0-1.8-0.1-3.5-0.1-5.3c0-0.9-0.1-1.8-0.2-2.7c-0.1-0.9-0.1-1.7-0.2-2.6c-0.1-1.4-0.1-2.9,0.5-4.2
			c0.3-0.7,0.8-1.3,1.5-1.6c0.5-0.2,0.9-0.3,1.4,0c0.2,0.1,0.4,0.2,0.5,0.3c1.4,1.3,2.5,2.7,2.7,4.8c0.1,1.3,0.2,2.7,0.2,4
			c0,1.3-0.1,2.5-0.7,3.6c-0.2,0.4-0.4,0.8-0.5,1.2c-0.1,0.5-0.2,0.9-0.2,1.4c0.1,0.8,0.6,1.3,1.4,1.5c0.7,0.2,1.5,0.1,1.9-0.6
			c0.7-1.2,1.5-2.5,2.1-3.7c0.2-0.5,0.3-1.1,0.4-1.7c0.1-1,0.1-1.9,0.2-2.9c0.1-0.6,0.1-1.2,0.3-1.7c0.4-1,1.5-1.2,2.3-0.5
			c0.3,0.3,0.7,0.7,0.8,1.1c0.4,1.2,0.7,2.4,1,3.6c0.1,0.5,0,1-0.2,1.5c-0.3,0.8-0.6,1.6-0.6,2.5c0,0.7-0.4,1.2-0.9,1.7
			c-0.5,0.4-0.9,0.9-1.2,1.4c-0.8,1.6-2.1,2.8-3.4,4c-0.5,0.5-1,0.9-1.6,1.2c-1.4,0.8-1.8,2.1-2,3.6c0,0.4,0,0.8,0,1.1
			c0.1,4.2-0.3,8.3-0.8,12.5c-0.1,1.2-0.2,2.4-0.3,3.6c-0.1,0.8-0.2,1.5-0.3,2.3c-0.1,0.5-0.1,1-0.1,1.4c0,0.3,0.1,0.6,0.3,0.8
			c0.4,0.6,1.2,0.7,1.7,0.2c0.2-0.2,0.4-0.5,0.6-0.8c0.2-0.4,0.3-0.9,0.3-1.4c0.1-1.3,0.3-2.5,0.9-3.7c0.5-1.1,0.6-2.4,0.7-3.6
			c0.1-0.7,0.1-1.3,0.1-2c0.1-1.2,0.3-2.5,0.7-3.6c0.6-1.8,1.2-3.6,1.5-5.5c0.1-0.8,0.4-1.5,0.8-2.2c0.5-1,1-2,1.4-3
			c0.3-0.6,0.5-1.2,1-1.7c0.6-0.6,0.9-1.3,1.1-2.1c0.2-0.8,0.5-1.5,1.2-2.1c0.5-0.4,0.8-1,0.9-1.6c0.2-0.9,0.6-1.7,1.2-2.4
			c0.2-0.3,0.5-0.6,0.6-1c0.6-1.9,1.9-3.3,3-4.9c1.2-1.6,2.5-3.2,3.7-4.8c1.6-2.1,3.6-4,5.8-5.6c0.3-0.3,0.7-0.5,1.1-0.7
			c0.9-0.5,1.7-1,2.6-1.6c0.7-0.4,1.3-0.7,2.1-0.9c0.6-0.1,1.1-0.3,1.6-0.5c1.1-0.5,2.3-0.9,3.5-1.1c1-0.2,2-0.5,3.1-0.8
			c1.1-0.3,1.7-1,1.9-2.1c0.2-1,0.3-2.1,0.4-3.1c0.3-2.3,0.8-4.6,1.4-6.9c0.4-1.8,0.7-3.6,0.5-5.4c0-0.6-0.1-1.1,0-1.7
			c0-0.4,0.1-0.8,0.2-1.1c0.2-0.5,0.6-0.8,1.1-0.8c0.8,0,1.5,0.3,1.9,1.1c0.5,0.8,0.8,1.7,0.8,2.7c0,0.9,0,1.8-0.1,2.7
			c-0.3,3.1-0.5,6.2-0.5,9.3c0,0.9-0.1,1.7-0.4,2.5c-0.7,2.1,0.3,2.7,1.7,3c0.8,0.2,1.5,0.2,2.3,0.1c0.9-0.1,1.7-0.1,2.6-0.1
			c0.3,0,0.6,0,0.9,0.1c0.7,0.2,1,0.7,1,1.4c-0.1,0.9-0.4,1.6-1.2,2c-0.4,0.2-0.9,0.4-1.3,0.5c-0.8,0.2-1.7,0.4-2.5,0.6
			c-0.9,0.3-1.7,0.7-2.2,1.5c-1.4,1.9-1.3,3.8,0.3,5.6c0.2,0.3,0.6,0.5,0.9,0.6c1.1,0.4,2.2,0.5,3.2,0c1.1-0.5,2.1-1.1,3.1-1.7
			c0.5-0.3,0.8-0.7,0.9-1.3c0.4-1.6,1-3.1,1.8-4.5c0.3-0.4,0.3-1,0.4-1.5c0.3-1.4,0.8-2.6,1.6-3.8c0.3-0.6,0.5-1.2,0.7-1.9
			c0.2-0.7,0.4-1.4,0.8-2c0.8-1.3,1.4-2.7,1.8-4.2c0-0.1,0.1-0.3,0.1-0.4c0.6-1.5,2.1-2,3.4-1.1c1.3,1,2.2,2.2,2.3,4
			c0,0.4,0,0.9,0,1.3c0,0.8-0.3,1.6-0.9,2.2c-0.9,0.9-1.4,1.9-2,3c-0.3,0.5-0.6,1-0.9,1.5c-0.2,0.3-0.4,0.6-0.5,0.9
			c-0.6,1.9-1.8,3.5-2.6,5.3c-0.3,0.8-0.7,1.4-1.3,2c-0.2,0.2-0.3,0.4-0.5,0.6c-0.6,0.7-1.2,1.5-1.8,2.2c-0.6,0.7-0.7,1.3-0.1,2
			c0.5,0.6,1,1.1,1.5,1.6c2,1.7,2.9,4,3.3,6.5c0.1,0.5,0.1,1-0.1,1.6c-0.6,2-1,4-1.3,6c-0.1,1-0.5,1.9-1,2.8c-0.6,0.9-0.9,1.8-1,2.8
			c-0.1,0.9-0.3,1.9-0.7,2.8c-1.1,2-1.4,4.3-1.6,6.5c0,0.5,0,1,0.1,1.4c0,0.3,0.1,0.6,0.3,0.8c0.5,0.9,1.2,1.2,2.2,0.9
			c0.4-0.1,0.8-0.4,1.2-0.6c0.6-0.4,1.3-0.5,2.1-0.6c2.3-0.1,4.6,0,6.9,0.4c1,0.2,1.8,0.5,2.5,1.3c0.9,1,1.2,2.4,0.4,3.4
			c-1,1.3-2.1,2.6-3.7,3.3c-1.3,0.5-2.5,0.9-3.9,0.8c-0.4,0-0.9-0.1-1.3-0.1c-0.9-0.1-1.7,0.3-2.3,1c-0.9,1-1.4,2.1-1.4,3.5
			c0.1,1.5,0,3-0.2,4.4c-0.1,0.7,0,1.3-0.1,2c-0.1,4-0.3,8-0.5,12.1c0,0.9-0.3,1.7-0.4,2.5c-0.2,1.3-0.4,2.6-0.6,3.8
			c-0.1,0.8-0.3,1.7-0.5,2.5c-0.4,1.4-1.3,2.5-2.5,3.4c-1.2,0.9-2.6,1.2-4.1,1c-1.1-0.2-2.2-0.6-3.2-1.2c-0.5-0.3-1-0.6-1.5-0.9
			c-1.8-1.2-3.9-1.6-6-1.6c-1.7,0-3.2-0.6-4.6-1.4c-1.2-0.7-1.9-1.8-1.8-3.2c0-0.8,0-1.6,0.1-2.4c0-0.3,0.2-0.7,0.3-0.9
			c0.2-0.4,0.6-0.6,1.1-0.6c0.5,0.1,1,0.3,1.4,0.6c0.6,0.4,1.3,0.9,1.9,1.2c1.5,0.9,3.2,1.1,4.8,0.6c1.1-0.3,2.2-0.7,3.3-1.1
			c0.1,0,0.3-0.1,0.4-0.2c1.7-1.3,3.1-2.9,3.3-5.2C498.9,669.2,498.8,667.4,498.9,665.6C498.9,665.6,498.9,665.6,498.9,665.6z
			 M505.5,620.1c-0.1-1.5-0.6-3.3-1.4-5.1c-0.4-0.9-1.1-1.2-2.1-1.1c-0.4,0-0.7,0.1-1.1,0.2c-0.6,0.1-1-0.1-1.3-0.7
			c-0.2-0.4-0.4-0.9-0.6-1.3c-0.3-0.6-0.8-0.8-1.5-0.7c-0.4,0-0.8,0.2-1.1,0.4c-0.9,0.5-1.5,1.3-2,2.2c-0.3,0.6-0.2,1.2,0.3,1.7
			c0.3,0.3,0.8,0.6,1.2,0.8c0.4,0.2,0.8,0.2,1.3,0.3c1.1,0.2,1.8,0.9,2,2c0.2,1,0.1,2-0.9,2.7c-1.2,0.8-1.6,1.9-1.6,3.2
			c0,1.3,0.1,2.7,0.1,4c0,0.9,0,1.7,0,2.6c0,1-0.4,1.8-1,2.5c-0.4,0.4-0.8,0.8-1.3,1.2c-0.3,0.3-0.7,0.5-1,0.8
			c-0.8,0.7-0.6,1.8,0.5,2c0.7,0.1,1.5,0.2,2.3,0.1c1.1,0,2-0.5,2.7-1.4c0.2-0.2,0.4-0.5,0.6-0.6c1.1-0.9,1.6-2.1,1.8-3.5
			c0.1-0.7,0.3-1.3,0.5-1.9c0.9-2.2,1.8-4.4,2.8-6.6C505.1,622.7,505.5,621.6,505.5,620.1z M499.4,644.8c0-0.2,0-0.4,0-0.5
			c-0.1-2.2-0.9-2.9-3.1-2.5c-1.1,0.2-2.2,0.4-3.3,0.4c-0.8,0-1.6,0.2-2.3,0.7c-0.5,0.4-1,0.7-1.5,1.1c-0.6,0.5-0.9,1.2-1.1,2
			c-0.1,0.5-0.2,0.9-0.2,1.4c-0.1,0.8-0.4,1.6-0.9,2.2c-0.2,0.3-0.4,0.5-0.5,0.8c-0.4,0.9,0.1,1.8,1,2c0.7,0.2,1.3,0.1,1.9-0.2
			c0.3-0.2,0.7-0.4,0.9-0.6c0.7-0.6,1.4-0.9,2.3-1.2c1-0.2,1.9-0.7,2.7-1.2c0.6-0.4,1.2-0.8,1.9-1.1c1.3-0.5,1.9-1.4,1.9-2.7
			C499.3,645.3,499.4,645,499.4,644.8z M481.8,650.7c-0.1-0.3-0.2-0.8-0.4-1.3c-0.2-0.6-0.8-0.7-1.3-0.5c-1.1,0.6-2.1,1.3-2.6,2.6
			c-0.4,1.1-1,2.1-1.8,2.9c-0.5,0.5-0.6,1.2-0.5,1.9c0.1,0.6,0.6,1.2,1.3,1.2c0.5,0,0.9-0.1,1.4-0.3c0.6-0.2,1.1-0.7,1.5-1.3
			c0.6-0.8,1.1-1.6,1.6-2.4C481.6,652.8,481.7,651.9,481.8,650.7z"/>
		<path d="M587.3,642.3c0,1.2,0,2.5,0,3.7c0,1.3-0.1,2.7-0.2,4c0,1.9-0.1,3.7,0,5.6c0.1,2.7,0.3,5.4,0.5,8.2c0.1,1.7,0.3,3.3,0.5,5
			c0.2,1.4-0.2,2.6-0.9,3.7c-0.7,1-1.6,1.5-2.8,1.4c-0.7,0-1.4-0.2-2.1-0.5c-1.3-0.5-2.7-1.1-4-1.6c-1.5-0.6-3.1-1-4.7-1.1
			c-1.9-0.2-3.8-0.3-5.7-0.2c-0.8,0-1.6-0.1-2.4-0.1c-0.7,0-1.4,0-2.1-0.1c-1.7-0.2-3.1,0.5-4.3,1.6c-0.8,0.8-1.5,1.6-2.2,2.5
			c-0.7,0.9-1.5,1.6-2.5,2c-0.3,0.1-0.5,0.2-0.8,0.3c-2.5,0.9-2.7,0.9-5.1-0.1c-0.8-0.3-1.4-0.8-1.9-1.5c-0.3-0.4-0.6-0.9-0.9-1.3
			c-0.8-1.3-0.9-2.6-0.1-3.9c0.5-0.9,0.9-1.8,1.4-2.7c0.3-0.6,0.7-1,1.3-1.2c2.1-0.8,3.8-2.2,5.4-3.7c0.5-0.5,0.9-1,1.4-1.5
			c1.8-2.2,4-3.9,6.1-5.6c1.7-1.3,3.3-2.6,4.9-4c0.8-0.7,1.5-1.6,2.3-2.4c0.9-1,1.8-2,2.7-3c2.4-2.8,4.8-5.6,7.2-8.4
			c0.6-0.7,1.3-1.2,2-1.9c0.2-0.2,0.5-0.4,0.8-0.6c0.7-0.6,0.8-1.3,0.6-2.1c-0.2-0.9-1-1.3-1.9-1c-0.4,0.1-0.8,0.3-1.1,0.6
			c-0.6,0.4-1.2,0.9-1.8,1.4c-0.3,0.2-0.6,0.5-0.9,0.7c-0.9,0.7-4.8,2.4-5.9,2.6c-1.3,0.1-2.6-0.1-3.8-0.6c-0.3-0.1-0.5-0.3-0.8-0.4
			c-2.2-0.8-3.6-2.4-5-4.2c-0.6-0.7-0.9-1.5-0.9-2.4c-0.1-2.4-0.3-4.8-0.3-7.2c0-1.2,0-2.4,0-3.6c0.1-1.6,0.4-3.2,0.5-4.9
			c0.1-0.7,0.3-1.3,0.6-1.9c0.7-1.4,1.3-2.8,2.1-4.1c0.4-0.8,0.9-1.4,1.4-2.1c0.8-1.1,1.6-2.3,2.4-3.4c1-1.4,2.1-0.9,2.8,0.1
			c0.2,0.3,0.4,0.8,0.5,1.2c0.2,0.6,0.4,1.3,0.6,1.9c0.4,1.4,0.9,2.7,1.3,4.1c0.8,2.3,1.3,4.6,1.1,7c-0.1,1-0.3,1.9-0.7,2.8
			c-0.5,1-0.9,2.1-1.4,3.2c-0.4,1.1-1,2.1-1.7,3c-0.8,1.2-1.2,2.5-1.1,3.9c0,1.1,0.7,1.8,1.8,1.8c0.9,0,1.6-0.3,2.2-0.9
			c1.3-1.2,2.7-2.3,4-3.5c0.2-0.2,0.5-0.4,0.7-0.7c0.8-1.1,1.6-2.3,2.4-3.4c0.6-0.8,0.9-1.8,1.1-2.8c0.1-0.6,0.4-1.3,0.6-1.9
			c0.5-1.1,0.7-2.2,0.7-3.3c0-1.5,0-3.1,0-4.6c0-1.5-0.3-2.8-0.9-4.2c-0.4-0.9-0.7-1.8-1-2.7c-0.7-1.8-0.3-3.5,0.8-5
			c0.8-1.1,1.8-1.8,3-2.4c0.7-0.3,1.4-0.3,2.1,0.1c1.4,0.8,2.4,1.9,2.7,3.5c0.5,2.1,0.8,4.1,0.5,6.3c-0.3,2.8-0.3,5.6-0.3,8.5
			c0,0.9-0.1,1.7,0,2.6c0.1,1.3,0.4,2.5,1.3,3.4c0.7,0.7,1.6,0.7,2.4,0.2c0.2-0.2,0.4-0.4,0.6-0.6c0.3-0.3,0.5-0.6,0.7-0.9
			c1.4-1.8,2.8-3.7,4.2-5.5c1.7-2.3,3.5-4.6,5.2-6.9c0.5-0.6,1-1.3,1.5-1.9c0.3-0.4,0.7-0.8,1-1.2c0.9-1.4,2.2-2.4,3.5-3.4
			c1.2-1,2.6-1.3,4.2-1.2c0.6,0,1.2,0.2,1.7,0.6c0.9,0.7,1.5,1.6,2.2,2.5c0.2,0.3,0.2,0.6,0.3,0.9c0,0.4,0,0.9,0,1.3
			c-0.1,1.4-0.1,2.8-0.3,4.1c-0.4,2.3-1,4.5-1.5,6.7c0,0.1-0.1,0.2-0.1,0.3c-1,1.4-1.4,3-2.2,4.5c-0.8,1.4-1.5,2.8-1.9,4.3
			c-0.1,0.5-0.4,0.9-0.6,1.3c-0.7,1.7,0.1,3.3,2,3.6c1.3,0.2,2.5,0,3.6-0.8c1.1-0.8,2.3-1.1,3.6-1.1c1.4,0,2.8-0.1,4.2-0.1
			c0.9,0,1.7,0.2,2.5,0.7c0.8,0.5,1.6,0.8,2.4,1.3c1.3,0.8,2.6,1.6,3.9,2.4c0.8,0.5,1.4,1.2,1.9,1.9c0.4,0.6,0.6,1.3,0.7,2
			c0.2,1.6,0.4,3.2,0.5,4.8c0.1,0.8,0.1,1.6,0,2.4c-0.2,1.9-0.5,3.8-0.7,5.7c-0.1,0.9-0.4,1.8-0.8,2.6c-0.3,0.6-0.5,1.1-0.6,1.7
			c-0.7,3.5-2.1,6.7-4,9.8c0,0-0.1,0.1-0.1,0.1c-1.4,2.7-3.2,5.3-4.6,8.1c-0.2,0.4-0.4,0.8-0.6,1.2c-0.5,1.2-1.3,2.2-2.1,3.3
			c-0.6,0.8-1.5,1.2-2.5,1.2c-0.9,0-1.7,0-2.6-0.1c-1.3-0.1-2.6-0.2-3.9-0.2c-0.5,0-1,0-1.4,0c-1.7,0-3.3-0.4-4.7-1.5
			c-0.5-0.3-1-0.5-1.5-0.7c-0.9-0.4-1.9-0.5-2.9-0.3c-1.5,0.3-3,0.7-4.2,1.6c-0.5,0.4-1.1,0.6-1.7,0.8c-0.9,0.3-1.8,0.7-2.6,1.3
			c-0.4,0.3-0.8,0.5-1.2,0.7c-0.5,0.3-1.1,0.2-1.7,0c-0.6-0.2-1-0.7-1.1-1.4c-0.1-0.8,0.1-1.5,0.8-1.9c0.4-0.2,0.9-0.4,1.3-0.5
			c0.9-0.2,1.6-0.6,2.4-1c0.6-0.4,1.2-0.7,1.9-1.1c0.5-0.3,1-0.6,1.4-0.9c1.3-1.1,1.4-2.5,0.4-3.8c-0.2-0.2-0.4-0.4-0.6-0.6
			c-0.7-0.7-1-1.6-1-2.6c0-0.5,0-1.1,0-1.6c0-1.5-0.6-2.6-1.8-3.4c-0.5-0.3-1-0.7-1.5-1.1c-1.3-1.3-2.1-2.8-2.5-4.6
			c-0.2-0.9-0.1-1.7,0.2-2.5c0.4-0.9,0.8-1.8,1.2-2.6c0.3-0.5,0.7-1.1,1.1-1.5c0.9-0.9,1.9-1.6,2.8-2.4c1.1-0.9,2.2-1.2,3.6-0.8
			c0.7,0.2,1.5,0.5,2.2,0.7c0.4,0.1,0.7,0.3,1.1,0.4c0.8,0.3,1.5,0.2,2.1-0.4c0.4-0.4,0.8-0.8,1.2-1.2c1.4-1.4,2.5-1.3,3.8,0.1
			c1.2,1.2,2.4,2.4,3.5,3.6c0.4,0.4,0.6,0.9,0.9,1.3c0.6,0.7,0.6,1.4,0.1,2.3c-0.8,1.4-1.5,2.8-2.3,4.1c-0.5,0.8-0.8,1.7-0.9,2.7
			c0,1.4-0.4,2.7-1.1,4c-0.9,1.6-1.4,3.3-2.1,5c-0.6,1.6,0.2,3.1,1.9,3.6c1,0.3,2.1,0.4,3.1,0.3c0.5-0.1,1-0.2,1.5-0.5
			c1.1-0.6,2.1-1.3,3-2.2c0.6-0.7,1.3-1.4,1.9-2.2c0.3-0.4,0.5-0.9,0.8-1.4c0.2-0.4,0.3-0.9,0.6-1.3c0.9-1.5,1.3-3.2,1.7-4.8
			c0.3-1.3,0.8-2.7,1.2-4c0.4-1.3,0.7-2.7,0.9-4.1c0.1-1.6,0.4-3.2,1-4.7c0.6-1.4,0.9-2.9,1.3-4.4c0.7-2.3,0-4.2-1.5-5.8
			c-1-1-2.1-1.9-3.1-2.8c-0.8-0.7-1.7-0.7-2.6-0.1c-0.8,0.5-1.7,0.9-2.5,1.3c-0.4,0.2-0.9,0.4-1.3,0.6c-0.2,0.1-0.4,0.3-0.6,0.4
			c-1.4,0.7-2.9,1.3-4.2,2.1c-1.3,0.8-2.7,1.5-4.1,2.1c-0.4,0.1-0.7,0.3-1,0.5c-0.9,0.7-1.9,0.9-2.9,1.1c-0.6,0.1-1.2,0.2-1.8,0.3
			c-1.2,0.3-2.4-0.1-3.4-0.7c-0.8-0.5-1.3-1.2-1.3-2.1c0-1.4,0.2-2.6,1.1-3.8c0.8-1.2,1.6-2.4,2.4-3.5c1.1-1.4,2-3,3-4.6
			c0.2-0.4,0.5-0.7,0.7-1.1c0.4-0.6,0.8-1.1,1.1-1.7c0.5-0.9,1-1.8,1.6-2.6c0.3-0.4,0.5-1,0.8-1.5c0.4-0.8,0.8-1.5,1.2-2.3
			c0.3-0.5,0.7-1,0.9-1.6c0.4-1,0.9-1.9,1.7-2.7c1-1,1.1-2.2,0.9-3.5c-0.2-1.2-1.3-1.6-2.3-0.9c-0.3,0.2-0.5,0.5-0.7,0.7
			c-1,1.7-2.3,3.2-3.5,4.7c-0.9,1.1-1.7,2.2-2.6,3.3c-1.1,1.3-2.2,2.5-3.4,3.7c-1.9,2-3.6,4.1-5.3,6.3c-1.1,1.5-2.3,2.8-3.4,4.2
			c-0.7,0.9-1.5,1.7-2.3,2.6c-0.7,0.7-1,1.6-1,2.6c0,0.4,0,0.8,0,1.1C587.3,638.8,587.3,640.5,587.3,642.3
			C587.4,642.3,587.4,642.3,587.3,642.3z M574.7,665.8c0.6,0,1.2,0,1.7-0.1c1-0.1,1.9-0.4,2.7-0.9c1.4-0.9,2.1-2,2-3.7
			c-0.1-1.5-0.1-3-0.2-4.4c-0.2-1.9,0-3.8,0.3-5.7c0.1-0.7,0.1-1.4,0.1-2.1c0-0.4-0.1-0.8-0.3-1.1c-0.3-0.6-1-0.8-1.6-0.4
			c-0.4,0.3-0.6,0.6-0.7,1.1c-0.3,1.4-0.8,2.7-1.5,4c-0.1,0.2-0.2,0.5-0.3,0.8c-0.3,0.7-0.6,1.4-0.9,2.1c-0.5,1-1,2.1-1.5,3.1
			c-0.6,1.1-1.2,2.3-1.8,3.4c-0.3,0.5-0.6,1-0.9,1.5c-0.6,1.2-0.1,2.2,1.3,2.4C573.6,665.8,574.2,665.8,574.7,665.8z M602.4,662.1
			c0.6,0,1.2-0.1,1.7-0.5c0.5-0.4,0.7-0.9,0.7-1.5c0.1-1.3,0.4-2.5,1.2-3.6c0.2-0.3,0.3-0.7,0.4-1.1c0.2-0.9-0.4-1.6-1.3-1.7
			c-1.2-0.2-2.1,0.4-2.5,1.6c-0.1,0.2-0.1,0.5-0.1,0.7c-0.2,1.1-0.5,2.1-1,3.1c-0.2,0.3-0.3,0.7-0.4,1.1
			C600.7,661.3,601.3,662.1,602.4,662.1z"/>
		<path d="M702.9,619c0.6-0.1,1.1-0.1,1.7-0.2c0.6-0.1,1.2-0.4,1.5-1c0.8-1.4,2-2.5,3-3.7c0.1-0.1,0.1-0.1,0.2-0.2
			c0.6-0.6,1.3-1.2,2.3-0.9c1.1,0.4,2,1,2.3,2.2c0.1,0.4,0.2,0.8,0.3,1.1c0.1,0.4,0.2,0.7,0.4,1.1c0.4,0.9,1.1,1.4,2.2,1.3
			c1.2-0.1,2.3-0.4,3.2-1.1c0.8-0.6,1.7-1,2.6-1.4c0.7-0.3,1.3-0.6,1.9-1.1c0.6-0.5,1.3-0.8,2.1-1c0.7-0.1,1.4-0.5,1.9-0.9
			c0.7-0.6,1.5-1,2.4-1.3c0.9-0.3,1.7-0.7,2.4-1.2c0.4-0.3,0.8-0.5,1.3-0.7c1.1-0.5,2.1-0.9,3-1.6c0.2-0.2,0.5-0.3,0.8-0.4
			c1.2-0.3,2.4-0.6,3.6-0.9c1.7-0.3,3.4,0,5.1,0.3c0.8,0.1,1.6,0.5,1.9,1.3c0.4,1,0.3,2-0.4,2.9c-0.2,0.3-0.6,0.7-0.9,0.9
			c-1.3,0.8-2.4,1.8-3.5,2.8c-2.1,1.9-4.3,3.6-6.6,5.3c-1.4,1-2.8,2-4.2,3c-0.1,0.1-0.2,0.2-0.3,0.3c-1.5,0.8-3.1,1.7-4.7,2.5
			c-0.5,0.3-1.1,0.5-1.4,1c-0.4,0.6-1.1,0.9-1.8,1.1c-0.5,0.1-0.9,0.3-1.3,0.5c-0.6,0.4-0.7,1-0.5,1.6c0.3,0.7,0.8,1,1.6,1
			c0.7-0.1,1.4-0.3,1.7-1c0.7-1.3,1.8-1.6,3.1-1.7c0.4,0,0.8-0.1,1.1-0.2c2.2-0.2,3.4,1.1,3.1,3.2c0,0.2-0.1,0.5-0.1,0.7
			c0,0.6-0.1,1.2,0,1.7c0.1,1.2,0.7,2.1,1.9,2.4c0.4,0.1,0.8,0.2,1.2,0.4c1.3,0.6,1.5,1.5,0.5,2.5c-0.9,0.9-2,1.5-3.1,2
			c-0.8,0.3-1.6,0.5-2.5,0.7c-0.8,0.2-1.6,0.1-2.4-0.2c-0.3-0.1-0.5-0.3-0.8-0.4c-1-0.4-1.7-1.1-2.1-2c-0.2-0.4-0.4-0.9-0.7-1.3
			c-0.2-0.3-0.4-0.6-0.7-0.9c-0.7-0.6-1.7-0.3-1.9,0.6c-0.1,0.3-0.1,0.7-0.1,1c0,1.5-0.4,2.9-0.8,4.4c-0.5,1.6-0.9,3.3-1.7,4.9
			c-0.2,0.4-0.2,0.8-0.2,1.2c0,0.5,0.3,0.9,0.8,1.1c0.8,0.4,1.8,0.1,2.3-0.6c0.1-0.2,0.3-0.4,0.4-0.6c0.6-1,1.3-2,1.9-3
			c0.2-0.3,0.5-0.6,0.7-0.9c0.7-0.6,1.4-0.7,2.3-0.4c1.3,0.5,2.4,1.2,3.4,2c1,0.8,1.9,1.6,2.8,2.4c0.4,0.4,0.8,0.8,1.1,1.3
			c0.6,0.9,0.6,1.9-0.1,2.8c-0.3,0.3-0.6,0.7-0.9,1c-1.5,1.4-3.1,2.9-4.6,4.3c-0.2,0.2-0.4,0.3-0.5,0.5c-0.7,0.9-0.5,2,0.5,2.6
			c0.5,0.2,1,0.4,1.5,0.6c0.5,0.2,1.1,0.3,1.6,0.5c0.9,0.3,1.6,0.8,2.2,1.6c0.8,1.2,0.9,2.2-0.1,3.6c-0.3,0.4-0.7,0.7-1,1
			c-0.8,0.5-1.6,1-2.4,1.5c-1.2,0.7-2.6,1-4,0.9c-1.7-0.2-3.3-0.5-4.7-1.6c-1-0.8-2-1.5-3-2.2c-1.4-1-1.5-2.7-0.9-3.8
			c0.2-0.5,0.5-0.9,0.9-1.3c0.6-0.8,1.3-1.5,2-2.3c0.7-0.8,1.2-1.6,1.2-2.7c0-0.9-0.4-1.7-1.3-2.1c-0.8-0.4-1.7-0.3-2.5,0.2
			c-0.3,0.2-0.5,0.5-0.6,0.8c-0.2,0.4-0.3,0.9-0.4,1.4c-0.2,1-0.5,1.9-1.1,2.8c-0.5,0.7-0.9,1.4-1.2,2.1c-0.5,1-0.6,2-0.3,3.1
			c0.2,0.8,0.7,1.5,1.4,2c0.9,0.7,1.3,1.5,1.5,2.5c0.1,0.4,0.1,0.9,0.1,1.3c-0.1,0.9-0.6,1.5-1.4,1.8c-0.2,0.1-0.5,0.1-0.7,0.2
			c-1.2,0.2-2.4,0.8-3.5,1.3c-0.8,0.4-1.7,0.7-2.5,1c-1.6,0.4-2.8-0.2-3.5-1.7c-0.4-0.9-0.5-1.8-0.6-2.8c0-0.9-0.4-1.8-0.9-2.5
			c-0.5-0.8-1.2-0.9-2-0.4c-0.5,0.4-1,0.9-1.5,1.3c-1.4,1.1-2,1.1-3.3-0.1c-0.8-0.7-1.4-1.4-2.1-2.2c-0.4-0.4-0.8-0.8-1.4-1
			c-1.1-0.4-1.8-0.2-2.5,0.8c-1.5,2.3-3.7,3.8-6.2,4.9c-1.2,0.5-2.5,1-3.7,1.6c-0.6,0.3-1.1,0.8-1.6,1.2c-0.8,0.7-1.6,1.5-2.4,2.2
			c-1.1,1-2.1,1.1-3.3,0.3c-0.7-0.5-1.4-1.1-2.1-1.8c-1.3-1.2-2.4-2.6-3.3-4.1c-0.5-0.8-0.6-1.6,0-2.4c0.6-0.9,1.1-1.8,1.7-2.6
			c0.7-1,1.3-2.1,1.8-3.3c0.3-0.7,0.5-1.3,0.9-2c0.5-0.9,0.8-1.9,0.9-3c0.1-1.6,0.5-3,1.2-4.4c1-2.1,1.2-4.3,1.1-6.6
			c0-0.4-0.3-0.9-0.6-1.3c-0.6-0.7-1.5-0.7-2.1,0.1c-0.1,0.1-0.2,0.2-0.2,0.4c-0.6,1.4-1.2,2.8-1.8,4.2c-0.2,0.4-0.3,0.8-0.5,1.2
			c-0.6,1.3-1.2,2.6-2,3.8c-0.8,1.3-1.8,2.6-2.8,3.8c-2.2,2.6-4.8,4.8-7.6,6.8c-0.8,0.6-1.7,1-2.8,1.1c-0.4,0-0.8,0-1.1,0
			c-0.8-0.2-1.3-0.8-1.2-1.7c0.1-0.3,0.2-0.6,0.2-1c0.2-0.9,0.4-1.8,0.5-2.7c0.2-2,0.7-3.9,1.6-5.8c0.9-1.9,2.1-3.5,3.5-5
			c1.4-1.5,2.8-3,4.2-4.6c1.7-2.1,3.4-4.3,5.1-6.4c0.1-0.1,0.1-0.2,0.2-0.2c0.9-2.1,2.5-3.7,3.5-5.7c0.8-1.5,1.8-2.9,2.7-4.4
			c0.2-0.3,0.3-0.6,0.5-0.9c0.4-0.8,0.8-1.5,1.2-2.3c1-1.9,2-3.7,3-5.6c0.2-0.4,0.4-0.8,0.6-1.2c0.5-1.1,1-2.1,1.6-3.2
			c0.2-0.4,0.5-0.8,0.6-1.3c0.4-1,0.9-1.9,1.5-2.8c0.2-0.3,0.4-0.7,0.5-1c0.5-1,1-2.1,1.5-3.1c0.3-0.7,0.6-1.5,0.9-2.3
			c0.1-0.3,0.2-0.6,0.3-0.8c1.1-2,2.2-3.9,3.2-5.9c0.2-0.3,0.3-0.6,0.5-0.9c0.6-1.2,1.1-2.3,1.9-3.4c0.4-0.5,0.6-1.2,0.9-1.8
			c0.1-0.3,0.3-0.6,0.4-0.9c0.6-1,1.5-1.3,2.6-0.9c0.8,0.3,1.5,0.7,1.9,1.4c0.7,1.1,1.5,2.1,2.1,3.2c1.2,2.4,1.3,4.8-0.4,7.2
			c-0.9,1.2-1.8,2.5-3.1,3.3c-0.1,0.1-0.1,0.1-0.2,0.2c-0.8,0.8-0.8,1.6,0,2.3c0.7,0.6,1.4,1.1,2.3,1.5c0.5,0.2,1.1,0.4,1.6,0.7
			c0.4,0.2,0.8,0.5,1.1,0.9c0.6,0.6,0.7,1.3,0.2,2c-0.6,0.9-1,2-1.3,3c-0.1,0.2-0.2,0.4-0.3,0.7c-1.1,0-2.1-0.4-2.7-1.3
			c-0.2-0.4-0.4-0.7-0.7-1.1c-0.9-1.3-2.5-1.8-3.9-1.1c-0.7,0.3-1.3,0.8-1.8,1.4c-0.7,0.8-1.5,1.6-2.1,2.6c-0.8,1.3-1.7,2.6-2.6,3.9
			c-1,1.4-1.6,3-2.4,4.5c-0.2,0.5-0.5,0.9-0.8,1.3c-0.6,0.8-1.1,1.7-1.4,2.7c-0.2,0.6-0.5,1.1-0.9,1.6c-0.3,0.4-0.7,0.8-0.8,1.3
			c-0.4,1.1-1,1.9-1.9,2.6c-0.6,0.5-0.9,1.1-0.8,1.9c0.1,0.7,0.5,1,1.1,1.1c0.7,0.1,1.4,0,1.9-0.5c0.9-0.8,1.9-1.3,2.9-1.8
			c1.1-0.5,1.8-1.4,2.6-2.2c0.7-0.7,1.3-1.4,1.9-2.1c0.9-1.1,1.3-2.3,0.9-3.7c-0.2-0.8-0.4-1.7-0.5-2.5c-0.1-0.9,0.2-1.7,0.8-2.4
			c0.8-0.9,1.7-1.2,3-0.9c1.3,0.4,2.3,1.2,3.1,2.2c0.3,0.4,0.6,0.8,0.9,1.1c0.3,0.3,0.8,0.3,1,0c0.2-0.3,0.4-0.6,0.5-1
			c0.1-0.5,0.1-1,0.2-1.6c0.1-1.2,0.4-2.3,1.4-3.2C702.2,620.7,702.6,619.9,702.9,619z M696.5,647.7c0.1,0.4,0.1,0.9,0.2,1.4
			c0.3,1.2,0.6,2.5,0.8,3.8c0.2,1.5,1.2,1.9,2.4,1c0.5-0.4,1.1-0.8,1.6-1.2c1.3-0.7,2.3,0,2.3,1.4c0,0.2,0,0.4-0.1,0.6
			c-0.2,1.1-0.6,2.1-1.2,3c-0.3,0.4-0.6,0.9-0.7,1.4c-0.4,1.4,0.7,2.5,2.1,2.2c0.6-0.1,1-0.5,1.1-1c0.2-0.5,0.3-1.1,0.4-1.7
			c0.2-1.5,0.8-2.7,1.7-3.9c2-2.4,3.3-5,3.5-8.2c0.1-1.3,0.3-2.6,0.8-3.8c0.6-1.6,1-3.2,1.1-4.9c0.2-2.5,1.3-4.5,2.7-6.4
			c1.4-2,3.4-3.5,5.5-4.8c1.8-1.1,3.6-2.1,5.3-3.4c1.4-1,2.7-2.2,4.4-2.9c0.9-0.4,1.2-1.3,1.2-2.3c0-0.7-0.3-1-1-0.9
			c-1.2,0.1-2.4,0.4-3.3,1.3c-0.7,0.7-1.6,1.2-2.5,1.6c-0.9,0.3-1.7,0.7-2.4,1.3c-0.5,0.3-1,0.6-1.5,0.8c-0.9,0.4-1.8,0.9-2.6,1.5
			c-0.5,0.4-1,0.7-1.6,0.9c-1.9,0.7-3.5,2-5.2,3c-1.2,0.7-2.2,1.6-3.3,2.5c-0.3,0.2-0.6,0.5-1,0.6c-1.2,0.6-2.3,1.1-3.5,1.7
			c-1.1,0.5-2.1,0.3-2.8-0.7c-0.3-0.4-0.5-0.8-0.8-1.2c-0.3-0.4-0.5-0.8-0.8-1.2c-0.4-0.5-0.9-0.5-1.4-0.1c-0.1,0.1-0.2,0.2-0.3,0.3
			c-1.1,1.4-1.1,3.2,0.1,4.6c0.1,0.1,0.2,0.2,0.3,0.3c1.9,2.2,2.2,5,0.7,7.6c-0.3,0.5-0.7,1-1,1.6
			C696.9,644.9,696.7,646.2,696.5,647.7z M683.7,665.9c0.1,0,0.6-0.1,1-0.3c0.3-0.1,0.5-0.2,0.8-0.4c1.2-0.8,2.4-1.5,3.8-2
			c0.3-0.1,0.6-0.3,0.9-0.5c1.3-0.9,1.3-3-0.1-3.9c-0.3-0.2-0.6-0.3-0.9-0.5c-1.7-1.2-2.3-3.2-1.5-5.2c0.3-0.8,0.7-1.6,1.1-2.4
			c0.5-1.1,0.5-2.1,0.1-3.2c-0.2-0.6-0.5-1.2-1.2-1.3c-0.7-0.2-1.2,0.3-1.6,0.8c-0.2,0.3-0.4,0.5-0.6,0.8c-0.5,1-1,2-1.2,3.1
			c-0.4,1.8-0.6,3.6-0.4,5.4c0.1,1,0.1,1.9-0.5,2.8c-0.4,0.7-0.9,1.4-1.4,2.1c-0.3,0.4-0.6,0.7-0.9,1.1c-0.7,1-0.6,1.8,0.2,2.7
			C682,665.6,682.6,665.9,683.7,665.9z M692.7,639c-0.3,0-0.6,0.1-0.8,0.1c-1.6,0.4-1.7,2.3-0.9,3.1c0.2,0.2,0.6,0.4,0.9,0.4
			c1.4,0.1,2.8-1.5,2.4-2.8c-0.1-0.4-0.4-0.7-0.8-0.7C693.2,639,693,639,692.7,639z"/>
		<path d="M202.7,616.7c1.1,0.3,2-0.1,2.9-0.6c0.4-0.3,0.8-0.7,1.2-1.1c0.4-0.4,0.8-0.7,1.3-0.9c0.8-0.3,1.6-0.6,2.4-1
			c1.9-0.9,3.5,0.1,4.5,1.2c0.4,0.5,0.5,1,0.3,1.6c-0.2,0.6-0.5,1-1,1.4c-2.7,1.9-4.9,4.4-7.4,6.5c-0.9,0.7-1.8,1.5-2.7,2.2
			c-0.7,0.5-1.4,0.9-2.3,1.1c-0.1,0-0.3,0.1-0.4,0.1c-1.2,0.4-1.7,1.4-1.1,2.6c0.2,0.3,0.4,0.5,0.6,0.8c0.3,0.3,0.6,0.5,0.8,0.8
			c0.7,0.7,0.9,1.5,0.5,2.4c-0.2,0.4-0.3,0.8-0.5,1.2c-0.4,1.2-0.2,2.3,0.7,3.2c0.1,0.1,0.1,0.1,0.2,0.2c1.2,1,1.4,2.3,1.1,3.8
			c-0.1,0.6-0.2,1.2-0.2,1.8c0,1,0.5,1.7,1.5,2c0.5,0.1,0.9,0.3,1.4,0.5c2.4,0.8,2.2,3.2,0.9,4.3c-0.9,0.8-1.7,1.6-2.6,2.4
			c-2.1,1.9-4.2,3.8-6.2,5.7c-0.5,0.5-0.9,1-1,1.7c-0.1,1.9-0.7,3.7-1.2,5.5c-0.7,2.4-1,4.8-1.3,7.2c-0.3,3.1-0.9,6.1-1.6,9
			c-0.3,1.4-0.5,2.8-0.4,4.3c0,0.6,0,1.2-0.2,1.7c-0.2,0.8-1,1.1-1.7,0.6c-0.7-0.5-1.1-1.2-1.4-2c-0.4-1-0.6-2-0.6-3.1
			c0-2.9-0.2-5.7-0.5-8.6c0-0.4,0-0.8,0-1.1c0-1.4-0.1-2.8-0.4-4.1c-0.2-0.6-0.2-1.2,0-1.8c0.1-0.6,0.2-1.2,0.3-1.8
			c0.1-1.7-0.9-2.3-2.4-1.6c-0.4,0.2-0.8,0.5-1.1,0.9c-1.2,1.2-2.4,2.3-3.6,3.5c-1.1,1-2.3,1-3.3-0.1c-0.7-0.7-1.3-1.6-1.7-2.5
			c-1.2-2.8-0.7-5,1.5-6.9c1.3-1.1,2.7-2,4.3-2.6c1.6-0.5,2.8-1.6,4-2.7c0.6-0.5,0.9-1.2,1.1-2c0.4-1.5-0.5-2.5-2-2.3
			c-0.3,0-0.7,0.1-1,0.2c-0.2,0.1-0.5,0.2-0.7,0.2c-1.4,0.3-2.5-0.4-2.8-1.8c-0.2-0.8-0.2-1.5,0-2.3c0.5-2.3,1-4.6,1.5-6.9
			c0.3-1.3,0.9-2.4,2-3.2c0.8-0.7,1.6-1.3,2.4-2c0.5-0.4,1-0.9,1.4-1.4c0.2-0.2,0.3-0.5,0.4-0.7c0.2-0.5-0.1-1.1-0.6-1.3
			c-1.1-0.4-2.2-0.4-3.3,0.3c-0.3,0.2-0.6,0.5-0.9,0.7c-0.3,0.2-0.6,0.5-0.9,0.7c-1.6,1-3.3,1.9-4.9,2.9c-1.1,0.7-2.2,1.3-3.3,2
			c-0.5,0.3-0.8,0.7-1,1.2c-0.6,1.4-1.2,2.9-1.4,4.5c-0.3,2.6-0.8,5.2-0.9,7.8c-0.1,0.8-0.4,1.7-0.7,2.5c-0.6,1.6-1.1,3.2-1.3,4.8
			c-0.2,1.5-0.6,3-1.3,4.4c-0.4,0.9-0.7,2-1,3c-0.3,1-0.7,1.9-1.2,2.7c-0.9,1.6-3.2,1.7-4.2,0.4c-0.6-0.8-1.4-1.5-2-2.2
			c-0.2-0.2-0.4-0.4-0.5-0.7c-1.7-2.7-3.1-5.6-3.8-8.8c-0.5-2.3-0.5-4.4,0-6.7c0.4-1.7,0.8-3.4,1.1-5c0.1-0.7,0.2-1.4,0.3-2.1
			c0.1-0.7,0.1-1.3,0.3-2c0.3-1,1.3-1.4,2.2-0.9c0.6,0.3,1,0.8,1.2,1.4c0.7,2,1.8,3.8,1.8,6c0,0.5,0,1.1,0.2,1.6
			c0.2,0.5,0.4,1.1,0.7,1.5c0.5,0.7,1.6,0.6,2.1-0.1c0.2-0.3,0.3-0.7,0.4-1.1c0.2-1.1,0.6-2.2,1.3-3.2c0.5-0.8,0.8-1.7,0.8-2.7
			c0.1-1.1-0.2-2-1.2-2.6c-0.4-0.3-0.9-0.6-1.2-1c-0.4-0.4-0.8-0.9-1.1-1.5c-0.3-0.6-0.3-1.2,0-1.8c0.7-1.1,1.5-2.2,2.7-3
			c1.7-1.1,3.4-2.1,5.1-3.2c0.8-0.5,1.6-1,2.4-1.5c3-2.1,6.1-3.9,9.1-6.1c0.3-0.2,0.6-0.4,1-0.6c1.4-0.7,2.6-1.8,3.7-2.9
			c0.4-0.4,0.7-0.8,0.8-1.3c0.1-0.4,0.2-0.7,0.4-1.1c0.7-1.6,0.9-3.2,0.9-4.9c0-1,0.1-2.1,0.2-3.1c0.1-0.7,0.1-1.4-0.1-2.1
			c-0.2-0.7-0.6-0.9-1.3-0.9c-0.9,0-1.6,0.3-2.1,1c-1.1,1.7-2.6,3-3.9,4.5c-1.3,1.5-2.5,3.2-3.1,5.3c-0.1,0.5-0.3,1-0.6,1.5
			c-0.5,1-1.4,1.6-2.6,1.5c-1.1-0.1-2.2-0.6-2.6-1.8c-0.5-1.5-0.6-3,0.6-4.3c1.6-1.7,2.9-3.6,4.3-5.4c1.8-2.2,3.6-4.5,5.7-6.4
			c1.4-1.3,2.9-2.5,4.5-3.5c1.3-0.8,1.9-1.9,1.8-3.3c-0.2-1.8-0.4-3.5-0.7-5.3c-0.3-1.5-0.2-2.9,0.3-4.2c0.1-0.3,0.3-0.6,0.4-0.9
			c0.4-0.6,0.9-0.8,1.5-0.5c0.5,0.2,0.9,0.5,1.3,0.8c1.3,1,2.5,2.1,3.8,3.1c1,0.8,1.8,1.8,2.5,2.9c0.4,0.6,0.9,1.3,1.2,1.9
			c0.5,0.9,1.3,1.4,2.3,1.4c0.5,0,1.1,0,1.6,0c1.1,0,2.1-0.1,3.2-0.1c1.2-0.1,2.3,0.3,3.3,0.9c0.7,0.4,1.4,0.9,2,1.4
			c0.7,0.5,1.3,1.2,1.8,2c0.4,0.9,0.6,1.7,0.1,2.6c-1.2,2-2.4,4-3.6,6.1c-0.1,0.2-0.2,0.3-0.3,0.5c-1.4,1.1-2.6,2.5-4.3,3.4
			c-0.4,0.2-0.9,0.4-1.2,0.8c-0.5,0.5-1.1,0.9-1.8,1.2c-1,0.4-1.6,1.2-1.9,2.2C202.6,615.9,202.7,616.3,202.7,616.7z M197,610.4
			c0.1,0.3,0.1,0.7,0.2,1c0.3,0.9,1,1.3,1.9,1c0.5-0.2,1-0.5,1.5-0.9c1.1-1,2.1-2,3.1-3c1.8-1.9,3.7-3.8,5.5-5.7
			c0.4-0.4,0.9-0.9,1.3-1.4c0.4-0.5,0.5-1,0.5-1.6c-0.1-0.8-0.5-1.2-1.2-1.4c-0.6-0.1-1.1,0-1.7,0.1c-0.7,0.2-1.4,0.4-2.1,0.5
			c-1.6,0.3-3,1-4.3,1.9c-0.8,0.5-1.4,1.2-1.7,2.1c-0.3,0.7-0.6,1.5-1,2.2c-0.6,1.2-1.1,2.5-1.4,3.7
			C197.2,609.5,197.1,610,197,610.4z"/>
		<path d="M119.7,665.1c0,0-0.3,0-0.5,0c-3.1,0.3-5.7-1-7.9-3c-1-0.9-2-1.9-2.9-3c-1.6-1.8-3.3-3.3-5.3-4.6c-2.5-1.6-5-3.2-7.6-4.6
			c-0.6-0.3-1.2-0.8-1.8-1.2c-0.7-0.5-1.4-0.7-2.2-0.5c-0.5,0.1-0.9,0.4-1.1,0.8c0,0,0,0.1-0.1,0.1c-0.6,1.9-1.7,3.5-2.5,5.3
			c-0.4,1-1,1.9-1.5,2.9c-0.3,0.6-0.6,1.2-0.9,1.8c-0.3,0.6-0.6,1.3-1,1.9c-2.6,3.9-2.8,3.7-6.5,5.8c-0.8,0.5-1.7,0.8-2.6,1.2
			c-0.6,0.3-1.1,0.6-1.6,0.9c-0.3,0.2-0.5,0.4-0.8,0.5c-2.3,0.9-4.1,2.5-6,3.9c-1.7,1.3-3.4,2.6-5.1,4c-0.2,0.2-0.5,0.3-0.7,0.5
			c-0.8,0.4-1.7,0.4-2.4-0.2c-0.9-0.8-1.7-1.5-2.5-2.4c-1.1-1.1-1.2-2.7-0.3-4c1.1-1.6,2.3-3.2,3.5-4.7c1.7-2.2,3.9-3.9,6.1-5.6
			c1.6-1.2,3.2-2.4,4.8-3.7c1-0.8,2-1.6,3-2.5c0.4-0.3,0.8-0.7,1.1-1.1c0.2-0.3,0.4-0.8,0.4-1.2c0-1.5-1.2-2.2-2.4-1.4
			c-0.5,0.3-1,0.6-1.3,1.1c-1.5,1.7-3.4,3.1-5.2,4.5c-1.3,1.1-2.6,2.2-3.9,3.4c-0.8,0.7-1.6,1.2-2.6,1.5c-1.4,0.4-2.8,0.8-4.2,0.7
			c-1.1,0-2.1-0.4-3-0.9c-0.6-0.4-0.9-0.9-0.9-1.5c0-1.4,0-2.9,0-4.3c0.1-1.1,0.6-1.8,1.7-2.2c0.7-0.3,1.4-0.8,2.1-1.2
			c1-0.6,1.9-1.2,2.9-1.8c0.3-0.2,0.7-0.4,1-0.6c0.9-0.5,1.8-1,2.8-1.5c0.8-0.4,1.5-0.8,2.3-1.3c1.2-0.7,2.5-1.4,3.7-2.2
			c1.7-1,3.5-2,5.2-3c1.2-0.7,2.3-1.4,3.4-2.2c0.8-0.6,1.5-1.3,2.2-2c0.5-0.6,0.9-1.2,1.1-2c0.2-0.6,0.4-1.3,0.6-1.9
			c0.1-0.3,0.1-0.6,0.2-0.8c0.1-1-0.3-1.5-1.2-1.9c-0.3-0.1-0.6-0.2-1-0.3c-1.2-0.3-2.4-0.6-3.6-0.9c-1.2-0.3-2.3-0.5-3.5-0.8
			c-1.6-0.3-3.3-0.6-4.9-1c-1.4-0.3-2.7-0.8-3.9-1.5c-0.5-0.3-1-0.6-1.3-1.1c-0.8-0.8-0.8-1.8,0.1-2.6c1.4-1.2,2.9-2.2,4.5-3
			c1.3-0.7,2.6-1.3,4.1-1.8c1.4-0.5,2.7-1.2,4.1-1.8c1.4-0.7,2.9-1.3,4.3-2c0.3-0.1,0.5-0.3,0.8-0.3c1.2-0.2,2.3-0.8,3.5-1.3
			c1.2-0.5,2.4-0.9,3.6-1.4c0.5-0.2,1-0.4,1.4-0.6c0.7-0.3,1.5-0.6,2.2-0.9c0.3-0.1,0.6-0.2,0.9-0.4c1.5-0.9,3.2-1.5,4.8-2.2
			c1-0.5,2-1.2,3.1-1.6c1-0.4,2.1-0.7,3.1-1.2c2.1-1.1,4.4-1.9,6.7-2.5c0.5-0.1,1.1-0.2,1.7-0.3c1.8,0,3.5-0.1,5.3,0.3
			c0.7,0.2,1.4,0.3,2.1,0.6c0.4,0.2,0.8,0.5,1.2,0.8c0.5,0.4,0.5,1,0.3,1.6c-0.4,0.8-0.9,1.4-1.4,2c-2.4,2.4-4.9,4.9-7.3,7.3
			c-1.1,1.1-2.3,2-3.6,2.9c-0.7,0.5-1.5,0.8-2.4,0.8c-1.3,0.1-2.6,0.1-3.9-0.1c-0.9-0.1-1.9-0.2-2.9-0.2c-1,0-1.9,0.4-2.7,1
			c-0.9,0.7-1.8,1.3-2.7,1.9c-1.4,1-1.6,2.1-0.8,3.6c0.4,0.8,0.9,1.7,1.4,2.5c0.4,0.6,0.8,1.2,1.4,1.6c0.9,0.6,1.8,0.6,2.6-0.3
			c0.6-0.7,1.4-1.3,2.1-1.9c1.5-1.3,3-2.7,4.5-4c0.6-0.5,1.2-0.9,1.9-1.2c1.4-0.6,2.8-1,4.2-1.3c0.4-0.1,0.8-0.1,1.1-0.1
			c1.5,0.1,3,0.2,4.4,0.3c0.5,0,1,0.1,1.4,0.2c0.4,0.1,0.8,0.3,1.2,0.5c1.3,0.9,1.8,2.3,0.3,3.6c-0.8,0.7-1.8,1.3-2.7,1.8
			c-0.5,0.3-1.2,0.4-1.8,0.4c-0.9,0.1-1.9,0.1-2.9,0.3c-0.6,0.1-1.1,0.2-1.6,0.5c-2.9,1.4-5.5,3.1-8,5.1c-1.4,1.1-2.9,2.1-4.4,3.2
			c-1.1,0.9-2.3,1.8-3.4,2.6c-0.1,0.1-0.3,0.3-0.4,0.4c-0.6,0.7-0.7,1.6,0,2.3c0.3,0.4,0.7,0.7,1.1,1c1.1,0.8,2.3,1.6,3.4,2.3
			c0.2,0.1,0.3,0.2,0.5,0.3c1.8,1.7,4.1,2.8,6.1,4.3c2.1,1.5,4.1,3,6.1,4.5c0.3,0.2,0.6,0.5,0.8,0.8c1,1,2.1,1.8,3.3,2.5
			c0.6,0.4,1.3,0.6,2.1,0.6c1.7,0,3.4,0,5.2-0.1c0.8,0,1.6-0.3,2.4-0.5c0.4-0.1,0.7-0.2,1.1-0.3c1-0.3,1.9-0.1,2.8,0.3
			c1.3,0.7,2.4,1.5,3.5,2.5c0.2,0.2,0.3,0.3,0.5,0.5c0.4,0.5,0.5,1,0.1,1.6c-0.3,0.4-0.6,0.8-1,1c-2.5,1.5-5.1,2.7-8.1,2.8
			C121.4,665,120.7,665,119.7,665.1z"/>
		<path d="M240.6,648c0-2.8,0.1-5.6,0.1-8.5c0-1,0.2-1.9,0.5-2.8c1-2.7,1.5-5.5,2-8.4c0.2-1.4,0.5-2.7,0.9-4
			c0.4-1.1,0.6-2.3,0.7-3.5c0.1-0.8,0.2-1.6,0.3-2.4c0.2-1.2,0.7-2.4,1.4-3.4c0.4-0.6,1-1,1.7-1.2c1-0.3,2.1-0.3,3.1-0.2
			c1.7,0.3,3.4,0,5.1-0.5c1.1-0.3,2.2-0.6,3.3-0.8c1.5-0.4,3.1-0.7,4.4-1.6c0.5-0.4,1.2-0.5,1.9-0.7c1-0.3,2-0.7,2.9-1.2
			c0.6-0.3,1.2-0.6,1.8-0.8c1.3-0.4,2.4-0.9,3.4-1.8c1.4-1.1,2.8-2.2,4-3.5c1.4-1.5,3.3-2.3,5.1-3.1c0.7-0.3,1.4-0.3,2.1,0.1
			c1,0.6,1.9,1.2,2.9,1.9c0.3,0.2,0.5,0.7,0.8,1c0.4,0.6,0.4,1.3-0.1,1.9c-0.7,0.8-0.8,1.8-1.1,2.8c-0.3,1.3-0.7,2.7-1.1,4
			c-0.7,2.2-1.2,4.5-1.2,6.9c0,3.9-0.5,7.7-1.4,11.5c-0.5,2.1-0.7,4.1-0.8,6.3c-0.3,5.4-0.1,10.8,0,16.2c0,2.6,0.2,5.2,0.1,7.7
			c-0.1,1.6,0.2,3.2,0.2,4.9c0,1.9,0.3,3.8,0.7,5.7c0.3,1.3,0.5,2.7,0.4,4.1c0,1.6-0.7,2.9-1.8,4.1c-0.5,0.5-1.2,0.8-2,0.7
			c-1.5-0.3-2.9-0.7-4.1-1.6c-1.2-0.9-2.2-1.9-3-3c-0.1-0.1-0.1-0.2-0.2-0.2c-1-1.4-0.9-2.3,0.3-3.6c1.2-1.3,2.5-2.5,3.6-3.9
			c0.5-0.6,0.9-1.2,1.2-1.9c0.7-1.3,0.6-2.6-0.3-3.8c-0.4-0.5-0.8-1.1-1.2-1.6c-0.6-0.7-1.3-1.1-2.2-1.1c-1.9,0.1-3.7,0.3-5.4,1.3
			c-0.8,0.5-1.6,0.9-2.5,0.9c-2.3,0.2-4,1.4-5.8,2.7c-0.5,0.4-1,0.8-1.4,1.2c-0.9,0.9-2,0.8-3.1,0.3c-0.3-0.2-0.7-0.4-0.9-0.6
			c-1.1-1-2.5-1.4-4-1.3c-1.4,0.1-2.9,0.1-4.3,0c-0.9,0-1.8-0.3-2.7-0.4c-0.8-0.1-1.4-0.5-1.9-1.2c-0.6-0.8-1.2-1.6-1.8-2.4
			c-0.5-0.7-0.6-1.5-0.6-2.3c0-1.7-0.1-3.3-0.1-5c0-1.2,0-2.5,0-3.7C240.7,648,240.7,648,240.6,648z M280.8,620.8
			c0.2-1.8,0-3.3-0.3-4.9c-0.5-2.3-2.1-3.5-4.4-3c-1.5,0.3-2.9,0.5-4.4,0.6c-1.6,0.1-3.2,0.3-4.6,1c-1.5,0.7-3,1.1-4.5,1.2
			c-1,0.1-1.9,0.4-2.7,1c-1.1,0.7-2.2,1.1-3.5,1.1c-0.6,0-1.2,0.1-1.8,0.3c-1,0.3-1.6,1-1.7,2.1c0,0.6,0.1,1.2,0.4,1.8
			c0.4,0.7,0.7,1.3,1.1,2c0.3,0.5,0.6,1.1,0.8,1.7c0.3,0.6,0.6,1.3,0.9,1.9c0.3,0.5,0.3,0.9,0.1,1.4c-0.2,0.5-0.4,1-0.5,1.5
			c-0.3,1.2,0,2.1,1,2.7c1.2,0.7,2.4,1.5,3.7,2.1c2.4,1.1,4,2.9,5.3,5.1c0.2,0.3,0.4,0.7,0.4,1.1c0.1,1,0.1,1.9,0,2.9
			c0,0.5-0.2,1.1-0.7,1.4c-1.7,1.3-3.3,1.9-5.1,0.6c-0.2-0.2-0.5-0.3-0.7-0.5c-1.2-0.8-1.9-2-1.8-3.5c0-0.6,0-1.2,0-1.9
			c-0.1-1.2-0.8-1.7-2.1-1.7c-1.2,0-1.7,0.5-1.8,1.8c0,0.2,0,0.5,0,0.7c0,0.8-0.1,1.5-0.1,2.3c-0.3,2.7-0.5,5.4-0.8,8.1
			c-0.2,1.5,0.3,2.9,1.2,4c0.6,0.7,1.3,1.4,2.3,1.5c2.1,0.2,4.2,0.1,6.1-0.9c0.6-0.3,1.3-0.6,2-0.9c1.5-0.6,3.1-1.1,4.4-2
			c0.2-0.1,0.4-0.2,0.7-0.3c2.2-0.7,4-2,5.9-3.3c1.3-0.9,1.8-2.1,2-3.6c0.2-2.4,0.5-4.8,0.8-7.3c0-0.3,0.1-0.6,0.2-0.8
			c0.6-2.1,0.9-4.3,1-6.5c0.1-1.2,0.2-2.4,0.3-3.6C280.4,625.6,280.9,623.2,280.8,620.8z"/>
		<path d="M331.4,663.7c0-0.7,0-1.4,0-2.2c0-0.8-0.3-1.6-0.7-2.3c-0.6-1-1.1-2-1.8-2.9c-0.5-0.7-1.1-1.3-1.6-2
			c-0.4-0.5-0.9-0.9-1.2-1.4c-0.5-0.7-0.7-1.5-0.4-2.3c0.1-0.1,0.1-0.3,0.1-0.4c1-1.9,1.1-3.9,1.3-6c0.1-1.4,0.4-2.7,0.9-4
			c0.3-0.9,0.7-1.8,0.9-2.7c0.3-1.6,0.4-3.3,0.5-5c0-1.7-1.2-2.4-2.7-1.5c-0.4,0.2-0.7,0.6-1.1,0.9c-0.8,0.8-1.5,1.6-2.3,2.4
			c-0.2,0.2-0.4,0.3-0.5,0.5c-1.7,1.4-3.2,0.5-4-0.8c-0.7-1.1-1-2.3-0.8-3.6c0.2-1.6,0.6-3.2,1.3-4.7c1.7-3.6,3.9-6.9,6.2-10.2
			c1-1.4,2-2.9,3-4.4c1.1-1.7,2.2-3.5,3.3-5.2c0.2-0.3,0.4-0.6,0.6-0.8c2.2-2.7,4-5.6,5.9-8.5c1.8-2.6,3.5-5.4,5.3-8
			c0.5-0.8,0.9-1.6,1-2.5c0.3-2.7,1.3-5.2,2.6-7.6c1-1.9,2.9-2.1,4.3-0.5c0.8,1,1.6,2,2.3,3.1c0.7,1.1,0.8,2.2,0.2,3.4
			c-0.9,1.9-1.5,3.9-2.6,5.7c-0.6,1-0.9,2.2-1.4,3.3c-0.1,0.3-0.3,0.6-0.4,0.9c-0.1,0.3-0.3,0.5-0.4,0.8c-0.8,2-1.8,3.9-2.8,5.8
			c-0.5,0.9-1,1.9-1.5,2.8c-0.2,0.3-0.4,0.6-0.5,0.9c-0.2,1.1-0.9,2-1.4,3c-0.9,1.7-1.8,3.5-2.7,5.2c-0.5,1-1.1,2-2,2.8
			c-1.6,1.4-0.5,3.3,1.1,3.7c0.9,0.2,1.8,0.2,2.7,0.1c1.2-0.1,2.4-0.1,3.6-0.2c1.1,0,2.2,0.3,3.1,0.9c1,0.6,1.6,1.5,1.6,2.7
			c0,0.6,0,1.1,0,1.7c-0.1,1.2-0.2,2.4-0.3,3.6c-0.1,1.2-0.3,2.3-0.6,3.4c-0.7,2-1.1,4-1.2,6c-0.1,1.3-0.4,2.5-0.9,3.8
			c-0.5,1.4-0.9,2.8-1.2,4.3c-0.3,1.2-0.6,2.4-1.2,3.5c-0.5,1-0.8,2-0.9,3c-0.1,1.6-0.6,3.2-1.2,4.7c-0.4,1-0.7,2-1.1,3
			c-0.4,1.1-0.8,2.1-1.4,3.2c-0.4,0.8-0.8,1.7-1,2.5c-0.4,1.5-1.2,2.6-2.5,3.4c-1.3,0.9-2.7,0.7-3.8-0.4c-0.3-0.3-0.6-0.6-0.9-0.9
			c-0.6-0.8-1-1.6-0.9-2.6C331.3,664.7,331.3,664.2,331.4,663.7C331.3,663.7,331.4,663.7,331.4,663.7z M344,632.1c0,0-0.1,0-0.1,0
			c0-0.9-0.1-1.7,0-2.6c0.2-1.8-0.6-3.2-1.8-4.3c-0.8-0.8-1.8-0.9-2.8-0.4c-0.3,0.1-0.5,0.3-0.7,0.5c-0.9,0.7-1.9,1.2-3.1,1.5
			c-0.5,0.1-1,0.3-1.5,0.5c-0.6,0.3-0.9,0.9-0.7,1.5c0.1,0.4,0.2,0.7,0.4,1c0.9,1.4,1.8,2.8,3,4c0.6,0.6,1.3,1.2,1.9,1.7
			c0.6,0.4,1.2,0.8,1.7,1.3c0.6,0.5,1.3,0.6,2,0.6c0.8-0.1,1.3-0.6,1.5-1.3c0.1-0.3,0-0.7,0-1C344,634.1,344,633.1,344,632.1z
			 M332.9,642.4c0.1,0.6,0.2,1.2,0.7,1.6c0.6,0.5,1.3,0.7,2.1,0.7c0.7,0,1.2-0.5,1.1-1.2c-0.2-1.2-0.8-2-1.8-2.6
			c-0.9-0.5-1.7-0.1-2,0.9C333,642,332.9,642.3,332.9,642.4z"/>
		<path d="M384.8,622.2c0,0.1,0,0.4,0,0.7c-0.1,1.6-0.8,2.8-2,3.8c-1.7,1.5-3.7,2.4-5.7,3.3c-0.9,0.4-1.8,0.7-2.7,0.8
			c-0.9,0-1.8,0.3-2.6,0.8c-0.9,0.5-1.8,0.9-2.7,1.3c-2,0.9-3.1,2.5-3.9,4.4c-0.3,0.8-0.7,1.6-1,2.4c-0.3,0.8-0.7,1.6-1,2.4
			c-0.2,0.5-0.2,1.1-0.2,1.7c0.1,1,0.6,1.8,1.5,2.3c1.2,0.7,2.5,0.9,3.9,1c1.5,0.1,3,0.2,4.4,0.3c1.5,0.1,3,0.5,4.4,1.1
			c1,0.4,1.7,1,2.4,1.8c0.7,0.9,0.8,1.9,0.1,2.8c-0.4,0.5-0.8,0.9-1.3,1.3c-0.4,0.3-0.8,0.5-1.2,0.7c-2.1,1.2-4.3,2.2-6.3,3.7
			c-1.6,1.2-3.3,2.4-5,3.7c-0.6,0.4-1.2,0.8-1.9,1c-1,0.4-2,0.8-3.1,1.2c-0.4,0.2-0.9,0.3-1.4,0.4c-2.1,0.3-4.2,0.5-6.3,0.8
			c-0.5,0.1-1,0-1.6,0c-0.4,0-0.7-0.3-0.9-0.6c-0.3-0.4-0.4-0.8-0.1-1.2c0.3-0.4,0.7-0.8,1.1-1.1c0.7-0.4,1.6-0.7,2.3-1.1
			c0.6-0.3,1.3-0.6,1.9-1c1.6-1.1,3.2-2.3,4.8-3.4c0.3-0.2,0.6-0.5,0.9-0.7c0.6-0.6,0.8-1.3,0.3-2.1c-0.4-0.6-0.9-1.1-1.4-1.6
			c-1.3-1.3-2.7-2.6-4-4c-0.5-0.5-0.9-1.1-1.4-1.7c-1.1-1.5-0.7-3.7,0.4-4.8c0.3-0.3,0.6-0.6,0.9-0.9c0.7-0.6,0.9-1.4,0.8-2.2
			c0-0.7-0.3-1.2-0.9-1.5c-0.3-0.2-0.7-0.4-1-0.6c-1-0.8-1-1.8-0.1-2.7c0.3-0.3,0.6-0.5,0.9-0.7c1.3-0.7,2.3-1.7,3-3
			c0.2-0.4,0.4-0.7,0.7-1.1c0.7-1,1.2-2.2,1.2-3.5c0-0.7,0.3-1.4,0.6-2.1c0.8-2.1,1.5-4.2,2.1-6.4c0.1-0.6,0.3-1.1,0.6-1.6
			c0.6-1,0.9-2.1,1.2-3.2c0.3-1.2,0.6-2.3,1.2-3.4c0.3-0.5,0.4-1.1,0.5-1.6c0.3-1.1,0.6-2.2,1-3.3c0.4-1.5,1.2-2.8,2-4.1
			c0.3-0.5,0.7-0.9,1.1-1.3c0.6-0.5,1.4-0.5,1.9,0.1c0.7,0.7,1.3,1.6,1.8,2.4c0.9,1.5,1.7,3,2.5,4.5c0.1,0.2,0.2,0.3,0.3,0.5
			c0.5,1.8,1.7,3.3,2.3,5.1c0.1,0.2,0.1,0.4,0.2,0.5c1,1.5,1.7,3.1,2.4,4.7c0.2,0.4,0.5,0.8,0.7,1.2
			C384.7,619.9,384.8,620.3,384.8,622.2z M377,617.3c0-1.4-0.3-2.9-0.6-3.5c-0.5-1.2-2.1-1-2.5-0.1c-0.2,0.4-0.4,0.9-0.5,1.3
			c-0.6,2-1.2,4-2,6c-0.1,0.4-0.3,0.7-0.3,1.1c-0.2,1.2,0.5,1.8,1.7,1.4c0.5-0.2,1.1-0.5,1.5-0.8C376.2,621.3,376.9,619.3,377,617.3
			z"/>
		<path d="M370.6,677.6c-2.2,0-4.5,0-6.7,0c-1,0-1.9-0.1-2.8-0.3c-1.9-0.5-3.8-0.4-5.7-0.1c-3.1,0.5-6.2,0.6-9.3,0.8
			c-3.5,0.2-7.1,0.2-10.6,0.3c-1.9,0-3.8,0.3-5.6,1c-1,0.4-2.1,0.7-3.2,0.9c-1.9,0.4-3.1-0.2-4.2-1.8c-0.3-0.4-0.5-0.9-0.7-1.4
			c-0.3-0.9-0.2-1.7,0.5-2.4c0.9-1,1.9-1.8,3.1-2.5c1-0.6,2.1-0.8,3.2-0.4c1.6,0.5,3.3,0.7,4.9,1c1.4,0.3,2.8,0.2,4.1,0
			c1.3-0.2,2.7-0.3,4-0.3c2.4,0,4.8-0.3,7.1-1c1.9-0.6,3.9-1,5.9-1.1c1.8-0.1,3.6-0.4,5.4-0.7c0.4,0,0.8-0.1,1.1-0.3
			c2.2-1,4.5-1.2,6.8-1.5c1-0.1,2.1-0.3,3.1-0.5c0.3-0.1,0.6-0.2,0.9-0.3c1.1-0.5,2.3-1,3.4-1.5c0.3-0.1,0.5-0.3,0.7-0.4
			c1.6-1.2,3.2-2.5,4.5-4c0.4-0.5,0.8-1,1.3-1.5c0.7-0.8,1.1-1.7,1.2-2.7c0.1-1.5,0.7-2.9,1.5-4.1c0.1-0.2,0.2-0.3,0.3-0.5
			c0.5-0.7,1-0.8,1.7-0.4c1.8,1.2,3,2.7,3.1,4.9c0,1.3-0.1,2.6-0.1,3.9c0,1.2-0.1,2.4-0.1,3.6c0,1.8,0,3.6,0,5.5
			c0,1.4-0.5,2.6-1.4,3.7c-0.6,0.6-1.1,1.3-1.7,1.9c-0.6,0.7-1.4,1.1-2.2,1.3c-2.6,0.7-5.3,1.2-8.1,1.2
			C374.3,677.6,372.4,677.6,370.6,677.6C370.6,677.6,370.6,677.6,370.6,677.6z"/>
		<path d="M156.6,617.1c0-3.1,0-6.1,0-9.2c0-1.5,0-3.1,0.1-4.6c0,0,0-0.1,0-0.1c0-1.4,0.6-2.2,2.5-2.2c0.8,0,1.6,0.2,2.3,0.8
			c1.7,1.4,3.5,2.7,4.9,4.4c0.2,0.2,0.4,0.4,0.6,0.7c1,1.1,1.2,2.4,0.9,3.9c-0.3,1.5-0.8,2.9-1.6,4.3c-0.6,1.1-1.1,2.2-1.7,3.3
			c-0.2,0.4-0.4,0.8-0.6,1.2c-0.8,1.4-1.2,2.9-1.4,4.5c-0.2,1.5-0.5,2.9-1,4.3c-0.3,0.7-0.5,1.5-0.7,2.2c-0.2,0.5-0.5,1-0.8,1.5
			c-0.3,0.5-0.9,0.9-1.5,1c-0.8,0.2-1.5-0.2-1.7-1c-0.1-0.3-0.1-0.7-0.1-1C157.1,626.4,156.5,621.7,156.6,617.1z"/>
		<path d="M402.5,634.7c0,0.5-0.1,1-0.1,1.4c-0.2,1.6-0.9,2.8-2.4,3.5c-0.1,0.1-0.3,0.1-0.4,0.2c-1.1,0.8-2.2,0.9-3.3,0.3
			c-0.5-0.2-1-0.4-1.5-0.5c-2-0.5-3.3-1.9-4.5-3.4c-0.4-0.5-0.6-1.1-0.7-1.7c0-0.4-0.1-0.9-0.1-1.3c0.1-1.4-0.2-2.8-0.8-4.1
			c-0.2-0.5-0.4-1.1-0.7-1.6c-0.4-1-0.5-2.1-0.4-3.2c0.2-2.1,2.4-2.7,3.7-1.7c0.2,0.1,0.3,0.2,0.5,0.3c1.4,1.1,2.8,2.3,4.2,3.5
			c1.6,1.4,3.1,2.8,4.7,4.2C402,631.7,402.6,633.1,402.5,634.7z"/>
		<path d="M254.1,603c-0.3,0-0.9-0.1-1.4-0.2c-1.5-0.5-1.9-1.8-1-3.1c0.2-0.3,0.4-0.5,0.7-0.7c0.9-0.9,1.9-1.8,2.7-2.8
			c0.9-1.1,1.8-2.3,2.5-3.5c0.3-0.5,0.4-1.1,0.5-1.6c0.1-0.7,0.1-1.4,0.1-2.2c0-0.8,0-1.5,0-2.3c0-1.9,0.8-3,2.6-3.6
			c0.9-0.3,1.7-0.1,2.4,0.5c0.8,0.7,1.4,1.4,2.1,2.2c1.1,1.4,1.3,3.1,1.1,4.8c-0.1,0.7-0.3,1.3-0.7,1.9c-0.6,1-1.2,2-1.8,2.9
			c-0.8,1.3-1.9,2.3-2.9,3.3c-1.3,1.3-2.7,2.4-4,3.7C256.1,602.9,255.3,603,254.1,603z"/>
		<path d="M716.6,596.7c0.5,0,1,0.3,1.5,0.6c1,0.9,2.1,1.7,3.1,2.5c0.3,0.3,0.7,0.5,1,0.8c1.6,1,3.1,2.1,4.7,3.1
			c1.3,0.8,1.4,2,0.3,3.1c-0.9,0.9-1.9,1.7-2.9,2.6c-0.4,0.4-0.9,0.7-1.3,1.2c-1.1,1.2-2.6,2-3.9,2.9c-0.9,0.7-2.4,0.4-3.2-0.5
			c-0.4-0.5-0.6-1.1-0.4-1.7c0.1-0.4,0.3-0.7,0.5-1c0.5-0.9,0.8-1.8,1.1-2.8c0.4-1.6,0.1-3-1.1-4.2c-0.6-0.6-1.1-1.2-1.6-1.8
			c-0.2-0.3-0.4-0.6-0.6-1c-0.1-0.3-0.3-0.7-0.2-1.1C713.7,598.1,715.2,596.7,716.6,596.7z"/>
		<path d="M269.1,627.6c0,0.9-0.3,1.7-0.8,2.4c-0.5,0.7-1.2,1.3-2,1.8c-0.6,0.4-1.2,0.4-1.9,0c-0.7-0.4-1.5-0.8-2.3-1.2
			c-0.4-0.2-0.8-0.5-1.2-0.8c-0.7-0.6-1.5-1.1-2.4-1.5c-0.2-0.1-0.4-0.1-0.5-0.2c-0.5-0.3-0.6-0.5-0.5-1.1c0.1-0.5,0.3-1,0.6-1.5
			c0.7-1.1,1.5-2.1,2.3-3.1c0.5-0.6,1.2-0.8,1.9-0.7c1.5,0.3,2.9,0.7,4,1.8c0.5,0.5,1.2,0.9,1.8,1.5
			C268.9,626,269.1,626.6,269.1,627.6z"/>
		<g>
			<path d="M65.8,745.7v-22.3h-7.9v-4.5h21.3v4.5h-7.9v22.3H65.8z"/>
			<path d="M82.5,745.7v-26.8h5.4v26.8H82.5z"/>
			<path d="M117.2,745.7h-5.9l-2.3-6.1H98.3l-2.2,6.1h-5.7l10.4-26.8h5.7L117.2,745.7z M107.3,735.1l-3.7-9.9l-3.6,9.9H107.3z"/>
			<path d="M120.1,745.7v-26.8h5.3l11,17.9v-17.9h5v26.8H136l-10.8-17.5v17.5H120.1z"/>
			<path d="M156.8,718.9h5.4v17c0,2.2-0.2,3.9-0.6,5.1c-0.5,1.6-1.5,2.8-2.9,3.8c-1.4,0.9-3.2,1.4-5.4,1.4c-2.6,0-4.7-0.7-6.1-2.2
				c-1.4-1.5-2.1-3.7-2.2-6.5l5.1-0.6c0.1,1.5,0.3,2.6,0.7,3.3c0.6,1,1.5,1.4,2.7,1.4c1.2,0,2.1-0.3,2.6-1c0.5-0.7,0.7-2.1,0.7-4.3
				V718.9z"/>
			<path d="M167.8,745.7v-26.8h5.4v26.8H167.8z"/>
			<path d="M178.4,745.7v-26.8h5.3l11,17.9v-17.9h5v26.8h-5.4l-10.8-17.5v17.5H178.4z"/>
			<path d="M215.8,745.7v-26.8h5.3l11,17.9v-17.9h5v26.8h-5.4l-10.8-17.5v17.5H215.8z"/>
			<path d="M266.9,745.7H261l-2.3-6.1H248l-2.2,6.1H240l10.4-26.8h5.7L266.9,745.7z M256.9,735.1l-3.7-9.9l-3.6,9.9H256.9z"/>
			<path d="M273,745.7v-22.3h-7.9v-4.5h21.3v4.5h-7.9v22.3H273z"/>
			<path d="M289.8,718.9h5.4v14.5c0,2.3,0.1,3.8,0.2,4.5c0.2,1.1,0.8,2,1.7,2.6c0.9,0.7,2.1,1,3.6,1c1.5,0,2.7-0.3,3.5-0.9
				c0.8-0.6,1.2-1.4,1.4-2.3c0.2-0.9,0.2-2.4,0.2-4.5v-14.8h5.4V733c0,3.2-0.1,5.5-0.4,6.8c-0.3,1.3-0.8,2.4-1.6,3.4
				s-1.8,1.6-3.2,2.2s-3,0.8-5.2,0.8c-2.6,0-4.5-0.3-5.8-0.9c-1.3-0.6-2.4-1.4-3.1-2.3s-1.3-1.9-1.5-3c-0.4-1.5-0.5-3.8-0.5-6.8
				V718.9z"/>
			<path d="M316.9,745.7v-26.8h11.4c2.9,0,4.9,0.2,6.2,0.7s2.3,1.3,3.1,2.6c0.8,1.2,1.2,2.6,1.2,4.2c0,2-0.6,3.7-1.8,5
				c-1.2,1.3-2.9,2.1-5.3,2.5c1.2,0.7,2.1,1.4,2.9,2.2c0.8,0.8,1.8,2.3,3.1,4.3l3.3,5.2h-6.5l-3.9-5.8c-1.4-2.1-2.3-3.4-2.9-3.9
				s-1.1-0.9-1.6-1.1s-1.5-0.3-2.7-0.3h-1.1v11.2H316.9z M322.3,730.2h4c2.6,0,4.2-0.1,4.9-0.3c0.6-0.2,1.2-0.6,1.5-1.1
				s0.5-1.2,0.5-2c0-0.9-0.2-1.6-0.7-2.2c-0.5-0.6-1.2-0.9-2-1.1c-0.4-0.1-1.8-0.1-3.9-0.1h-4.2V730.2z"/>
			<path d="M368,745.7h-5.9l-2.3-6.1h-10.7l-2.2,6.1h-5.7l10.4-26.8h5.7L368,745.7z M358.1,735.1l-3.7-9.9l-3.6,9.9H358.1z"/>
			<path d="M371.1,745.7v-26.6h5.4v22.1h13.4v4.5H371.1z"/>
			<path d="M403.5,745.7v-26.8h5.4v10.5h10.6v-10.5h5.4v26.8h-5.4V734h-10.6v11.7H403.5z"/>
			<path d="M430.3,745.7v-26.8h5.4v26.8H430.3z"/>
			<path d="M439.5,737l5.3-0.5c0.3,1.8,1,3.1,1.9,3.9c1,0.8,2.3,1.2,3.9,1.2c1.7,0,3.1-0.4,3.9-1.1s1.3-1.6,1.3-2.6
				c0-0.6-0.2-1.2-0.6-1.6c-0.4-0.4-1-0.8-1.9-1.2c-0.6-0.2-2.1-0.6-4.3-1.2c-2.9-0.7-4.9-1.6-6.1-2.6c-1.6-1.5-2.5-3.3-2.5-5.4
				c0-1.4,0.4-2.6,1.2-3.8c0.8-1.2,1.9-2.1,3.3-2.7c1.5-0.6,3.2-0.9,5.3-0.9c3.4,0,5.9,0.7,7.6,2.2c1.7,1.5,2.6,3.4,2.7,5.9
				l-5.4,0.2c-0.2-1.4-0.7-2.4-1.5-3c-0.8-0.6-1.9-0.9-3.4-0.9c-1.6,0-2.8,0.3-3.7,1c-0.6,0.4-0.9,1-0.9,1.7c0,0.6,0.3,1.2,0.8,1.6
				c0.7,0.6,2.3,1.2,5,1.8c2.6,0.6,4.6,1.3,5.8,1.9c1.3,0.7,2.2,1.6,3,2.7c0.7,1.2,1.1,2.6,1.1,4.3c0,1.5-0.4,3-1.3,4.3
				c-0.9,1.3-2.1,2.3-3.6,3c-1.6,0.7-3.5,1-5.8,1c-3.4,0-6-0.8-7.8-2.3C441,742.3,439.9,740,439.5,737z"/>
			<path d="M471.9,745.7v-22.3h-7.9v-4.5h21.3v4.5h-7.9v22.3H471.9z"/>
			<path d="M486.9,732.5c0-2.7,0.4-5,1.2-6.9c0.6-1.4,1.4-2.6,2.5-3.7c1.1-1.1,2.2-1.9,3.5-2.4c1.7-0.7,3.6-1.1,5.8-1.1
				c3.9,0,7.1,1.2,9.5,3.7c2.4,2.4,3.6,5.9,3.6,10.2c0,4.3-1.2,7.7-3.5,10.1c-2.4,2.4-5.5,3.7-9.4,3.7c-4,0-7.1-1.2-9.5-3.6
				C488.1,740.1,486.9,736.7,486.9,732.5z M492.5,732.3c0,3,0.7,5.3,2.1,6.9c1.4,1.6,3.2,2.3,5.3,2.3s3.9-0.8,5.3-2.3s2.1-3.9,2.1-7
				c0-3.1-0.7-5.4-2-6.9c-1.3-1.5-3.1-2.3-5.4-2.3s-4,0.8-5.4,2.3C493.2,726.9,492.5,729.2,492.5,732.3z"/>
			<path d="M517.2,745.7v-26.8h11.4c2.9,0,4.9,0.2,6.2,0.7s2.3,1.3,3.1,2.6s1.2,2.6,1.2,4.2c0,2-0.6,3.7-1.8,5
				c-1.2,1.3-2.9,2.1-5.3,2.5c1.2,0.7,2.1,1.4,2.9,2.2s1.8,2.3,3.1,4.3l3.3,5.2h-6.5l-3.9-5.8c-1.4-2.1-2.3-3.4-2.9-3.9
				s-1.1-0.9-1.6-1.1s-1.5-0.3-2.7-0.3h-1.1v11.2H517.2z M522.6,730.2h4c2.6,0,4.2-0.1,4.9-0.3s1.2-0.6,1.5-1.1
				c0.4-0.5,0.5-1.2,0.5-2c0-0.9-0.2-1.6-0.7-2.2c-0.5-0.6-1.2-0.9-2-1.1c-0.4-0.1-1.8-0.1-3.9-0.1h-4.2V730.2z"/>
			<path d="M549.8,745.7v-11.3l-9.8-15.5h6.3l6.3,10.6l6.2-10.6h6.2l-9.8,15.5v11.2H549.8z"/>
			<path d="M577.4,745.7v-26.8h8.1l4.9,18.3l4.8-18.3h8.1v26.8h-5v-21.1l-5.3,21.1h-5.2l-5.3-21.1v21.1H577.4z"/>
			<path d="M608.6,718.9h5.4v14.5c0,2.3,0.1,3.8,0.2,4.5c0.2,1.1,0.8,2,1.7,2.6c0.9,0.7,2.1,1,3.6,1c1.5,0,2.7-0.3,3.5-0.9
				s1.2-1.4,1.4-2.3s0.2-2.4,0.2-4.5v-14.8h5.4V733c0,3.2-0.1,5.5-0.4,6.8s-0.8,2.4-1.6,3.4s-1.8,1.6-3.2,2.2
				c-1.3,0.5-3,0.8-5.2,0.8c-2.6,0-4.5-0.3-5.8-0.9c-1.3-0.6-2.4-1.4-3.1-2.3s-1.3-1.9-1.5-3c-0.4-1.5-0.5-3.8-0.5-6.8V718.9z"/>
			<path d="M634.3,737l5.3-0.5c0.3,1.8,1,3.1,1.9,3.9c1,0.8,2.3,1.2,3.9,1.2c1.7,0,3.1-0.4,3.9-1.1s1.3-1.6,1.3-2.6
				c0-0.6-0.2-1.2-0.6-1.6c-0.4-0.4-1-0.8-1.9-1.2c-0.6-0.2-2.1-0.6-4.3-1.2c-2.9-0.7-4.9-1.6-6.1-2.6c-1.6-1.5-2.5-3.3-2.5-5.4
				c0-1.4,0.4-2.6,1.2-3.8c0.8-1.2,1.9-2.1,3.3-2.7c1.5-0.6,3.2-0.9,5.3-0.9c3.4,0,5.9,0.7,7.6,2.2c1.7,1.5,2.6,3.4,2.7,5.9
				l-5.4,0.2c-0.2-1.4-0.7-2.4-1.5-3c-0.8-0.6-1.9-0.9-3.4-0.9c-1.6,0-2.8,0.3-3.7,1c-0.6,0.4-0.9,1-0.9,1.7c0,0.6,0.3,1.2,0.8,1.6
				c0.7,0.6,2.3,1.2,5,1.8s4.6,1.3,5.8,1.9c1.3,0.7,2.2,1.6,3,2.7c0.7,1.2,1.1,2.6,1.1,4.3c0,1.5-0.4,3-1.3,4.3
				c-0.9,1.3-2.1,2.3-3.6,3c-1.6,0.7-3.5,1-5.8,1c-3.4,0-6-0.8-7.8-2.3S634.6,740,634.3,737z"/>
			<path d="M660.6,745.7v-26.8h19.9v4.5H666v5.9h13.4v4.5H666v7.3h15v4.5H660.6z"/>
			<path d="M685.5,718.9h5.4v14.5c0,2.3,0.1,3.8,0.2,4.5c0.2,1.1,0.8,2,1.7,2.6c0.9,0.7,2.1,1,3.6,1c1.5,0,2.7-0.3,3.5-0.9
				c0.8-0.6,1.2-1.4,1.4-2.3c0.2-0.9,0.2-2.4,0.2-4.5v-14.8h5.4V733c0,3.2-0.1,5.5-0.4,6.8s-0.8,2.4-1.6,3.4s-1.8,1.6-3.2,2.2
				c-1.3,0.5-3,0.8-5.2,0.8c-2.6,0-4.5-0.3-5.8-0.9c-1.3-0.6-2.4-1.4-3.1-2.3c-0.8-0.9-1.3-1.9-1.5-3c-0.4-1.5-0.5-3.8-0.5-6.8
				V718.9z"/>
			<path d="M712.5,745.7v-26.8h8.1l4.9,18.3l4.8-18.3h8.1v26.8h-5v-21.1l-5.3,21.1h-5.2l-5.3-21.1v21.1H712.5z"/>
		</g>
	</g>
	<path class="st0" d="M610.7,263.8c14.1-43.2-1-63.3-33.2-80.4c5-23.1-3-61.3-49.2-61.3c0-11.1-8-67.3-60.3-68.3
		c-52.2-1-68,60.3-68,60.3s-15.7-61.3-68-60.3c-52.2,1-60.3,57.3-60.3,68.3c-46.2,0-54.3,38.2-49.2,61.3
		c-32.2,17.1-47.2,37.2-33.2,80.4c-27.1,29.1-26.1,51.2,1,71.3c-10,22.1-2.4,40-2.4,40h0c31.3,86.7,114.3,148.6,211.7,148.6
		s180.4-61.9,211.7-148.6h0.6c0,0,7.7-17.9-2.4-40C636.8,315.1,637.8,293,610.7,263.8z M354.5,168.7c0,0,54.6,2,78.4,25.8
		c21.4-24.1,71.7-25.8,71.7-25.8v163.4h-42.2v-65.9l-30.1,23.7L397,266.3v65.9h-42.5V168.7z M299.1,289.9c0.8-3,1.1-6.1,1.1-9.1
		v-75.9c0-20,16.2-36.2,36.2-36.2h0v97.1c0,36.3-29.4,65.6-65.6,65.6h0C270.7,331.5,292.2,317.4,299.1,289.9z M211.8,382.2
		c3.3-0.2,6.7-0.3,10.1-0.3c78.7,0,145.6,50.9,169.5,121.5C311.2,500.5,242.8,451.5,211.8,382.2z M407.4,503.4
		c23.9-70.7,90.7-121.5,169.5-121.5c3.4,0,6.7,0.1,10.1,0.3C555.9,451.5,487.5,500.5,407.4,503.4z"/>
</g>
</svg>
