<?xml version="1.0" encoding="utf-8"?>
<!-- Generator: Adobe Illustrator 22.1.0, SVG Export Plug-In . SVG Version: 6.00 Build 0)  -->
<svg version="1.1" id="图层_1" xmlns="http://www.w3.org/2000/svg" xmlns:xlink="http://www.w3.org/1999/xlink" x="0px" y="0px"
	 viewBox="0 0 800 800" style="enable-background:new 0 0 800 800;" xml:space="preserve">
<style type="text/css">
	.st0{fill:#5E1B15;}
	.st1{fill:#00504E;}
	.st2{fill:#1D989A;}
</style>
<g>
	<path d="M503.1,283.5c0,1.1,0,2.2-0.1,3.3c-0.1,1.2-0.2,2.4-0.4,3.6c-0.1,0.4-0.2,0.8-0.4,1.2c-0.1,0.2-0.2,0.5-0.4,0.7
		c-0.8,1-2.2,0.9-2.8-0.3c-0.2-0.4-0.3-0.8-0.3-1.2c0-0.4,0-0.8,0-1.2c0-1.4-0.1-2.9-0.2-4.3c-0.1-1-0.2-2-0.2-3.1
		c-0.1-0.8-0.1-1.5-0.2-2.3c-0.1-0.8-0.2-1.5-0.3-2.3c-0.1-0.5-0.1-0.9-0.2-1.4c-0.1-0.7-0.1-1.3-0.2-2c-0.1-0.9-0.2-1.8-0.5-2.7
		c-0.1-0.6-0.3-1.2-0.4-1.8c-0.1-0.5-0.1-1,0-1.4c0.1-1.2,0.2-2.4,0.1-3.6c0-0.6,0-1.3,0.1-1.9c0.1-0.3,0.1-0.6,0.1-1
		c0-0.2,0-0.4,0-0.6c-0.1-0.8-0.9-1.3-1.7-1.2c-0.4,0.1-0.8,0.2-1.1,0.5c-0.2,0.2-0.4,0.5-0.6,0.7c-0.2,0.2-0.4,0.5-0.6,0.7
		c-0.5,0.6-1.1,1-1.9,1.3c-0.5,0.2-0.9,0.2-1.4,0.1c-0.7-0.1-1.3-0.7-1.3-1.4c0-0.1,0-0.3,0-0.4c0-0.7,0.4-1.1,1-1.3
		c0.3-0.1,0.6-0.1,0.8-0.2c0.9-0.1,1.7-0.5,2.5-1c1-0.6,2-1.4,2.9-2.2c0.4-0.4,0.9-0.9,1.2-1.3c0.7-0.9,1.2-2,1.4-3.2
		c0.1-0.6,0.2-1.1,0.3-1.7c0.2-1,0.4-1.9,0.6-2.9c0.1-0.6,0.2-1.2,0.4-1.8c0.3-0.8,0.5-1.6,0.9-2.3c0.6-1.5,1.2-3,1.6-4.6
		c0.4-1.5,1.2-2.8,2.1-4c0.2-0.3,0.5-0.6,0.8-0.8c0.7-0.5,1.4-0.7,2.2-0.6c1.3,0.1,2.4,0.5,3.4,1.3c0.5,0.5,1,1,1.2,1.7
		c0.3,0.8,0.5,1.6,0.4,2.4c0,0.5-0.2,1-0.6,1.4c0,0,0,0-0.1,0.1c-0.2,0.2-0.5,0.2-0.7,0c-0.1-0.2-0.3-0.3-0.4-0.5
		c-0.2-0.3-0.4-0.6-0.6-1c-0.4-0.5-0.9-0.9-1.5-1.2c-0.7-0.3-1.3-0.1-1.9,0.4c-0.3,0.3-0.6,0.7-0.8,1.1c-0.5,0.8-0.8,1.7-1.1,2.5
		c-0.2,0.5-0.4,1-0.5,1.4c-0.2,0.7-0.5,1.4-0.8,2c-0.3,0.5-0.4,1-0.5,1.5c-0.1,0.4-0.1,0.8-0.1,1.2c0.1,0.5,0.4,0.8,0.8,1
		c0.7,0.3,1.3,0.1,1.9-0.2c0.2-0.1,0.3-0.3,0.5-0.4c0.3-0.3,0.6-0.7,0.9-1c0.6-0.7,1.2-1.4,2-1.9c0.4-0.3,0.7-0.6,0.8-1
		c0.1-0.3,0.3-0.6,0.5-0.8c0.1-0.1,0.2-0.2,0.3-0.3c0.1-0.1,0.2-0.1,0.3,0c0,0,0.1,0.1,0.1,0.1c0.1,0.5,0.1,1-0.2,1.4
		c-0.1,0.1-0.1,0.2-0.2,0.2c-0.3,0.3-0.4,0.6-0.5,1c-0.1,0.2-0.1,0.4-0.2,0.6c-0.1,0.4-0.3,0.7-0.4,1.1c-0.3,0.7-0.8,1.2-1.4,1.7
		c-0.5,0.3-0.9,0.7-1.4,1c-0.3,0.2-0.6,0.5-0.9,0.9c-0.2,0.2-0.4,0.5-0.6,0.7c-0.4,0.5-0.9,1-1.4,1.5c-0.4,0.3-0.7,0.7-1.1,1.1
		c-1,1.1-1.4,2.3-1.2,3.8c0,0.1,0,0.2,0.1,0.3c0.2,1,0.3,2,0.1,3c-0.1,0.5-0.1,1.1-0.2,1.6c0,0.2,0,0.4,0,0.6c0,1.1,0,2.1,0,3.2
		c0,0.8,0.2,1.5,0.7,2.2c0.4,0.5,0.6,1.1,0.6,1.7c0,0.3,0.1,0.6,0.2,0.8c0.2,0.5,0.7,0.8,1.2,0.7c0.1,0,0.2-0.1,0.4-0.1
		c0.4-0.2,0.9-0.4,1.3-0.7c0.3-0.2,0.6-0.4,0.9-0.5c0.3-0.1,0.6-0.2,0.9-0.3c0.7-0.2,1.3,0.1,1.8,0.6c0.2,0.2,0.3,0.4,0.4,0.6
		c0.2,0.3,0.3,0.5,0.5,0.8c0.4,0.7,1.1,1,1.9,1.1c0.5,0,1,0,1.5,0c1.2-0.2,2.3-0.3,3.5-0.3c1.2-0.1,2.4-0.2,3.5-0.6
		c1.2-0.4,2.4-0.6,3.7-0.8c1.3-0.2,2.5-0.4,3.8-0.6c0.6-0.1,1.2-0.3,1.8-0.4c0.9-0.3,1.8-0.6,2.7-0.9c0.6-0.2,1.3-0.4,1.9-0.5
		c0.3-0.1,0.7-0.2,1-0.2c0.5-0.1,1-0.2,1.5-0.3c0.7-0.1,1.3-0.3,2-0.5c0.4-0.1,0.8-0.3,1.2-0.5c1.1-0.6,1.3-2,0.7-2.8
		c-0.5-0.7-1.1-1.3-1.9-1.8c-0.7-0.4-1.5-0.4-2.3-0.1c-0.5,0.2-0.9,0.4-1.3,0.6c-0.7,0.4-1.4,0.6-2.2,0.6c-0.5,0-1,0-1.5,0
		c-0.6,0-1.2,0-1.8,0.1c-1,0.2-2,0.3-2.9,0.4c-1.2,0.1-2.3,0.3-3.4,0.7c-1.1,0.4-2.3,0.6-3.5,0.8c-1,0.1-2,0.1-2.9-0.2
		c-0.1,0-0.2-0.1-0.3-0.2c-0.1,0-0.2-0.2-0.1-0.3c0.1-0.1,0.1-0.2,0.2-0.3c0.3-0.5,0.7-1,1-1.5c0.1-0.1,0.2-0.3,0.3-0.4
		c0.9-1.1,1.2-2.3,1.1-3.7c0-0.2,0-0.4,0-0.6c-0.1-0.5-0.1-1,0-1.5c0.1-0.7,0-1.3-0.1-2c-0.1-0.9-0.5-1.6-1.2-2.1
		c-0.3-0.2-0.7-0.5-1-0.7c-0.5-0.3-0.9-0.7-1.3-1.1c-0.4-0.5-0.7-1.1-0.7-1.7c0-0.2,0-0.4,0-0.6c0.1-0.7,0.4-1.3,1.1-1.6
		c0.2-0.1,0.3-0.2,0.5-0.3c0.7-0.3,1.4-0.7,2-1.1c0.3-0.2,0.6-0.4,0.9-0.6c1-0.9,1.9-1.8,2.9-2.8c0.5-0.5,1-1.1,1.4-1.7
		c1-1.4,2.1-2.7,3.1-4c0.6-0.7,1.3-1.3,2.1-1.7c1.1-0.6,2.1-1.4,2.9-2.3c0.3-0.3,0.5-0.6,0.8-0.9c0.2-0.2,0.3-0.4,0.4-0.6
		c0.1-0.4,0.1-0.7,0-1.1c-0.2-0.4-0.4-0.6-0.8-0.7c-0.4-0.1-0.8,0-1.2,0.1c-0.3,0.1-0.5,0.2-0.8,0.3c-0.4,0.2-0.8,0.3-1.2,0.4
		c-0.6,0.2-1.2,0.1-1.8-0.1c-0.8-0.3-1.5-0.8-2-1.5c-0.1-0.1-0.1-0.2-0.1-0.2c-0.3-0.8-0.2-1.5,0.6-2c0.2-0.1,0.5-0.2,0.7-0.3
		c0.4-0.1,0.8-0.1,1.2-0.1c1.3,0.1,2.7-0.1,4-0.1c0.4,0,0.9-0.1,1.3-0.2c0.6-0.1,1.2-0.4,1.5-1.1c0.2-0.3,0.3-0.6,0.3-0.9
		c0.1-0.5,0-1-0.1-1.5c-0.1-0.3-0.1-0.6-0.2-0.8c-0.2-0.6-0.2-1.1-0.2-1.7c0-1.5,0-2.9,0-4.4c0-0.7,0.1-1.4,0.3-2.1
		c0.1-0.3,0.2-0.7,0.4-0.9c0.2-0.3,0.4-0.5,0.7-0.6c0.5-0.2,1.1-0.3,1.7-0.1c0.4,0.1,0.7,0.3,0.9,0.7c0.2,0.2,0.3,0.5,0.3,0.8
		c0.1,0.6,0.2,1.2,0.1,1.8c0,0.4-0.1,0.8-0.2,1.1c-0.3,1.2-0.5,2.5-0.9,3.7c-0.1,0.3-0.2,0.7-0.1,1c0,0.2,0.1,0.4,0.1,0.6
		c0.1,0.3,0.3,0.5,0.6,0.6c0.4,0.1,0.7,0.2,1.1,0.1c0.4-0.1,0.8-0.3,1.2-0.6c0.3-0.2,0.5-0.4,0.7-0.6c0.6-0.5,1.1-1.1,1.7-1.6
		c0.3-0.3,0.6-0.5,0.9-0.6c0.4-0.2,0.8-0.3,1.3-0.3c0.3,0,0.6,0.1,0.8,0.3c0.2,0.2,0.3,0.4,0.3,0.7c0,0.4,0,0.7-0.1,1
		c-0.2,0.7-0.6,1.4-1.1,2c-0.7,0.7-1.4,1.4-2.3,1.9c-0.8,0.4-1.5,0.9-2.3,1.4c-0.6,0.4-1.1,0.9-1.5,1.6c-0.1,0.2-0.3,0.4-0.3,0.7
		c-0.2,0.4,0,0.9,0.4,1.2c0.3,0.2,0.6,0.3,0.9,0.4c0.3,0.1,0.7,0.1,1,0.2c1.5,0.2,2.8,0.8,3.9,1.7c0.6,0.5,1.2,1.1,1.7,1.8
		c1.3,2,1.2,2.1,1.4,3.9c0.1,0.5,0.2,1.1,0.3,1.6c0.2,0.7,0.5,1.5,0.8,2.1c0.4,0.7,0.7,1.3,1.1,2c0.5,1.1,1,2.1,1.5,3.2
		c0.4,0.9,0.7,1.9,0.9,2.9c0.2,1,0.5,1.9,0.9,2.8c0.4,0.9,0.6,1.9,0.6,2.9c0,0.5,0.1,1,0.2,1.5c0.1,1.1,0,2.1-0.2,3.1
		c-0.1,0.4-0.2,0.8-0.2,1.2c-0.1,0.3,0,0.6,0.1,0.9c0.1,0.3,0.3,0.5,0.5,0.6c0.4,0.2,0.9,0.3,1.4,0.2c0.4-0.2,0.9-0.3,1.3-0.5
		c0.7-0.3,1.5-0.6,2.2-0.8c0.9-0.2,1.7-0.7,2.2-1.5c0.2-0.3,0.5-0.7,0.7-1c0.4-0.5,0.8-0.9,1.5-1c0.4-0.1,0.7-0.2,1.1-0.3
		c0.6-0.1,1.3-0.2,1.9-0.4c0.6-0.1,1.2-0.1,1.8-0.1c0.7,0,1.3,0.4,1.6,1c0.5,0.9,0.4,1.8-0.1,2.6c-0.3,0.5-0.7,0.8-1.2,1.1
		c-0.4,0.2-0.8,0.4-1.2,0.6c-1.1,0.4-2.2,0.8-3.3,1.1c-1.4,0.3-2.7,0.9-4,1.3c-1.7,0.6-3.4,1.2-5,1.9c-1.3,0.6-2.7,1.1-4,1.6
		c-1,0.4-2.1,0.8-3.1,1.3c-0.5,0.2-1,0.5-1.6,0.7c-0.5,0.2-0.9,0.5-1.3,0.8c-0.4,0.3-0.6,0.7-0.7,1.2c0,0.2,0,0.4,0,0.6
		c0,0.6,0.1,1.2,0.2,1.8c0.2,1.4,0.4,2.7,0.6,4.1c0,0.3,0.1,0.6,0.1,0.9c0.1,0.3,0.1,0.7,0.2,1c0.3,0.9,0.7,1.9,1.2,2.7
		c0.3,0.5,0.5,0.9,0.7,1.5c0.2,0.5,0.3,1,0.4,1.6c0,1.2-0.1,2.3-0.3,3.4c-0.4,1.6-2,3.2-3.6,3.5c-0.3,0.1-0.6,0.1-0.9,0.2
		c-0.7,0.1-1.5,0.1-2.2,0.2c-1.6,0.1-3.1-0.2-4.5-0.7c-0.3-0.1-0.7-0.3-1-0.4c-0.6-0.4-1.3-0.8-1.9-1.1c-0.4-0.3-0.8-0.5-1.3-0.7
		c-1.1-0.4-2.2-0.3-3.1,0.5c-0.3,0.3-0.7,0.6-0.9,1c-0.7,0.9-1.6,1.6-2.5,2.2c-0.3,0.2-0.6,0.3-0.9,0.4c-1,0.4-2,0.1-2.7-0.6
		c-0.7-0.7-1.2-1.6-1.3-2.6c-0.1-0.7,0-1.3,0.3-1.9c0.3-0.8,0.7-1.5,1-2.3c0.3-0.6,0.5-1.2,0.7-1.8c0.5-1.6,1.5-2.9,2.5-4.1
		c0.3-0.3,0.6-0.5,1-0.7c0.4-0.1,0.8-0.2,1.2-0.2c0.8,0,1.6,0.2,2.4,0.5c0.5,0.2,0.8,0.6,0.9,1.1c0.1,0.2,0.1,0.5,0.2,0.7
		c0,0.3,0,0.6,0,0.9c0,0.2,0,0.4,0,0.7c0,1.3,0.6,2.3,1.6,3c0.9,0.6,1.9,1,2.9,1.2c0.2,0.1,0.4,0.1,0.7,0.1c0.4,0.1,0.8,0.1,1.2,0
		c1.2-0.2,2.4-0.7,3.4-1.4c0.8-0.5,1.4-1.3,1.7-2.3c0.1-0.2,0.1-0.5,0.1-0.8c0-0.6,0-1.1-0.1-1.7c-0.2-1.2-0.5-2.3-0.7-3.5
		c-0.1-0.4-0.2-0.7-0.3-1.1c-0.4-1-0.6-2-0.8-3c-0.1-0.4-0.2-0.8-0.3-1.2c-0.1-0.3-0.2-0.7-0.5-0.9c-0.3-0.4-0.7-0.6-1.1-0.6
		c-0.4,0-0.8,0-1.1,0.2c-0.2,0.1-0.4,0.2-0.6,0.3c-0.2,0.1-0.5,0.2-0.7,0.4c-0.8,0.5-1.7,0.8-2.7,0.9c-0.9,0.1-1.8,0.3-2.6,0.6
		c-0.8,0.2-1.5,0.5-2.3,0.6c-0.6,0.1-1.2,0.2-1.8,0.3c-0.8,0.1-1.6,0.3-2.3,0.5c-0.3,0.1-0.6,0.2-0.9,0.3c-0.6,0.2-1.3,0.3-2,0.4
		c-0.8,0.1-1.5,0.2-2.3,0.3c-0.7,0.1-1.5,0.1-2.2,0.1c-2.3,0-4.6,0-6.9,0.2c-1,0.1-1.9-0.1-2.8-0.3c-0.5-0.1-1-0.2-1.5-0.4
		c-0.4-0.1-0.9-0.1-1.3-0.1c-0.1,0-0.2,0-0.3,0c-0.6,0.1-1.2,0.4-1.4,1.3c-0.1,0.7-0.2,1.3-0.2,2C503,281.5,503,282.5,503.1,283.5
		C503,283.5,503.1,283.5,503.1,283.5z M550.2,256c0.1-1.7-0.1-3.4-0.8-5.1c-0.3-0.7-0.6-1.5-0.9-2.2c-0.3-0.7-0.6-1.5-0.9-2.2
		c-0.2-0.5-0.4-1.1-0.7-1.6c-0.4-0.8-0.8-1.6-1.2-2.4c-0.4-0.7-0.7-1.4-0.9-2.2c-0.1-0.4-0.3-0.8-0.4-1.2c-0.3-1-0.9-1.9-1.5-2.8
		c-0.4-0.6-1-0.9-1.6-1.1c-0.7-0.3-1.4,0.1-1.7,0.8c-0.1,0.3-0.2,0.7-0.1,1c0.1,1,0.3,2.1,0.6,3.1c0.2,0.7,0.3,1.5,0.4,2.3
		c0.2,1.4,0.2,2.8-0.3,4.2c-0.1,0.4-0.2,0.9-0.4,1.3c-0.3,0.8-0.3,1.6-0.1,2.5c0.2,0.9,0.2,1.8,0,2.8c-0.1,0.6-0.3,1.1-0.4,1.7
		c-0.2,0.8-0.5,1.5-1,2.2c-0.2,0.2-0.3,0.5-0.5,0.7c-0.2,0.4-0.2,0.8-0.1,1.3c0.1,0.4,0.3,0.7,0.6,1c0.2,0.2,0.4,0.5,0.6,0.7
		c0.7,0.7,1.6,1,2.6,0.8c0.5-0.1,1-0.3,1.5-0.5c0.2-0.1,0.5-0.3,0.8-0.4c0.4-0.2,0.8-0.1,1.1,0.3c0.3,0.3,0.5,0.7,0.7,1
		c0.2,0.2,0.3,0.5,0.5,0.7c0.2,0.3,0.5,0.6,0.9,0.7c1,0.4,2.2,0.1,2.8-0.9c0.5-0.8,0.7-1.6,0.6-2.6c0-0.3-0.1-0.7-0.2-1
		c-0.1-0.7-0.1-1.3-0.1-2C550.2,256.5,550.2,256.2,550.2,256z M519.6,249.9c0,0.3,0,0.5,0.1,0.8c0.1,0.5,0.3,0.8,0.6,1.1
		c0.6,0.5,1.4,0.4,1.9-0.2c0.1-0.2,0.2-0.3,0.3-0.5c0.1-0.2,0.2-0.4,0.3-0.6c0.2-0.4,0.5-0.8,0.8-1.2c0.2-0.2,0.3-0.3,0.5-0.5
		c0.4-0.4,0.7-0.8,1-1.3c0.1-0.2,0.2-0.4,0.4-0.7c0.1-0.1,0.2-0.2,0.2-0.3c0.1-0.1,0.3-0.1,0.4-0.1c0.2,0.2,0.4,0.3,0.6,0.5
		c0.2,0.2,0.5,0.4,0.8,0.5c0.2,0.1,0.5,0.1,0.6-0.1c0.3-0.3,0.6-0.6,0.9-0.9c0.4-0.4,0.8-0.8,1.3-1.1c0.4-0.3,0.7-0.6,1.1-1
		c0.5-0.6,1.1-1.2,1.7-1.7c0.6-0.6,1.1-1.1,1.6-1.7c0.2-0.3,0.4-0.5,0.6-0.8c0.1-0.2,0.2-0.4,0.3-0.7c0.1-0.3,0.1-0.7-0.1-1
		c-0.5-0.7-1.2-1.1-2-1.1c-0.3,0-0.6,0.1-0.9,0.2c-0.5,0.2-0.9,0.5-1.3,0.8c-0.8,0.8-1.5,1.6-2.1,2.5c-0.2,0.3-0.4,0.6-0.6,0.9
		c-0.4,0.7-0.9,1.4-1.6,1.9c-0.3,0.3-0.6,0.6-1,0.9c-0.1,0.1-0.2,0.2-0.4,0.3c-0.1,0.1-0.3,0.1-0.5,0.1c-0.1,0-0.2-0.1-0.3-0.1
		c-0.9-0.2-1.6,0-2.3,0.7c-0.7,0.7-1.5,1.5-2.2,2.3C519.9,248.4,519.6,249.1,519.6,249.9z M522.9,258.4c0,0.5,0,0.7,0,1
		c0,0.4,0.1,0.7,0.2,1c0.3,0.8,1,1.3,1.9,1.3c0.5,0,1.1-0.1,1.6-0.3c0.2-0.1,0.4-0.2,0.6-0.3c0.8-0.6,1.1-1.5,1-2.5
		c0-0.5-0.1-1.1-0.4-1.6c-0.1-0.3-0.3-0.6-0.4-1c-0.2-0.4-0.3-0.8-0.3-1.3c0-0.4-0.1-0.9-0.1-1.3c-0.1-0.5-0.2-1-0.6-1.4
		c-0.3-0.3-0.7-0.4-1-0.2c-0.2,0.1-0.4,0.3-0.6,0.5c-0.3,0.3-0.6,0.7-0.9,1c-0.2,0.3-0.4,0.6-0.5,1c-0.1,0.2-0.1,0.5-0.1,0.7
		c-0.1,0.7-0.1,1.3-0.2,2C523,257.7,522.9,258.2,522.9,258.4z M533.2,255.7c0.2,0,0.4-0.1,0.6-0.2c0.8-0.6,0.7-1.8-0.2-2.2
		c-0.3-0.1-0.6-0.2-0.9-0.4c-0.4-0.2-0.6-0.6-0.6-1c0.1-0.4,0.2-0.8,0.4-1.1c0.2-0.3,0.4-0.5,0.6-0.7c0.3-0.3,0.5-0.6,0.7-1
		c0.2-0.3,0.2-0.7,0.1-1c-0.1-0.3-0.2-0.5-0.5-0.6c-0.3-0.1-0.5-0.2-0.8-0.1c-0.3,0.1-0.6,0.2-0.9,0.4c-0.2,0.2-0.5,0.3-0.7,0.5
		c-0.5,0.4-1,0.6-1.6,0.7c-0.3,0.1-0.6,0.1-0.8,0.2c-0.2,0.1-0.5,0.2-0.6,0.4c-0.2,0.2-0.3,0.5-0.5,0.7c-0.2,0.2-0.2,0.5-0.1,0.8
		c0.2,0.6,0.6,1.1,1.1,1.4c0.6,0.4,1.1,0.7,1.8,1c0.5,0.2,0.8,0.5,1.1,0.9c0.1,0.2,0.3,0.4,0.4,0.6c0.1,0.2,0.3,0.3,0.5,0.5
		C532.5,255.6,532.8,255.7,533.2,255.7z"/>
	<path d="M604.9,235.7c0.1,1,0,1.8-0.1,2.7c-0.1,0.5-0.1,1-0.1,1.5c0.1,1.3,0.9,2,2.2,2.2c0.6,0.1,1.1-0.1,1.6-0.3
		c0.7-0.4,1.4-0.9,2.1-1.4c1.6-1.2,2.1-1.7,3.2-3.4c0.6-0.9,1.1-1.9,1.3-3c0.1-0.5,0.2-1.1,0.4-1.6c0.3-1,0.9-1.8,1.8-2.3
		c0.8-0.5,1.6-0.5,2.5-0.2c0.8,0.3,1.2,0.9,1.3,1.7c0.1,0.4,0,0.8-0.1,1.2c-0.2,0.5-0.4,1-0.7,1.5c-0.3,0.4-0.5,0.8-0.8,1.2
		c-0.5,0.8-0.9,1.6-1.2,2.5c-0.3,1-0.5,2-0.7,3c0,0.2,0,0.4,0,0.7c0,0.2,0.1,0.3,0.3,0.4c0,0,0.1,0,0.1,0c1.1,0.3,2.1,0.2,3-0.5
		c0.4-0.3,0.7-0.6,1-1c0.4-0.5,0.9-1,1.4-1.4c0.3-0.2,0.5-0.4,0.8-0.5c0.9-0.5,1.7-1.2,2.4-1.9c0.3-0.3,0.7-0.7,1-1.1
		c0.7-0.9,1.7-1.6,2.6-2.2c0.5-0.3,1-0.6,1.5-0.9c0.5-0.3,1-0.6,1.6-0.8c0.5-0.2,1.1-0.4,1.6-0.7c0.5-0.3,0.9-0.7,1.2-1.1
		c0.7-0.9,1.3-1.8,1.8-2.8c0.5-0.8,0.8-1.7,1.2-2.6c0.1-0.3,0.2-0.6,0.3-0.9c0.3-0.6,0.5-1.2,0.6-1.8c0.1-0.5,0.3-0.9,0.4-1.4
		c0.2-0.5,0.4-1,0.7-1.5c0.2-0.3,0.5-0.6,0.8-0.8c0.2-0.1,0.4-0.2,0.5-0.2c0.5-0.1,0.9,0.1,1.2,0.6c0.3,0.4,0.4,0.9,0.5,1.4
		c0.2,1.2,0.2,2.5,0.1,3.7c-0.1,0.6-0.1,1.1-0.2,1.7c0,0.4,0,0.8,0.1,1.2c0.2,0.9,0.8,1.5,1.7,1.7c0.3,0.1,0.6,0.1,0.9,0.1
		c0.3,0,0.5,0,0.8,0c0.9,0,1.7,0.3,2.4,0.8c1,0.7,1.8,1.6,2.3,2.6c0.6,1.1,1.1,2.2,1.6,3.4c0.3,0.8,0.5,1.6,0.7,2.4
		c0.1,0.5,0.2,0.9,0.4,1.4c0.2,0.8,0.4,1.6,0.5,2.4c0.1,0.9,0.2,1.7,0.3,2.6c0.2,1.9,0.3,3.8,0.3,5.6c0,1,0,2,0,3.1
		c0,0.7-0.1,1.3-0.2,2c-0.3,1.5-0.6,3-1.1,4.4c-0.6,1.7-1.2,3.5-2.1,5.1c-0.7,1.3-1.4,2.7-2.1,4.1c-0.2,0.5-0.5,1-0.7,1.5
		c-0.6,1.2-1.3,2.3-2.1,3.3c-0.3,0.4-0.6,0.8-0.9,1.3c-0.3,0.4-0.6,0.8-0.9,1.1c-0.6,0.8-1.2,1.5-1.8,2.3c-0.7,0.9-1.6,1.8-2.5,2.5
		c-0.9,0.8-1.8,1.5-2.8,2.2c-1,0.7-2.1,1.2-3.3,1.6c-0.9,0.3-1.9,0.3-2.8,0c-0.7-0.2-1.3-0.4-2-0.6c-0.6-0.2-1.2-0.5-1.7-0.9
		c-0.7-0.5-1.3-1-2-1.5c-0.6-0.5-1.1-1-1.5-1.6c-0.2-0.2-0.4-0.5-0.7-0.7c-0.6-0.5-1.3-0.7-2.1-0.5c-0.3,0-0.6,0.2-0.8,0.5
		c-0.1,0.2-0.2,0.3-0.3,0.5c-0.1,0.2-0.2,0.4-0.3,0.6c-0.8,1.7-1.8,3.2-2.9,4.7c-0.4,0.5-0.8,1.1-1.2,1.6c-0.4,0.7-0.9,1.3-1.3,1.9
		c-0.2,0.3-0.4,0.6-0.7,0.9c-0.4,0.6-0.8,1.3-1.2,1.9c-0.5,0.7-1,1.5-1.3,2.3c-0.2,0.6-0.6,1.1-1,1.5c-0.3,0.3-0.7,0.4-1.1,0.4
		c-0.8,0-1.3-0.5-1.4-1.2c-0.1-0.5-0.1-1,0.1-1.4c0.1-0.2,0.2-0.4,0.3-0.6c0.2-0.3,0.4-0.6,0.6-0.8c1-1.1,1.9-2.4,2.7-3.6
		c1-1.5,2-2.9,3-4.3c0.5-0.7,1-1.4,1.5-2.1c0.4-0.7,0.9-1.3,1.4-1.9c0.5-0.6,0.9-1.1,1.4-1.7c0.8-0.9,0.5-2.3-0.2-3
		c-0.5-0.5-1.2-0.8-1.9-0.9c-0.6-0.1-1.3-0.2-1.9-0.2c-0.5,0-0.9-0.2-1.4-0.4c-0.4-0.2-0.6-0.5-0.7-1c-0.1-0.3-0.1-0.7-0.1-1
		c0-0.8-0.3-1.3-1.1-1.7c-0.2-0.1-0.4-0.2-0.6-0.3c-0.1-0.1-0.3-0.2-0.4-0.3c-0.4-0.3-0.3-0.9,0-1.2c0.3-0.2,0.5-0.4,0.8-0.4
		c0.3-0.1,0.6-0.1,0.9-0.2c0.2,0,0.4-0.1,0.7-0.1c1.1-0.2,2-1.3,2-2.3c0.1-0.7,0-1.5-0.1-2.2c-0.1-0.7-0.3-1.4-0.4-2.2
		c-0.2-1.4-0.3-2.8,0-4.2c0.1-0.3,0.1-0.6,0.1-0.9c0-0.5-0.2-0.9-0.6-1.1c-0.1,0-0.2-0.1-0.3-0.1c-0.4-0.1-0.7-0.2-1.1-0.3
		c-0.6-0.1-1.1,0.1-1.5,0.5c-0.4,0.3-0.8,0.7-1,1.1c-0.3,0.4-0.5,0.7-0.7,1.1c-0.5,0.8-1.2,1.6-1.8,2.3c-1.5,1.6-3.1,3-4.7,4.5
		c-1,0.8-1.9,1.8-2.8,2.6c-0.2,0.2-0.4,0.4-0.6,0.7c-0.8,1-1.5,2-2.3,3c-0.5,0.6-0.8,1.2-1,2c0,0.2-0.1,0.4-0.2,0.6
		c-0.2,1-0.7,1.9-1.2,2.7c-0.5,0.8-1.2,1.3-2,1.8c-0.4,0.2-0.8,0.3-1.2,0.4c-0.8,0.1-1.8-0.5-2-1.4c-0.1-0.5-0.1-1.1-0.1-1.6
		c0.1-0.5,0.2-0.9,0.4-1.4c0.8-2,1.7-4,2.9-5.8c0.1-0.2,0.2-0.4,0.4-0.5c1.3-1.5,2.5-3.2,3.9-4.6c0.6-0.6,1.1-1.2,1.6-1.8
		c0.7-0.8,1.4-1.6,2.2-2.2c0,0,0.1-0.1,0.1-0.1c0.7-0.8,1.6-1.4,2.4-2.1c0.6-0.5,1.3-1,1.9-1.6c0.7-0.6,1.4-1.3,2.1-1.9
		c0.4-0.4,0.8-0.8,1.2-1.1c1-1,2.1-1.7,3.2-2.5c0.9-0.6,1.6-1.3,2.2-2.1c0.2-0.3,0.4-0.5,0.6-0.8c0.5-0.6,0.7-1.3,0.9-2.1
		c0-0.1,0-0.3,0-0.4c0-0.2-0.1-0.3-0.3-0.4c-0.2-0.1-0.5-0.2-0.7-0.2c-0.6-0.1-1.1,0-1.7,0.2c-0.5,0.1-0.9,0.4-1.3,0.8
		c-0.6,0.5-1.1,1-1.7,1.4c-0.4,0.3-0.8,0.6-1.2,0.8c-0.5,0.3-0.9,0.5-1.4,0.8c-1,0.5-2,0.7-3.1,0.7c-0.4,0-0.7-0.1-1-0.2
		c-0.4-0.2-0.8-0.3-1.2-0.4c-1-0.4-2-0.7-3.1-0.9c-1.3-0.2-2.3-0.8-3.4-1.6c-0.4-0.3-0.7-0.7-1-1.1c-0.4-0.6-0.5-1.2-0.4-1.9
		c0.1-0.4,0.3-0.9,0.4-1.3c0.3-0.8,0.7-1.7,1-2.5c0.3-0.8,0.8-1.6,1.3-2.4c0.5-0.8,1.1-1.6,1.6-2.4c0.3-0.4,0.5-0.7,0.8-1.1
		c0.5-0.6,1.1-0.9,1.8-1.1c0.9-0.2,1.6,0.2,2,1c0.2,0.4,0.3,0.8,0.4,1.2c0.2,0.9,0.3,1.9,0.4,2.8
		C604.9,235.2,604.9,235.5,604.9,235.7z M651.8,247.6c0-1.1-0.1-2.1-0.2-3.1c-0.1-1-0.3-2-0.3-3c-0.1-1.4-0.4-2.7-0.9-4
		c-0.4-1-0.9-2-1.4-2.9c-0.3-0.5-0.6-1-1-1.5c-0.2-0.2-0.4-0.5-0.7-0.6c-0.8-0.5-1.8-0.3-2.3,0.4c-0.2,0.3-0.4,0.6-0.4,1
		c-0.1,0.4-0.1,0.8-0.2,1.1c-0.1,0.5-0.2,1.1-0.4,1.6c-0.3,0.8-0.7,1.6-1.4,2.2c-0.4,0.3-0.8,0.7-1.2,1c-0.2,0.2-0.5,0.4-0.7,0.7
		c-0.3,0.4-0.4,0.8-0.3,1.3c0.1,0.3,0.2,0.5,0.4,0.8c0.3,0.4,0.7,0.7,1,1c0.3,0.3,0.6,0.5,0.9,0.8c0.5,0.6,0.7,1.3,0.5,2.1
		c-0.2,0.6-0.5,1.1-1,1.5c-0.4,0.3-0.8,0.6-1.2,0.9c-0.3,0.2-0.5,0.4-0.7,0.6c-0.2,0.2-0.3,0.4-0.4,0.6c-0.3,0.6-0.1,1.4,0.5,1.8
		c0.2,0.1,0.4,0.3,0.7,0.4c0.3,0.1,0.6,0.2,0.9,0.3c0.4,0.2,0.8,0.4,1.2,0.6c0.4,0.3,0.7,0.7,0.9,1.2c0.3,0.7,0.3,1.5,0.1,2.3
		c-0.1,0.5-0.4,0.8-0.9,1c-0.3,0.1-0.5,0.2-0.8,0.3c-1,0.3-1.8,0.8-2.5,1.6c-0.8,0.8-1.6,1.6-2.4,2.4c-0.9,0.9-1.8,1.8-2.6,2.8
		c-0.8,1-1.6,2-2.5,2.9c-0.2,0.2-0.3,0.3-0.4,0.5c-0.7,0.9-1.5,1.8-2.2,2.8c-0.5,0.6-0.9,1.1-1.5,1.6c-0.3,0.2-0.5,0.4-0.7,0.6
		c-0.3,0.2-0.5,0.5-0.6,0.8c-0.5,0.9-0.5,1.9,0.2,2.7c0.4,0.4,0.8,0.8,1.3,1.2c0.3,0.2,0.7,0.5,1,0.7c1.3,1.1,2.9,1.7,4.6,1.8
		c1.4,0.1,2.7-0.1,3.9-0.8c0.8-0.4,1.5-1,2.1-1.6c0.6-0.5,1.2-1.1,1.7-1.7c0.9-0.8,1.7-1.7,2.3-2.8c0.5-0.9,1.1-1.8,1.6-2.7
		c0.4-0.7,0.8-1.5,1.1-2.2c0.2-0.5,0.4-1,0.7-1.5c0.7-1.1,1.2-2.3,1.5-3.6c0.1-0.5,0.3-1,0.6-1.5c0.8-1.2,1.2-2.6,1.4-4
		c0.1-1,0.3-2.1,0.6-3.1c0.2-0.6,0.3-1.3,0.3-2c0-0.7,0.1-1.3,0.1-2C651.7,249.6,651.9,248.5,651.8,247.6z M618.8,263.1
		c0,0.9,0.1,1.8,0.5,2.7c0.4,1.1,0.8,2.2,1.2,3.2c0.2,0.5,0.4,1,0.8,1.4c0.2,0.2,0.4,0.4,0.6,0.6c0.3,0.3,0.7,0.4,1.2,0.3
		c0.8-0.1,1.4-0.4,1.9-1c0.1-0.2,0.3-0.4,0.4-0.5c0.7-0.9,1.2-1.8,2-2.5c0.3-0.3,0.7-0.7,1-1c0.3-0.3,0.7-0.7,1-1
		c0.7-0.8,1.4-1.6,2.1-2.4c0.4-0.5,0.8-1,1.1-1.5c0.6-0.9,0.6-1.9,0.2-2.8c-0.2-0.5-0.5-0.9-0.8-1.3c-0.4-0.5-0.6-1-0.8-1.6
		c-0.2-0.8-0.2-1.5,0.1-2.2c0.2-0.5,0.5-1,0.8-1.5c0.3-0.5,0.6-1,0.9-1.5c0.3-0.5,0.6-1.1,0.9-1.6c0.2-0.3,0.4-0.7,0.6-1
		c0.2-0.5,0.3-1,0.1-1.5c-0.1-0.5-0.3-1-0.6-1.4c-0.2-0.3-0.5-0.7-0.7-1c-0.4-0.5-0.6-1.1-0.7-1.7c-0.1-0.4-0.1-0.8,0-1.2
		c0.1-0.4,0.3-0.8,0.6-1.2c0.2-0.3,0.5-0.6,0.7-0.9c0.4-0.6,0.7-1.3,0.8-2c0-0.2,0-0.4,0-0.7c-0.1-0.8-0.9-1.1-1.5-1
		c-0.3,0.1-0.6,0.2-0.8,0.3c-0.3,0.2-0.5,0.4-0.8,0.7c-0.4,0.3-0.8,0.7-1.2,1c-1.1,0.9-2.1,1.9-3.1,2.9c-0.2,0.2-0.3,0.3-0.4,0.5
		c-0.9,1.1-1.9,2.1-3,3c-0.2,0.1-0.3,0.2-0.4,0.4c-1.4,1.3-2.8,2.5-4.2,3.8c-0.5,0.5-1,1.1-1.4,1.7c-0.3,0.4-0.5,0.8-0.6,1.3
		c-0.2,0.9-0.3,1.8-0.4,2.6c-0.1,0.6,0,1.1,0.3,1.6c0.5,0.9,0.8,1.8,1.3,2.7c0.5,0.9,0.8,1.9,0.7,2.9c0,0.3-0.1,0.6-0.1,1
		C618.9,262.1,618.9,262.6,618.8,263.1z"/>
	<path d="M705.1,220.8c0,0.8-0.1,1.5-0.3,2.1c-0.2,1.1-0.3,2.1-0.3,3.2c0,1.6-0.1,3.1-0.3,4.7c0,0.3-0.1,0.5-0.1,0.8
		c-0.1,1.2-0.1,2.4-0.2,3.5c-0.1,1.5-0.2,3-0.4,4.5c-0.1,1.2-0.4,2.3-1,3.3c-0.2,0.3-0.3,0.7-0.5,1c-0.6,1-0.6,2.1-0.3,3.2
		c0.4,1.2,1.1,2.2,2.2,3c0.2,0.1,0.4,0.2,0.6,0.3c0.3,0.1,0.6,0,0.8-0.2c0.1-0.1,0.2-0.3,0.3-0.5c0.2-0.4,0.3-0.8,0.4-1.2
		c0.2-0.4,0.3-0.9,0.5-1.3c0.2-0.5,0.5-1,0.9-1.3c0.2-0.2,0.5-0.5,0.7-0.7c0.6-0.5,1.1-1.1,1.4-1.8c0.4-0.8,0.9-1.6,1.3-2.4
		c0.6-1.1,1.1-2.1,1.7-3.2c0.3-0.5,0.5-1.1,0.7-1.7c0.1-0.2,0.1-0.4,0.2-0.6c0.6-1.1,1.1-2.3,1.7-3.4c0.3-0.7,0.8-1.2,1.4-1.6
		c0.4-0.3,0.7-0.5,1.1-0.7c0.2-0.1,0.3-0.2,0.5-0.2c0.4-0.1,0.6,0.1,0.5,0.4c-0.2,0.7-0.2,1.4-0.2,2.1c0,1,0,1.9,0,2.9
		c0,0.4,0,0.9,0.2,1.3c0.2,0.8,1,1.2,1.6,1.1c0.3,0,0.6-0.1,0.8-0.2c0.5-0.2,1-0.5,1.5-0.8c0.6-0.5,1.2-0.9,1.7-1.3
		c0.7-0.5,1.5-1,2.3-1.4c0.9-0.5,1.7-0.9,2.6-1.4c1.5-0.8,3.1-0.9,4.7-0.4c0.9,0.3,1.7,0.8,2.5,1.4c0.3,0.2,0.5,0.5,0.8,0.7
		c0.8,1,1.7,1.9,2.5,2.9c0.4,0.5,0.7,1,1.1,1.5c0.8,1.1,1.2,2.4,1.3,3.8c0.1,0.9,0.1,1.8,0.2,2.8c0.1,0.7,0.2,1.3,0.3,2
		c0.1,0.5,0.2,0.9,0.2,1.4c0.1,0.6,0.1,1.1-0.1,1.7c-0.2,1-1,1.7-2,1.7c-0.8,0-1.5-0.2-2.2-0.6c-0.4-0.3-0.7-0.5-1-0.9
		c-0.6-0.7-1.4-1.2-2.2-1.6c-0.5-0.3-1-0.5-1.5-0.8c-0.4-0.2-0.7-0.4-1.1-0.7c-0.4-0.3-0.6-0.7-0.7-1.2c-0.1-0.6,0.1-1.4,0.8-1.8
		c0.4-0.2,0.8-0.3,1.2-0.4c0.4-0.1,0.8-0.1,1.1-0.2c0.3-0.1,0.6-0.1,0.9-0.2c0.8-0.3,1.4-0.9,1.7-1.7c0.3-0.7,0.2-1.4-0.1-2
		c-0.1-0.3-0.3-0.5-0.4-0.7c-0.7-0.8-1.4-1.6-2.3-2.2c-0.9-0.6-1.8-0.8-2.9-0.8c-0.4,0-0.8,0.1-1.1,0.1c-0.5,0-1,0.2-1.5,0.4
		c-1.3,0.6-2.5,1.3-3.7,2.3c-0.7,0.6-1.3,1.2-2,1.8c-0.5,0.5-0.9,1.1-1.3,1.7c-0.6,1-1.3,1.9-1.9,2.9c-0.4,0.5-0.8,1-1.1,1.6
		c-0.5,0.8-1.1,1.6-1.7,2.3c-0.3,0.4-0.6,0.9-0.9,1.4c-0.5,0.9-1,1.8-1.4,2.7c-0.2,0.5-0.6,1-0.9,1.5c-0.6,0.8-1.3,1.7-1.8,2.6
		c-0.2,0.4-0.5,0.7-0.7,1c-0.5,0.6-1.2,0.8-2,0.6c-0.6-0.1-1.1-0.4-1.6-0.8c-0.9-0.7-1.5-1.6-2-2.5c-0.2-0.4-0.4-0.8-0.6-1.2
		c-0.1-0.2-0.3-0.4-0.4-0.5c-0.2-0.2-0.5-0.1-0.6,0c-0.1,0.1-0.2,0.3-0.3,0.5c-0.1,0.3-0.2,0.7-0.3,1c-0.1,0.5-0.2,0.9-0.4,1.4
		c-0.1,0.4-0.4,0.8-0.7,1.1c-0.6,0.5-1.2,0.7-2,0.4c-0.5-0.2-1-0.4-1.5-0.7c-0.9-0.5-1.7-1-2.4-1.8c-0.2-0.2-0.3-0.3-0.4-0.5
		c-0.2-0.3-0.1-0.7,0.2-0.9c0.2-0.2,0.5-0.3,0.7-0.5c0.3-0.2,0.7-0.3,1-0.5c0.2-0.1,0.4-0.2,0.5-0.3c0.6-0.4,0.9-1,0.9-1.8
		c0-0.3-0.1-0.6-0.3-0.8c-0.3-0.4-0.6-0.8-1-1.1c-0.5-0.4-0.9-0.9-1.3-1.4c-0.8-0.9-1-2-1-3.2c0-0.6,0.2-1.1,0.5-1.6
		c0.2-0.3,0.4-0.6,0.6-0.9c0.5-0.7,0.9-1.4,1.2-2.2c0.2-0.5,0.4-0.9,0.5-1.4c0.3-1.4,0.6-2.8,0.5-4.3c0-0.5,0.1-1,0.1-1.4
		c0-0.7,0.2-1.5,0.4-2.1c0.1-0.3,0.2-0.7,0.3-1c0.3-0.9,0.4-1.7,0.4-2.6c0-0.3-0.1-0.6-0.1-0.9c-0.1-0.2-0.1-0.4-0.2-0.5
		c-0.6-0.9-1.4-1-2.2-0.4c-0.2,0.1-0.3,0.3-0.5,0.5c-0.4,0.6-0.9,1.1-1.3,1.7c-0.7,1-1.5,2-2.3,3c-0.6,0.7-1.1,1.3-1.8,1.9
		c-0.3,0.2-0.5,0.5-0.8,0.6c-0.2,0.1-0.5,0.2-0.7,0.2c-1,0.1-1.9-0.8-1.6-1.8c0-0.2,0.1-0.4,0.2-0.5c0.1-0.1,0.2-0.3,0.2-0.4
		c0.9-1.4,1.8-2.8,2.7-4.2c0.7-1,1.4-1.9,2.3-2.7c0.8-0.7,1.7-1.4,2.6-2c0.2-0.1,0.5-0.3,0.7-0.5c0.8-0.5,1.5-1.1,2.1-1.8
		c0.2-0.2,0.4-0.4,0.6-0.6c0.3-0.3,0.6-0.5,1-0.7c0.6-0.3,1.2-0.2,1.7,0.2c0.3,0.2,0.5,0.5,0.7,0.8
		C705,219.5,705.2,220.2,705.1,220.8z"/>
	<path d="M316.3,264.7c-0.1-1.4,0.1-2.7,0.2-3.9c0.1-0.9,0.2-1.7,0.3-2.6c0.1-0.6,0.2-1.2,0.4-1.8c0.1-0.4,0.3-0.7,0.7-1
		c0.6-0.6,1.7-0.5,2.2,0.1c0.2,0.2,0.3,0.4,0.4,0.6c0.1,0.2,0.2,0.5,0.3,0.7c0.6,1.9,1.2,3.8,1.7,5.8c0.4,1.7,0.6,3.3,0.5,5
		c0,0.6-0.1,1.2-0.3,1.8c-0.3,0.9-0.6,1.8-0.9,2.7c-0.3,0.6-0.5,1.2-0.7,1.9c-0.2,0.6-0.4,1.3-0.4,2c-0.1,1,0.2,2,0.6,3
		c0.4,0.9,0.9,1.7,1.5,2.4c0.2,0.3,0.5,0.5,0.8,0.7c0.7,0.5,1.4,0.5,2.1,0.2c0.6-0.2,1.1-0.6,1.5-1c0.5-0.6,1.1-1.1,1.6-1.8
		c0.6-0.9,1.1-1.8,1.6-2.7c0.8-1.5,1.2-3.1,1.7-4.7c0.3-1,0.6-1.9,0.9-2.8c0.2-0.6,0.4-1.2,0.6-1.8c0.3-1.2,0.6-2.3,1.1-3.4
		c0.7-1.7,1.1-3.4,1.3-5.2c0.1-1,0.2-1.9,0.2-2.9c0-1-0.1-2-0.5-2.9c-0.2-0.5-0.4-1.1-0.5-1.6c-0.3-0.8-0.2-1.6,0-2.4
		c0.2-0.5,0.4-1,0.6-1.5c0.3-0.5,0.7-0.9,1.2-1.2c0.3-0.3,0.7-0.4,1.1-0.5c0.2,0,0.3,0,0.5,0c0.3,0.1,0.6,0.2,0.9,0.3
		c0.4,0.3,0.8,0.5,1.2,0.8c0.6,0.4,1.2,0.5,1.9,0.4c0.2,0,0.5-0.1,0.7-0.2c0.5-0.2,1-0.5,1.6-0.7c0.6-0.3,1.3-0.5,2-0.7
		c0.9-0.2,1.8-0.5,2.6-1c1.2-0.6,2.4-1.1,3.6-1.7c1.3-0.6,2.6-1.1,3.9-1.6c0.8-0.3,1.7-0.6,2.5-1c1.6-0.8,3.3-1.3,5-1.7
		c0.8-0.2,1.6-0.5,2.3-0.8c0.8-0.4,1.6-0.8,2.5-1c0.3-0.1,0.5-0.2,0.8-0.3c0.6-0.2,1.3-0.5,1.9-0.7c1.3-0.4,2.5-0.9,3.7-1.3
		c1.6-0.6,3.3-1.2,5-1.6c0.7-0.2,1.4-0.4,2-0.5c0.8-0.2,1.7-0.4,2.5-0.6c0.7-0.1,1.3-0.1,2-0.1c0.7,0,1.3,0.2,1.9,0.5
		c0.1,0,0.1,0.1,0.2,0.1c1.2,0.8,1.3,2.3,0.3,3.3c-0.5,0.5-1.1,0.8-1.8,1.1c-1.6,0.7-3.2,1.4-4.9,1.7c-0.5,0.1-0.9,0.3-1.4,0.4
		c-0.8,0.2-1.7,0.4-2.5,0.5c-0.7,0.1-1.3,0.1-2,0.2c-0.7,0.1-1.4,0.4-2.1,0.7c-1.2,0.5-2.4,1-3.5,1.4c-0.6,0.2-1.2,0.6-1.7,1
		c-1,0.8-2.1,1.4-3.2,2c-0.4,0.2-0.8,0.3-1.2,0.5c-0.1,0-0.2,0.1-0.3,0.1c-0.6,0.1-0.8,0-1.1-0.5c-0.1-0.2-0.1-0.4-0.2-0.5
		c-0.2-0.4-0.6-0.7-1.1-0.6c-0.3,0-0.6,0-0.8,0.1c-0.5,0.1-1,0.3-1.5,0.5c-1.2,0.5-2.5,1-3.7,1.5c-1,0.4-2.1,0.8-3.1,1.3
		c-0.6,0.3-1.3,0.6-2,0.8c-0.9,0.3-1.7,0.6-2.6,1.1c-0.7,0.4-1.4,0.7-2.2,1c-1.3,0.5-2.6,1.1-3.8,1.9c-0.2,0.1-0.4,0.2-0.6,0.3
		c-0.3,0.2-0.6,0.4-0.9,0.6c-0.5,0.4-0.9,1-1.1,1.6c-0.1,0.4-0.2,0.7-0.2,1.1c-0.1,0.8-0.2,1.6-0.4,2.5c-0.2,1.2-0.4,2.4-0.7,3.6
		c-0.1,0.7-0.3,1.4-0.6,2c-0.4,1.1-0.8,2.2-1,3.3c-0.4,1.7-0.9,3.3-1.5,4.9c-0.3,0.8-0.5,1.5-0.7,2.3c-0.3,1.3-0.8,2.5-1.4,3.7
		c-0.7,1.3-1.5,2.7-2.2,4c-0.2,0.4-0.4,0.8-0.6,1.2c-0.3,0.9-0.9,1.7-1.4,2.5c-0.6,0.8-1.2,1.6-1.9,2.3c-0.5,0.5-0.9,1.1-1.2,1.7
		c-0.2,0.3-0.4,0.6-0.6,0.8c-0.6,0.6-1.3,0.7-2.1,0.5c-0.3-0.1-0.5-0.2-0.7-0.5c-0.2-0.3-0.4-0.5-0.5-0.8c-0.4-0.8-0.9-1.6-1.3-2.4
		c-0.2-0.4-0.4-0.8-0.5-1.2c-0.3-0.9-0.7-1.9-1-2.8c-0.2-0.5-0.4-1-0.6-1.4c-0.1-0.2-0.2-0.4-0.2-0.6c-0.3-1-0.7-2-1-3
		c-0.2-0.7-0.4-1.4-0.4-2.2c-0.1-1.2-0.3-2.4-0.4-3.6c-0.1-0.9-0.3-1.8-0.4-2.6C316.5,268,316.2,266.3,316.3,264.7z"/>
	<path d="M416.4,247.3c0-1.1,0-2,0.1-3c0.1-0.6,0.1-1.2,0.2-1.8c0.1-1.2,0.5-2.4,0.8-3.6c0.2-0.7,0.4-1.4,0.7-2.1
		c0.3-0.9,0.9-1.5,1.7-1.9c0.6-0.3,1.1-0.4,1.8-0.5c0.5,0,1.1,0,1.6,0c0.6,0,1.1,0.1,1.6,0.4c1,0.5,2,1.1,2.8,1.8
		c0.7,0.6,1.3,1.3,1.9,2c0.7,0.9,1.2,1.9,1.5,3c0.1,0.6,0.3,1.2,0.4,1.9c0.1,0.8,0.1,1.5,0,2.3c-0.1,0.5-0.2,1.1-0.3,1.6
		c-0.1,0.7-0.3,1.3-0.4,2c-0.3,1.5-0.9,2.9-1.6,4.3c-0.5,1-1.2,1.8-2.1,2.4c-0.4,0.3-0.8,0.5-1.2,0.8c-0.3,0.2-0.5,0.4-0.8,0.5
		c-0.7,0.5-1,1.3-1.1,2.1c0,0.7,0.1,1.3,0.4,2c0.3,0.9,0.7,1.6,1.2,2.4c0.2,0.4,0.4,0.7,0.7,1.1c0.5,0.8,1.2,1.5,2.1,1.9
		c0.4,0.2,0.7,0.3,1,0.5c0.4,0.3,0.7,0.6,0.9,1c0.5,1.1,0.9,2.1,1.4,3.2c0.2,0.4,0.2,0.7,0.2,1.1c0,0.8-0.6,1.4-1.5,1.5
		c-0.4,0-0.7,0-1-0.2c-0.4-0.2-0.8-0.3-1.2-0.5c-0.3-0.1-0.6-0.3-1-0.3c-0.6-0.1-1.1,0-1.6,0.3c-0.3,0.2-0.7,0.5-0.9,0.8
		c-1.2,1.4-2.2,3-2.9,4.7c-0.2,0.5-0.4,1.1-0.7,1.6c-0.2,0.5-0.5,1-0.8,1.4c-0.6,0.7-1.1,1.3-1.7,2c-0.4,0.4-0.8,0.7-1.3,0.9
		c-1.2,0.6-2.4,0.3-3.4-0.4c-0.3-0.2-0.5-0.4-0.6-0.7c-0.1-0.2-0.2-0.4-0.3-0.6c-0.4-0.9-0.9-1.7-1.5-2.4c-0.2-0.3-0.5-0.6-0.7-0.9
		c-0.5-0.6-0.6-1.4-0.6-2.2c0.1-1.6,1.1-2.6,2.4-3.3c0.4-0.2,0.9-0.3,1.4-0.3c0.5,0,1.1,0,1.6,0.1c0.7,0.1,1.3,0,2-0.1
		c0.5-0.1,1.1-0.2,1.6-0.4c1.1-0.5,2.1-1,3.2-1.6c0.4-0.2,0.7-0.5,1-0.8c0.5-0.6,0.7-1.3,0.5-2c-0.1-0.2-0.2-0.5-0.3-0.7
		c-0.1-0.2-0.3-0.4-0.4-0.6c-0.6-0.8-1-1.7-1.3-2.7c-0.1-0.5-0.3-0.9-0.6-1.3c-0.6-1-1.5-1.6-2.5-1.9c-0.5-0.2-1-0.2-1.5-0.1
		c-0.6,0.1-1.3,0.2-1.9,0.4c-0.6,0.2-1.3,0.3-2,0.3c-0.3,0-0.6,0-0.9,0c-0.9-0.1-1.8-0.7-1.9-1.8c-0.1-0.5-0.1-0.9-0.2-1.4
		c0-1.1-0.3-2.1-0.6-3.1c-0.2-0.5-0.3-1-0.5-1.5c-0.2-0.6-0.2-1.2-0.1-1.8c0.2-1,0.8-1.7,1.8-1.8c0.5-0.1,0.9,0,1.3,0.1
		c0.5,0.1,1,0.3,1.6,0.4c0.8,0.2,1.6-0.1,2.2-0.6c0.3-0.3,0.5-0.6,0.5-1c0-0.4,0-0.8,0-1.1C416.4,248.3,416.4,247.8,416.4,247.3z"/>
	<path d="M362.4,247.5c-0.2,0.5-0.4,1-0.8,1.5c-0.4,0.6-0.8,1.2-1.3,1.8c-0.3,0.3-0.5,0.6-0.7,0.9c-0.4,0.6-0.9,1.1-1.4,1.6
		c-1.1,1.1-1.8,2.5-2.2,4.1c-0.1,0.4-0.1,0.8-0.1,1.1c0,0.1,0,0.2,0,0.3c0.2,0.9,0.8,1.5,1.9,1.3c0.8-0.1,1.5-0.5,1.9-1.1
		c0.2-0.3,0.4-0.5,0.5-0.8c0.2-0.5,0.5-1,0.7-1.5c0.6-1.7,1.6-3.1,2.8-4.4c0.5-0.6,1.1-1,1.8-1.4c0.4-0.2,0.7-0.4,1.2-0.4
		c0.8-0.1,1.4,0.1,1.9,0.7c0.3,0.4,0.5,0.9,0.6,1.4c0,0.3,0,0.7,0.1,1.1c0,1.1,0.1,2.2,0.2,3.3c0,0.6,0.1,1.2,0.2,1.8
		c0.3,1.5,0.5,3,0.8,4.4c0.3,1.6,0.5,3.3,0.5,4.9c0,1.6,0,3.3,0,4.9c0,0.9,0,1.9-0.1,2.8c-0.1,1.1,0.1,2.2,0.5,3.3
		c0.3,0.7,0.6,1.3,0.9,2c0.4,1,0.9,1.9,1.3,2.9c0,0,0,0.1,0,0.1c0.8,1.6,0.9,3.3,0.5,5c-0.2,0.8-0.6,1.6-1.2,2.2
		c-0.3,0.4-0.7,0.7-1,1c-0.5,0.5-1.2,0.8-1.9,0.8c-0.3,0-0.5,0-0.7-0.1c-0.6-0.2-1.2-0.6-1.7-1.1c-0.4-0.4-0.7-0.8-1.1-1.2
		c-0.3-0.4-0.6-0.7-1-1.1c-0.3-0.3-0.7-0.5-1.2-0.7c-0.4-0.1-0.9-0.2-1.3-0.3c-1.3-0.1-2.5-0.4-3.6-1c-0.3-0.1-0.5-0.2-0.8-0.4
		c-0.7-0.3-1.3-0.8-1.9-1.3c-0.2-0.2-0.4-0.4-0.5-0.7c-0.2-0.4-0.2-0.8,0.2-1.2c0.2-0.2,0.5-0.3,0.7-0.4c0.5-0.2,1-0.4,1.5-0.6
		c1-0.4,2.1-0.7,3.1-1c0.1,0,0.1-0.1,0.2-0.1c0.7-0.2,1.3-0.6,1.7-1.3c0.5-0.8,0.8-1.6,0.7-2.5c0-0.3-0.1-0.7-0.1-1
		c-0.2-0.9-0.3-1.9-0.3-2.8c0-1.2,0-2.4,0.1-3.6c0.1-0.6,0-1.1,0.1-1.7c0-1.2,0.1-2.4,0.1-3.5c0-0.4,0-0.7-0.1-1
		c-0.1-0.3-0.2-0.5-0.4-0.7c-0.4-0.5-1.1-0.5-1.5,0c-0.3,0.2-0.5,0.5-0.6,0.9c-0.1,0.4-0.3,0.7-0.3,1.1c-0.2,0.7-0.3,1.4-0.4,2.2
		c-0.1,0.3-0.1,0.6-0.2,0.9c-0.1,0.5-0.3,1-0.6,1.4c-0.4,0.6-1,1.1-1.7,1.3c-0.8,0.3-1.6,0.5-2.4,0.5c-0.8,0-1.7,0-2.5,0.2
		c-0.2,0-0.4,0-0.6,0c-0.7,0-1.3,0-2-0.3c-0.8-0.3-1.6-0.7-2.2-1.3c-0.8-0.7-1.5-1.4-2.2-2.2c-0.3-0.4-0.5-0.7-0.6-1.2
		c-0.1-0.4-0.1-0.9,0-1.3c0.1-0.3,0.2-0.6,0.3-0.9c0.1-0.3,0.3-0.6,0.5-0.9c0.4-0.6,0.6-1.3,0.8-2c0.2-0.9,0.5-1.7,0.9-2.5
		c0.2-0.3,0.3-0.6,0.5-0.9c0.2-0.3,0.4-0.6,0.7-0.9c1.3-1,2.4-2.1,3.5-3.3c0.4-0.4,0.8-0.7,1.1-1c0.5-0.5,1-1,1.5-1.5
		c0.5-0.4,0.9-0.9,1.4-1.4c0.4-0.4,0.9-0.8,1.4-1.1c0.9-0.5,1.8-1,2.7-1.5c0.2-0.1,0.5-0.2,0.8-0.3
		C362.1,247.3,362.3,247.4,362.4,247.5z"/>
	<path d="M450.3,272.5c-1.7-0.1-3.2,0.4-4.7,1.1c-0.5,0.2-1,0.5-1.6,0.7c-0.3,0.1-0.7,0.3-1,0.3c-1.1,0.3-2.1,0.1-3.1-0.4
		c-1.2-0.6-2.1-1.5-2.9-2.6c-0.4-0.7-0.8-1.4-1.1-2.1c-0.3-0.8-0.2-1.6,0.3-2.3c0.1-0.2,0.3-0.4,0.4-0.6c0.7-0.8,1.4-1.7,2.1-2.5
		c0.5-0.6,0.9-1.2,1.2-1.8c0.1-0.3,0.3-0.5,0.4-0.8c0.5-0.9,0.9-1.9,1-3c0.1-0.5,0.1-0.9,0.2-1.4c0.1-0.7,0.2-1.4,0.4-2.1
		c0.4-2.2,0.7-4.4,0.9-6.6c0.1-0.7,0.2-1.4,0.4-2.1c0.2-0.7,0.4-1.3,0.5-2c0.1-1.1,0.5-2.2,1.1-3.1c0.5-0.8,1-1.6,1.6-2.4
		c0.2-0.3,0.4-0.5,0.6-0.8c0.3-0.4,0.7-0.7,1.1-1c0.7-0.4,1.5-0.8,2.4-0.9c0.2,0,0.4,0,0.7,0c0.4,0.1,0.7,0.3,0.9,0.7
		c0.2,0.4,0.3,0.7,0.3,1.1c0,0.3,0,0.5,0,0.8c0,0.9,0.2,1.8,0.5,2.6c0.1,0.3,0.2,0.7,0.3,1c0.3,1,0,1.9-0.7,2.6
		c-0.1,0.1-0.2,0.2-0.3,0.3c-0.7,0.7-1.3,1.3-2,2c-0.3,0.3-0.6,0.7-0.9,1.1c-0.2,0.4-0.3,0.8-0.2,1.2c0.1,0.3,0.2,0.6,0.5,0.8
		c0.4,0.3,0.8,0.4,1.3,0.4c0.7,0,1.4-0.1,2-0.5c0.2-0.1,0.4-0.3,0.7-0.4c0.2-0.1,0.5-0.3,0.8-0.4c0.4-0.2,0.9-0.3,1.4-0.3
		c0.5,0,1,0.1,1.5,0.2c1.2,0.2,2.3,0.3,3.5,0.3c0.5,0,1-0.1,1.5-0.2c0.1,0,0.1,0,0.2,0c1-0.3,1.3-1,1-2c-0.1-0.2-0.2-0.4-0.3-0.6
		c-0.3-0.3-0.5-0.6-0.8-1c-0.3-0.3-0.5-0.6-0.8-1c-0.3-0.4-0.5-0.9-0.4-1.4c0-0.6,0.3-1,0.8-1.2c0.5-0.2,1.1-0.2,1.6,0
		c0.4,0.2,0.6,0.4,0.9,0.7c0.4,0.5,0.9,0.9,1.3,1.4c0.3,0.3,0.6,0.6,1,0.9c0.7,0.5,1.4,1,2,1.4c0.1,0.1,0.2,0.1,0.3,0.2
		c0.8,0.7,1.2,1.8,0.5,2.9c-0.2,0.3-0.4,0.5-0.6,0.8c-0.3,0.4-0.7,0.7-1,1c-0.8,0.8-1.7,1.3-2.8,1.7c-0.5,0.2-1.1,0.3-1.6,0.5
		c-0.7,0.2-1.3,0.5-1.9,0.9c-0.4,0.3-0.8,0.5-1.2,0.8c-0.3,0.2-0.7,0.5-1,0.7c-1,0.6-2,0.9-3.2,1c-1.1,0.1-2.1-0.1-3-0.7
		c-0.7-0.4-1.5-0.8-2.2-1.1c-0.6-0.3-1.2-0.5-1.9-0.6c-0.7-0.2-1.3,0.1-1.7,0.6c0,0,0,0-0.1,0.1c-0.2,0.3-0.5,0.7-0.6,1.1
		c-0.1,0.4-0.3,0.8-0.4,1.2c-0.3,1.4-0.8,2.7-1.4,3.9c-0.3,0.6-0.5,1.2-0.6,1.8c-0.1,0.6,0,1.1,0.2,1.6c0.2,0.5,0.6,0.7,1,0.7
		c0.3,0,0.6,0,0.9-0.1c0.3-0.1,0.6-0.2,0.8-0.3c0.6-0.2,1.2-0.4,1.8-0.6c0.7-0.2,1.4-0.4,2.1-0.4c0.6,0,1.2-0.1,1.8-0.1
		c0.4,0,0.9,0,1.3,0c0.5,0,0.9,0.2,1.2,0.5c0.3,0.3,0.5,0.6,0.6,1.1c0,0.4,0,0.9-0.1,1.3c-0.1,0.6-0.3,1.1-0.4,1.7
		c-0.2,0.9-0.7,1.6-1.3,2.2c-0.1,0.1-0.2,0.2-0.4,0.3c-0.9,0.9-2,1.3-3.3,1.2C450.4,272.5,450.3,272.5,450.3,272.5z"/>
	<path d="M691.1,284.2c-0.4,0-0.9-0.1-1.4-0.3c-0.3-0.1-0.5-0.2-0.8-0.4c-0.8-0.5-1.5-0.9-2.3-1.4c-0.4-0.3-0.8-0.6-1-1.1
		c-0.6-1.2-1.1-2.4-1.5-3.7c-0.1-0.4-0.2-0.9-0.2-1.3c0-0.8,0-1.5,0.1-2.3c0-0.6,0.1-1.2,0.1-1.8c0-1.4,0.2-2.9,0.5-4.3
		c0.3-1.5,0.4-3,0.2-4.5c-0.2-1.2-0.2-2.5-0.2-3.7c0.1-1.4,0.1-2.9,0.1-4.3c0-0.9,0.1-1.8,0.1-2.7c0.1-1.6,0.1-3.1,0-4.7
		c-0.1-2,0-4.1,0-6.1c0-0.8,0.2-1.5,0.5-2.2c0.3-0.5,0.5-1,0.8-1.5c0.2-0.5,0.6-0.9,1.1-1.2c0.6-0.4,1.2-0.5,1.9-0.4
		c0.4,0,0.7,0.2,1,0.4c0.9,0.6,1.7,1.4,2.4,2.3c0.6,0.9,0.8,1.9,0.5,3c-0.2,0.6-0.4,1.3-0.6,1.9c-0.3,1.2-0.5,2.4-0.5,3.7
		c0,1.5,0.5,2.9,1.3,4.2c0.4,0.6,0.8,1.1,1.1,1.7c0.1,0.2,0.2,0.3,0.3,0.5c0.2,0.3,0.2,0.6,0.2,0.9c0,0.2-0.1,0.4-0.1,0.6
		c-0.4,1.1-0.7,2.1-1.3,3.1c-0.3,0.4-0.5,0.9-0.7,1.3c-0.4,0.8-0.7,1.6-0.8,2.5c-0.1,0.9-0.3,1.7-0.5,2.5c-0.1,0.5-0.1,1-0.1,1.5
		c0,0.4,0.2,0.8,0.5,1.1c0.3,0.3,0.6,0.5,0.9,0.7c0.3,0.3,0.7,0.5,1,0.8c0.2,0.1,0.3,0.3,0.4,0.5c0.2,0.5,0.2,0.9-0.1,1.4
		c-0.1,0.3-0.3,0.5-0.5,0.7c-0.2,0.3-0.4,0.6-0.6,0.9c-0.2,0.4-0.3,0.8-0.4,1.2c-0.1,0.7-0.1,1.4,0,2.1c0.1,0.8,0.3,1.5,0.7,2.2
		c0.2,0.4,0.4,0.7,0.6,1.1c0.3,0.6,0.6,1.2,0.7,1.9c0.1,1-0.2,1.9-1.1,2.5C692.8,283.9,692,284.2,691.1,284.2z"/>
	<path d="M727.3,289c-1,0-1.9-0.1-2.9-0.3c-1.3-0.2-2.6-0.8-3.6-1.7c-0.2-0.2-0.5-0.4-0.7-0.7c-0.4-0.5-0.7-1-0.8-1.6
		c-0.2-1.1-0.2-2.1,0.2-3.1c0.2-0.4,0.4-0.9,0.6-1.3c0.6-1.2,1.1-2.5,1.5-3.8c0.1-0.5,0.4-1,0.6-1.4c0.3-0.7,0.9-1.1,1.6-1.1
		c0.5,0,1,0,1.4,0.2c0.7,0.3,1,0.8,1,1.6c0,0.6-0.2,1.1-0.4,1.6c-0.3,0.7-0.7,1.3-1,1.9c-0.2,0.3-0.3,0.6-0.5,0.9
		c-0.3,0.6-0.5,1.2-0.7,1.8c-0.2,1,0.1,1.9,1,2.5c0.7,0.5,1.5,0.9,2.3,1c0.6,0.1,1.1,0.1,1.7,0.2c1,0.1,2-0.1,3-0.5
		c0.9-0.3,1.8-0.6,2.7-0.8c0.8-0.2,1.7-0.4,2.5-0.8c1.1-0.6,2.2-1.3,3.2-2.1c0.3-0.2,0.5-0.5,0.7-0.8c0.5-0.7,0.7-1.5,0.6-2.3
		c-0.1-0.4-0.2-0.8-0.4-1.1c-0.2-0.3-0.5-0.7-0.8-1c-0.8-0.6-1.2-1.5-1.4-2.5c-0.2-0.8-0.3-1.5-0.3-2.3c0-1.1-0.1-2.2-0.1-3.3
		c0-0.5,0-1,0.1-1.4c0-0.3,0.1-0.5,0.2-0.7c0.2-0.6,0.7-0.9,1.3-1.1c0.2,0,0.4,0,0.6,0c0.7,0.2,1.2,0.5,1.7,1
		c0.6,0.5,1.1,1.1,1.4,1.8c0.6,1.1,1,2.2,1,3.5c0,0.6,0.1,1.1,0.1,1.7c0,0.3,0.1,0.7,0.1,1c0.1,0.8,0.4,1.5,0.8,2.2
		c0.5,0.9,1.1,1.7,1.8,2.5c0.3,0.4,0.6,0.7,0.9,1.1c0.2,0.2,0.3,0.4,0.4,0.6c0.2,0.4,0.3,0.8,0.3,1.3c0,0.6-0.3,1-0.8,1.3
		c-0.4,0.2-0.8,0.3-1.2,0.4c-0.4,0.1-0.8,0.1-1.2,0.2c-0.6,0-1.2,0.3-1.8,0.5c-1.9,0.7-3.7,1.6-5.5,2.5c-0.6,0.3-1.3,0.5-2,0.7
		c-0.2,0-0.4,0.1-0.7,0.1c-1.2,0.2-2.4,0.5-3.7,0.8c-0.8,0.2-1.7,0.4-2.5,0.6C728.9,289,728.1,289,727.3,289z"/>
	<path d="M324.6,233.5c0.1,1.2-0.3,2.4-1,3.4c-0.2,0.4-0.5,0.7-0.7,1c-0.6,0.8-1.3,1.5-2.2,2c-0.3,0.2-0.7,0.3-1,0.5
		c-0.6,0.3-1.2,0.7-1.7,1.2c-0.5,0.4-0.8,0.9-1.1,1.5c-0.1,0.3-0.3,0.5-0.4,0.8c-0.1,0.2-0.2,0.5-0.4,0.7c-0.4,0.7-1.1,1-1.9,1.2
		c-0.9,0.1-1.3-0.5-1.4-1.1c-0.1-0.6-0.1-1.1,0.1-1.7c0.1-0.6,0.3-1.2,0.4-1.8c0.1-0.6,0.3-1.1,0.3-1.7c0.1-0.6,0-1.1-0.2-1.7
		c-0.2-0.6-0.5-1.2-0.8-1.7c-0.6-1.1-0.9-2.2-0.8-3.5c0-0.6,0-1.2,0.1-1.8c0-0.5,0-1.1,0-1.6c0-0.7,0-1.4,0.1-2.1
		c0.1-0.6,0.3-1.2,0.6-1.8c0.3-0.6,0.6-1.2,1.1-1.7c0.5-0.6,1.2-0.9,1.9-0.9c0.9,0,1.8-0.1,2.7,0c1.3,0.1,2.2,0.7,2.8,1.9
		c0.1,0.2,0.2,0.4,0.3,0.6c0.4,0.9,0.8,1.7,1.2,2.6c0.4,0.7,0.7,1.5,1.1,2.2C324.2,231,324.6,232.2,324.6,233.5z"/>
	<path d="M712.6,266.4c0.2,0,0.5,0.1,0.8,0.1c0.9,0.1,1.8,0.1,2.7-0.1c0.8-0.2,1.6-0.4,2.4-0.6c1.1-0.4,2.2-0.8,3.2-1.6
		c0.9-0.7,1.9-1.2,2.9-1.6c0.5-0.2,0.9-0.4,1.4-0.6c0.6-0.3,1.1-0.4,1.8-0.4c0.4,0,0.7,0,1,0.1c0.8,0.2,1.5,0.9,1.6,1.7
		c0,0.2,0,0.4,0,0.6c-0.1,0.6-0.5,1.2-1,1.6c-0.2,0.2-0.5,0.4-0.7,0.7c-0.9,1-1.9,1.9-2.8,2.9c-0.3,0.3-0.7,0.6-1,0.9
		c-0.3,0.3-0.6,0.5-1,0.8c-0.7,0.5-1.3,1.2-1.8,2c-0.1,0.2-0.3,0.4-0.4,0.6c-0.2,0.2-0.4,0.5-0.6,0.6c-1,0.8-2,1.6-2.9,2.5
		c-0.2,0.1-0.4,0.3-0.5,0.4c-0.9,0.9-2,1.7-3.1,2.4c-0.6,0.4-1.2,0.9-1.6,1.5c-0.5,0.6-0.9,1.1-1.4,1.7c-0.2,0.3-0.5,0.5-0.8,0.7
		c-0.9,0.6-1.8,0.6-2.7,0.2c-0.2-0.1-0.4-0.2-0.6-0.4c-0.8-0.5-1.2-1.8-0.5-2.9c0.2-0.3,0.5-0.6,0.9-0.9c0.6-0.4,1.2-0.9,1.8-1.4
		c0.6-0.5,1.1-1.2,1.7-1.7c0.2-0.3,0.5-0.5,0.7-0.8c0.1-0.2,0.3-0.4,0.4-0.5c0.6-0.9,0.7-1.9,0.2-2.9c-0.2-0.3-0.4-0.7-0.6-1
		c-0.3-0.5-0.6-1-0.9-1.5c-0.2-0.6-0.3-1.2-0.2-1.8c0.1-0.6,0.5-1,1.1-1.1C712.2,266.4,712.4,266.4,712.6,266.4z"/>
	<path d="M725.3,228.7c-0.5-0.1-0.9-0.1-1.4-0.2c-0.7-0.1-1.4-0.2-2.1-0.3c-0.3,0-0.6-0.1-0.9-0.2c-0.2-0.1-0.3-0.3-0.2-0.5
		c0.1-0.2,0.2-0.4,0.3-0.6c0.4-0.6,0.9-1,1.4-1.5c0.2-0.2,0.5-0.4,0.7-0.5c0.2-0.2,0.5-0.4,0.7-0.6c0.6-0.6,1-1.4,0.9-2.3
		c0-0.7-0.2-1.5-0.4-2.2c-0.3-0.8-0.5-1.6-0.8-2.3c-0.3-0.7-0.3-1.4-0.2-2.2c0.1-0.4,0.2-0.8,0.5-1.1c0.5-0.4,1-0.6,1.6-0.4
		c0.5,0.2,1,0.5,1.3,0.9c0.3,0.4,0.5,0.8,0.7,1.2c0.4,0.8,0.9,1.6,1.4,2.4c0.7,1,1.1,2.1,1.7,3.1c0,0.1,0,0.1,0.1,0.2
		c0.5,1,0.5,2.1,0.1,3.1c-0.6,1.3-1.4,2.4-2.7,3.1C727.2,228.4,726.3,228.7,725.3,228.7z"/>
	<path d="M552.5,217.6c1,0,1.9,0.3,2.7,0.8c1.3,0.7,2.5,1.5,3.8,2.2c0.5,0.3,0.9,0.7,1.2,1.3c0.1,0.2,0.2,0.5,0.2,0.7
		c0,0.4,0,0.8-0.1,1.2c-0.1,0.3-0.2,0.5-0.3,0.8c-0.3,0.6-0.7,1.2-1.3,1.6c-0.5,0.4-1,0.8-1.6,1.1c-0.6,0.3-1.2,0.5-1.8,0.6
		c-0.2,0-0.5,0-0.8,0c-0.8-0.1-1.6-0.3-2.3-0.5c0,0-0.1,0-0.1,0c-0.9-0.3-1.5-0.9-1.9-1.8c0-0.1-0.1-0.2-0.1-0.4
		c-0.3-1.2-0.6-2.5-0.6-3.8c0-0.6,0.1-1.3,0.3-1.9c0.1-0.3,0.2-0.5,0.3-0.8c0.4-0.8,1.1-1.2,1.9-1.2
		C552.3,217.6,552.4,217.6,552.5,217.6z"/>
	<path d="M723.3,259.3c-0.6,0-1.1-0.1-1.6-0.2c-1.2-0.4-2.3-0.9-3.3-1.6c-0.7-0.5-1-1.2-1.1-2c0-0.5,0.3-1,0.7-1.3
		c0.3-0.2,0.6-0.3,0.9-0.4c0.3-0.1,0.6-0.2,0.9-0.2c0.9-0.1,1.7-0.4,2.5-0.8c0.3-0.2,0.7-0.4,1-0.5c0.7-0.3,1.4-0.4,2.1-0.3
		c0.6,0.1,1.3,0.2,1.9,0.4c0.5,0.2,1,0.5,1.5,0.8c0.3,0.2,0.5,0.6,0.6,0.9c0.1,0.3,0.2,0.6,0.1,0.9c0,0.9-0.4,1.7-1.2,2.2
		c-0.2,0.1-0.3,0.2-0.5,0.3c-0.8,0.4-1.6,0.8-2.4,1.2c-0.1,0.1-0.3,0.1-0.4,0.2C724.5,259.2,723.9,259.3,723.3,259.3z"/>
</g>
<rect x="314.3" y="419.1" class="st0" width="23.7" height="168.3"/>
<rect x="355.3" y="429.9" class="st0" width="23.7" height="157.5"/>
<rect x="396.3" y="440.6" class="st0" width="23.7" height="146.8"/>
<rect x="439.4" y="451.5" class="st0" width="21.6" height="135.9"/>
<rect x="480.4" y="462.2" class="st0" width="19.4" height="125.2"/>
<rect x="521.4" y="473" class="st0" width="17.3" height="114.4"/>
<rect x="564.6" y="483.8" class="st0" width="15.1" height="103.6"/>
<rect x="605.6" y="494.6" class="st0" width="15.1" height="92.8"/>
<rect x="648.8" y="505.4" class="st0" width="10.8" height="82"/>
<rect x="689.8" y="516.2" class="st0" width="10.8" height="71.2"/>
<rect x="730.8" y="527" class="st0" width="10.8" height="60.4"/>
<polygon class="st1" points="59.6,585 59.6,481.8 51.1,479.5 51,479.5 51,587.3 "/>
<polygon class="st1" points="94.2,585.1 94.2,473.2 85.5,470.9 85.5,587.4 "/>
<polygon class="st1" points="128.7,583.9 128.7,467.9 115.7,464.4 115.7,587.3 "/>
<polygon class="st1" points="163.2,583.9 163.2,459.3 150.3,455.8 150.3,587.4 150.3,587.4 "/>
<rect x="169.7" y="395.3" class="st2" width="6.5" height="192"/>
<rect x="236.6" y="373.7" class="st2" width="6.5" height="213.6"/>
<rect x="305.6" y="391" class="st2" width="4.3" height="196.4"/>
<polygon class="st2" points="197.7,583.4 197.7,388.8 191.3,388.8 191.3,585.1 "/>
<polygon class="st2" points="221.5,585.6 221.5,380.2 215,380.2 215,587.3 215,587.3 "/>
<polygon class="st2" points="266.8,582.1 266.8,378 260.3,378 260.3,583.9 "/>
<polygon class="st2" points="286.2,585.6 286.2,386.6 279.7,386.6 279.7,587.3 279.8,587.3 "/>
<polygon class="st1" points="197.7,583.3 197.7,453.4 182.6,449.3 182.6,587.4 "/>
<polygon class="st1" points="232.3,582.8 232.3,445.3 215,440.7 215,587.4 "/>
<polygon class="st1" points="266.8,582.1 266.8,439.4 247.4,434.2 247.4,587.3 "/>
<polygon class="st1" points="301.3,581.6 301.3,431.3 279.8,425.6 279.7,425.6 279.7,587.4 "/>
<g>
	<path d="M312.5,350c2-0.2,3.3-0.6,3.8-1.1c0.5-0.5,0.8-1.9,0.8-4.1v-22c0-1.8-0.3-3-0.8-3.6c-0.6-0.5-1.8-0.9-3.7-1v-0.9H327v0.9
		c-1.9,0.1-3.1,0.5-3.7,1s-0.9,1.7-0.9,3.6v9.9h15.8v-9.9c0-1.8-0.3-3-0.8-3.6s-1.8-0.9-3.7-1v-0.9H348v0.9c-1.9,0.1-3.2,0.5-3.7,1
		c-0.6,0.5-0.8,1.7-0.8,3.6v22.6c0,1.8,0.3,3,0.8,3.5c0.6,0.5,1.8,0.9,3.7,1v0.9h-14.4V350c2-0.2,3.3-0.6,3.8-1.1
		c0.5-0.5,0.7-1.9,0.7-4.1v-9.9h-15.8v10.5c0,1.8,0.3,3,0.9,3.6c0.6,0.5,1.8,0.9,3.7,1v0.9h-14.4V350z"/>
	<path d="M353.7,350c1.9-0.2,3.1-0.5,3.7-1c0.6-0.5,0.8-1.7,0.8-3.6v-22.6c0-1.8-0.3-3-0.8-3.5c-0.6-0.6-1.8-0.9-3.7-1v-0.9h27.6
		l0.2,7.3h-1.3c-0.4-2.2-1.1-3.7-2-4.4c-0.9-0.7-2.8-1-5.9-1h-7.1c-0.8,0-1.2,0.1-1.4,0.4c-0.2,0.2-0.3,0.7-0.3,1.4v11.4h8
		c2.2,0,3.6-0.3,4.2-1c0.6-0.6,1.1-1.9,1.5-3.9h1.2v11.8h-1.2c-0.4-2-0.9-3.3-1.5-3.9c-0.6-0.6-2-1-4.2-1h-8v12.6c0,1,0.3,1.6,1,1.8
		c0.7,0.2,2.6,0.3,5.9,0.3c3.5,0,6.1-0.4,7.8-1.1c1.7-0.8,3.2-2.6,4.5-5.5h1.4l-2.4,8.6h-28.1V350z"/>
	<path d="M389.7,350c2.1-0.1,3.4-0.4,4.1-1c0.6-0.5,0.9-1.7,0.9-3.6v-22.6c0-1.9-0.3-3.1-0.9-3.6c-0.6-0.5-2-0.9-4.1-1v-0.9h14.6
		c4.2,0,7.5,0.7,9.9,2c2.4,1.3,3.7,3.6,3.7,6.8c0,2.4-0.9,4.2-2.6,5.5c-1,0.7-2.4,1.3-4.3,1.8c2.4,0.6,4.4,1.5,6.1,2.8
		c1.7,1.3,2.5,3.2,2.5,5.5c0,4-1.9,6.7-5.6,8.2c-2,0.8-4.4,1.2-7.3,1.2h-16.9V350z M409.2,331.5c2.2-1,3.3-2.8,3.3-5.4
		c0-3-1.3-5.1-3.8-6.2c-1.4-0.6-3.5-0.9-6.4-0.9c-1.1,0-1.8,0.1-2,0.3c-0.3,0.2-0.4,0.7-0.4,1.5v11.5l4.9-0.1
		C406.6,332.3,408.1,332,409.2,331.5z M410.9,347.6c1.8-1,2.7-2.9,2.7-5.8c0-2.8-1-4.8-3.1-5.8c-2.1-1-4.8-1.6-8-1.6
		c-0.8,0-1.3,0-1.5,0c-0.2,0-0.5,0-1,0V347c0,0.9,0.3,1.4,0.8,1.7c0.5,0.3,1.7,0.4,3.5,0.4C406.9,349.1,409.1,348.6,410.9,347.6z"/>
	<path d="M427.9,350c1.9-0.2,3.2-0.5,3.7-1c0.6-0.5,0.8-1.7,0.8-3.6v-22.6c0-1.8-0.3-3-0.8-3.5c-0.6-0.6-1.8-0.9-3.7-1v-0.9h27.6
		l0.2,7.3h-1.3c-0.4-2.2-1.1-3.7-2-4.4c-0.9-0.7-2.8-1-5.9-1h-7.1c-0.8,0-1.2,0.1-1.4,0.4c-0.2,0.2-0.3,0.7-0.3,1.4v11.4h8
		c2.2,0,3.6-0.3,4.2-1c0.6-0.6,1.1-1.9,1.5-3.9h1.2v11.8h-1.2c-0.4-2-0.9-3.3-1.5-3.9c-0.6-0.6-2-1-4.2-1h-8v12.6c0,1,0.3,1.6,1,1.8
		c0.7,0.2,2.6,0.3,5.9,0.3c3.5,0,6.1-0.4,7.8-1.1c1.7-0.8,3.2-2.6,4.5-5.5h1.4l-2.4,8.6h-28.1V350z"/>
	<path d="M463.8,350c2.1-0.1,3.5-0.5,4.1-0.9c0.6-0.5,0.9-1.7,0.9-3.6v-22.6c0-1.9-0.3-3.1-0.9-3.6c-0.6-0.5-2-0.9-4.1-1v-0.9h15.4
		v0.9c-2.1,0.1-3.5,0.4-4.1,1c-0.6,0.5-0.9,1.7-0.9,3.6v22.6c0,2,0.3,3.2,0.9,3.6c0.6,0.5,2,0.8,4.1,0.9v0.9h-15.4V350z"/>
	<path d="M501.6,350c2.1-0.2,3.5-0.7,4.1-1.4c0.6-0.7,0.9-2.4,0.9-5.1v-20.7c0-1.8-0.3-3-0.9-3.6c-0.6-0.6-1.9-0.9-4-1v-0.9H512
		l11.9,25.4l11.6-25.4h10.3v0.9c-1.9,0.1-3.2,0.5-3.7,1c-0.6,0.6-0.8,1.7-0.8,3.5v22.6c0,1.9,0.3,3,0.8,3.6c0.6,0.5,1.8,0.9,3.7,1
		v0.9h-14.5V350c2.1-0.2,3.4-0.5,3.9-1.1c0.5-0.6,0.8-1.9,0.8-4.1v-22.8l-13.3,29h-0.7L509,323.1v20.3c0,2.8,0.4,4.6,1.2,5.4
		c0.5,0.5,1.8,0.9,3.6,1.1v0.9h-12.2V350z"/>
	<path d="M566.6,317.2v0.9c-2,0.1-3.3,0.5-3.9,1c-0.6,0.5-0.9,1.7-0.9,3.6V339c0,2.7,0.4,4.7,1.1,6.2c1.4,2.7,4,4.1,7.9,4.1
		c4.2,0,7.1-1.4,8.5-4.2c0.8-1.6,1.2-4,1.2-7.2v-13.2c0-2.8-0.3-4.5-1-5.2c-0.7-0.7-2-1.1-3.9-1.3v-0.9h12v0.9
		c-2,0.2-3.3,0.7-3.9,1.4c-0.6,0.7-0.9,2.4-0.9,5.1V338c0,3.5-0.5,6.3-1.6,8.2c-2,3.6-5.9,5.4-11.6,5.4c-5.6,0-9.4-1.8-11.5-5.4
		c-1.1-1.9-1.7-4.5-1.7-7.6v-15.9c0-1.9-0.3-3-0.9-3.6c-0.6-0.5-1.9-0.9-3.8-1v-0.9H566.6z"/>
	<path d="M595.9,340.7c0.9,2.3,1.9,4.1,3.1,5.5c2.1,2.4,4.6,3.6,7.7,3.6c1.7,0,3.1-0.5,4.3-1.5c1.2-1,1.8-2.5,1.8-4.3
		c0-1.7-0.6-3.1-1.8-4.3c-0.8-0.8-2.5-1.9-5-3.5l-4.4-2.7c-1.3-0.8-2.4-1.7-3.2-2.5c-1.5-1.6-2.2-3.4-2.2-5.3c0-2.6,0.9-4.7,2.6-6.4
		c1.7-1.7,4.1-2.6,6.9-2.6c1.2,0,2.6,0.3,4.3,0.9c1.7,0.6,2.6,0.9,2.9,0.9c0.6,0,1.1-0.1,1.3-0.4c0.2-0.3,0.4-0.7,0.6-1.3h1.1
		l1.1,10.8h-1.2c-0.8-3.3-2.2-5.5-4.1-6.8c-1.9-1.3-3.7-1.9-5.5-1.9c-1.4,0-2.7,0.4-3.7,1.2c-1.1,0.8-1.6,2-1.6,3.4
		c0,1.3,0.4,2.4,1.2,3.4c0.8,0.9,2.1,1.9,3.8,3l4.6,2.8c2.9,1.7,4.9,3.3,6,4.7c1.2,1.5,1.7,3.2,1.7,5.2c0,2.7-1,4.9-3.1,6.7
		c-2.1,1.8-4.7,2.7-7.9,2.7c-1.6,0-3.3-0.3-5-0.9c-1.7-0.6-2.8-0.9-3-0.9c-0.6,0-1,0.2-1.2,0.5c-0.2,0.4-0.4,0.8-0.4,1.2h-1.1
		l-1.5-10.8H595.9z"/>
	<path d="M626,350c1.9-0.2,3.1-0.5,3.7-1c0.6-0.5,0.9-1.7,0.9-3.6v-22.6c0-1.8-0.3-3-0.8-3.5c-0.6-0.6-1.8-0.9-3.7-1v-0.9h27.6
		l0.2,7.3h-1.3c-0.4-2.2-1.1-3.7-2-4.4c-0.9-0.7-2.8-1-5.9-1h-7.1c-0.8,0-1.2,0.1-1.4,0.4s-0.3,0.7-0.3,1.4v11.4h8
		c2.2,0,3.6-0.3,4.2-1c0.6-0.6,1.1-1.9,1.5-3.9h1.2v11.8h-1.2c-0.4-2-0.9-3.3-1.5-3.9c-0.6-0.6-2-1-4.2-1h-8v12.6c0,1,0.3,1.6,1,1.8
		c0.7,0.2,2.6,0.3,5.9,0.3c3.5,0,6.1-0.4,7.8-1.1c1.7-0.8,3.2-2.6,4.5-5.5h1.4l-2.4,8.6H626V350z"/>
	<path d="M676.5,317.2v0.9c-2,0.1-3.3,0.5-3.9,1c-0.6,0.5-0.9,1.7-0.9,3.6V339c0,2.7,0.4,4.7,1.1,6.2c1.4,2.7,4,4.1,7.9,4.1
		c4.2,0,7.1-1.4,8.5-4.2c0.8-1.6,1.2-4,1.2-7.2v-13.2c0-2.8-0.3-4.5-1-5.2c-0.7-0.7-2-1.1-3.9-1.3v-0.9h12v0.9
		c-2,0.2-3.3,0.7-3.9,1.4c-0.6,0.7-0.9,2.4-0.9,5.1V338c0,3.5-0.6,6.3-1.7,8.2c-2,3.6-5.9,5.4-11.6,5.4c-5.6,0-9.4-1.8-11.5-5.4
		c-1.1-1.9-1.7-4.5-1.7-7.6v-15.9c0-1.9-0.3-3-0.9-3.6c-0.6-0.5-1.9-0.9-3.8-1v-0.9H676.5z"/>
	<path d="M703,350c2.1-0.2,3.5-0.7,4.1-1.4c0.6-0.7,0.9-2.4,0.9-5.1v-20.7c0-1.8-0.3-3-0.9-3.6c-0.6-0.6-1.9-0.9-4-1v-0.9h10.2
		l11.9,25.4l11.6-25.4h10.3v0.9c-1.9,0.1-3.2,0.5-3.7,1c-0.6,0.6-0.8,1.7-0.8,3.5v22.6c0,1.9,0.3,3,0.8,3.6c0.6,0.5,1.8,0.9,3.7,1
		v0.9h-14.5V350c2.1-0.2,3.4-0.5,3.9-1.1c0.5-0.6,0.8-1.9,0.8-4.1v-22.8l-13.3,29h-0.7l-13.1-27.8v20.3c0,2.8,0.4,4.6,1.2,5.4
		c0.5,0.5,1.8,0.9,3.6,1.1v0.9H703V350z"/>
</g>
</svg>
